<?xml version="1.0" encoding="utf-8"?>
<!-- Generator: Adobe Illustrator 21.0.2, SVG Export Plug-In . SVG Version: 6.00 Build 0)  -->
<svg version="1.1" baseProfile="tiny" id="Ebene_1" xmlns="http://www.w3.org/2000/svg" xmlns:xlink="http://www.w3.org/1999/xlink"
	 x="0px" y="0px" viewBox="0 0 498.897 668.977" xml:space="preserve">
<path fill="none" stroke="#000000" stroke-width="0.15" d="M8.504,8.504h283.465v283.464H8.504V8.504z"/>
<path fill="none" stroke="#000000" stroke-width="0.15" d="M8.504,291.968h283.465v283.464H8.504V291.968z"/>
<path fill="none" stroke="#000000" stroke-width="0.15" d="M291.969,8.504h283.465v283.464H291.969V8.504z"/>
<path fill="none" stroke="#000000" stroke-width="0.15" d="M291.969,291.968h283.465v283.464H291.969V291.968z"/>
<path fill="none" stroke="#000000" stroke-width="0.15" d="M8.504,575.433h283.465v283.464H8.504V575.433z"/>
<path fill="none" stroke="#000000" stroke-width="0.15" d="M-274.961,8.504H8.504v283.464h-283.465V8.504z"/>
<path fill="none" stroke="#000000" stroke-width="0.15" d="M8.504-274.96h283.465V8.504H8.504V-274.96z"/>
<path fill="none" stroke="#000000" stroke-width="0.15" d="M291.969-274.96h283.465V8.504H291.969V-274.96z"/>
<path fill="none" stroke="#000000" stroke-width="0.15" d="M-274.961-274.96H8.504V8.504h-283.465V-274.96z"/>
<path fill="none" stroke="#000000" stroke-width="0.15" d="M-274.961,291.968H8.504v283.464h-283.465V291.968z"/>
<path fill="none" stroke="#000000" stroke-width="0.15" d="M-274.961,575.433H8.504v283.464h-283.465V575.433z"/>
<path fill="none" stroke="#000000" stroke-width="0.15" d="M291.969,575.433h283.465v283.464H291.969V575.433z"/>
</svg>
