<?xml version="1.0" encoding="utf-8"?>
<!-- Generator: Adobe Illustrator 21.0.2, SVG Export Plug-In . SVG Version: 6.00 Build 0)  -->
<svg version="1.1" baseProfile="tiny" id="Ebene_1" xmlns="http://www.w3.org/2000/svg" xmlns:xlink="http://www.w3.org/1999/xlink"
	 x="0px" y="0px" viewBox="0 0 576.15 792.15" xml:space="preserve">
<path fill="none" stroke="#000000" stroke-width="0.15" d="M144.075,504.075h72v72h-72V504.075z"/>
<path fill="none" stroke="#000000" stroke-width="0.15" d="M144.075,432.075h72v72h-72V432.075z"/>
<path fill="none" stroke="#000000" stroke-width="0.15" d="M216.075,576.075h72v72h-72L216.075,576.075z"/>
<path fill="none" stroke="#000000" stroke-width="0.15" d="M144.075,216.075h72v72h-72V216.075z"/>
<path fill="none" stroke="#000000" stroke-width="0.15" d="M144.075,360.075h72v72h-72V360.075z"/>
<path fill="none" stroke="#000000" stroke-width="0.15" d="M144.075,288.075h72v72h-72V288.075z"/>
<path fill="none" stroke="#000000" stroke-width="0.15" d="M360.075,576.075h72v72h-72V576.075z"/>
<path fill="none" stroke="#000000" stroke-width="0.15" d="M360.075,360.075h72v72h-72V360.075z"/>
<path fill="none" stroke="#000000" stroke-width="0.15" d="M360.075,432.075h72v72h-72V432.075z"/>
<path fill="none" stroke="#000000" stroke-width="0.15" d="M360.075,288.075h72v72h-72V288.075z"/>
<path fill="none" stroke="#000000" stroke-width="0.15" d="M144.075,144.075h72v72h-72V144.075z"/>
<path fill="none" stroke="#000000" stroke-width="0.15" d="M288.075,576.075h72v72h-72V576.075z"/>
<path fill="none" stroke="#000000" stroke-width="0.15" d="M360.075,504.075h72v72h-72V504.075z"/>
<path fill="none" stroke="#000000" stroke-width="0.15" d="M288.075,504.075h72v72h-72V504.075z"/>
<path fill="none" stroke="#000000" stroke-width="0.15" d="M216.075,504.075h72v72h-72L216.075,504.075z"/>
<path fill="none" stroke="#000000" stroke-width="0.15" d="M216.075,360.075h72v72h-72L216.075,360.075z"/>
<path fill="none" stroke="#000000" stroke-width="0.15" d="M216.075,432.075h72v72h-72L216.075,432.075z"/>
<path fill="none" stroke="#000000" stroke-width="0.15" d="M216.075,288.075h72v72h-72L216.075,288.075z"/>
<path fill="none" stroke="#000000" stroke-width="0.15" d="M216.075,216.075h72v72h-72L216.075,216.075z"/>
<path fill="none" stroke="#000000" stroke-width="0.15" d="M432.075,72.075h72v72h-72V72.075z"/>
<path fill="none" stroke="#000000" stroke-width="0.15" d="M360.075,216.075h72v72h-72V216.075z"/>
<path fill="none" stroke="#000000" stroke-width="0.15" d="M288.075,288.075h72v72h-72V288.075z"/>
<path fill="none" stroke="#000000" stroke-width="0.15" d="M288.075,216.075h72v72h-72V216.075z"/>
<path fill="none" stroke="#000000" stroke-width="0.15" d="M216.075,144.075h72v72h-72L216.075,144.075z"/>
<path fill="none" stroke="#000000" stroke-width="0.15" d="M288.075,144.075h72v72h-72V144.075z"/>
<path fill="none" stroke="#000000" stroke-width="0.15" d="M288.075,360.075h72v72h-72V360.075z"/>
<path fill="none" stroke="#000000" stroke-width="0.15" d="M288.075,432.075h72v72h-72V432.075z"/>
<path fill="none" stroke="#000000" stroke-width="0.15" d="M144.075,576.075h72v72h-72V576.075z"/>
<path fill="none" stroke="#000000" stroke-width="0.15" d="M144.075,648.075h72v72h-72V648.075z"/>
<path fill="none" stroke="#000000" stroke-width="0.15" d="M432.075,576.075h72v72h-72V576.075z"/>
<path fill="none" stroke="#000000" stroke-width="0.15" d="M360.075,648.075h72v72h-72V648.075z"/>
<path fill="none" stroke="#000000" stroke-width="0.15" d="M216.075,648.075h72v72h-72L216.075,648.075z"/>
<path fill="none" stroke="#000000" stroke-width="0.15" d="M288.075,648.075h72v72h-72V648.075z"/>
<path fill="none" stroke="#000000" stroke-width="0.15" d="M432.075,504.075h72v72h-72V504.075z"/>
<path fill="none" stroke="#000000" stroke-width="0.15" d="M432.075,648.075h72v72h-72V648.075z"/>
<path fill="none" stroke="#000000" stroke-width="0.15" d="M432.075,144.075h72v72h-72V144.075z"/>
<path fill="none" stroke="#000000" stroke-width="0.15" d="M432.075,216.075h72v72h-72V216.075z"/>
<path fill="none" stroke="#000000" stroke-width="0.15" d="M432.075,432.075h72v72h-72V432.075z"/>
<path fill="none" stroke="#000000" stroke-width="0.15" d="M432.075,288.075h72v72h-72V288.075z"/>
<path fill="none" stroke="#000000" stroke-width="0.15" d="M432.075,360.075h72v72h-72V360.075z"/>
<path fill="none" stroke="#000000" stroke-width="0.15" d="M504.075,72.075h72v72h-72V72.075z"/>
<path fill="none" stroke="#000000" stroke-width="0.15" d="M504.075,576.075h72v72h-72V576.075z"/>
<path fill="none" stroke="#000000" stroke-width="0.15" d="M504.075,504.075h72v72h-72V504.075z"/>
<path fill="none" stroke="#000000" stroke-width="0.15" d="M504.075,648.075h72v72h-72V648.075z"/>
<path fill="none" stroke="#000000" stroke-width="0.15" d="M504.075,144.075h72v72h-72V144.075z"/>
<path fill="none" stroke="#000000" stroke-width="0.15" d="M504.075,216.075h72v72h-72V216.075z"/>
<path fill="none" stroke="#000000" stroke-width="0.15" d="M504.075,432.075h72v72h-72V432.075z"/>
<path fill="none" stroke="#000000" stroke-width="0.15" d="M504.075,288.075h72v72h-72V288.075z"/>
<path fill="none" stroke="#000000" stroke-width="0.15" d="M504.075,360.075h72v72h-72V360.075z"/>
<path fill="none" stroke="#000000" stroke-width="0.15" d="M0.075,72.075h72v72h-72L0.075,72.075z"/>
<path fill="none" stroke="#000000" stroke-width="0.15" d="M0.075,576.075h72v72h-72L0.075,576.075z"/>
<path fill="none" stroke="#000000" stroke-width="0.15" d="M0.075,504.075h72v72h-72L0.075,504.075z"/>
<path fill="none" stroke="#000000" stroke-width="0.15" d="M0.075,648.075h72v72h-72L0.075,648.075z"/>
<path fill="none" stroke="#000000" stroke-width="0.15" d="M0.075,144.075h72v72h-72L0.075,144.075z"/>
<path fill="none" stroke="#000000" stroke-width="0.15" d="M0.075,216.075h72v72h-72L0.075,216.075z"/>
<path fill="none" stroke="#000000" stroke-width="0.15" d="M0.075,432.075h72v72h-72L0.075,432.075z"/>
<path fill="none" stroke="#000000" stroke-width="0.15" d="M0.075,288.075h72v72h-72L0.075,288.075z"/>
<path fill="none" stroke="#000000" stroke-width="0.15" d="M0.075,360.075h72v72h-72L0.075,360.075z"/>
<path fill="none" stroke="#000000" stroke-width="0.15" d="M216.075,72.075h72v72h-72L216.075,72.075z"/>
<path fill="none" stroke="#000000" stroke-width="0.15" d="M144.075,72.075h72v72h-72V72.075z"/>
<path fill="none" stroke="#000000" stroke-width="0.15" d="M360.075,144.075h72v72h-72V144.075z"/>
<path fill="none" stroke="#000000" stroke-width="0.15" d="M72.075,72.075h72v72h-72V72.075z"/>
<path fill="none" stroke="#000000" stroke-width="0.15" d="M288.075,72.075h72v72h-72V72.075z"/>
<path fill="none" stroke="#000000" stroke-width="0.15" d="M72.075,144.075h72v72h-72V144.075z"/>
<path fill="none" stroke="#000000" stroke-width="0.15" d="M360.075,72.075h72v72h-72V72.075z"/>
<path fill="none" stroke="#000000" stroke-width="0.15" d="M72.075,576.075h72v72h-72V576.075z"/>
<path fill="none" stroke="#000000" stroke-width="0.15" d="M72.075,504.075h72v72h-72V504.075z"/>
<path fill="none" stroke="#000000" stroke-width="0.15" d="M72.075,648.075h72v72h-72V648.075z"/>
<path fill="none" stroke="#000000" stroke-width="0.15" d="M144.075,720.075h72v72h-72V720.075z"/>
<path fill="none" stroke="#000000" stroke-width="0.15" d="M360.075,720.075h72v72h-72V720.075z"/>
<path fill="none" stroke="#000000" stroke-width="0.15" d="M216.075,720.075h72v72h-72L216.075,720.075z"/>
<path fill="none" stroke="#000000" stroke-width="0.15" d="M288.075,720.075h72v72h-72V720.075z"/>
<path fill="none" stroke="#000000" stroke-width="0.15" d="M432.075,720.075h72v72h-72V720.075z"/>
<path fill="none" stroke="#000000" stroke-width="0.15" d="M504.075,720.075h72v72h-72V720.075z"/>
<path fill="none" stroke="#000000" stroke-width="0.15" d="M0.075,720.075h72v72h-72L0.075,720.075z"/>
<path fill="none" stroke="#000000" stroke-width="0.15" d="M72.075,720.075h72v72h-72V720.075z"/>
<path fill="none" stroke="#000000" stroke-width="0.15" d="M144.075,0.075h72v72h-72V0.075z"/>
<path fill="none" stroke="#000000" stroke-width="0.15" d="M360.075,0.075h72v72h-72V0.075z"/>
<path fill="none" stroke="#000000" stroke-width="0.15" d="M216.075,0.075h72v72h-72L216.075,0.075z"/>
<path fill="none" stroke="#000000" stroke-width="0.15" d="M288.075,0.075h72v72h-72V0.075z"/>
<path fill="none" stroke="#000000" stroke-width="0.15" d="M432.075,0.075h72v72h-72V0.075z"/>
<path fill="none" stroke="#000000" stroke-width="0.15" d="M504.075,0.075h72v72h-72V0.075z"/>
<path fill="none" stroke="#000000" stroke-width="0.15" d="M0.075,0.075h72v72h-72L0.075,0.075z"/>
<path fill="none" stroke="#000000" stroke-width="0.15" d="M72.075,0.075h72v72h-72V0.075z"/>
<path fill="none" stroke="#000000" stroke-width="0.15" d="M72.075,432.075h72v72h-72V432.075z"/>
<path fill="none" stroke="#000000" stroke-width="0.15" d="M72.075,216.075h72v72h-72V216.075z"/>
<path fill="none" stroke="#000000" stroke-width="0.15" d="M72.075,360.075h72v72h-72V360.075z"/>
<path fill="none" stroke="#000000" stroke-width="0.15" d="M72.075,288.075h72v72h-72V288.075z"/>
<path fill="none" stroke="#000000" stroke-width="0.15" d="M142.941,497.272h70.866v70.866h-70.866V497.272z"/>
<path fill="none" stroke="#000000" stroke-width="0.15" d="M142.941,426.406h70.866v70.866h-70.866V426.406z"/>
<path fill="none" stroke="#000000" stroke-width="0.15" d="M142.941,568.139h70.866v70.866h-70.866V568.139z"/>
<path fill="none" stroke="#000000" stroke-width="0.15" d="M142.941,355.54h70.866v70.866h-70.866V355.54z"/>
<path fill="none" stroke="#000000" stroke-width="0.15" d="M142.941,284.674h70.866v70.866h-70.866V284.674z"/>
<path fill="none" stroke="#000000" stroke-width="0.15" d="M213.808,568.139h70.866v70.866h-70.866L213.808,568.139z"/>
<path fill="none" stroke="#000000" stroke-width="0.15" d="M142.941,213.808h70.866v70.866h-70.866V213.808z"/>
<path fill="none" stroke="#000000" stroke-width="0.15" d="M355.54,355.54h70.866v70.866H355.54V355.54z"/>
<path fill="none" stroke="#000000" stroke-width="0.15" d="M355.54,426.406h70.866v70.866H355.54V426.406z"/>
<path fill="none" stroke="#000000" stroke-width="0.15" d="M355.54,284.674h70.866v70.866H355.54V284.674z"/>
<path fill="none" stroke="#000000" stroke-width="0.15" d="M284.674,568.139h70.866v70.866h-70.866V568.139z"/>
<path fill="none" stroke="#000000" stroke-width="0.15" d="M355.54,497.272h70.866v70.866H355.54V497.272z"/>
<path fill="none" stroke="#000000" stroke-width="0.15" d="M355.54,568.139h70.866v70.866H355.54V568.139z"/>
<path fill="none" stroke="#000000" stroke-width="0.15" d="M284.674,355.54h70.866v70.866h-70.866V355.54z"/>
<path fill="none" stroke="#000000" stroke-width="0.15" d="M284.674,497.272h70.866v70.866h-70.866V497.272z"/>
<path fill="none" stroke="#000000" stroke-width="0.15" d="M213.808,426.406h70.866v70.866h-70.866L213.808,426.406z"/>
<path fill="none" stroke="#000000" stroke-width="0.15" d="M213.808,497.272h70.866v70.866h-70.866L213.808,497.272z"/>
<path fill="none" stroke="#000000" stroke-width="0.15" d="M213.808,355.54h70.866v70.866h-70.866L213.808,355.54z"/>
<path fill="none" stroke="#000000" stroke-width="0.15" d="M213.808,213.808h70.866v70.866h-70.866L213.808,213.808z"/>
<path fill="none" stroke="#000000" stroke-width="0.15" d="M213.808,284.674h70.866v70.866h-70.866L213.808,284.674z"/>
<path fill="none" stroke="#000000" stroke-width="0.15" d="M426.406,72.075h70.866v70.866h-70.866V72.075z"/>
<path fill="none" stroke="#000000" stroke-width="0.15" d="M284.674,213.808h70.866v70.866h-70.866V213.808z"/>
<path fill="none" stroke="#000000" stroke-width="0.15" d="M284.674,426.406h70.866v70.866h-70.866V426.406z"/>
<path fill="none" stroke="#000000" stroke-width="0.15" d="M213.808,142.941h70.866v70.866h-70.866L213.808,142.941z"/>
<path fill="none" stroke="#000000" stroke-width="0.15" d="M284.674,142.941h70.866v70.866h-70.866V142.941z"/>
<path fill="none" stroke="#000000" stroke-width="0.15" d="M284.674,284.674h70.866v70.866h-70.866V284.674z"/>
<path fill="none" stroke="#000000" stroke-width="0.15" d="M142.941,142.941h70.866v70.866h-70.866V142.941z"/>
<path fill="none" stroke="#000000" stroke-width="0.15" d="M355.54,213.808h70.866v70.866H355.54V213.808z"/>
<path fill="none" stroke="#000000" stroke-width="0.15" d="M426.406,639.005h70.866v70.866h-70.866V639.005z"/>
<path fill="none" stroke="#000000" stroke-width="0.15" d="M426.406,568.139h70.866v70.866h-70.866V568.139z"/>
<path fill="none" stroke="#000000" stroke-width="0.15" d="M426.406,497.272h70.866v70.866h-70.866V497.272z"/>
<path fill="none" stroke="#000000" stroke-width="0.15" d="M355.54,639.005h70.866v70.866H355.54V639.005z"/>
<path fill="none" stroke="#000000" stroke-width="0.15" d="M213.808,639.005h70.866v70.866h-70.866L213.808,639.005z"/>
<path fill="none" stroke="#000000" stroke-width="0.15" d="M142.941,639.005h70.866v70.866h-70.866V639.005z"/>
<path fill="none" stroke="#000000" stroke-width="0.15" d="M284.674,639.005h70.866v70.866h-70.866V639.005z"/>
<path fill="none" stroke="#000000" stroke-width="0.15" d="M426.406,142.941h70.866v70.866h-70.866V142.941z"/>
<path fill="none" stroke="#000000" stroke-width="0.15" d="M426.406,426.406h70.866v70.866h-70.866V426.406z"/>
<path fill="none" stroke="#000000" stroke-width="0.15" d="M426.406,213.808h70.866v70.866h-70.866V213.808z"/>
<path fill="none" stroke="#000000" stroke-width="0.15" d="M426.406,355.54h70.866v70.866h-70.866V355.54z"/>
<path fill="none" stroke="#000000" stroke-width="0.15" d="M426.406,284.674h70.866v70.866h-70.866V284.674z"/>
<path fill="none" stroke="#000000" stroke-width="0.15" d="M497.272,72.075h70.866v70.866h-70.866V72.075z"/>
<path fill="none" stroke="#000000" stroke-width="0.15" d="M497.272,639.005h70.866v70.866h-70.866V639.005z"/>
<path fill="none" stroke="#000000" stroke-width="0.15" d="M497.272,568.139h70.866v70.866h-70.866V568.139z"/>
<path fill="none" stroke="#000000" stroke-width="0.15" d="M497.272,497.272h70.866v70.866h-70.866V497.272z"/>
<path fill="none" stroke="#000000" stroke-width="0.15" d="M497.272,142.941h70.866v70.866h-70.866V142.941z"/>
<path fill="none" stroke="#000000" stroke-width="0.15" d="M497.272,426.406h70.866v70.866h-70.866V426.406z"/>
<path fill="none" stroke="#000000" stroke-width="0.15" d="M497.272,213.808h70.866v70.866h-70.866V213.808z"/>
<path fill="none" stroke="#000000" stroke-width="0.15" d="M497.272,355.54h70.866v70.866h-70.866V355.54z"/>
<path fill="none" stroke="#000000" stroke-width="0.15" d="M497.272,284.674h70.866v70.866h-70.866V284.674z"/>
<path fill="none" stroke="#000000" stroke-width="0.15" d="M72.075,639.005h70.866v70.866H72.075V639.005z"/>
<path fill="none" stroke="#000000" stroke-width="0.15" d="M426.406,709.871h70.866v70.866h-70.866V709.871z"/>
<path fill="none" stroke="#000000" stroke-width="0.15" d="M355.54,709.871h70.866v70.866H355.54V709.871z"/>
<path fill="none" stroke="#000000" stroke-width="0.15" d="M213.808,709.871h70.866v70.866h-70.866L213.808,709.871z"/>
<path fill="none" stroke="#000000" stroke-width="0.15" d="M142.941,709.871h70.866v70.866h-70.866V709.871z"/>
<path fill="none" stroke="#000000" stroke-width="0.15" d="M284.674,709.871h70.866v70.866h-70.866V709.871z"/>
<path fill="none" stroke="#000000" stroke-width="0.15" d="M497.272,709.871h70.866v70.866h-70.866V709.871z"/>
<path fill="none" stroke="#000000" stroke-width="0.15" d="M72.075,709.871h70.866v70.866H72.075V709.871z"/>
<path fill="none" stroke="#000000" stroke-width="0.15" d="M142.941,72.075h70.866v70.866h-70.866V72.075z"/>
<path fill="none" stroke="#000000" stroke-width="0.15" d="M72.075,72.075h70.866v70.866H72.075V72.075z"/>
<path fill="none" stroke="#000000" stroke-width="0.15" d="M213.808,72.075h70.866v70.866h-70.866L213.808,72.075z"/>
<path fill="none" stroke="#000000" stroke-width="0.15" d="M284.674,72.075h70.866v70.866h-70.866V72.075z"/>
<path fill="none" stroke="#000000" stroke-width="0.15" d="M72.075,142.941h70.866v70.866H72.075V142.941z"/>
<path fill="none" stroke="#000000" stroke-width="0.15" d="M355.54,72.075h70.866v70.866H355.54V72.075z"/>
<path fill="none" stroke="#000000" stroke-width="0.15" d="M72.075,426.406h70.866v70.866H72.075V426.406z"/>
<path fill="none" stroke="#000000" stroke-width="0.15" d="M72.075,213.808h70.866v70.866H72.075V213.808z"/>
<path fill="none" stroke="#000000" stroke-width="0.15" d="M72.075,497.272h70.866v70.866H72.075V497.272z"/>
<path fill="none" stroke="#000000" stroke-width="0.15" d="M72.075,568.139h70.866v70.866H72.075V568.139z"/>
<path fill="none" stroke="#000000" stroke-width="0.15" d="M355.54,142.941h70.866v70.866H355.54V142.941z"/>
<path fill="none" stroke="#000000" stroke-width="0.15" d="M72.075,355.54h70.866v70.866H72.075V355.54z"/>
<path fill="none" stroke="#000000" stroke-width="0.15" d="M72.075,284.674h70.866v70.866H72.075V284.674z"/>
<path fill="none" stroke="#000000" stroke-width="0.15" d="M1.209,639.005h70.866v70.866H1.209V639.005z"/>
<path fill="none" stroke="#000000" stroke-width="0.15" d="M1.209,709.871h70.866v70.866H1.209V709.871z"/>
<path fill="none" stroke="#000000" stroke-width="0.15" d="M1.209,72.075h70.866v70.866H1.209V72.075z"/>
<path fill="none" stroke="#000000" stroke-width="0.15" d="M426.406,1.209h70.866v70.866h-70.866V1.209z"/>
<path fill="none" stroke="#000000" stroke-width="0.15" d="M497.272,1.209h70.866v70.866h-70.866V1.209z"/>
<path fill="none" stroke="#000000" stroke-width="0.15" d="M142.941,1.209h70.866v70.866h-70.866V1.209z"/>
<path fill="none" stroke="#000000" stroke-width="0.15" d="M72.075,1.209h70.866v70.866H72.075V1.209z"/>
<path fill="none" stroke="#000000" stroke-width="0.15" d="M213.808,1.209h70.866v70.866h-70.866L213.808,1.209z"/>
<path fill="none" stroke="#000000" stroke-width="0.15" d="M284.674,1.209h70.866v70.866h-70.866V1.209z"/>
<path fill="none" stroke="#000000" stroke-width="0.15" d="M355.54,1.209h70.866v70.866H355.54V1.209z"/>
<path fill="none" stroke="#000000" stroke-width="0.15" d="M1.209,1.209h70.866v70.866H1.209V1.209z"/>
<path fill="none" stroke="#000000" stroke-width="0.15" d="M1.209,142.941h70.866v70.866H1.209V142.941z"/>
<path fill="none" stroke="#000000" stroke-width="0.15" d="M1.209,426.406h70.866v70.866H1.209V426.406z"/>
<path fill="none" stroke="#000000" stroke-width="0.15" d="M1.209,213.808h70.866v70.866H1.209V213.808z"/>
<path fill="none" stroke="#000000" stroke-width="0.15" d="M1.209,497.272h70.866v70.866H1.209V497.272z"/>
<path fill="none" stroke="#000000" stroke-width="0.15" d="M1.209,568.139h70.866v70.866H1.209V568.139z"/>
<path fill="none" stroke="#000000" stroke-width="0.15" d="M1.209,355.54h70.866v70.866H1.209V355.54z"/>
<path fill="none" stroke="#000000" stroke-width="0.15" d="M1.209,284.674h70.866v70.866H1.209V284.674z"/>
</svg>
