<?xml version="1.0" encoding="utf-8"?>
<!-- Generator: Adobe Illustrator 21.0.2, SVG Export Plug-In . SVG Version: 6.00 Build 0)  -->
<svg version="1.1" baseProfile="tiny" id="Ebene_1" xmlns="http://www.w3.org/2000/svg" xmlns:xlink="http://www.w3.org/1999/xlink"
	 x="0px" y="0px" viewBox="0 0 538.737 708.817" xml:space="preserve">
<path fill="none" stroke="#000000" stroke-width="0.15" d="M368.582,340.235h28.347v28.347h-28.347L368.582,340.235z"/>
<path fill="none" stroke="#000000" stroke-width="0.15" d="M368.582,368.582h28.347v28.347h-28.347L368.582,368.582z"/>
<path fill="none" stroke="#000000" stroke-width="0.15" d="M113.462,113.462h28.347v28.347h-28.347L113.462,113.462z"/>
<path fill="none" stroke="#000000" stroke-width="0.15" d="M368.582,283.542h28.347v28.347h-28.347L368.582,283.542z"/>
<path fill="none" stroke="#000000" stroke-width="0.15" d="M368.582,255.195h28.347v28.347h-28.347L368.582,255.195z"/>
<path fill="none" stroke="#000000" stroke-width="0.15" d="M368.582,481.969h28.347v28.347h-28.347L368.582,481.969z"/>
<path fill="none" stroke="#000000" stroke-width="0.15" d="M368.582,396.929h28.347v28.347h-28.347L368.582,396.929z"/>
<path fill="none" stroke="#000000" stroke-width="0.15" d="M368.582,226.849h28.347v28.347h-28.347L368.582,226.849z"/>
<path fill="none" stroke="#000000" stroke-width="0.15" d="M368.582,510.315h28.347v28.347h-28.347L368.582,510.315z"/>
<path fill="none" stroke="#000000" stroke-width="0.15" d="M368.582,453.622h28.347v28.347h-28.347L368.582,453.622z"/>
<path fill="none" stroke="#000000" stroke-width="0.15" d="M368.582,425.275h28.347v28.347h-28.347L368.582,425.275z"/>
<path fill="none" stroke="#000000" stroke-width="0.15" d="M170.155,113.462h28.347v28.347h-28.347V113.462z"/>
<path fill="none" stroke="#000000" stroke-width="0.15" d="M226.849,113.462h28.347v28.347h-28.347V113.462z"/>
<path fill="none" stroke="#000000" stroke-width="0.15" d="M255.195,113.462h28.347v28.347h-28.347L255.195,113.462z"/>
<path fill="none" stroke="#000000" stroke-width="0.15" d="M368.582,198.502h28.347v28.347h-28.347L368.582,198.502z"/>
<path fill="none" stroke="#000000" stroke-width="0.15" d="M198.502,113.462h28.347v28.347h-28.347V113.462z"/>
<path fill="none" stroke="#000000" stroke-width="0.15" d="M141.809,113.462h28.347v28.347h-28.347V113.462z"/>
<path fill="none" stroke="#000000" stroke-width="0.15" d="M283.542,113.462h28.347v28.347h-28.347V113.462z"/>
<path fill="none" stroke="#000000" stroke-width="0.15" d="M311.889,113.462h28.347v28.347h-28.347L311.889,113.462z"/>
<path fill="none" stroke="#000000" stroke-width="0.15" d="M368.582,141.809h28.347v28.347h-28.347L368.582,141.809z"/>
<path fill="none" stroke="#000000" stroke-width="0.15" d="M368.582,170.155h28.347v28.347h-28.347L368.582,170.155z"/>
<path fill="none" stroke="#000000" stroke-width="0.15" d="M368.582,113.462h28.347v28.347h-28.347L368.582,113.462z"/>
<path fill="none" stroke="#000000" stroke-width="0.15" d="M340.235,113.462h28.347v28.347h-28.347V113.462z"/>
<path fill="none" stroke="#000000" stroke-width="0.15" d="M368.582,311.889h28.347v28.347h-28.347L368.582,311.889z"/>
<path fill="none" stroke="#000000" stroke-width="0.15" d="M141.809,311.889h28.347v28.347h-28.347V311.889z"/>
<path fill="none" stroke="#000000" stroke-width="0.15" d="M141.809,283.542h28.347v28.347h-28.347V283.542z"/>
<path fill="none" stroke="#000000" stroke-width="0.15" d="M141.809,340.235h28.347v28.347h-28.347V340.235z"/>
<path fill="none" stroke="#000000" stroke-width="0.15" d="M141.809,396.929h28.347v28.347h-28.347V396.929z"/>
<path fill="none" stroke="#000000" stroke-width="0.15" d="M141.809,255.195h28.347v28.347h-28.347V255.195z"/>
<path fill="none" stroke="#000000" stroke-width="0.15" d="M141.809,368.582h28.347v28.347h-28.347V368.582z"/>
<path fill="none" stroke="#000000" stroke-width="0.15" d="M141.809,226.849h28.347v28.347h-28.347V226.849z"/>
<path fill="none" stroke="#000000" stroke-width="0.15" d="M141.809,141.809h28.347v28.347h-28.347V141.809z"/>
<path fill="none" stroke="#000000" stroke-width="0.15" d="M170.155,141.809h28.347v28.347h-28.347V141.809z"/>
<path fill="none" stroke="#000000" stroke-width="0.15" d="M141.809,198.502h28.347v28.347h-28.347V198.502z"/>
<path fill="none" stroke="#000000" stroke-width="0.15" d="M141.809,425.275h28.347v28.347h-28.347V425.275z"/>
<path fill="none" stroke="#000000" stroke-width="0.15" d="M141.809,170.155h28.347v28.347h-28.347V170.155z"/>
<path fill="none" stroke="#000000" stroke-width="0.15" d="M141.809,453.622h28.347v28.347h-28.347V453.622z"/>
<path fill="none" stroke="#000000" stroke-width="0.15" d="M226.849,538.662h28.347v28.347h-28.347V538.662z"/>
<path fill="none" stroke="#000000" stroke-width="0.15" d="M255.195,538.662h28.347v28.347h-28.347L255.195,538.662z"/>
<path fill="none" stroke="#000000" stroke-width="0.15" d="M283.542,538.662h28.347v28.347h-28.347V538.662z"/>
<path fill="none" stroke="#000000" stroke-width="0.15" d="M340.235,538.662h28.347v28.347h-28.347V538.662z"/>
<path fill="none" stroke="#000000" stroke-width="0.15" d="M311.889,538.662h28.347v28.347h-28.347L311.889,538.662z"/>
<path fill="none" stroke="#000000" stroke-width="0.15" d="M141.809,510.315h28.347v28.347h-28.347V510.315z"/>
<path fill="none" stroke="#000000" stroke-width="0.15" d="M368.582,538.662h28.347v28.347h-28.347L368.582,538.662z"/>
<path fill="none" stroke="#000000" stroke-width="0.15" d="M198.502,538.662h28.347v28.347h-28.347V538.662z"/>
<path fill="none" stroke="#000000" stroke-width="0.15" d="M141.809,481.969h28.347v28.347h-28.347V481.969z"/>
<path fill="none" stroke="#000000" stroke-width="0.15" d="M141.809,538.662h28.347v28.347h-28.347V538.662z"/>
<path fill="none" stroke="#000000" stroke-width="0.15" d="M198.502,85.115h28.347v28.347h-28.347V85.115z"/>
<path fill="none" stroke="#000000" stroke-width="0.15" d="M396.929,198.502h28.347v28.347h-28.347L396.929,198.502z"/>
<path fill="none" stroke="#000000" stroke-width="0.15" d="M396.929,567.009h28.347v28.347h-28.347L396.929,567.009z"/>
<path fill="none" stroke="#000000" stroke-width="0.15" d="M396.929,311.889h28.347v28.347h-28.347L396.929,311.889z"/>
<path fill="none" stroke="#000000" stroke-width="0.15" d="M396.929,368.582h28.347v28.347h-28.347L396.929,368.582z"/>
<path fill="none" stroke="#000000" stroke-width="0.15" d="M396.929,255.195h28.347v28.347h-28.347L396.929,255.195z"/>
<path fill="none" stroke="#000000" stroke-width="0.15" d="M396.929,396.929h28.347v28.347h-28.347L396.929,396.929z"/>
<path fill="none" stroke="#000000" stroke-width="0.15" d="M396.929,283.542h28.347v28.347h-28.347L396.929,283.542z"/>
<path fill="none" stroke="#000000" stroke-width="0.15" d="M396.929,425.275h28.347v28.347h-28.347L396.929,425.275z"/>
<path fill="none" stroke="#000000" stroke-width="0.15" d="M396.929,510.315h28.347v28.347h-28.347L396.929,510.315z"/>
<path fill="none" stroke="#000000" stroke-width="0.15" d="M396.929,538.662h28.347v28.347h-28.347L396.929,538.662z"/>
<path fill="none" stroke="#000000" stroke-width="0.15" d="M396.929,453.622h28.347v28.347h-28.347L396.929,453.622z"/>
<path fill="none" stroke="#000000" stroke-width="0.15" d="M396.929,226.849h28.347v28.347h-28.347L396.929,226.849z"/>
<path fill="none" stroke="#000000" stroke-width="0.15" d="M113.462,141.809h28.347v28.347h-28.347L113.462,141.809z"/>
<path fill="none" stroke="#000000" stroke-width="0.15" d="M396.929,340.235h28.347v28.347h-28.347L396.929,340.235z"/>
<path fill="none" stroke="#000000" stroke-width="0.15" d="M283.542,85.115h28.347v28.347h-28.347V85.115z"/>
<path fill="none" stroke="#000000" stroke-width="0.15" d="M311.889,85.115h28.347v28.347h-28.347L311.889,85.115z"/>
<path fill="none" stroke="#000000" stroke-width="0.15" d="M226.849,85.115h28.347v28.347h-28.347V85.115z"/>
<path fill="none" stroke="#000000" stroke-width="0.15" d="M198.502,141.809h28.347v28.347h-28.347V141.809z"/>
<path fill="none" stroke="#000000" stroke-width="0.15" d="M340.235,85.115h28.347v28.347h-28.347V85.115z"/>
<path fill="none" stroke="#000000" stroke-width="0.15" d="M255.195,85.115h28.347v28.347h-28.347L255.195,85.115z"/>
<path fill="none" stroke="#000000" stroke-width="0.15" d="M368.582,85.115h28.347v28.347h-28.347L368.582,85.115z"/>
<path fill="none" stroke="#000000" stroke-width="0.15" d="M396.929,141.809h28.347v28.347h-28.347L396.929,141.809z"/>
<path fill="none" stroke="#000000" stroke-width="0.15" d="M396.929,170.155h28.347v28.347h-28.347L396.929,170.155z"/>
<path fill="none" stroke="#000000" stroke-width="0.15" d="M396.929,85.115h28.347v28.347h-28.347L396.929,85.115z"/>
<path fill="none" stroke="#000000" stroke-width="0.15" d="M396.929,113.462h28.347v28.347h-28.347L396.929,113.462z"/>
<path fill="none" stroke="#000000" stroke-width="0.15" d="M396.929,481.969h28.347v28.347h-28.347L396.929,481.969z"/>
<path fill="none" stroke="#000000" stroke-width="0.15" d="M113.462,311.889h28.347v28.347h-28.347L113.462,311.889z"/>
<path fill="none" stroke="#000000" stroke-width="0.15" d="M113.462,340.235h28.347v28.347h-28.347L113.462,340.235z"/>
<path fill="none" stroke="#000000" stroke-width="0.15" d="M113.462,368.582h28.347v28.347h-28.347L113.462,368.582z"/>
<path fill="none" stroke="#000000" stroke-width="0.15" d="M113.462,425.275h28.347v28.347h-28.347L113.462,425.275z"/>
<path fill="none" stroke="#000000" stroke-width="0.15" d="M113.462,396.929h28.347v28.347h-28.347L113.462,396.929z"/>
<path fill="none" stroke="#000000" stroke-width="0.15" d="M113.462,453.622h28.347v28.347h-28.347L113.462,453.622z"/>
<path fill="none" stroke="#000000" stroke-width="0.15" d="M113.462,198.502h28.347v28.347h-28.347L113.462,198.502z"/>
<path fill="none" stroke="#000000" stroke-width="0.15" d="M113.462,170.155h28.347v28.347h-28.347L113.462,170.155z"/>
<path fill="none" stroke="#000000" stroke-width="0.15" d="M113.462,226.849h28.347v28.347h-28.347L113.462,226.849z"/>
<path fill="none" stroke="#000000" stroke-width="0.15" d="M113.462,283.542h28.347v28.347h-28.347L113.462,283.542z"/>
<path fill="none" stroke="#000000" stroke-width="0.15" d="M113.462,255.195h28.347v28.347h-28.347L113.462,255.195z"/>
<path fill="none" stroke="#000000" stroke-width="0.15" d="M340.235,567.009h28.347v28.347h-28.347V567.009z"/>
<path fill="none" stroke="#000000" stroke-width="0.15" d="M226.849,567.009h28.347v28.347h-28.347V567.009z"/>
<path fill="none" stroke="#000000" stroke-width="0.15" d="M255.195,567.009h28.347v28.347h-28.347L255.195,567.009z"/>
<path fill="none" stroke="#000000" stroke-width="0.15" d="M283.542,567.009h28.347v28.347h-28.347V567.009z"/>
<path fill="none" stroke="#000000" stroke-width="0.15" d="M198.502,567.009h28.347v28.347h-28.347V567.009z"/>
<path fill="none" stroke="#000000" stroke-width="0.15" d="M311.889,567.009h28.347v28.347h-28.347L311.889,567.009z"/>
<path fill="none" stroke="#000000" stroke-width="0.15" d="M113.462,481.969h28.347v28.347h-28.347L113.462,481.969z"/>
<path fill="none" stroke="#000000" stroke-width="0.15" d="M170.155,567.009h28.347v28.347h-28.347V567.009z"/>
<path fill="none" stroke="#000000" stroke-width="0.15" d="M113.462,510.315h28.347v28.347h-28.347L113.462,510.315z"/>
<path fill="none" stroke="#000000" stroke-width="0.15" d="M113.462,538.662h28.347v28.347h-28.347L113.462,538.662z"/>
<path fill="none" stroke="#000000" stroke-width="0.15" d="M113.462,567.009h28.347v28.347h-28.347L113.462,567.009z"/>
<path fill="none" stroke="#000000" stroke-width="0.15" d="M141.809,567.009h28.347v28.347h-28.347V567.009z"/>
<path fill="none" stroke="#000000" stroke-width="0.15" d="M170.155,538.662h28.347v28.347h-28.347V538.662z"/>
<path fill="none" stroke="#000000" stroke-width="0.15" d="M198.502,198.502h28.347v28.347h-28.347V198.502z"/>
<path fill="none" stroke="#000000" stroke-width="0.15" d="M198.502,226.849h28.347v28.347h-28.347V226.849z"/>
<path fill="none" stroke="#000000" stroke-width="0.15" d="M226.849,198.502h28.347v28.347h-28.347V198.502z"/>
<path fill="none" stroke="#000000" stroke-width="0.15" d="M198.502,255.195h28.347v28.347h-28.347V255.195z"/>
<path fill="none" stroke="#000000" stroke-width="0.15" d="M198.502,283.542h28.347v28.347h-28.347V283.542z"/>
<path fill="none" stroke="#000000" stroke-width="0.15" d="M255.195,198.502h28.347v28.347h-28.347L255.195,198.502z"/>
<path fill="none" stroke="#000000" stroke-width="0.15" d="M283.542,283.542h28.347v28.347h-28.347V283.542z"/>
<path fill="none" stroke="#000000" stroke-width="0.15" d="M283.542,198.502h28.347v28.347h-28.347V198.502z"/>
<path fill="none" stroke="#000000" stroke-width="0.15" d="M283.542,311.889h28.347v28.347h-28.347V311.889z"/>
<path fill="none" stroke="#000000" stroke-width="0.15" d="M198.502,311.889h28.347v28.347h-28.347V311.889z"/>
<path fill="none" stroke="#000000" stroke-width="0.15" d="M283.542,226.849h28.347v28.347h-28.347V226.849z"/>
<path fill="none" stroke="#000000" stroke-width="0.15" d="M283.542,255.195h28.347v28.347h-28.347V255.195z"/>
<path fill="none" stroke="#000000" stroke-width="0.15" d="M311.889,481.969h28.347v28.347h-28.347L311.889,481.969z"/>
<path fill="none" stroke="#000000" stroke-width="0.15" d="M255.195,481.969h28.347v28.347h-28.347L255.195,481.969z"/>
<path fill="none" stroke="#000000" stroke-width="0.15" d="M283.542,481.969h28.347v28.347h-28.347V481.969z"/>
<path fill="none" stroke="#000000" stroke-width="0.15" d="M198.502,340.235h28.347v28.347h-28.347V340.235z"/>
<path fill="none" stroke="#000000" stroke-width="0.15" d="M226.849,481.969h28.347v28.347h-28.347V481.969z"/>
<path fill="none" stroke="#000000" stroke-width="0.15" d="M283.542,340.235h28.347v28.347h-28.347V340.235z"/>
<path fill="none" stroke="#000000" stroke-width="0.15" d="M311.889,453.622h28.347v28.347h-28.347L311.889,453.622z"/>
<path fill="none" stroke="#000000" stroke-width="0.15" d="M311.889,425.275h28.347v28.347h-28.347L311.889,425.275z"/>
<path fill="none" stroke="#000000" stroke-width="0.15" d="M198.502,396.929h28.347v28.347h-28.347V396.929z"/>
<path fill="none" stroke="#000000" stroke-width="0.15" d="M198.502,481.969h28.347v28.347h-28.347V481.969z"/>
<path fill="none" stroke="#000000" stroke-width="0.15" d="M198.502,453.622h28.347v28.347h-28.347V453.622z"/>
<path fill="none" stroke="#000000" stroke-width="0.15" d="M198.502,425.275h28.347v28.347h-28.347V425.275z"/>
<path fill="none" stroke="#000000" stroke-width="0.15" d="M198.502,368.582h28.347v28.347h-28.347V368.582z"/>
<path fill="none" stroke="#000000" stroke-width="0.15" d="M255.195,311.889h28.347v28.347h-28.347L255.195,311.889z"/>
<path fill="none" stroke="#000000" stroke-width="0.15" d="M226.849,255.195h28.347v28.347h-28.347V255.195z"/>
<path fill="none" stroke="#000000" stroke-width="0.15" d="M255.195,283.542h28.347v28.347h-28.347L255.195,283.542z"/>
<path fill="none" stroke="#000000" stroke-width="0.15" d="M226.849,226.849h28.347v28.347h-28.347V226.849z"/>
<path fill="none" stroke="#000000" stroke-width="0.15" d="M255.195,226.849h28.347v28.347h-28.347L255.195,226.849z"/>
<path fill="none" stroke="#000000" stroke-width="0.15" d="M255.195,255.195h28.347v28.347h-28.347L255.195,255.195z"/>
<path fill="none" stroke="#000000" stroke-width="0.15" d="M255.195,425.275h28.347v28.347h-28.347L255.195,425.275z"/>
<path fill="none" stroke="#000000" stroke-width="0.15" d="M481.969,28.422h28.347v28.347h-28.347V28.422z"/>
<path fill="none" stroke="#000000" stroke-width="0.15" d="M255.195,396.929h28.347v28.347h-28.347L255.195,396.929z"/>
<path fill="none" stroke="#000000" stroke-width="0.15" d="M255.195,368.582h28.347v28.347h-28.347L255.195,368.582z"/>
<path fill="none" stroke="#000000" stroke-width="0.15" d="M255.195,340.235h28.347v28.347h-28.347L255.195,340.235z"/>
<path fill="none" stroke="#000000" stroke-width="0.15" d="M283.542,368.582h28.347v28.347h-28.347V368.582z"/>
<path fill="none" stroke="#000000" stroke-width="0.15" d="M283.542,453.622h28.347v28.347h-28.347V453.622z"/>
<path fill="none" stroke="#000000" stroke-width="0.15" d="M255.195,453.622h28.347v28.347h-28.347L255.195,453.622z"/>
<path fill="none" stroke="#000000" stroke-width="0.15" d="M283.542,425.275h28.347v28.347h-28.347V425.275z"/>
<path fill="none" stroke="#000000" stroke-width="0.15" d="M226.849,283.542h28.347v28.347h-28.347V283.542z"/>
<path fill="none" stroke="#000000" stroke-width="0.15" d="M226.849,453.622h28.347v28.347h-28.347V453.622z"/>
<path fill="none" stroke="#000000" stroke-width="0.15" d="M283.542,396.929h28.347v28.347h-28.347V396.929z"/>
<path fill="none" stroke="#000000" stroke-width="0.15" d="M226.849,141.809h28.347v28.347h-28.347V141.809z"/>
<path fill="none" stroke="#000000" stroke-width="0.15" d="M226.849,340.235h28.347v28.347h-28.347V340.235z"/>
<path fill="none" stroke="#000000" stroke-width="0.15" d="M226.849,368.582h28.347v28.347h-28.347V368.582z"/>
<path fill="none" stroke="#000000" stroke-width="0.15" d="M226.849,396.929h28.347v28.347h-28.347V396.929z"/>
<path fill="none" stroke="#000000" stroke-width="0.15" d="M226.849,425.275h28.347v28.347h-28.347V425.275z"/>
<path fill="none" stroke="#000000" stroke-width="0.15" d="M226.849,311.889h28.347v28.347h-28.347V311.889z"/>
<path fill="none" stroke="#000000" stroke-width="0.15" d="M340.235,481.969h28.347v28.347h-28.347V481.969z"/>
<path fill="none" stroke="#000000" stroke-width="0.15" d="M340.235,368.582h28.347v28.347h-28.347V368.582z"/>
<path fill="none" stroke="#000000" stroke-width="0.15" d="M340.235,453.622h28.347v28.347h-28.347V453.622z"/>
<path fill="none" stroke="#000000" stroke-width="0.15" d="M340.235,425.275h28.347v28.347h-28.347V425.275z"/>
<path fill="none" stroke="#000000" stroke-width="0.15" d="M340.235,396.929h28.347v28.347h-28.347V396.929z"/>
<path fill="none" stroke="#000000" stroke-width="0.15" d="M311.889,510.315h28.347v28.347h-28.347L311.889,510.315z"/>
<path fill="none" stroke="#000000" stroke-width="0.15" d="M340.235,510.315h28.347v28.347h-28.347V510.315z"/>
<path fill="none" stroke="#000000" stroke-width="0.15" d="M170.155,510.315h28.347v28.347h-28.347V510.315z"/>
<path fill="none" stroke="#000000" stroke-width="0.15" d="M198.502,510.315h28.347v28.347h-28.347V510.315z"/>
<path fill="none" stroke="#000000" stroke-width="0.15" d="M283.542,510.315h28.347v28.347h-28.347V510.315z"/>
<path fill="none" stroke="#000000" stroke-width="0.15" d="M226.849,510.315h28.347v28.347h-28.347V510.315z"/>
<path fill="none" stroke="#000000" stroke-width="0.15" d="M255.195,510.315h28.347v28.347h-28.347L255.195,510.315z"/>
<path fill="none" stroke="#000000" stroke-width="0.15" d="M255.195,141.809h28.347v28.347h-28.347L255.195,141.809z"/>
<path fill="none" stroke="#000000" stroke-width="0.15" d="M311.889,396.929h28.347v28.347h-28.347L311.889,396.929z"/>
<path fill="none" stroke="#000000" stroke-width="0.15" d="M340.235,170.155h28.347v28.347h-28.347V170.155z"/>
<path fill="none" stroke="#000000" stroke-width="0.15" d="M311.889,141.809h28.347v28.347h-28.347L311.889,141.809z"/>
<path fill="none" stroke="#000000" stroke-width="0.15" d="M170.155,481.969h28.347v28.347h-28.347V481.969z"/>
<path fill="none" stroke="#000000" stroke-width="0.15" d="M283.542,141.809h28.347v28.347h-28.347V141.809z"/>
<path fill="none" stroke="#000000" stroke-width="0.15" d="M340.235,226.849h28.347v28.347h-28.347V226.849z"/>
<path fill="none" stroke="#000000" stroke-width="0.15" d="M340.235,311.889h28.347v28.347h-28.347V311.889z"/>
<path fill="none" stroke="#000000" stroke-width="0.15" d="M340.235,283.542h28.347v28.347h-28.347V283.542z"/>
<path fill="none" stroke="#000000" stroke-width="0.15" d="M340.235,198.502h28.347v28.347h-28.347V198.502z"/>
<path fill="none" stroke="#000000" stroke-width="0.15" d="M340.235,340.235h28.347v28.347h-28.347V340.235z"/>
<path fill="none" stroke="#000000" stroke-width="0.15" d="M340.235,255.195h28.347v28.347h-28.347V255.195z"/>
<path fill="none" stroke="#000000" stroke-width="0.15" d="M340.235,141.809h28.347v28.347h-28.347V141.809z"/>
<path fill="none" stroke="#000000" stroke-width="0.15" d="M311.889,198.502h28.347v28.347h-28.347L311.889,198.502z"/>
<path fill="none" stroke="#000000" stroke-width="0.15" d="M311.889,226.849h28.347v28.347h-28.347L311.889,226.849z"/>
<path fill="none" stroke="#000000" stroke-width="0.15" d="M311.889,170.155h28.347v28.347h-28.347L311.889,170.155z"/>
<path fill="none" stroke="#000000" stroke-width="0.15" d="M283.542,170.155h28.347v28.347h-28.347V170.155z"/>
<path fill="none" stroke="#000000" stroke-width="0.15" d="M255.195,170.155h28.347v28.347h-28.347L255.195,170.155z"/>
<path fill="none" stroke="#000000" stroke-width="0.15" d="M226.849,170.155h28.347v28.347h-28.347V170.155z"/>
<path fill="none" stroke="#000000" stroke-width="0.15" d="M311.889,368.582h28.347v28.347h-28.347L311.889,368.582z"/>
<path fill="none" stroke="#000000" stroke-width="0.15" d="M311.889,340.235h28.347v28.347h-28.347L311.889,340.235z"/>
<path fill="none" stroke="#000000" stroke-width="0.15" d="M311.889,255.195h28.347v28.347h-28.347L311.889,255.195z"/>
<path fill="none" stroke="#000000" stroke-width="0.15" d="M311.889,283.542h28.347v28.347h-28.347L311.889,283.542z"/>
<path fill="none" stroke="#000000" stroke-width="0.15" d="M311.889,311.889h28.347v28.347h-28.347L311.889,311.889z"/>
<path fill="none" stroke="#000000" stroke-width="0.15" d="M170.155,311.889h28.347v28.347h-28.347V311.889z"/>
<path fill="none" stroke="#000000" stroke-width="0.15" d="M170.155,340.235h28.347v28.347h-28.347V340.235z"/>
<path fill="none" stroke="#000000" stroke-width="0.15" d="M170.155,368.582h28.347v28.347h-28.347V368.582z"/>
<path fill="none" stroke="#000000" stroke-width="0.15" d="M170.155,396.929h28.347v28.347h-28.347V396.929z"/>
<path fill="none" stroke="#000000" stroke-width="0.15" d="M170.155,425.275h28.347v28.347h-28.347V425.275z"/>
<path fill="none" stroke="#000000" stroke-width="0.15" d="M170.155,453.622h28.347v28.347h-28.347V453.622z"/>
<path fill="none" stroke="#000000" stroke-width="0.15" d="M170.155,255.195h28.347v28.347h-28.347V255.195z"/>
<path fill="none" stroke="#000000" stroke-width="0.15" d="M170.155,170.155h28.347v28.347h-28.347V170.155z"/>
<path fill="none" stroke="#000000" stroke-width="0.15" d="M170.155,198.502h28.347v28.347h-28.347V198.502z"/>
<path fill="none" stroke="#000000" stroke-width="0.15" d="M170.155,283.542h28.347v28.347h-28.347V283.542z"/>
<path fill="none" stroke="#000000" stroke-width="0.15" d="M198.502,170.155h28.347v28.347h-28.347V170.155z"/>
<path fill="none" stroke="#000000" stroke-width="0.15" d="M170.155,226.849h28.347v28.347h-28.347V226.849z"/>
<path fill="none" stroke="#000000" stroke-width="0.15" d="M368.582,567.009h28.347v28.347h-28.347L368.582,567.009z"/>
<path fill="none" stroke="#000000" stroke-width="0.15" d="M198.502,28.422h28.347v28.347h-28.347V28.422z"/>
<path fill="none" stroke="#000000" stroke-width="0.15" d="M368.582,28.422h28.347v28.347h-28.347L368.582,28.422z"/>
<path fill="none" stroke="#000000" stroke-width="0.15" d="M170.155,28.422h28.347v28.347h-28.347V28.422z"/>
<path fill="none" stroke="#000000" stroke-width="0.15" d="M113.462,28.422h28.347v28.347h-28.347L113.462,28.422z"/>
<path fill="none" stroke="#000000" stroke-width="0.15" d="M85.115,28.422h28.347v28.347H85.115V28.422z"/>
<path fill="none" stroke="#000000" stroke-width="0.15" d="M56.769,28.422h28.347v28.347H56.769V28.422z"/>
<path fill="none" stroke="#000000" stroke-width="0.15" d="M255.195,28.422h28.347v28.347h-28.347L255.195,28.422z"/>
<path fill="none" stroke="#000000" stroke-width="0.15" d="M311.889,28.422h28.347v28.347h-28.347L311.889,28.422z"/>
<path fill="none" stroke="#000000" stroke-width="0.15" d="M28.422,368.582h28.347v28.347H28.422V368.582z"/>
<path fill="none" stroke="#000000" stroke-width="0.15" d="M283.542,28.422h28.347v28.347h-28.347V28.422z"/>
<path fill="none" stroke="#000000" stroke-width="0.15" d="M226.849,28.422h28.347v28.347h-28.347V28.422z"/>
<path fill="none" stroke="#000000" stroke-width="0.15" d="M28.422,28.422h28.347v28.347H28.422V28.422z"/>
<path fill="none" stroke="#000000" stroke-width="0.15" d="M141.809,28.422h28.347v28.347h-28.347V28.422z"/>
<path fill="none" stroke="#000000" stroke-width="0.15" d="M28.422,255.195h28.347v28.347H28.422V255.195z"/>
<path fill="none" stroke="#000000" stroke-width="0.15" d="M28.422,283.542h28.347v28.347H28.422V283.542z"/>
<path fill="none" stroke="#000000" stroke-width="0.15" d="M28.422,226.849h28.347v28.347H28.422V226.849z"/>
<path fill="none" stroke="#000000" stroke-width="0.15" d="M28.422,340.235h28.347v28.347H28.422V340.235z"/>
<path fill="none" stroke="#000000" stroke-width="0.15" d="M28.422,311.889h28.347v28.347H28.422V311.889z"/>
<path fill="none" stroke="#000000" stroke-width="0.15" d="M28.422,170.155h28.347v28.347H28.422V170.155z"/>
<path fill="none" stroke="#000000" stroke-width="0.15" d="M28.422,113.462h28.347v28.347H28.422V113.462z"/>
<path fill="none" stroke="#000000" stroke-width="0.15" d="M28.422,85.115h28.347v28.347H28.422V85.115z"/>
<path fill="none" stroke="#000000" stroke-width="0.15" d="M28.422,141.809h28.347v28.347H28.422V141.809z"/>
<path fill="none" stroke="#000000" stroke-width="0.15" d="M28.422,198.502h28.347v28.347H28.422V198.502z"/>
<path fill="none" stroke="#000000" stroke-width="0.15" d="M28.422,56.769h28.347v28.347H28.422V56.769z"/>
<path fill="none" stroke="#000000" stroke-width="0.15" d="M340.235,28.422h28.347v28.347h-28.347V28.422z"/>
<path fill="none" stroke="#000000" stroke-width="0.15" d="M453.622,425.275h28.347v28.347h-28.347V425.275z"/>
<path fill="none" stroke="#000000" stroke-width="0.15" d="M453.622,481.969h28.347v28.347h-28.347V481.969z"/>
<path fill="none" stroke="#000000" stroke-width="0.15" d="M453.622,453.622h28.347v28.347h-28.347V453.622z"/>
<path fill="none" stroke="#000000" stroke-width="0.15" d="M453.622,396.929h28.347v28.347h-28.347V396.929z"/>
<path fill="none" stroke="#000000" stroke-width="0.15" d="M453.622,368.582h28.347v28.347h-28.347V368.582z"/>
<path fill="none" stroke="#000000" stroke-width="0.15" d="M453.622,340.235h28.347v28.347h-28.347V340.235z"/>
<path fill="none" stroke="#000000" stroke-width="0.15" d="M453.622,510.315h28.347v28.347h-28.347V510.315z"/>
<path fill="none" stroke="#000000" stroke-width="0.15" d="M453.622,623.702h28.347v28.347h-28.347V623.702z"/>
<path fill="none" stroke="#000000" stroke-width="0.15" d="M453.622,595.355h28.347v28.347h-28.347V595.355z"/>
<path fill="none" stroke="#000000" stroke-width="0.15" d="M453.622,311.889h28.347v28.347h-28.347V311.889z"/>
<path fill="none" stroke="#000000" stroke-width="0.15" d="M453.622,567.009h28.347v28.347h-28.347V567.009z"/>
<path fill="none" stroke="#000000" stroke-width="0.15" d="M453.622,538.662h28.347v28.347h-28.347V538.662z"/>
<path fill="none" stroke="#000000" stroke-width="0.15" d="M453.622,170.155h28.347v28.347h-28.347V170.155z"/>
<path fill="none" stroke="#000000" stroke-width="0.15" d="M453.622,85.115h28.347v28.347h-28.347V85.115z"/>
<path fill="none" stroke="#000000" stroke-width="0.15" d="M453.622,113.462h28.347v28.347h-28.347V113.462z"/>
<path fill="none" stroke="#000000" stroke-width="0.15" d="M453.622,56.769h28.347v28.347h-28.347V56.769z"/>
<path fill="none" stroke="#000000" stroke-width="0.15" d="M425.275,28.422h28.347v28.347h-28.347L425.275,28.422z"/>
<path fill="none" stroke="#000000" stroke-width="0.15" d="M453.622,28.422h28.347v28.347h-28.347V28.422z"/>
<path fill="none" stroke="#000000" stroke-width="0.15" d="M396.929,28.422h28.347v28.347h-28.347L396.929,28.422z"/>
<path fill="none" stroke="#000000" stroke-width="0.15" d="M453.622,255.195h28.347v28.347h-28.347V255.195z"/>
<path fill="none" stroke="#000000" stroke-width="0.15" d="M453.622,226.849h28.347v28.347h-28.347V226.849z"/>
<path fill="none" stroke="#000000" stroke-width="0.15" d="M453.622,198.502h28.347v28.347h-28.347V198.502z"/>
<path fill="none" stroke="#000000" stroke-width="0.15" d="M453.622,141.809h28.347v28.347h-28.347V141.809z"/>
<path fill="none" stroke="#000000" stroke-width="0.15" d="M453.622,283.542h28.347v28.347h-28.347V283.542z"/>
<path fill="none" stroke="#000000" stroke-width="0.15" d="M481.969,481.969h28.347v28.347h-28.347V481.969z"/>
<path fill="none" stroke="#000000" stroke-width="0.15" d="M481.969,425.275h28.347v28.347h-28.347V425.275z"/>
<path fill="none" stroke="#000000" stroke-width="0.15" d="M481.969,453.622h28.347v28.347h-28.347V453.622z"/>
<path fill="none" stroke="#000000" stroke-width="0.15" d="M425.275,623.702h28.347v28.347h-28.347L425.275,623.702z"/>
<path fill="none" stroke="#000000" stroke-width="0.15" d="M481.969,368.582h28.347v28.347h-28.347V368.582z"/>
<path fill="none" stroke="#000000" stroke-width="0.15" d="M481.969,396.929h28.347v28.347h-28.347V396.929z"/>
<path fill="none" stroke="#000000" stroke-width="0.15" d="M481.969,510.315h28.347v28.347h-28.347V510.315z"/>
<path fill="none" stroke="#000000" stroke-width="0.15" d="M453.622,652.049h28.347v28.347h-28.347V652.049z"/>
<path fill="none" stroke="#000000" stroke-width="0.15" d="M481.969,652.049h28.347v28.347h-28.347V652.049z"/>
<path fill="none" stroke="#000000" stroke-width="0.15" d="M481.969,623.702h28.347v28.347h-28.347V623.702z"/>
<path fill="none" stroke="#000000" stroke-width="0.15" d="M481.969,340.235h28.347v28.347h-28.347V340.235z"/>
<path fill="none" stroke="#000000" stroke-width="0.15" d="M481.969,567.009h28.347v28.347h-28.347V567.009z"/>
<path fill="none" stroke="#000000" stroke-width="0.15" d="M481.969,538.662h28.347v28.347h-28.347V538.662z"/>
<path fill="none" stroke="#000000" stroke-width="0.15" d="M481.969,595.355h28.347v28.347h-28.347V595.355z"/>
<path fill="none" stroke="#000000" stroke-width="0.15" d="M481.969,85.115h28.347v28.347h-28.347V85.115z"/>
<path fill="none" stroke="#000000" stroke-width="0.15" d="M481.969,113.462h28.347v28.347h-28.347V113.462z"/>
<path fill="none" stroke="#000000" stroke-width="0.15" d="M481.969,56.769h28.347v28.347h-28.347V56.769z"/>
<path fill="none" stroke="#000000" stroke-width="0.15" d="M481.969,141.809h28.347v28.347h-28.347V141.809z"/>
<path fill="none" stroke="#000000" stroke-width="0.15" d="M28.422,396.929h28.347v28.347H28.422V396.929z"/>
<path fill="none" stroke="#000000" stroke-width="0.15" d="M481.969,311.889h28.347v28.347h-28.347V311.889z"/>
<path fill="none" stroke="#000000" stroke-width="0.15" d="M481.969,170.155h28.347v28.347h-28.347V170.155z"/>
<path fill="none" stroke="#000000" stroke-width="0.15" d="M481.969,255.195h28.347v28.347h-28.347V255.195z"/>
<path fill="none" stroke="#000000" stroke-width="0.15" d="M481.969,226.849h28.347v28.347h-28.347V226.849z"/>
<path fill="none" stroke="#000000" stroke-width="0.15" d="M481.969,198.502h28.347v28.347h-28.347V198.502z"/>
<path fill="none" stroke="#000000" stroke-width="0.15" d="M481.969,283.542h28.347v28.347h-28.347V283.542z"/>
<path fill="none" stroke="#000000" stroke-width="0.15" d="M510.315,28.422h28.347v28.347h-28.347V28.422z"/>
<path fill="none" stroke="#000000" stroke-width="0.15" d="M510.315,481.969h28.347v28.347h-28.347V481.969z"/>
<path fill="none" stroke="#000000" stroke-width="0.15" d="M510.315,425.275h28.347v28.347h-28.347V425.275z"/>
<path fill="none" stroke="#000000" stroke-width="0.15" d="M510.315,453.622h28.347v28.347h-28.347V453.622z"/>
<path fill="none" stroke="#000000" stroke-width="0.15" d="M510.315,368.582h28.347v28.347h-28.347V368.582z"/>
<path fill="none" stroke="#000000" stroke-width="0.15" d="M510.315,396.929h28.347v28.347h-28.347V396.929z"/>
<path fill="none" stroke="#000000" stroke-width="0.15" d="M510.315,510.315h28.347v28.347h-28.347V510.315z"/>
<path fill="none" stroke="#000000" stroke-width="0.15" d="M510.315,652.049h28.347v28.347h-28.347V652.049z"/>
<path fill="none" stroke="#000000" stroke-width="0.15" d="M510.315,623.702h28.347v28.347h-28.347V623.702z"/>
<path fill="none" stroke="#000000" stroke-width="0.15" d="M510.315,340.235h28.347v28.347h-28.347V340.235z"/>
<path fill="none" stroke="#000000" stroke-width="0.15" d="M510.315,567.009h28.347v28.347h-28.347V567.009z"/>
<path fill="none" stroke="#000000" stroke-width="0.15" d="M510.315,538.662h28.347v28.347h-28.347V538.662z"/>
<path fill="none" stroke="#000000" stroke-width="0.15" d="M510.315,595.355h28.347v28.347h-28.347V595.355z"/>
<path fill="none" stroke="#000000" stroke-width="0.15" d="M510.315,85.115h28.347v28.347h-28.347V85.115z"/>
<path fill="none" stroke="#000000" stroke-width="0.15" d="M510.315,113.462h28.347v28.347h-28.347V113.462z"/>
<path fill="none" stroke="#000000" stroke-width="0.15" d="M510.315,56.769h28.347v28.347h-28.347V56.769z"/>
<path fill="none" stroke="#000000" stroke-width="0.15" d="M510.315,141.809h28.347v28.347h-28.347V141.809z"/>
<path fill="none" stroke="#000000" stroke-width="0.15" d="M510.315,311.889h28.347v28.347h-28.347V311.889z"/>
<path fill="none" stroke="#000000" stroke-width="0.15" d="M510.315,170.155h28.347v28.347h-28.347V170.155z"/>
<path fill="none" stroke="#000000" stroke-width="0.15" d="M510.315,255.195h28.347v28.347h-28.347V255.195z"/>
<path fill="none" stroke="#000000" stroke-width="0.15" d="M510.315,226.849h28.347v28.347h-28.347V226.849z"/>
<path fill="none" stroke="#000000" stroke-width="0.15" d="M510.315,198.502h28.347v28.347h-28.347V198.502z"/>
<path fill="none" stroke="#000000" stroke-width="0.15" d="M510.315,283.542h28.347v28.347h-28.347V283.542z"/>
<path fill="none" stroke="#000000" stroke-width="0.15" d="M0.075,28.422h28.347v28.347H0.075V28.422z"/>
<path fill="none" stroke="#000000" stroke-width="0.15" d="M0.075,481.969h28.347v28.347H0.075V481.969z"/>
<path fill="none" stroke="#000000" stroke-width="0.15" d="M0.075,425.275h28.347v28.347H0.075V425.275z"/>
<path fill="none" stroke="#000000" stroke-width="0.15" d="M0.075,453.622h28.347v28.347H0.075V453.622z"/>
<path fill="none" stroke="#000000" stroke-width="0.15" d="M0.075,368.582h28.347v28.347H0.075V368.582z"/>
<path fill="none" stroke="#000000" stroke-width="0.15" d="M0.075,396.929h28.347v28.347H0.075V396.929z"/>
<path fill="none" stroke="#000000" stroke-width="0.15" d="M0.075,510.315h28.347v28.347H0.075V510.315z"/>
<path fill="none" stroke="#000000" stroke-width="0.15" d="M0.075,652.049h28.347v28.347H0.075V652.049z"/>
<path fill="none" stroke="#000000" stroke-width="0.15" d="M0.075,623.702h28.347v28.347H0.075V623.702z"/>
<path fill="none" stroke="#000000" stroke-width="0.15" d="M0.075,340.235h28.347v28.347H0.075V340.235z"/>
<path fill="none" stroke="#000000" stroke-width="0.15" d="M0.075,567.009h28.347v28.347H0.075V567.009z"/>
<path fill="none" stroke="#000000" stroke-width="0.15" d="M0.075,538.662h28.347v28.347H0.075V538.662z"/>
<path fill="none" stroke="#000000" stroke-width="0.15" d="M0.075,595.355h28.347v28.347H0.075V595.355z"/>
<path fill="none" stroke="#000000" stroke-width="0.15" d="M0.075,85.115h28.347v28.347H0.075V85.115z"/>
<path fill="none" stroke="#000000" stroke-width="0.15" d="M0.075,113.462h28.347v28.347H0.075V113.462z"/>
<path fill="none" stroke="#000000" stroke-width="0.15" d="M0.075,56.769h28.347v28.347H0.075V56.769z"/>
<path fill="none" stroke="#000000" stroke-width="0.15" d="M0.075,141.809h28.347v28.347H0.075V141.809z"/>
<path fill="none" stroke="#000000" stroke-width="0.15" d="M0.075,311.889h28.347v28.347H0.075V311.889z"/>
<path fill="none" stroke="#000000" stroke-width="0.15" d="M0.075,170.155h28.347v28.347H0.075V170.155z"/>
<path fill="none" stroke="#000000" stroke-width="0.15" d="M0.075,255.195h28.347v28.347H0.075V255.195z"/>
<path fill="none" stroke="#000000" stroke-width="0.15" d="M0.075,226.849h28.347v28.347H0.075V226.849z"/>
<path fill="none" stroke="#000000" stroke-width="0.15" d="M0.075,198.502h28.347v28.347H0.075V198.502z"/>
<path fill="none" stroke="#000000" stroke-width="0.15" d="M0.075,283.542h28.347v28.347H0.075V283.542z"/>
<path fill="none" stroke="#000000" stroke-width="0.15" d="M28.422,595.355h28.347v28.347H28.422V595.355z"/>
<path fill="none" stroke="#000000" stroke-width="0.15" d="M28.422,623.702h28.347v28.347H28.422V623.702z"/>
<path fill="none" stroke="#000000" stroke-width="0.15" d="M28.422,652.049h28.347v28.347H28.422V652.049z"/>
<path fill="none" stroke="#000000" stroke-width="0.15" d="M85.115,652.049h28.347v28.347H85.115V652.049z"/>
<path fill="none" stroke="#000000" stroke-width="0.15" d="M56.769,652.049h28.347v28.347H56.769V652.049z"/>
<path fill="none" stroke="#000000" stroke-width="0.15" d="M28.422,567.009h28.347v28.347H28.422V567.009z"/>
<path fill="none" stroke="#000000" stroke-width="0.15" d="M425.275,652.049h28.347v28.347h-28.347L425.275,652.049z"/>
<path fill="none" stroke="#000000" stroke-width="0.15" d="M28.422,538.662h28.347v28.347H28.422V538.662z"/>
<path fill="none" stroke="#000000" stroke-width="0.15" d="M28.422,453.622h28.347v28.347H28.422V453.622z"/>
<path fill="none" stroke="#000000" stroke-width="0.15" d="M28.422,510.315h28.347v28.347H28.422V510.315z"/>
<path fill="none" stroke="#000000" stroke-width="0.15" d="M28.422,481.969h28.347v28.347H28.422V481.969z"/>
<path fill="none" stroke="#000000" stroke-width="0.15" d="M28.422,425.275h28.347v28.347H28.422V425.275z"/>
<path fill="none" stroke="#000000" stroke-width="0.15" d="M311.889,652.049h28.347v28.347h-28.347L311.889,652.049z"/>
<path fill="none" stroke="#000000" stroke-width="0.15" d="M340.235,652.049h28.347v28.347h-28.347V652.049z"/>
<path fill="none" stroke="#000000" stroke-width="0.15" d="M283.542,652.049h28.347v28.347h-28.347V652.049z"/>
<path fill="none" stroke="#000000" stroke-width="0.15" d="M368.582,652.049h28.347v28.347h-28.347L368.582,652.049z"/>
<path fill="none" stroke="#000000" stroke-width="0.15" d="M396.929,652.049h28.347v28.347h-28.347L396.929,652.049z"/>
<path fill="none" stroke="#000000" stroke-width="0.15" d="M255.195,652.049h28.347v28.347h-28.347L255.195,652.049z"/>
<path fill="none" stroke="#000000" stroke-width="0.15" d="M170.155,652.049h28.347v28.347h-28.347V652.049z"/>
<path fill="none" stroke="#000000" stroke-width="0.15" d="M113.462,652.049h28.347v28.347h-28.347L113.462,652.049z"/>
<path fill="none" stroke="#000000" stroke-width="0.15" d="M141.809,652.049h28.347v28.347h-28.347V652.049z"/>
<path fill="none" stroke="#000000" stroke-width="0.15" d="M198.502,652.049h28.347v28.347h-28.347V652.049z"/>
<path fill="none" stroke="#000000" stroke-width="0.15" d="M226.849,652.049h28.347v28.347h-28.347V652.049z"/>
<path fill="none" stroke="#000000" stroke-width="0.15" d="M453.622,680.396h28.347v28.347h-28.347V680.396z"/>
<path fill="none" stroke="#000000" stroke-width="0.15" d="M481.969,680.396h28.347v28.347h-28.347V680.396z"/>
<path fill="none" stroke="#000000" stroke-width="0.15" d="M510.315,680.396h28.347v28.347h-28.347V680.396z"/>
<path fill="none" stroke="#000000" stroke-width="0.15" d="M0.075,680.396h28.347v28.347H0.075V680.396z"/>
<path fill="none" stroke="#000000" stroke-width="0.15" d="M28.422,680.396h28.347v28.347H28.422V680.396z"/>
<path fill="none" stroke="#000000" stroke-width="0.15" d="M85.115,680.396h28.347v28.347H85.115V680.396z"/>
<path fill="none" stroke="#000000" stroke-width="0.15" d="M56.769,680.396h28.347v28.347H56.769V680.396z"/>
<path fill="none" stroke="#000000" stroke-width="0.15" d="M425.275,680.396h28.347v28.347h-28.347L425.275,680.396z"/>
<path fill="none" stroke="#000000" stroke-width="0.15" d="M311.889,680.396h28.347v28.347h-28.347L311.889,680.396z"/>
<path fill="none" stroke="#000000" stroke-width="0.15" d="M340.235,680.396h28.347v28.347h-28.347V680.396z"/>
<path fill="none" stroke="#000000" stroke-width="0.15" d="M283.542,680.396h28.347v28.347h-28.347V680.396z"/>
<path fill="none" stroke="#000000" stroke-width="0.15" d="M368.582,680.396h28.347v28.347h-28.347L368.582,680.396z"/>
<path fill="none" stroke="#000000" stroke-width="0.15" d="M396.929,680.396h28.347v28.347h-28.347L396.929,680.396z"/>
<path fill="none" stroke="#000000" stroke-width="0.15" d="M255.195,680.396h28.347v28.347h-28.347L255.195,680.396z"/>
<path fill="none" stroke="#000000" stroke-width="0.15" d="M170.155,680.396h28.347v28.347h-28.347V680.396z"/>
<path fill="none" stroke="#000000" stroke-width="0.15" d="M113.462,680.396h28.347v28.347h-28.347L113.462,680.396z"/>
<path fill="none" stroke="#000000" stroke-width="0.15" d="M141.809,680.396h28.347v28.347h-28.347V680.396z"/>
<path fill="none" stroke="#000000" stroke-width="0.15" d="M198.502,680.396h28.347v28.347h-28.347V680.396z"/>
<path fill="none" stroke="#000000" stroke-width="0.15" d="M226.849,680.396h28.347v28.347h-28.347V680.396z"/>
<path fill="none" stroke="#000000" stroke-width="0.15" d="M453.622,0.075h28.347v28.347h-28.347V0.075z"/>
<path fill="none" stroke="#000000" stroke-width="0.15" d="M481.969,0.075h28.347v28.347h-28.347V0.075z"/>
<path fill="none" stroke="#000000" stroke-width="0.15" d="M510.315,0.075h28.347v28.347h-28.347V0.075z"/>
<path fill="none" stroke="#000000" stroke-width="0.15" d="M0.075,0.075h28.347v28.347H0.075V0.075z"/>
<path fill="none" stroke="#000000" stroke-width="0.15" d="M28.422,0.075h28.347v28.347H28.422V0.075z"/>
<path fill="none" stroke="#000000" stroke-width="0.15" d="M85.115,0.075h28.347v28.347H85.115V0.075z"/>
<path fill="none" stroke="#000000" stroke-width="0.15" d="M56.769,0.075h28.347v28.347H56.769V0.075z"/>
<path fill="none" stroke="#000000" stroke-width="0.15" d="M425.275,0.075h28.347v28.347h-28.347L425.275,0.075z"/>
<path fill="none" stroke="#000000" stroke-width="0.15" d="M311.889,0.075h28.347v28.347h-28.347L311.889,0.075z"/>
<path fill="none" stroke="#000000" stroke-width="0.15" d="M340.235,0.075h28.347v28.347h-28.347V0.075z"/>
<path fill="none" stroke="#000000" stroke-width="0.15" d="M283.542,0.075h28.347v28.347h-28.347V0.075z"/>
<path fill="none" stroke="#000000" stroke-width="0.15" d="M368.582,0.075h28.347v28.347h-28.347L368.582,0.075z"/>
<path fill="none" stroke="#000000" stroke-width="0.15" d="M396.929,0.075h28.347v28.347h-28.347L396.929,0.075z"/>
<path fill="none" stroke="#000000" stroke-width="0.15" d="M255.195,0.075h28.347v28.347h-28.347L255.195,0.075z"/>
<path fill="none" stroke="#000000" stroke-width="0.15" d="M170.155,0.075h28.347v28.347h-28.347V0.075z"/>
<path fill="none" stroke="#000000" stroke-width="0.15" d="M113.462,0.075h28.347v28.347h-28.347L113.462,0.075z"/>
<path fill="none" stroke="#000000" stroke-width="0.15" d="M141.809,0.075h28.347v28.347h-28.347V0.075z"/>
<path fill="none" stroke="#000000" stroke-width="0.15" d="M198.502,0.075h28.347v28.347h-28.347V0.075z"/>
<path fill="none" stroke="#000000" stroke-width="0.15" d="M226.849,0.075h28.347v28.347h-28.347V0.075z"/>
<path fill="none" stroke="#000000" stroke-width="0.15" d="M85.115,113.462h28.347v28.347H85.115V113.462z"/>
<path fill="none" stroke="#000000" stroke-width="0.15" d="M340.235,595.355h28.347v28.347h-28.347V595.355z"/>
<path fill="none" stroke="#000000" stroke-width="0.15" d="M396.929,595.355h28.347v28.347h-28.347L396.929,595.355z"/>
<path fill="none" stroke="#000000" stroke-width="0.15" d="M368.582,595.355h28.347v28.347h-28.347L368.582,595.355z"/>
<path fill="none" stroke="#000000" stroke-width="0.15" d="M425.275,595.355h28.347v28.347h-28.347L425.275,595.355z"/>
<path fill="none" stroke="#000000" stroke-width="0.15" d="M425.275,567.009h28.347v28.347h-28.347L425.275,567.009z"/>
<path fill="none" stroke="#000000" stroke-width="0.15" d="M425.275,538.662h28.347v28.347h-28.347L425.275,538.662z"/>
<path fill="none" stroke="#000000" stroke-width="0.15" d="M311.889,595.355h28.347v28.347h-28.347L311.889,595.355z"/>
<path fill="none" stroke="#000000" stroke-width="0.15" d="M198.502,595.355h28.347v28.347h-28.347V595.355z"/>
<path fill="none" stroke="#000000" stroke-width="0.15" d="M226.849,595.355h28.347v28.347h-28.347V595.355z"/>
<path fill="none" stroke="#000000" stroke-width="0.15" d="M425.275,510.315h28.347v28.347h-28.347L425.275,510.315z"/>
<path fill="none" stroke="#000000" stroke-width="0.15" d="M255.195,595.355h28.347v28.347h-28.347L255.195,595.355z"/>
<path fill="none" stroke="#000000" stroke-width="0.15" d="M283.542,595.355h28.347v28.347h-28.347V595.355z"/>
<path fill="none" stroke="#000000" stroke-width="0.15" d="M425.275,198.502h28.347v28.347h-28.347L425.275,198.502z"/>
<path fill="none" stroke="#000000" stroke-width="0.15" d="M425.275,283.542h28.347v28.347h-28.347L425.275,283.542z"/>
<path fill="none" stroke="#000000" stroke-width="0.15" d="M425.275,255.195h28.347v28.347h-28.347L425.275,255.195z"/>
<path fill="none" stroke="#000000" stroke-width="0.15" d="M425.275,481.969h28.347v28.347h-28.347L425.275,481.969z"/>
<path fill="none" stroke="#000000" stroke-width="0.15" d="M170.155,595.355h28.347v28.347h-28.347V595.355z"/>
<path fill="none" stroke="#000000" stroke-width="0.15" d="M425.275,226.849h28.347v28.347h-28.347L425.275,226.849z"/>
<path fill="none" stroke="#000000" stroke-width="0.15" d="M425.275,311.889h28.347v28.347h-28.347L425.275,311.889z"/>
<path fill="none" stroke="#000000" stroke-width="0.15" d="M425.275,453.622h28.347v28.347h-28.347L425.275,453.622z"/>
<path fill="none" stroke="#000000" stroke-width="0.15" d="M425.275,425.275h28.347v28.347h-28.347L425.275,425.275z"/>
<path fill="none" stroke="#000000" stroke-width="0.15" d="M425.275,396.929h28.347v28.347h-28.347L425.275,396.929z"/>
<path fill="none" stroke="#000000" stroke-width="0.15" d="M425.275,340.235h28.347v28.347h-28.347L425.275,340.235z"/>
<path fill="none" stroke="#000000" stroke-width="0.15" d="M425.275,368.582h28.347v28.347h-28.347L425.275,368.582z"/>
<path fill="none" stroke="#000000" stroke-width="0.15" d="M85.115,311.889h28.347v28.347H85.115V311.889z"/>
<path fill="none" stroke="#000000" stroke-width="0.15" d="M141.809,595.355h28.347v28.347h-28.347V595.355z"/>
<path fill="none" stroke="#000000" stroke-width="0.15" d="M425.275,170.155h28.347v28.347h-28.347L425.275,170.155z"/>
<path fill="none" stroke="#000000" stroke-width="0.15" d="M85.115,198.502h28.347v28.347H85.115V198.502z"/>
<path fill="none" stroke="#000000" stroke-width="0.15" d="M85.115,255.195h28.347v28.347H85.115V255.195z"/>
<path fill="none" stroke="#000000" stroke-width="0.15" d="M85.115,283.542h28.347v28.347H85.115V283.542z"/>
<path fill="none" stroke="#000000" stroke-width="0.15" d="M85.115,170.155h28.347v28.347H85.115V170.155z"/>
<path fill="none" stroke="#000000" stroke-width="0.15" d="M113.462,85.115h28.347v28.347h-28.347L113.462,85.115z"/>
<path fill="none" stroke="#000000" stroke-width="0.15" d="M141.809,85.115h28.347v28.347h-28.347V85.115z"/>
<path fill="none" stroke="#000000" stroke-width="0.15" d="M85.115,141.809h28.347v28.347H85.115V141.809z"/>
<path fill="none" stroke="#000000" stroke-width="0.15" d="M85.115,85.115h28.347v28.347H85.115V85.115z"/>
<path fill="none" stroke="#000000" stroke-width="0.15" d="M170.155,85.115h28.347v28.347h-28.347V85.115z"/>
<path fill="none" stroke="#000000" stroke-width="0.15" d="M85.115,226.849h28.347v28.347H85.115V226.849z"/>
<path fill="none" stroke="#000000" stroke-width="0.15" d="M85.115,340.235h28.347v28.347H85.115V340.235z"/>
<path fill="none" stroke="#000000" stroke-width="0.15" d="M85.115,538.662h28.347v28.347H85.115V538.662z"/>
<path fill="none" stroke="#000000" stroke-width="0.15" d="M85.115,595.355h28.347v28.347H85.115V595.355z"/>
<path fill="none" stroke="#000000" stroke-width="0.15" d="M113.462,595.355h28.347v28.347h-28.347L113.462,595.355z"/>
<path fill="none" stroke="#000000" stroke-width="0.15" d="M85.115,510.315h28.347v28.347H85.115V510.315z"/>
<path fill="none" stroke="#000000" stroke-width="0.15" d="M85.115,567.009h28.347v28.347H85.115V567.009z"/>
<path fill="none" stroke="#000000" stroke-width="0.15" d="M85.115,396.929h28.347v28.347H85.115V396.929z"/>
<path fill="none" stroke="#000000" stroke-width="0.15" d="M85.115,481.969h28.347v28.347H85.115V481.969z"/>
<path fill="none" stroke="#000000" stroke-width="0.15" d="M85.115,368.582h28.347v28.347H85.115V368.582z"/>
<path fill="none" stroke="#000000" stroke-width="0.15" d="M85.115,453.622h28.347v28.347H85.115V453.622z"/>
<path fill="none" stroke="#000000" stroke-width="0.15" d="M85.115,425.275h28.347v28.347H85.115V425.275z"/>
<path fill="none" stroke="#000000" stroke-width="0.15" d="M56.769,396.929h28.347v28.347H56.769V396.929z"/>
<path fill="none" stroke="#000000" stroke-width="0.15" d="M56.769,453.622h28.347v28.347H56.769V453.622z"/>
<path fill="none" stroke="#000000" stroke-width="0.15" d="M56.769,538.662h28.347v28.347H56.769V538.662z"/>
<path fill="none" stroke="#000000" stroke-width="0.15" d="M56.769,481.969h28.347v28.347H56.769V481.969z"/>
<path fill="none" stroke="#000000" stroke-width="0.15" d="M56.769,510.315h28.347v28.347H56.769V510.315z"/>
<path fill="none" stroke="#000000" stroke-width="0.15" d="M56.769,283.542h28.347v28.347H56.769V283.542z"/>
<path fill="none" stroke="#000000" stroke-width="0.15" d="M56.769,567.009h28.347v28.347H56.769V567.009z"/>
<path fill="none" stroke="#000000" stroke-width="0.15" d="M56.769,623.702h28.347v28.347H56.769V623.702z"/>
<path fill="none" stroke="#000000" stroke-width="0.15" d="M56.769,340.235h28.347v28.347H56.769V340.235z"/>
<path fill="none" stroke="#000000" stroke-width="0.15" d="M56.769,311.889h28.347v28.347H56.769V311.889z"/>
<path fill="none" stroke="#000000" stroke-width="0.15" d="M396.929,623.702h28.347v28.347h-28.347L396.929,623.702z"/>
<path fill="none" stroke="#000000" stroke-width="0.15" d="M56.769,368.582h28.347v28.347H56.769V368.582z"/>
<path fill="none" stroke="#000000" stroke-width="0.15" d="M56.769,425.275h28.347v28.347H56.769V425.275z"/>
<path fill="none" stroke="#000000" stroke-width="0.15" d="M56.769,595.355h28.347v28.347H56.769V595.355z"/>
<path fill="none" stroke="#000000" stroke-width="0.15" d="M283.542,623.702h28.347v28.347h-28.347V623.702z"/>
<path fill="none" stroke="#000000" stroke-width="0.15" d="M311.889,623.702h28.347v28.347h-28.347L311.889,623.702z"/>
<path fill="none" stroke="#000000" stroke-width="0.15" d="M255.195,623.702h28.347v28.347h-28.347L255.195,623.702z"/>
<path fill="none" stroke="#000000" stroke-width="0.15" d="M340.235,623.702h28.347v28.347h-28.347V623.702z"/>
<path fill="none" stroke="#000000" stroke-width="0.15" d="M85.115,623.702h28.347v28.347H85.115V623.702z"/>
<path fill="none" stroke="#000000" stroke-width="0.15" d="M368.582,623.702h28.347v28.347h-28.347L368.582,623.702z"/>
<path fill="none" stroke="#000000" stroke-width="0.15" d="M113.462,623.702h28.347v28.347h-28.347L113.462,623.702z"/>
<path fill="none" stroke="#000000" stroke-width="0.15" d="M141.809,623.702h28.347v28.347h-28.347V623.702z"/>
<path fill="none" stroke="#000000" stroke-width="0.15" d="M425.275,141.809h28.347v28.347h-28.347L425.275,141.809z"/>
<path fill="none" stroke="#000000" stroke-width="0.15" d="M198.502,623.702h28.347v28.347h-28.347V623.702z"/>
<path fill="none" stroke="#000000" stroke-width="0.15" d="M226.849,623.702h28.347v28.347h-28.347V623.702z"/>
<path fill="none" stroke="#000000" stroke-width="0.15" d="M170.155,623.702h28.347v28.347h-28.347V623.702z"/>
<path fill="none" stroke="#000000" stroke-width="0.15" d="M311.889,56.769h28.347v28.347h-28.347L311.889,56.769z"/>
<path fill="none" stroke="#000000" stroke-width="0.15" d="M340.235,56.769h28.347v28.347h-28.347V56.769z"/>
<path fill="none" stroke="#000000" stroke-width="0.15" d="M283.542,56.769h28.347v28.347h-28.347V56.769z"/>
<path fill="none" stroke="#000000" stroke-width="0.15" d="M226.849,56.769h28.347v28.347h-28.347V56.769z"/>
<path fill="none" stroke="#000000" stroke-width="0.15" d="M255.195,56.769h28.347v28.347h-28.347L255.195,56.769z"/>
<path fill="none" stroke="#000000" stroke-width="0.15" d="M425.275,56.769h28.347v28.347h-28.347L425.275,56.769z"/>
<path fill="none" stroke="#000000" stroke-width="0.15" d="M425.275,85.115h28.347v28.347h-28.347L425.275,85.115z"/>
<path fill="none" stroke="#000000" stroke-width="0.15" d="M425.275,113.462h28.347v28.347h-28.347L425.275,113.462z"/>
<path fill="none" stroke="#000000" stroke-width="0.15" d="M396.929,56.769h28.347v28.347h-28.347L396.929,56.769z"/>
<path fill="none" stroke="#000000" stroke-width="0.15" d="M198.502,56.769h28.347v28.347h-28.347V56.769z"/>
<path fill="none" stroke="#000000" stroke-width="0.15" d="M368.582,56.769h28.347v28.347h-28.347L368.582,56.769z"/>
<path fill="none" stroke="#000000" stroke-width="0.15" d="M56.769,198.502h28.347v28.347H56.769V198.502z"/>
<path fill="none" stroke="#000000" stroke-width="0.15" d="M56.769,141.809h28.347v28.347H56.769V141.809z"/>
<path fill="none" stroke="#000000" stroke-width="0.15" d="M56.769,113.462h28.347v28.347H56.769V113.462z"/>
<path fill="none" stroke="#000000" stroke-width="0.15" d="M56.769,170.155h28.347v28.347H56.769V170.155z"/>
<path fill="none" stroke="#000000" stroke-width="0.15" d="M56.769,255.195h28.347v28.347H56.769V255.195z"/>
<path fill="none" stroke="#000000" stroke-width="0.15" d="M56.769,226.849h28.347v28.347H56.769V226.849z"/>
<path fill="none" stroke="#000000" stroke-width="0.15" d="M56.769,85.115h28.347v28.347H56.769V85.115z"/>
<path fill="none" stroke="#000000" stroke-width="0.15" d="M141.809,56.769h28.347v28.347h-28.347V56.769z"/>
<path fill="none" stroke="#000000" stroke-width="0.15" d="M113.462,56.769h28.347v28.347h-28.347L113.462,56.769z"/>
<path fill="none" stroke="#000000" stroke-width="0.15" d="M170.155,56.769h28.347v28.347h-28.347V56.769z"/>
<path fill="none" stroke="#000000" stroke-width="0.15" d="M56.769,56.769h28.347v28.347H56.769V56.769z"/>
<path fill="none" stroke="#000000" stroke-width="0.15" d="M85.115,56.769h28.347v28.347H85.115V56.769z"/>
</svg>
