<?xml version="1.0" encoding="utf-8"?>
<!-- Generator: Adobe Illustrator 21.0.2, SVG Export Plug-In . SVG Version: 6.00 Build 0)  -->
<svg version="1.1" baseProfile="tiny" id="Ebene_1" xmlns="http://www.w3.org/2000/svg" xmlns:xlink="http://www.w3.org/1999/xlink"
	 x="0px" y="0px" viewBox="0 0 708.812 850.545" xml:space="preserve">
<path fill="none" stroke="#000000" stroke-width="0.15" d="M283.54,141.808h141.732V283.54H283.54V141.808z"/>
<path fill="none" stroke="#000000" stroke-width="0.15" d="M141.808,283.54H283.54v141.732H141.808V283.54z"/>
<path fill="none" stroke="#000000" stroke-width="0.15" d="M283.54,283.54h141.732v141.732H283.54V283.54z"/>
<path fill="none" stroke="#000000" stroke-width="0.15" d="M141.808,141.808H283.54V283.54H141.808V141.808z"/>
<path fill="none" stroke="#000000" stroke-width="0.15" d="M283.54,425.272h141.732v141.732H283.54V425.272z"/>
<path fill="none" stroke="#000000" stroke-width="0.15" d="M425.272,141.808h141.732V283.54H425.272V141.808z"/>
<path fill="none" stroke="#000000" stroke-width="0.15" d="M141.808,425.272H283.54v141.732H141.808V425.272z"/>
<path fill="none" stroke="#000000" stroke-width="0.15" d="M425.272,283.54h141.732v141.732H425.272V283.54z"/>
<path fill="none" stroke="#000000" stroke-width="0.15" d="M425.272,567.005h141.732v141.732H425.272V567.005z"/>
<path fill="none" stroke="#000000" stroke-width="0.15" d="M425.272,425.272h141.732v141.732H425.272V425.272z"/>
<path fill="none" stroke="#000000" stroke-width="0.15" d="M567.005,141.808h141.732V283.54H567.005V141.808z"/>
<path fill="none" stroke="#000000" stroke-width="0.15" d="M567.005,283.54h141.732v141.732H567.005V283.54z"/>
<path fill="none" stroke="#000000" stroke-width="0.15" d="M567.005,567.005h141.732v141.732H567.005V567.005z"/>
<path fill="none" stroke="#000000" stroke-width="0.15" d="M567.005,425.272h141.732v141.732H567.005V425.272z"/>
<path fill="none" stroke="#000000" stroke-width="0.15" d="M283.54,567.005h141.732v141.732H283.54V567.005z"/>
<path fill="none" stroke="#000000" stroke-width="0.15" d="M141.808,567.005H283.54v141.732H141.808V567.005z"/>
<path fill="none" stroke="#000000" stroke-width="0.15" d="M425.272,708.737h141.732v141.732H425.272V708.737z"/>
<path fill="none" stroke="#000000" stroke-width="0.15" d="M567.005,708.737h141.732v141.732H567.005V708.737z"/>
<path fill="none" stroke="#000000" stroke-width="0.15" d="M283.54,708.737h141.732v141.732H283.54V708.737z"/>
<path fill="none" stroke="#000000" stroke-width="0.15" d="M141.808,708.737H283.54v141.732H141.808V708.737z"/>
<path fill="none" stroke="#000000" stroke-width="0.15" d="M0.075,283.54h141.732v141.732H0.075V283.54z"/>
<path fill="none" stroke="#000000" stroke-width="0.15" d="M0.075,141.808h141.732V283.54H0.075V141.808z"/>
<path fill="none" stroke="#000000" stroke-width="0.15" d="M283.54,0.075h141.732v141.732H283.54V0.075z"/>
<path fill="none" stroke="#000000" stroke-width="0.15" d="M141.808,0.075H283.54v141.732H141.808V0.075z"/>
<path fill="none" stroke="#000000" stroke-width="0.15" d="M425.272,0.075h141.732v141.732H425.272V0.075z"/>
<path fill="none" stroke="#000000" stroke-width="0.15" d="M567.005,0.075h141.732v141.732H567.005V0.075z"/>
<path fill="none" stroke="#000000" stroke-width="0.15" d="M0.075,0.075h141.732v141.732H0.075V0.075z"/>
<path fill="none" stroke="#000000" stroke-width="0.15" d="M0.075,425.272h141.732v141.732H0.075V425.272z"/>
<path fill="none" stroke="#000000" stroke-width="0.15" d="M0.075,567.005h141.732v141.732H0.075V567.005z"/>
<path fill="none" stroke="#000000" stroke-width="0.15" d="M0.075,708.737h141.732v141.732H0.075V708.737z"/>
</svg>
