<?xml version="1.0" encoding="utf-8"?>
<!-- Generator: Adobe Illustrator 21.0.2, SVG Export Plug-In . SVG Version: 6.00 Build 0)  -->
<svg version="1.1" baseProfile="tiny" id="Ebene_1" xmlns="http://www.w3.org/2000/svg" xmlns:xlink="http://www.w3.org/1999/xlink"
	 x="0px" y="0px" viewBox="0 0 567.08 779.679" xml:space="preserve">
<path fill="none" stroke="#000000" stroke-width="0.15" d="M141.808,496.139h70.866v70.866h-70.866V496.139z"/>
<path fill="none" stroke="#000000" stroke-width="0.15" d="M141.808,425.272h70.866v70.866h-70.866V425.272z"/>
<path fill="none" stroke="#000000" stroke-width="0.15" d="M141.808,567.005h70.866v70.866h-70.866V567.005z"/>
<path fill="none" stroke="#000000" stroke-width="0.15" d="M141.808,354.406h70.866v70.866h-70.866V354.406z"/>
<path fill="none" stroke="#000000" stroke-width="0.15" d="M141.808,283.54h70.866v70.866h-70.866V283.54z"/>
<path fill="none" stroke="#000000" stroke-width="0.15" d="M212.674,567.005h70.866v70.866h-70.866L212.674,567.005z"/>
<path fill="none" stroke="#000000" stroke-width="0.15" d="M141.808,212.674h70.866v70.866h-70.866V212.674z"/>
<path fill="none" stroke="#000000" stroke-width="0.15" d="M354.406,354.406h70.866v70.866h-70.866V354.406z"/>
<path fill="none" stroke="#000000" stroke-width="0.15" d="M354.406,425.272h70.866v70.866h-70.866V425.272z"/>
<path fill="none" stroke="#000000" stroke-width="0.15" d="M354.406,283.54h70.866v70.866h-70.866V283.54z"/>
<path fill="none" stroke="#000000" stroke-width="0.15" d="M283.54,567.005h70.866v70.866H283.54V567.005z"/>
<path fill="none" stroke="#000000" stroke-width="0.15" d="M354.406,496.139h70.866v70.866h-70.866V496.139z"/>
<path fill="none" stroke="#000000" stroke-width="0.15" d="M354.406,567.005h70.866v70.866h-70.866V567.005z"/>
<path fill="none" stroke="#000000" stroke-width="0.15" d="M283.54,354.406h70.866v70.866H283.54V354.406z"/>
<path fill="none" stroke="#000000" stroke-width="0.15" d="M283.54,496.139h70.866v70.866H283.54V496.139z"/>
<path fill="none" stroke="#000000" stroke-width="0.15" d="M212.674,425.272h70.866v70.866h-70.866L212.674,425.272z"/>
<path fill="none" stroke="#000000" stroke-width="0.15" d="M212.674,496.139h70.866v70.866h-70.866L212.674,496.139z"/>
<path fill="none" stroke="#000000" stroke-width="0.15" d="M212.674,354.406h70.866v70.866h-70.866L212.674,354.406z"/>
<path fill="none" stroke="#000000" stroke-width="0.15" d="M212.674,212.674h70.866v70.866h-70.866L212.674,212.674z"/>
<path fill="none" stroke="#000000" stroke-width="0.15" d="M212.674,283.54h70.866v70.866h-70.866L212.674,283.54z"/>
<path fill="none" stroke="#000000" stroke-width="0.15" d="M425.272,70.941h70.866v70.866h-70.866V70.941z"/>
<path fill="none" stroke="#000000" stroke-width="0.15" d="M283.54,212.674h70.866v70.866H283.54V212.674z"/>
<path fill="none" stroke="#000000" stroke-width="0.15" d="M283.54,425.272h70.866v70.866H283.54V425.272z"/>
<path fill="none" stroke="#000000" stroke-width="0.15" d="M212.674,141.808h70.866v70.866h-70.866L212.674,141.808z"/>
<path fill="none" stroke="#000000" stroke-width="0.15" d="M283.54,141.808h70.866v70.866H283.54V141.808z"/>
<path fill="none" stroke="#000000" stroke-width="0.15" d="M283.54,283.54h70.866v70.866H283.54V283.54z"/>
<path fill="none" stroke="#000000" stroke-width="0.15" d="M141.808,141.808h70.866v70.866h-70.866V141.808z"/>
<path fill="none" stroke="#000000" stroke-width="0.15" d="M354.406,212.674h70.866v70.866h-70.866V212.674z"/>
<path fill="none" stroke="#000000" stroke-width="0.15" d="M425.272,637.871h70.866v70.866h-70.866V637.871z"/>
<path fill="none" stroke="#000000" stroke-width="0.15" d="M425.272,567.005h70.866v70.866h-70.866V567.005z"/>
<path fill="none" stroke="#000000" stroke-width="0.15" d="M425.272,496.139h70.866v70.866h-70.866V496.139z"/>
<path fill="none" stroke="#000000" stroke-width="0.15" d="M354.406,637.871h70.866v70.866h-70.866V637.871z"/>
<path fill="none" stroke="#000000" stroke-width="0.15" d="M212.674,637.871h70.866v70.866h-70.866L212.674,637.871z"/>
<path fill="none" stroke="#000000" stroke-width="0.15" d="M141.808,637.871h70.866v70.866h-70.866V637.871z"/>
<path fill="none" stroke="#000000" stroke-width="0.15" d="M283.54,637.871h70.866v70.866H283.54V637.871z"/>
<path fill="none" stroke="#000000" stroke-width="0.15" d="M425.272,141.808h70.866v70.866h-70.866V141.808z"/>
<path fill="none" stroke="#000000" stroke-width="0.15" d="M425.272,425.272h70.866v70.866h-70.866V425.272z"/>
<path fill="none" stroke="#000000" stroke-width="0.15" d="M425.272,212.674h70.866v70.866h-70.866V212.674z"/>
<path fill="none" stroke="#000000" stroke-width="0.15" d="M425.272,354.406h70.866v70.866h-70.866V354.406z"/>
<path fill="none" stroke="#000000" stroke-width="0.15" d="M425.272,283.54h70.866v70.866h-70.866V283.54z"/>
<path fill="none" stroke="#000000" stroke-width="0.15" d="M496.139,70.941h70.866v70.866h-70.866V70.941z"/>
<path fill="none" stroke="#000000" stroke-width="0.15" d="M496.139,637.871h70.866v70.866h-70.866V637.871z"/>
<path fill="none" stroke="#000000" stroke-width="0.15" d="M496.139,567.005h70.866v70.866h-70.866V567.005z"/>
<path fill="none" stroke="#000000" stroke-width="0.15" d="M496.139,496.139h70.866v70.866h-70.866V496.139z"/>
<path fill="none" stroke="#000000" stroke-width="0.15" d="M496.139,141.808h70.866v70.866h-70.866V141.808z"/>
<path fill="none" stroke="#000000" stroke-width="0.15" d="M496.139,425.272h70.866v70.866h-70.866V425.272z"/>
<path fill="none" stroke="#000000" stroke-width="0.15" d="M496.139,212.674h70.866v70.866h-70.866V212.674z"/>
<path fill="none" stroke="#000000" stroke-width="0.15" d="M496.139,354.406h70.866v70.866h-70.866V354.406z"/>
<path fill="none" stroke="#000000" stroke-width="0.15" d="M496.139,283.54h70.866v70.866h-70.866V283.54z"/>
<path fill="none" stroke="#000000" stroke-width="0.15" d="M70.941,637.871h70.866v70.866H70.941V637.871z"/>
<path fill="none" stroke="#000000" stroke-width="0.15" d="M425.272,708.737h70.866v70.866h-70.866V708.737z"/>
<path fill="none" stroke="#000000" stroke-width="0.15" d="M354.406,708.737h70.866v70.866h-70.866V708.737z"/>
<path fill="none" stroke="#000000" stroke-width="0.15" d="M212.674,708.737h70.866v70.866h-70.866L212.674,708.737z"/>
<path fill="none" stroke="#000000" stroke-width="0.15" d="M141.808,708.737h70.866v70.866h-70.866V708.737z"/>
<path fill="none" stroke="#000000" stroke-width="0.15" d="M283.54,708.737h70.866v70.866H283.54V708.737z"/>
<path fill="none" stroke="#000000" stroke-width="0.15" d="M496.139,708.737h70.866v70.866h-70.866V708.737z"/>
<path fill="none" stroke="#000000" stroke-width="0.15" d="M70.941,708.737h70.866v70.866H70.941V708.737z"/>
<path fill="none" stroke="#000000" stroke-width="0.15" d="M141.808,70.941h70.866v70.866h-70.866V70.941z"/>
<path fill="none" stroke="#000000" stroke-width="0.15" d="M70.941,70.941h70.866v70.866H70.941V70.941z"/>
<path fill="none" stroke="#000000" stroke-width="0.15" d="M212.674,70.941h70.866v70.866h-70.866L212.674,70.941z"/>
<path fill="none" stroke="#000000" stroke-width="0.15" d="M283.54,70.941h70.866v70.866H283.54V70.941z"/>
<path fill="none" stroke="#000000" stroke-width="0.15" d="M70.941,141.808h70.866v70.866H70.941V141.808z"/>
<path fill="none" stroke="#000000" stroke-width="0.15" d="M354.406,70.941h70.866v70.866h-70.866V70.941z"/>
<path fill="none" stroke="#000000" stroke-width="0.15" d="M70.941,425.272h70.866v70.866H70.941V425.272z"/>
<path fill="none" stroke="#000000" stroke-width="0.15" d="M70.941,212.674h70.866v70.866H70.941V212.674z"/>
<path fill="none" stroke="#000000" stroke-width="0.15" d="M70.941,496.139h70.866v70.866H70.941V496.139z"/>
<path fill="none" stroke="#000000" stroke-width="0.15" d="M70.941,567.005h70.866v70.866H70.941V567.005z"/>
<path fill="none" stroke="#000000" stroke-width="0.15" d="M354.406,141.808h70.866v70.866h-70.866V141.808z"/>
<path fill="none" stroke="#000000" stroke-width="0.15" d="M70.941,354.406h70.866v70.866H70.941V354.406z"/>
<path fill="none" stroke="#000000" stroke-width="0.15" d="M70.941,283.54h70.866v70.866H70.941V283.54z"/>
<path fill="none" stroke="#000000" stroke-width="0.15" d="M0.075,637.871h70.866v70.866H0.075V637.871z"/>
<path fill="none" stroke="#000000" stroke-width="0.15" d="M0.075,708.737h70.866v70.866H0.075V708.737z"/>
<path fill="none" stroke="#000000" stroke-width="0.15" d="M0.075,70.941h70.866v70.866H0.075V70.941z"/>
<path fill="none" stroke="#000000" stroke-width="0.15" d="M425.272,0.075h70.866v70.866h-70.866V0.075z"/>
<path fill="none" stroke="#000000" stroke-width="0.15" d="M496.139,0.075h70.866v70.866h-70.866V0.075z"/>
<path fill="none" stroke="#000000" stroke-width="0.15" d="M141.808,0.075h70.866v70.866h-70.866V0.075z"/>
<path fill="none" stroke="#000000" stroke-width="0.15" d="M70.941,0.075h70.866v70.866H70.941V0.075z"/>
<path fill="none" stroke="#000000" stroke-width="0.15" d="M212.674,0.075h70.866v70.866h-70.866L212.674,0.075z"/>
<path fill="none" stroke="#000000" stroke-width="0.15" d="M283.54,0.075h70.866v70.866H283.54V0.075z"/>
<path fill="none" stroke="#000000" stroke-width="0.15" d="M354.406,0.075h70.866v70.866h-70.866V0.075z"/>
<path fill="none" stroke="#000000" stroke-width="0.15" d="M0.075,0.075h70.866v70.866H0.075V0.075z"/>
<path fill="none" stroke="#000000" stroke-width="0.15" d="M0.075,141.808h70.866v70.866H0.075V141.808z"/>
<path fill="none" stroke="#000000" stroke-width="0.15" d="M0.075,425.272h70.866v70.866H0.075V425.272z"/>
<path fill="none" stroke="#000000" stroke-width="0.15" d="M0.075,212.674h70.866v70.866H0.075V212.674z"/>
<path fill="none" stroke="#000000" stroke-width="0.15" d="M0.075,496.139h70.866v70.866H0.075V496.139z"/>
<path fill="none" stroke="#000000" stroke-width="0.15" d="M0.075,567.005h70.866v70.866H0.075V567.005z"/>
<path fill="none" stroke="#000000" stroke-width="0.15" d="M0.075,354.406h70.866v70.866H0.075V354.406z"/>
<path fill="none" stroke="#000000" stroke-width="0.15" d="M0.075,283.54h70.866v70.866H0.075V283.54z"/>
</svg>
