<?xml version="1.0" encoding="utf-8"?>
<!-- Generator: Adobe Illustrator 21.0.2, SVG Export Plug-In . SVG Version: 6.00 Build 0)  -->
<svg version="1.1" baseProfile="tiny" id="Ebene_1" xmlns="http://www.w3.org/2000/svg" xmlns:xlink="http://www.w3.org/1999/xlink"
	 x="0px" y="0px" viewBox="0 0 720.15 864.15" xml:space="preserve">
<path fill="none" stroke="#000000" stroke-width="0.15" d="M144.075,144.075h144v144h-144L144.075,144.075z"/>
<path fill="none" stroke="#000000" stroke-width="0.15" d="M144.075,288.075h144v144h-144L144.075,288.075z"/>
<path fill="none" stroke="#000000" stroke-width="0.15" d="M288.075,288.075h144v144h-144V288.075z"/>
<path fill="none" stroke="#000000" stroke-width="0.15" d="M432.075,144.075h144v144h-144V144.075z"/>
<path fill="none" stroke="#000000" stroke-width="0.15" d="M288.075,432.075h144v144h-144V432.075z"/>
<path fill="none" stroke="#000000" stroke-width="0.15" d="M144.075,432.075h144v144h-144L144.075,432.075z"/>
<path fill="none" stroke="#000000" stroke-width="0.15" d="M288.075,144.075h144v144h-144V144.075z"/>
<path fill="none" stroke="#000000" stroke-width="0.15" d="M432.075,288.075h144v144h-144V288.075z"/>
<path fill="none" stroke="#000000" stroke-width="0.15" d="M144.075,576.075h144v144h-144L144.075,576.075z"/>
<path fill="none" stroke="#000000" stroke-width="0.15" d="M432.075,432.075h144v144h-144V432.075z"/>
<path fill="none" stroke="#000000" stroke-width="0.15" d="M432.075,576.075h144v144h-144V576.075z"/>
<path fill="none" stroke="#000000" stroke-width="0.15" d="M576.075,144.075h144v144h-144V144.075z"/>
<path fill="none" stroke="#000000" stroke-width="0.15" d="M576.075,288.075h144v144h-144V288.075z"/>
<path fill="none" stroke="#000000" stroke-width="0.15" d="M576.075,432.075h144v144h-144V432.075z"/>
<path fill="none" stroke="#000000" stroke-width="0.15" d="M576.075,576.075h144v144h-144V576.075z"/>
<path fill="none" stroke="#000000" stroke-width="0.15" d="M288.075,576.075h144v144h-144V576.075z"/>
<path fill="none" stroke="#000000" stroke-width="0.15" d="M144.075,720.075h144v144h-144L144.075,720.075z"/>
<path fill="none" stroke="#000000" stroke-width="0.15" d="M0.075,144.075h144v144h-144L0.075,144.075z"/>
<path fill="none" stroke="#000000" stroke-width="0.15" d="M144.075,0.075h144v144h-144L144.075,0.075z"/>
<path fill="none" stroke="#000000" stroke-width="0.15" d="M432.075,0.075h144v144h-144V0.075z"/>
<path fill="none" stroke="#000000" stroke-width="0.15" d="M288.075,0.075h144v144h-144V0.075z"/>
<path fill="none" stroke="#000000" stroke-width="0.15" d="M576.075,0.075h144v144h-144V0.075z"/>
<path fill="none" stroke="#000000" stroke-width="0.15" d="M0.075,0.075h144v144h-144L0.075,0.075z"/>
<path fill="none" stroke="#000000" stroke-width="0.15" d="M0.075,288.075h144v144h-144L0.075,288.075z"/>
<path fill="none" stroke="#000000" stroke-width="0.15" d="M0.075,432.075h144v144h-144L0.075,432.075z"/>
<path fill="none" stroke="#000000" stroke-width="0.15" d="M0.075,576.075h144v144h-144L0.075,576.075z"/>
<path fill="none" stroke="#000000" stroke-width="0.15" d="M0.075,720.075h144v144h-144L0.075,720.075z"/>
<path fill="none" stroke="#000000" stroke-width="0.15" d="M432.075,720.075h144v144h-144V720.075z"/>
<path fill="none" stroke="#000000" stroke-width="0.15" d="M576.075,720.075h144v144h-144V720.075z"/>
<path fill="none" stroke="#000000" stroke-width="0.15" d="M288.075,720.075h144v144h-144V720.075z"/>
</svg>
