<?xml version="1.0" encoding="utf-8"?>
<!-- Generator: Adobe Illustrator 21.0.2, SVG Export Plug-In . SVG Version: 6.00 Build 0)  -->
<svg version="1.1" baseProfile="tiny" id="Ebene_1" xmlns="http://www.w3.org/2000/svg" xmlns:xlink="http://www.w3.org/1999/xlink"
	 x="0px" y="0px" viewBox="0 0 864.15 1152.15" xml:space="preserve">
<path fill="none" stroke="#000000" stroke-width="0.15" d="M288.075,288.075h288v288h-288V288.075z"/>
<path fill="none" stroke="#000000" stroke-width="0.15" d="M288.075,576.075h288v288h-288V576.075z"/>
<path fill="none" stroke="#000000" stroke-width="0.15" d="M576.075,288.075h288v288h-288V288.075z"/>
<path fill="none" stroke="#000000" stroke-width="0.15" d="M576.075,576.075h288v288h-288V576.075z"/>
<path fill="none" stroke="#000000" stroke-width="0.15" d="M288.075,864.075h288v288h-288V864.075z"/>
<path fill="none" stroke="#000000" stroke-width="0.15" d="M576.075,864.075h288v288h-288V864.075z"/>
<path fill="none" stroke="#000000" stroke-width="0.15" d="M0.075,288.075h288v288h-288L0.075,288.075z"/>
<path fill="none" stroke="#000000" stroke-width="0.15" d="M288.075,0.075h288v288h-288V0.075z"/>
<path fill="none" stroke="#000000" stroke-width="0.15" d="M576.075,0.075h288v288h-288V0.075z"/>
<path fill="none" stroke="#000000" stroke-width="0.15" d="M0.075,0.075h288v288h-288L0.075,0.075z"/>
<path fill="none" stroke="#000000" stroke-width="0.15" d="M0.075,576.075h288v288h-288L0.075,576.075z"/>
<path fill="none" stroke="#000000" stroke-width="0.15" d="M0.075,864.075h288v288h-288L0.075,864.075z"/>
</svg>
