<?xml version="1.0" encoding="utf-8"?>
<!-- Generator: Adobe Illustrator 21.0.2, SVG Export Plug-In . SVG Version: 6.00 Build 0)  -->
<svg version="1.1" baseProfile="tiny" id="Ebene_1" xmlns="http://www.w3.org/2000/svg" xmlns:xlink="http://www.w3.org/1999/xlink"
	 x="0px" y="0px" viewBox="0 0 499.048 670.95" xml:space="preserve">
<path fill="none" stroke="#000000" stroke-width="0.15" stroke-miterlimit="3.239" d="M150.239,135.03h24.186v41.788h-24.186V135.03
	z"/>
<path fill="none" stroke="#000000" stroke-width="0.15" stroke-miterlimit="3.239" d="M150.239,102.6h24.186v32.431h-24.186V102.6z"
	/>
<path fill="none" stroke="#000000" stroke-width="0.15" stroke-miterlimit="3.239" d="M150.239,235.685h24.186v100.702h-24.186
	V235.685z"/>
<path fill="none" stroke="#000000" stroke-width="0.15" stroke-miterlimit="3.239" d="M150.239,176.818h24.186v58.866h-24.186
	V176.818z"/>
<path fill="none" stroke="#000000" stroke-width="0.15" stroke-miterlimit="3.239" d="M150.239,76.117h24.186V102.6h-24.186V76.117z
	"/>
<path fill="none" stroke="#000000" stroke-width="0.15" stroke-miterlimit="3.239" d="M225.337,76.117h12.774V102.6h-12.774V76.117z
	"/>
<path fill="none" stroke="#000000" stroke-width="0.15" stroke-miterlimit="3.239" d="M210.883,76.117h14.454V102.6h-14.454V76.117z
	"/>
<path fill="none" stroke="#000000" stroke-width="0.15" stroke-miterlimit="3.239" d="M174.424,76.117h19.75V102.6h-19.75V76.117z"
	/>
<path fill="none" stroke="#000000" stroke-width="0.15" stroke-miterlimit="3.239" d="M194.175,76.117h16.708V102.6h-16.708
	L194.175,76.117z"/>
<path fill="none" stroke="#000000" stroke-width="0.15" stroke-miterlimit="3.239" d="M150.239,336.386h24.186v15.306h-24.186
	V336.386z"/>
<path fill="none" stroke="#000000" stroke-width="0.15" stroke-miterlimit="3.239" d="M150.239,437.087h24.186v32.431h-24.186
	V437.087z"/>
<path fill="none" stroke="#000000" stroke-width="0.15" stroke-miterlimit="3.239" d="M194.175,437.087h16.708v32.431h-16.708
	L194.175,437.087z"/>
<path fill="none" stroke="#000000" stroke-width="0.15" stroke-miterlimit="3.239" d="M210.883,437.087h14.454v32.431h-14.454
	V437.087z"/>
<path fill="none" stroke="#000000" stroke-width="0.15" stroke-miterlimit="3.239" d="M174.424,437.087h19.75v32.431h-19.75V437.087
	z"/>
<path fill="none" stroke="#000000" stroke-width="0.15" stroke-miterlimit="3.239" d="M150.239,368.82h24.186v19.38h-24.186V368.82z
	"/>
<path fill="none" stroke="#000000" stroke-width="0.15" stroke-miterlimit="3.239" d="M150.239,351.692h24.186v17.128h-24.186
	V351.692z"/>
<path fill="none" stroke="#000000" stroke-width="0.15" stroke-miterlimit="3.239" d="M150.239,410.605h24.186v26.482h-24.186
	V410.605z"/>
<path fill="none" stroke="#000000" stroke-width="0.15" stroke-miterlimit="3.239" d="M150.239,388.2h24.186v22.405h-24.186V388.2z"
	/>
<path fill="none" stroke="#000000" stroke-width="0.15" stroke-miterlimit="3.239" d="M423.873,410.605h19.751v26.482h-19.751
	V410.605z"/>
<path fill="none" stroke="#000000" stroke-width="0.15" stroke-miterlimit="3.239" d="M423.873,368.82h19.751v19.38h-19.751V368.82z
	"/>
<path fill="none" stroke="#000000" stroke-width="0.15" stroke-miterlimit="3.239" d="M238.111,410.605h11.413v26.482h-11.413
	V410.605z"/>
<path fill="none" stroke="#000000" stroke-width="0.15" stroke-miterlimit="3.239" d="M225.337,437.087h12.774v32.431h-12.774
	V437.087z"/>
<path fill="none" stroke="#000000" stroke-width="0.15" stroke-miterlimit="3.239" d="M423.873,351.692h19.751v17.128h-19.751
	V351.692z"/>
<path fill="none" stroke="#000000" stroke-width="0.15" stroke-miterlimit="3.239" d="M423.873,388.2h19.751v22.405h-19.751V388.2z"
	/>
<path fill="none" stroke="#000000" stroke-width="0.15" stroke-miterlimit="3.239" d="M324.623,410.605h43.901v26.482h-43.901
	V410.605z"/>
<path fill="none" stroke="#000000" stroke-width="0.15" stroke-miterlimit="3.239" d="M399.688,410.605h24.186v26.482h-24.186
	V410.605z"/>
<path fill="none" stroke="#000000" stroke-width="0.15" stroke-miterlimit="3.239" d="M249.524,410.605h75.099v26.482h-75.099
	L249.524,410.605z"/>
<path fill="none" stroke="#000000" stroke-width="0.15" stroke-miterlimit="3.239" d="M368.524,410.605h31.163v26.482h-31.163
	V410.605z"/>
<path fill="none" stroke="#000000" stroke-width="0.15" stroke-miterlimit="3.239" d="M423.873,235.685h19.751v100.702h-19.751
	V235.685z"/>
<path fill="none" stroke="#000000" stroke-width="0.15" stroke-miterlimit="3.239" d="M324.623,76.117h43.901V102.6h-43.901V76.117z
	"/>
<path fill="none" stroke="#000000" stroke-width="0.15" stroke-miterlimit="3.239" d="M238.111,76.117h11.413V102.6h-11.413V76.117z
	"/>
<path fill="none" stroke="#000000" stroke-width="0.15" stroke-miterlimit="3.239" d="M368.524,76.117h31.163V102.6h-31.163V76.117z
	"/>
<path fill="none" stroke="#000000" stroke-width="0.15" stroke-miterlimit="3.239" d="M249.524,76.117h75.099V102.6h-75.099
	L249.524,76.117z"/>
<path fill="none" stroke="#000000" stroke-width="0.15" stroke-miterlimit="3.239" d="M399.688,76.117h24.186V102.6h-24.186V76.117z
	"/>
<path fill="none" stroke="#000000" stroke-width="0.15" stroke-miterlimit="3.239" d="M423.873,76.117h19.751V102.6h-19.751V76.117z
	"/>
<path fill="none" stroke="#000000" stroke-width="0.15" stroke-miterlimit="3.239" d="M423.873,135.03h19.751v41.788h-19.751V135.03
	z"/>
<path fill="none" stroke="#000000" stroke-width="0.15" stroke-miterlimit="3.239" d="M423.873,176.818h19.751v58.866h-19.751
	V176.818z"/>
<path fill="none" stroke="#000000" stroke-width="0.15" stroke-miterlimit="3.239" d="M423.873,102.6h19.751v32.431h-19.751V102.6z"
	/>
<path fill="none" stroke="#000000" stroke-width="0.15" stroke-miterlimit="3.239" d="M423.873,336.386h19.751v15.306h-19.751
	V336.386z"/>
<path fill="none" stroke="#000000" stroke-width="0.15" stroke-miterlimit="3.239" d="M194.175,53.711h16.708v22.405h-16.708
	L194.175,53.711z"/>
<path fill="none" stroke="#000000" stroke-width="0.15" stroke-miterlimit="3.239" d="M399.688,53.711h24.186v22.405h-24.186V53.711
	z"/>
<path fill="none" stroke="#000000" stroke-width="0.15" stroke-miterlimit="3.239" d="M225.337,53.711h12.774v22.405h-12.774V53.711
	z"/>
<path fill="none" stroke="#000000" stroke-width="0.15" stroke-miterlimit="3.239" d="M174.424,53.711h19.75v22.405h-19.75V53.711z"
	/>
<path fill="none" stroke="#000000" stroke-width="0.15" stroke-miterlimit="3.239" d="M249.524,53.711h75.099v22.405h-75.099
	L249.524,53.711z"/>
<path fill="none" stroke="#000000" stroke-width="0.15" stroke-miterlimit="3.239" d="M368.524,53.711h31.163v22.405h-31.163V53.711
	z"/>
<path fill="none" stroke="#000000" stroke-width="0.15" stroke-miterlimit="3.239" d="M324.623,53.711h43.901v22.405h-43.901V53.711
	z"/>
<path fill="none" stroke="#000000" stroke-width="0.15" stroke-miterlimit="3.239" d="M150.239,53.711h24.186v22.405h-24.186V53.711
	z"/>
<path fill="none" stroke="#000000" stroke-width="0.15" stroke-miterlimit="3.239" d="M238.111,437.087h11.413v32.431h-11.413
	V437.087z"/>
<path fill="none" stroke="#000000" stroke-width="0.15" stroke-miterlimit="3.239" d="M210.883,53.711h14.454v22.405h-14.454V53.711
	z"/>
<path fill="none" stroke="#000000" stroke-width="0.15" stroke-miterlimit="3.239" d="M119.075,176.818h31.164v58.866h-31.164
	V176.818z"/>
<path fill="none" stroke="#000000" stroke-width="0.15" stroke-miterlimit="3.239" d="M119.075,235.685h31.164v100.702h-31.164
	V235.685z"/>
<path fill="none" stroke="#000000" stroke-width="0.15" stroke-miterlimit="3.239" d="M119.075,53.711h31.164v22.405h-31.164V53.711
	z"/>
<path fill="none" stroke="#000000" stroke-width="0.15" stroke-miterlimit="3.239" d="M119.075,351.692h31.164v17.128h-31.164
	V351.692z"/>
<path fill="none" stroke="#000000" stroke-width="0.15" stroke-miterlimit="3.239" d="M119.075,336.386h31.164v15.306h-31.164
	V336.386z"/>
<path fill="none" stroke="#000000" stroke-width="0.15" stroke-miterlimit="3.239" d="M119.075,76.117h31.164V102.6h-31.164V76.117z
	"/>
<path fill="none" stroke="#000000" stroke-width="0.15" stroke-miterlimit="3.239" d="M119.075,135.03h31.164v41.788h-31.164V135.03
	z"/>
<path fill="none" stroke="#000000" stroke-width="0.15" stroke-miterlimit="3.239" d="M119.075,102.6h31.164v32.431h-31.164V102.6z"
	/>
<path fill="none" stroke="#000000" stroke-width="0.15" stroke-miterlimit="3.239" d="M238.111,53.711h11.413v22.405h-11.413V53.711
	z"/>
<path fill="none" stroke="#000000" stroke-width="0.15" stroke-miterlimit="3.239" d="M443.624,437.087h16.708v32.431h-16.708
	V437.087z"/>
<path fill="none" stroke="#000000" stroke-width="0.15" stroke-miterlimit="3.239" d="M423.873,53.711h19.751v22.405h-19.751V53.711
	z"/>
<path fill="none" stroke="#000000" stroke-width="0.15" stroke-miterlimit="3.239" d="M443.624,410.605h16.708v26.482h-16.708
	V410.605z"/>
<path fill="none" stroke="#000000" stroke-width="0.15" stroke-miterlimit="3.239" d="M443.624,388.2h16.708v22.405h-16.708V388.2z"
	/>
<path fill="none" stroke="#000000" stroke-width="0.15" stroke-miterlimit="3.239" d="M399.688,437.087h24.186v32.431h-24.186
	V437.087z"/>
<path fill="none" stroke="#000000" stroke-width="0.15" stroke-miterlimit="3.239" d="M324.623,437.087h43.901v32.431h-43.901
	V437.087z"/>
<path fill="none" stroke="#000000" stroke-width="0.15" stroke-miterlimit="3.239" d="M249.524,437.087h75.099v32.431h-75.099
	L249.524,437.087z"/>
<path fill="none" stroke="#000000" stroke-width="0.15" stroke-miterlimit="3.239" d="M368.524,437.087h31.163v32.431h-31.163
	V437.087z"/>
<path fill="none" stroke="#000000" stroke-width="0.15" stroke-miterlimit="3.239" d="M443.624,368.82h16.708v19.38h-16.708V368.82z
	"/>
<path fill="none" stroke="#000000" stroke-width="0.15" stroke-miterlimit="3.239" d="M423.873,437.087h19.751v32.431h-19.751
	V437.087z"/>
<path fill="none" stroke="#000000" stroke-width="0.15" stroke-miterlimit="3.239" d="M443.624,102.6h16.708v32.431h-16.708V102.6z"
	/>
<path fill="none" stroke="#000000" stroke-width="0.15" stroke-miterlimit="3.239" d="M443.624,135.03h16.708v41.788h-16.708V135.03
	z"/>
<path fill="none" stroke="#000000" stroke-width="0.15" stroke-miterlimit="3.239" d="M443.624,76.117h16.708V102.6h-16.708V76.117z
	"/>
<path fill="none" stroke="#000000" stroke-width="0.15" stroke-miterlimit="3.239" d="M443.624,53.711h16.708v22.405h-16.708V53.711
	z"/>
<path fill="none" stroke="#000000" stroke-width="0.15" stroke-miterlimit="3.239" d="M443.624,351.692h16.708v17.128h-16.708
	V351.692z"/>
<path fill="none" stroke="#000000" stroke-width="0.15" stroke-miterlimit="3.239" d="M443.624,336.386h16.708v15.306h-16.708
	V336.386z"/>
<path fill="none" stroke="#000000" stroke-width="0.15" stroke-miterlimit="3.239" d="M443.624,176.818h16.708v58.866h-16.708
	V176.818z"/>
<path fill="none" stroke="#000000" stroke-width="0.15" stroke-miterlimit="3.239" d="M443.624,235.685h16.708v100.702h-16.708
	V235.685z"/>
<path fill="none" stroke="#000000" stroke-width="0.15" stroke-miterlimit="3.239" d="M368.524,336.386h31.163v15.306h-31.163
	V336.386z"/>
<path fill="none" stroke="#000000" stroke-width="0.15" stroke-miterlimit="3.239" d="M119.075,368.82h31.164v19.38h-31.164V368.82z
	"/>
<path fill="none" stroke="#000000" stroke-width="0.15" stroke-miterlimit="3.239" d="M324.623,368.82h43.901v19.38h-43.901V368.82z
	"/>
<path fill="none" stroke="#000000" stroke-width="0.15" stroke-miterlimit="3.239" d="M368.524,351.692h31.163v17.128h-31.163
	V351.692z"/>
<path fill="none" stroke="#000000" stroke-width="0.15" stroke-miterlimit="3.239" d="M249.524,368.82h75.099v19.38h-75.099
	L249.524,368.82z"/>
<path fill="none" stroke="#000000" stroke-width="0.15" stroke-miterlimit="3.239" d="M368.524,368.82h31.163v19.38h-31.163V368.82z
	"/>
<path fill="none" stroke="#000000" stroke-width="0.15" stroke-miterlimit="3.239" d="M238.111,368.82h11.413v19.38h-11.413V368.82z
	"/>
<path fill="none" stroke="#000000" stroke-width="0.15" stroke-miterlimit="3.239" d="M210.883,351.692h14.454v17.128h-14.454
	V351.692z"/>
<path fill="none" stroke="#000000" stroke-width="0.15" stroke-miterlimit="3.239" d="M210.883,368.82h14.454v19.38h-14.454V368.82z
	"/>
<path fill="none" stroke="#000000" stroke-width="0.15" stroke-miterlimit="3.239" d="M225.337,368.82h12.774v19.38h-12.774V368.82z
	"/>
<path fill="none" stroke="#000000" stroke-width="0.15" stroke-miterlimit="3.239" d="M238.111,135.03h11.413v41.788h-11.413V135.03
	z"/>
<path fill="none" stroke="#000000" stroke-width="0.15" stroke-miterlimit="3.239" d="M210.883,336.386h14.454v15.306h-14.454
	V336.386z"/>
<path fill="none" stroke="#000000" stroke-width="0.15" stroke-miterlimit="3.239" d="M210.883,135.03h14.454v41.788h-14.454V135.03
	z"/>
<path fill="none" stroke="#000000" stroke-width="0.15" stroke-miterlimit="3.239" d="M225.337,135.03h12.774v41.788h-12.774V135.03
	z"/>
<path fill="none" stroke="#000000" stroke-width="0.15" stroke-miterlimit="3.239" d="M368.524,235.685h31.163v100.702h-31.163
	V235.685z"/>
<path fill="none" stroke="#000000" stroke-width="0.15" stroke-miterlimit="3.239" d="M194.175,135.03h16.708v41.788h-16.708
	L194.175,135.03z"/>
<path fill="none" stroke="#000000" stroke-width="0.15" stroke-miterlimit="3.239" d="M368.524,176.818h31.163v58.866h-31.163
	V176.818z"/>
<path fill="none" stroke="#000000" stroke-width="0.15" stroke-miterlimit="3.239" d="M368.524,135.03h31.163v41.788h-31.163V135.03
	z"/>
<path fill="none" stroke="#000000" stroke-width="0.15" stroke-miterlimit="3.239" d="M324.623,135.03h43.901v41.788h-43.901V135.03
	z"/>
<path fill="none" stroke="#000000" stroke-width="0.15" stroke-miterlimit="3.239" d="M249.524,135.03h75.099v41.788h-75.099
	L249.524,135.03z"/>
<path fill="none" stroke="#000000" stroke-width="0.15" stroke-miterlimit="3.239" d="M225.337,351.692h12.774v17.128h-12.774
	V351.692z"/>
<path fill="none" stroke="#000000" stroke-width="0.15" stroke-miterlimit="3.239" d="M225.337,336.386h12.774v15.306h-12.774
	V336.386z"/>
<path fill="none" stroke="#000000" stroke-width="0.15" stroke-miterlimit="3.239" d="M194.175,176.818h16.708v58.866h-16.708
	L194.175,176.818z"/>
<path fill="none" stroke="#000000" stroke-width="0.15" stroke-miterlimit="3.239" d="M225.337,235.685h12.774v100.702h-12.774
	V235.685z"/>
<path fill="none" stroke="#000000" stroke-width="0.15" stroke-miterlimit="3.239" d="M238.111,351.692h11.413v17.128h-11.413
	V351.692z"/>
<path fill="none" stroke="#000000" stroke-width="0.15" stroke-miterlimit="3.239" d="M249.524,336.386h75.099v15.306h-75.099
	L249.524,336.386z"/>
<path fill="none" stroke="#000000" stroke-width="0.15" stroke-miterlimit="3.239" d="M249.524,351.692h75.099v17.128h-75.099
	L249.524,351.692z"/>
<path fill="none" stroke="#000000" stroke-width="0.15" stroke-miterlimit="3.239" d="M238.111,336.386h11.413v15.306h-11.413
	V336.386z"/>
<path fill="none" stroke="#000000" stroke-width="0.15" stroke-miterlimit="3.239" d="M249.524,235.685h75.099v100.702h-75.099
	L249.524,235.685z"/>
<path fill="none" stroke="#000000" stroke-width="0.15" stroke-miterlimit="3.239" d="M238.111,235.685h11.413v100.702h-11.413
	V235.685z"/>
<path fill="none" stroke="#000000" stroke-width="0.15" stroke-miterlimit="3.239" d="M238.111,176.818h11.413v58.866h-11.413
	V176.818z"/>
<path fill="none" stroke="#000000" stroke-width="0.15" stroke-miterlimit="3.239" d="M324.623,351.692h43.901v17.128h-43.901
	V351.692z"/>
<path fill="none" stroke="#000000" stroke-width="0.15" stroke-miterlimit="3.239" d="M210.883,235.685h14.454v100.702h-14.454
	V235.685z"/>
<path fill="none" stroke="#000000" stroke-width="0.15" stroke-miterlimit="3.239" d="M210.883,176.818h14.454v58.866h-14.454
	V176.818z"/>
<path fill="none" stroke="#000000" stroke-width="0.15" stroke-miterlimit="3.239" d="M249.524,176.818h75.099v58.866h-75.099
	L249.524,176.818z"/>
<path fill="none" stroke="#000000" stroke-width="0.15" stroke-miterlimit="3.239" d="M225.337,176.818h12.774v58.866h-12.774
	V176.818z"/>
<path fill="none" stroke="#000000" stroke-width="0.15" stroke-miterlimit="3.239" d="M324.623,176.818h43.901v58.866h-43.901
	V176.818z"/>
<path fill="none" stroke="#000000" stroke-width="0.15" stroke-miterlimit="3.239" d="M324.623,336.386h43.901v15.306h-43.901
	V336.386z"/>
<path fill="none" stroke="#000000" stroke-width="0.15" stroke-miterlimit="3.239" d="M324.623,235.685h43.901v100.702h-43.901
	V235.685z"/>
<path fill="none" stroke="#000000" stroke-width="0.15" stroke-miterlimit="3.239" d="M368.524,102.6h31.163v32.431h-31.163V102.6z"
	/>
<path fill="none" stroke="#000000" stroke-width="0.15" stroke-miterlimit="3.239" d="M174.424,102.6h19.75v32.431h-19.75V102.6z"/>
<path fill="none" stroke="#000000" stroke-width="0.15" stroke-miterlimit="3.239" d="M194.175,102.6h16.708v32.431h-16.708
	L194.175,102.6z"/>
<path fill="none" stroke="#000000" stroke-width="0.15" stroke-miterlimit="3.239" d="M174.424,135.03h19.75v41.788h-19.75V135.03z"
	/>
<path fill="none" stroke="#000000" stroke-width="0.15" stroke-miterlimit="3.239" d="M210.883,102.6h14.454v32.431h-14.454V102.6z"
	/>
<path fill="none" stroke="#000000" stroke-width="0.15" stroke-miterlimit="3.239" d="M324.623,102.6h43.901v32.431h-43.901V102.6z"
	/>
<path fill="none" stroke="#000000" stroke-width="0.15" stroke-miterlimit="3.239" d="M194.175,235.685h16.708v100.702h-16.708
	L194.175,235.685z"/>
<path fill="none" stroke="#000000" stroke-width="0.15" stroke-miterlimit="3.239" d="M174.424,176.818h19.75v58.866h-19.75V176.818
	z"/>
<path fill="none" stroke="#000000" stroke-width="0.15" stroke-miterlimit="3.239" d="M225.337,410.605h12.774v26.482h-12.774
	V410.605z"/>
<path fill="none" stroke="#000000" stroke-width="0.15" stroke-miterlimit="3.239" d="M238.111,102.6h11.413v32.431h-11.413V102.6z"
	/>
<path fill="none" stroke="#000000" stroke-width="0.15" stroke-miterlimit="3.239" d="M249.524,102.6h75.099v32.431h-75.099
	L249.524,102.6z"/>
<path fill="none" stroke="#000000" stroke-width="0.15" stroke-miterlimit="3.239" d="M174.424,388.2h19.75v22.405h-19.75V388.2z"/>
<path fill="none" stroke="#000000" stroke-width="0.15" stroke-miterlimit="3.239" d="M174.424,235.685h19.75v100.702h-19.75
	V235.685z"/>
<path fill="none" stroke="#000000" stroke-width="0.15" stroke-miterlimit="3.239" d="M174.424,410.605h19.75v26.482h-19.75V410.605
	z"/>
<path fill="none" stroke="#000000" stroke-width="0.15" stroke-miterlimit="3.239" d="M210.883,410.605h14.454v26.482h-14.454
	V410.605z"/>
<path fill="none" stroke="#000000" stroke-width="0.15" stroke-miterlimit="3.239" d="M194.175,410.605h16.708v26.482h-16.708
	L194.175,410.605z"/>
<path fill="none" stroke="#000000" stroke-width="0.15" stroke-miterlimit="3.239" d="M174.424,336.386h19.75v15.306h-19.75V336.386
	z"/>
<path fill="none" stroke="#000000" stroke-width="0.15" stroke-miterlimit="3.239" d="M174.424,368.82h19.75v19.38h-19.75V368.82z"
	/>
<path fill="none" stroke="#000000" stroke-width="0.15" stroke-miterlimit="3.239" d="M174.424,351.692h19.75v17.128h-19.75V351.692
	z"/>
<path fill="none" stroke="#000000" stroke-width="0.15" stroke-miterlimit="3.239" d="M225.337,102.6h12.774v32.431h-12.774V102.6z"
	/>
<path fill="none" stroke="#000000" stroke-width="0.15" stroke-miterlimit="3.239" d="M225.337,388.2h12.774v22.405h-12.774V388.2z"
	/>
<path fill="none" stroke="#000000" stroke-width="0.15" stroke-miterlimit="3.239" d="M210.883,388.2h14.454v22.405h-14.454V388.2z"
	/>
<path fill="none" stroke="#000000" stroke-width="0.15" stroke-miterlimit="3.239" d="M399.688,102.6h24.186v32.431h-24.186V102.6z"
	/>
<path fill="none" stroke="#000000" stroke-width="0.15" stroke-miterlimit="3.239" d="M249.524,388.2h75.099v22.405h-75.099
	L249.524,388.2z"/>
<path fill="none" stroke="#000000" stroke-width="0.15" stroke-miterlimit="3.239" d="M194.175,388.2h16.708v22.405h-16.708
	L194.175,388.2z"/>
<path fill="none" stroke="#000000" stroke-width="0.15" stroke-miterlimit="3.239" d="M194.175,336.386h16.708v15.306h-16.708
	L194.175,336.386z"/>
<path fill="none" stroke="#000000" stroke-width="0.15" stroke-miterlimit="3.239" d="M194.175,351.692h16.708v17.128h-16.708
	L194.175,351.692z"/>
<path fill="none" stroke="#000000" stroke-width="0.15" stroke-miterlimit="3.239" d="M324.623,388.2h43.901v22.405h-43.901V388.2z"
	/>
<path fill="none" stroke="#000000" stroke-width="0.15" stroke-miterlimit="3.239" d="M194.175,368.82h16.708v19.38h-16.708
	L194.175,368.82z"/>
<path fill="none" stroke="#000000" stroke-width="0.15" stroke-miterlimit="3.239" d="M238.111,388.2h11.413v22.405h-11.413V388.2z"
	/>
<path fill="none" stroke="#000000" stroke-width="0.15" stroke-miterlimit="3.239" d="M368.524,388.2h31.163v22.405h-31.163V388.2z"
	/>
<path fill="none" stroke="#000000" stroke-width="0.15" stroke-miterlimit="3.239" d="M399.688,235.685h24.186v100.702h-24.186
	V235.685z"/>
<path fill="none" stroke="#000000" stroke-width="0.15" stroke-miterlimit="3.239" d="M399.688,336.386h24.186v15.306h-24.186
	V336.386z"/>
<path fill="none" stroke="#000000" stroke-width="0.15" stroke-miterlimit="3.239" d="M399.688,135.03h24.186v41.788h-24.186V135.03
	z"/>
<path fill="none" stroke="#000000" stroke-width="0.15" stroke-miterlimit="3.239" d="M399.688,176.818h24.186v58.866h-24.186
	V176.818z"/>
<path fill="none" stroke="#000000" stroke-width="0.15" stroke-miterlimit="3.239" d="M399.688,388.2h24.186v22.405h-24.186V388.2z"
	/>
<path fill="none" stroke="#000000" stroke-width="0.15" stroke-miterlimit="3.239" d="M399.688,368.82h24.186v19.38h-24.186V368.82z
	"/>
<path fill="none" stroke="#000000" stroke-width="0.15" stroke-miterlimit="3.239" d="M399.688,351.692h24.186v17.128h-24.186
	V351.692z"/>
<path fill="none" stroke="#000000" stroke-width="0.15" stroke-miterlimit="3.239" d="M460.332,76.117h14.454V102.6h-14.454V76.117z
	"/>
<path fill="none" stroke="#000000" stroke-width="0.15" stroke-miterlimit="3.239" d="M0.075,76.117h75.099V102.6H0.075V76.117z"/>
<path fill="none" stroke="#000000" stroke-width="0.15" stroke-miterlimit="3.239" d="M0.075,34.331h75.099v19.38H0.075V34.331z"/>
<path fill="none" stroke="#000000" stroke-width="0.15" stroke-miterlimit="3.239" d="M0.075,53.711h75.099v22.405H0.075V53.711z"/>
<path fill="none" stroke="#000000" stroke-width="0.15" stroke-miterlimit="3.239" d="M75.174,17.203h43.901v17.128H75.174V17.203z"
	/>
<path fill="none" stroke="#000000" stroke-width="0.15" stroke-miterlimit="3.239" d="M0.075,17.203h75.099v17.128H0.075V17.203z"/>
<path fill="none" stroke="#000000" stroke-width="0.15" stroke-miterlimit="3.239" d="M210.883,17.203h14.454v17.128h-14.454V17.203
	z"/>
<path fill="none" stroke="#000000" stroke-width="0.15" stroke-miterlimit="3.239" d="M119.075,17.203h31.164v17.128h-31.164V17.203
	z"/>
<path fill="none" stroke="#000000" stroke-width="0.15" stroke-miterlimit="3.239" d="M194.175,17.203h16.708v17.128h-16.708
	L194.175,17.203z"/>
<path fill="none" stroke="#000000" stroke-width="0.15" stroke-miterlimit="3.239" d="M150.239,17.203h24.186v17.128h-24.186V17.203
	z"/>
<path fill="none" stroke="#000000" stroke-width="0.15" stroke-miterlimit="3.239" d="M174.424,17.203h19.75v17.128h-19.75V17.203z"
	/>
<path fill="none" stroke="#000000" stroke-width="0.15" stroke-miterlimit="3.239" d="M0.075,102.6h75.099v32.431H0.075V102.6z"/>
<path fill="none" stroke="#000000" stroke-width="0.15" stroke-miterlimit="3.239" d="M0.075,388.2h75.099v22.405H0.075V388.2z"/>
<path fill="none" stroke="#000000" stroke-width="0.15" stroke-miterlimit="3.239" d="M0.075,368.82h75.099v19.38H0.075V368.82z"/>
<path fill="none" stroke="#000000" stroke-width="0.15" stroke-miterlimit="3.239" d="M0.075,410.605h75.099v26.482H0.075V410.605z"
	/>
<path fill="none" stroke="#000000" stroke-width="0.15" stroke-miterlimit="3.239" d="M0.075,351.692h75.099v17.128H0.075V351.692z"
	/>
<path fill="none" stroke="#000000" stroke-width="0.15" stroke-miterlimit="3.239" d="M0.075,437.087h75.099v32.431H0.075V437.087z"
	/>
<path fill="none" stroke="#000000" stroke-width="0.15" stroke-miterlimit="3.239" d="M0.075,135.03h75.099v41.788H0.075V135.03z"/>
<path fill="none" stroke="#000000" stroke-width="0.15" stroke-miterlimit="3.239" d="M0.075,176.818h75.099v58.866H0.075V176.818z"
	/>
<path fill="none" stroke="#000000" stroke-width="0.15" stroke-miterlimit="3.239" d="M0.075,235.685h75.099v100.702H0.075V235.685z
	"/>
<path fill="none" stroke="#000000" stroke-width="0.15" stroke-miterlimit="3.239" d="M0.075,336.386h75.099v15.306H0.075V336.386z"
	/>
<path fill="none" stroke="#000000" stroke-width="0.15" stroke-miterlimit="3.239" d="M474.786,53.711h12.773v22.405h-12.773V53.711
	z"/>
<path fill="none" stroke="#000000" stroke-width="0.15" stroke-miterlimit="3.239" d="M474.786,76.117h12.773V102.6h-12.773V76.117z
	"/>
<path fill="none" stroke="#000000" stroke-width="0.15" stroke-miterlimit="3.239" d="M474.786,17.203h12.773v17.128h-12.773V17.203
	z"/>
<path fill="none" stroke="#000000" stroke-width="0.15" stroke-miterlimit="3.239" d="M474.786,34.331h12.773v19.38h-12.773V34.331z
	"/>
<path fill="none" stroke="#000000" stroke-width="0.15" stroke-miterlimit="3.239" d="M474.786,102.6h12.773v32.431h-12.773V102.6z"
	/>
<path fill="none" stroke="#000000" stroke-width="0.15" stroke-miterlimit="3.239" d="M474.786,135.03h12.773v41.788h-12.773V135.03
	z"/>
<path fill="none" stroke="#000000" stroke-width="0.15" stroke-miterlimit="3.239" d="M474.786,336.386h12.773v15.306h-12.773
	V336.386z"/>
<path fill="none" stroke="#000000" stroke-width="0.15" stroke-miterlimit="3.239" d="M474.786,235.685h12.773v100.702h-12.773
	V235.685z"/>
<path fill="none" stroke="#000000" stroke-width="0.15" stroke-miterlimit="3.239" d="M474.786,176.818h12.773v58.866h-12.773
	V176.818z"/>
<path fill="none" stroke="#000000" stroke-width="0.15" stroke-miterlimit="3.239" d="M119.075,388.2h31.164v22.405h-31.164V388.2z"
	/>
<path fill="none" stroke="#000000" stroke-width="0.15" stroke-miterlimit="3.239" d="M324.623,17.203h43.901v17.128h-43.901V17.203
	z"/>
<path fill="none" stroke="#000000" stroke-width="0.15" stroke-miterlimit="3.239" d="M249.524,17.203h75.099v17.128h-75.099
	L249.524,17.203z"/>
<path fill="none" stroke="#000000" stroke-width="0.15" stroke-miterlimit="3.239" d="M238.111,17.203h11.413v17.128h-11.413V17.203
	z"/>
<path fill="none" stroke="#000000" stroke-width="0.15" stroke-miterlimit="3.239" d="M225.337,17.203h12.774v17.128h-12.774V17.203
	z"/>
<path fill="none" stroke="#000000" stroke-width="0.15" stroke-miterlimit="3.239" d="M460.332,17.203h14.454v17.128h-14.454V17.203
	z"/>
<path fill="none" stroke="#000000" stroke-width="0.15" stroke-miterlimit="3.239" d="M474.786,351.692h12.773v17.128h-12.773
	V351.692z"/>
<path fill="none" stroke="#000000" stroke-width="0.15" stroke-miterlimit="3.239" d="M399.688,17.203h24.186v17.128h-24.186V17.203
	z"/>
<path fill="none" stroke="#000000" stroke-width="0.15" stroke-miterlimit="3.239" d="M423.873,17.203h19.751v17.128h-19.751V17.203
	z"/>
<path fill="none" stroke="#000000" stroke-width="0.15" stroke-miterlimit="3.239" d="M443.624,17.203h16.708v17.128h-16.708V17.203
	z"/>
<path fill="none" stroke="#000000" stroke-width="0.15" stroke-miterlimit="3.239" d="M487.56,388.2h11.413v22.405H487.56V388.2z"/>
<path fill="none" stroke="#000000" stroke-width="0.15" stroke-miterlimit="3.239" d="M487.56,351.692h11.413v17.128H487.56V351.692
	z"/>
<path fill="none" stroke="#000000" stroke-width="0.15" stroke-miterlimit="3.239" d="M487.56,368.82h11.413v19.38H487.56V368.82z"
	/>
<path fill="none" stroke="#000000" stroke-width="0.15" stroke-miterlimit="3.239" d="M487.56,336.386h11.413v15.306H487.56V336.386
	z"/>
<path fill="none" stroke="#000000" stroke-width="0.15" stroke-miterlimit="3.239" d="M487.56,410.605h11.413v26.482H487.56V410.605
	z"/>
<path fill="none" stroke="#000000" stroke-width="0.15" stroke-miterlimit="3.239" d="M487.56,511.306h11.413v58.867H487.56V511.306
	z"/>
<path fill="none" stroke="#000000" stroke-width="0.15" stroke-miterlimit="3.239" d="M487.56,235.685h11.413v100.702H487.56
	V235.685z"/>
<path fill="none" stroke="#000000" stroke-width="0.15" stroke-miterlimit="3.239" d="M487.56,469.518h11.413v41.788H487.56V469.518
	z"/>
<path fill="none" stroke="#000000" stroke-width="0.15" stroke-miterlimit="3.239" d="M487.56,437.087h11.413v32.431H487.56V437.087
	z"/>
<path fill="none" stroke="#000000" stroke-width="0.15" stroke-miterlimit="3.239" d="M487.56,102.6h11.413v32.431H487.56V102.6z"/>
<path fill="none" stroke="#000000" stroke-width="0.15" stroke-miterlimit="3.239" d="M487.56,34.331h11.413v19.38H487.56V34.331z"
	/>
<path fill="none" stroke="#000000" stroke-width="0.15" stroke-miterlimit="3.239" d="M487.56,176.818h11.413v58.866H487.56V176.818
	z"/>
<path fill="none" stroke="#000000" stroke-width="0.15" stroke-miterlimit="3.239" d="M487.56,53.711h11.413v22.405H487.56V53.711z"
	/>
<path fill="none" stroke="#000000" stroke-width="0.15" stroke-miterlimit="3.239" d="M487.56,17.203h11.413v17.128H487.56V17.203z"
	/>
<path fill="none" stroke="#000000" stroke-width="0.15" stroke-miterlimit="3.239" d="M487.56,135.03h11.413v41.788H487.56V135.03z"
	/>
<path fill="none" stroke="#000000" stroke-width="0.15" stroke-miterlimit="3.239" d="M487.56,76.117h11.413V102.6H487.56V76.117z"
	/>
<path fill="none" stroke="#000000" stroke-width="0.15" stroke-miterlimit="3.239" d="M487.56,570.173h11.413v100.701H487.56
	V570.173z"/>
<path fill="none" stroke="#000000" stroke-width="0.15" stroke-miterlimit="3.239" d="M324.623,570.173h43.901v100.701h-43.901
	V570.173z"/>
<path fill="none" stroke="#000000" stroke-width="0.15" stroke-miterlimit="3.239" d="M150.239,570.173h24.186v100.701h-24.186
	V570.173z"/>
<path fill="none" stroke="#000000" stroke-width="0.15" stroke-miterlimit="3.239" d="M174.424,570.173h19.75v100.701h-19.75
	V570.173z"/>
<path fill="none" stroke="#000000" stroke-width="0.15" stroke-miterlimit="3.239" d="M225.337,570.173h12.774v100.701h-12.774
	V570.173z"/>
<path fill="none" stroke="#000000" stroke-width="0.15" stroke-miterlimit="3.239" d="M210.883,570.173h14.454v100.701h-14.454
	V570.173z"/>
<path fill="none" stroke="#000000" stroke-width="0.15" stroke-miterlimit="3.239" d="M194.175,570.173h16.708v100.701h-16.708
	L194.175,570.173z"/>
<path fill="none" stroke="#000000" stroke-width="0.15" stroke-miterlimit="3.239" d="M119.075,570.173h31.164v100.701h-31.164
	V570.173z"/>
<path fill="none" stroke="#000000" stroke-width="0.15" stroke-miterlimit="3.239" d="M0.075,511.306h75.099v58.867H0.075V511.306z"
	/>
<path fill="none" stroke="#000000" stroke-width="0.15" stroke-miterlimit="3.239" d="M0.075,570.173h75.099v100.701H0.075V570.173z
	"/>
<path fill="none" stroke="#000000" stroke-width="0.15" stroke-miterlimit="3.239" d="M75.174,570.173h43.901v100.701H75.174
	V570.173z"/>
<path fill="none" stroke="#000000" stroke-width="0.15" stroke-miterlimit="3.239" d="M460.332,570.173h14.454v100.701h-14.454
	V570.173z"/>
<path fill="none" stroke="#000000" stroke-width="0.15" stroke-miterlimit="3.239" d="M443.624,570.173h16.708v100.701h-16.708
	V570.173z"/>
<path fill="none" stroke="#000000" stroke-width="0.15" stroke-miterlimit="3.239" d="M423.873,570.173h19.751v100.701h-19.751
	V570.173z"/>
<path fill="none" stroke="#000000" stroke-width="0.15" stroke-miterlimit="3.239" d="M399.688,570.173h24.186v100.701h-24.186
	V570.173z"/>
<path fill="none" stroke="#000000" stroke-width="0.15" stroke-miterlimit="3.239" d="M474.786,570.173h12.773v100.701h-12.773
	V570.173z"/>
<path fill="none" stroke="#000000" stroke-width="0.15" stroke-miterlimit="3.239" d="M368.524,570.173h31.163v100.701h-31.163
	V570.173z"/>
<path fill="none" stroke="#000000" stroke-width="0.15" stroke-miterlimit="3.239" d="M238.111,570.173h11.413v100.701h-11.413
	V570.173z"/>
<path fill="none" stroke="#000000" stroke-width="0.15" stroke-miterlimit="3.239" d="M249.524,570.173h75.099v100.701h-75.099
	L249.524,570.173z"/>
<path fill="none" stroke="#000000" stroke-width="0.15" stroke-miterlimit="3.239" d="M0.075,469.518h75.099v41.788H0.075V469.518z"
	/>
<path fill="none" stroke="#000000" stroke-width="0.15" stroke-miterlimit="3.239" d="M368.524,17.203h31.163v17.128h-31.163V17.203
	z"/>
<path fill="none" stroke="#000000" stroke-width="0.15" stroke-miterlimit="3.239" d="M75.174,0.075h43.901v17.128H75.174V0.075z"/>
<path fill="none" stroke="#000000" stroke-width="0.15" stroke-miterlimit="3.239" d="M0.075,0.075h75.099v17.128H0.075V0.075z"/>
<path fill="none" stroke="#000000" stroke-width="0.15" stroke-miterlimit="3.239" d="M210.883,0.075h14.454v17.128h-14.454V0.075z"
	/>
<path fill="none" stroke="#000000" stroke-width="0.15" stroke-miterlimit="3.239" d="M119.075,0.075h31.164v17.128h-31.164V0.075z"
	/>
<path fill="none" stroke="#000000" stroke-width="0.15" stroke-miterlimit="3.239" d="M194.175,0.075h16.708v17.128h-16.708
	L194.175,0.075z"/>
<path fill="none" stroke="#000000" stroke-width="0.15" stroke-miterlimit="3.239" d="M150.239,0.075h24.186v17.128h-24.186V0.075z"
	/>
<path fill="none" stroke="#000000" stroke-width="0.15" stroke-miterlimit="3.239" d="M174.424,0.075h19.75v17.128h-19.75V0.075z"/>
<path fill="none" stroke="#000000" stroke-width="0.15" stroke-miterlimit="3.239" d="M474.786,0.075h12.773v17.128h-12.773V0.075z"
	/>
<path fill="none" stroke="#000000" stroke-width="0.15" stroke-miterlimit="3.239" d="M324.623,0.075h43.901v17.128h-43.901V0.075z"
	/>
<path fill="none" stroke="#000000" stroke-width="0.15" stroke-miterlimit="3.239" d="M249.524,0.075h75.099v17.128h-75.099
	L249.524,0.075z"/>
<path fill="none" stroke="#000000" stroke-width="0.15" stroke-miterlimit="3.239" d="M238.111,0.075h11.413v17.128h-11.413V0.075z"
	/>
<path fill="none" stroke="#000000" stroke-width="0.15" stroke-miterlimit="3.239" d="M225.337,0.075h12.774v17.128h-12.774V0.075z"
	/>
<path fill="none" stroke="#000000" stroke-width="0.15" stroke-miterlimit="3.239" d="M460.332,0.075h14.454v17.128h-14.454V0.075z"
	/>
<path fill="none" stroke="#000000" stroke-width="0.15" stroke-miterlimit="3.239" d="M399.688,0.075h24.186v17.128h-24.186V0.075z"
	/>
<path fill="none" stroke="#000000" stroke-width="0.15" stroke-miterlimit="3.239" d="M423.873,0.075h19.751v17.128h-19.751V0.075z"
	/>
<path fill="none" stroke="#000000" stroke-width="0.15" stroke-miterlimit="3.239" d="M443.624,0.075h16.708v17.128h-16.708V0.075z"
	/>
<path fill="none" stroke="#000000" stroke-width="0.15" stroke-miterlimit="3.239" d="M487.56,0.075h11.413v17.128H487.56V0.075z"/>
<path fill="none" stroke="#000000" stroke-width="0.15" stroke-miterlimit="3.239" d="M368.524,0.075h31.163v17.128h-31.163V0.075z"
	/>
<path fill="none" stroke="#000000" stroke-width="0.15" stroke-miterlimit="3.239" d="M460.332,176.818h14.454v58.866h-14.454
	V176.818z"/>
<path fill="none" stroke="#000000" stroke-width="0.15" stroke-miterlimit="3.239" d="M460.332,135.03h14.454v41.788h-14.454V135.03
	z"/>
<path fill="none" stroke="#000000" stroke-width="0.15" stroke-miterlimit="3.239" d="M460.332,102.6h14.454v32.431h-14.454V102.6z"
	/>
<path fill="none" stroke="#000000" stroke-width="0.15" stroke-miterlimit="3.239" d="M460.332,388.2h14.454v22.405h-14.454V388.2z"
	/>
<path fill="none" stroke="#000000" stroke-width="0.15" stroke-miterlimit="3.239" d="M460.332,368.82h14.454v19.38h-14.454V368.82z
	"/>
<path fill="none" stroke="#000000" stroke-width="0.15" stroke-miterlimit="3.239" d="M460.332,351.692h14.454v17.128h-14.454
	V351.692z"/>
<path fill="none" stroke="#000000" stroke-width="0.15" stroke-miterlimit="3.239" d="M460.332,235.685h14.454v100.702h-14.454
	V235.685z"/>
<path fill="none" stroke="#000000" stroke-width="0.15" stroke-miterlimit="3.239" d="M194.175,34.331h16.708v19.38h-16.708
	L194.175,34.331z"/>
<path fill="none" stroke="#000000" stroke-width="0.15" stroke-miterlimit="3.239" d="M460.332,336.386h14.454v15.306h-14.454
	V336.386z"/>
<path fill="none" stroke="#000000" stroke-width="0.15" stroke-miterlimit="3.239" d="M460.332,53.711h14.454v22.405h-14.454V53.711
	z"/>
<path fill="none" stroke="#000000" stroke-width="0.15" stroke-miterlimit="3.239" d="M225.337,34.331h12.774v19.38h-12.774V34.331z
	"/>
<path fill="none" stroke="#000000" stroke-width="0.15" stroke-miterlimit="3.239" d="M238.111,34.331h11.413v19.38h-11.413V34.331z
	"/>
<path fill="none" stroke="#000000" stroke-width="0.15" stroke-miterlimit="3.239" d="M249.524,34.331h75.099v19.38h-75.099
	L249.524,34.331z"/>
<path fill="none" stroke="#000000" stroke-width="0.15" stroke-miterlimit="3.239" d="M210.883,34.331h14.454v19.38h-14.454V34.331z
	"/>
<path fill="none" stroke="#000000" stroke-width="0.15" stroke-miterlimit="3.239" d="M399.688,34.331h24.186v19.38h-24.186V34.331z
	"/>
<path fill="none" stroke="#000000" stroke-width="0.15" stroke-miterlimit="3.239" d="M423.873,34.331h19.751v19.38h-19.751V34.331z
	"/>
<path fill="none" stroke="#000000" stroke-width="0.15" stroke-miterlimit="3.239" d="M474.786,368.82h12.773v19.38h-12.773V368.82z
	"/>
<path fill="none" stroke="#000000" stroke-width="0.15" stroke-miterlimit="3.239" d="M368.524,34.331h31.163v19.38h-31.163V34.331z
	"/>
<path fill="none" stroke="#000000" stroke-width="0.15" stroke-miterlimit="3.239" d="M324.623,34.331h43.901v19.38h-43.901V34.331z
	"/>
<path fill="none" stroke="#000000" stroke-width="0.15" stroke-miterlimit="3.239" d="M460.332,34.331h14.454v19.38h-14.454V34.331z
	"/>
<path fill="none" stroke="#000000" stroke-width="0.15" stroke-miterlimit="3.239" d="M174.424,469.518h19.75v41.788h-19.75V469.518
	z"/>
<path fill="none" stroke="#000000" stroke-width="0.15" stroke-miterlimit="3.239" d="M194.175,469.518h16.708v41.788h-16.708
	L194.175,469.518z"/>
<path fill="none" stroke="#000000" stroke-width="0.15" stroke-miterlimit="3.239" d="M238.111,469.518h11.413v41.788h-11.413
	V469.518z"/>
<path fill="none" stroke="#000000" stroke-width="0.15" stroke-miterlimit="3.239" d="M225.337,469.518h12.774v41.788h-12.774
	V469.518z"/>
<path fill="none" stroke="#000000" stroke-width="0.15" stroke-miterlimit="3.239" d="M210.883,469.518h14.454v41.788h-14.454
	V469.518z"/>
<path fill="none" stroke="#000000" stroke-width="0.15" stroke-miterlimit="3.239" d="M150.239,469.518h24.186v41.788h-24.186
	V469.518z"/>
<path fill="none" stroke="#000000" stroke-width="0.15" stroke-miterlimit="3.239" d="M119.075,410.605h31.164v26.482h-31.164
	V410.605z"/>
<path fill="none" stroke="#000000" stroke-width="0.15" stroke-miterlimit="3.239" d="M119.075,437.087h31.164v32.431h-31.164
	V437.087z"/>
<path fill="none" stroke="#000000" stroke-width="0.15" stroke-miterlimit="3.239" d="M119.075,469.518h31.164v41.788h-31.164
	V469.518z"/>
<path fill="none" stroke="#000000" stroke-width="0.15" stroke-miterlimit="3.239" d="M368.524,469.518h31.163v41.788h-31.163
	V469.518z"/>
<path fill="none" stroke="#000000" stroke-width="0.15" stroke-miterlimit="3.239" d="M443.624,469.518h16.708v41.788h-16.708
	V469.518z"/>
<path fill="none" stroke="#000000" stroke-width="0.15" stroke-miterlimit="3.239" d="M423.873,469.518h19.751v41.788h-19.751
	V469.518z"/>
<path fill="none" stroke="#000000" stroke-width="0.15" stroke-miterlimit="3.239" d="M460.332,469.518h14.454v41.788h-14.454
	V469.518z"/>
<path fill="none" stroke="#000000" stroke-width="0.15" stroke-miterlimit="3.239" d="M460.332,437.087h14.454v32.431h-14.454
	V437.087z"/>
<path fill="none" stroke="#000000" stroke-width="0.15" stroke-miterlimit="3.239" d="M460.332,410.605h14.454v26.482h-14.454
	V410.605z"/>
<path fill="none" stroke="#000000" stroke-width="0.15" stroke-miterlimit="3.239" d="M324.623,469.518h43.901v41.788h-43.901
	V469.518z"/>
<path fill="none" stroke="#000000" stroke-width="0.15" stroke-miterlimit="3.239" d="M249.524,469.518h75.099v41.788h-75.099
	L249.524,469.518z"/>
<path fill="none" stroke="#000000" stroke-width="0.15" stroke-miterlimit="3.239" d="M399.688,469.518h24.186v41.788h-24.186
	V469.518z"/>
<path fill="none" stroke="#000000" stroke-width="0.15" stroke-miterlimit="3.239" d="M443.624,34.331h16.708v19.38h-16.708V34.331z
	"/>
<path fill="none" stroke="#000000" stroke-width="0.15" stroke-miterlimit="3.239" d="M324.623,511.306h43.901v58.867h-43.901
	V511.306z"/>
<path fill="none" stroke="#000000" stroke-width="0.15" stroke-miterlimit="3.239" d="M399.688,511.306h24.186v58.867h-24.186
	V511.306z"/>
<path fill="none" stroke="#000000" stroke-width="0.15" stroke-miterlimit="3.239" d="M368.524,511.306h31.163v58.867h-31.163
	V511.306z"/>
<path fill="none" stroke="#000000" stroke-width="0.15" stroke-miterlimit="3.239" d="M238.111,511.306h11.413v58.867h-11.413
	V511.306z"/>
<path fill="none" stroke="#000000" stroke-width="0.15" stroke-miterlimit="3.239" d="M249.524,511.306h75.099v58.867h-75.099
	L249.524,511.306z"/>
<path fill="none" stroke="#000000" stroke-width="0.15" stroke-miterlimit="3.239" d="M194.175,511.306h16.708v58.867h-16.708
	L194.175,511.306z"/>
<path fill="none" stroke="#000000" stroke-width="0.15" stroke-miterlimit="3.239" d="M225.337,511.306h12.774v58.867h-12.774
	V511.306z"/>
<path fill="none" stroke="#000000" stroke-width="0.15" stroke-miterlimit="3.239" d="M174.424,511.306h19.75v58.867h-19.75V511.306
	z"/>
<path fill="none" stroke="#000000" stroke-width="0.15" stroke-miterlimit="3.239" d="M210.883,511.306h14.454v58.867h-14.454
	V511.306z"/>
<path fill="none" stroke="#000000" stroke-width="0.15" stroke-miterlimit="3.239" d="M474.786,410.605h12.773v26.482h-12.773
	V410.605z"/>
<path fill="none" stroke="#000000" stroke-width="0.15" stroke-miterlimit="3.239" d="M150.239,511.306h24.186v58.867h-24.186
	V511.306z"/>
<path fill="none" stroke="#000000" stroke-width="0.15" stroke-miterlimit="3.239" d="M474.786,469.518h12.773v41.788h-12.773
	V469.518z"/>
<path fill="none" stroke="#000000" stroke-width="0.15" stroke-miterlimit="3.239" d="M474.786,437.087h12.773v32.431h-12.773
	V437.087z"/>
<path fill="none" stroke="#000000" stroke-width="0.15" stroke-miterlimit="3.239" d="M423.873,511.306h19.751v58.867h-19.751
	V511.306z"/>
<path fill="none" stroke="#000000" stroke-width="0.15" stroke-miterlimit="3.239" d="M474.786,388.2h12.773v22.405h-12.773V388.2z"
	/>
<path fill="none" stroke="#000000" stroke-width="0.15" stroke-miterlimit="3.239" d="M174.424,34.331h19.75v19.38h-19.75V34.331z"
	/>
<path fill="none" stroke="#000000" stroke-width="0.15" stroke-miterlimit="3.239" d="M443.624,511.306h16.708v58.867h-16.708
	V511.306z"/>
<path fill="none" stroke="#000000" stroke-width="0.15" stroke-miterlimit="3.239" d="M460.332,511.306h14.454v58.867h-14.454
	V511.306z"/>
<path fill="none" stroke="#000000" stroke-width="0.15" stroke-miterlimit="3.239" d="M474.786,511.306h12.773v58.867h-12.773
	V511.306z"/>
<path fill="none" stroke="#000000" stroke-width="0.15" stroke-miterlimit="3.239" d="M75.174,102.6h43.901v32.431H75.174V102.6z"/>
<path fill="none" stroke="#000000" stroke-width="0.15" stroke-miterlimit="3.239" d="M75.174,135.03h43.901v41.788H75.174V135.03z"
	/>
<path fill="none" stroke="#000000" stroke-width="0.15" stroke-miterlimit="3.239" d="M75.174,235.685h43.901v100.702H75.174
	V235.685z"/>
<path fill="none" stroke="#000000" stroke-width="0.15" stroke-miterlimit="3.239" d="M75.174,76.117h43.901V102.6H75.174V76.117z"
	/>
<path fill="none" stroke="#000000" stroke-width="0.15" stroke-miterlimit="3.239" d="M75.174,176.818h43.901v58.866H75.174V176.818
	z"/>
<path fill="none" stroke="#000000" stroke-width="0.15" stroke-miterlimit="3.239" d="M119.075,34.331h31.164v19.38h-31.164V34.331z
	"/>
<path fill="none" stroke="#000000" stroke-width="0.15" stroke-miterlimit="3.239" d="M119.075,511.306h31.164v58.867h-31.164
	V511.306z"/>
<path fill="none" stroke="#000000" stroke-width="0.15" stroke-miterlimit="3.239" d="M75.174,53.711h43.901v22.405H75.174V53.711z"
	/>
<path fill="none" stroke="#000000" stroke-width="0.15" stroke-miterlimit="3.239" d="M75.174,34.331h43.901v19.38H75.174V34.331z"
	/>
<path fill="none" stroke="#000000" stroke-width="0.15" stroke-miterlimit="3.239" d="M150.239,34.331h24.186v19.38h-24.186V34.331z
	"/>
<path fill="none" stroke="#000000" stroke-width="0.15" stroke-miterlimit="3.239" d="M75.174,437.087h43.901v32.431H75.174V437.087
	z"/>
<path fill="none" stroke="#000000" stroke-width="0.15" stroke-miterlimit="3.239" d="M75.174,336.386h43.901v15.306H75.174V336.386
	z"/>
<path fill="none" stroke="#000000" stroke-width="0.15" stroke-miterlimit="3.239" d="M75.174,511.306h43.901v58.867H75.174V511.306
	z"/>
<path fill="none" stroke="#000000" stroke-width="0.15" stroke-miterlimit="3.239" d="M75.174,410.605h43.901v26.482H75.174V410.605
	z"/>
<path fill="none" stroke="#000000" stroke-width="0.15" stroke-miterlimit="3.239" d="M75.174,469.518h43.901v41.788H75.174V469.518
	z"/>
<path fill="none" stroke="#000000" stroke-width="0.15" stroke-miterlimit="3.239" d="M75.174,388.2h43.901v22.405H75.174V388.2z"/>
<path fill="none" stroke="#000000" stroke-width="0.15" stroke-miterlimit="3.239" d="M75.174,351.692h43.901v17.128H75.174V351.692
	z"/>
<path fill="none" stroke="#000000" stroke-width="0.15" stroke-miterlimit="3.239" d="M75.174,368.82h43.901v19.38H75.174V368.82z"
	/>
</svg>
