<?xml version="1.0" encoding="utf-8"?>
<!-- Generator: Adobe Illustrator 21.0.2, SVG Export Plug-In . SVG Version: 6.00 Build 0)  -->
<svg version="1.1" baseProfile="tiny" id="Ebene_1" xmlns="http://www.w3.org/2000/svg" xmlns:xlink="http://www.w3.org/1999/xlink"
	 x="0px" y="0px" viewBox="0 0 540.15 720.15" xml:space="preserve">
<path fill="none" stroke="#000000" stroke-width="0.15" d="M360.075,396.075h36v36h-36V396.075z"/>
<path fill="none" stroke="#000000" stroke-width="0.15" d="M360.075,432.075h36v36h-36V432.075z"/>
<path fill="none" stroke="#000000" stroke-width="0.15" d="M360.075,360.075h36v36h-36V360.075z"/>
<path fill="none" stroke="#000000" stroke-width="0.15" d="M360.075,468.075h36v36h-36V468.075z"/>
<path fill="none" stroke="#000000" stroke-width="0.15" d="M360.075,324.075h36v36h-36V324.075z"/>
<path fill="none" stroke="#000000" stroke-width="0.15" d="M360.075,504.075h36v36h-36V504.075z"/>
<path fill="none" stroke="#000000" stroke-width="0.15" d="M360.075,216.075h36v36h-36V216.075z"/>
<path fill="none" stroke="#000000" stroke-width="0.15" d="M360.075,288.075h36v36h-36V288.075z"/>
<path fill="none" stroke="#000000" stroke-width="0.15" d="M288.075,108.075h36v36h-36V108.075z"/>
<path fill="none" stroke="#000000" stroke-width="0.15" d="M324.075,108.075h36v36h-36V108.075z"/>
<path fill="none" stroke="#000000" stroke-width="0.15" d="M360.075,108.075h36v36h-36V108.075z"/>
<path fill="none" stroke="#000000" stroke-width="0.15" d="M360.075,252.075h36v36h-36V252.075z"/>
<path fill="none" stroke="#000000" stroke-width="0.15" d="M360.075,540.075h36v36h-36V540.075z"/>
<path fill="none" stroke="#000000" stroke-width="0.15" d="M360.075,180.075h36v36h-36V180.075z"/>
<path fill="none" stroke="#000000" stroke-width="0.15" d="M360.075,144.075h36v36h-36V144.075z"/>
<path fill="none" stroke="#000000" stroke-width="0.15" d="M144.075,396.075h36v36h-36V396.075z"/>
<path fill="none" stroke="#000000" stroke-width="0.15" d="M144.075,360.075h36v36h-36V360.075z"/>
<path fill="none" stroke="#000000" stroke-width="0.15" d="M144.075,432.075h36v36h-36V432.075z"/>
<path fill="none" stroke="#000000" stroke-width="0.15" d="M144.075,468.075h36v36h-36V468.075z"/>
<path fill="none" stroke="#000000" stroke-width="0.15" d="M324.075,540.075h36v36h-36V540.075z"/>
<path fill="none" stroke="#000000" stroke-width="0.15" d="M144.075,288.075h36v36h-36V288.075z"/>
<path fill="none" stroke="#000000" stroke-width="0.15" d="M144.075,324.075h36v36h-36V324.075z"/>
<path fill="none" stroke="#000000" stroke-width="0.15" d="M144.075,252.075h36v36h-36V252.075z"/>
<path fill="none" stroke="#000000" stroke-width="0.15" d="M252.075,540.075h36v36h-36L252.075,540.075z"/>
<path fill="none" stroke="#000000" stroke-width="0.15" d="M144.075,504.075h36v36h-36V504.075z"/>
<path fill="none" stroke="#000000" stroke-width="0.15" d="M216.075,540.075h36v36h-36V540.075z"/>
<path fill="none" stroke="#000000" stroke-width="0.15" d="M288.075,540.075h36v36h-36V540.075z"/>
<path fill="none" stroke="#000000" stroke-width="0.15" d="M144.075,540.075h36v36h-36V540.075z"/>
<path fill="none" stroke="#000000" stroke-width="0.15" d="M180.075,540.075h36v36h-36V540.075z"/>
<path fill="none" stroke="#000000" stroke-width="0.15" d="M108.075,252.075h36v36h-36V252.075z"/>
<path fill="none" stroke="#000000" stroke-width="0.15" d="M180.075,576.075h36v36h-36V576.075z"/>
<path fill="none" stroke="#000000" stroke-width="0.15" d="M288.075,576.075h36v36h-36V576.075z"/>
<path fill="none" stroke="#000000" stroke-width="0.15" d="M252.075,576.075h36v36h-36L252.075,576.075z"/>
<path fill="none" stroke="#000000" stroke-width="0.15" d="M216.075,576.075h36v36h-36V576.075z"/>
<path fill="none" stroke="#000000" stroke-width="0.15" d="M396.075,432.075h36v36h-36V432.075z"/>
<path fill="none" stroke="#000000" stroke-width="0.15" d="M108.075,576.075h36v36h-36V576.075z"/>
<path fill="none" stroke="#000000" stroke-width="0.15" d="M144.075,576.075h36v36h-36V576.075z"/>
<path fill="none" stroke="#000000" stroke-width="0.15" d="M360.075,576.075h36v36h-36V576.075z"/>
<path fill="none" stroke="#000000" stroke-width="0.15" d="M396.075,504.075h36v36h-36V504.075z"/>
<path fill="none" stroke="#000000" stroke-width="0.15" d="M396.075,468.075h36v36h-36V468.075z"/>
<path fill="none" stroke="#000000" stroke-width="0.15" d="M252.075,108.075h36v36h-36L252.075,108.075z"/>
<path fill="none" stroke="#000000" stroke-width="0.15" d="M396.075,540.075h36v36h-36V540.075z"/>
<path fill="none" stroke="#000000" stroke-width="0.15" d="M108.075,504.075h36v36h-36V504.075z"/>
<path fill="none" stroke="#000000" stroke-width="0.15" d="M396.075,576.075h36v36h-36V576.075z"/>
<path fill="none" stroke="#000000" stroke-width="0.15" d="M324.075,576.075h36v36h-36V576.075z"/>
<path fill="none" stroke="#000000" stroke-width="0.15" d="M108.075,108.075h36v36h-36V108.075z"/>
<path fill="none" stroke="#000000" stroke-width="0.15" d="M108.075,468.075h36v36h-36V468.075z"/>
<path fill="none" stroke="#000000" stroke-width="0.15" d="M108.075,180.075h36v36h-36V180.075z"/>
<path fill="none" stroke="#000000" stroke-width="0.15" d="M108.075,144.075h36v36h-36V144.075z"/>
<path fill="none" stroke="#000000" stroke-width="0.15" d="M216.075,108.075h36v36h-36V108.075z"/>
<path fill="none" stroke="#000000" stroke-width="0.15" d="M180.075,108.075h36v36h-36V108.075z"/>
<path fill="none" stroke="#000000" stroke-width="0.15" d="M144.075,108.075h36v36h-36V108.075z"/>
<path fill="none" stroke="#000000" stroke-width="0.15" d="M108.075,396.075h36v36h-36V396.075z"/>
<path fill="none" stroke="#000000" stroke-width="0.15" d="M108.075,216.075h36v36h-36V216.075z"/>
<path fill="none" stroke="#000000" stroke-width="0.15" d="M108.075,432.075h36v36h-36V432.075z"/>
<path fill="none" stroke="#000000" stroke-width="0.15" d="M108.075,324.075h36v36h-36V324.075z"/>
<path fill="none" stroke="#000000" stroke-width="0.15" d="M144.075,216.075h36v36h-36V216.075z"/>
<path fill="none" stroke="#000000" stroke-width="0.15" d="M108.075,288.075h36v36h-36V288.075z"/>
<path fill="none" stroke="#000000" stroke-width="0.15" d="M108.075,540.075h36v36h-36V540.075z"/>
<path fill="none" stroke="#000000" stroke-width="0.15" d="M288.075,432.075h36v36h-36V432.075z"/>
<path fill="none" stroke="#000000" stroke-width="0.15" d="M288.075,324.075h36v36h-36V324.075z"/>
<path fill="none" stroke="#000000" stroke-width="0.15" d="M288.075,360.075h36v36h-36V360.075z"/>
<path fill="none" stroke="#000000" stroke-width="0.15" d="M288.075,396.075h36v36h-36V396.075z"/>
<path fill="none" stroke="#000000" stroke-width="0.15" d="M216.075,468.075h36v36h-36V468.075z"/>
<path fill="none" stroke="#000000" stroke-width="0.15" d="M252.075,468.075h36v36h-36L252.075,468.075z"/>
<path fill="none" stroke="#000000" stroke-width="0.15" d="M288.075,468.075h36v36h-36V468.075z"/>
<path fill="none" stroke="#000000" stroke-width="0.15" d="M288.075,252.075h36v36h-36V252.075z"/>
<path fill="none" stroke="#000000" stroke-width="0.15" d="M288.075,288.075h36v36h-36V288.075z"/>
<path fill="none" stroke="#000000" stroke-width="0.15" d="M216.075,180.075h36v36h-36V180.075z"/>
<path fill="none" stroke="#000000" stroke-width="0.15" d="M288.075,180.075h36v36h-36V180.075z"/>
<path fill="none" stroke="#000000" stroke-width="0.15" d="M252.075,180.075h36v36h-36L252.075,180.075z"/>
<path fill="none" stroke="#000000" stroke-width="0.15" d="M288.075,216.075h36v36h-36V216.075z"/>
<path fill="none" stroke="#000000" stroke-width="0.15" d="M216.075,432.075h36v36h-36V432.075z"/>
<path fill="none" stroke="#000000" stroke-width="0.15" d="M252.075,252.075h36v36h-36L252.075,252.075z"/>
<path fill="none" stroke="#000000" stroke-width="0.15" d="M252.075,324.075h36v36h-36L252.075,324.075z"/>
<path fill="none" stroke="#000000" stroke-width="0.15" d="M180.075,180.075h36v36h-36V180.075z"/>
<path fill="none" stroke="#000000" stroke-width="0.15" d="M252.075,288.075h36v36h-36L252.075,288.075z"/>
<path fill="none" stroke="#000000" stroke-width="0.15" d="M252.075,360.075h36v36h-36L252.075,360.075z"/>
<path fill="none" stroke="#000000" stroke-width="0.15" d="M216.075,396.075h36v36h-36V396.075z"/>
<path fill="none" stroke="#000000" stroke-width="0.15" d="M468.075,36.075h36v36h-36V36.075z"/>
<path fill="none" stroke="#000000" stroke-width="0.15" d="M252.075,432.075h36v36h-36L252.075,432.075z"/>
<path fill="none" stroke="#000000" stroke-width="0.15" d="M252.075,396.075h36v36h-36L252.075,396.075z"/>
<path fill="none" stroke="#000000" stroke-width="0.15" d="M216.075,288.075h36v36h-36V288.075z"/>
<path fill="none" stroke="#000000" stroke-width="0.15" d="M216.075,324.075h36v36h-36V324.075z"/>
<path fill="none" stroke="#000000" stroke-width="0.15" d="M216.075,360.075h36v36h-36V360.075z"/>
<path fill="none" stroke="#000000" stroke-width="0.15" d="M216.075,252.075h36v36h-36V252.075z"/>
<path fill="none" stroke="#000000" stroke-width="0.15" d="M252.075,216.075h36v36h-36L252.075,216.075z"/>
<path fill="none" stroke="#000000" stroke-width="0.15" d="M216.075,216.075h36v36h-36V216.075z"/>
<path fill="none" stroke="#000000" stroke-width="0.15" d="M324.075,504.075h36v36h-36V504.075z"/>
<path fill="none" stroke="#000000" stroke-width="0.15" d="M324.075,288.075h36v36h-36V288.075z"/>
<path fill="none" stroke="#000000" stroke-width="0.15" d="M324.075,252.075h36v36h-36V252.075z"/>
<path fill="none" stroke="#000000" stroke-width="0.15" d="M324.075,216.075h36v36h-36V216.075z"/>
<path fill="none" stroke="#000000" stroke-width="0.15" d="M324.075,180.075h36v36h-36V180.075z"/>
<path fill="none" stroke="#000000" stroke-width="0.15" d="M324.075,396.075h36v36h-36V396.075z"/>
<path fill="none" stroke="#000000" stroke-width="0.15" d="M180.075,216.075h36v36h-36V216.075z"/>
<path fill="none" stroke="#000000" stroke-width="0.15" d="M324.075,324.075h36v36h-36V324.075z"/>
<path fill="none" stroke="#000000" stroke-width="0.15" d="M216.075,144.075h36v36h-36V144.075z"/>
<path fill="none" stroke="#000000" stroke-width="0.15" d="M324.075,432.075h36v36h-36V432.075z"/>
<path fill="none" stroke="#000000" stroke-width="0.15" d="M324.075,144.075h36v36h-36V144.075z"/>
<path fill="none" stroke="#000000" stroke-width="0.15" d="M144.075,144.075h36v36h-36V144.075z"/>
<path fill="none" stroke="#000000" stroke-width="0.15" d="M180.075,144.075h36v36h-36V144.075z"/>
<path fill="none" stroke="#000000" stroke-width="0.15" d="M288.075,144.075h36v36h-36V144.075z"/>
<path fill="none" stroke="#000000" stroke-width="0.15" d="M252.075,144.075h36v36h-36L252.075,144.075z"/>
<path fill="none" stroke="#000000" stroke-width="0.15" d="M324.075,360.075h36v36h-36V360.075z"/>
<path fill="none" stroke="#000000" stroke-width="0.15" d="M180.075,360.075h36v36h-36V360.075z"/>
<path fill="none" stroke="#000000" stroke-width="0.15" d="M180.075,324.075h36v36h-36V324.075z"/>
<path fill="none" stroke="#000000" stroke-width="0.15" d="M180.075,396.075h36v36h-36V396.075z"/>
<path fill="none" stroke="#000000" stroke-width="0.15" d="M180.075,432.075h36v36h-36V432.075z"/>
<path fill="none" stroke="#000000" stroke-width="0.15" d="M180.075,288.075h36v36h-36V288.075z"/>
<path fill="none" stroke="#000000" stroke-width="0.15" d="M180.075,252.075h36v36h-36V252.075z"/>
<path fill="none" stroke="#000000" stroke-width="0.15" d="M180.075,468.075h36v36h-36V468.075z"/>
<path fill="none" stroke="#000000" stroke-width="0.15" d="M288.075,504.075h36v36h-36V504.075z"/>
<path fill="none" stroke="#000000" stroke-width="0.15" d="M144.075,180.075h36v36h-36V180.075z"/>
<path fill="none" stroke="#000000" stroke-width="0.15" d="M252.075,504.075h36v36h-36L252.075,504.075z"/>
<path fill="none" stroke="#000000" stroke-width="0.15" d="M216.075,504.075h36v36h-36V504.075z"/>
<path fill="none" stroke="#000000" stroke-width="0.15" d="M180.075,504.075h36v36h-36V504.075z"/>
<path fill="none" stroke="#000000" stroke-width="0.15" d="M324.075,468.075h36v36h-36V468.075z"/>
<path fill="none" stroke="#000000" stroke-width="0.15" d="M108.075,360.075h36v36h-36V360.075z"/>
<path fill="none" stroke="#000000" stroke-width="0.15" d="M36.075,360.075h36v36h-36L36.075,360.075z"/>
<path fill="none" stroke="#000000" stroke-width="0.15" d="M36.075,396.075h36v36h-36L36.075,396.075z"/>
<path fill="none" stroke="#000000" stroke-width="0.15" d="M36.075,324.075h36v36h-36L36.075,324.075z"/>
<path fill="none" stroke="#000000" stroke-width="0.15" d="M36.075,216.075h36v36h-36L36.075,216.075z"/>
<path fill="none" stroke="#000000" stroke-width="0.15" d="M36.075,432.075h36v36h-36L36.075,432.075z"/>
<path fill="none" stroke="#000000" stroke-width="0.15" d="M36.075,288.075h36v36h-36L36.075,288.075z"/>
<path fill="none" stroke="#000000" stroke-width="0.15" d="M36.075,252.075h36v36h-36L36.075,252.075z"/>
<path fill="none" stroke="#000000" stroke-width="0.15" d="M36.075,540.075h36v36h-36L36.075,540.075z"/>
<path fill="none" stroke="#000000" stroke-width="0.15" d="M36.075,612.075h36v36h-36L36.075,612.075z"/>
<path fill="none" stroke="#000000" stroke-width="0.15" d="M36.075,648.075h36v36h-36L36.075,648.075z"/>
<path fill="none" stroke="#000000" stroke-width="0.15" d="M36.075,576.075h36v36h-36L36.075,576.075z"/>
<path fill="none" stroke="#000000" stroke-width="0.15" d="M36.075,468.075h36v36h-36L36.075,468.075z"/>
<path fill="none" stroke="#000000" stroke-width="0.15" d="M36.075,180.075h36v36h-36L36.075,180.075z"/>
<path fill="none" stroke="#000000" stroke-width="0.15" d="M36.075,504.075h36v36h-36L36.075,504.075z"/>
<path fill="none" stroke="#000000" stroke-width="0.15" d="M36.075,108.075h36v36h-36L36.075,108.075z"/>
<path fill="none" stroke="#000000" stroke-width="0.15" d="M288.075,36.075h36v36h-36V36.075z"/>
<path fill="none" stroke="#000000" stroke-width="0.15" d="M36.075,144.075h36v36h-36L36.075,144.075z"/>
<path fill="none" stroke="#000000" stroke-width="0.15" d="M216.075,36.075h36v36h-36V36.075z"/>
<path fill="none" stroke="#000000" stroke-width="0.15" d="M360.075,36.075h36v36h-36V36.075z"/>
<path fill="none" stroke="#000000" stroke-width="0.15" d="M396.075,36.075h36v36h-36V36.075z"/>
<path fill="none" stroke="#000000" stroke-width="0.15" d="M324.075,36.075h36v36h-36V36.075z"/>
<path fill="none" stroke="#000000" stroke-width="0.15" d="M180.075,36.075h36v36h-36V36.075z"/>
<path fill="none" stroke="#000000" stroke-width="0.15" d="M252.075,36.075h36v36h-36L252.075,36.075z"/>
<path fill="none" stroke="#000000" stroke-width="0.15" d="M36.075,72.075h36v36h-36L36.075,72.075z"/>
<path fill="none" stroke="#000000" stroke-width="0.15" d="M36.075,36.075h36v36h-36L36.075,36.075z"/>
<path fill="none" stroke="#000000" stroke-width="0.15" d="M72.075,648.075h36v36h-36V648.075z"/>
<path fill="none" stroke="#000000" stroke-width="0.15" d="M108.075,36.075h36v36h-36V36.075z"/>
<path fill="none" stroke="#000000" stroke-width="0.15" d="M72.075,36.075h36v36h-36V36.075z"/>
<path fill="none" stroke="#000000" stroke-width="0.15" d="M144.075,36.075h36v36h-36V36.075z"/>
<path fill="none" stroke="#000000" stroke-width="0.15" d="M468.075,396.075h36v36h-36V396.075z"/>
<path fill="none" stroke="#000000" stroke-width="0.15" d="M468.075,324.075h36v36h-36V324.075z"/>
<path fill="none" stroke="#000000" stroke-width="0.15" d="M468.075,288.075h36v36h-36V288.075z"/>
<path fill="none" stroke="#000000" stroke-width="0.15" d="M468.075,360.075h36v36h-36V360.075z"/>
<path fill="none" stroke="#000000" stroke-width="0.15" d="M468.075,432.075h36v36h-36V432.075z"/>
<path fill="none" stroke="#000000" stroke-width="0.15" d="M468.075,468.075h36v36h-36V468.075z"/>
<path fill="none" stroke="#000000" stroke-width="0.15" d="M432.075,36.075h36v36h-36V36.075z"/>
<path fill="none" stroke="#000000" stroke-width="0.15" d="M468.075,252.075h36v36h-36V252.075z"/>
<path fill="none" stroke="#000000" stroke-width="0.15" d="M468.075,504.075h36v36h-36V504.075z"/>
<path fill="none" stroke="#000000" stroke-width="0.15" d="M468.075,72.075h36v36h-36V72.075z"/>
<path fill="none" stroke="#000000" stroke-width="0.15" d="M468.075,108.075h36v36h-36V108.075z"/>
<path fill="none" stroke="#000000" stroke-width="0.15" d="M468.075,144.075h36v36h-36V144.075z"/>
<path fill="none" stroke="#000000" stroke-width="0.15" d="M468.075,180.075h36v36h-36V180.075z"/>
<path fill="none" stroke="#000000" stroke-width="0.15" d="M468.075,216.075h36v36h-36V216.075z"/>
<path fill="none" stroke="#000000" stroke-width="0.15" d="M396.075,648.075h36v36h-36V648.075z"/>
<path fill="none" stroke="#000000" stroke-width="0.15" d="M216.075,648.075h36v36h-36V648.075z"/>
<path fill="none" stroke="#000000" stroke-width="0.15" d="M252.075,648.075h36v36h-36L252.075,648.075z"/>
<path fill="none" stroke="#000000" stroke-width="0.15" d="M288.075,648.075h36v36h-36V648.075z"/>
<path fill="none" stroke="#000000" stroke-width="0.15" d="M180.075,648.075h36v36h-36V648.075z"/>
<path fill="none" stroke="#000000" stroke-width="0.15" d="M324.075,648.075h36v36h-36V648.075z"/>
<path fill="none" stroke="#000000" stroke-width="0.15" d="M144.075,648.075h36v36h-36V648.075z"/>
<path fill="none" stroke="#000000" stroke-width="0.15" d="M108.075,648.075h36v36h-36V648.075z"/>
<path fill="none" stroke="#000000" stroke-width="0.15" d="M468.075,612.075h36v36h-36V612.075z"/>
<path fill="none" stroke="#000000" stroke-width="0.15" d="M468.075,648.075h36v36h-36V648.075z"/>
<path fill="none" stroke="#000000" stroke-width="0.15" d="M468.075,576.075h36v36h-36V576.075z"/>
<path fill="none" stroke="#000000" stroke-width="0.15" d="M360.075,648.075h36v36h-36V648.075z"/>
<path fill="none" stroke="#000000" stroke-width="0.15" d="M468.075,540.075h36v36h-36V540.075z"/>
<path fill="none" stroke="#000000" stroke-width="0.15" d="M504.075,36.075h36v36h-36V36.075z"/>
<path fill="none" stroke="#000000" stroke-width="0.15" d="M468.075,0.075h36v36h-36V0.075z"/>
<path fill="none" stroke="#000000" stroke-width="0.15" d="M288.075,0.075h36v36h-36V0.075z"/>
<path fill="none" stroke="#000000" stroke-width="0.15" d="M216.075,0.075h36v36h-36V0.075z"/>
<path fill="none" stroke="#000000" stroke-width="0.15" d="M360.075,0.075h36v36h-36V0.075z"/>
<path fill="none" stroke="#000000" stroke-width="0.15" d="M396.075,0.075h36v36h-36V0.075z"/>
<path fill="none" stroke="#000000" stroke-width="0.15" d="M324.075,0.075h36v36h-36V0.075z"/>
<path fill="none" stroke="#000000" stroke-width="0.15" d="M180.075,0.075h36v36h-36V0.075z"/>
<path fill="none" stroke="#000000" stroke-width="0.15" d="M252.075,0.075h36v36h-36L252.075,0.075z"/>
<path fill="none" stroke="#000000" stroke-width="0.15" d="M36.075,0.075h36v36h-36L36.075,0.075z"/>
<path fill="none" stroke="#000000" stroke-width="0.15" d="M0.075,360.075h36v36h-36L0.075,360.075z"/>
<path fill="none" stroke="#000000" stroke-width="0.15" d="M0.075,396.075h36v36h-36L0.075,396.075z"/>
<path fill="none" stroke="#000000" stroke-width="0.15" d="M0.075,324.075h36v36h-36L0.075,324.075z"/>
<path fill="none" stroke="#000000" stroke-width="0.15" d="M0.075,216.075h36v36h-36L0.075,216.075z"/>
<path fill="none" stroke="#000000" stroke-width="0.15" d="M0.075,432.075h36v36h-36L0.075,432.075z"/>
<path fill="none" stroke="#000000" stroke-width="0.15" d="M0.075,288.075h36v36h-36L0.075,288.075z"/>
<path fill="none" stroke="#000000" stroke-width="0.15" d="M0.075,252.075h36v36h-36L0.075,252.075z"/>
<path fill="none" stroke="#000000" stroke-width="0.15" d="M0.075,540.075h36v36h-36L0.075,540.075z"/>
<path fill="none" stroke="#000000" stroke-width="0.15" d="M0.075,612.075h36v36h-36L0.075,612.075z"/>
<path fill="none" stroke="#000000" stroke-width="0.15" d="M0.075,648.075h36v36h-36L0.075,648.075z"/>
<path fill="none" stroke="#000000" stroke-width="0.15" d="M0.075,576.075h36v36h-36L0.075,576.075z"/>
<path fill="none" stroke="#000000" stroke-width="0.15" d="M0.075,468.075h36v36h-36L0.075,468.075z"/>
<path fill="none" stroke="#000000" stroke-width="0.15" d="M0.075,180.075h36v36h-36L0.075,180.075z"/>
<path fill="none" stroke="#000000" stroke-width="0.15" d="M0.075,504.075h36v36h-36L0.075,504.075z"/>
<path fill="none" stroke="#000000" stroke-width="0.15" d="M0.075,108.075h36v36h-36L0.075,108.075z"/>
<path fill="none" stroke="#000000" stroke-width="0.15" d="M0.075,144.075h36v36h-36L0.075,144.075z"/>
<path fill="none" stroke="#000000" stroke-width="0.15" d="M0.075,72.075h36v36h-36L0.075,72.075z"/>
<path fill="none" stroke="#000000" stroke-width="0.15" d="M0.075,36.075h36v36h-36L0.075,36.075z"/>
<path fill="none" stroke="#000000" stroke-width="0.15" d="M0.075,0.075h36v36h-36L0.075,0.075z"/>
<path fill="none" stroke="#000000" stroke-width="0.15" d="M108.075,0.075h36v36h-36V0.075z"/>
<path fill="none" stroke="#000000" stroke-width="0.15" d="M72.075,0.075h36v36h-36V0.075z"/>
<path fill="none" stroke="#000000" stroke-width="0.15" d="M144.075,0.075h36v36h-36V0.075z"/>
<path fill="none" stroke="#000000" stroke-width="0.15" d="M432.075,0.075h36v36h-36V0.075z"/>
<path fill="none" stroke="#000000" stroke-width="0.15" d="M504.075,0.075h36v36h-36V0.075z"/>
<path fill="none" stroke="#000000" stroke-width="0.15" d="M504.075,396.075h36v36h-36V396.075z"/>
<path fill="none" stroke="#000000" stroke-width="0.15" d="M504.075,324.075h36v36h-36V324.075z"/>
<path fill="none" stroke="#000000" stroke-width="0.15" d="M504.075,288.075h36v36h-36V288.075z"/>
<path fill="none" stroke="#000000" stroke-width="0.15" d="M504.075,360.075h36v36h-36V360.075z"/>
<path fill="none" stroke="#000000" stroke-width="0.15" d="M504.075,432.075h36v36h-36V432.075z"/>
<path fill="none" stroke="#000000" stroke-width="0.15" d="M504.075,468.075h36v36h-36V468.075z"/>
<path fill="none" stroke="#000000" stroke-width="0.15" d="M504.075,252.075h36v36h-36V252.075z"/>
<path fill="none" stroke="#000000" stroke-width="0.15" d="M504.075,504.075h36v36h-36V504.075z"/>
<path fill="none" stroke="#000000" stroke-width="0.15" d="M504.075,72.075h36v36h-36V72.075z"/>
<path fill="none" stroke="#000000" stroke-width="0.15" d="M504.075,108.075h36v36h-36V108.075z"/>
<path fill="none" stroke="#000000" stroke-width="0.15" d="M504.075,144.075h36v36h-36V144.075z"/>
<path fill="none" stroke="#000000" stroke-width="0.15" d="M504.075,180.075h36v36h-36V180.075z"/>
<path fill="none" stroke="#000000" stroke-width="0.15" d="M504.075,216.075h36v36h-36V216.075z"/>
<path fill="none" stroke="#000000" stroke-width="0.15" d="M504.075,612.075h36v36h-36V612.075z"/>
<path fill="none" stroke="#000000" stroke-width="0.15" d="M504.075,648.075h36v36h-36V648.075z"/>
<path fill="none" stroke="#000000" stroke-width="0.15" d="M504.075,576.075h36v36h-36V576.075z"/>
<path fill="none" stroke="#000000" stroke-width="0.15" d="M504.075,540.075h36v36h-36V540.075z"/>
<path fill="none" stroke="#000000" stroke-width="0.15" d="M432.075,648.075h36v36h-36V648.075z"/>
<path fill="none" stroke="#000000" stroke-width="0.15" d="M36.075,684.075h36v36h-36L36.075,684.075z"/>
<path fill="none" stroke="#000000" stroke-width="0.15" d="M72.075,684.075h36v36h-36V684.075z"/>
<path fill="none" stroke="#000000" stroke-width="0.15" d="M396.075,684.075h36v36h-36V684.075z"/>
<path fill="none" stroke="#000000" stroke-width="0.15" d="M216.075,684.075h36v36h-36V684.075z"/>
<path fill="none" stroke="#000000" stroke-width="0.15" d="M252.075,684.075h36v36h-36L252.075,684.075z"/>
<path fill="none" stroke="#000000" stroke-width="0.15" d="M288.075,684.075h36v36h-36V684.075z"/>
<path fill="none" stroke="#000000" stroke-width="0.15" d="M180.075,684.075h36v36h-36V684.075z"/>
<path fill="none" stroke="#000000" stroke-width="0.15" d="M324.075,684.075h36v36h-36V684.075z"/>
<path fill="none" stroke="#000000" stroke-width="0.15" d="M144.075,684.075h36v36h-36V684.075z"/>
<path fill="none" stroke="#000000" stroke-width="0.15" d="M108.075,684.075h36v36h-36V684.075z"/>
<path fill="none" stroke="#000000" stroke-width="0.15" d="M468.075,684.075h36v36h-36V684.075z"/>
<path fill="none" stroke="#000000" stroke-width="0.15" d="M360.075,684.075h36v36h-36V684.075z"/>
<path fill="none" stroke="#000000" stroke-width="0.15" d="M0.075,684.075h36v36h-36L0.075,684.075z"/>
<path fill="none" stroke="#000000" stroke-width="0.15" d="M504.075,684.075h36v36h-36V684.075z"/>
<path fill="none" stroke="#000000" stroke-width="0.15" d="M432.075,684.075h36v36h-36V684.075z"/>
<path fill="none" stroke="#000000" stroke-width="0.15" d="M72.075,576.075h36v36h-36V576.075z"/>
<path fill="none" stroke="#000000" stroke-width="0.15" d="M72.075,108.075h36v36h-36V108.075z"/>
<path fill="none" stroke="#000000" stroke-width="0.15" d="M72.075,144.075h36v36h-36V144.075z"/>
<path fill="none" stroke="#000000" stroke-width="0.15" d="M72.075,180.075h36v36h-36V180.075z"/>
<path fill="none" stroke="#000000" stroke-width="0.15" d="M108.075,72.075h36v36h-36V72.075z"/>
<path fill="none" stroke="#000000" stroke-width="0.15" d="M72.075,72.075h36v36h-36V72.075z"/>
<path fill="none" stroke="#000000" stroke-width="0.15" d="M144.075,72.075h36v36h-36V72.075z"/>
<path fill="none" stroke="#000000" stroke-width="0.15" d="M72.075,216.075h36v36h-36V216.075z"/>
<path fill="none" stroke="#000000" stroke-width="0.15" d="M180.075,72.075h36v36h-36V72.075z"/>
<path fill="none" stroke="#000000" stroke-width="0.15" d="M72.075,252.075h36v36h-36V252.075z"/>
<path fill="none" stroke="#000000" stroke-width="0.15" d="M72.075,396.075h36v36h-36V396.075z"/>
<path fill="none" stroke="#000000" stroke-width="0.15" d="M72.075,468.075h36v36h-36V468.075z"/>
<path fill="none" stroke="#000000" stroke-width="0.15" d="M72.075,360.075h36v36h-36V360.075z"/>
<path fill="none" stroke="#000000" stroke-width="0.15" d="M72.075,324.075h36v36h-36V324.075z"/>
<path fill="none" stroke="#000000" stroke-width="0.15" d="M72.075,288.075h36v36h-36V288.075z"/>
<path fill="none" stroke="#000000" stroke-width="0.15" d="M72.075,432.075h36v36h-36V432.075z"/>
<path fill="none" stroke="#000000" stroke-width="0.15" d="M396.075,144.075h36v36h-36V144.075z"/>
<path fill="none" stroke="#000000" stroke-width="0.15" d="M396.075,216.075h36v36h-36V216.075z"/>
<path fill="none" stroke="#000000" stroke-width="0.15" d="M216.075,72.075h36v36h-36V72.075z"/>
<path fill="none" stroke="#000000" stroke-width="0.15" d="M396.075,252.075h36v36h-36V252.075z"/>
<path fill="none" stroke="#000000" stroke-width="0.15" d="M396.075,288.075h36v36h-36V288.075z"/>
<path fill="none" stroke="#000000" stroke-width="0.15" d="M396.075,360.075h36v36h-36V360.075z"/>
<path fill="none" stroke="#000000" stroke-width="0.15" d="M396.075,324.075h36v36h-36V324.075z"/>
<path fill="none" stroke="#000000" stroke-width="0.15" d="M396.075,180.075h36v36h-36V180.075z"/>
<path fill="none" stroke="#000000" stroke-width="0.15" d="M288.075,72.075h36v36h-36V72.075z"/>
<path fill="none" stroke="#000000" stroke-width="0.15" d="M252.075,72.075h36v36h-36L252.075,72.075z"/>
<path fill="none" stroke="#000000" stroke-width="0.15" d="M396.075,108.075h36v36h-36V108.075z"/>
<path fill="none" stroke="#000000" stroke-width="0.15" d="M324.075,72.075h36v36h-36V72.075z"/>
<path fill="none" stroke="#000000" stroke-width="0.15" d="M360.075,72.075h36v36h-36V72.075z"/>
<path fill="none" stroke="#000000" stroke-width="0.15" d="M396.075,72.075h36v36h-36V72.075z"/>
<path fill="none" stroke="#000000" stroke-width="0.15" d="M72.075,540.075h36v36h-36V540.075z"/>
<path fill="none" stroke="#000000" stroke-width="0.15" d="M432.075,432.075h36v36h-36V432.075z"/>
<path fill="none" stroke="#000000" stroke-width="0.15" d="M432.075,396.075h36v36h-36V396.075z"/>
<path fill="none" stroke="#000000" stroke-width="0.15" d="M432.075,360.075h36v36h-36V360.075z"/>
<path fill="none" stroke="#000000" stroke-width="0.15" d="M432.075,540.075h36v36h-36V540.075z"/>
<path fill="none" stroke="#000000" stroke-width="0.15" d="M432.075,324.075h36v36h-36V324.075z"/>
<path fill="none" stroke="#000000" stroke-width="0.15" d="M432.075,504.075h36v36h-36V504.075z"/>
<path fill="none" stroke="#000000" stroke-width="0.15" d="M432.075,468.075h36v36h-36V468.075z"/>
<path fill="none" stroke="#000000" stroke-width="0.15" d="M432.075,252.075h36v36h-36V252.075z"/>
<path fill="none" stroke="#000000" stroke-width="0.15" d="M432.075,180.075h36v36h-36V180.075z"/>
<path fill="none" stroke="#000000" stroke-width="0.15" d="M432.075,144.075h36v36h-36V144.075z"/>
<path fill="none" stroke="#000000" stroke-width="0.15" d="M432.075,108.075h36v36h-36V108.075z"/>
<path fill="none" stroke="#000000" stroke-width="0.15" d="M432.075,576.075h36v36h-36V576.075z"/>
<path fill="none" stroke="#000000" stroke-width="0.15" d="M432.075,216.075h36v36h-36V216.075z"/>
<path fill="none" stroke="#000000" stroke-width="0.15" d="M432.075,288.075h36v36h-36V288.075z"/>
<path fill="none" stroke="#000000" stroke-width="0.15" d="M108.075,612.075h36v36h-36V612.075z"/>
<path fill="none" stroke="#000000" stroke-width="0.15" d="M72.075,612.075h36v36h-36V612.075z"/>
<path fill="none" stroke="#000000" stroke-width="0.15" d="M432.075,612.075h36v36h-36V612.075z"/>
<path fill="none" stroke="#000000" stroke-width="0.15" d="M180.075,612.075h36v36h-36V612.075z"/>
<path fill="none" stroke="#000000" stroke-width="0.15" d="M144.075,612.075h36v36h-36V612.075z"/>
<path fill="none" stroke="#000000" stroke-width="0.15" d="M396.075,396.075h36v36h-36V396.075z"/>
<path fill="none" stroke="#000000" stroke-width="0.15" d="M432.075,72.075h36v36h-36V72.075z"/>
<path fill="none" stroke="#000000" stroke-width="0.15" d="M72.075,504.075h36v36h-36V504.075z"/>
<path fill="none" stroke="#000000" stroke-width="0.15" d="M324.075,612.075h36v36h-36V612.075z"/>
<path fill="none" stroke="#000000" stroke-width="0.15" d="M216.075,612.075h36v36h-36V612.075z"/>
<path fill="none" stroke="#000000" stroke-width="0.15" d="M396.075,612.075h36v36h-36V612.075z"/>
<path fill="none" stroke="#000000" stroke-width="0.15" d="M360.075,612.075h36v36h-36V612.075z"/>
<path fill="none" stroke="#000000" stroke-width="0.15" d="M288.075,612.075h36v36h-36V612.075z"/>
<path fill="none" stroke="#000000" stroke-width="0.15" d="M252.075,612.075h36v36h-36L252.075,612.075z"/>
</svg>
