<svg baseProfile="tiny" xmlns="http://www.w3.org/2000/svg"><path d="M324.623 83.698h43.901v16.725h-43.901V83.698z"/><path d="M249.524 83.698h75.099v16.725h-75.099V83.698z"/><path d="M399.688 83.698h24.186v16.725h-24.186V83.698z"/><path d="M368.524 83.698h31.163v16.725h-31.163V83.698z"/><path d="M225.337 83.698h12.774v16.725h-12.774V83.698z"/><path d="M174.424 83.698h19.75v16.725h-19.75V83.698z"/><path d="M194.175 83.698h16.708v16.725h-16.708V83.698z"/><path d="M399.688 284.394h24.186v16.725h-24.186v-16.725z"/><path d="M399.688 100.423h24.186v16.725h-24.186v-16.725z"/><path d="M210.883 83.698h14.454v16.725h-14.454V83.698z"/><path d="M174.424 100.423h19.75v16.725h-19.75v-16.725z"/><path d="M399.688 200.771h24.186v16.725h-24.186v-16.725z"/><path d="M399.688 234.22h24.186v16.725h-24.186V234.22z"/><path d="M399.688 217.495h24.186v16.725h-24.186v-16.725z"/><path d="M399.688 250.944h24.186v16.725h-24.186v-16.725z"/><path d="M399.688 267.669h24.186v16.725h-24.186v-16.725z"/><path d="M399.688 133.872h24.186v16.725h-24.186v-16.725z"/><path d="M399.688 117.147h24.186v16.725h-24.186v-16.725z"/><path d="M399.688 184.046h24.186v16.725h-24.186v-16.725z"/><path d="M399.688 150.597h24.186v16.725h-24.186v-16.725z"/><path d="M399.688 167.321h24.186v16.725h-24.186v-16.725z"/><path d="M238.111 83.698h11.413v16.725h-11.413V83.698z"/><path d="M174.424 384.741h19.75v16.725h-19.75v-16.725z"/><path d="M174.424 368.017h19.75v16.725h-19.75v-16.725z"/><path d="M174.424 334.567h19.75v16.725h-19.75v-16.725z"/><path d="M174.424 351.292h19.75v16.725h-19.75v-16.725z"/><path d="M174.424 401.466h19.75v16.725h-19.75v-16.725z"/><path d="M174.424 451.64h19.75v16.725h-19.75V451.64z"/><path d="M174.424 317.843h19.75v16.725h-19.75v-16.725z"/><path d="M174.424 117.147h19.75v16.725h-19.75v-16.725z"/><path d="M174.424 434.915h19.75v16.725h-19.75v-16.725z"/><path d="M174.424 418.19h19.75v16.725h-19.75V418.19z"/><path d="M174.424 468.364h19.75v16.725h-19.75v-16.725z"/><path d="M174.424 167.321h19.75v16.725h-19.75v-16.725z"/><path d="M174.424 184.046h19.75v16.725h-19.75v-16.725z"/><path d="M174.424 150.597h19.75v16.725h-19.75v-16.725z"/><path d="M174.424 133.872h19.75v16.725h-19.75v-16.725z"/><path d="M174.424 200.771h19.75v16.725h-19.75v-16.725z"/><path d="M174.424 267.669h19.75v16.725h-19.75v-16.725z"/><path d="M174.424 301.118h19.75v16.725h-19.75v-16.725z"/><path d="M174.424 234.22h19.75v16.725h-19.75V234.22z"/><path d="M174.424 284.394h19.75v16.725h-19.75v-16.725z"/><path d="M174.424 250.944h19.75v16.725h-19.75v-16.725z"/><path d="M174.424 217.495h19.75v16.725h-19.75v-16.725z"/><path d="M194.175 468.364h16.708v16.725h-16.708v-16.725z"/><path d="M194.175 485.089h16.708v16.725h-16.708v-16.725z"/><path d="M194.175 451.64h16.708v16.725h-16.708V451.64z"/><path d="M194.175 418.19h16.708v16.725h-16.708V418.19z"/><path d="M194.175 434.915h16.708v16.725h-16.708v-16.725z"/><path d="M194.175 501.813h16.708v16.725h-16.708v-16.725z"/><path d="M194.175 518.538h16.708v16.725h-16.708v-16.725z"/><path d="M194.175 568.712h16.708v16.725h-16.708v-16.725z"/><path d="M194.175 551.987h16.708v16.725h-16.708v-16.725z"/><path d="M194.175 535.263h16.708v16.725h-16.708v-16.725z"/><path d="M194.175 368.017h16.708v16.725h-16.708v-16.725z"/><path d="M194.175 284.394h16.708v16.725h-16.708v-16.725z"/><path d="M194.175 301.118h16.708v16.725h-16.708v-16.725z"/><path d="M194.175 250.944h16.708v16.725h-16.708v-16.725z"/><path d="M194.175 317.843h16.708v16.725h-16.708v-16.725z"/><path d="M194.175 401.466h16.708v16.725h-16.708v-16.725z"/><path d="M194.175 267.669h16.708v16.725h-16.708v-16.725z"/><path d="M194.175 334.567h16.708v16.725h-16.708v-16.725z"/><path d="M194.175 384.741h16.708v16.725h-16.708v-16.725z"/><path d="M210.883 568.712h14.454v16.725h-14.454v-16.725z"/><path d="M194.175 351.292h16.708v16.725h-16.708v-16.725z"/><path d="M399.688 451.64h24.186v16.725h-24.186V451.64z"/><path d="M399.688 401.466h24.186v16.725h-24.186v-16.725z"/><path d="M399.688 418.19h24.186v16.725h-24.186V418.19z"/><path d="M399.688 468.364h24.186v16.725h-24.186v-16.725z"/><path d="M399.688 384.741h24.186v16.725h-24.186v-16.725z"/><path d="M399.688 434.915h24.186v16.725h-24.186v-16.725z"/><path d="M399.688 301.118h24.186v16.725h-24.186v-16.725z"/><path d="M399.688 317.843h24.186v16.725h-24.186v-16.725z"/><path d="M399.688 334.567h24.186v16.725h-24.186v-16.725z"/><path d="M399.688 351.292h24.186v16.725h-24.186v-16.725z"/><path d="M399.688 368.017h24.186v16.725h-24.186v-16.725z"/><path d="M225.337 568.712h12.774v16.725h-12.774v-16.725z"/><path d="M399.688 485.089h24.186v16.725h-24.186v-16.725z"/><path d="M324.623 568.712h43.901v16.725h-43.901v-16.725z"/><path d="M368.524 568.712h31.163v16.725h-31.163v-16.725z"/><path d="M249.524 568.712h75.099v16.725h-75.099v-16.725z"/><path d="M238.111 568.712h11.413v16.725h-11.413v-16.725z"/><path d="M399.688 568.712h24.186v16.725h-24.186v-16.725z"/><path d="M399.688 501.813h24.186v16.725h-24.186v-16.725z"/><path d="M399.688 518.538h24.186v16.725h-24.186v-16.725z"/><path d="M399.688 551.987h24.186v16.725h-24.186v-16.725z"/><path d="M399.688 535.263h24.186v16.725h-24.186v-16.725z"/><path d="M150.239 351.292h24.186v16.725h-24.186v-16.725z"/><path d="M150.239 100.423h24.186v16.725h-24.186v-16.725z"/><path d="M150.239 117.147h24.186v16.725h-24.186v-16.725z"/><path d="M150.239 83.698h24.186v16.725h-24.186V83.698z"/><path d="M150.239 133.872h24.186v16.725h-24.186v-16.725z"/><path d="M150.239 66.974h24.186v16.725h-24.186V66.974z"/><path d="M150.239 184.046h24.186v16.725h-24.186v-16.725z"/><path d="M174.424 66.974h19.75v16.725h-19.75V66.974z"/><path d="M150.239 150.597h24.186v16.725h-24.186v-16.725z"/><path d="M150.239 200.771h24.186v16.725h-24.186v-16.725z"/><path d="M150.239 167.321h24.186v16.725h-24.186v-16.725z"/><path d="M423.873 66.974h19.751v16.725h-19.751V66.974z"/><path d="M368.524 66.974h31.163v16.725h-31.163V66.974z"/><path d="M423.873 100.423h19.751v16.725h-19.751v-16.725z"/><path d="M399.688 66.974h24.186v16.725h-24.186V66.974z"/><path d="M150.239 217.495h24.186v16.725h-24.186v-16.725z"/><path d="M423.873 83.698h19.751v16.725h-19.751V83.698z"/><path d="M249.524 66.974h75.099v16.725h-75.099V66.974z"/><path d="M210.883 66.974h14.454v16.725h-14.454V66.974z"/><path d="M225.337 66.974h12.774v16.725h-12.774V66.974z"/><path d="M194.175 66.974h16.708v16.725h-16.708V66.974z"/><path d="M238.111 66.974h11.413v16.725h-11.413V66.974z"/><path d="M324.623 66.974h43.901v16.725h-43.901V66.974z"/><path d="M150.239 468.364h24.186v16.725h-24.186v-16.725z"/><path d="M150.239 485.089h24.186v16.725h-24.186v-16.725z"/><path d="M150.239 501.813h24.186v16.725h-24.186v-16.725z"/><path d="M150.239 451.64h24.186v16.725h-24.186V451.64z"/><path d="M150.239 234.22h24.186v16.725h-24.186V234.22z"/><path d="M150.239 535.263h24.186v16.725h-24.186v-16.725z"/><path d="M150.239 551.987h24.186v16.725h-24.186v-16.725z"/><path d="M150.239 518.538h24.186v16.725h-24.186v-16.725z"/><path d="M150.239 568.712h24.186v16.725h-24.186v-16.725z"/><path d="M150.239 418.19h24.186v16.725h-24.186V418.19z"/><path d="M150.239 434.915h24.186v16.725h-24.186v-16.725z"/><path d="M150.239 401.466h24.186v16.725h-24.186v-16.725z"/><path d="M150.239 301.118h24.186v16.725h-24.186v-16.725z"/><path d="M174.424 485.089h19.75v16.725h-19.75v-16.725z"/><path d="M150.239 267.669h24.186v16.725h-24.186v-16.725z"/><path d="M150.239 317.843h24.186v16.725h-24.186v-16.725z"/><path d="M150.239 284.394h24.186v16.725h-24.186v-16.725z"/><path d="M150.239 384.741h24.186v16.725h-24.186v-16.725z"/><path d="M150.239 368.017h24.186v16.725h-24.186v-16.725z"/><path d="M194.175 234.22h16.708v16.725h-16.708V234.22z"/><path d="M150.239 334.567h24.186v16.725h-24.186v-16.725z"/><path d="M150.239 250.944h24.186v16.725h-24.186v-16.725z"/><path d="M423.873 568.712h19.751v16.725h-19.751v-16.725z"/><path d="M399.688 585.437h24.186v16.725h-24.186v-16.725z"/><path d="M423.873 485.089h19.751v16.725h-19.751v-16.725z"/><path d="M249.524 585.437h75.099v16.725h-75.099v-16.725z"/><path d="M368.524 585.437h31.163v16.725h-31.163v-16.725z"/><path d="M324.623 585.437h43.901v16.725h-43.901v-16.725z"/><path d="M423.873 501.813h19.751v16.725h-19.751v-16.725z"/><path d="M423.873 551.987h19.751v16.725h-19.751v-16.725z"/><path d="M423.873 518.538h19.751v16.725h-19.751v-16.725z"/><path d="M423.873 535.263h19.751v16.725h-19.751v-16.725z"/><path d="M423.873 585.437h19.751v16.725h-19.751v-16.725z"/><path d="M174.424 568.712h19.75v16.725h-19.75v-16.725z"/><path d="M174.424 535.263h19.75v16.725h-19.75v-16.725z"/><path d="M238.111 585.437h11.413v16.725h-11.413v-16.725z"/><path d="M174.424 518.538h19.75v16.725h-19.75v-16.725z"/><path d="M174.424 501.813h19.75v16.725h-19.75v-16.725z"/><path d="M174.424 551.987h19.75v16.725h-19.75v-16.725z"/><path d="M174.424 585.437h19.75v16.725h-19.75v-16.725z"/><path d="M210.883 585.437h14.454v16.725h-14.454v-16.725z"/><path d="M423.873 117.147h19.751v16.725h-19.751v-16.725z"/><path d="M194.175 585.437h16.708v16.725h-16.708v-16.725z"/><path d="M225.337 585.437h12.774v16.725h-12.774v-16.725z"/><path d="M423.873 217.495h19.751v16.725h-19.751v-16.725z"/><path d="M423.873 200.771h19.751v16.725h-19.751v-16.725z"/><path d="M423.873 234.22h19.751v16.725h-19.751V234.22z"/><path d="M423.873 267.669h19.751v16.725h-19.751v-16.725z"/><path d="M423.873 250.944h19.751v16.725h-19.751v-16.725z"/><path d="M423.873 468.364h19.751v16.725h-19.751v-16.725z"/><path d="M423.873 133.872h19.751v16.725h-19.751v-16.725z"/><path d="M423.873 150.597h19.751v16.725h-19.751v-16.725z"/><path d="M423.873 167.321h19.751v16.725h-19.751v-16.725z"/><path d="M423.873 184.046h19.751v16.725h-19.751v-16.725z"/><path d="M423.873 284.394h19.751v16.725h-19.751v-16.725z"/><path d="M423.873 384.741h19.751v16.725h-19.751v-16.725z"/><path d="M423.873 418.19h19.751v16.725h-19.751V418.19z"/><path d="M423.873 301.118h19.751v16.725h-19.751v-16.725z"/><path d="M423.873 451.64h19.751v16.725h-19.751V451.64z"/><path d="M423.873 434.915h19.751v16.725h-19.751v-16.725z"/><path d="M423.873 401.466h19.751v16.725h-19.751v-16.725z"/><path d="M423.873 317.843h19.751v16.725h-19.751v-16.725z"/><path d="M423.873 334.567h19.751v16.725h-19.751v-16.725z"/><path d="M423.873 368.017h19.751v16.725h-19.751v-16.725z"/><path d="M423.873 351.292h19.751v16.725h-19.751v-16.725z"/><path d="M225.337 485.089h12.774v16.725h-12.774v-16.725z"/><path d="M225.337 317.843h12.774v16.725h-12.774v-16.725z"/><path d="M225.337 301.118h12.774v16.725h-12.774v-16.725z"/><path d="M225.337 284.394h12.774v16.725h-12.774v-16.725z"/><path d="M225.337 250.944h12.774v16.725h-12.774v-16.725z"/><path d="M225.337 234.22h12.774v16.725h-12.774V234.22z"/><path d="M225.337 267.669h12.774v16.725h-12.774v-16.725z"/><path d="M225.337 368.017h12.774v16.725h-12.774v-16.725z"/><path d="M225.337 384.741h12.774v16.725h-12.774v-16.725z"/><path d="M225.337 351.292h12.774v16.725h-12.774v-16.725z"/><path d="M225.337 334.567h12.774v16.725h-12.774v-16.725z"/><path d="M225.337 150.597h12.774v16.725h-12.774v-16.725z"/><path d="M249.524 133.872h75.099v16.725h-75.099v-16.725z"/><path d="M249.524 184.046h75.099v16.725h-75.099v-16.725z"/><path d="M238.111 133.872h11.413v16.725h-11.413v-16.725z"/><path d="M249.524 150.597h75.099v16.725h-75.099v-16.725z"/><path d="M249.524 167.321h75.099v16.725h-75.099v-16.725z"/><path d="M225.337 133.872h12.774v16.725h-12.774v-16.725z"/><path d="M225.337 200.771h12.774v16.725h-12.774v-16.725z"/><path d="M225.337 184.046h12.774v16.725h-12.774v-16.725z"/><path d="M225.337 401.466h12.774v16.725h-12.774v-16.725z"/><path d="M225.337 167.321h12.774v16.725h-12.774v-16.725z"/><path d="M225.337 217.495h12.774v16.725h-12.774v-16.725z"/><path d="M324.623 451.64h43.901v16.725h-43.901V451.64z"/><path d="M324.623 434.915h43.901v16.725h-43.901v-16.725z"/><path d="M324.623 468.364h43.901v16.725h-43.901v-16.725z"/><path d="M324.623 501.813h43.901v16.725h-43.901v-16.725z"/><path d="M324.623 518.538h43.901v16.725h-43.901v-16.725z"/><path d="M324.623 485.089h43.901v16.725h-43.901v-16.725z"/><path d="M324.623 418.19h43.901v16.725h-43.901V418.19z"/><path d="M324.623 384.741h43.901v16.725h-43.901v-16.725z"/><path d="M324.623 368.017h43.901v16.725h-43.901v-16.725z"/><path d="M324.623 401.466h43.901v16.725h-43.901v-16.725z"/><path d="M150.239 585.437h24.186v16.725h-24.186v-16.725z"/><path d="M225.337 501.813h12.774v16.725h-12.774v-16.725z"/><path d="M225.337 468.364h12.774v16.725h-12.774v-16.725z"/><path d="M225.337 418.19h12.774v16.725h-12.774V418.19z"/><path d="M225.337 434.915h12.774v16.725h-12.774v-16.725z"/><path d="M225.337 451.64h12.774v16.725h-12.774V451.64z"/><path d="M238.111 535.263h11.413v16.725h-11.413v-16.725z"/><path d="M324.623 535.263h43.901v16.725h-43.901v-16.725z"/><path d="M249.524 535.263h75.099v16.725h-75.099v-16.725z"/><path d="M225.337 518.538h12.774v16.725h-12.774v-16.725z"/><path d="M225.337 535.263h12.774v16.725h-12.774v-16.725z"/><path d="M238.111 250.944h11.413v16.725h-11.413v-16.725z"/><path d="M238.111 384.741h11.413v16.725h-11.413v-16.725z"/><path d="M238.111 368.017h11.413v16.725h-11.413v-16.725z"/><path d="M238.111 351.292h11.413v16.725h-11.413v-16.725z"/><path d="M238.111 334.567h11.413v16.725h-11.413v-16.725z"/><path d="M238.111 401.466h11.413v16.725h-11.413v-16.725z"/><path d="M238.111 418.19h11.413v16.725h-11.413V418.19z"/><path d="M238.111 468.364h11.413v16.725h-11.413v-16.725z"/><path d="M238.111 451.64h11.413v16.725h-11.413V451.64z"/><path d="M238.111 317.843h11.413v16.725h-11.413v-16.725z"/><path d="M238.111 434.915h11.413v16.725h-11.413v-16.725z"/><path d="M238.111 267.669h11.413v16.725h-11.413v-16.725z"/><path d="M238.111 217.495h11.413v16.725h-11.413v-16.725z"/><path d="M238.111 200.771h11.413v16.725h-11.413v-16.725z"/><path d="M238.111 301.118h11.413v16.725h-11.413v-16.725z"/><path d="M238.111 150.597h11.413v16.725h-11.413v-16.725z"/><path d="M238.111 167.321h11.413v16.725h-11.413v-16.725z"/><path d="M238.111 184.046h11.413v16.725h-11.413v-16.725z"/><path d="M238.111 284.394h11.413v16.725h-11.413v-16.725z"/><path d="M238.111 234.22h11.413v16.725h-11.413V234.22z"/><path d="M238.111 485.089h11.413v16.725h-11.413v-16.725z"/><path d="M324.623 351.292h43.901v16.725h-43.901v-16.725z"/><path d="M249.524 501.813h75.099v16.725h-75.099v-16.725z"/><path d="M249.524 301.118h75.099v16.725h-75.099v-16.725z"/><path d="M249.524 317.843h75.099v16.725h-75.099v-16.725z"/><path d="M249.524 334.567h75.099v16.725h-75.099v-16.725z"/><path d="M249.524 368.017h75.099v16.725h-75.099v-16.725z"/><path d="M249.524 284.394h75.099v16.725h-75.099v-16.725z"/><path d="M249.524 351.292h75.099v16.725h-75.099v-16.725z"/><path d="M249.524 234.22h75.099v16.725h-75.099V234.22z"/><path d="M249.524 267.669h75.099v16.725h-75.099v-16.725z"/><path d="M249.524 217.495h75.099v16.725h-75.099v-16.725z"/><path d="M249.524 250.944h75.099v16.725h-75.099v-16.725z"/><path d="M249.524 434.915h75.099v16.725h-75.099v-16.725z"/><path d="M249.524 200.771h75.099v16.725h-75.099v-16.725z"/><path d="M249.524 485.089h75.099v16.725h-75.099v-16.725z"/><path d="M249.524 384.741h75.099v16.725h-75.099v-16.725z"/><path d="M249.524 468.364h75.099v16.725h-75.099v-16.725z"/><path d="M249.524 518.538h75.099v16.725h-75.099v-16.725z"/><path d="M238.111 518.538h11.413v16.725h-11.413v-16.725z"/><path d="M249.524 418.19h75.099v16.725h-75.099V418.19z"/><path d="M249.524 451.64h75.099v16.725h-75.099V451.64z"/><path d="M249.524 401.466h75.099v16.725h-75.099v-16.725z"/><path d="M238.111 501.813h11.413v16.725h-11.413v-16.725z"/><path d="M368.524 167.321h31.163v16.725h-31.163v-16.725z"/><path d="M368.524 368.017h31.163v16.725h-31.163v-16.725z"/><path d="M368.524 351.292h31.163v16.725h-31.163v-16.725z"/><path d="M368.524 401.466h31.163v16.725h-31.163v-16.725z"/><path d="M368.524 334.567h31.163v16.725h-31.163v-16.725z"/><path d="M368.524 384.741h31.163v16.725h-31.163v-16.725z"/><path d="M368.524 317.843h31.163v16.725h-31.163v-16.725z"/><path d="M368.524 267.669h31.163v16.725h-31.163v-16.725z"/><path d="M368.524 250.944h31.163v16.725h-31.163v-16.725z"/><path d="M368.524 301.118h31.163v16.725h-31.163v-16.725z"/><path d="M368.524 418.19h31.163v16.725h-31.163V418.19z"/><path d="M368.524 284.394h31.163v16.725h-31.163v-16.725z"/><path d="M368.524 535.263h31.163v16.725h-31.163v-16.725z"/><path d="M368.524 551.987h31.163v16.725h-31.163v-16.725z"/><path d="M249.524 551.987h75.099v16.725h-75.099v-16.725z"/><path d="M368.524 518.538h31.163v16.725h-31.163v-16.725z"/><path d="M324.623 551.987h43.901v16.725h-43.901v-16.725z"/><path d="M368.524 434.915h31.163v16.725h-31.163v-16.725z"/><path d="M368.524 451.64h31.163v16.725h-31.163V451.64z"/><path d="M368.524 501.813h31.163v16.725h-31.163v-16.725z"/><path d="M368.524 468.364h31.163v16.725h-31.163v-16.725z"/><path d="M368.524 485.089h31.163v16.725h-31.163v-16.725z"/><path d="M368.524 184.046h31.163v16.725h-31.163v-16.725z"/><path d="M194.175 133.872h16.708v16.725h-16.708v-16.725z"/><path d="M194.175 117.147h16.708v16.725h-16.708v-16.725z"/><path d="M194.175 100.423h16.708v16.725h-16.708v-16.725z"/><path d="M210.883 100.423h14.454v16.725h-14.454v-16.725z"/><path d="M225.337 100.423h12.774v16.725h-12.774v-16.725z"/><path d="M194.175 184.046h16.708v16.725h-16.708v-16.725z"/><path d="M194.175 200.771h16.708v16.725h-16.708v-16.725z"/><path d="M238.111 100.423h11.413v16.725h-11.413v-16.725z"/><path d="M194.175 167.321h16.708v16.725h-16.708v-16.725z"/><path d="M194.175 150.597h16.708v16.725h-16.708v-16.725z"/><path d="M324.623 100.423h43.901v16.725h-43.901v-16.725z"/><path d="M368.524 150.597h31.163v16.725h-31.163v-16.725z"/><path d="M194.175 217.495h16.708v16.725h-16.708v-16.725z"/><path d="M238.111 551.987h11.413v16.725h-11.413v-16.725z"/><path d="M368.524 217.495h31.163v16.725h-31.163v-16.725z"/><path d="M368.524 200.771h31.163v16.725h-31.163v-16.725z"/><path d="M368.524 133.872h31.163v16.725h-31.163v-16.725z"/><path d="M368.524 234.22h31.163v16.725h-31.163V234.22z"/><path d="M249.524 100.423h75.099v16.725h-75.099v-16.725z"/><path d="M368.524 100.423h31.163v16.725h-31.163v-16.725z"/><path d="M368.524 117.147h31.163v16.725h-31.163v-16.725z"/><path d="M210.883 485.089h14.454v16.725h-14.454v-16.725z"/><path d="M238.111 117.147h11.413v16.725h-11.413v-16.725z"/><path d="M225.337 117.147h12.774v16.725h-12.774v-16.725z"/><path d="M210.883 117.147h14.454v16.725h-14.454v-16.725z"/><path d="M249.524 117.147h75.099v16.725h-75.099v-16.725z"/><path d="M324.623 133.872h43.901v16.725h-43.901v-16.725z"/><path d="M324.623 117.147h43.901v16.725h-43.901v-16.725z"/><path d="M210.883 184.046h14.454v16.725h-14.454v-16.725z"/><path d="M210.883 167.321h14.454v16.725h-14.454v-16.725z"/><path d="M210.883 150.597h14.454v16.725h-14.454v-16.725z"/><path d="M210.883 133.872h14.454v16.725h-14.454v-16.725z"/><path d="M324.623 217.495h43.901v16.725h-43.901v-16.725z"/><path d="M324.623 250.944h43.901v16.725h-43.901v-16.725z"/><path d="M324.623 267.669h43.901v16.725h-43.901v-16.725z"/><path d="M324.623 234.22h43.901v16.725h-43.901V234.22z"/><path d="M324.623 284.394h43.901v16.725h-43.901v-16.725z"/><path d="M324.623 301.118h43.901v16.725h-43.901v-16.725z"/><path d="M210.883 200.771h14.454v16.725h-14.454v-16.725z"/><path d="M225.337 551.987h12.774v16.725h-12.774v-16.725z"/><path d="M324.623 184.046h43.901v16.725h-43.901v-16.725z"/><path d="M324.623 167.321h43.901v16.725h-43.901v-16.725z"/><path d="M324.623 200.771h43.901v16.725h-43.901v-16.725z"/><path d="M324.623 150.597h43.901v16.725h-43.901v-16.725z"/><path d="M210.883 468.364h14.454v16.725h-14.454v-16.725z"/><path d="M324.623 317.843h43.901v16.725h-43.901v-16.725z"/><path d="M210.883 451.64h14.454v16.725h-14.454V451.64z"/><path d="M210.883 434.915h14.454v16.725h-14.454v-16.725z"/><path d="M210.883 418.19h14.454v16.725h-14.454V418.19z"/><path d="M210.883 518.538h14.454v16.725h-14.454v-16.725z"/><path d="M210.883 501.813h14.454v16.725h-14.454v-16.725z"/><path d="M210.883 535.263h14.454v16.725h-14.454v-16.725z"/><path d="M210.883 551.987h14.454v16.725h-14.454v-16.725z"/><path d="M210.883 401.466h14.454v16.725h-14.454v-16.725z"/><path d="M210.883 351.292h14.454v16.725h-14.454v-16.725z"/><path d="M210.883 267.669h14.454v16.725h-14.454v-16.725z"/><path d="M210.883 284.394h14.454v16.725h-14.454v-16.725z"/><path d="M210.883 234.22h14.454v16.725h-14.454V234.22z"/><path d="M210.883 250.944h14.454v16.725h-14.454v-16.725z"/><path d="M210.883 301.118h14.454v16.725h-14.454v-16.725z"/><path d="M210.883 384.741h14.454v16.725h-14.454v-16.725z"/><path d="M210.883 368.017h14.454v16.725h-14.454v-16.725z"/><path d="M210.883 217.495h14.454v16.725h-14.454v-16.725z"/><path d="M210.883 334.567h14.454v16.725h-14.454v-16.725z"/><path d="M210.883 317.843h14.454v16.725h-14.454v-16.725z"/><path d="M324.623 334.567h43.901v16.725h-43.901v-16.725z"/><path d="M474.786 117.147h12.773v16.725h-12.773v-16.725z"/><path d="M474.786 100.423h12.773v16.725h-12.773v-16.725z"/><path d="M474.786 133.872h12.773v16.725h-12.773v-16.725z"/><path d="M474.786 83.698h12.773v16.725h-12.773V83.698z"/><path d="M474.786 150.597h12.773v16.725h-12.773v-16.725z"/><path d="M474.786 33.524h12.773v16.725h-12.773V33.524z"/><path d="M474.786 66.974h12.773v16.725h-12.773V66.974z"/><path d="M474.786 16.8h12.773v16.725h-12.773V16.8z"/><path d="M474.786 167.321h12.773v16.725h-12.773v-16.725z"/><path d="M474.786 351.292h12.773v16.725h-12.773v-16.725z"/><path d="M474.786 334.567h12.773v16.725h-12.773v-16.725z"/><path d="M474.786 301.118h12.773v16.725h-12.773v-16.725z"/><path d="M474.786 184.046h12.773v16.725h-12.773v-16.725z"/><path d="M474.786 284.394h12.773v16.725h-12.773v-16.725z"/><path d="M.075 133.872h75.099v16.725H.075v-16.725z"/><path d="M460.332 16.8h14.454v16.725h-14.454V16.8z"/><path d="M474.786 267.669h12.773v16.725h-12.773v-16.725z"/><path d="M474.786 200.771h12.773v16.725h-12.773v-16.725z"/><path d="M474.786 217.495h12.773v16.725h-12.773v-16.725z"/><path d="M474.786 250.944h12.773v16.725h-12.773v-16.725z"/><path d="M474.786 234.22h12.773v16.725h-12.773V234.22z"/><path d="M474.786 50.249h12.773v16.725h-12.773V50.249z"/><path d="M.075 33.524h75.099v16.725H.075V33.524z"/><path d="M.075 50.249h75.099v16.725H.075V50.249z"/><path d="M443.624 16.8h16.708v16.725h-16.708V16.8z"/><path d="M75.174 16.8h43.901v16.725H75.174V16.8z"/><path d="M119.075 16.8h31.164v16.725h-31.164V16.8z"/><path d="M.075 83.698h75.099v16.725H.075V83.698z"/><path d="M.075 100.423h75.099v16.725H.075v-16.725z"/><path d="M.075 117.147h75.099v16.725H.075v-16.725z"/><path d="M.075 66.974h75.099v16.725H.075V66.974z"/><path d="M150.239 16.8h24.186v16.725h-24.186V16.8z"/><path d="M.075 16.8h75.099v16.725H.075V16.8z"/><path d="M249.524 16.8h75.099v16.725h-75.099V16.8z"/><path d="M174.424 16.8h19.75v16.725h-19.75V16.8z"/><path d="M324.623 16.8h43.901v16.725h-43.901V16.8z"/><path d="M423.873 16.8h19.751v16.725h-19.751V16.8z"/><path d="M399.688 16.8h24.186v16.725h-24.186V16.8z"/><path d="M368.524 16.8h31.163v16.725h-31.163V16.8z"/><path d="M210.883 16.8h14.454v16.725h-14.454V16.8z"/><path d="M194.175 16.8h16.708v16.725h-16.708V16.8z"/><path d="M238.111 16.8h11.413v16.725h-11.413V16.8z"/><path d="M225.337 16.8h12.774v16.725h-12.774V16.8z"/><path d="M474.786 317.843h12.773v16.725h-12.773v-16.725z"/><path d="M194.175 635.61h16.708v16.725h-16.708V635.61z"/><path d="M75.174 618.886h43.901v16.725H75.174v-16.725z"/><path d="M174.424 635.61h19.75v16.725h-19.75V635.61z"/><path d="M119.075 635.61h31.164v16.725h-31.164V635.61z"/><path d="M75.174 635.61h43.901v16.725H75.174V635.61z"/><path d="M150.239 602.161h24.186v16.725h-24.186v-16.725z"/><path d="M249.524 635.61h75.099v16.725h-75.099V635.61z"/><path d="M238.111 635.61h11.413v16.725h-11.413V635.61z"/><path d="M225.337 635.61h12.774v16.725h-12.774V635.61z"/><path d="M324.623 635.61h43.901v16.725h-43.901V635.61z"/><path d="M210.883 635.61h14.454v16.725h-14.454V635.61z"/><path d="M75.174 501.813h43.901v16.725H75.174v-16.725z"/><path d="M75.174 485.089h43.901v16.725H75.174v-16.725z"/><path d="M474.786 368.017h12.773v16.725h-12.773v-16.725z"/><path d="M75.174 468.364h43.901v16.725H75.174v-16.725z"/><path d="M75.174 518.538h43.901v16.725H75.174v-16.725z"/><path d="M75.174 568.712h43.901v16.725H75.174v-16.725z"/><path d="M75.174 535.263h43.901v16.725H75.174v-16.725z"/><path d="M75.174 585.437h43.901v16.725H75.174v-16.725z"/><path d="M75.174 602.161h43.901v16.725H75.174v-16.725z"/><path d="M75.174 551.987h43.901v16.725H75.174v-16.725z"/><path d="M75.174 451.64h43.901v16.725H75.174V451.64z"/><path d="M474.786 535.263h12.773v16.725h-12.773v-16.725z"/><path d="M474.786 451.64h12.773v16.725h-12.773V451.64z"/><path d="M474.786 468.364h12.773v16.725h-12.773v-16.725z"/><path d="M474.786 518.538h12.773v16.725h-12.773v-16.725z"/><path d="M474.786 501.813h12.773v16.725h-12.773v-16.725z"/><path d="M474.786 485.089h12.773v16.725h-12.773v-16.725z"/><path d="M75.174 434.915h43.901v16.725H75.174v-16.725z"/><path d="M474.786 384.741h12.773v16.725h-12.773v-16.725z"/><path d="M474.786 418.19h12.773v16.725h-12.773V418.19z"/><path d="M474.786 434.915h12.773v16.725h-12.773v-16.725z"/><path d="M474.786 401.466h12.773v16.725h-12.773v-16.725z"/><path d="M460.332 635.61h14.454v16.725h-14.454V635.61z"/><path d="M474.786 635.61h12.773v16.725h-12.773V635.61z"/><path d="M474.786 551.987h12.773v16.725h-12.773v-16.725z"/><path d="M423.873 635.61h19.751v16.725h-19.751V635.61z"/><path d="M399.688 635.61h24.186v16.725h-24.186V635.61z"/><path d="M443.624 635.61h16.708v16.725h-16.708V635.61z"/><path d="M474.786 568.712h12.773v16.725h-12.773v-16.725z"/><path d="M474.786 585.437h12.773v16.725h-12.773v-16.725z"/><path d="M474.786 602.161h12.773v16.725h-12.773v-16.725z"/><path d="M474.786 618.886h12.773v16.725h-12.773v-16.725z"/><path d="M368.524 635.61h31.163v16.725h-31.163V635.61z"/><path d="M487.56 451.64h11.413v16.725H487.56V451.64z"/><path d="M487.56 434.915h11.413v16.725H487.56v-16.725z"/><path d="M487.56 468.364h11.413v16.725H487.56v-16.725z"/><path d="M487.56 518.538h11.413v16.725H487.56v-16.725z"/><path d="M487.56 485.089h11.413v16.725H487.56v-16.725z"/><path d="M487.56 501.813h11.413v16.725H487.56v-16.725z"/><path d="M443.624 652.335h16.708v16.725h-16.708v-16.725z"/><path d="M487.56 368.017h11.413v16.725H487.56v-16.725z"/><path d="M487.56 351.292h11.413v16.725H487.56v-16.725z"/><path d="M487.56 401.466h11.413v16.725H487.56v-16.725z"/><path d="M487.56 418.19h11.413v16.725H487.56V418.19z"/><path d="M487.56 535.263h11.413v16.725H487.56v-16.725z"/><path d="M487.56 652.335h11.413v16.725H487.56v-16.725z"/><path d="M460.332 652.335h14.454v16.725h-14.454v-16.725z"/><path d="M487.56 618.886h11.413v16.725H487.56v-16.725z"/><path d="M474.786 652.335h12.773v16.725h-12.773v-16.725z"/><path d="M487.56 635.61h11.413v16.725H487.56V635.61z"/><path d="M487.56 568.712h11.413v16.725H487.56v-16.725z"/><path d="M487.56 551.987h11.413v16.725H487.56v-16.725z"/><path d="M487.56 602.161h11.413v16.725H487.56v-16.725z"/><path d="M487.56 585.437h11.413v16.725H487.56v-16.725z"/><path d="M487.56 384.741h11.413v16.725H487.56v-16.725z"/><path d="M487.56 66.974h11.413v16.725H487.56V66.974z"/><path d="M487.56 83.698h11.413v16.725H487.56V83.698z"/><path d="M487.56 100.423h11.413v16.725H487.56v-16.725z"/><path d="M487.56 117.147h11.413v16.725H487.56v-16.725z"/><path d="M487.56 334.567h11.413v16.725H487.56v-16.725z"/><path d="M487.56 50.249h11.413v16.725H487.56V50.249z"/><path d="M487.56 16.8h11.413v16.725H487.56V16.8z"/><path d="M474.786.075h12.773V16.8h-12.773V.075z"/><path d="M460.332.075h14.454V16.8h-14.454V.075z"/><path d="M443.624.075h16.708V16.8h-16.708V.075z"/><path d="M75.174.075h43.901V16.8H75.174V.075z"/><path d="M119.075.075h31.164V16.8h-31.164V.075z"/><path d="M150.239.075h24.186V16.8h-24.186V.075z"/><path d="M.075.075h75.099V16.8H.075V.075z"/><path d="M249.524.075h75.099V16.8h-75.099V.075z"/><path d="M174.424.075h19.75V16.8h-19.75V.075z"/><path d="M324.623.075h43.901V16.8h-43.901V.075z"/><path d="M423.873.075h19.751V16.8h-19.751V.075z"/><path d="M399.688.075h24.186V16.8h-24.186V.075z"/><path d="M368.524.075h31.163V16.8h-31.163V.075z"/><path d="M210.883.075h14.454V16.8h-14.454V.075z"/><path d="M194.175.075h16.708V16.8h-16.708V.075z"/><path d="M238.111.075h11.413V16.8h-11.413V.075z"/><path d="M225.337.075h12.774V16.8h-12.774V.075z"/><path d="M487.56.075h11.413V16.8H487.56V.075z"/><path d="M487.56 33.524h11.413v16.725H487.56V33.524z"/><path d="M487.56 150.597h11.413v16.725H487.56v-16.725z"/><path d="M487.56 133.872h11.413v16.725H487.56v-16.725z"/><path d="M487.56 284.394h11.413v16.725H487.56v-16.725z"/><path d="M487.56 267.669h11.413v16.725H487.56v-16.725z"/><path d="M487.56 317.843h11.413v16.725H487.56v-16.725z"/><path d="M487.56 301.118h11.413v16.725H487.56v-16.725z"/><path d="M487.56 250.944h11.413v16.725H487.56v-16.725z"/><path d="M487.56 184.046h11.413v16.725H487.56v-16.725z"/><path d="M487.56 200.771h11.413v16.725H487.56v-16.725z"/><path d="M.075 150.597h75.099v16.725H.075v-16.725z"/><path d="M487.56 217.495h11.413v16.725H487.56v-16.725z"/><path d="M487.56 234.22h11.413v16.725H487.56V234.22z"/><path d="M487.56 167.321h11.413v16.725H487.56v-16.725z"/><path d="M.075 384.741h75.099v16.725H.075v-16.725z"/><path d="M.075 418.19h75.099v16.725H.075V418.19z"/><path d="M.075 401.466h75.099v16.725H.075v-16.725z"/><path d="M.075 368.017h75.099v16.725H.075v-16.725z"/><path d="M.075 351.292h75.099v16.725H.075v-16.725z"/><path d="M.075 451.64h75.099v16.725H.075V451.64z"/><path d="M.075 434.915h75.099v16.725H.075v-16.725z"/><path d="M.075 468.364h75.099v16.725H.075v-16.725z"/><path d="M.075 485.089h75.099v16.725H.075v-16.725z"/><path d="M.075 334.567h75.099v16.725H.075v-16.725z"/><path d="M.075 217.495h75.099v16.725H.075v-16.725z"/><path d="M.075 501.813h75.099v16.725H.075v-16.725z"/><path d="M.075 200.771h75.099v16.725H.075v-16.725z"/><path d="M.075 184.046h75.099v16.725H.075v-16.725z"/><path d="M.075 234.22h75.099v16.725H.075V234.22z"/><path d="M.075 167.321h75.099v16.725H.075v-16.725z"/><path d="M.075 317.843h75.099v16.725H.075v-16.725z"/><path d="M423.873 652.335h19.751v16.725h-19.751v-16.725z"/><path d="M.075 284.394h75.099v16.725H.075v-16.725z"/><path d="M.075 267.669h75.099v16.725H.075v-16.725z"/><path d="M.075 250.944h75.099v16.725H.075v-16.725z"/><path d="M.075 301.118h75.099v16.725H.075v-16.725z"/><path d="M225.337 652.335h12.774v16.725h-12.774v-16.725z"/><path d="M210.883 652.335h14.454v16.725h-14.454v-16.725z"/><path d="M238.111 652.335h11.413v16.725h-11.413v-16.725z"/><path d="M194.175 652.335h16.708v16.725h-16.708v-16.725z"/><path d="M174.424 652.335h19.75v16.725h-19.75v-16.725z"/><path d="M150.239 652.335h24.186v16.725h-24.186v-16.725z"/><path d="M399.688 652.335h24.186v16.725h-24.186v-16.725z"/><path d="M368.524 652.335h31.163v16.725h-31.163v-16.725z"/><path d="M324.623 652.335h43.901v16.725h-43.901v-16.725z"/><path d="M249.524 652.335h75.099v16.725h-75.099v-16.725z"/><path d="M75.174 652.335h43.901v16.725H75.174v-16.725z"/><path d="M.075 602.161h75.099v16.725H.075v-16.725z"/><path d="M.075 568.712h75.099v16.725H.075v-16.725z"/><path d="M.075 585.437h75.099v16.725H.075v-16.725z"/><path d="M119.075 652.335h31.164v16.725h-31.164v-16.725z"/><path d="M.075 535.263h75.099v16.725H.075v-16.725z"/><path d="M.075 551.987h75.099v16.725H.075v-16.725z"/><path d="M.075 518.538h75.099v16.725H.075v-16.725z"/><path d="M.075 618.886h75.099v16.725H.075v-16.725z"/><path d="M.075 652.335h75.099v16.725H.075v-16.725z"/><path d="M.075 635.61h75.099v16.725H.075V635.61z"/><path d="M150.239 635.61h24.186v16.725h-24.186V635.61z"/><path d="M119.075 100.423h31.164v16.725h-31.164v-16.725z"/><path d="M119.075 117.147h31.164v16.725h-31.164v-16.725z"/><path d="M119.075 83.698h31.164v16.725h-31.164V83.698z"/><path d="M119.075 66.974h31.164v16.725h-31.164V66.974z"/><path d="M119.075 50.249h31.164v16.725h-31.164V50.249z"/><path d="M119.075 133.872h31.164v16.725h-31.164v-16.725z"/><path d="M119.075 184.046h31.164v16.725h-31.164v-16.725z"/><path d="M119.075 167.321h31.164v16.725h-31.164v-16.725z"/><path d="M150.239 50.249h24.186v16.725h-24.186V50.249z"/><path d="M119.075 150.597h31.164v16.725h-31.164v-16.725z"/><path d="M174.424 50.249h19.75v16.725h-19.75V50.249z"/><path d="M368.524 50.249h31.163v16.725h-31.163V50.249z"/><path d="M324.623 50.249h43.901v16.725h-43.901V50.249z"/><path d="M249.524 50.249h75.099v16.725h-75.099V50.249z"/><path d="M399.688 50.249h24.186v16.725h-24.186V50.249z"/><path d="M423.873 50.249h19.751v16.725h-19.751V50.249z"/><path d="M210.883 50.249h14.454v16.725h-14.454V50.249z"/><path d="M238.111 50.249h11.413v16.725h-11.413V50.249z"/><path d="M194.175 50.249h16.708v16.725h-16.708V50.249z"/><path d="M119.075 200.771h31.164v16.725h-31.164v-16.725z"/><path d="M225.337 50.249h12.774v16.725h-12.774V50.249z"/><path d="M119.075 501.813h31.164v16.725h-31.164v-16.725z"/><path d="M119.075 451.64h31.164v16.725h-31.164V451.64z"/><path d="M119.075 468.364h31.164v16.725h-31.164v-16.725z"/><path d="M119.075 434.915h31.164v16.725h-31.164v-16.725z"/><path d="M119.075 485.089h31.164v16.725h-31.164v-16.725z"/><path d="M119.075 568.712h31.164v16.725h-31.164v-16.725z"/><path d="M119.075 551.987h31.164v16.725h-31.164v-16.725z"/><path d="M119.075 401.466h31.164v16.725h-31.164v-16.725z"/><path d="M119.075 535.263h31.164v16.725h-31.164v-16.725z"/><path d="M119.075 518.538h31.164v16.725h-31.164v-16.725z"/><path d="M443.624 50.249h16.708v16.725h-16.708V50.249z"/><path d="M119.075 368.017h31.164v16.725h-31.164v-16.725z"/><path d="M119.075 267.669h31.164v16.725h-31.164v-16.725z"/><path d="M119.075 284.394h31.164v16.725h-31.164v-16.725z"/><path d="M119.075 234.22h31.164v16.725h-31.164V234.22z"/><path d="M119.075 301.118h31.164v16.725h-31.164v-16.725z"/><path d="M119.075 384.741h31.164v16.725h-31.164v-16.725z"/><path d="M119.075 250.944h31.164v16.725h-31.164v-16.725z"/><path d="M119.075 351.292h31.164v16.725h-31.164v-16.725z"/><path d="M119.075 217.495h31.164v16.725h-31.164v-16.725z"/><path d="M119.075 317.843h31.164v16.725h-31.164v-16.725z"/><path d="M119.075 334.567h31.164v16.725h-31.164v-16.725z"/><path d="M119.075 418.19h31.164v16.725h-31.164V418.19z"/><path d="M443.624 551.987h16.708v16.725h-16.708v-16.725z"/><path d="M443.624 535.263h16.708v16.725h-16.708v-16.725z"/><path d="M443.624 585.437h16.708v16.725h-16.708v-16.725z"/><path d="M443.624 434.915h16.708v16.725h-16.708v-16.725z"/><path d="M75.174 418.19h43.901v16.725H75.174V418.19z"/><path d="M443.624 485.089h16.708v16.725h-16.708v-16.725z"/><path d="M443.624 468.364h16.708v16.725h-16.708v-16.725z"/><path d="M443.624 451.64h16.708v16.725h-16.708V451.64z"/><path d="M443.624 501.813h16.708v16.725h-16.708v-16.725z"/><path d="M443.624 602.161h16.708v16.725h-16.708v-16.725z"/><path d="M443.624 518.538h16.708v16.725h-16.708v-16.725z"/><path d="M225.337 602.161h12.774v16.725h-12.774v-16.725z"/><path d="M210.883 602.161h14.454v16.725h-14.454v-16.725z"/><path d="M423.873 602.161h19.751v16.725h-19.751v-16.725z"/><path d="M174.424 602.161h19.75v16.725h-19.75v-16.725z"/><path d="M194.175 602.161h16.708v16.725h-16.708v-16.725z"/><path d="M238.111 602.161h11.413v16.725h-11.413v-16.725z"/><path d="M249.524 602.161h75.099v16.725h-75.099v-16.725z"/><path d="M399.688 602.161h24.186v16.725h-24.186v-16.725z"/><path d="M368.524 602.161h31.163v16.725h-31.163v-16.725z"/><path d="M324.623 602.161h43.901v16.725h-43.901v-16.725z"/><path d="M443.624 334.567h16.708v16.725h-16.708v-16.725z"/><path d="M443.624 184.046h16.708v16.725h-16.708v-16.725z"/><path d="M443.624 167.321h16.708v16.725h-16.708v-16.725z"/><path d="M443.624 418.19h16.708v16.725h-16.708V418.19z"/><path d="M443.624 150.597h16.708v16.725h-16.708v-16.725z"/><path d="M443.624 217.495h16.708v16.725h-16.708v-16.725z"/><path d="M443.624 234.22h16.708v16.725h-16.708V234.22z"/><path d="M443.624 133.872h16.708v16.725h-16.708v-16.725z"/><path d="M443.624 83.698h16.708v16.725h-16.708V83.698z"/><path d="M443.624 100.423h16.708v16.725h-16.708v-16.725z"/><path d="M443.624 117.147h16.708v16.725h-16.708v-16.725z"/><path d="M443.624 200.771h16.708v16.725h-16.708v-16.725z"/><path d="M443.624 351.292h16.708v16.725h-16.708v-16.725z"/><path d="M443.624 368.017h16.708v16.725h-16.708v-16.725z"/><path d="M443.624 384.741h16.708v16.725h-16.708v-16.725z"/><path d="M443.624 66.974h16.708v16.725h-16.708V66.974z"/><path d="M443.624 401.466h16.708v16.725h-16.708v-16.725z"/><path d="M443.624 267.669h16.708v16.725h-16.708v-16.725z"/><path d="M443.624 284.394h16.708v16.725h-16.708v-16.725z"/><path d="M443.624 250.944h16.708v16.725h-16.708v-16.725z"/><path d="M443.624 317.843h16.708v16.725h-16.708v-16.725z"/><path d="M443.624 301.118h16.708v16.725h-16.708v-16.725z"/><path d="M443.624 568.712h16.708v16.725h-16.708v-16.725z"/><path d="M210.883 33.524h14.454v16.725h-14.454V33.524z"/><path d="M225.337 33.524h12.774v16.725h-12.774V33.524z"/><path d="M238.111 33.524h11.413v16.725h-11.413V33.524z"/><path d="M324.623 33.524h43.901v16.725h-43.901V33.524z"/><path d="M249.524 33.524h75.099v16.725h-75.099V33.524z"/><path d="M194.175 33.524h16.708v16.725h-16.708V33.524z"/><path d="M75.174 50.249h43.901v16.725H75.174V50.249z"/><path d="M119.075 33.524h31.164v16.725h-31.164V33.524z"/><path d="M150.239 33.524h24.186v16.725h-24.186V33.524z"/><path d="M174.424 33.524h19.75v16.725h-19.75V33.524z"/><path d="M119.075 585.437h31.164v16.725h-31.164v-16.725z"/><path d="M368.524 33.524h31.163v16.725h-31.163V33.524z"/><path d="M460.332 66.974h14.454v16.725h-14.454V66.974z"/><path d="M460.332 50.249h14.454v16.725h-14.454V50.249z"/><path d="M460.332 100.423h14.454v16.725h-14.454v-16.725z"/><path d="M460.332 117.147h14.454v16.725h-14.454v-16.725z"/><path d="M460.332 83.698h14.454v16.725h-14.454V83.698z"/><path d="M399.688 33.524h24.186v16.725h-24.186V33.524z"/><path d="M423.873 33.524h19.751v16.725h-19.751V33.524z"/><path d="M460.332 33.524h14.454v16.725h-14.454V33.524z"/><path d="M443.624 33.524h16.708v16.725h-16.708V33.524z"/><path d="M75.174 167.321h43.901v16.725H75.174v-16.725z"/><path d="M75.174 301.118h43.901v16.725H75.174v-16.725z"/><path d="M75.174 317.843h43.901v16.725H75.174v-16.725z"/><path d="M75.174 334.567h43.901v16.725H75.174v-16.725z"/><path d="M75.174 267.669h43.901v16.725H75.174v-16.725z"/><path d="M75.174 284.394h43.901v16.725H75.174v-16.725z"/><path d="M75.174 250.944h43.901v16.725H75.174v-16.725z"/><path d="M75.174 384.741h43.901v16.725H75.174v-16.725z"/><path d="M75.174 401.466h43.901v16.725H75.174v-16.725z"/><path d="M75.174 368.017h43.901v16.725H75.174v-16.725z"/><path d="M75.174 351.292h43.901v16.725H75.174v-16.725z"/><path d="M75.174 66.974h43.901v16.725H75.174V66.974z"/><path d="M75.174 117.147h43.901v16.725H75.174v-16.725z"/><path d="M75.174 150.597h43.901v16.725H75.174v-16.725z"/><path d="M75.174 133.872h43.901v16.725H75.174v-16.725z"/><path d="M75.174 100.423h43.901v16.725H75.174v-16.725z"/><path d="M75.174 234.22h43.901v16.725H75.174V234.22z"/><path d="M75.174 83.698h43.901v16.725H75.174V83.698z"/><path d="M75.174 217.495h43.901v16.725H75.174v-16.725z"/><path d="M75.174 200.771h43.901v16.725H75.174v-16.725z"/><path d="M460.332 133.872h14.454v16.725h-14.454v-16.725z"/><path d="M75.174 184.046h43.901v16.725H75.174v-16.725z"/><path d="M75.174 33.524h43.901v16.725H75.174V33.524z"/><path d="M460.332 602.161h14.454v16.725h-14.454v-16.725z"/><path d="M443.624 618.886h16.708v16.725h-16.708v-16.725z"/><path d="M460.332 618.886h14.454v16.725h-14.454v-16.725z"/><path d="M423.873 618.886h19.751v16.725h-19.751v-16.725z"/><path d="M399.688 618.886h24.186v16.725h-24.186v-16.725z"/><path d="M368.524 618.886h31.163v16.725h-31.163v-16.725z"/><path d="M460.332 585.437h14.454v16.725h-14.454v-16.725z"/><path d="M460.332 551.987h14.454v16.725h-14.454v-16.725z"/><path d="M460.332 535.263h14.454v16.725h-14.454v-16.725z"/><path d="M460.332 568.712h14.454v16.725h-14.454v-16.725z"/><path d="M460.332 150.597h14.454v16.725h-14.454v-16.725z"/><path d="M150.239 618.886h24.186v16.725h-24.186v-16.725z"/><path d="M460.332 518.538h14.454v16.725h-14.454v-16.725z"/><path d="M119.075 618.886h31.164v16.725h-31.164v-16.725z"/><path d="M119.075 602.161h31.164v16.725h-31.164v-16.725z"/><path d="M194.175 618.886h16.708v16.725h-16.708v-16.725z"/><path d="M324.623 618.886h43.901v16.725h-43.901v-16.725z"/><path d="M249.524 618.886h75.099v16.725h-75.099v-16.725z"/><path d="M238.111 618.886h11.413v16.725h-11.413v-16.725z"/><path d="M210.883 618.886h14.454v16.725h-14.454v-16.725z"/><path d="M225.337 618.886h12.774v16.725h-12.774v-16.725z"/><path d="M174.424 618.886h19.75v16.725h-19.75v-16.725z"/><path d="M460.332 250.944h14.454v16.725h-14.454v-16.725z"/><path d="M460.332 267.669h14.454v16.725h-14.454v-16.725z"/><path d="M460.332 301.118h14.454v16.725h-14.454v-16.725z"/><path d="M460.332 284.394h14.454v16.725h-14.454v-16.725z"/><path d="M460.332 234.22h14.454v16.725h-14.454V234.22z"/><path d="M460.332 217.495h14.454v16.725h-14.454v-16.725z"/><path d="M460.332 167.321h14.454v16.725h-14.454v-16.725z"/><path d="M460.332 184.046h14.454v16.725h-14.454v-16.725z"/><path d="M460.332 200.771h14.454v16.725h-14.454v-16.725z"/><path d="M460.332 317.843h14.454v16.725h-14.454v-16.725z"/><path d="M460.332 368.017h14.454v16.725h-14.454v-16.725z"/><path d="M460.332 434.915h14.454v16.725h-14.454v-16.725z"/><path d="M460.332 451.64h14.454v16.725h-14.454V451.64z"/><path d="M460.332 468.364h14.454v16.725h-14.454v-16.725z"/><path d="M460.332 334.567h14.454v16.725h-14.454v-16.725z"/><path d="M460.332 485.089h14.454v16.725h-14.454v-16.725z"/><path d="M460.332 418.19h14.454v16.725h-14.454V418.19z"/><path d="M460.332 351.292h14.454v16.725h-14.454v-16.725z"/><path d="M460.332 401.466h14.454v16.725h-14.454v-16.725z"/><path d="M460.332 501.813h14.454v16.725h-14.454v-16.725z"/><path d="M460.332 384.741h14.454v16.725h-14.454v-16.725z"/></svg>