<svg baseProfile="tiny" xmlns="http://www.w3.org/2000/svg"><path d="M283.54 141.808h141.732V283.54H283.54V141.808z"/><path d="M141.808 283.54H283.54v141.732H141.808V283.54z"/><path d="M283.54 283.54h141.732v141.732H283.54V283.54z"/><path d="M141.808 141.808H283.54V283.54H141.808V141.808z"/><path d="M283.54 425.272h141.732v141.732H283.54V425.272z"/><path d="M425.272 141.808h141.732V283.54H425.272V141.808z"/><path d="M141.808 425.272H283.54v141.732H141.808V425.272z"/><path d="M425.272 283.54h141.732v141.732H425.272V283.54z"/><path d="M425.272 567.005h141.732v141.732H425.272V567.005z"/><path d="M425.272 425.272h141.732v141.732H425.272V425.272z"/><path d="M567.005 141.808h141.732V283.54H567.005V141.808z"/><path d="M567.005 283.54h141.732v141.732H567.005V283.54z"/><path d="M567.005 567.005h141.732v141.732H567.005V567.005z"/><path d="M567.005 425.272h141.732v141.732H567.005V425.272z"/><path d="M283.54 567.005h141.732v141.732H283.54V567.005z"/><path d="M141.808 567.005H283.54v141.732H141.808V567.005z"/><path d="M425.272 708.737h141.732v141.732H425.272V708.737z"/><path d="M567.005 708.737h141.732v141.732H567.005V708.737z"/><path d="M283.54 708.737h141.732v141.732H283.54V708.737z"/><path d="M141.808 708.737H283.54v141.732H141.808V708.737z"/><path d="M.075 283.54h141.732v141.732H.075V283.54z"/><path d="M.075 141.808h141.732V283.54H.075V141.808z"/><path d="M283.54.075h141.732v141.732H283.54V.075z"/><path d="M141.808.075H283.54v141.732H141.808V.075z"/><path d="M425.272.075h141.732v141.732H425.272V.075z"/><path d="M567.005.075h141.732v141.732H567.005V.075z"/><path d="M.075.075h141.732v141.732H.075V.075z"/><path d="M.075 425.272h141.732v141.732H.075V425.272z"/><path d="M.075 567.005h141.732v141.732H.075V567.005z"/><path d="M.075 708.737h141.732v141.732H.075V708.737z"/></svg>