<svg baseProfile="tiny" xmlns="http://www.w3.org/2000/svg"><path d="M288.075 288.075h288v288h-288v-288z"/><path d="M288.075 576.075h288v288h-288v-288z"/><path d="M576.075 288.075h288v288h-288v-288z"/><path d="M576.075 576.075h288v288h-288v-288z"/><path d="M288.075 864.075h288v288h-288v-288z"/><path d="M576.075 864.075h288v288h-288v-288z"/><path d="M.075 288.075h288v288h-288v-288z"/><path d="M288.075.075h288v288h-288v-288z"/><path d="M576.075.075h288v288h-288v-288z"/><path d="M.075.075h288v288h-288v-288z"/><path d="M.075 576.075h288v288h-288v-288z"/><path d="M.075 864.075h288v288h-288v-288z"/><path d="M288.075 288.075H571.54v283.464H288.075V288.075z"/><path d="M288.075 571.54H571.54v283.464H288.075V571.54z"/><path d="M571.54 288.075h283.465v283.464H571.54V288.075z"/><path d="M571.54 571.54h283.465v283.464H571.54V571.54z"/><path d="M288.075 855.004H571.54v283.464H288.075V855.004z"/><path d="M4.61 288.075h283.465v283.464H4.61V288.075z"/><path d="M288.075 4.611H571.54v283.464H288.075V4.611z"/><path d="M571.54 4.611h283.465v283.464H571.54V4.611z"/><path d="M4.61 4.611h283.465v283.464H4.61V4.611z"/><path d="M4.61 571.54h283.465v283.464H4.61V571.54z"/><path d="M4.61 855.004h283.465v283.464H4.61V855.004z"/><path d="M571.54 855.004h283.465v283.464H571.54V855.004z"/></svg>