<?xml version="1.0" encoding="utf-8"?>
<!-- Generator: Adobe Illustrator 21.0.2, SVG Export Plug-In . SVG Version: 6.00 Build 0)  -->
<svg version="1.1" baseProfile="tiny" id="Ebene_1" xmlns="http://www.w3.org/2000/svg" xmlns:xlink="http://www.w3.org/1999/xlink"
	 x="0px" y="0px" viewBox="0 0 576.15 792.15" xml:space="preserve">
<path fill="none" stroke="#000000" stroke-width="0.15" d="M144.075,504.075h72v72h-72V504.075z"/>
<path fill="none" stroke="#000000" stroke-width="0.15" d="M144.075,432.075h72v72h-72V432.075z"/>
<path fill="none" stroke="#000000" stroke-width="0.15" d="M216.075,576.075h72v72h-72L216.075,576.075z"/>
<path fill="none" stroke="#000000" stroke-width="0.15" d="M144.075,216.075h72v72h-72V216.075z"/>
<path fill="none" stroke="#000000" stroke-width="0.15" d="M144.075,360.075h72v72h-72V360.075z"/>
<path fill="none" stroke="#000000" stroke-width="0.15" d="M144.075,288.075h72v72h-72V288.075z"/>
<path fill="none" stroke="#000000" stroke-width="0.15" d="M360.075,576.075h72v72h-72V576.075z"/>
<path fill="none" stroke="#000000" stroke-width="0.15" d="M360.075,360.075h72v72h-72V360.075z"/>
<path fill="none" stroke="#000000" stroke-width="0.15" d="M360.075,432.075h72v72h-72V432.075z"/>
<path fill="none" stroke="#000000" stroke-width="0.15" d="M360.075,288.075h72v72h-72V288.075z"/>
<path fill="none" stroke="#000000" stroke-width="0.15" d="M144.075,144.075h72v72h-72V144.075z"/>
<path fill="none" stroke="#000000" stroke-width="0.15" d="M288.075,576.075h72v72h-72V576.075z"/>
<path fill="none" stroke="#000000" stroke-width="0.15" d="M360.075,504.075h72v72h-72V504.075z"/>
<path fill="none" stroke="#000000" stroke-width="0.15" d="M288.075,504.075h72v72h-72V504.075z"/>
<path fill="none" stroke="#000000" stroke-width="0.15" d="M216.075,504.075h72v72h-72L216.075,504.075z"/>
<path fill="none" stroke="#000000" stroke-width="0.15" d="M216.075,360.075h72v72h-72L216.075,360.075z"/>
<path fill="none" stroke="#000000" stroke-width="0.15" d="M216.075,432.075h72v72h-72L216.075,432.075z"/>
<path fill="none" stroke="#000000" stroke-width="0.15" d="M216.075,288.075h72v72h-72L216.075,288.075z"/>
<path fill="none" stroke="#000000" stroke-width="0.15" d="M216.075,216.075h72v72h-72L216.075,216.075z"/>
<path fill="none" stroke="#000000" stroke-width="0.15" d="M432.075,72.075h72v72h-72V72.075z"/>
<path fill="none" stroke="#000000" stroke-width="0.15" d="M360.075,216.075h72v72h-72V216.075z"/>
<path fill="none" stroke="#000000" stroke-width="0.15" d="M288.075,288.075h72v72h-72V288.075z"/>
<path fill="none" stroke="#000000" stroke-width="0.15" d="M288.075,216.075h72v72h-72V216.075z"/>
<path fill="none" stroke="#000000" stroke-width="0.15" d="M216.075,144.075h72v72h-72L216.075,144.075z"/>
<path fill="none" stroke="#000000" stroke-width="0.15" d="M288.075,144.075h72v72h-72V144.075z"/>
<path fill="none" stroke="#000000" stroke-width="0.15" d="M288.075,360.075h72v72h-72V360.075z"/>
<path fill="none" stroke="#000000" stroke-width="0.15" d="M288.075,432.075h72v72h-72V432.075z"/>
<path fill="none" stroke="#000000" stroke-width="0.15" d="M144.075,576.075h72v72h-72V576.075z"/>
<path fill="none" stroke="#000000" stroke-width="0.15" d="M144.075,648.075h72v72h-72V648.075z"/>
<path fill="none" stroke="#000000" stroke-width="0.15" d="M432.075,576.075h72v72h-72V576.075z"/>
<path fill="none" stroke="#000000" stroke-width="0.15" d="M360.075,648.075h72v72h-72V648.075z"/>
<path fill="none" stroke="#000000" stroke-width="0.15" d="M216.075,648.075h72v72h-72L216.075,648.075z"/>
<path fill="none" stroke="#000000" stroke-width="0.15" d="M288.075,648.075h72v72h-72V648.075z"/>
<path fill="none" stroke="#000000" stroke-width="0.15" d="M432.075,504.075h72v72h-72V504.075z"/>
<path fill="none" stroke="#000000" stroke-width="0.15" d="M432.075,648.075h72v72h-72V648.075z"/>
<path fill="none" stroke="#000000" stroke-width="0.15" d="M432.075,144.075h72v72h-72V144.075z"/>
<path fill="none" stroke="#000000" stroke-width="0.15" d="M432.075,216.075h72v72h-72V216.075z"/>
<path fill="none" stroke="#000000" stroke-width="0.15" d="M432.075,432.075h72v72h-72V432.075z"/>
<path fill="none" stroke="#000000" stroke-width="0.15" d="M432.075,288.075h72v72h-72V288.075z"/>
<path fill="none" stroke="#000000" stroke-width="0.15" d="M432.075,360.075h72v72h-72V360.075z"/>
<path fill="none" stroke="#000000" stroke-width="0.15" d="M504.075,72.075h72v72h-72V72.075z"/>
<path fill="none" stroke="#000000" stroke-width="0.15" d="M504.075,576.075h72v72h-72V576.075z"/>
<path fill="none" stroke="#000000" stroke-width="0.15" d="M504.075,504.075h72v72h-72V504.075z"/>
<path fill="none" stroke="#000000" stroke-width="0.15" d="M504.075,648.075h72v72h-72V648.075z"/>
<path fill="none" stroke="#000000" stroke-width="0.15" d="M504.075,144.075h72v72h-72V144.075z"/>
<path fill="none" stroke="#000000" stroke-width="0.15" d="M504.075,216.075h72v72h-72V216.075z"/>
<path fill="none" stroke="#000000" stroke-width="0.15" d="M504.075,432.075h72v72h-72V432.075z"/>
<path fill="none" stroke="#000000" stroke-width="0.15" d="M504.075,288.075h72v72h-72V288.075z"/>
<path fill="none" stroke="#000000" stroke-width="0.15" d="M504.075,360.075h72v72h-72V360.075z"/>
<path fill="none" stroke="#000000" stroke-width="0.15" d="M0.075,72.075h72v72h-72L0.075,72.075z"/>
<path fill="none" stroke="#000000" stroke-width="0.15" d="M0.075,576.075h72v72h-72L0.075,576.075z"/>
<path fill="none" stroke="#000000" stroke-width="0.15" d="M0.075,504.075h72v72h-72L0.075,504.075z"/>
<path fill="none" stroke="#000000" stroke-width="0.15" d="M0.075,648.075h72v72h-72L0.075,648.075z"/>
<path fill="none" stroke="#000000" stroke-width="0.15" d="M0.075,144.075h72v72h-72L0.075,144.075z"/>
<path fill="none" stroke="#000000" stroke-width="0.15" d="M0.075,216.075h72v72h-72L0.075,216.075z"/>
<path fill="none" stroke="#000000" stroke-width="0.15" d="M0.075,432.075h72v72h-72L0.075,432.075z"/>
<path fill="none" stroke="#000000" stroke-width="0.15" d="M0.075,288.075h72v72h-72L0.075,288.075z"/>
<path fill="none" stroke="#000000" stroke-width="0.15" d="M0.075,360.075h72v72h-72L0.075,360.075z"/>
<path fill="none" stroke="#000000" stroke-width="0.15" d="M216.075,72.075h72v72h-72L216.075,72.075z"/>
<path fill="none" stroke="#000000" stroke-width="0.15" d="M144.075,72.075h72v72h-72V72.075z"/>
<path fill="none" stroke="#000000" stroke-width="0.15" d="M360.075,144.075h72v72h-72V144.075z"/>
<path fill="none" stroke="#000000" stroke-width="0.15" d="M72.075,72.075h72v72h-72V72.075z"/>
<path fill="none" stroke="#000000" stroke-width="0.15" d="M288.075,72.075h72v72h-72V72.075z"/>
<path fill="none" stroke="#000000" stroke-width="0.15" d="M72.075,144.075h72v72h-72V144.075z"/>
<path fill="none" stroke="#000000" stroke-width="0.15" d="M360.075,72.075h72v72h-72V72.075z"/>
<path fill="none" stroke="#000000" stroke-width="0.15" d="M72.075,576.075h72v72h-72V576.075z"/>
<path fill="none" stroke="#000000" stroke-width="0.15" d="M72.075,504.075h72v72h-72V504.075z"/>
<path fill="none" stroke="#000000" stroke-width="0.15" d="M72.075,648.075h72v72h-72V648.075z"/>
<path fill="none" stroke="#000000" stroke-width="0.15" d="M144.075,720.075h72v72h-72V720.075z"/>
<path fill="none" stroke="#000000" stroke-width="0.15" d="M360.075,720.075h72v72h-72V720.075z"/>
<path fill="none" stroke="#000000" stroke-width="0.15" d="M216.075,720.075h72v72h-72L216.075,720.075z"/>
<path fill="none" stroke="#000000" stroke-width="0.15" d="M288.075,720.075h72v72h-72V720.075z"/>
<path fill="none" stroke="#000000" stroke-width="0.15" d="M432.075,720.075h72v72h-72V720.075z"/>
<path fill="none" stroke="#000000" stroke-width="0.15" d="M504.075,720.075h72v72h-72V720.075z"/>
<path fill="none" stroke="#000000" stroke-width="0.15" d="M0.075,720.075h72v72h-72L0.075,720.075z"/>
<path fill="none" stroke="#000000" stroke-width="0.15" d="M72.075,720.075h72v72h-72V720.075z"/>
<path fill="none" stroke="#000000" stroke-width="0.15" d="M144.075,0.075h72v72h-72V0.075z"/>
<path fill="none" stroke="#000000" stroke-width="0.15" d="M360.075,0.075h72v72h-72V0.075z"/>
<path fill="none" stroke="#000000" stroke-width="0.15" d="M216.075,0.075h72v72h-72L216.075,0.075z"/>
<path fill="none" stroke="#000000" stroke-width="0.15" d="M288.075,0.075h72v72h-72V0.075z"/>
<path fill="none" stroke="#000000" stroke-width="0.15" d="M432.075,0.075h72v72h-72V0.075z"/>
<path fill="none" stroke="#000000" stroke-width="0.15" d="M504.075,0.075h72v72h-72V0.075z"/>
<path fill="none" stroke="#000000" stroke-width="0.15" d="M0.075,0.075h72v72h-72L0.075,0.075z"/>
<path fill="none" stroke="#000000" stroke-width="0.15" d="M72.075,0.075h72v72h-72V0.075z"/>
<path fill="none" stroke="#000000" stroke-width="0.15" d="M72.075,432.075h72v72h-72V432.075z"/>
<path fill="none" stroke="#000000" stroke-width="0.15" d="M72.075,216.075h72v72h-72V216.075z"/>
<path fill="none" stroke="#000000" stroke-width="0.15" d="M72.075,360.075h72v72h-72V360.075z"/>
<path fill="none" stroke="#000000" stroke-width="0.15" d="M72.075,288.075h72v72h-72V288.075z"/>
</svg>
