<svg baseProfile="tiny" xmlns="http://www.w3.org/2000/svg"><path d="M288.075 288.075h288v288h-288v-288z"/><path d="M288.075 576.075h288v288h-288v-288z"/><path d="M576.075 288.075h288v288h-288v-288z"/><path d="M576.075 576.075h288v288h-288v-288z"/><path d="M288.075 864.075h288v288h-288v-288z"/><path d="M576.075 864.075h288v288h-288v-288z"/><path d="M.075 288.075h288v288h-288v-288z"/><path d="M288.075.075h288v288h-288v-288z"/><path d="M576.075.075h288v288h-288v-288z"/><path d="M.075.075h288v288h-288v-288z"/><path d="M.075 576.075h288v288h-288v-288z"/><path d="M.075 864.075h288v288h-288v-288z"/></svg>