<svg baseProfile="tiny" xmlns="http://www.w3.org/2000/svg"><path d="M360.075 396.075h36v36h-36v-36z"/><path d="M360.075 432.075h36v36h-36v-36z"/><path d="M360.075 360.075h36v36h-36v-36z"/><path d="M360.075 468.075h36v36h-36v-36z"/><path d="M360.075 324.075h36v36h-36v-36z"/><path d="M360.075 504.075h36v36h-36v-36z"/><path d="M360.075 216.075h36v36h-36v-36z"/><path d="M360.075 288.075h36v36h-36v-36z"/><path d="M288.075 108.075h36v36h-36v-36z"/><path d="M324.075 108.075h36v36h-36v-36z"/><path d="M360.075 108.075h36v36h-36v-36z"/><path d="M360.075 252.075h36v36h-36v-36z"/><path d="M360.075 540.075h36v36h-36v-36z"/><path d="M360.075 180.075h36v36h-36v-36z"/><path d="M360.075 144.075h36v36h-36v-36z"/><path d="M144.075 396.075h36v36h-36v-36z"/><path d="M144.075 360.075h36v36h-36v-36z"/><path d="M144.075 432.075h36v36h-36v-36z"/><path d="M144.075 468.075h36v36h-36v-36z"/><path d="M324.075 540.075h36v36h-36v-36z"/><path d="M144.075 288.075h36v36h-36v-36z"/><path d="M144.075 324.075h36v36h-36v-36z"/><path d="M144.075 252.075h36v36h-36v-36z"/><path d="M252.075 540.075h36v36h-36v-36z"/><path d="M144.075 504.075h36v36h-36v-36z"/><path d="M216.075 540.075h36v36h-36v-36z"/><path d="M288.075 540.075h36v36h-36v-36z"/><path d="M144.075 540.075h36v36h-36v-36z"/><path d="M180.075 540.075h36v36h-36v-36z"/><path d="M108.075 252.075h36v36h-36v-36z"/><path d="M180.075 576.075h36v36h-36v-36z"/><path d="M288.075 576.075h36v36h-36v-36z"/><path d="M252.075 576.075h36v36h-36v-36z"/><path d="M216.075 576.075h36v36h-36v-36z"/><path d="M396.075 432.075h36v36h-36v-36z"/><path d="M108.075 576.075h36v36h-36v-36z"/><path d="M144.075 576.075h36v36h-36v-36z"/><path d="M360.075 576.075h36v36h-36v-36z"/><path d="M396.075 504.075h36v36h-36v-36z"/><path d="M396.075 468.075h36v36h-36v-36z"/><path d="M252.075 108.075h36v36h-36v-36z"/><path d="M396.075 540.075h36v36h-36v-36z"/><path d="M108.075 504.075h36v36h-36v-36z"/><path d="M396.075 576.075h36v36h-36v-36z"/><path d="M324.075 576.075h36v36h-36v-36z"/><path d="M108.075 108.075h36v36h-36v-36z"/><path d="M108.075 468.075h36v36h-36v-36z"/><path d="M108.075 180.075h36v36h-36v-36z"/><path d="M108.075 144.075h36v36h-36v-36z"/><path d="M216.075 108.075h36v36h-36v-36z"/><path d="M180.075 108.075h36v36h-36v-36z"/><path d="M144.075 108.075h36v36h-36v-36z"/><path d="M108.075 396.075h36v36h-36v-36z"/><path d="M108.075 216.075h36v36h-36v-36z"/><path d="M108.075 432.075h36v36h-36v-36z"/><path d="M108.075 324.075h36v36h-36v-36z"/><path d="M144.075 216.075h36v36h-36v-36z"/><path d="M108.075 288.075h36v36h-36v-36z"/><path d="M108.075 540.075h36v36h-36v-36z"/><path d="M288.075 432.075h36v36h-36v-36z"/><path d="M288.075 324.075h36v36h-36v-36z"/><path d="M288.075 360.075h36v36h-36v-36z"/><path d="M288.075 396.075h36v36h-36v-36z"/><path d="M216.075 468.075h36v36h-36v-36z"/><path d="M252.075 468.075h36v36h-36v-36z"/><path d="M288.075 468.075h36v36h-36v-36z"/><path d="M288.075 252.075h36v36h-36v-36z"/><path d="M288.075 288.075h36v36h-36v-36z"/><path d="M216.075 180.075h36v36h-36v-36z"/><path d="M288.075 180.075h36v36h-36v-36z"/><path d="M252.075 180.075h36v36h-36v-36z"/><path d="M288.075 216.075h36v36h-36v-36z"/><path d="M216.075 432.075h36v36h-36v-36z"/><path d="M252.075 252.075h36v36h-36v-36z"/><path d="M252.075 324.075h36v36h-36v-36z"/><path d="M180.075 180.075h36v36h-36v-36z"/><path d="M252.075 288.075h36v36h-36v-36z"/><path d="M252.075 360.075h36v36h-36v-36z"/><path d="M216.075 396.075h36v36h-36v-36z"/><path d="M468.075 36.075h36v36h-36v-36z"/><path d="M252.075 432.075h36v36h-36v-36z"/><path d="M252.075 396.075h36v36h-36v-36z"/><path d="M216.075 288.075h36v36h-36v-36z"/><path d="M216.075 324.075h36v36h-36v-36z"/><path d="M216.075 360.075h36v36h-36v-36z"/><path d="M216.075 252.075h36v36h-36v-36z"/><path d="M252.075 216.075h36v36h-36v-36z"/><path d="M216.075 216.075h36v36h-36v-36z"/><path d="M324.075 504.075h36v36h-36v-36z"/><path d="M324.075 288.075h36v36h-36v-36z"/><path d="M324.075 252.075h36v36h-36v-36z"/><path d="M324.075 216.075h36v36h-36v-36z"/><path d="M324.075 180.075h36v36h-36v-36z"/><path d="M324.075 396.075h36v36h-36v-36z"/><path d="M180.075 216.075h36v36h-36v-36z"/><path d="M324.075 324.075h36v36h-36v-36z"/><path d="M216.075 144.075h36v36h-36v-36z"/><path d="M324.075 432.075h36v36h-36v-36z"/><path d="M324.075 144.075h36v36h-36v-36z"/><path d="M144.075 144.075h36v36h-36v-36z"/><path d="M180.075 144.075h36v36h-36v-36z"/><path d="M288.075 144.075h36v36h-36v-36z"/><path d="M252.075 144.075h36v36h-36v-36z"/><path d="M324.075 360.075h36v36h-36v-36z"/><path d="M180.075 360.075h36v36h-36v-36z"/><path d="M180.075 324.075h36v36h-36v-36z"/><path d="M180.075 396.075h36v36h-36v-36z"/><path d="M180.075 432.075h36v36h-36v-36z"/><path d="M180.075 288.075h36v36h-36v-36z"/><path d="M180.075 252.075h36v36h-36v-36z"/><path d="M180.075 468.075h36v36h-36v-36z"/><path d="M288.075 504.075h36v36h-36v-36z"/><path d="M144.075 180.075h36v36h-36v-36z"/><path d="M252.075 504.075h36v36h-36v-36z"/><path d="M216.075 504.075h36v36h-36v-36z"/><path d="M180.075 504.075h36v36h-36v-36z"/><path d="M324.075 468.075h36v36h-36v-36z"/><path d="M108.075 360.075h36v36h-36v-36z"/><path d="M36.075 360.075h36v36h-36v-36z"/><path d="M36.075 396.075h36v36h-36v-36z"/><path d="M36.075 324.075h36v36h-36v-36z"/><path d="M36.075 216.075h36v36h-36v-36z"/><path d="M36.075 432.075h36v36h-36v-36z"/><path d="M36.075 288.075h36v36h-36v-36z"/><path d="M36.075 252.075h36v36h-36v-36z"/><path d="M36.075 540.075h36v36h-36v-36z"/><path d="M36.075 612.075h36v36h-36v-36z"/><path d="M36.075 648.075h36v36h-36v-36z"/><path d="M36.075 576.075h36v36h-36v-36z"/><path d="M36.075 468.075h36v36h-36v-36z"/><path d="M36.075 180.075h36v36h-36v-36z"/><path d="M36.075 504.075h36v36h-36v-36z"/><path d="M36.075 108.075h36v36h-36v-36z"/><path d="M288.075 36.075h36v36h-36v-36z"/><path d="M36.075 144.075h36v36h-36v-36z"/><path d="M216.075 36.075h36v36h-36v-36z"/><path d="M360.075 36.075h36v36h-36v-36z"/><path d="M396.075 36.075h36v36h-36v-36z"/><path d="M324.075 36.075h36v36h-36v-36z"/><path d="M180.075 36.075h36v36h-36v-36z"/><path d="M252.075 36.075h36v36h-36v-36z"/><path d="M36.075 72.075h36v36h-36v-36z"/><path d="M36.075 36.075h36v36h-36v-36z"/><path d="M72.075 648.075h36v36h-36v-36z"/><path d="M108.075 36.075h36v36h-36v-36z"/><path d="M72.075 36.075h36v36h-36v-36z"/><path d="M144.075 36.075h36v36h-36v-36z"/><path d="M468.075 396.075h36v36h-36v-36z"/><path d="M468.075 324.075h36v36h-36v-36z"/><path d="M468.075 288.075h36v36h-36v-36z"/><path d="M468.075 360.075h36v36h-36v-36z"/><path d="M468.075 432.075h36v36h-36v-36z"/><path d="M468.075 468.075h36v36h-36v-36z"/><path d="M432.075 36.075h36v36h-36v-36z"/><path d="M468.075 252.075h36v36h-36v-36z"/><path d="M468.075 504.075h36v36h-36v-36z"/><path d="M468.075 72.075h36v36h-36v-36z"/><path d="M468.075 108.075h36v36h-36v-36z"/><path d="M468.075 144.075h36v36h-36v-36z"/><path d="M468.075 180.075h36v36h-36v-36z"/><path d="M468.075 216.075h36v36h-36v-36z"/><path d="M396.075 648.075h36v36h-36v-36z"/><path d="M216.075 648.075h36v36h-36v-36z"/><path d="M252.075 648.075h36v36h-36v-36z"/><path d="M288.075 648.075h36v36h-36v-36z"/><path d="M180.075 648.075h36v36h-36v-36z"/><path d="M324.075 648.075h36v36h-36v-36z"/><path d="M144.075 648.075h36v36h-36v-36z"/><path d="M108.075 648.075h36v36h-36v-36z"/><path d="M468.075 612.075h36v36h-36v-36z"/><path d="M468.075 648.075h36v36h-36v-36z"/><path d="M468.075 576.075h36v36h-36v-36z"/><path d="M360.075 648.075h36v36h-36v-36z"/><path d="M468.075 540.075h36v36h-36v-36z"/><path d="M504.075 36.075h36v36h-36v-36z"/><path d="M468.075.075h36v36h-36v-36z"/><path d="M288.075.075h36v36h-36v-36z"/><path d="M216.075.075h36v36h-36v-36z"/><path d="M360.075.075h36v36h-36v-36z"/><path d="M396.075.075h36v36h-36v-36z"/><path d="M324.075.075h36v36h-36v-36z"/><path d="M180.075.075h36v36h-36v-36z"/><path d="M252.075.075h36v36h-36v-36z"/><path d="M36.075.075h36v36h-36v-36z"/><path d="M.075 360.075h36v36h-36v-36z"/><path d="M.075 396.075h36v36h-36v-36z"/><path d="M.075 324.075h36v36h-36v-36z"/><path d="M.075 216.075h36v36h-36v-36z"/><path d="M.075 432.075h36v36h-36v-36z"/><path d="M.075 288.075h36v36h-36v-36z"/><path d="M.075 252.075h36v36h-36v-36z"/><path d="M.075 540.075h36v36h-36v-36z"/><path d="M.075 612.075h36v36h-36v-36z"/><path d="M.075 648.075h36v36h-36v-36z"/><path d="M.075 576.075h36v36h-36v-36z"/><path d="M.075 468.075h36v36h-36v-36z"/><path d="M.075 180.075h36v36h-36v-36z"/><path d="M.075 504.075h36v36h-36v-36z"/><path d="M.075 108.075h36v36h-36v-36z"/><path d="M.075 144.075h36v36h-36v-36z"/><path d="M.075 72.075h36v36h-36v-36z"/><path d="M.075 36.075h36v36h-36v-36z"/><path d="M.075.075h36v36h-36v-36z"/><path d="M108.075.075h36v36h-36v-36z"/><path d="M72.075.075h36v36h-36v-36z"/><path d="M144.075.075h36v36h-36v-36z"/><path d="M432.075.075h36v36h-36v-36z"/><path d="M504.075.075h36v36h-36v-36z"/><path d="M504.075 396.075h36v36h-36v-36z"/><path d="M504.075 324.075h36v36h-36v-36z"/><path d="M504.075 288.075h36v36h-36v-36z"/><path d="M504.075 360.075h36v36h-36v-36z"/><path d="M504.075 432.075h36v36h-36v-36z"/><path d="M504.075 468.075h36v36h-36v-36z"/><path d="M504.075 252.075h36v36h-36v-36z"/><path d="M504.075 504.075h36v36h-36v-36z"/><path d="M504.075 72.075h36v36h-36v-36z"/><path d="M504.075 108.075h36v36h-36v-36z"/><path d="M504.075 144.075h36v36h-36v-36z"/><path d="M504.075 180.075h36v36h-36v-36z"/><path d="M504.075 216.075h36v36h-36v-36z"/><path d="M504.075 612.075h36v36h-36v-36z"/><path d="M504.075 648.075h36v36h-36v-36z"/><path d="M504.075 576.075h36v36h-36v-36z"/><path d="M504.075 540.075h36v36h-36v-36z"/><path d="M432.075 648.075h36v36h-36v-36z"/><path d="M36.075 684.075h36v36h-36v-36z"/><path d="M72.075 684.075h36v36h-36v-36z"/><path d="M396.075 684.075h36v36h-36v-36z"/><path d="M216.075 684.075h36v36h-36v-36z"/><path d="M252.075 684.075h36v36h-36v-36z"/><path d="M288.075 684.075h36v36h-36v-36z"/><path d="M180.075 684.075h36v36h-36v-36z"/><path d="M324.075 684.075h36v36h-36v-36z"/><path d="M144.075 684.075h36v36h-36v-36z"/><path d="M108.075 684.075h36v36h-36v-36z"/><path d="M468.075 684.075h36v36h-36v-36z"/><path d="M360.075 684.075h36v36h-36v-36z"/><path d="M.075 684.075h36v36h-36v-36z"/><path d="M504.075 684.075h36v36h-36v-36z"/><path d="M432.075 684.075h36v36h-36v-36z"/><path d="M72.075 576.075h36v36h-36v-36z"/><path d="M72.075 108.075h36v36h-36v-36z"/><path d="M72.075 144.075h36v36h-36v-36z"/><path d="M72.075 180.075h36v36h-36v-36z"/><path d="M108.075 72.075h36v36h-36v-36z"/><path d="M72.075 72.075h36v36h-36v-36z"/><path d="M144.075 72.075h36v36h-36v-36z"/><path d="M72.075 216.075h36v36h-36v-36z"/><path d="M180.075 72.075h36v36h-36v-36z"/><path d="M72.075 252.075h36v36h-36v-36z"/><path d="M72.075 396.075h36v36h-36v-36z"/><path d="M72.075 468.075h36v36h-36v-36z"/><path d="M72.075 360.075h36v36h-36v-36z"/><path d="M72.075 324.075h36v36h-36v-36z"/><path d="M72.075 288.075h36v36h-36v-36z"/><path d="M72.075 432.075h36v36h-36v-36z"/><path d="M396.075 144.075h36v36h-36v-36z"/><path d="M396.075 216.075h36v36h-36v-36z"/><path d="M216.075 72.075h36v36h-36v-36z"/><path d="M396.075 252.075h36v36h-36v-36z"/><path d="M396.075 288.075h36v36h-36v-36z"/><path d="M396.075 360.075h36v36h-36v-36z"/><path d="M396.075 324.075h36v36h-36v-36z"/><path d="M396.075 180.075h36v36h-36v-36z"/><path d="M288.075 72.075h36v36h-36v-36z"/><path d="M252.075 72.075h36v36h-36v-36z"/><path d="M396.075 108.075h36v36h-36v-36z"/><path d="M324.075 72.075h36v36h-36v-36z"/><path d="M360.075 72.075h36v36h-36v-36z"/><path d="M396.075 72.075h36v36h-36v-36z"/><path d="M72.075 540.075h36v36h-36v-36z"/><path d="M432.075 432.075h36v36h-36v-36z"/><path d="M432.075 396.075h36v36h-36v-36z"/><path d="M432.075 360.075h36v36h-36v-36z"/><path d="M432.075 540.075h36v36h-36v-36z"/><path d="M432.075 324.075h36v36h-36v-36z"/><path d="M432.075 504.075h36v36h-36v-36z"/><path d="M432.075 468.075h36v36h-36v-36z"/><path d="M432.075 252.075h36v36h-36v-36z"/><path d="M432.075 180.075h36v36h-36v-36z"/><path d="M432.075 144.075h36v36h-36v-36z"/><path d="M432.075 108.075h36v36h-36v-36z"/><path d="M432.075 576.075h36v36h-36v-36z"/><path d="M432.075 216.075h36v36h-36v-36z"/><path d="M432.075 288.075h36v36h-36v-36z"/><path d="M108.075 612.075h36v36h-36v-36z"/><path d="M72.075 612.075h36v36h-36v-36z"/><path d="M432.075 612.075h36v36h-36v-36z"/><path d="M180.075 612.075h36v36h-36v-36z"/><path d="M144.075 612.075h36v36h-36v-36z"/><path d="M396.075 396.075h36v36h-36v-36z"/><path d="M432.075 72.075h36v36h-36v-36z"/><path d="M72.075 504.075h36v36h-36v-36z"/><path d="M324.075 612.075h36v36h-36v-36z"/><path d="M216.075 612.075h36v36h-36v-36z"/><path d="M396.075 612.075h36v36h-36v-36z"/><path d="M360.075 612.075h36v36h-36v-36z"/><path d="M288.075 612.075h36v36h-36v-36z"/><path d="M252.075 612.075h36v36h-36v-36z"/><path d="M376.235 347.889h28.347v28.347h-28.347v-28.347z"/><path d="M376.235 376.235h28.347v28.347h-28.347v-28.347z"/><path d="M121.115 121.115h28.347v28.347h-28.347v-28.347z"/><path d="M376.235 291.195h28.347v28.347h-28.347v-28.347z"/><path d="M376.235 262.849h28.347v28.347h-28.347v-28.347z"/><path d="M376.235 489.622h28.347v28.347h-28.347v-28.347z"/><path d="M376.235 404.582h28.347v28.347h-28.347v-28.347z"/><path d="M376.235 234.502h28.347v28.347h-28.347v-28.347z"/><path d="M376.235 517.969h28.347v28.347h-28.347v-28.347z"/><path d="M376.235 461.275h28.347v28.347h-28.347v-28.347z"/><path d="M376.235 432.929h28.347v28.347h-28.347v-28.347z"/><path d="M177.809 121.115h28.347v28.347h-28.347v-28.347z"/><path d="M234.502 121.115h28.347v28.347h-28.347v-28.347z"/><path d="M262.849 121.115h28.347v28.347h-28.347v-28.347z"/><path d="M376.235 206.155h28.347v28.347h-28.347v-28.347z"/><path d="M206.155 121.115h28.347v28.347h-28.347v-28.347z"/><path d="M149.462 121.115h28.347v28.347h-28.347v-28.347z"/><path d="M291.195 121.115h28.347v28.347h-28.347v-28.347z"/><path d="M319.542 121.115h28.347v28.347h-28.347v-28.347z"/><path d="M376.235 149.462h28.347v28.347h-28.347v-28.347z"/><path d="M376.235 177.809h28.347v28.347h-28.347v-28.347z"/><path d="M376.235 121.115h28.347v28.347h-28.347v-28.347z"/><path d="M347.889 121.115h28.347v28.347h-28.347v-28.347z"/><path d="M376.235 319.542h28.347v28.347h-28.347v-28.347z"/><path d="M149.462 319.542h28.347v28.347h-28.347v-28.347z"/><path d="M149.462 291.195h28.347v28.347h-28.347v-28.347z"/><path d="M149.462 347.889h28.347v28.347h-28.347v-28.347z"/><path d="M149.462 404.582h28.347v28.347h-28.347v-28.347z"/><path d="M149.462 262.849h28.347v28.347h-28.347v-28.347z"/><path d="M149.462 376.235h28.347v28.347h-28.347v-28.347z"/><path d="M149.462 234.502h28.347v28.347h-28.347v-28.347z"/><path d="M149.462 149.462h28.347v28.347h-28.347v-28.347z"/><path d="M177.809 149.462h28.347v28.347h-28.347v-28.347z"/><path d="M149.462 206.155h28.347v28.347h-28.347v-28.347z"/><path d="M149.462 432.929h28.347v28.347h-28.347v-28.347z"/><path d="M149.462 177.809h28.347v28.347h-28.347v-28.347z"/><path d="M149.462 461.275h28.347v28.347h-28.347v-28.347z"/><path d="M234.502 546.315h28.347v28.347h-28.347v-28.347z"/><path d="M262.849 546.315h28.347v28.347h-28.347v-28.347z"/><path d="M291.195 546.315h28.347v28.347h-28.347v-28.347z"/><path d="M347.889 546.315h28.347v28.347h-28.347v-28.347z"/><path d="M319.542 546.315h28.347v28.347h-28.347v-28.347z"/><path d="M149.462 517.969h28.347v28.347h-28.347v-28.347z"/><path d="M376.235 546.315h28.347v28.347h-28.347v-28.347z"/><path d="M206.155 546.315h28.347v28.347h-28.347v-28.347z"/><path d="M149.462 489.622h28.347v28.347h-28.347v-28.347z"/><path d="M149.462 546.315h28.347v28.347h-28.347v-28.347z"/><path d="M206.155 92.769h28.347v28.347h-28.347V92.769z"/><path d="M404.582 206.155h28.347v28.347h-28.347v-28.347z"/><path d="M404.582 574.662h28.347v28.347h-28.347v-28.347z"/><path d="M404.582 319.542h28.347v28.347h-28.347v-28.347z"/><path d="M404.582 376.235h28.347v28.347h-28.347v-28.347z"/><path d="M404.582 262.849h28.347v28.347h-28.347v-28.347z"/><path d="M404.582 404.582h28.347v28.347h-28.347v-28.347z"/><path d="M404.582 291.195h28.347v28.347h-28.347v-28.347z"/><path d="M404.582 432.929h28.347v28.347h-28.347v-28.347z"/><path d="M404.582 517.969h28.347v28.347h-28.347v-28.347z"/><path d="M404.582 546.315h28.347v28.347h-28.347v-28.347z"/><path d="M404.582 461.275h28.347v28.347h-28.347v-28.347z"/><path d="M404.582 234.502h28.347v28.347h-28.347v-28.347z"/><path d="M121.115 149.462h28.347v28.347h-28.347v-28.347z"/><path d="M404.582 347.889h28.347v28.347h-28.347v-28.347z"/><path d="M291.195 92.769h28.347v28.347h-28.347V92.769z"/><path d="M319.542 92.769h28.347v28.347h-28.347V92.769z"/><path d="M234.502 92.769h28.347v28.347h-28.347V92.769z"/><path d="M206.155 149.462h28.347v28.347h-28.347v-28.347z"/><path d="M347.889 92.769h28.347v28.347h-28.347V92.769z"/><path d="M262.849 92.769h28.347v28.347h-28.347V92.769z"/><path d="M376.235 92.769h28.347v28.347h-28.347V92.769z"/><path d="M404.582 149.462h28.347v28.347h-28.347v-28.347z"/><path d="M404.582 177.809h28.347v28.347h-28.347v-28.347z"/><path d="M404.582 92.769h28.347v28.347h-28.347V92.769z"/><path d="M404.582 121.115h28.347v28.347h-28.347v-28.347z"/><path d="M404.582 489.622h28.347v28.347h-28.347v-28.347z"/><path d="M121.115 319.542h28.347v28.347h-28.347v-28.347z"/><path d="M121.115 347.889h28.347v28.347h-28.347v-28.347z"/><path d="M121.115 376.235h28.347v28.347h-28.347v-28.347z"/><path d="M121.115 432.929h28.347v28.347h-28.347v-28.347z"/><path d="M121.115 404.582h28.347v28.347h-28.347v-28.347z"/><path d="M121.115 461.275h28.347v28.347h-28.347v-28.347z"/><path d="M121.115 206.155h28.347v28.347h-28.347v-28.347z"/><path d="M121.115 177.809h28.347v28.347h-28.347v-28.347z"/><path d="M121.115 234.502h28.347v28.347h-28.347v-28.347z"/><path d="M121.115 291.195h28.347v28.347h-28.347v-28.347z"/><path d="M121.115 262.849h28.347v28.347h-28.347v-28.347z"/><path d="M347.889 574.662h28.347v28.347h-28.347v-28.347z"/><path d="M234.502 574.662h28.347v28.347h-28.347v-28.347z"/><path d="M262.849 574.662h28.347v28.347h-28.347v-28.347z"/><path d="M291.195 574.662h28.347v28.347h-28.347v-28.347z"/><path d="M206.155 574.662h28.347v28.347h-28.347v-28.347z"/><path d="M319.542 574.662h28.347v28.347h-28.347v-28.347z"/><path d="M121.115 489.622h28.347v28.347h-28.347v-28.347z"/><path d="M177.809 574.662h28.347v28.347h-28.347v-28.347z"/><path d="M121.115 517.969h28.347v28.347h-28.347v-28.347z"/><path d="M121.115 546.315h28.347v28.347h-28.347v-28.347z"/><path d="M121.115 574.662h28.347v28.347h-28.347v-28.347z"/><path d="M149.462 574.662h28.347v28.347h-28.347v-28.347z"/><path d="M177.809 546.315h28.347v28.347h-28.347v-28.347z"/><path d="M206.155 206.155h28.347v28.347h-28.347v-28.347z"/><path d="M206.155 234.502h28.347v28.347h-28.347v-28.347z"/><path d="M234.502 206.155h28.347v28.347h-28.347v-28.347z"/><path d="M206.155 262.849h28.347v28.347h-28.347v-28.347z"/><path d="M206.155 291.195h28.347v28.347h-28.347v-28.347z"/><path d="M262.849 206.155h28.347v28.347h-28.347v-28.347z"/><path d="M291.195 291.195h28.347v28.347h-28.347v-28.347z"/><path d="M291.195 206.155h28.347v28.347h-28.347v-28.347z"/><path d="M291.195 319.542h28.347v28.347h-28.347v-28.347z"/><path d="M206.155 319.542h28.347v28.347h-28.347v-28.347z"/><path d="M291.195 234.502h28.347v28.347h-28.347v-28.347z"/><path d="M291.195 262.849h28.347v28.347h-28.347v-28.347z"/><path d="M319.542 489.622h28.347v28.347h-28.347v-28.347z"/><path d="M262.849 489.622h28.347v28.347h-28.347v-28.347z"/><path d="M291.195 489.622h28.347v28.347h-28.347v-28.347z"/><path d="M206.155 347.889h28.347v28.347h-28.347v-28.347z"/><path d="M234.502 489.622h28.347v28.347h-28.347v-28.347z"/><path d="M291.195 347.889h28.347v28.347h-28.347v-28.347z"/><path d="M319.542 461.275h28.347v28.347h-28.347v-28.347z"/><path d="M319.542 432.929h28.347v28.347h-28.347v-28.347z"/><path d="M206.155 404.582h28.347v28.347h-28.347v-28.347z"/><path d="M206.155 489.622h28.347v28.347h-28.347v-28.347z"/><path d="M206.155 461.275h28.347v28.347h-28.347v-28.347z"/><path d="M206.155 432.929h28.347v28.347h-28.347v-28.347z"/><path d="M206.155 376.235h28.347v28.347h-28.347v-28.347z"/><path d="M262.849 319.542h28.347v28.347h-28.347v-28.347z"/><path d="M234.502 262.849h28.347v28.347h-28.347v-28.347z"/><path d="M262.849 291.195h28.347v28.347h-28.347v-28.347z"/><path d="M234.502 234.502h28.347v28.347h-28.347v-28.347z"/><path d="M262.849 234.502h28.347v28.347h-28.347v-28.347z"/><path d="M262.849 262.849h28.347v28.347h-28.347v-28.347z"/><path d="M262.849 432.929h28.347v28.347h-28.347v-28.347z"/><path d="M489.622 36.075h28.347v28.347h-28.347V36.075z"/><path d="M262.849 404.582h28.347v28.347h-28.347v-28.347z"/><path d="M262.849 376.235h28.347v28.347h-28.347v-28.347z"/><path d="M262.849 347.889h28.347v28.347h-28.347v-28.347z"/><path d="M291.195 376.235h28.347v28.347h-28.347v-28.347z"/><path d="M291.195 461.275h28.347v28.347h-28.347v-28.347z"/><path d="M262.849 461.275h28.347v28.347h-28.347v-28.347z"/><path d="M291.195 432.929h28.347v28.347h-28.347v-28.347z"/><path d="M234.502 291.195h28.347v28.347h-28.347v-28.347z"/><path d="M234.502 461.275h28.347v28.347h-28.347v-28.347z"/><path d="M291.195 404.582h28.347v28.347h-28.347v-28.347z"/><path d="M234.502 149.462h28.347v28.347h-28.347v-28.347z"/><path d="M234.502 347.889h28.347v28.347h-28.347v-28.347z"/><path d="M234.502 376.235h28.347v28.347h-28.347v-28.347z"/><path d="M234.502 404.582h28.347v28.347h-28.347v-28.347z"/><path d="M234.502 432.929h28.347v28.347h-28.347v-28.347z"/><path d="M234.502 319.542h28.347v28.347h-28.347v-28.347z"/><path d="M347.889 489.622h28.347v28.347h-28.347v-28.347z"/><path d="M347.889 376.235h28.347v28.347h-28.347v-28.347z"/><path d="M347.889 461.275h28.347v28.347h-28.347v-28.347z"/><path d="M347.889 432.929h28.347v28.347h-28.347v-28.347z"/><path d="M347.889 404.582h28.347v28.347h-28.347v-28.347z"/><path d="M319.542 517.969h28.347v28.347h-28.347v-28.347z"/><path d="M347.889 517.969h28.347v28.347h-28.347v-28.347z"/><path d="M177.809 517.969h28.347v28.347h-28.347v-28.347z"/><path d="M206.155 517.969h28.347v28.347h-28.347v-28.347z"/><path d="M291.195 517.969h28.347v28.347h-28.347v-28.347z"/><path d="M234.502 517.969h28.347v28.347h-28.347v-28.347z"/><path d="M262.849 517.969h28.347v28.347h-28.347v-28.347z"/><path d="M262.849 149.462h28.347v28.347h-28.347v-28.347z"/><path d="M319.542 404.582h28.347v28.347h-28.347v-28.347z"/><path d="M347.889 177.809h28.347v28.347h-28.347v-28.347z"/><path d="M319.542 149.462h28.347v28.347h-28.347v-28.347z"/><path d="M177.809 489.622h28.347v28.347h-28.347v-28.347z"/><path d="M291.195 149.462h28.347v28.347h-28.347v-28.347z"/><path d="M347.889 234.502h28.347v28.347h-28.347v-28.347z"/><path d="M347.889 319.542h28.347v28.347h-28.347v-28.347z"/><path d="M347.889 291.195h28.347v28.347h-28.347v-28.347z"/><path d="M347.889 206.155h28.347v28.347h-28.347v-28.347z"/><path d="M347.889 347.889h28.347v28.347h-28.347v-28.347z"/><path d="M347.889 262.849h28.347v28.347h-28.347v-28.347z"/><path d="M347.889 149.462h28.347v28.347h-28.347v-28.347z"/><path d="M319.542 206.155h28.347v28.347h-28.347v-28.347z"/><path d="M319.542 234.502h28.347v28.347h-28.347v-28.347z"/><path d="M319.542 177.809h28.347v28.347h-28.347v-28.347z"/><path d="M291.195 177.809h28.347v28.347h-28.347v-28.347z"/><path d="M262.849 177.809h28.347v28.347h-28.347v-28.347z"/><path d="M234.502 177.809h28.347v28.347h-28.347v-28.347z"/><path d="M319.542 376.235h28.347v28.347h-28.347v-28.347z"/><path d="M319.542 347.889h28.347v28.347h-28.347v-28.347z"/><path d="M319.542 262.849h28.347v28.347h-28.347v-28.347z"/><path d="M319.542 291.195h28.347v28.347h-28.347v-28.347z"/><path d="M319.542 319.542h28.347v28.347h-28.347v-28.347z"/><path d="M177.809 319.542h28.347v28.347h-28.347v-28.347z"/><path d="M177.809 347.889h28.347v28.347h-28.347v-28.347z"/><path d="M177.809 376.235h28.347v28.347h-28.347v-28.347z"/><path d="M177.809 404.582h28.347v28.347h-28.347v-28.347z"/><path d="M177.809 432.929h28.347v28.347h-28.347v-28.347z"/><path d="M177.809 461.275h28.347v28.347h-28.347v-28.347z"/><path d="M177.809 262.849h28.347v28.347h-28.347v-28.347z"/><path d="M177.809 177.809h28.347v28.347h-28.347v-28.347z"/><path d="M177.809 206.155h28.347v28.347h-28.347v-28.347z"/><path d="M177.809 291.195h28.347v28.347h-28.347v-28.347z"/><path d="M206.155 177.809h28.347v28.347h-28.347v-28.347z"/><path d="M177.809 234.502h28.347v28.347h-28.347v-28.347z"/><path d="M376.235 574.662h28.347v28.347h-28.347v-28.347z"/><path d="M206.155 36.075h28.347v28.347h-28.347V36.075z"/><path d="M376.235 36.075h28.347v28.347h-28.347V36.075z"/><path d="M177.809 36.075h28.347v28.347h-28.347V36.075z"/><path d="M121.115 36.075h28.347v28.347h-28.347V36.075z"/><path d="M92.769 36.075h28.347v28.347H92.769V36.075z"/><path d="M64.422 36.075h28.347v28.347H64.422V36.075z"/><path d="M262.849 36.075h28.347v28.347h-28.347V36.075z"/><path d="M319.542 36.075h28.347v28.347h-28.347V36.075z"/><path d="M36.075 376.235h28.347v28.347H36.075v-28.347z"/><path d="M291.195 36.075h28.347v28.347h-28.347V36.075z"/><path d="M234.502 36.075h28.347v28.347h-28.347V36.075z"/><path d="M36.075 36.075h28.347v28.347H36.075V36.075z"/><path d="M149.462 36.075h28.347v28.347h-28.347V36.075z"/><path d="M36.075 262.849h28.347v28.347H36.075v-28.347z"/><path d="M36.075 291.195h28.347v28.347H36.075v-28.347z"/><path d="M36.075 234.502h28.347v28.347H36.075v-28.347z"/><path d="M36.075 347.889h28.347v28.347H36.075v-28.347z"/><path d="M36.075 319.542h28.347v28.347H36.075v-28.347z"/><path d="M36.075 177.809h28.347v28.347H36.075v-28.347z"/><path d="M36.075 121.115h28.347v28.347H36.075v-28.347z"/><path d="M36.075 92.769h28.347v28.347H36.075V92.769z"/><path d="M36.075 149.462h28.347v28.347H36.075v-28.347z"/><path d="M36.075 206.155h28.347v28.347H36.075v-28.347z"/><path d="M36.075 64.422h28.347v28.347H36.075V64.422z"/><path d="M347.889 36.075h28.347v28.347h-28.347V36.075z"/><path d="M461.275 432.929h28.347v28.347h-28.347v-28.347z"/><path d="M461.275 489.622h28.347v28.347h-28.347v-28.347z"/><path d="M461.275 461.275h28.347v28.347h-28.347v-28.347z"/><path d="M461.275 404.582h28.347v28.347h-28.347v-28.347z"/><path d="M461.275 376.235h28.347v28.347h-28.347v-28.347z"/><path d="M461.275 347.889h28.347v28.347h-28.347v-28.347z"/><path d="M461.275 517.969h28.347v28.347h-28.347v-28.347z"/><path d="M461.275 631.355h28.347v28.347h-28.347v-28.347z"/><path d="M461.275 603.009h28.347v28.347h-28.347v-28.347z"/><path d="M461.275 319.542h28.347v28.347h-28.347v-28.347z"/><path d="M461.275 574.662h28.347v28.347h-28.347v-28.347z"/><path d="M461.275 546.315h28.347v28.347h-28.347v-28.347z"/><path d="M461.275 177.809h28.347v28.347h-28.347v-28.347z"/><path d="M461.275 92.769h28.347v28.347h-28.347V92.769z"/><path d="M461.275 121.115h28.347v28.347h-28.347v-28.347z"/><path d="M461.275 64.422h28.347v28.347h-28.347V64.422z"/><path d="M432.929 36.075h28.347v28.347h-28.347V36.075z"/><path d="M461.275 36.075h28.347v28.347h-28.347V36.075z"/><path d="M404.582 36.075h28.347v28.347h-28.347V36.075z"/><path d="M461.275 262.849h28.347v28.347h-28.347v-28.347z"/><path d="M461.275 234.502h28.347v28.347h-28.347v-28.347z"/><path d="M461.275 206.155h28.347v28.347h-28.347v-28.347z"/><path d="M461.275 149.462h28.347v28.347h-28.347v-28.347z"/><path d="M461.275 291.195h28.347v28.347h-28.347v-28.347z"/><path d="M489.622 489.622h28.347v28.347h-28.347v-28.347z"/><path d="M489.622 432.929h28.347v28.347h-28.347v-28.347z"/><path d="M489.622 461.275h28.347v28.347h-28.347v-28.347z"/><path d="M432.929 631.355h28.347v28.347h-28.347v-28.347z"/><path d="M489.622 376.235h28.347v28.347h-28.347v-28.347z"/><path d="M489.622 404.582h28.347v28.347h-28.347v-28.347z"/><path d="M489.622 517.969h28.347v28.347h-28.347v-28.347z"/><path d="M461.275 659.702h28.347v28.347h-28.347v-28.347z"/><path d="M489.622 659.702h28.347v28.347h-28.347v-28.347z"/><path d="M489.622 631.355h28.347v28.347h-28.347v-28.347z"/><path d="M489.622 347.889h28.347v28.347h-28.347v-28.347z"/><path d="M489.622 574.662h28.347v28.347h-28.347v-28.347z"/><path d="M489.622 546.315h28.347v28.347h-28.347v-28.347z"/><path d="M489.622 603.009h28.347v28.347h-28.347v-28.347z"/><path d="M489.622 92.769h28.347v28.347h-28.347V92.769z"/><path d="M489.622 121.115h28.347v28.347h-28.347v-28.347z"/><path d="M489.622 64.422h28.347v28.347h-28.347V64.422z"/><path d="M489.622 149.462h28.347v28.347h-28.347v-28.347z"/><path d="M36.075 404.582h28.347v28.347H36.075v-28.347z"/><path d="M489.622 319.542h28.347v28.347h-28.347v-28.347z"/><path d="M489.622 177.809h28.347v28.347h-28.347v-28.347z"/><path d="M489.622 262.849h28.347v28.347h-28.347v-28.347z"/><path d="M489.622 234.502h28.347v28.347h-28.347v-28.347z"/><path d="M489.622 206.155h28.347v28.347h-28.347v-28.347z"/><path d="M489.622 291.195h28.347v28.347h-28.347v-28.347z"/><path d="M517.969 36.075h28.347v28.347h-28.347V36.075z"/><path d="M517.969 489.622h28.347v28.347h-28.347v-28.347z"/><path d="M517.969 432.929h28.347v28.347h-28.347v-28.347z"/><path d="M517.969 461.275h28.347v28.347h-28.347v-28.347z"/><path d="M517.969 376.235h28.347v28.347h-28.347v-28.347z"/><path d="M517.969 404.582h28.347v28.347h-28.347v-28.347z"/><path d="M517.969 517.969h28.347v28.347h-28.347v-28.347z"/><path d="M517.969 659.702h28.347v28.347h-28.347v-28.347z"/><path d="M517.969 631.355h28.347v28.347h-28.347v-28.347z"/><path d="M517.969 347.889h28.347v28.347h-28.347v-28.347z"/><path d="M517.969 574.662h28.347v28.347h-28.347v-28.347z"/><path d="M517.969 546.315h28.347v28.347h-28.347v-28.347z"/><path d="M517.969 603.009h28.347v28.347h-28.347v-28.347z"/><path d="M517.969 92.769h28.347v28.347h-28.347V92.769z"/><path d="M517.969 121.115h28.347v28.347h-28.347v-28.347z"/><path d="M517.969 64.422h28.347v28.347h-28.347V64.422z"/><path d="M517.969 149.462h28.347v28.347h-28.347v-28.347z"/><path d="M517.969 319.542h28.347v28.347h-28.347v-28.347z"/><path d="M517.969 177.809h28.347v28.347h-28.347v-28.347z"/><path d="M517.969 262.849h28.347v28.347h-28.347v-28.347z"/><path d="M517.969 234.502h28.347v28.347h-28.347v-28.347z"/><path d="M517.969 206.155h28.347v28.347h-28.347v-28.347z"/><path d="M517.969 291.195h28.347v28.347h-28.347v-28.347z"/><path d="M7.729 36.075h28.347v28.347H7.729V36.075z"/><path d="M7.729 489.622h28.347v28.347H7.729v-28.347z"/><path d="M7.729 432.929h28.347v28.347H7.729v-28.347z"/><path d="M7.729 461.275h28.347v28.347H7.729v-28.347z"/><path d="M7.729 376.235h28.347v28.347H7.729v-28.347z"/><path d="M7.729 404.582h28.347v28.347H7.729v-28.347z"/><path d="M7.729 517.969h28.347v28.347H7.729v-28.347z"/><path d="M7.729 659.702h28.347v28.347H7.729v-28.347z"/><path d="M7.729 631.355h28.347v28.347H7.729v-28.347z"/><path d="M7.729 347.889h28.347v28.347H7.729v-28.347z"/><path d="M7.729 574.662h28.347v28.347H7.729v-28.347z"/><path d="M7.729 546.315h28.347v28.347H7.729v-28.347z"/><path d="M7.729 603.009h28.347v28.347H7.729v-28.347z"/><path d="M7.729 92.769h28.347v28.347H7.729V92.769z"/><path d="M7.729 121.115h28.347v28.347H7.729v-28.347z"/><path d="M7.729 64.422h28.347v28.347H7.729V64.422z"/><path d="M7.729 149.462h28.347v28.347H7.729v-28.347z"/><path d="M7.729 319.542h28.347v28.347H7.729v-28.347z"/><path d="M7.729 177.809h28.347v28.347H7.729v-28.347z"/><path d="M7.729 262.849h28.347v28.347H7.729v-28.347z"/><path d="M7.729 234.502h28.347v28.347H7.729v-28.347z"/><path d="M7.729 206.155h28.347v28.347H7.729v-28.347z"/><path d="M7.729 291.195h28.347v28.347H7.729v-28.347z"/><path d="M36.075 603.009h28.347v28.347H36.075v-28.347z"/><path d="M36.075 631.355h28.347v28.347H36.075v-28.347z"/><path d="M36.075 659.702h28.347v28.347H36.075v-28.347z"/><path d="M92.769 659.702h28.347v28.347H92.769v-28.347z"/><path d="M64.422 659.702h28.347v28.347H64.422v-28.347z"/><path d="M36.075 574.662h28.347v28.347H36.075v-28.347z"/><path d="M432.929 659.702h28.347v28.347h-28.347v-28.347z"/><path d="M36.075 546.315h28.347v28.347H36.075v-28.347z"/><path d="M36.075 461.275h28.347v28.347H36.075v-28.347z"/><path d="M36.075 517.969h28.347v28.347H36.075v-28.347z"/><path d="M36.075 489.622h28.347v28.347H36.075v-28.347z"/><path d="M36.075 432.929h28.347v28.347H36.075v-28.347z"/><path d="M319.542 659.702h28.347v28.347h-28.347v-28.347z"/><path d="M347.889 659.702h28.347v28.347h-28.347v-28.347z"/><path d="M291.195 659.702h28.347v28.347h-28.347v-28.347z"/><path d="M376.235 659.702h28.347v28.347h-28.347v-28.347z"/><path d="M404.582 659.702h28.347v28.347h-28.347v-28.347z"/><path d="M262.849 659.702h28.347v28.347h-28.347v-28.347z"/><path d="M177.809 659.702h28.347v28.347h-28.347v-28.347z"/><path d="M121.115 659.702h28.347v28.347h-28.347v-28.347z"/><path d="M149.462 659.702h28.347v28.347h-28.347v-28.347z"/><path d="M206.155 659.702h28.347v28.347h-28.347v-28.347z"/><path d="M234.502 659.702h28.347v28.347h-28.347v-28.347z"/><path d="M461.275 688.049h28.347v28.347h-28.347v-28.347z"/><path d="M489.622 688.049h28.347v28.347h-28.347v-28.347z"/><path d="M517.969 688.049h28.347v28.347h-28.347v-28.347z"/><path d="M7.729 688.049h28.347v28.347H7.729v-28.347z"/><path d="M36.075 688.049h28.347v28.347H36.075v-28.347z"/><path d="M92.769 688.049h28.347v28.347H92.769v-28.347z"/><path d="M64.422 688.049h28.347v28.347H64.422v-28.347z"/><path d="M432.929 688.049h28.347v28.347h-28.347v-28.347z"/><path d="M319.542 688.049h28.347v28.347h-28.347v-28.347z"/><path d="M347.889 688.049h28.347v28.347h-28.347v-28.347z"/><path d="M291.195 688.049h28.347v28.347h-28.347v-28.347z"/><path d="M376.235 688.049h28.347v28.347h-28.347v-28.347z"/><path d="M404.582 688.049h28.347v28.347h-28.347v-28.347z"/><path d="M262.849 688.049h28.347v28.347h-28.347v-28.347z"/><path d="M177.809 688.049h28.347v28.347h-28.347v-28.347z"/><path d="M121.115 688.049h28.347v28.347h-28.347v-28.347z"/><path d="M149.462 688.049h28.347v28.347h-28.347v-28.347z"/><path d="M206.155 688.049h28.347v28.347h-28.347v-28.347z"/><path d="M234.502 688.049h28.347v28.347h-28.347v-28.347z"/><path d="M461.275 7.729h28.347v28.347h-28.347V7.729z"/><path d="M489.622 7.729h28.347v28.347h-28.347V7.729z"/><path d="M517.969 7.729h28.347v28.347h-28.347V7.729z"/><path d="M7.729 7.729h28.347v28.347H7.729V7.729z"/><path d="M36.075 7.729h28.347v28.347H36.075V7.729z"/><path d="M92.769 7.729h28.347v28.347H92.769V7.729z"/><path d="M64.422 7.729h28.347v28.347H64.422V7.729z"/><path d="M432.929 7.729h28.347v28.347h-28.347V7.729z"/><path d="M319.542 7.729h28.347v28.347h-28.347V7.729z"/><path d="M347.889 7.729h28.347v28.347h-28.347V7.729z"/><path d="M291.195 7.729h28.347v28.347h-28.347V7.729z"/><path d="M376.235 7.729h28.347v28.347h-28.347V7.729z"/><path d="M404.582 7.729h28.347v28.347h-28.347V7.729z"/><path d="M262.849 7.729h28.347v28.347h-28.347V7.729z"/><path d="M177.809 7.729h28.347v28.347h-28.347V7.729z"/><path d="M121.115 7.729h28.347v28.347h-28.347V7.729z"/><path d="M149.462 7.729h28.347v28.347h-28.347V7.729z"/><path d="M206.155 7.729h28.347v28.347h-28.347V7.729z"/><path d="M234.502 7.729h28.347v28.347h-28.347V7.729z"/><path d="M92.769 121.115h28.347v28.347H92.769v-28.347z"/><path d="M347.889 603.009h28.347v28.347h-28.347v-28.347z"/><path d="M404.582 603.009h28.347v28.347h-28.347v-28.347z"/><path d="M376.235 603.009h28.347v28.347h-28.347v-28.347z"/><path d="M432.929 603.009h28.347v28.347h-28.347v-28.347z"/><path d="M432.929 574.662h28.347v28.347h-28.347v-28.347z"/><path d="M432.929 546.315h28.347v28.347h-28.347v-28.347z"/><path d="M319.542 603.009h28.347v28.347h-28.347v-28.347z"/><path d="M206.155 603.009h28.347v28.347h-28.347v-28.347z"/><path d="M234.502 603.009h28.347v28.347h-28.347v-28.347z"/><path d="M432.929 517.969h28.347v28.347h-28.347v-28.347z"/><path d="M262.849 603.009h28.347v28.347h-28.347v-28.347z"/><path d="M291.195 603.009h28.347v28.347h-28.347v-28.347z"/><path d="M432.929 206.155h28.347v28.347h-28.347v-28.347z"/><path d="M432.929 291.195h28.347v28.347h-28.347v-28.347z"/><path d="M432.929 262.849h28.347v28.347h-28.347v-28.347z"/><path d="M432.929 489.622h28.347v28.347h-28.347v-28.347z"/><path d="M177.809 603.009h28.347v28.347h-28.347v-28.347z"/><path d="M432.929 234.502h28.347v28.347h-28.347v-28.347z"/><path d="M432.929 319.542h28.347v28.347h-28.347v-28.347z"/><path d="M432.929 461.275h28.347v28.347h-28.347v-28.347z"/><path d="M432.929 432.929h28.347v28.347h-28.347v-28.347z"/><path d="M432.929 404.582h28.347v28.347h-28.347v-28.347z"/><path d="M432.929 347.889h28.347v28.347h-28.347v-28.347z"/><path d="M432.929 376.235h28.347v28.347h-28.347v-28.347z"/><path d="M92.769 319.542h28.347v28.347H92.769v-28.347z"/><path d="M149.462 603.009h28.347v28.347h-28.347v-28.347z"/><path d="M432.929 177.809h28.347v28.347h-28.347v-28.347z"/><path d="M92.769 206.155h28.347v28.347H92.769v-28.347z"/><path d="M92.769 262.849h28.347v28.347H92.769v-28.347z"/><path d="M92.769 291.195h28.347v28.347H92.769v-28.347z"/><path d="M92.769 177.809h28.347v28.347H92.769v-28.347z"/><path d="M121.115 92.769h28.347v28.347h-28.347V92.769z"/><path d="M149.462 92.769h28.347v28.347h-28.347V92.769z"/><path d="M92.769 149.462h28.347v28.347H92.769v-28.347z"/><path d="M92.769 92.769h28.347v28.347H92.769V92.769z"/><path d="M177.809 92.769h28.347v28.347h-28.347V92.769z"/><path d="M92.769 234.502h28.347v28.347H92.769v-28.347z"/><path d="M92.769 347.889h28.347v28.347H92.769v-28.347z"/><path d="M92.769 546.315h28.347v28.347H92.769v-28.347z"/><path d="M92.769 603.009h28.347v28.347H92.769v-28.347z"/><path d="M121.115 603.009h28.347v28.347h-28.347v-28.347z"/><path d="M92.769 517.969h28.347v28.347H92.769v-28.347z"/><path d="M92.769 574.662h28.347v28.347H92.769v-28.347z"/><path d="M92.769 404.582h28.347v28.347H92.769v-28.347z"/><path d="M92.769 489.622h28.347v28.347H92.769v-28.347z"/><path d="M92.769 376.235h28.347v28.347H92.769v-28.347z"/><path d="M92.769 461.275h28.347v28.347H92.769v-28.347z"/><path d="M92.769 432.929h28.347v28.347H92.769v-28.347z"/><path d="M64.422 404.582h28.347v28.347H64.422v-28.347z"/><path d="M64.422 461.275h28.347v28.347H64.422v-28.347z"/><path d="M64.422 546.315h28.347v28.347H64.422v-28.347z"/><path d="M64.422 489.622h28.347v28.347H64.422v-28.347z"/><path d="M64.422 517.969h28.347v28.347H64.422v-28.347z"/><path d="M64.422 291.195h28.347v28.347H64.422v-28.347z"/><path d="M64.422 574.662h28.347v28.347H64.422v-28.347z"/><path d="M64.422 631.355h28.347v28.347H64.422v-28.347z"/><path d="M64.422 347.889h28.347v28.347H64.422v-28.347z"/><path d="M64.422 319.542h28.347v28.347H64.422v-28.347z"/><path d="M404.582 631.355h28.347v28.347h-28.347v-28.347z"/><path d="M64.422 376.235h28.347v28.347H64.422v-28.347z"/><path d="M64.422 432.929h28.347v28.347H64.422v-28.347z"/><path d="M64.422 603.009h28.347v28.347H64.422v-28.347z"/><path d="M291.195 631.355h28.347v28.347h-28.347v-28.347z"/><path d="M319.542 631.355h28.347v28.347h-28.347v-28.347z"/><path d="M262.849 631.355h28.347v28.347h-28.347v-28.347z"/><path d="M347.889 631.355h28.347v28.347h-28.347v-28.347z"/><path d="M92.769 631.355h28.347v28.347H92.769v-28.347z"/><path d="M376.235 631.355h28.347v28.347h-28.347v-28.347z"/><path d="M121.115 631.355h28.347v28.347h-28.347v-28.347z"/><path d="M149.462 631.355h28.347v28.347h-28.347v-28.347z"/><path d="M432.929 149.462h28.347v28.347h-28.347v-28.347z"/><path d="M206.155 631.355h28.347v28.347h-28.347v-28.347z"/><path d="M234.502 631.355h28.347v28.347h-28.347v-28.347z"/><path d="M177.809 631.355h28.347v28.347h-28.347v-28.347z"/><path d="M319.542 64.422h28.347v28.347h-28.347V64.422z"/><path d="M347.889 64.422h28.347v28.347h-28.347V64.422z"/><path d="M291.195 64.422h28.347v28.347h-28.347V64.422z"/><path d="M234.502 64.422h28.347v28.347h-28.347V64.422z"/><path d="M262.849 64.422h28.347v28.347h-28.347V64.422z"/><path d="M432.929 64.422h28.347v28.347h-28.347V64.422z"/><path d="M432.929 92.769h28.347v28.347h-28.347V92.769z"/><path d="M432.929 121.115h28.347v28.347h-28.347v-28.347z"/><path d="M404.582 64.422h28.347v28.347h-28.347V64.422z"/><path d="M206.155 64.422h28.347v28.347h-28.347V64.422z"/><path d="M376.235 64.422h28.347v28.347h-28.347V64.422z"/><path d="M64.422 206.155h28.347v28.347H64.422v-28.347z"/><path d="M64.422 149.462h28.347v28.347H64.422v-28.347z"/><path d="M64.422 121.115h28.347v28.347H64.422v-28.347z"/><path d="M64.422 177.809h28.347v28.347H64.422v-28.347z"/><path d="M64.422 262.849h28.347v28.347H64.422v-28.347z"/><path d="M64.422 234.502h28.347v28.347H64.422v-28.347z"/><path d="M64.422 92.769h28.347v28.347H64.422V92.769z"/><path d="M149.462 64.422h28.347v28.347h-28.347V64.422z"/><path d="M121.115 64.422h28.347v28.347h-28.347V64.422z"/><path d="M177.809 64.422h28.347v28.347h-28.347V64.422z"/><path d="M64.422 64.422h28.347v28.347H64.422V64.422z"/><path d="M92.769 64.422h28.347v28.347H92.769V64.422z"/></svg>