<?xml version="1.0" encoding="utf-8"?>
<!-- Generator: Adobe Illustrator 21.0.2, SVG Export Plug-In . SVG Version: 6.00 Build 0)  -->
<svg version="1.1" baseProfile="tiny" id="Ebene_1" xmlns="http://www.w3.org/2000/svg" xmlns:xlink="http://www.w3.org/1999/xlink"
	 x="0px" y="0px" viewBox="0 0 864.15 1152.15" xml:space="preserve">
<path fill="none" stroke="#000000" stroke-width="0.15" d="M288.075,288.075h288v288h-288V288.075z"/>
<path fill="none" stroke="#000000" stroke-width="0.15" d="M288.075,576.075h288v288h-288V576.075z"/>
<path fill="none" stroke="#000000" stroke-width="0.15" d="M576.075,288.075h288v288h-288V288.075z"/>
<path fill="none" stroke="#000000" stroke-width="0.15" d="M576.075,576.075h288v288h-288V576.075z"/>
<path fill="none" stroke="#000000" stroke-width="0.15" d="M288.075,864.075h288v288h-288V864.075z"/>
<path fill="none" stroke="#000000" stroke-width="0.15" d="M576.075,864.075h288v288h-288V864.075z"/>
<path fill="none" stroke="#000000" stroke-width="0.15" d="M0.075,288.075h288v288h-288L0.075,288.075z"/>
<path fill="none" stroke="#000000" stroke-width="0.15" d="M288.075,0.075h288v288h-288V0.075z"/>
<path fill="none" stroke="#000000" stroke-width="0.15" d="M576.075,0.075h288v288h-288V0.075z"/>
<path fill="none" stroke="#000000" stroke-width="0.15" d="M0.075,0.075h288v288h-288L0.075,0.075z"/>
<path fill="none" stroke="#000000" stroke-width="0.15" d="M0.075,576.075h288v288h-288L0.075,576.075z"/>
<path fill="none" stroke="#000000" stroke-width="0.15" d="M0.075,864.075h288v288h-288L0.075,864.075z"/>
<path fill="none" stroke="#000000" stroke-width="0.15" d="M288.075,288.075H571.54v283.464H288.075V288.075z"/>
<path fill="none" stroke="#000000" stroke-width="0.15" d="M288.075,571.54H571.54v283.464H288.075V571.54z"/>
<path fill="none" stroke="#000000" stroke-width="0.15" d="M571.54,288.075h283.465v283.464H571.54V288.075z"/>
<path fill="none" stroke="#000000" stroke-width="0.15" d="M571.54,571.54h283.465v283.464H571.54V571.54z"/>
<path fill="none" stroke="#000000" stroke-width="0.15" d="M288.075,855.004H571.54v283.464H288.075V855.004z"/>
<path fill="none" stroke="#000000" stroke-width="0.15" d="M4.61,288.075h283.465v283.464H4.61V288.075z"/>
<path fill="none" stroke="#000000" stroke-width="0.15" d="M288.075,4.611H571.54v283.464H288.075V4.611z"/>
<path fill="none" stroke="#000000" stroke-width="0.15" d="M571.54,4.611h283.465v283.464H571.54V4.611z"/>
<path fill="none" stroke="#000000" stroke-width="0.15" d="M4.61,4.611h283.465v283.464H4.61V4.611z"/>
<path fill="none" stroke="#000000" stroke-width="0.15" d="M4.61,571.54h283.465v283.464H4.61V571.54z"/>
<path fill="none" stroke="#000000" stroke-width="0.15" d="M4.61,855.004h283.465v283.464H4.61V855.004z"/>
<path fill="none" stroke="#000000" stroke-width="0.15" d="M571.54,855.004h283.465v283.464H571.54V855.004z"/>
</svg>
