<svg baseProfile="tiny" xmlns="http://www.w3.org/2000/svg"><path d="M141.808 496.139h70.866v70.866h-70.866v-70.866z"/><path d="M141.808 425.272h70.866v70.866h-70.866v-70.866z"/><path d="M141.808 567.005h70.866v70.866h-70.866v-70.866z"/><path d="M141.808 354.406h70.866v70.866h-70.866v-70.866z"/><path d="M141.808 283.54h70.866v70.866h-70.866V283.54z"/><path d="M212.674 567.005h70.866v70.866h-70.866v-70.866z"/><path d="M141.808 212.674h70.866v70.866h-70.866v-70.866z"/><path d="M354.406 354.406h70.866v70.866h-70.866v-70.866z"/><path d="M354.406 425.272h70.866v70.866h-70.866v-70.866z"/><path d="M354.406 283.54h70.866v70.866h-70.866V283.54z"/><path d="M283.54 567.005h70.866v70.866H283.54v-70.866z"/><path d="M354.406 496.139h70.866v70.866h-70.866v-70.866z"/><path d="M354.406 567.005h70.866v70.866h-70.866v-70.866z"/><path d="M283.54 354.406h70.866v70.866H283.54v-70.866z"/><path d="M283.54 496.139h70.866v70.866H283.54v-70.866z"/><path d="M212.674 425.272h70.866v70.866h-70.866v-70.866z"/><path d="M212.674 496.139h70.866v70.866h-70.866v-70.866z"/><path d="M212.674 354.406h70.866v70.866h-70.866v-70.866z"/><path d="M212.674 212.674h70.866v70.866h-70.866v-70.866z"/><path d="M212.674 283.54h70.866v70.866h-70.866V283.54z"/><path d="M425.272 70.941h70.866v70.866h-70.866V70.941z"/><path d="M283.54 212.674h70.866v70.866H283.54v-70.866z"/><path d="M283.54 425.272h70.866v70.866H283.54v-70.866z"/><path d="M212.674 141.808h70.866v70.866h-70.866v-70.866z"/><path d="M283.54 141.808h70.866v70.866H283.54v-70.866z"/><path d="M283.54 283.54h70.866v70.866H283.54V283.54z"/><path d="M141.808 141.808h70.866v70.866h-70.866v-70.866z"/><path d="M354.406 212.674h70.866v70.866h-70.866v-70.866z"/><path d="M425.272 637.871h70.866v70.866h-70.866v-70.866z"/><path d="M425.272 567.005h70.866v70.866h-70.866v-70.866z"/><path d="M425.272 496.139h70.866v70.866h-70.866v-70.866z"/><path d="M354.406 637.871h70.866v70.866h-70.866v-70.866z"/><path d="M212.674 637.871h70.866v70.866h-70.866v-70.866z"/><path d="M141.808 637.871h70.866v70.866h-70.866v-70.866z"/><path d="M283.54 637.871h70.866v70.866H283.54v-70.866z"/><path d="M425.272 141.808h70.866v70.866h-70.866v-70.866z"/><path d="M425.272 425.272h70.866v70.866h-70.866v-70.866z"/><path d="M425.272 212.674h70.866v70.866h-70.866v-70.866z"/><path d="M425.272 354.406h70.866v70.866h-70.866v-70.866z"/><path d="M425.272 283.54h70.866v70.866h-70.866V283.54z"/><path d="M496.139 70.941h70.866v70.866h-70.866V70.941z"/><path d="M496.139 637.871h70.866v70.866h-70.866v-70.866z"/><path d="M496.139 567.005h70.866v70.866h-70.866v-70.866z"/><path d="M496.139 496.139h70.866v70.866h-70.866v-70.866z"/><path d="M496.139 141.808h70.866v70.866h-70.866v-70.866z"/><path d="M496.139 425.272h70.866v70.866h-70.866v-70.866z"/><path d="M496.139 212.674h70.866v70.866h-70.866v-70.866z"/><path d="M496.139 354.406h70.866v70.866h-70.866v-70.866z"/><path d="M496.139 283.54h70.866v70.866h-70.866V283.54z"/><path d="M70.941 637.871h70.866v70.866H70.941v-70.866z"/><path d="M425.272 708.737h70.866v70.866h-70.866v-70.866z"/><path d="M354.406 708.737h70.866v70.866h-70.866v-70.866z"/><path d="M212.674 708.737h70.866v70.866h-70.866v-70.866z"/><path d="M141.808 708.737h70.866v70.866h-70.866v-70.866z"/><path d="M283.54 708.737h70.866v70.866H283.54v-70.866z"/><path d="M496.139 708.737h70.866v70.866h-70.866v-70.866z"/><path d="M70.941 708.737h70.866v70.866H70.941v-70.866z"/><path d="M141.808 70.941h70.866v70.866h-70.866V70.941z"/><path d="M70.941 70.941h70.866v70.866H70.941V70.941z"/><path d="M212.674 70.941h70.866v70.866h-70.866V70.941z"/><path d="M283.54 70.941h70.866v70.866H283.54V70.941z"/><path d="M70.941 141.808h70.866v70.866H70.941v-70.866z"/><path d="M354.406 70.941h70.866v70.866h-70.866V70.941z"/><path d="M70.941 425.272h70.866v70.866H70.941v-70.866z"/><path d="M70.941 212.674h70.866v70.866H70.941v-70.866z"/><path d="M70.941 496.139h70.866v70.866H70.941v-70.866z"/><path d="M70.941 567.005h70.866v70.866H70.941v-70.866z"/><path d="M354.406 141.808h70.866v70.866h-70.866v-70.866z"/><path d="M70.941 354.406h70.866v70.866H70.941v-70.866z"/><path d="M70.941 283.54h70.866v70.866H70.941V283.54z"/><path d="M.075 637.871h70.866v70.866H.075v-70.866z"/><path d="M.075 708.737h70.866v70.866H.075v-70.866z"/><path d="M.075 70.941h70.866v70.866H.075V70.941z"/><path d="M425.272.075h70.866v70.866h-70.866V.075z"/><path d="M496.139.075h70.866v70.866h-70.866V.075z"/><path d="M141.808.075h70.866v70.866h-70.866V.075z"/><path d="M70.941.075h70.866v70.866H70.941V.075z"/><path d="M212.674.075h70.866v70.866h-70.866V.075z"/><path d="M283.54.075h70.866v70.866H283.54V.075z"/><path d="M354.406.075h70.866v70.866h-70.866V.075z"/><path d="M.075.075h70.866v70.866H.075V.075z"/><path d="M.075 141.808h70.866v70.866H.075v-70.866z"/><path d="M.075 425.272h70.866v70.866H.075v-70.866z"/><path d="M.075 212.674h70.866v70.866H.075v-70.866z"/><path d="M.075 496.139h70.866v70.866H.075v-70.866z"/><path d="M.075 567.005h70.866v70.866H.075v-70.866z"/><path d="M.075 354.406h70.866v70.866H.075v-70.866z"/><path d="M.075 283.54h70.866v70.866H.075V283.54z"/></svg>