<svg baseProfile="tiny" xmlns="http://www.w3.org/2000/svg"><path d="M129.462 311.963h11.122v27.803h-11.122v-27.803z"/><path d="M129.462 272.667h11.121v17.707h-11.121v-17.707z"/><path d="M129.462 244.865h11.121v12.89h-11.121v-12.89z"/><path d="M129.462 257.755h11.121v14.913h-11.121v-14.913z"/><path d="M129.462 290.375h11.121v21.588h-11.121v-21.588z"/><path d="M129.462 456.259h11.122v11.495h-11.122v-11.495z"/><path d="M129.462 467.754h11.122v12.89h-11.122v-12.89z"/><path d="M129.462 379.062h11.122v67.101h-11.122v-67.101z"/><path d="M129.462 446.163h11.122v10.096h-11.122v-10.096z"/><path d="M129.462 480.644h11.122v14.913h-11.122v-14.913z"/><path d="M129.462 339.766h11.122v39.297h-11.122v-39.297z"/><path d="M129.462 67.331h11.121v21.588h-11.121V67.331z"/><path d="M140.583 67.331h9.613v21.588h-9.613V67.331z"/><path d="M150.196 67.331h8.573v21.588h-8.573V67.331z"/><path d="M166.298 67.331h50.041v21.588h-50.041V67.331z"/><path d="M158.769 67.331h7.529v21.588h-7.529V67.331z"/><path d="M129.462 223.119h11.121v10.251h-11.121v-10.251z"/><path d="M129.462 233.37h11.121v11.495h-11.121V233.37z"/><path d="M216.339 67.331h29.307v21.588h-29.307V67.331z"/><path d="M129.462 116.722h11.121v39.297h-11.121v-39.297z"/><path d="M129.462 88.919h11.121v27.803h-11.121V88.919z"/><path d="M129.462 156.019h11.121v67.1h-11.121v-67.1z"/><path d="M411.983 467.754h20.734v12.89h-20.734v-12.89z"/><path d="M411.983 480.644h20.734v14.913h-20.734v-14.913z"/><path d="M140.583 480.644h9.613v14.913h-9.613v-14.913z"/><path d="M411.983 290.375h20.734v21.588h-20.734v-21.588z"/><path d="M324.991 480.644h7.645v14.913h-7.645v-14.913z"/><path d="M382.677 480.644h29.307v14.913h-29.307v-14.913z"/><path d="M411.983 339.766h20.734v39.297h-20.734v-39.297z"/><path d="M411.983 446.163h20.734v10.096h-20.734v-10.096z"/><path d="M411.983 311.963h20.734v27.803h-20.734v-27.803z"/><path d="M411.983 379.062h20.734v67.101h-20.734v-67.101z"/><path d="M332.636 480.644h50.041v14.913h-50.041v-14.913z"/><path d="M216.339 480.644h29.307v14.913h-29.307v-14.913z"/><path d="M245.646 480.644h20.734v14.913h-20.734v-14.913z"/><path d="M166.298 480.644h50.041v14.913h-50.041v-14.913z"/><path d="M158.769 480.644h7.529v14.913h-7.529v-14.913z"/><path d="M150.196 480.644h8.573v14.913h-8.573v-14.913z"/><path d="M282.479 480.644h13.205v14.913h-13.205v-14.913z"/><path d="M266.38 480.644h16.1v14.913h-16.1v-14.913z"/><path d="M306.806 480.644h9.613v14.913h-9.613v-14.913z"/><path d="M295.685 480.644h11.121v14.913h-11.121v-14.913z"/><path d="M316.419 480.644h8.572v14.913h-8.572v-14.913z"/><path d="M411.983 456.259h20.734v11.495h-20.734v-11.495z"/><path d="M282.479 467.754h13.205v12.89h-13.205v-12.89z"/><path d="M295.685 467.754h11.121v12.89h-11.121v-12.89z"/><path d="M216.339 467.754h29.307v12.89h-29.307v-12.89z"/><path d="M266.38 467.754h16.1v12.89h-16.1v-12.89z"/><path d="M306.806 467.754h9.613v12.89h-9.613v-12.89z"/><path d="M245.646 467.754h20.734v12.89h-20.734v-12.89z"/><path d="M316.419 467.754h8.572v12.89h-8.572v-12.89z"/><path d="M332.636 467.754h50.041v12.89h-50.041v-12.89z"/><path d="M382.677 467.754h29.307v12.89h-29.307v-12.89z"/><path d="M324.991 467.754h7.645v12.89h-7.645v-12.89z"/><path d="M140.583 339.766h9.613v39.297h-9.613v-39.297z"/><path d="M140.583 379.062h9.613v67.101h-9.613v-67.101z"/><path d="M382.677 456.259h29.307v11.495h-29.307v-11.495z"/><path d="M140.583 446.163h9.613v10.096h-9.613v-10.096z"/><path d="M140.583 311.963h9.613v27.803h-9.613v-27.803z"/><path d="M166.298 467.754h50.041v12.89h-50.041v-12.89z"/><path d="M140.583 290.375h9.613v21.588h-9.613v-21.588z"/><path d="M158.769 467.754h7.529v12.89h-7.529v-12.89z"/><path d="M150.196 467.754h8.573v12.89h-8.573v-12.89z"/><path d="M140.583 467.754h9.613v12.89h-9.613v-12.89z"/><path d="M140.583 456.259h9.613v11.495h-9.613v-11.495z"/><path d="M382.677 257.755h29.307v14.913h-29.307v-14.913z"/><path d="M324.991 67.331h7.645v21.588h-7.645V67.331z"/><path d="M316.419 67.331h8.572v21.588h-8.572V67.331z"/><path d="M332.636 67.331h50.041v21.588h-50.041V67.331z"/><path d="M382.677 88.919h29.307v27.803h-29.307V88.919z"/><path d="M382.677 67.331h29.307v21.588h-29.307V67.331z"/><path d="M282.479 67.331h13.205v21.588h-13.205V67.331z"/><path d="M306.806 67.331h9.613v21.588h-9.613V67.331z"/><path d="M266.38 67.331h16.1v21.588h-16.1V67.331z"/><path d="M382.677 116.722h29.307v39.297h-29.307v-39.297z"/><path d="M295.685 67.331h11.121v21.588h-11.121V67.331z"/><path d="M382.677 379.062h29.307v67.101h-29.307v-67.101z"/><path d="M382.677 290.375h29.307v21.588h-29.307v-21.588z"/><path d="M382.677 272.667h29.307v17.707h-29.307v-17.707z"/><path d="M382.677 311.963h29.307v27.803h-29.307v-27.803z"/><path d="M382.677 156.019h29.307v67.1h-29.307v-67.1z"/><path d="M382.677 339.766h29.307v39.297h-29.307v-39.297z"/><path d="M382.677 446.163h29.307v10.096h-29.307v-10.096z"/><path d="M382.677 223.119h29.307v10.251h-29.307v-10.251z"/><path d="M245.646 67.331h20.734v21.588h-20.734V67.331z"/><path d="M382.677 233.37h29.307v11.495h-29.307V233.37z"/><path d="M382.677 244.865h29.307v12.89h-29.307v-12.89z"/><path d="M116.257 156.019h13.206v67.1h-13.206v-67.1z"/><path d="M411.983 495.557h20.734v17.707h-20.734v-17.707z"/><path d="M382.677 495.557h29.307v17.707h-29.307v-17.707z"/><path d="M432.718 495.557h16.1v17.707h-16.1v-17.707z"/><path d="M324.991 495.557h7.645v17.707h-7.645v-17.707z"/><path d="M332.636 495.557h50.041v17.707h-50.041v-17.707z"/><path d="M432.718 446.163h16.1v10.096h-16.1v-10.096z"/><path d="M316.419 495.557h8.572v17.707h-8.572v-17.707z"/><path d="M432.718 456.259h16.1v11.495h-16.1v-11.495z"/><path d="M432.718 467.754h16.1v12.89h-16.1v-12.89z"/><path d="M411.983 272.667h20.734v17.707h-20.734v-17.707z"/><path d="M166.298 495.557h50.041v17.707h-50.041v-17.707z"/><path d="M432.718 379.062h16.1v67.101h-16.1v-67.101z"/><path d="M306.806 495.557h9.613v17.707h-9.613v-17.707z"/><path d="M140.583 495.557h9.613v17.707h-9.613v-17.707z"/><path d="M150.196 495.557h8.573v17.707h-8.573v-17.707z"/><path d="M216.339 495.557h29.307v17.707h-29.307v-17.707z"/><path d="M158.769 495.557h7.529v17.707h-7.529v-17.707z"/><path d="M282.479 495.557h13.205v17.707h-13.205v-17.707z"/><path d="M245.646 495.557h20.734v17.707h-20.734v-17.707z"/><path d="M295.685 495.557h11.121v17.707h-11.121v-17.707z"/><path d="M266.38 495.557h16.1v17.707h-16.1v-17.707z"/><path d="M295.685 34.711h11.121v14.913h-11.121V34.711z"/><path d="M432.718 339.766h16.1v39.297h-16.1v-39.297z"/><path d="M411.983 34.711h20.734v14.913h-20.734V34.711z"/><path d="M382.677 34.711h29.307v14.913h-29.307V34.711z"/><path d="M432.718 49.624h16.1v17.707h-16.1V49.624z"/><path d="M432.718 34.711h16.1v14.913h-16.1V34.711z"/><path d="M129.462 495.557h11.122v17.707h-11.122v-17.707z"/><path d="M324.991 34.711h7.645v14.913h-7.645V34.711z"/><path d="M432.718 67.331h16.1v21.588h-16.1V67.331z"/><path d="M306.806 34.711h9.613v14.913h-9.613V34.711z"/><path d="M316.419 34.711h8.572v14.913h-8.572V34.711z"/><path d="M332.636 34.711h50.041v14.913h-50.041V34.711z"/><path d="M432.718 257.755h16.1v14.913h-16.1v-14.913z"/><path d="M432.718 244.865h16.1v12.89h-16.1v-12.89z"/><path d="M432.718 272.667h16.1v17.707h-16.1v-17.707z"/><path d="M432.718 290.375h16.1v21.588h-16.1v-21.588z"/><path d="M432.718 311.963h16.1v27.803h-16.1v-27.803z"/><path d="M432.718 116.722h16.1v39.297h-16.1v-39.297z"/><path d="M432.718 88.919h16.1v27.803h-16.1V88.919z"/><path d="M432.718 156.019h16.1v67.1h-16.1v-67.1z"/><path d="M432.718 223.119h16.1v10.251h-16.1v-10.251z"/><path d="M432.718 233.37h16.1v11.495h-16.1V233.37z"/><path d="M432.718 480.644h16.1v14.913h-16.1v-14.913z"/><path d="M306.806 49.624h9.613v17.707h-9.613V49.624z"/><path d="M295.685 49.624h11.121v17.707h-11.121V49.624z"/><path d="M324.991 49.624h7.645v17.707h-7.645V49.624z"/><path d="M282.479 49.624h13.205v17.707h-13.205V49.624z"/><path d="M316.419 49.624h8.572v17.707h-8.572V49.624z"/><path d="M245.646 49.624h20.734v17.707h-20.734V49.624z"/><path d="M166.298 49.624h50.041v17.707h-50.041V49.624z"/><path d="M216.339 49.624h29.307v17.707h-29.307V49.624z"/><path d="M266.38 49.624h16.1v17.707h-16.1V49.624z"/><path d="M158.769 49.624h7.529v17.707h-7.529V49.624z"/><path d="M332.636 49.624h50.041v17.707h-50.041V49.624z"/><path d="M411.983 223.119h20.734v10.251h-20.734v-10.251z"/><path d="M411.983 156.019h20.734v67.1h-20.734v-67.1z"/><path d="M382.677 49.624h29.307v17.707h-29.307V49.624z"/><path d="M116.257 495.557h13.205v17.707h-13.205v-17.707z"/><path d="M411.983 257.755h20.734v14.913h-20.734v-14.913z"/><path d="M411.983 233.37h20.734v11.495h-20.734V233.37z"/><path d="M411.983 116.722h20.734v39.297h-20.734v-39.297z"/><path d="M411.983 49.624h20.734v17.707h-20.734V49.624z"/><path d="M411.983 67.331h20.734v21.588h-20.734V67.331z"/><path d="M411.983 88.919h20.734v27.803h-20.734V88.919z"/><path d="M411.983 244.865h20.734v12.89h-20.734v-12.89z"/><path d="M116.257 311.963h13.205v27.803h-13.205v-27.803z"/><path d="M116.257 339.766h13.205v39.297h-13.205v-39.297z"/><path d="M116.257 290.375h13.206v21.588h-13.206v-21.588z"/><path d="M116.257 379.062h13.205v67.101h-13.205v-67.101z"/><path d="M116.257 272.667h13.206v17.707h-13.206v-17.707z"/><path d="M150.196 49.624h8.573v17.707h-8.573V49.624z"/><path d="M116.257 480.644h13.205v14.913h-13.205v-14.913z"/><path d="M116.257 467.754h13.205v12.89h-13.205v-12.89z"/><path d="M116.257 257.755h13.206v14.913h-13.206v-14.913z"/><path d="M116.257 456.259h13.205v11.495h-13.205v-11.495z"/><path d="M116.257 446.163h13.205v10.096h-13.205v-10.096z"/><path d="M116.257 49.624h13.206v17.707h-13.206V49.624z"/><path d="M116.257 67.331h13.206v21.588h-13.206V67.331z"/><path d="M129.462 49.624h11.121v17.707h-11.121V49.624z"/><path d="M116.257 88.919h13.206v27.803h-13.206V88.919z"/><path d="M140.583 49.624h9.613v17.707h-9.613V49.624z"/><path d="M116.257 233.37h13.206v11.495h-13.206V233.37z"/><path d="M116.257 244.865h13.206v12.89h-13.206v-12.89z"/><path d="M116.257 223.119h13.206v10.251h-13.206v-10.251z"/><path d="M116.257 116.722h13.206v39.297h-13.206v-39.297z"/><path d="M140.583 272.667h9.613v17.707h-9.613v-17.707z"/><path d="M316.419 379.062h8.572v67.101h-8.572v-67.101z"/><path d="M216.339 379.062h29.307v67.101h-29.307v-67.101z"/><path d="M266.38 379.062h16.1v67.101h-16.1v-67.101z"/><path d="M245.646 379.062h20.734v67.101h-20.734v-67.101z"/><path d="M166.298 339.766h50.041v39.297h-50.041v-39.297z"/><path d="M166.298 379.062h50.041v67.101h-50.041v-67.101z"/><path d="M316.419 339.766h8.572v39.297h-8.572v-39.297z"/><path d="M282.479 34.711h13.205v14.913h-13.205V34.711z"/><path d="M295.685 223.119h11.121v10.251h-11.121v-10.251z"/><path d="M306.806 379.062h9.613v67.101h-9.613v-67.101z"/><path d="M166.298 311.963h50.041v27.803h-50.041v-27.803z"/><path d="M295.685 379.062h11.121v67.101h-11.121v-67.101z"/><path d="M245.646 223.119h20.734v10.251h-20.734v-10.251z"/><path d="M216.339 223.119h29.307v10.251h-29.307v-10.251z"/><path d="M266.38 223.119h16.1v10.251h-16.1v-10.251z"/><path d="M282.479 223.119h13.205v10.251h-13.205v-10.251z"/><path d="M166.298 223.119h50.041v10.251h-50.041v-10.251z"/><path d="M166.298 233.37h50.041v11.495h-50.041V233.37z"/><path d="M166.298 290.375h50.041v21.588h-50.041v-21.588z"/><path d="M166.298 257.755h50.041v14.913h-50.041v-14.913z"/><path d="M166.298 272.667h50.041v17.707h-50.041v-17.707z"/><path d="M166.298 244.865h50.041v12.89h-50.041v-12.89z"/><path d="M282.479 379.062h13.205v67.101h-13.205v-67.101z"/><path d="M158.769 156.019h7.529v67.1h-7.529v-67.1z"/><path d="M166.298 156.019h50.041v67.1h-50.041v-67.1z"/><path d="M216.339 156.019h29.307v67.1h-29.307v-67.1z"/><path d="M245.646 156.019h20.734v67.1h-20.734v-67.1z"/><path d="M158.769 223.119h7.529v10.251h-7.529v-10.251z"/><path d="M158.769 272.667h7.529v17.707h-7.529v-17.707z"/><path d="M316.419 311.963h8.572v27.803h-8.572v-27.803z"/><path d="M158.769 257.755h7.529v14.913h-7.529v-14.913z"/><path d="M266.38 156.019h16.1v67.1h-16.1v-67.1z"/><path d="M158.769 244.865h7.529v12.89h-7.529v-12.89z"/><path d="M158.769 233.37h7.529v11.495h-7.529V233.37z"/><path d="M316.419 244.865h8.572v12.89h-8.572v-12.89z"/><path d="M282.479 156.019h13.205v67.1h-13.205v-67.1z"/><path d="M316.419 272.667h8.572v17.707h-8.572v-17.707z"/><path d="M316.419 290.375h8.572v21.588h-8.572v-21.588z"/><path d="M316.419 233.37h8.572v11.495h-8.572V233.37z"/><path d="M316.419 257.755h8.572v14.913h-8.572v-14.913z"/><path d="M295.685 156.019h11.121v67.1h-11.121v-67.1z"/><path d="M306.806 156.019h9.613v67.1h-9.613v-67.1z"/><path d="M316.419 156.019h8.572v67.1h-8.572v-67.1z"/><path d="M316.419 223.119h8.572v10.251h-8.572v-10.251z"/><path d="M282.479 311.963h13.205v27.803h-13.205v-27.803z"/><path d="M158.769 290.375h7.529v21.588h-7.529v-21.588z"/><path d="M245.646 272.667h20.734v17.707h-20.734v-17.707z"/><path d="M245.646 311.963h20.734v27.803h-20.734v-27.803z"/><path d="M295.685 311.963h11.121v27.803h-11.121v-27.803z"/><path d="M245.646 290.375h20.734v21.588h-20.734v-21.588z"/><path d="M266.38 311.963h16.1v27.803h-16.1v-27.803z"/><path d="M295.685 257.755h11.121v14.913h-11.121v-14.913z"/><path d="M295.685 233.37h11.121v11.495h-11.121V233.37z"/><path d="M295.685 272.667h11.121v17.707h-11.121v-17.707z"/><path d="M295.685 290.375h11.121v21.588h-11.121v-21.588z"/><path d="M295.685 244.865h11.121v12.89h-11.121v-12.89z"/><path d="M266.38 290.375h16.1v21.588h-16.1v-21.588z"/><path d="M245.646 257.755h20.734v14.913h-20.734v-14.913z"/><path d="M266.38 272.667h16.1v17.707h-16.1v-17.707z"/><path d="M282.479 272.667h13.205v17.707h-13.205v-17.707z"/><path d="M266.38 257.755h16.1v14.913h-16.1v-14.913z"/><path d="M282.479 290.375h13.205v21.588h-13.205v-21.588z"/><path d="M266.38 244.865h16.1v12.89h-16.1v-12.89z"/><path d="M245.646 244.865h20.734v12.89h-20.734v-12.89z"/><path d="M282.479 244.865h13.205v12.89h-13.205v-12.89z"/><path d="M282.479 257.755h13.205v14.913h-13.205v-14.913z"/><path d="M306.806 290.375h9.613v21.588h-9.613v-21.588z"/><path d="M282.479 233.37h13.205v11.495h-13.205V233.37z"/><path d="M306.806 311.963h9.613v27.803h-9.613v-27.803z"/><path d="M282.479 339.766h13.205v39.297h-13.205v-39.297z"/><path d="M295.685 339.766h11.121v39.297h-11.121v-39.297z"/><path d="M306.806 223.119h9.613v10.251h-9.613v-10.251z"/><path d="M306.806 272.667h9.613v17.707h-9.613v-17.707z"/><path d="M306.806 233.37h9.613v11.495h-9.613V233.37z"/><path d="M306.806 244.865h9.613v12.89h-9.613v-12.89z"/><path d="M266.38 339.766h16.1v39.297h-16.1v-39.297z"/><path d="M306.806 257.755h9.613v14.913h-9.613v-14.913z"/><path d="M306.806 339.766h9.613v39.297h-9.613v-39.297z"/><path d="M216.339 233.37h29.307v11.495h-29.307V233.37z"/><path d="M245.646 339.766h20.734v39.297h-20.734v-39.297z"/><path d="M216.339 244.865h29.307v12.89h-29.307v-12.89z"/><path d="M245.646 233.37h20.734v11.495h-20.734V233.37z"/><path d="M266.38 233.37h16.1v11.495h-16.1V233.37z"/><path d="M216.339 257.755h29.307v14.913h-29.307v-14.913z"/><path d="M216.339 311.963h29.307v27.803h-29.307v-27.803z"/><path d="M216.339 339.766h29.307v39.297h-29.307v-39.297z"/><path d="M216.339 290.375h29.307v21.588h-29.307v-21.588z"/><path d="M216.339 272.667h29.307v17.707h-29.307v-17.707z"/><path d="M332.636 311.963h50.041v27.803h-50.041v-27.803z"/><path d="M324.991 456.259h7.645v11.495h-7.645v-11.495z"/><path d="M332.636 339.766h50.041v39.297h-50.041v-39.297z"/><path d="M140.583 257.755h9.613v14.913h-9.613v-14.913z"/><path d="M332.636 446.163h50.041v10.096h-50.041v-10.096z"/><path d="M332.636 456.259h50.041v11.495h-50.041v-11.495z"/><path d="M158.769 311.963h7.529v27.803h-7.529v-27.803z"/><path d="M332.636 290.375h50.041v21.588h-50.041v-21.588z"/><path d="M332.636 257.755h50.041v14.913h-50.041v-14.913z"/><path d="M332.636 244.865h50.041v12.89h-50.041v-12.89z"/><path d="M332.636 272.667h50.041v17.707h-50.041v-17.707z"/><path d="M166.298 456.259h50.041v11.495h-50.041v-11.495z"/><path d="M332.636 233.37h50.041v11.495h-50.041V233.37z"/><path d="M216.339 456.259h29.307v11.495h-29.307v-11.495z"/><path d="M316.419 456.259h8.572v11.495h-8.572v-11.495z"/><path d="M158.769 456.259h7.529v11.495h-7.529v-11.495z"/><path d="M150.196 456.259h8.573v11.495h-8.573v-11.495z"/><path d="M245.646 456.259h20.734v11.495h-20.734v-11.495z"/><path d="M306.806 456.259h9.613v11.495h-9.613v-11.495z"/><path d="M295.685 456.259h11.121v11.495h-11.121v-11.495z"/><path d="M266.38 456.259h16.1v11.495h-16.1v-11.495z"/><path d="M282.479 456.259h13.205v11.495h-13.205v-11.495z"/><path d="M332.636 379.062h50.041v67.101h-50.041v-67.101z"/><path d="M140.583 88.919h9.613v27.803h-9.613V88.919z"/><path d="M150.196 88.919h8.573v27.803h-8.573V88.919z"/><path d="M158.769 88.919h7.529v27.803h-7.529V88.919z"/><path d="M140.583 116.722h9.613v39.297h-9.613v-39.297z"/><path d="M332.636 223.119h50.041v10.251h-50.041v-10.251z"/><path d="M166.298 88.919h50.041v27.803h-50.041V88.919z"/><path d="M140.583 156.019h9.613v67.1h-9.613v-67.1z"/><path d="M140.583 233.37h9.613v11.495h-9.613V233.37z"/><path d="M140.583 244.865h9.613v12.89h-9.613v-12.89z"/><path d="M140.583 223.119h9.613v10.251h-9.613v-10.251z"/><path d="M216.339 88.919h29.307v27.803h-29.307V88.919z"/><path d="M324.991 88.919h7.645v27.803h-7.645V88.919z"/><path d="M332.636 88.919h50.041v27.803h-50.041V88.919z"/><path d="M332.636 156.019h50.041v67.1h-50.041v-67.1z"/><path d="M316.419 88.919h8.572v27.803h-8.572V88.919z"/><path d="M332.636 116.722h50.041v39.297h-50.041v-39.297z"/><path d="M295.685 88.919h11.121v27.803h-11.121V88.919z"/><path d="M282.479 88.919h13.205v27.803h-13.205V88.919z"/><path d="M306.806 88.919h9.613v27.803h-9.613V88.919z"/><path d="M266.38 88.919h16.1v27.803h-16.1V88.919z"/><path d="M245.646 88.919h20.734v27.803h-20.734V88.919z"/><path d="M150.196 446.163h8.573v10.096h-8.573v-10.096z"/><path d="M324.991 311.963h7.645v27.803h-7.645v-27.803z"/><path d="M324.991 290.375h7.645v21.588h-7.645v-21.588z"/><path d="M324.991 339.766h7.645v39.297h-7.645v-39.297z"/><path d="M324.991 379.062h7.645v67.101h-7.645v-67.101z"/><path d="M316.419 446.163h8.572v10.096h-8.572v-10.096z"/><path d="M324.991 446.163h7.645v10.096h-7.645v-10.096z"/><path d="M324.991 244.865h7.645v12.89h-7.645v-12.89z"/><path d="M324.991 233.37h7.645v11.495h-7.645V233.37z"/><path d="M324.991 272.667h7.645v17.707h-7.645v-17.707z"/><path d="M324.991 257.755h7.645v14.913h-7.645v-14.913z"/><path d="M245.646 446.163h20.734v10.096h-20.734v-10.096z"/><path d="M158.769 446.163h7.529v10.096h-7.529v-10.096z"/><path d="M216.339 446.163h29.307v10.096h-29.307v-10.096z"/><path d="M166.298 446.163h50.041v10.096h-50.041v-10.096z"/><path d="M158.769 339.766h7.529v39.297h-7.529v-39.297z"/><path d="M150.196 379.062h8.573v67.101h-8.573v-67.101z"/><path d="M282.479 446.163h13.205v10.096h-13.205v-10.096z"/><path d="M295.685 446.163h11.121v10.096h-11.121v-10.096z"/><path d="M324.991 223.119h7.645v10.251h-7.645v-10.251z"/><path d="M306.806 446.163h9.613v10.096h-9.613v-10.096z"/><path d="M266.38 446.163h16.1v10.096h-16.1v-10.096z"/><path d="M158.769 379.062h7.529v67.101h-7.529v-67.101z"/><path d="M150.196 257.755h8.573v14.913h-8.573v-14.913z"/><path d="M324.991 156.019h7.645v67.1h-7.645v-67.1z"/><path d="M150.196 244.865h8.573v12.89h-8.573v-12.89z"/><path d="M150.196 223.119h8.573v10.251h-8.573v-10.251z"/><path d="M150.196 156.019h8.573v67.1h-8.573v-67.1z"/><path d="M150.196 339.766h8.573v39.297h-8.573v-39.297z"/><path d="M150.196 311.963h8.573v27.803h-8.573v-27.803z"/><path d="M150.196 272.667h8.573v17.707h-8.573v-17.707z"/><path d="M150.196 116.722h8.573v39.297h-8.573v-39.297z"/><path d="M150.196 290.375h8.573v21.588h-8.573v-21.588z"/><path d="M150.196 233.37h8.573v11.495h-8.573V233.37z"/><path d="M282.479 116.722h13.205v39.297h-13.205v-39.297z"/><path d="M295.685 116.722h11.121v39.297h-11.121v-39.297z"/><path d="M306.806 116.722h9.613v39.297h-9.613v-39.297z"/><path d="M324.991 116.722h7.645v39.297h-7.645v-39.297z"/><path d="M316.419 116.722h8.572v39.297h-8.572v-39.297z"/><path d="M266.38 116.722h16.1v39.297h-16.1v-39.297z"/><path d="M166.298 116.722h50.041v39.297h-50.041v-39.297z"/><path d="M158.769 116.722h7.529v39.297h-7.529v-39.297z"/><path d="M216.339 116.722h29.307v39.297h-29.307v-39.297z"/><path d="M245.646 116.722h20.734v39.297h-20.734v-39.297z"/><path d="M50.116 233.37h29.307v11.495H50.116V233.37z"/><path d="M473.145 290.375h9.612v21.588h-9.612v-21.588z"/><path d="M473.145 272.667h9.612v17.707h-9.612v-17.707z"/><path d="M473.145 339.766h9.612v39.297h-9.612v-39.297z"/><path d="M473.145 311.963h9.612v27.803h-9.612v-27.803z"/><path d="M473.145 257.755h9.612v14.913h-9.612v-14.913z"/><path d="M473.145 379.062h9.612v67.101h-9.612v-67.101z"/><path d="M473.145 156.019h9.612v67.1h-9.612v-67.1z"/><path d="M473.145 244.865h9.612v12.89h-9.612v-12.89z"/><path d="M473.145 223.119h9.612v10.251h-9.612v-10.251z"/><path d="M473.145 233.37h9.612v11.495h-9.612V233.37z"/><path d="M473.145 534.852h9.612v27.803h-9.612v-27.803z"/><path d="M473.145 562.654h9.612v39.297h-9.612v-39.297z"/><path d="M473.145 513.264h9.612v21.588h-9.612v-21.588z"/><path d="M473.145 446.163h9.612v10.096h-9.612v-10.096z"/><path d="M448.817 562.654h13.206v39.297h-13.206v-39.297z"/><path d="M462.023 562.654h11.121v39.297h-11.121v-39.297z"/><path d="M473.145 116.722h9.612v39.297h-9.612v-39.297z"/><path d="M473.145 456.259h9.612v11.495h-9.612v-11.495z"/><path d="M473.145 467.754h9.612v12.89h-9.612v-12.89z"/><path d="M473.145 480.644h9.612v14.913h-9.612v-14.913z"/><path d="M432.718 562.654h16.1v39.297h-16.1v-39.297z"/><path d="M473.145 495.557h9.612v17.707h-9.612v-17.707z"/><path d="M316.419.075h8.572v10.251h-8.572V.075z"/><path d="M306.806.075h9.613v10.251h-9.613V.075z"/><path d="M295.685.075h11.121v10.251h-11.121V.075z"/><path d="M324.991.075h7.645v10.251h-7.645V.075z"/><path d="M332.636.075h50.041v10.251h-50.041V.075z"/><path d="M473.145 88.919h9.612v27.803h-9.612V88.919z"/><path d="M216.339.075h29.307v10.251h-29.307V.075z"/><path d="M245.646.075h20.734v10.251h-20.734V.075z"/><path d="M266.38.075h16.1v10.251h-16.1V.075z"/><path d="M382.677.075h29.307v10.251h-29.307V.075z"/><path d="M79.423 10.326h20.734v11.495H79.423V10.326z"/><path d="M473.145 34.711h9.612v14.913h-9.612V34.711z"/><path d="M473.145 21.821h9.612v12.89h-9.612v-12.89z"/><path d="M411.983.075h20.734v10.251h-20.734V.075z"/><path d="M473.145 67.331h9.612v21.588h-9.612V67.331z"/><path d="M473.145 10.326h9.612v11.495h-9.612V10.326z"/><path d="M473.145 49.624h9.612v17.707h-9.612V49.624z"/><path d="M448.817.075h13.206v10.251h-13.206V.075z"/><path d="M432.718.075h16.1v10.251h-16.1V.075z"/><path d="M473.145.075h9.612v10.251h-9.612V.075z"/><path d="M462.023.075h11.121v10.251h-11.121V.075z"/><path d="M116.257 562.654h13.205v39.297h-13.205v-39.297z"/><path d="M50.116 311.963h29.307v27.803H50.116v-27.803z"/><path d="M50.116 339.766h29.307v39.297H50.116v-39.297z"/><path d="M50.116 290.375h29.307v21.588H50.116v-21.588z"/><path d="M50.116 257.755h29.307v14.913H50.116v-14.913z"/><path d="M50.116 272.667h29.307v17.707H50.116v-17.707z"/><path d="M50.116 379.062h29.307v67.101H50.116v-67.101z"/><path d="M50.116 480.644h29.307v14.913H50.116v-14.913z"/><path d="M50.116 467.754h29.307v12.89H50.116v-12.89z"/><path d="M50.116 456.259h29.307v11.495H50.116v-11.495z"/><path d="M50.116 446.163h29.307v10.096H50.116v-10.096z"/><path d="M50.116 244.865h29.307v12.89H50.116v-12.89z"/><path d="M50.116 67.331h29.307v21.588H50.116V67.331z"/><path d="M50.116 34.711h29.307v14.913H50.116V34.711z"/><path d="M50.116 49.624h29.307v17.707H50.116V49.624z"/><path d="M50.116 21.821h29.307v12.89H50.116v-12.89z"/><path d="M50.116 10.326h29.307v11.495H50.116V10.326z"/><path d="M50.116 156.019h29.307v67.1H50.116v-67.1z"/><path d="M50.116 495.557h29.307v17.707H50.116v-17.707z"/><path d="M50.116 223.119h29.307v10.251H50.116v-10.251z"/><path d="M50.116 88.919h29.307v27.803H50.116V88.919z"/><path d="M50.116 116.722h29.307v39.297H50.116v-39.297z"/><path d="M282.479 562.654h13.205v39.297h-13.205v-39.297z"/><path d="M411.983 562.654h20.734v39.297h-20.734v-39.297z"/><path d="M295.685 562.654h11.121v39.297h-11.121v-39.297z"/><path d="M306.806 562.654h9.613v39.297h-9.613v-39.297z"/><path d="M266.38 562.654h16.1v39.297h-16.1v-39.297z"/><path d="M245.646 562.654h20.734v39.297h-20.734v-39.297z"/><path d="M216.339 562.654h29.307v39.297h-29.307v-39.297z"/><path d="M332.636 562.654h50.041v39.297h-50.041v-39.297z"/><path d="M316.419 562.654h8.572v39.297h-8.572v-39.297z"/><path d="M382.677 562.654h29.307v39.297h-29.307v-39.297z"/><path d="M324.991 562.654h7.645v39.297h-7.645v-39.297z"/><path d="M166.298 562.654h50.041v39.297h-50.041v-39.297z"/><path d="M100.157 562.654h16.1v39.297h-16.1v-39.297z"/><path d="M79.423 562.654h20.734v39.297H79.423v-39.297z"/><path d="M50.116 562.654h29.307v39.297H50.116v-39.297z"/><path d="M50.116 513.264h29.307v21.588H50.116v-21.588z"/><path d="M50.116 534.852h29.307v27.803H50.116v-27.803z"/><path d="M166.298.075h50.041v10.251h-50.041V.075z"/><path d="M129.462 562.654h11.122v39.297h-11.122v-39.297z"/><path d="M150.196 562.654h8.573v39.297h-8.573v-39.297z"/><path d="M158.769 562.654h7.529v39.297h-7.529v-39.297z"/><path d="M140.583 562.654h9.613v39.297h-9.613v-39.297z"/><path d="M282.479.075h13.205v10.251h-13.205V.075z"/><path d="M473.145 601.951h9.612v67.101h-9.612v-67.101z"/><path d="M482.757 601.951h8.573v67.101h-8.573v-67.101z"/><path d="M482.757 467.754h8.573v12.89h-8.573v-12.89z"/><path d="M448.817 601.951h13.206v67.101h-13.206v-67.101z"/><path d="M482.757 562.654h8.573v39.297h-8.573v-39.297z"/><path d="M482.757 480.644h8.573v14.913h-8.573v-14.913z"/><path d="M482.757 534.852h8.573v27.803h-8.573v-27.803z"/><path d="M432.718 601.951h16.1v67.101h-16.1v-67.101z"/><path d="M482.757 495.557h8.573v17.707h-8.573v-17.707z"/><path d="M482.757 513.264h8.573v21.588h-8.573v-21.588z"/><path d="M462.023 601.951h11.121v67.101h-11.121v-67.101z"/><path d="M282.479 601.951h13.205v67.101h-13.205v-67.101z"/><path d="M295.685 601.951h11.121v67.101h-11.121v-67.101z"/><path d="M266.38 601.951h16.1v67.101h-16.1v-67.101z"/><path d="M411.983 601.951h20.734v67.101h-20.734v-67.101z"/><path d="M245.646 601.951h20.734v67.101h-20.734v-67.101z"/><path d="M266.38 34.711h16.1v14.913h-16.1V34.711z"/><path d="M382.677 601.951h29.307v67.101h-29.307v-67.101z"/><path d="M332.636 601.951h50.041v67.101h-50.041v-67.101z"/><path d="M316.419 601.951h8.572v67.101h-8.572v-67.101z"/><path d="M324.991 601.951h7.645v67.101h-7.645v-67.101z"/><path d="M482.757 116.722h8.573v39.297h-8.573v-39.297z"/><path d="M482.757 67.331h8.573v21.588h-8.573V67.331z"/><path d="M482.757 49.624h8.573v17.707h-8.573V49.624z"/><path d="M482.757 34.711h8.573v14.913h-8.573V34.711z"/><path d="M216.339 601.951h29.307v67.101h-29.307v-67.101z"/><path d="M158.769.075h7.529v10.251h-7.529V.075z"/><path d="M482.757 21.821h8.573v12.89h-8.573v-12.89z"/><path d="M482.757.075h8.573v10.251h-8.573V.075z"/><path d="M482.757 10.326h8.573v11.495h-8.573V10.326z"/><path d="M482.757 156.019h8.573v67.1h-8.573v-67.1z"/><path d="M482.757 379.062h8.573v67.101h-8.573v-67.101z"/><path d="M482.757 223.119h8.573v10.251h-8.573v-10.251z"/><path d="M482.757 311.963h8.573v27.803h-8.573v-27.803z"/><path d="M482.757 456.259h8.573v11.495h-8.573v-11.495z"/><path d="M482.757 446.163h8.573v10.096h-8.573v-10.096z"/><path d="M482.757 290.375h8.573v21.588h-8.573v-21.588z"/><path d="M482.757 339.766h8.573v39.297h-8.573v-39.297z"/><path d="M482.757 244.865h8.573v12.89h-8.573v-12.89z"/><path d="M482.757 233.37h8.573v11.495h-8.573V233.37z"/><path d="M482.757 257.755h8.573v14.913h-8.573v-14.913z"/><path d="M482.757 272.667h8.573v17.707h-8.573v-17.707z"/><path d="M482.757 88.919h8.573v27.803h-8.573V88.919z"/><path d="M.075 156.019h50.041v67.1H.075v-67.1z"/><path d="M.075 88.919h50.041v27.803H.075V88.919z"/><path d="M.075 116.722h50.041v39.297H.075v-39.297z"/><path d="M.075 49.624h50.041v17.707H.075V49.624z"/><path d="M.075 67.331h50.041v21.588H.075V67.331z"/><path d="M.075 257.755h50.041v14.913H.075v-14.913z"/><path d="M166.298 601.951h50.041v67.101h-50.041v-67.101z"/><path d="M.075 244.865h50.041v12.89H.075v-12.89z"/><path d="M.075 34.711h50.041v14.913H.075V34.711z"/><path d="M.075 233.37h50.041v11.495H.075V233.37z"/><path d="M79.423.075h20.734v10.251H79.423V.075z"/><path d="M100.157.075h16.1v10.251h-16.1V.075z"/><path d="M129.462.075h11.121v10.251h-11.121V.075z"/><path d="M116.257.075h13.206v10.251h-13.206V.075z"/><path d="M150.196.075h8.573v10.251h-8.573V.075z"/><path d="M140.583.075h9.613v10.251h-9.613V.075z"/><path d="M.075 272.667h50.041v17.707H.075v-17.707z"/><path d="M.075.075h50.041v10.251H.075V.075z"/><path d="M.075 21.821h50.041v12.89H.075v-12.89z"/><path d="M.075 10.326h50.041v11.495H.075V10.326z"/><path d="M50.116.075h29.307v10.251H50.116V.075z"/><path d="M.075 223.119h50.041v10.251H.075v-10.251z"/><path d="M100.157 601.951h16.1v67.101h-16.1v-67.101z"/><path d="M.075 562.654h50.041v39.297H.075v-39.297z"/><path d="M79.423 601.951h20.734v67.101H79.423v-67.101z"/><path d="M.075 601.951h50.041v67.101H.075v-67.101z"/><path d="M50.116 601.951h29.307v67.101H50.116v-67.101z"/><path d="M116.257 601.951h13.205v67.101h-13.205v-67.101z"/><path d="M150.196 601.951h8.573v67.101h-8.573v-67.101z"/><path d="M158.769 601.951h7.529v67.101h-7.529v-67.101z"/><path d="M.075 290.375h50.041v21.588H.075v-21.588z"/><path d="M140.583 601.951h9.613v67.101h-9.613v-67.101z"/><path d="M129.462 601.951h11.122v67.101h-11.122v-67.101z"/><path d="M.075 456.259h50.041v11.495H.075v-11.495z"/><path d="M.075 379.062h50.041v67.101H.075v-67.101z"/><path d="M.075 446.163h50.041v10.096H.075v-10.096z"/><path d="M.075 311.963h50.041v27.803H.075v-27.803z"/><path d="M.075 534.852h50.041v27.803H.075v-27.803z"/><path d="M.075 339.766h50.041v39.297H.075v-39.297z"/><path d="M.075 467.754h50.041v12.89H.075v-12.89z"/><path d="M.075 513.264h50.041v21.588H.075v-21.588z"/><path d="M.075 495.557h50.041v17.707H.075v-17.707z"/><path d="M.075 480.644h50.041v14.913H.075v-14.913z"/><path d="M306.806 601.951h9.613v67.101h-9.613v-67.101z"/><path d="M448.817 257.755h13.206v14.913h-13.206v-14.913z"/><path d="M448.817 244.865h13.206v12.89h-13.206v-12.89z"/><path d="M448.817 272.667h13.206v17.707h-13.206v-17.707z"/><path d="M448.817 311.963h13.206v27.803h-13.206v-27.803z"/><path d="M448.817 290.375h13.206v21.588h-13.206v-21.588z"/><path d="M448.817 233.37h13.206v11.495h-13.206V233.37z"/><path d="M448.817 339.766h13.206v39.297h-13.206v-39.297z"/><path d="M448.817 156.019h13.206v67.1h-13.206v-67.1z"/><path d="M448.817 116.722h13.206v39.297h-13.206v-39.297z"/><path d="M448.817 223.119h13.206v10.251h-13.206v-10.251z"/><path d="M448.817 446.163h13.206v10.096h-13.206v-10.096z"/><path d="M432.718 513.264h16.1v21.588h-16.1v-21.588z"/><path d="M448.817 513.264h13.206v21.588h-13.206v-21.588z"/><path d="M448.817 495.557h13.206v17.707h-13.206v-17.707z"/><path d="M411.983 513.264h20.734v21.588h-20.734v-21.588z"/><path d="M448.817 379.062h13.206v67.101h-13.206v-67.101z"/><path d="M332.636 513.264h50.041v21.588h-50.041v-21.588z"/><path d="M448.817 456.259h13.206v11.495h-13.206v-11.495z"/><path d="M448.817 88.919h13.206v27.803h-13.206V88.919z"/><path d="M448.817 480.644h13.206v14.913h-13.206v-14.913z"/><path d="M448.817 467.754h13.206v12.89h-13.206v-12.89z"/><path d="M382.677 513.264h29.307v21.588h-29.307v-21.588z"/><path d="M245.646 21.821h20.734v12.89h-20.734v-12.89z"/><path d="M216.339 21.821h29.307v12.89h-29.307v-12.89z"/><path d="M266.38 21.821h16.1v12.89h-16.1v-12.89z"/><path d="M282.479 21.821h13.205v12.89h-13.205v-12.89z"/><path d="M166.298 21.821h50.041v12.89h-50.041v-12.89z"/><path d="M129.462 21.821h11.121v12.89h-11.121v-12.89z"/><path d="M140.583 21.821h9.613v12.89h-9.613v-12.89z"/><path d="M158.769 21.821h7.529v12.89h-7.529v-12.89z"/><path d="M295.685 21.821h11.121v12.89h-11.121v-12.89z"/><path d="M150.196 21.821h8.573v12.89h-8.573v-12.89z"/><path d="M316.419 21.821h8.572v12.89h-8.572v-12.89z"/><path d="M432.718 21.821h16.1v12.89h-16.1v-12.89z"/><path d="M411.983 21.821h20.734v12.89h-20.734v-12.89z"/><path d="M448.817 21.821h13.206v12.89h-13.206v-12.89z"/><path d="M448.817 34.711h13.206v14.913h-13.206V34.711z"/><path d="M448.817 49.624h13.206v17.707h-13.206V49.624z"/><path d="M382.677 21.821h29.307v12.89h-29.307v-12.89z"/><path d="M324.991 21.821h7.645v12.89h-7.645v-12.89z"/><path d="M448.817 67.331h13.206v21.588h-13.206V67.331z"/><path d="M332.636 21.821h50.041v12.89h-50.041v-12.89z"/><path d="M306.806 21.821h9.613v12.89h-9.613v-12.89z"/><path d="M245.646 34.711h20.734v14.913h-20.734V34.711z"/><path d="M100.157 156.019h16.1v67.1h-16.1v-67.1z"/><path d="M100.157 67.331h16.1v21.588h-16.1V67.331z"/><path d="M100.157 233.37h16.1v11.495h-16.1V233.37z"/><path d="M100.157 88.919h16.1v27.803h-16.1V88.919z"/><path d="M100.157 116.722h16.1v39.297h-16.1v-39.297z"/><path d="M100.157 223.119h16.1v10.251h-16.1v-10.251z"/><path d="M100.157 272.667h16.1v17.707h-16.1v-17.707z"/><path d="M100.157 290.375h16.1v21.588h-16.1v-21.588z"/><path d="M100.157 244.865h16.1v12.89h-16.1v-12.89z"/><path d="M100.157 257.755h16.1v14.913h-16.1v-14.913z"/><path d="M116.257 34.711h13.206v14.913h-13.206V34.711z"/><path d="M166.298 34.711h50.041v14.913h-50.041V34.711z"/><path d="M150.196 34.711h8.573v14.913h-8.573V34.711z"/><path d="M158.769 34.711h7.529v14.913h-7.529V34.711z"/><path d="M100.157 49.624h16.1v17.707h-16.1V49.624z"/><path d="M216.339 34.711h29.307v14.913h-29.307V34.711z"/><path d="M116.257 21.821h13.206v12.89h-13.206v-12.89z"/><path d="M140.583 34.711h9.613v14.913h-9.613V34.711z"/><path d="M100.157 34.711h16.1v14.913h-16.1V34.711z"/><path d="M100.157 311.963h16.1v27.803h-16.1v-27.803z"/><path d="M129.462 34.711h11.121v14.913h-11.121V34.711z"/><path d="M216.339 513.264h29.307v21.588h-29.307v-21.588z"/><path d="M266.38 513.264h16.1v21.588h-16.1v-21.588z"/><path d="M245.646 513.264h20.734v21.588h-20.734v-21.588z"/><path d="M324.991 513.264h7.645v21.588h-7.645v-21.588z"/><path d="M166.298 513.264h50.041v21.588h-50.041v-21.588z"/><path d="M158.769 513.264h7.529v21.588h-7.529v-21.588z"/><path d="M295.685 513.264h11.121v21.588h-11.121v-21.588z"/><path d="M316.419 513.264h8.572v21.588h-8.572v-21.588z"/><path d="M100.157 339.766h16.1v39.297h-16.1v-39.297z"/><path d="M282.479 513.264h13.205v21.588h-13.205v-21.588z"/><path d="M150.196 513.264h8.573v21.588h-8.573v-21.588z"/><path d="M306.806 513.264h9.613v21.588h-9.613v-21.588z"/><path d="M100.157 467.754h16.1v12.89h-16.1v-12.89z"/><path d="M100.157 480.644h16.1v14.913h-16.1v-14.913z"/><path d="M100.157 456.259h16.1v11.495h-16.1v-11.495z"/><path d="M100.157 446.163h16.1v10.096h-16.1v-10.096z"/><path d="M100.157 379.062h16.1v67.101h-16.1v-67.101z"/><path d="M100.157 10.326h16.1v11.495h-16.1V10.326z"/><path d="M116.257 513.264h13.205v21.588h-13.205v-21.588z"/><path d="M100.157 495.557h16.1v17.707h-16.1v-17.707z"/><path d="M140.583 513.264h9.613v21.588h-9.613v-21.588z"/><path d="M100.157 513.264h16.1v21.588h-16.1v-21.588z"/><path d="M129.462 513.264h11.122v21.588h-11.122v-21.588z"/><path d="M462.023 233.37h11.121v11.495h-11.121V233.37z"/><path d="M462.023 223.119h11.121v10.251h-11.121v-10.251z"/><path d="M462.023 257.755h11.121v14.913h-11.121v-14.913z"/><path d="M462.023 156.019h11.121v67.1h-11.121v-67.1z"/><path d="M462.023 244.865h11.121v12.89h-11.121v-12.89z"/><path d="M462.023 67.331h11.121v21.588h-11.121V67.331z"/><path d="M462.023 272.667h11.121v17.707h-11.121v-17.707z"/><path d="M462.023 116.722h11.121v39.297h-11.121v-39.297z"/><path d="M462.023 49.624h11.121v17.707h-11.121V49.624z"/><path d="M462.023 88.919h11.121v27.803h-11.121V88.919z"/><path d="M462.023 446.163h11.121v10.096h-11.121v-10.096z"/><path d="M462.023 480.644h11.121v14.913h-11.121v-14.913z"/><path d="M462.023 456.259h11.121v11.495h-11.121v-11.495z"/><path d="M462.023 467.754h11.121v12.89h-11.121v-12.89z"/><path d="M462.023 513.264h11.121v21.588h-11.121v-21.588z"/><path d="M462.023 290.375h11.121v21.588h-11.121v-21.588z"/><path d="M462.023 495.557h11.121v17.707h-11.121v-17.707z"/><path d="M462.023 34.711h11.121v14.913h-11.121V34.711z"/><path d="M462.023 311.963h11.121v27.803h-11.121v-27.803z"/><path d="M462.023 339.766h11.121v39.297h-11.121v-39.297z"/><path d="M462.023 379.062h11.121v67.101h-11.121v-67.101z"/><path d="M382.677 10.326h29.307v11.495h-29.307V10.326z"/><path d="M282.479 10.326h13.205v11.495h-13.205V10.326z"/><path d="M166.298 10.326h50.041v11.495h-50.041V10.326z"/><path d="M266.38 10.326h16.1v11.495h-16.1V10.326z"/><path d="M158.769 10.326h7.529v11.495h-7.529V10.326z"/><path d="M245.646 10.326h20.734v11.495h-20.734V10.326z"/><path d="M216.339 10.326h29.307v11.495h-29.307V10.326z"/><path d="M116.257 10.326h13.206v11.495h-13.206V10.326z"/><path d="M129.462 10.326h11.121v11.495h-11.121V10.326z"/><path d="M150.196 10.326h8.573v11.495h-8.573V10.326z"/><path d="M140.583 10.326h9.613v11.495h-9.613V10.326z"/><path d="M306.806 10.326h9.613v11.495h-9.613V10.326z"/><path d="M432.718 10.326h16.1v11.495h-16.1V10.326z"/><path d="M411.983 10.326h20.734v11.495h-20.734V10.326z"/><path d="M462.023 10.326h11.121v11.495h-11.121V10.326z"/><path d="M448.817 10.326h13.206v11.495h-13.206V10.326z"/><path d="M462.023 534.852h11.121v27.803h-11.121v-27.803z"/><path d="M316.419 10.326h8.572v11.495h-8.572V10.326z"/><path d="M462.023 21.821h11.121v12.89h-11.121v-12.89z"/><path d="M332.636 10.326h50.041v11.495h-50.041V10.326z"/><path d="M295.685 10.326h11.121v11.495h-11.121V10.326z"/><path d="M324.991 10.326h7.645v11.495h-7.645V10.326z"/><path d="M79.423 480.644h20.734v14.913H79.423v-14.913z"/><path d="M79.423 339.766h20.734v39.297H79.423v-39.297z"/><path d="M79.423 311.963h20.734v27.803H79.423v-27.803z"/><path d="M79.423 290.375h20.734v21.588H79.423v-21.588z"/><path d="M79.423 495.557h20.734v17.707H79.423v-17.707z"/><path d="M79.423 272.667h20.734v17.707H79.423v-17.707z"/><path d="M79.423 467.754h20.734v12.89H79.423v-12.89z"/><path d="M79.423 257.755h20.734v14.913H79.423v-14.913z"/><path d="M79.423 446.163h20.734v10.096H79.423v-10.096z"/><path d="M100.157 21.821h16.1v12.89h-16.1v-12.89z"/><path d="M79.423 456.259h20.734v11.495H79.423v-11.495z"/><path d="M79.423 379.062h20.734v67.101H79.423v-67.101z"/><path d="M79.423 88.919h20.734v27.803H79.423V88.919z"/><path d="M79.423 49.624h20.734v17.707H79.423V49.624z"/><path d="M79.423 67.331h20.734v21.588H79.423V67.331z"/><path d="M79.423 244.865h20.734v12.89H79.423v-12.89z"/><path d="M79.423 34.711h20.734v14.913H79.423V34.711z"/><path d="M79.423 21.821h20.734v12.89H79.423v-12.89z"/><path d="M79.423 223.119h20.734v10.251H79.423v-10.251z"/><path d="M79.423 233.37h20.734v11.495H79.423V233.37z"/><path d="M79.423 116.722h20.734v39.297H79.423v-39.297z"/><path d="M79.423 156.019h20.734v67.1H79.423v-67.1z"/><path d="M79.423 534.852h20.734v27.803H79.423v-27.803z"/><path d="M306.806 534.852h9.613v27.803h-9.613v-27.803z"/><path d="M316.419 534.852h8.572v27.803h-8.572v-27.803z"/><path d="M282.479 534.852h13.205v27.803h-13.205v-27.803z"/><path d="M324.991 534.852h7.645v27.803h-7.645v-27.803z"/><path d="M491.33 480.644h7.645v14.913h-7.645v-14.913z"/><path d="M491.33 467.754h7.645v12.89h-7.645v-12.89z"/><path d="M491.33 67.331h7.645v21.588h-7.645V67.331z"/><path d="M491.33 495.557h7.645v17.707h-7.645v-17.707z"/><path d="M491.33 34.711h7.645v14.913h-7.645V34.711z"/><path d="M491.33 49.624h7.645v17.707h-7.645V49.624z"/><path d="M491.33 456.259h7.645v11.495h-7.645v-11.495z"/><path d="M491.33 88.919h7.645v27.803h-7.645V88.919z"/><path d="M491.33 311.963h7.645v27.803h-7.645v-27.803z"/><path d="M491.33 290.375h7.645v21.588h-7.645v-21.588z"/><path d="M491.33 339.766h7.645v39.297h-7.645v-39.297z"/><path d="M491.33 379.062h7.645v67.101h-7.645v-67.101z"/><path d="M491.33 446.163h7.645v10.096h-7.645v-10.096z"/><path d="M491.33 244.865h7.645v12.89h-7.645v-12.89z"/><path d="M491.33 233.37h7.645v11.495h-7.645V233.37z"/><path d="M491.33 272.667h7.645v17.707h-7.645v-17.707z"/><path d="M491.33 257.755h7.645v14.913h-7.645v-14.913z"/><path d="M491.33 223.119h7.645v10.251h-7.645v-10.251z"/><path d="M491.33 156.019h7.645v67.1h-7.645v-67.1z"/><path d="M491.33 116.722h7.645v39.297h-7.645v-39.297z"/><path d="M491.33.075h7.645v10.251h-7.645V.075z"/><path d="M491.33 562.654h7.645v39.297h-7.645v-39.297z"/><path d="M491.33 601.951h7.645v67.101h-7.645v-67.101z"/><path d="M491.33 21.821h7.645v12.89h-7.645v-12.89z"/><path d="M491.33 513.264h7.645v21.588h-7.645v-21.588z"/><path d="M491.33 10.326h7.645v11.495h-7.645V10.326z"/><path d="M491.33 534.852h7.645v27.803h-7.645v-27.803z"/><path d="M295.685 534.852h11.121v27.803h-11.121v-27.803z"/><path d="M432.718 534.852h16.1v27.803h-16.1v-27.803z"/><path d="M411.983 534.852h20.734v27.803h-20.734v-27.803z"/><path d="M266.38 534.852h16.1v27.803h-16.1v-27.803z"/><path d="M332.636 534.852h50.041v27.803h-50.041v-27.803z"/><path d="M382.677 534.852h29.307v27.803h-29.307v-27.803z"/><path d="M166.298 534.852h50.041v27.803h-50.041v-27.803z"/><path d="M116.257 534.852h13.205v27.803h-13.205v-27.803z"/><path d="M129.462 534.852h11.122v27.803h-11.122v-27.803z"/><path d="M100.157 534.852h16.1v27.803h-16.1v-27.803z"/><path d="M245.646 534.852h20.734v27.803h-20.734v-27.803z"/><path d="M448.817 534.852h13.206v27.803h-13.206v-27.803z"/><path d="M140.583 534.852h9.613v27.803h-9.613v-27.803z"/><path d="M79.423 513.264h20.734v21.588H79.423v-21.588z"/><path d="M150.196 534.852h8.573v27.803h-8.573v-27.803z"/><path d="M216.339 534.852h29.307v27.803h-29.307v-27.803z"/><path d="M158.769 534.852h7.529v27.803h-7.529v-27.803z"/></svg>