<svg baseProfile="tiny" xmlns="http://www.w3.org/2000/svg"><path d="M144.075 504.075h72v72h-72v-72z"/><path d="M144.075 432.075h72v72h-72v-72z"/><path d="M216.075 576.075h72v72h-72v-72z"/><path d="M144.075 216.075h72v72h-72v-72z"/><path d="M144.075 360.075h72v72h-72v-72z"/><path d="M144.075 288.075h72v72h-72v-72z"/><path d="M360.075 576.075h72v72h-72v-72z"/><path d="M360.075 360.075h72v72h-72v-72z"/><path d="M360.075 432.075h72v72h-72v-72z"/><path d="M360.075 288.075h72v72h-72v-72z"/><path d="M144.075 144.075h72v72h-72v-72z"/><path d="M288.075 576.075h72v72h-72v-72z"/><path d="M360.075 504.075h72v72h-72v-72z"/><path d="M288.075 504.075h72v72h-72v-72z"/><path d="M216.075 504.075h72v72h-72v-72z"/><path d="M216.075 360.075h72v72h-72v-72z"/><path d="M216.075 432.075h72v72h-72v-72z"/><path d="M216.075 288.075h72v72h-72v-72z"/><path d="M216.075 216.075h72v72h-72v-72z"/><path d="M432.075 72.075h72v72h-72v-72z"/><path d="M360.075 216.075h72v72h-72v-72z"/><path d="M288.075 288.075h72v72h-72v-72z"/><path d="M288.075 216.075h72v72h-72v-72z"/><path d="M216.075 144.075h72v72h-72v-72z"/><path d="M288.075 144.075h72v72h-72v-72z"/><path d="M288.075 360.075h72v72h-72v-72z"/><path d="M288.075 432.075h72v72h-72v-72z"/><path d="M144.075 576.075h72v72h-72v-72z"/><path d="M144.075 648.075h72v72h-72v-72z"/><path d="M432.075 576.075h72v72h-72v-72z"/><path d="M360.075 648.075h72v72h-72v-72z"/><path d="M216.075 648.075h72v72h-72v-72z"/><path d="M288.075 648.075h72v72h-72v-72z"/><path d="M432.075 504.075h72v72h-72v-72z"/><path d="M432.075 648.075h72v72h-72v-72z"/><path d="M432.075 144.075h72v72h-72v-72z"/><path d="M432.075 216.075h72v72h-72v-72z"/><path d="M432.075 432.075h72v72h-72v-72z"/><path d="M432.075 288.075h72v72h-72v-72z"/><path d="M432.075 360.075h72v72h-72v-72z"/><path d="M504.075 72.075h72v72h-72v-72z"/><path d="M504.075 576.075h72v72h-72v-72z"/><path d="M504.075 504.075h72v72h-72v-72z"/><path d="M504.075 648.075h72v72h-72v-72z"/><path d="M504.075 144.075h72v72h-72v-72z"/><path d="M504.075 216.075h72v72h-72v-72z"/><path d="M504.075 432.075h72v72h-72v-72z"/><path d="M504.075 288.075h72v72h-72v-72z"/><path d="M504.075 360.075h72v72h-72v-72z"/><path d="M.075 72.075h72v72h-72v-72z"/><path d="M.075 576.075h72v72h-72v-72z"/><path d="M.075 504.075h72v72h-72v-72z"/><path d="M.075 648.075h72v72h-72v-72z"/><path d="M.075 144.075h72v72h-72v-72z"/><path d="M.075 216.075h72v72h-72v-72z"/><path d="M.075 432.075h72v72h-72v-72z"/><path d="M.075 288.075h72v72h-72v-72z"/><path d="M.075 360.075h72v72h-72v-72z"/><path d="M216.075 72.075h72v72h-72v-72z"/><path d="M144.075 72.075h72v72h-72v-72z"/><path d="M360.075 144.075h72v72h-72v-72z"/><path d="M72.075 72.075h72v72h-72v-72z"/><path d="M288.075 72.075h72v72h-72v-72z"/><path d="M72.075 144.075h72v72h-72v-72z"/><path d="M360.075 72.075h72v72h-72v-72z"/><path d="M72.075 576.075h72v72h-72v-72z"/><path d="M72.075 504.075h72v72h-72v-72z"/><path d="M72.075 648.075h72v72h-72v-72z"/><path d="M144.075 720.075h72v72h-72v-72z"/><path d="M360.075 720.075h72v72h-72v-72z"/><path d="M216.075 720.075h72v72h-72v-72z"/><path d="M288.075 720.075h72v72h-72v-72z"/><path d="M432.075 720.075h72v72h-72v-72z"/><path d="M504.075 720.075h72v72h-72v-72z"/><path d="M.075 720.075h72v72h-72v-72z"/><path d="M72.075 720.075h72v72h-72v-72z"/><path d="M144.075.075h72v72h-72v-72z"/><path d="M360.075.075h72v72h-72v-72z"/><path d="M216.075.075h72v72h-72v-72z"/><path d="M288.075.075h72v72h-72v-72z"/><path d="M432.075.075h72v72h-72v-72z"/><path d="M504.075.075h72v72h-72v-72z"/><path d="M.075.075h72v72h-72v-72z"/><path d="M72.075.075h72v72h-72v-72z"/><path d="M72.075 432.075h72v72h-72v-72z"/><path d="M72.075 216.075h72v72h-72v-72z"/><path d="M72.075 360.075h72v72h-72v-72z"/><path d="M72.075 288.075h72v72h-72v-72z"/></svg>