<svg baseProfile="tiny" xmlns="http://www.w3.org/2000/svg"><path d="M144.075 144.075h144v144h-144v-144z"/><path d="M144.075 288.075h144v144h-144v-144z"/><path d="M288.075 288.075h144v144h-144v-144z"/><path d="M432.075 144.075h144v144h-144v-144z"/><path d="M288.075 432.075h144v144h-144v-144z"/><path d="M144.075 432.075h144v144h-144v-144z"/><path d="M288.075 144.075h144v144h-144v-144z"/><path d="M432.075 288.075h144v144h-144v-144z"/><path d="M144.075 576.075h144v144h-144v-144z"/><path d="M432.075 432.075h144v144h-144v-144z"/><path d="M432.075 576.075h144v144h-144v-144z"/><path d="M576.075 144.075h144v144h-144v-144z"/><path d="M576.075 288.075h144v144h-144v-144z"/><path d="M576.075 432.075h144v144h-144v-144z"/><path d="M576.075 576.075h144v144h-144v-144z"/><path d="M288.075 576.075h144v144h-144v-144z"/><path d="M144.075 720.075h144v144h-144v-144z"/><path d="M.075 144.075h144v144h-144v-144z"/><path d="M144.075.075h144v144h-144v-144z"/><path d="M432.075.075h144v144h-144v-144z"/><path d="M288.075.075h144v144h-144v-144z"/><path d="M576.075.075h144v144h-144v-144z"/><path d="M.075.075h144v144h-144v-144z"/><path d="M.075 288.075h144v144h-144v-144z"/><path d="M.075 432.075h144v144h-144v-144z"/><path d="M.075 576.075h144v144h-144v-144z"/><path d="M.075 720.075h144v144h-144v-144z"/><path d="M432.075 720.075h144v144h-144v-144z"/><path d="M576.075 720.075h144v144h-144v-144z"/><path d="M288.075 720.075h144v144h-144v-144z"/></svg>