<svg baseProfile="tiny" xmlns="http://www.w3.org/2000/svg"><path d="M238.268 289.494l-3.559-10.954 9.316-6.771 9.32 6.771-3.559 10.954h-11.518z"/><path d="M268.416 289.494l-3.557-10.954 9.315-6.771 9.313 6.771-3.556 10.954h-11.515z"/><path d="M219.633 289.494l-3.559-10.954 9.317-6.771 9.318 6.771-3.559 10.954h-11.517z"/><path d="M213.875 307.22l-3.559-10.954 9.317-6.772 9.318 6.772-3.558 10.954h-11.518z"/><path d="M225.393 307.22l3.558 10.954-9.316 6.772-9.319-6.772 3.559-10.954h11.518z"/><path d="M255.546 307.22l3.558 10.954-9.316 6.772-9.319-6.772 3.558-10.954h11.519z"/><path d="M264.859 278.54l3.557 10.954-9.312 6.772-9.318-6.772 3.559-10.954h11.514z"/><path d="M216.074 278.54l3.559 10.954-9.317 6.772-9.318-6.772 3.559-10.954h11.517z"/><path d="M240.467 260.814l3.558 10.955-9.316 6.771-9.318-6.771 3.558-10.955h11.518z"/><path d="M244.027 307.22l-3.558-10.954 9.317-6.772 9.318 6.772-3.558 10.954h-11.519z"/><path d="M228.951 318.173l-3.558-10.953 9.316-6.772 9.318 6.772-3.558 10.953h-11.518z"/><path d="M317.198 289.494l-3.558-10.954 9.316-6.771 9.318 6.771-3.558 10.954h-11.518z"/><path d="M298.563 289.494l-3.558-10.954 9.316-6.771 9.319 6.771-3.559 10.954h-11.518z"/><path d="M292.806 307.22l-3.559-10.954 9.316-6.772 9.319 6.772-3.559 10.954h-11.517z"/><path d="M304.323 307.22l3.559 10.954-9.317 6.772-9.318-6.772 3.559-10.954h11.517z"/><path d="M334.476 307.22l3.558 10.954-9.316 6.772-9.319-6.772 3.559-10.954h11.518z"/><path d="M343.792 278.54l3.559 10.954-9.317 6.772-9.318-6.772 3.558-10.954h11.518z"/><path d="M295.005 278.54l3.558 10.954-9.316 6.772-9.316-6.772 3.556-10.954h11.518z"/><path d="M319.397 260.814l3.559 10.955-9.316 6.771-9.319-6.771 3.559-10.955h11.517z"/><path d="M322.958 307.22l-3.559-10.954 9.317-6.772 9.318 6.772-3.558 10.954h-11.518z"/><path d="M332.276 335.9l-3.558-10.954 9.316-6.772 9.319 6.772-3.559 10.954h-11.518z"/><path d="M204.559 335.9L201 324.946l9.316-6.772 9.319 6.772-3.559 10.954h-11.517z"/><path d="M307.882 318.173l-3.559-10.953 9.317-6.772 9.318 6.772-3.559 10.953h-11.517z"/><path d="M341.591 364.581l-3.559-10.955 9.317-6.771 9.318 6.771-3.559 10.955h-11.517z"/><path d="M322.956 364.581l-3.559-10.955 9.317-6.771 9.318 6.771-3.558 10.955h-11.518z"/><path d="M317.198 382.307l-3.558-10.955 9.316-6.771 9.318 6.771-3.558 10.955h-11.518z"/><path d="M328.716 382.307l3.558 10.953-9.316 6.772-9.318-6.772 3.558-10.953h11.518z"/><path d="M358.868 382.307l3.559 10.953-9.317 6.772-9.318-6.772 3.559-10.953h11.517z"/><path d="M368.185 353.626l3.558 10.955-9.316 6.771-9.319-6.771 3.559-10.955h11.518z"/><path d="M319.397 353.626l3.559 10.955-9.316 6.771-9.319-6.771 3.559-10.955h11.517z"/><path d="M343.79 335.9l3.559 10.955-9.317 6.771-9.318-6.771 3.558-10.955h11.518z"/><path d="M347.351 382.307l-3.559-10.955 9.316-6.771 9.319 6.771-3.559 10.955h-11.517z"/><path d="M332.274 393.26l-3.558-10.953 9.316-6.771 9.319 6.771-3.559 10.953h-11.518z"/><path d="M213.873 364.581l-3.559-10.955 9.317-6.771 9.318 6.771-3.558 10.955h-11.518z"/><path d="M195.238 364.581l-3.558-10.955 9.316-6.771 9.318 6.771-3.558 10.955h-11.518z"/><path d="M189.48 382.307l-3.558-10.955 9.316-6.771 9.319 6.771-3.559 10.955H189.48z"/><path d="M228.951 410.987l-3.558-10.955 9.316-6.772 9.318 6.772-3.558 10.955h-11.518z"/><path d="M307.88 410.987l-3.559-10.955 9.317-6.772 9.318 6.772-3.559 10.955H307.88z"/><path d="M200.998 382.307l3.559 10.953-9.317 6.772-9.318-6.772 3.558-10.953h11.518z"/><path d="M231.15 382.307l3.559 10.953-9.316 6.772-9.319-6.772 3.559-10.953h11.517z"/><path d="M240.467 353.626l3.558 10.955-9.316 6.771-9.318-6.771 3.558-10.955h11.518z"/><path d="M191.68 353.626l3.558 10.955-9.316 6.771-9.318-6.771 3.558-10.955h11.518z"/><path d="M216.072 335.9l3.559 10.955-9.317 6.771-9.318-6.771 3.559-10.955h11.517z"/><path d="M219.633 382.307l-3.559-10.955 9.317-6.771 9.318 6.771-3.559 10.955h-11.517z"/><path d="M204.557 393.26l-3.559-10.953 9.316-6.771 9.319 6.771-3.559 10.953h-11.517z"/><path d="M277.73 410.987l-3.556-10.955 9.311-6.772 9.319 6.772-3.559 10.955H277.73z"/><path d="M259.103 410.987l-3.559-10.955 9.313-6.772 9.317 6.772-3.559 10.955h-11.512z"/><path d="M253.345 428.711l-3.559-10.953 9.317-6.771 9.313 6.771-3.557 10.953h-11.514z"/><path d="M264.859 428.711l3.557 10.956-9.312 6.771-9.318-6.771 3.559-10.956h11.514z"/><path d="M295.005 428.711l3.558 10.956-9.316 6.771-9.316-6.771 3.556-10.956h11.518z"/><path d="M304.321 400.032l3.559 10.955-9.317 6.771-9.318-6.771 3.559-10.955h11.517z"/><path d="M255.544 400.032l3.559 10.955-9.317 6.771-9.319-6.771 3.558-10.955h11.519z"/><path d="M279.929 382.307l3.556 10.953-9.311 6.772-9.317-6.772 3.557-10.953h11.515z"/><path d="M283.487 428.711l-3.556-10.953 9.314-6.771 9.318 6.771-3.558 10.953h-11.518z"/><path d="M268.416 439.665l-3.557-10.954 9.315-6.771 9.313 6.771-3.556 10.954h-11.515z"/><path d="M238.268 232.135l-3.559 10.954 9.316 6.771 9.32-6.771-3.559-10.954h-11.518z"/><path d="M268.416 232.135l-3.557 10.954 9.315 6.771 9.313-6.771-3.556-10.954h-11.515z"/><path d="M219.633 232.135l-3.559 10.954 9.317 6.771 9.318-6.771-3.559-10.954h-11.517z"/><path d="M213.875 214.409l-3.559 10.954 9.317 6.772 9.318-6.772-3.558-10.954h-11.518z"/><path d="M225.393 214.409l3.558-10.954-9.316-6.771-9.319 6.771 3.559 10.954h11.518z"/><path d="M255.546 214.409l3.558-10.954-9.316-6.771-9.319 6.771 3.558 10.954h11.519z"/><path d="M264.859 243.089l3.557-10.954-9.312-6.772-9.318 6.772 3.559 10.954h11.514z"/><path d="M216.074 243.089l3.559-10.954-9.317-6.772-9.318 6.772 3.559 10.954h11.517z"/><path d="M240.467 260.814l3.558-10.954-9.316-6.771-9.318 6.771 3.558 10.954h11.518z"/><path d="M244.027 214.409l-3.558 10.954 9.317 6.772 9.318-6.772-3.558-10.954h-11.519z"/><path d="M228.951 203.456l-3.558 10.953 9.316 6.772 9.318-6.772-3.558-10.953h-11.518z"/><path d="M277.73 353.626l-3.556 10.955 9.311 6.771 9.319-6.771-3.559-10.955H277.73z"/><path d="M259.103 353.626l-3.559 10.955 9.313 6.771 9.317-6.771-3.559-10.955h-11.512z"/><path d="M253.345 335.9l-3.559 10.955 9.317 6.771 9.313-6.771-3.557-10.955h-11.514z"/><path d="M264.859 335.9l3.557-10.954-9.312-6.772-9.318 6.772 3.559 10.954h11.514z"/><path d="M295.005 335.9l3.558-10.954-9.316-6.772-9.316 6.772 3.556 10.954h11.518z"/><path d="M304.321 364.581l3.559-10.955-9.317-6.771-9.318 6.771 3.559 10.955h11.517z"/><path d="M255.544 364.581l3.559-10.955-9.317-6.771-9.319 6.771 3.558 10.955h11.519z"/><path d="M279.929 382.307l3.556-10.955-9.311-6.771-9.317 6.771 3.557 10.955h11.515z"/><path d="M283.487 335.9l-3.556 10.955 9.314 6.771 9.318-6.771-3.558-10.955h-11.518z"/><path d="M268.416 324.947l-3.557 10.953 9.315 6.772 9.313-6.772-3.556-10.953h-11.515z"/><path d="M317.198 232.135l-3.558 10.954 9.316 6.771 9.318-6.771-3.558-10.954h-11.518z"/><path d="M298.563 232.135l-3.558 10.954 9.316 6.771 9.319-6.771-3.559-10.954h-11.518z"/><path d="M292.806 214.409l-3.559 10.954 9.316 6.772 9.319-6.772-3.559-10.954h-11.517z"/><path d="M304.323 214.409l3.559-10.954-9.317-6.771-9.318 6.771 3.559 10.954h11.517z"/><path d="M334.476 214.409l3.558-10.954-9.316-6.771-9.319 6.771 3.559 10.954h11.518z"/><path d="M343.792 243.089l3.559-10.954-9.317-6.772-9.318 6.772 3.558 10.954h11.518z"/><path d="M295.005 243.089l3.558-10.954-9.316-6.772-9.316 6.772 3.556 10.954h11.518z"/><path d="M319.397 260.814l3.559-10.954-9.316-6.771-9.319 6.771 3.559 10.954h11.517z"/><path d="M322.958 214.409l-3.559 10.954 9.317 6.772 9.318-6.772-3.558-10.954h-11.518z"/><path d="M307.882 203.456l-3.559 10.953 9.317 6.772 9.318-6.772-3.559-10.953h-11.517z"/><path d="M381.062 278.54l-3.559 10.954 9.316 6.772 9.319-6.772-3.559-10.954h-11.517z"/><path d="M362.427 278.54l-3.559 10.954 9.317 6.772 9.318-6.772-3.559-10.954h-11.517z"/><path d="M356.669 260.814l-3.559 10.955 9.317 6.771 9.318-6.771-3.558-10.955h-11.518z"/><path d="M368.187 260.814l3.558-10.954-9.316-6.771-9.319 6.771 3.559 10.954h11.518z"/><path d="M398.339 260.814l3.558-10.954-9.316-6.771-9.318 6.771 3.558 10.954h11.518z"/><path d="M407.655 289.494l3.559-10.954-9.317-6.771-9.318 6.771 3.559 10.954h11.517z"/><path d="M358.868 289.494l3.559-10.954-9.317-6.771-9.318 6.771 3.559 10.954h11.517z"/><path d="M383.261 307.22l3.558-10.954-9.316-6.772-9.318 6.772 3.558 10.954h11.518z"/><path d="M386.821 260.814l-3.558 10.955 9.316 6.771 9.318-6.771-3.558-10.955h-11.518z"/><path d="M371.745 249.861l-3.558 10.953 9.316 6.772 9.318-6.772-3.558-10.953h-11.518z"/><path d="M405.454 353.626l-3.558 10.955 9.316 6.771 9.318-6.771-3.558-10.955h-11.518z"/><path d="M386.819 353.626l-3.558 10.955 9.316 6.771 9.319-6.771-3.559-10.955h-11.518z"/><path d="M381.062 335.9l-3.559 10.955 9.316 6.771 9.319-6.771-3.559-10.955h-11.517z"/><path d="M392.579 335.9l3.559-10.954-9.317-6.772-9.318 6.772 3.559 10.954h11.517z"/><path d="M422.731 335.9l3.559-10.954-9.316-6.772-9.319 6.772 3.559 10.954h11.517z"/><path d="M432.048 364.581l3.558-10.955-9.316-6.771-9.318 6.771 3.558 10.955h11.518z"/><path d="M383.261 364.581l3.558-10.955-9.316-6.771-9.318 6.771 3.558 10.955h11.518z"/><path d="M407.653 382.307l3.559-10.955-9.316-6.771-9.319 6.771 3.559 10.955h11.517z"/><path d="M411.214 335.9l-3.559 10.955 9.317 6.771 9.318-6.771-3.559-10.955h-11.517z"/><path d="M396.138 324.947l-3.559 10.953 9.317 6.772 9.318-6.772-3.559-10.953h-11.517z"/><path d="M381.06 428.711l-3.559 10.956 9.316 6.771 9.319-6.771-3.559-10.956H381.06z"/><path d="M362.425 428.711l-3.559 10.956 9.317 6.771 9.318-6.771-3.559-10.956h-11.517z"/><path d="M356.667 410.987l-3.559 10.953 9.317 6.771 9.318-6.771-3.558-10.953h-11.518z"/><path d="M368.185 410.987l3.558-10.955-9.316-6.772-9.319 6.772 3.559 10.955h11.518z"/><path d="M398.337 410.987l3.559-10.955-9.317-6.772-9.318 6.772 3.558 10.955h11.518z"/><path d="M407.653 439.667l3.559-10.956-9.316-6.771-9.319 6.771 3.559 10.956h11.517z"/><path d="M358.866 439.667l3.559-10.956-9.317-6.771-9.318 6.771 3.559 10.956h11.517z"/><path d="M383.259 457.391l3.558-10.953-9.316-6.771-9.318 6.771 3.558 10.953h11.518z"/><path d="M386.819 410.987l-3.558 10.953 9.316 6.771 9.319-6.771-3.559-10.953h-11.518z"/><path d="M371.743 400.034l-3.558 10.953 9.316 6.771 9.318-6.771-3.558-10.953h-11.518z"/><path d="M317.196 475.118l-3.558 10.953 9.316 6.771 9.318-6.771-3.558-10.953h-11.518z"/><path d="M298.562 475.118l-3.559 10.953 9.316 6.771 9.319-6.771-3.559-10.953h-11.517z"/><path d="M292.804 457.391l-3.559 10.955 9.317 6.772 9.318-6.772-3.559-10.955h-11.517z"/><path d="M304.321 457.391l3.559-10.953-9.317-6.771-9.318 6.771 3.559 10.953h11.517z"/><path d="M334.474 457.391l3.558-10.953-9.316-6.771-9.319 6.771 3.559 10.953h11.518z"/><path d="M343.79 486.071l3.559-10.953-9.317-6.772-9.318 6.772 3.558 10.953h11.518z"/><path d="M295.003 486.071l3.559-10.953-9.317-6.772-9.316 6.772 3.556 10.953h11.518z"/><path d="M319.396 503.797l3.558-10.955-9.316-6.771-9.319 6.771 3.559 10.955h11.518z"/><path d="M322.956 457.391l-3.559 10.955 9.317 6.772 9.318-6.772-3.558-10.955h-11.518z"/><path d="M307.88 446.438l-3.559 10.953 9.317 6.772 9.318-6.772-3.559-10.953H307.88z"/><path d="M238.268 475.118l-3.559 10.953 9.316 6.771 9.32-6.771-3.559-10.953h-11.518z"/><path d="M219.633 475.118l-3.559 10.953 9.317 6.771 9.318-6.771-3.559-10.953h-11.517z"/><path d="M213.875 457.391l-3.559 10.955 9.317 6.772 9.318-6.772-3.558-10.955h-11.518z"/><path d="M225.393 457.391l3.558-10.953-9.316-6.771-9.319 6.771 3.559 10.953h11.518z"/><path d="M255.546 457.391l3.558-10.953-9.316-6.771-9.319 6.771 3.558 10.953h11.519z"/><path d="M264.859 486.071l3.557-10.953-9.312-6.772-9.318 6.772 3.559 10.953h11.514z"/><path d="M216.074 486.071l3.559-10.953-9.317-6.772-9.318 6.772 3.559 10.953h11.517z"/><path d="M240.467 503.797l3.558-10.955-9.316-6.771-9.318 6.771 3.558 10.955h11.518z"/><path d="M244.027 457.391l-3.558 10.955 9.317 6.772 9.318-6.772-3.558-10.955h-11.519z"/><path d="M228.951 446.438l-3.558 10.953 9.316 6.772 9.318-6.772-3.558-10.953h-11.518z"/><path d="M174.404 428.711l-3.558 10.956 9.316 6.771 9.318-6.771-3.558-10.956h-11.518z"/><path d="M155.77 428.711l-3.559 10.956 9.316 6.771 9.319-6.771-3.559-10.956H155.77z"/><path d="M150.012 410.987l-3.559 10.953 9.317 6.771 9.318-6.771-3.559-10.953h-11.517z"/><path d="M161.529 410.987l3.559-10.955-9.317-6.772-9.318 6.772 3.559 10.955h11.517z"/><path d="M191.682 410.987l3.558-10.955-9.316-6.772-9.319 6.772 3.559 10.955h11.518z"/><path d="M110.541 439.667l-3.559-10.956 9.317-6.771 9.318 6.771-3.558 10.956h-11.518z"/><path d="M91.906 439.667l-3.558-10.956 9.316-6.771 9.318 6.771-3.558 10.956H91.906z"/><path d="M86.148 457.391l-3.558-10.953 9.316-6.771 9.319 6.771-3.559 10.953H86.148z"/><path d="M125.619 486.071l-3.558-10.953 9.316-6.772 9.318 6.772-3.558 10.953h-11.518z"/><path d="M97.666 457.391l3.559 10.955-9.317 6.772-9.318-6.772 3.558-10.955h11.518z"/><path d="M127.818 457.391l3.559 10.955-9.316 6.772-9.319-6.772 3.559-10.955h11.517z"/><path d="M137.135 428.711l3.558 10.956-9.316 6.771-9.318-6.771 3.558-10.956h11.518z"/><path d="M88.348 428.711l3.558 10.956-9.316 6.771-9.319-6.771 3.559-10.956h11.518z"/><path d="M112.74 410.987l3.559 10.953-9.317 6.771-9.318-6.771 3.559-10.953h11.517z"/><path d="M116.301 457.391l-3.559-10.953 9.317-6.771 9.318 6.771-3.559 10.953h-11.517z"/><path d="M101.225 468.344l-3.559-10.953 9.316-6.771 9.319 6.771-3.559 10.953h-11.517z"/><path d="M201 532.477l3.559-10.955-9.317-6.772-9.318 6.772 3.558 10.955H201z"/><path d="M279.931 532.477l3.556-10.955-9.311-6.772-9.317 6.772 3.557 10.955h11.515z"/><path d="M358.866 532.477l3.559-10.955-9.317-6.772-9.318 6.772 3.559 10.955h11.517z"/><path d="M422.729 486.071l3.559-10.953-9.316-6.772-9.319 6.772 3.559 10.953h11.517z"/><path d="M447.126 410.987l3.559-10.955-9.317-6.772-9.318 6.772 3.558 10.955h11.518z"/><path d="M471.517 335.9l3.558-10.954-9.316-6.772-9.319 6.772 3.559 10.954h11.518z"/><path d="M447.124 260.814l3.559-10.954-9.317-6.771-9.318 6.771 3.558 10.954h11.518z"/><path d="M383.263 214.409l3.558-10.954-9.316-6.771-9.318 6.771 3.558 10.954h11.518z"/><path d="M319.399 168.004l3.559-10.954-9.316-6.772-9.319 6.772 3.559 10.954h11.517z"/><path d="M240.469 168.004l3.558-10.954-9.316-6.772-9.318 6.772 3.558 10.954h11.518z"/><path d="M86.145 364.581l-3.559-10.955 9.316-6.771 9.319 6.771-3.559 10.955H86.145z"/><path d="M67.51 364.581l-3.559-10.955 9.317-6.771 9.318 6.771-3.559 10.955H67.51z"/><path d="M61.752 382.307l-3.559-10.955 9.317-6.771 9.318 6.771-3.558 10.955H61.752z"/><path d="M101.223 410.987l-3.559-10.955 9.316-6.772 9.319 6.772-3.559 10.955h-11.517z"/><path d="M73.27 382.307l3.558 10.953-9.316 6.772-9.319-6.772 3.559-10.953H73.27z"/><path d="M103.422 382.307l3.558 10.953-9.316 6.772-9.318-6.772 3.558-10.953h11.518z"/><path d="M112.738 353.626l3.559 10.955-9.317 6.771-9.318-6.771 3.559-10.955h11.517z"/><path d="M63.951 353.626l3.559 10.955-9.317 6.771-9.318-6.771 3.559-10.955h11.517z"/><path d="M88.344 335.9l3.558 10.955-9.316 6.771-9.318-6.771 3.558-10.955h11.518z"/><path d="M91.904 382.307l-3.558-10.955 9.316-6.771 9.318 6.771-3.558 10.955H91.904z"/><path d="M76.828 393.26l-3.558-10.953 9.316-6.771 9.318 6.771-3.558 10.953H76.828z"/><path d="M110.535 289.494l-3.558-10.954 9.316-6.771 9.318 6.771-3.558 10.954h-11.518z"/><path d="M91.9 289.494l-3.558-10.954 9.316-6.771 9.319 6.771-3.559 10.954H91.9z"/><path d="M86.143 307.22l-3.559-10.954 9.316-6.772 9.319 6.772-3.559 10.954H86.143z"/><path d="M97.66 307.22l3.559 10.954-9.317 6.772-9.318-6.772 3.559-10.954H97.66z"/><path d="M127.812 307.22l3.559 10.954-9.316 6.772-9.319-6.772 3.559-10.954h11.517z"/><path d="M137.129 278.54l3.559 10.954-9.317 6.772-9.318-6.772 3.558-10.954h11.518z"/><path d="M88.342 278.54l3.558 10.954-9.316 6.772-9.318-6.772 3.558-10.954h11.518z"/><path d="M112.734 260.814l3.559 10.955-9.316 6.771-9.319-6.771 3.559-10.955h11.517z"/><path d="M116.295 307.22l-3.559-10.954 9.317-6.772 9.318 6.772-3.559 10.954h-11.517z"/><path d="M101.219 318.173L97.66 307.22l9.317-6.772 9.318 6.772-3.559 10.953h-11.517z"/><path d="M88.344 335.9l3.558-10.954-9.316-6.772-9.318 6.772 3.558 10.954h11.518z"/><path d="M134.926 214.409l-3.559-10.954 9.317-6.771 9.318 6.771-3.559 10.954h-11.517z"/><path d="M116.291 214.409l-3.559-10.954 9.317-6.771 9.318 6.771-3.558 10.954h-11.518z"/><path d="M110.533 232.135l-3.558-10.954 9.316-6.772 9.318 6.772-3.558 10.954h-11.518z"/><path d="M122.051 232.135l3.558 10.954-9.316 6.771-9.318-6.771 3.558-10.954h11.518z"/><path d="M152.203 232.135l3.559 10.954-9.317 6.771-9.318-6.771 3.559-10.954h11.517z"/><path d="M161.52 203.455l3.558 10.954-9.316 6.772-9.319-6.772 3.559-10.954h11.518z"/><path d="M112.732 203.455l3.559 10.954-9.316 6.772-9.319-6.772 3.559-10.954h11.517z"/><path d="M137.125 185.729l3.559 10.955-9.317 6.771-9.318-6.771 3.558-10.955h11.518z"/><path d="M140.686 232.135l-3.559-10.954 9.316-6.772 9.319 6.772-3.559 10.954h-11.517z"/><path d="M125.609 243.088l-3.558-10.953 9.316-6.772 9.319 6.772-3.559 10.953h-11.518z"/><path d="M112.734 260.814l3.559-10.954-9.316-6.771-9.319 6.771 3.559 10.954h11.517z"/><path d="M198.787 168.004l-3.558-10.954 9.316-6.772 9.318 6.772-3.558 10.954h-11.518z"/><path d="M180.152 168.004l-3.558-10.954 9.316-6.772 9.319 6.772-3.559 10.954h-11.518z"/><path d="M174.395 185.729l-3.559-10.954 9.316-6.771 9.319 6.771-3.559 10.954h-11.517z"/><path d="M185.912 185.729l3.559 10.955-9.317 6.771-9.318-6.771 3.559-10.955h11.517z"/><path d="M216.064 185.729l3.559 10.955-9.316 6.771-9.319-6.771 3.559-10.955h11.517z"/><path d="M225.381 157.05l3.558 10.954-9.316 6.771-9.318-6.771 3.558-10.954h11.518z"/><path d="M176.594 157.05l3.558 10.954-9.316 6.771-9.318-6.771 3.558-10.954h11.518z"/><path d="M200.986 139.324l3.559 10.954-9.316 6.772-9.319-6.772 3.559-10.954h11.517z"/><path d="M204.547 185.729l-3.559-10.954 9.317-6.771 9.318 6.771-3.559 10.954h-11.517z"/><path d="M189.471 196.683l-3.559-10.954 9.317-6.771 9.318 6.771-3.559 10.954h-11.517z"/><path d="M277.732 168.004l-3.556-10.954 9.311-6.772 9.319 6.772-3.559 10.954h-11.515z"/><path d="M259.104 168.004l-3.558-10.954 9.313-6.772 9.317 6.772-3.559 10.954h-11.513z"/><path d="M253.347 185.729l-3.559-10.954 9.316-6.771 9.314 6.771-3.557 10.954h-11.514z"/><path d="M264.861 185.729l3.557 10.955-9.312 6.771-9.318-6.771 3.559-10.955h11.514z"/><path d="M295.007 185.729l3.558 10.955-9.316 6.771-9.316-6.771 3.556-10.955h11.518z"/><path d="M304.323 157.05l3.559 10.954-9.317 6.771-9.318-6.771 3.559-10.954h11.517z"/><path d="M255.546 157.05l3.558 10.954-9.316 6.771-9.319-6.771 3.558-10.954h11.519z"/><path d="M279.931 139.324l3.556 10.954-9.311 6.772-9.317-6.772 3.557-10.954h11.515z"/><path d="M283.489 185.729l-3.556-10.954 9.314-6.771 9.318 6.771-3.558 10.954h-11.518z"/><path d="M268.418 196.683l-3.557-10.954 9.315-6.771 9.313 6.771-3.556 10.954h-11.515z"/><path d="M356.669 168.004l-3.559-10.954 9.317-6.772 9.318 6.772-3.558 10.954h-11.518z"/><path d="M338.034 168.004l-3.558-10.954 9.316-6.772 9.318 6.772-3.558 10.954h-11.518z"/><path d="M332.276 185.729l-3.558-10.954 9.316-6.771 9.319 6.771-3.559 10.954h-11.518z"/><path d="M343.794 185.729l3.559 10.955-9.317 6.771-9.318-6.771 3.558-10.955h11.518z"/><path d="M373.946 185.729l3.559 10.955-9.317 6.771-9.318-6.771 3.559-10.955h11.517z"/><path d="M383.263 157.05l3.558 10.954-9.316 6.771-9.318-6.771 3.558-10.954h11.518z"/><path d="M334.476 157.05l3.558 10.954-9.316 6.771-9.319-6.771 3.559-10.954h11.518z"/><path d="M358.868 139.324l3.559 10.954-9.317 6.772-9.318-6.772 3.559-10.954h11.517z"/><path d="M362.429 185.729l-3.559-10.954 9.317-6.771 9.318 6.771-3.559 10.954h-11.517z"/><path d="M347.353 196.683l-3.559-10.954 9.316-6.771 9.319 6.771-3.559 10.954h-11.517z"/><path d="M420.532 214.409l-3.558-10.954 9.316-6.771 9.318 6.771-3.558 10.954h-11.518z"/><path d="M401.897 214.409l-3.558-10.954 9.316-6.771 9.319 6.771-3.559 10.954h-11.518z"/><path d="M396.14 232.135l-3.559-10.954 9.316-6.772 9.319 6.772-3.559 10.954H396.14z"/><path d="M407.657 232.135l3.559 10.954-9.317 6.771-9.318-6.771 3.559-10.954h11.517z"/><path d="M437.81 232.135l3.558 10.954-9.316 6.771-9.319-6.771 3.559-10.954h11.518z"/><path d="M447.126 203.455l3.559 10.954-9.317 6.772-9.318-6.772 3.558-10.954h11.518z"/><path d="M398.339 203.455l3.558 10.954-9.316 6.772-9.318-6.772 3.558-10.954h11.518z"/><path d="M422.731 185.729l3.559 10.955-9.316 6.771-9.319-6.771 3.559-10.955h11.517z"/><path d="M426.292 232.135l-3.559-10.954 9.317-6.772 9.318 6.772-3.558 10.954h-11.518z"/><path d="M411.216 243.088l-3.559-10.953 9.317-6.772 9.318 6.772-3.559 10.953h-11.517z"/><path d="M444.925 289.494l-3.559-10.954 9.317-6.771 9.318 6.771-3.559 10.954h-11.517z"/><path d="M426.29 289.494l-3.559-10.954 9.317-6.771 9.318 6.771-3.558 10.954H426.29z"/><path d="M420.532 307.22l-3.558-10.954 9.316-6.772 9.318 6.772-3.558 10.954h-11.518z"/><path d="M432.05 307.22l3.558 10.954-9.316 6.772-9.318-6.772 3.558-10.954h11.518z"/><path d="M462.202 307.22l3.559 10.954-9.317 6.772-9.318-6.772 3.559-10.954h11.517z"/><path d="M471.519 278.54l3.558 10.954-9.316 6.772-9.319-6.772 3.559-10.954h11.518z"/><path d="M422.731 278.54l3.559 10.954-9.316 6.772-9.319-6.772 3.559-10.954h11.517z"/><path d="M447.124 260.814l3.559 10.955-9.317 6.771-9.318-6.771 3.558-10.955h11.518z"/><path d="M450.685 307.22l-3.559-10.954 9.316-6.772 9.319 6.772-3.559 10.954h-11.517z"/><path d="M435.608 318.173l-3.558-10.953 9.316-6.772 9.319 6.772-3.559 10.953h-11.518z"/><path d="M469.317 364.581l-3.558-10.955 9.316-6.771 9.319 6.771-3.559 10.955h-11.518z"/><path d="M450.683 364.581l-3.559-10.955 9.316-6.771 9.319 6.771-3.559 10.955h-11.517z"/><path d="M444.925 382.307l-3.559-10.955 9.317-6.771 9.318 6.771-3.559 10.955h-11.517z"/><path d="M456.442 382.307l3.559 10.953-9.316 6.772-9.319-6.772 3.559-10.953h11.517z"/><path d="M486.595 382.307l3.558 10.953-9.316 6.772-9.318-6.772 3.558-10.953h11.518z"/><path d="M495.911 353.626l3.559 10.955-9.317 6.771-9.318-6.771 3.559-10.955h11.517z"/><path d="M447.124 353.626l3.559 10.955-9.317 6.771-9.318-6.771 3.558-10.955h11.518z"/><path d="M471.517 335.9l3.558 10.955-9.316 6.771-9.319-6.771 3.559-10.955h11.518z"/><path d="M475.077 382.307l-3.558-10.955 9.316-6.771 9.318 6.771-3.558 10.955h-11.518z"/><path d="M460.001 393.26l-3.559-10.953 9.317-6.771 9.318 6.771-3.558 10.953h-11.518z"/><path d="M444.923 439.667l-3.559-10.956 9.317-6.771 9.318 6.771-3.559 10.956h-11.517z"/><path d="M426.288 439.667l-3.559-10.956 9.317-6.771 9.318 6.771-3.558 10.956h-11.518z"/><path d="M420.53 457.391l-3.558-10.953 9.316-6.771 9.318 6.771-3.558 10.953H420.53z"/><path d="M432.048 457.391l3.558 10.955-9.316 6.772-9.318-6.772 3.558-10.955h11.518z"/><path d="M462.2 457.391l3.559 10.955-9.317 6.772-9.318-6.772 3.559-10.955H462.2z"/><path d="M471.517 428.711l3.558 10.956-9.316 6.771-9.319-6.771 3.559-10.956h11.518z"/><path d="M422.729 428.711l3.559 10.956-9.316 6.771-9.319-6.771 3.559-10.956h11.517z"/><path d="M447.122 410.987l3.559 10.953-9.317 6.771-9.318-6.771 3.558-10.953h11.518z"/><path d="M450.683 457.391l-3.559-10.953 9.316-6.771 9.319 6.771-3.559 10.953h-11.517z"/><path d="M435.606 468.344l-3.558-10.953 9.316-6.771 9.319 6.771-3.559 10.953h-11.518z"/><path d="M381.06 486.071l-3.559-10.953 9.316-6.772 9.319 6.772-3.559 10.953H381.06z"/><path d="M362.425 486.071l-3.559-10.953 9.317-6.772 9.318 6.772-3.559 10.953h-11.517z"/><path d="M356.667 503.797l-3.559-10.955 9.317-6.771 9.318 6.771-3.558 10.955h-11.518z"/><path d="M368.185 503.797l3.558 10.953-9.316 6.772-9.319-6.772 3.559-10.953h11.518z"/><path d="M398.337 503.797l3.559 10.953-9.317 6.772-9.318-6.772 3.558-10.953h11.518z"/><path d="M407.653 475.118l3.559 10.953-9.316 6.771-9.319-6.771 3.559-10.953h11.517z"/><path d="M358.866 475.118l3.559 10.953-9.317 6.771-9.318-6.771 3.559-10.953h11.517z"/><path d="M383.259 457.391l3.558 10.955-9.316 6.772-9.318-6.772 3.558-10.955h11.518z"/><path d="M386.819 503.797l-3.558-10.955 9.316-6.771 9.319 6.771-3.559 10.955h-11.518z"/><path d="M371.743 514.75l-3.558-10.953 9.316-6.771 9.318 6.771-3.558 10.953h-11.518z"/><path d="M317.196 532.477l-3.558-10.955 9.316-6.772 9.318 6.772-3.558 10.955h-11.518z"/><path d="M298.562 532.477l-3.559-10.955 9.316-6.772 9.319 6.772-3.559 10.955h-11.517z"/><path d="M292.804 550.202l-3.559-10.953 9.317-6.772 9.318 6.772-3.559 10.953h-11.517z"/><path d="M304.321 550.202l3.559 10.955-9.317 6.771-9.318-6.771 3.559-10.955h11.517z"/><path d="M334.474 550.202l3.558 10.955-9.316 6.771-9.319-6.771 3.559-10.955h11.518z"/><path d="M343.79 521.522l3.559 10.955-9.317 6.772-9.318-6.772 3.558-10.955h11.518z"/><path d="M295.003 521.522l3.559 10.955-9.317 6.772-9.316-6.772 3.556-10.955h11.518z"/><path d="M319.396 503.797l3.558 10.953-9.316 6.772-9.319-6.772 3.559-10.953h11.518z"/><path d="M322.956 550.202l-3.559-10.953 9.317-6.772 9.318 6.772-3.558 10.953h-11.518z"/><path d="M307.88 561.155l-3.559-10.953 9.317-6.772 9.318 6.772-3.559 10.953H307.88z"/><path d="M238.268 532.477l-3.559-10.955 9.316-6.772 9.32 6.772-3.559 10.955h-11.518z"/><path d="M219.633 532.477l-3.559-10.955 9.317-6.772 9.318 6.772-3.559 10.955h-11.517z"/><path d="M213.875 550.202l-3.559-10.953 9.317-6.772 9.318 6.772-3.558 10.953h-11.518z"/><path d="M225.393 550.202l3.558 10.955-9.316 6.771-9.319-6.771 3.559-10.955h11.518z"/><path d="M255.546 550.202l3.558 10.955-9.316 6.771-9.319-6.771 3.558-10.955h11.519z"/><path d="M264.859 521.522l3.557 10.955-9.312 6.772-9.318-6.772 3.559-10.955h11.514z"/><path d="M216.074 521.522l3.559 10.955-9.317 6.772-9.318-6.772 3.559-10.955h11.517z"/><path d="M240.467 503.797l3.558 10.953-9.316 6.772-9.318-6.772 3.558-10.953h11.518z"/><path d="M244.027 550.202l-3.558-10.953 9.317-6.772 9.318 6.772-3.558 10.953h-11.519z"/><path d="M228.951 561.155l-3.558-10.953 9.316-6.772 9.318 6.772-3.558 10.953h-11.518z"/><path d="M174.404 486.071l-3.558-10.953 9.316-6.772 9.318 6.772-3.558 10.953h-11.518z"/><path d="M155.77 486.071l-3.559-10.953 9.316-6.772 9.319 6.772-3.559 10.953H155.77z"/><path d="M150.012 503.797l-3.559-10.955 9.317-6.771 9.318 6.771-3.559 10.955h-11.517z"/><path d="M161.529 503.797l3.559 10.953-9.317 6.772-9.318-6.772 3.559-10.953h11.517z"/><path d="M191.682 503.797l3.558 10.953-9.316 6.772-9.319-6.772 3.559-10.953h11.518z"/><path d="M200.998 475.118l3.559 10.953-9.317 6.771-9.318-6.771 3.558-10.953h11.518z"/><path d="M152.211 475.118l3.559 10.953-9.317 6.771-9.318-6.771 3.558-10.953h11.518z"/><path d="M176.604 457.391l3.558 10.955-9.316 6.772-9.319-6.772 3.559-10.955h11.518z"/><path d="M180.164 503.797l-3.559-10.955 9.317-6.771 9.318 6.771-3.558 10.955h-11.518z"/><path d="M165.088 514.75l-3.559-10.953 9.317-6.771 9.318 6.771-3.559 10.953h-11.517z"/><path d="M71.072 561.157l-3.558-10.955 9.316-6.772 9.318 6.772-3.558 10.955H71.072z"/><path d="M52.438 561.157l-3.559-10.955 9.316-6.772 9.319 6.772-3.559 10.955H52.438z"/><path d="M46.68 578.881l-3.559-10.953 9.317-6.771 9.318 6.771-3.559 10.953H46.68z"/><path d="M58.197 578.881l3.559 10.955-9.317 6.772-9.318-6.772 3.559-10.955h11.517z"/><path d="M88.35 578.881l3.558 10.955-9.316 6.772-9.319-6.772 3.559-10.955H88.35z"/><path d="M97.666 550.202l3.559 10.955-9.317 6.771-9.318-6.771 3.558-10.955h11.518z"/><path d="M48.879 550.202l3.559 10.955-9.317 6.771-9.318-6.771 3.558-10.955h11.518z"/><path d="M73.271 532.477l3.559 10.953-9.316 6.772-9.319-6.772 3.559-10.953h11.517z"/><path d="M76.832 578.881l-3.559-10.953 9.317-6.771 9.318 6.771-3.558 10.953H76.832z"/><path d="M61.756 589.834l-3.559-10.953 9.317-6.771 9.318 6.771-3.559 10.953H61.756z"/><path d="M7.209 514.75L3.65 503.797l9.317-6.771 9.318 6.771-3.558 10.953H7.209z"/><path d="M24.486 532.477l3.559 10.953-9.316 6.772-9.319-6.772 3.559-10.953h11.517z"/><path d="M33.803 503.797l3.558 10.953-9.316 6.772-9.318-6.772 3.558-10.953h11.518z"/><path d="M12.969 532.477L9.41 521.522l9.317-6.772 9.318 6.772-3.559 10.955H12.969z"/><path d="M7.201 214.409l-3.558-10.954 9.316-6.771 9.318 6.771-3.558 10.954H7.201z"/><path d="M24.479 232.135l3.558 10.954-9.316 6.771-9.319-6.771 3.559-10.954h11.518z"/><path d="M33.795 203.455l3.559 10.954-9.317 6.772-9.318-6.772 3.558-10.954h11.518z"/><path d="M12.961 232.135l-3.559-10.954 9.317-6.772 9.318 6.772-3.558 10.954H12.961z"/><path d="M31.594 139.324l-3.559-10.954 9.317-6.771 9.318 6.771-3.559 10.954H31.594z"/><path d="M12.959 139.324L9.4 128.37l9.317-6.771 9.318 6.771-3.558 10.954H12.959z"/><path d="M7.201 157.05l-3.558-10.954 9.316-6.772 9.318 6.772-3.558 10.954H7.201z"/><path d="M18.719 157.05l3.558 10.954-9.316 6.771-9.318-6.771 3.558-10.954h11.518z"/><path d="M48.871 157.05l3.559 10.954-9.317 6.771-9.318-6.771 3.559-10.954h11.517z"/><path d="M58.188 128.37l3.558 10.954-9.316 6.772-9.319-6.772 3.559-10.954h11.518z"/><path d="M33.793 110.645l3.559 10.954-9.317 6.771-9.318-6.771 3.558-10.954h11.518z"/><path d="M37.354 157.05l-3.559-10.954 9.316-6.772 9.319 6.772-3.559 10.954H37.354z"/><path d="M22.277 168.003l-3.558-10.953 9.316-6.772 9.319 6.772-3.559 10.953H22.277z"/><path d="M95.455 92.919l-3.559-10.954 9.317-6.772 9.318 6.772-3.558 10.954H95.455z"/><path d="M76.82 92.919l-3.558-10.954 9.316-6.772 9.318 6.772-3.558 10.954H76.82z"/><path d="M71.062 110.645L67.504 99.69l9.316-6.771 9.319 6.771-3.559 10.955H71.062z"/><path d="M82.58 110.645l3.559 10.954-9.317 6.771-9.318-6.771 3.558-10.954H82.58z"/><path d="M112.732 110.645l3.559 10.954-9.316 6.771-9.319-6.771 3.559-10.954h11.517z"/><path d="M122.049 81.965l3.558 10.954-9.316 6.771-9.318-6.771 3.558-10.954h11.518z"/><path d="M73.262 81.965l3.558 10.954-9.316 6.771-9.318-6.771 3.558-10.954h11.518z"/><path d="M97.654 64.239l3.559 10.954-9.317 6.772-9.318-6.772 3.559-10.954h11.517z"/><path d="M101.215 110.645L97.656 99.69l9.317-6.771 9.318 6.771-3.559 10.955h-11.517z"/><path d="M86.139 121.598l-3.559-10.953 9.316-6.772 9.319 6.772-3.559 10.953H86.139z"/><path d="M159.318 46.514L155.76 35.56l9.316-6.772 9.319 6.772-3.559 10.954h-11.518z"/><path d="M140.684 46.514l-3.559-10.954 9.316-6.772 9.319 6.772-3.559 10.954h-11.517z"/><path d="M134.926 64.239l-3.559-10.954 9.317-6.771 9.318 6.771-3.559 10.954h-11.517z"/><path d="M146.443 64.239l3.559 10.954-9.316 6.772-9.319-6.772 3.559-10.954h11.517z"/><path d="M176.596 64.239l3.558 10.954-9.316 6.772-9.318-6.772 3.558-10.954h11.518z"/><path d="M185.912 35.56l3.559 10.954-9.317 6.771-9.318-6.771 3.559-10.954h11.517z"/><path d="M137.125 35.56l3.559 10.954-9.317 6.771-9.318-6.771 3.558-10.954h11.518z"/><path d="M161.518 17.834l3.558 10.954-9.316 6.772-9.319-6.772L150 17.834h11.518z"/><path d="M165.078 64.239l-3.558-10.954 9.316-6.771 9.318 6.771-3.558 10.954h-11.518z"/><path d="M150.002 75.192l-3.559-10.953 9.317-6.771 9.318 6.771-3.558 10.953h-11.518z"/><path d="M238.256 46.514l-3.559-10.954 9.317-6.772 9.319 6.772-3.559 10.954h-11.518z"/><path d="M219.621 46.514l-3.559-10.954 9.317-6.772 9.318 6.772-3.558 10.954h-11.518z"/><path d="M213.863 64.239l-3.558-10.954 9.316-6.771 9.318 6.771-3.558 10.954h-11.518z"/><path d="M225.381 64.239l3.558 10.954-9.316 6.772-9.318-6.772 3.558-10.954h11.518z"/><path d="M255.534 64.239l3.559 10.954-9.317 6.772-9.319-6.772 3.559-10.954h11.518z"/><path d="M264.848 35.56l3.556 10.954-9.311 6.771-9.319-6.771 3.559-10.954h11.515z"/><path d="M216.062 35.56l3.559 10.954-9.316 6.771-9.319-6.771 3.559-10.954h11.517z"/><path d="M240.455 17.834l3.559 10.954-9.317 6.772-9.318-6.772 3.559-10.954h11.517z"/><path d="M244.016 64.239l-3.559-10.954 9.317-6.771 9.319 6.771-3.559 10.954h-11.518z"/><path d="M228.939 75.192l-3.558-10.953 9.316-6.771 9.319 6.771-3.559 10.953h-11.518z"/><path d="M317.196 46.514l-3.558-10.954 9.316-6.772 9.318 6.772-3.558 10.954h-11.518z"/><path d="M298.562 46.514l-3.559-10.954 9.316-6.772 9.319 6.772-3.559 10.954h-11.517z"/><path d="M292.804 64.239l-3.559-10.954 9.317-6.771 9.318 6.771-3.559 10.954h-11.517z"/><path d="M304.321 64.239l3.559 10.954-9.317 6.772-9.318-6.772 3.559-10.954h11.517z"/><path d="M334.474 64.239l3.558 10.954-9.316 6.772-9.319-6.772 3.559-10.954h11.518z"/><path d="M343.79 35.56l3.559 10.954-9.317 6.771-9.318-6.771 3.558-10.954h11.518z"/><path d="M295.003 35.56l3.559 10.954-9.317 6.771-9.316-6.771 3.556-10.954h11.518z"/><path d="M319.396 17.834l3.558 10.954-9.316 6.772-9.319-6.772 3.559-10.954h11.518z"/><path d="M322.956 64.239l-3.559-10.954 9.317-6.771 9.318 6.771-3.558 10.954h-11.518z"/><path d="M307.88 75.192l-3.559-10.953 9.317-6.771 9.318 6.771-3.559 10.953H307.88z"/><path d="M396.138 46.514l-3.559-10.954 9.317-6.772 9.318 6.772-3.559 10.954h-11.517z"/><path d="M377.503 46.514l-3.559-10.954 9.317-6.772 9.318 6.772-3.558 10.954h-11.518z"/><path d="M371.745 64.239l-3.558-10.954 9.316-6.771 9.318 6.771-3.558 10.954h-11.518z"/><path d="M383.263 64.239l3.558 10.954-9.316 6.772-9.318-6.772 3.558-10.954h11.518z"/><path d="M413.415 64.239l3.559 10.954-9.317 6.772-9.318-6.772 3.558-10.954h11.518z"/><path d="M422.731 35.56l3.559 10.954-9.316 6.771-9.319-6.771 3.559-10.954h11.517z"/><path d="M373.944 35.56l3.559 10.954-9.316 6.771-9.319-6.771 3.559-10.954h11.517z"/><path d="M398.337 17.834l3.559 10.954-9.317 6.772-9.318-6.772 3.558-10.954h11.518z"/><path d="M401.897 64.239l-3.558-10.954 9.316-6.771 9.319 6.771-3.559 10.954h-11.518z"/><path d="M386.821 75.192l-3.558-10.953 9.316-6.771 9.318 6.771-3.558 10.953h-11.518z"/><path d="M460.003 92.919l-3.559-10.954 9.317-6.772 9.318 6.772-3.558 10.954h-11.518z"/><path d="M441.368 92.919l-3.558-10.954 9.316-6.772 9.318 6.772-3.558 10.954h-11.518z"/><path d="M435.61 110.645l-3.558-10.955 9.316-6.771 9.319 6.771-3.559 10.955H435.61z"/><path d="M447.128 110.645l3.559 10.954-9.317 6.771-9.318-6.771 3.558-10.954h11.518z"/><path d="M477.28 110.645l3.559 10.954-9.317 6.771-9.318-6.771 3.559-10.954h11.517z"/><path d="M486.597 81.965l3.558 10.954-9.316 6.771-9.318-6.771 3.558-10.954h11.518z"/><path d="M437.81 81.965l3.558 10.954-9.316 6.771-9.319-6.771 3.559-10.954h11.518z"/><path d="M462.202 64.239l3.559 10.954-9.317 6.772-9.318-6.772 3.559-10.954h11.517z"/><path d="M465.763 110.645l-3.559-10.955 9.317-6.771 9.318 6.771-3.559 10.955h-11.517z"/><path d="M450.687 121.598l-3.559-10.953 9.316-6.772 9.319 6.772-3.559 10.953h-11.517z"/><path d="M523.866 139.324l-3.558-10.954 9.316-6.771 9.318 6.771-3.558 10.954h-11.518z"/><path d="M505.231 139.324l-3.558-10.954 9.316-6.771 9.319 6.771-3.559 10.954h-11.518z"/><path d="M499.474 157.05l-3.559-10.954 9.316-6.772 9.319 6.772-3.559 10.954h-11.517z"/><path d="M510.991 157.05l3.559 10.954-9.317 6.771-9.318-6.771 3.559-10.954h11.517z"/><path d="M541.144 157.05l3.558 10.954-9.316 6.771-9.319-6.771 3.559-10.954h11.518z"/><path d="M501.673 128.37l3.558 10.954-9.316 6.772-9.318-6.772 3.558-10.954h11.518z"/><path d="M526.065 110.645l3.559 10.954-9.316 6.771-9.319-6.771 3.559-10.954h11.517z"/><path d="M529.626 157.05l-3.559-10.954 9.317-6.772 9.318 6.772-3.558 10.954h-11.518z"/><path d="M514.55 168.003l-3.559-10.953 9.317-6.772 9.318 6.772-3.559 10.953H514.55z"/><path d="M529.624 214.409l-3.559-10.954 9.317-6.771 9.318 6.771-3.558 10.954h-11.518z"/><path d="M523.866 232.135l-3.558-10.954 9.316-6.772 9.318 6.772-3.558 10.954h-11.518z"/><path d="M535.384 232.135l3.558 10.954-9.316 6.771-9.318-6.771 3.558-10.954h11.518z"/><path d="M526.065 203.455l3.559 10.954-9.316 6.772-9.319-6.772 3.559-10.954h11.517z"/><path d="M529.62 514.75l-3.558-10.953 9.316-6.771 9.318 6.771-3.558 10.953H529.62z"/><path d="M523.862 532.477l-3.558-10.955 9.316-6.772 9.318 6.772-3.558 10.955h-11.518z"/><path d="M535.38 532.477l3.558 10.953-9.316 6.772-9.318-6.772 3.558-10.953h11.518z"/><path d="M526.062 503.797l3.558 10.953-9.316 6.772-9.319-6.772 3.559-10.953h11.518z"/><path d="M484.392 561.157l-3.559-10.955 9.316-6.772 9.319 6.772-3.559 10.955h-11.517z"/><path d="M465.757 561.157l-3.559-10.955 9.317-6.772 9.318 6.772-3.559 10.955h-11.517z"/><path d="M459.999 578.881l-3.559-10.953 9.317-6.771 9.318 6.771-3.558 10.953h-11.518z"/><path d="M471.517 578.881l3.558 10.955-9.316 6.772-9.319-6.772 3.559-10.955h11.518z"/><path d="M501.669 578.881l3.559 10.955-9.317 6.772-9.318-6.772 3.558-10.955h11.518z"/><path d="M510.985 550.202l3.559 10.955-9.316 6.771-9.319-6.771 3.559-10.955h11.517z"/><path d="M462.198 550.202l3.559 10.955-9.317 6.771-9.318-6.771 3.559-10.955h11.517z"/><path d="M486.591 532.477l3.558 10.953-9.316 6.772-9.318-6.772 3.558-10.953h11.518z"/><path d="M490.151 578.881l-3.558-10.953 9.316-6.771 9.319 6.771-3.559 10.953h-11.518z"/><path d="M475.075 589.834l-3.558-10.953 9.316-6.771 9.318 6.771-3.558 10.953h-11.518z"/><path d="M420.528 607.561l-3.558-10.953 9.316-6.772 9.318 6.772-3.558 10.953h-11.518z"/><path d="M401.894 607.561l-3.559-10.953 9.316-6.772 9.319 6.772-3.559 10.953h-11.517z"/><path d="M396.136 625.288l-3.559-10.955 9.317-6.772 9.318 6.772-3.559 10.955h-11.517z"/><path d="M407.653 625.288l3.559 10.953-9.316 6.771-9.319-6.771 3.559-10.953h11.517z"/><path d="M437.806 625.288l3.558 10.953-9.316 6.771-9.319-6.771 3.559-10.953h11.518z"/><path d="M447.122 596.608l3.559 10.953-9.317 6.772-9.318-6.772 3.558-10.953h11.518z"/><path d="M398.335 596.608l3.559 10.953-9.317 6.772-9.318-6.772 3.558-10.953h11.518z"/><path d="M422.728 578.881l3.558 10.955-9.316 6.772-9.319-6.772 3.559-10.955h11.518z"/><path d="M426.288 625.288l-3.559-10.955 9.317-6.772 9.318 6.772-3.558 10.955h-11.518z"/><path d="M411.212 636.241l-3.559-10.953 9.317-6.772 9.318 6.772-3.559 10.953h-11.517z"/><path d="M356.665 653.967l-3.559-10.955 9.317-6.771 9.318 6.771-3.558 10.955h-11.518z"/><path d="M338.03 653.967l-3.558-10.955 9.316-6.771 9.318 6.771-3.558 10.955H338.03z"/><path d="M332.272 671.692l-3.558-10.953 9.316-6.772 9.319 6.772-3.559 10.953h-11.518z"/><path d="M343.79 671.692l3.559 10.955-9.317 6.771-9.318-6.771 3.558-10.955h11.518z"/><path d="M373.942 671.692l3.559 10.955-9.316 6.771-9.319-6.771 3.559-10.955h11.517z"/><path d="M383.259 643.012l3.558 10.955-9.316 6.772-9.318-6.772 3.558-10.955h11.518z"/><path d="M334.472 643.012l3.558 10.955-9.316 6.772-9.318-6.772 3.558-10.955h11.518z"/><path d="M358.864 625.288l3.559 10.953-9.317 6.771-9.318-6.771 3.559-10.953h11.517z"/><path d="M362.425 671.692l-3.559-10.953 9.317-6.772 9.318 6.772-3.559 10.953h-11.517z"/><path d="M347.349 682.645l-3.559-10.953 9.316-6.772 9.319 6.772-3.559 10.953h-11.517z"/><path d="M277.73 653.967l-3.556-10.955 9.311-6.771 9.319 6.771-3.559 10.955H277.73z"/><path d="M259.103 653.967l-3.559-10.955 9.313-6.771 9.317 6.771-3.559 10.955h-11.512z"/><path d="M253.345 671.692l-3.559-10.953 9.317-6.772 9.313 6.772-3.557 10.953h-11.514z"/><path d="M264.859 671.692l3.557 10.955-9.312 6.771-9.318-6.771 3.559-10.955h11.514z"/><path d="M295.005 671.692l3.558 10.955-9.316 6.771-9.316-6.771 3.556-10.955h11.518z"/><path d="M304.321 643.012l3.559 10.955-9.317 6.772-9.318-6.772 3.559-10.955h11.517z"/><path d="M255.544 643.012l3.559 10.955-9.317 6.772-9.319-6.772 3.558-10.955h11.519z"/><path d="M279.929 625.288l3.556 10.953-9.311 6.771-9.317-6.771 3.557-10.953h11.515z"/><path d="M283.487 671.692l-3.556-10.953 9.314-6.772 9.318 6.772-3.558 10.953h-11.518z"/><path d="M268.416 682.645l-3.557-10.953 9.315-6.772 9.313 6.772-3.556 10.953h-11.515z"/><path d="M198.799 653.967l-3.559-10.955 9.317-6.771 9.318 6.771-3.559 10.955h-11.517z"/><path d="M180.164 653.967l-3.559-10.955 9.317-6.771 9.318 6.771-3.558 10.955h-11.518z"/><path d="M174.406 671.692l-3.558-10.953 9.316-6.772 9.318 6.772-3.558 10.953h-11.518z"/><path d="M185.924 671.692l3.558 10.955-9.316 6.771-9.318-6.771 3.558-10.955h11.518z"/><path d="M216.076 671.692l3.559 10.955-9.317 6.771-9.318-6.771 3.559-10.955h11.517z"/><path d="M225.393 643.012l3.558 10.955-9.316 6.772-9.319-6.772 3.559-10.955h11.518z"/><path d="M176.605 643.012l3.559 10.955-9.316 6.772-9.319-6.772 3.559-10.955h11.517z"/><path d="M200.998 625.288l3.559 10.953-9.317 6.771-9.318-6.771 3.558-10.953h11.518z"/><path d="M204.559 671.692L201 660.739l9.316-6.772 9.319 6.772-3.559 10.953h-11.517z"/><path d="M189.482 682.645l-3.558-10.953 9.316-6.772 9.319 6.772L201 682.645h-11.518z"/><path d="M134.936 607.561l-3.559-10.953 9.316-6.772 9.319 6.772-3.559 10.953h-11.517z"/><path d="M116.301 607.561l-3.559-10.953 9.317-6.772 9.318 6.772-3.559 10.953h-11.517z"/><path d="M110.543 625.288l-3.559-10.955 9.317-6.772 9.318 6.772-3.558 10.955h-11.518z"/><path d="M86.148 607.561l-3.558-10.953 9.316-6.772 9.319 6.772-3.559 10.953H86.148z"/><path d="M22.285 561.157l-3.558-10.955 9.316-6.772 9.318 6.772-3.558 10.955H22.285z"/><path d="M61.746 139.324l-3.558-10.954 9.316-6.771 9.318 6.771-3.558 10.954H61.746z"/><path d="M125.602 92.921l-3.559-10.954 9.316-6.772 9.319 6.772-3.559 10.954h-11.517z"/><path d="M189.457 46.518l-3.559-10.955 9.317-6.771 9.318 6.771-3.558 10.955h-11.518z"/><path d="M268.406 46.514l-3.558-10.954 9.316-6.772 9.314 6.772-3.557 10.954h-11.515z"/><path d="M347.351 46.51l-3.56-10.954 9.317-6.772 9.319 6.772-3.559 10.954h-11.517z"/><path d="M411.218 92.919l-3.561-10.954 9.319-6.772 9.318 6.772-3.559 10.954h-11.517z"/><path d="M475.083 139.324l-3.561-10.954 9.319-6.771 9.318 6.771-3.558 10.954h-11.518z"/><path d="M514.546 561.157l-3.561-10.955 9.319-6.772 9.318 6.772-3.559 10.955h-11.517z"/><path d="M450.683 607.561l-3.561-10.953 9.318-6.772 9.319 6.772-3.559 10.953h-11.517z"/><path d="M386.819 653.967l-3.56-10.955 9.318-6.771 9.319 6.771-3.559 10.955h-11.518z"/><path d="M228.953 653.967l-3.56-10.955 9.318-6.771 9.318 6.771-3.558 10.955h-11.518z"/><path d="M307.882 653.967l-3.561-10.955 9.319-6.771 9.318 6.771-3.559 10.955h-11.517z"/><path d="M150.016 653.967l-3.561-10.955 9.318-6.771 9.319 6.771-3.559 10.955h-11.517z"/><path d="M122.061 625.288l3.558 10.953-9.316 6.771-9.319-6.771 3.559-10.953h11.518z"/><path d="M152.213 625.288l3.558 10.953-9.316 6.771-9.318-6.771 3.558-10.953h11.518z"/><path d="M161.529 596.608l3.559 10.953-9.317 6.772-9.318-6.772 3.559-10.953h11.517z"/><path d="M112.742 596.608l3.559 10.953-9.317 6.772-9.318-6.772 3.559-10.953h11.517z"/><path d="M137.135 578.881l3.558 10.955-9.316 6.772-9.318-6.772 3.558-10.955h11.518z"/><path d="M140.695 625.288l-3.558-10.955 9.316-6.772 9.318 6.772-3.558 10.955h-11.518z"/><path d="M125.619 636.241l-3.558-10.953 9.316-6.772 9.318 6.772-3.558 10.953h-11.518z"/><path d="M176.596 214.409l3.558-10.954-9.316-6.771-9.318 6.771 3.558 10.954h11.518z"/><path d="M200.998 439.667l3.559-10.956-9.317-6.771-9.318 6.771 3.558 10.956h11.518z"/><path d="M152.211 439.667l3.559-10.956-9.317-6.771-9.318 6.771 3.558 10.956h11.518z"/><path d="M176.604 457.391l3.558-10.953-9.316-6.771-9.319 6.771 3.559 10.953h11.518z"/><path d="M180.164 410.987l-3.559 10.953 9.317 6.771 9.318-6.771-3.558-10.953h-11.518z"/><path d="M165.088 400.034l-3.559 10.953 9.317 6.771 9.318-6.771-3.559-10.953h-11.517z"/><path d="M134.934 550.202l-3.559 10.955 9.316 6.771 9.319-6.771-3.559-10.955h-11.517z"/><path d="M116.299 550.202l-3.559 10.955 9.317 6.771 9.318-6.771-3.559-10.955h-11.517z"/><path d="M110.541 532.477l-3.559 10.953 9.317 6.772 9.318-6.772-3.558-10.953h-11.518z"/><path d="M122.059 532.477l3.558-10.955-9.316-6.772-9.319 6.772 3.559 10.955h11.518z"/><path d="M152.211 532.477l3.559-10.955-9.317-6.772-9.318 6.772 3.558 10.955h11.518z"/><path d="M161.527 561.157l3.559-10.955-9.316-6.772-9.319 6.772 3.559 10.955h11.517z"/><path d="M112.74 561.157l3.559-10.955-9.317-6.772-9.318 6.772 3.559 10.955h11.517z"/><path d="M137.133 578.881l3.558-10.953-9.316-6.771-9.318 6.771 3.558 10.953h11.518z"/><path d="M140.693 532.477l-3.558 10.953 9.316 6.772 9.319-6.772-3.559-10.953h-11.518z"/><path d="M165.086 550.202l-3.559 10.955 9.317 6.771 9.318-6.771-3.558-10.955h-11.518z"/><path d="M228.951 596.608l-3.558 10.953 9.316 6.772 9.318-6.772-3.558-10.953h-11.518z"/><path d="M307.88 596.608l-3.559 10.953 9.317 6.772 9.318-6.772-3.559-10.953H307.88z"/><path d="M371.741 550.202l-3.558 10.955 9.316 6.771 9.318-6.771-3.558-10.955h-11.518z"/><path d="M435.603 503.797l-3.559 10.953 9.316 6.772 9.319-6.772-3.559-10.953h-11.517z"/><path d="M499.464 457.391l-3.559 10.955 9.317 6.772 9.318-6.772-3.559-10.955h-11.517z"/><path d="M523.864 382.307l-3.558 10.953 9.316 6.772 9.318-6.772-3.558-10.953h-11.518z"/><path d="M499.472 307.22l-3.559 10.954 9.316 6.771 9.319-6.771-3.559-10.954h-11.517z"/><path d="M475.079 232.133l-3.558 10.954 9.316 6.771 9.318-6.771-3.558-10.954h-11.518z"/><path d="M450.687 157.046L447.128 168l9.316 6.771 9.319-6.771-3.559-10.954h-11.517z"/><path d="M386.823 110.645l-3.558 10.954 9.316 6.771 9.318-6.771-3.558-10.954h-11.518z"/><path d="M307.882 110.645l-3.559 10.954 9.317 6.771 9.318-6.771-3.559-10.954h-11.517z"/><path d="M228.945 110.645l-3.558 10.954 9.316 6.771 9.318-6.771-3.558-10.954h-11.518z"/><path d="M150.004 110.645l-3.559 10.954 9.317 6.771 9.318-6.771-3.559-10.954h-11.517z"/><path d="M86.141 157.05l-3.559 10.954 9.316 6.771 9.319-6.771-3.559-10.954H86.141z"/><path d="M61.75 232.135l-3.559 10.954 9.317 6.771 9.318-6.771-3.558-10.954H61.75z"/><path d="M37.359 307.22l-3.558 10.954 9.316 6.771 9.319-6.771-3.559-10.954H37.359z"/><path d="M12.969 382.305L9.41 393.258l9.317 6.772 9.318-6.772-3.559-10.953H12.969z"/><path d="M37.357 457.391l-3.558 10.955 9.316 6.772 9.319-6.772-3.559-10.955H37.357z"/><path d="M101.225 503.797l-3.559 10.953 9.316 6.772 9.319-6.772-3.559-10.953h-11.517z"/><path d="M125.617 521.524l-3.558 10.953 9.316 6.772 9.318-6.772-3.558-10.953h-11.518z"/><path d="M31.602 625.288l-3.559 10.953 9.316 6.771 9.319-6.771-3.559-10.953H31.602z"/><path d="M12.967 625.288l-3.559 10.953 9.317 6.771 9.318-6.771-3.559-10.953H12.967z"/><path d="M7.209 607.561L3.65 618.516l9.317 6.772 9.318-6.772-3.558-10.955H7.209z"/><path d="M18.727 607.561l3.558-10.953-9.316-6.772-9.319 6.772 3.559 10.953h11.518z"/><path d="M48.879 607.561l3.559-10.953-9.317-6.772-9.318 6.772 3.558 10.953h11.518z"/><path d="M58.195 636.241l3.559-10.953-9.316-6.772-9.319 6.772 3.559 10.953h11.517z"/><path d="M33.801 653.967l3.558-10.955-9.316-6.771-9.318 6.771 3.558 10.955h11.518z"/><path d="M37.361 607.561l-3.558 10.955 9.316 6.772 9.319-6.772-3.559-10.955H37.361z"/><path d="M22.285 596.608l-3.558 10.953 9.316 6.772 9.318-6.772-3.558-10.953H22.285z"/><path d="M31.594 81.965l-3.559 10.954 9.317 6.771 9.318-6.771-3.559-10.954H31.594z"/><path d="M12.959 81.965L9.4 92.919l9.317 6.771 9.318-6.771-3.558-10.954H12.959z"/><path d="M7.201 64.239L3.643 75.193l9.316 6.772 9.318-6.772-3.558-10.954H7.201z"/><path d="M18.719 64.239l3.558-10.954-9.316-6.771-9.318 6.771 3.558 10.954h11.518z"/><path d="M48.871 64.239l3.559-10.954-9.317-6.771-9.318 6.771 3.559 10.954h11.517z"/><path d="M58.188 92.919l3.558-10.954-9.316-6.772-9.319 6.772 3.559 10.954h11.518z"/><path d="M33.793 110.645l3.559-10.955-9.317-6.771-9.318 6.771 3.558 10.955h11.518z"/><path d="M37.354 64.239l-3.559 10.954 9.316 6.772 9.319-6.772-3.559-10.954H37.354z"/><path d="M22.277 53.286l-3.558 10.953 9.316 6.772 9.319-6.772-3.559-10.953H22.277z"/><path d="M95.438 35.563l-3.559 10.955 9.316 6.771 9.319-6.771-3.559-10.955H95.438z"/><path d="M76.803 35.563l-3.559 10.955 9.317 6.771 9.318-6.771-3.559-10.955H76.803z"/><path d="M71.045 17.838l-3.559 10.954 9.317 6.771 9.318-6.771-3.559-10.954H71.045z"/><path d="M82.562 17.838l3.559-10.954L76.805.112l-9.319 6.772 3.559 10.954h11.517z"/><path d="M112.715 17.838l3.558-10.954-9.316-6.772-9.318 6.772 3.558 10.954h11.518z"/><path d="M122.031 46.518l3.559-10.955-9.317-6.771-9.318 6.771 3.559 10.955h11.517z"/><path d="M73.244 46.518l3.559-10.955-9.317-6.771-9.318 6.771 3.559 10.955h11.517z"/><path d="M97.637 64.243l3.558-10.954-9.316-6.771-9.318 6.771 3.558 10.954h11.518z"/><path d="M101.197 17.838l-3.558 10.954 9.316 6.771 9.318-6.771-3.558-10.954h-11.518z"/><path d="M86.121 6.885l-3.559 10.953 9.317 6.771 9.318-6.771-3.558-10.953H86.121z"/><path d="M161.48 17.842l3.559-10.954-9.316-6.772-9.319 6.772 3.559 10.954h11.517z"/><path d="M240.455 17.834l3.559-10.954-9.317-6.772-9.318 6.772 3.559 10.954h11.517z"/><path d="M319.425 17.826l3.558-10.954-9.316-6.771-9.318 6.771 3.558 10.954h11.518z"/><path d="M398.399 17.818l3.559-10.954-9.316-6.771-9.319 6.771 3.559 10.954h11.517z"/><path d="M460.001 35.56l-3.559 10.954 9.317 6.771 9.318-6.771-3.558-10.954h-11.518z"/><path d="M441.366 35.56l-3.558 10.954 9.316 6.771 9.318-6.771-3.558-10.954h-11.518z"/><path d="M435.608 17.834l-3.558 10.954 9.316 6.772 9.319-6.772-3.559-10.954h-11.518z"/><path d="M447.126 17.834l3.559-10.954-9.317-6.772-9.318 6.772 3.558 10.954h11.518z"/><path d="M477.278 17.834l3.559-10.954-9.316-6.772-9.319 6.772 3.559 10.954h11.517z"/><path d="M486.595 46.514l3.558-10.954-9.316-6.772-9.318 6.772 3.558 10.954h11.518z"/><path d="M437.808 46.514l3.558-10.954-9.316-6.772-9.319 6.772 3.559 10.954h11.518z"/><path d="M462.2 64.239l3.559-10.954-9.317-6.771-9.318 6.771 3.559 10.954H462.2z"/><path d="M465.761 17.834l-3.559 10.954 9.317 6.772 9.318-6.772-3.559-10.954h-11.517z"/><path d="M450.685 6.881l-3.559 10.953 9.316 6.771 9.319-6.771-3.559-10.953h-11.517z"/><path d="M523.802 81.98l-3.559 10.955 9.317 6.771 9.318-6.771-3.559-10.955h-11.517z"/><path d="M505.167 81.98l-3.559 10.955 9.317 6.771 9.318-6.771-3.558-10.955h-11.518z"/><path d="M499.409 64.255l-3.558 10.954 9.316 6.771 9.318-6.771-3.558-10.954h-11.518z"/><path d="M510.927 64.255l3.558-10.954-9.316-6.772-9.318 6.772 3.558 10.954h11.518z"/><path d="M541.079 64.255l3.559-10.954-9.317-6.772-9.318 6.772 3.559 10.954h11.517z"/><path d="M501.608 92.935l3.559-10.955-9.316-6.771-9.319 6.771 3.559 10.955h11.517z"/><path d="M526.001 110.66l3.559-10.954-9.317-6.771-9.318 6.771 3.558 10.954h11.518z"/><path d="M529.562 64.255l-3.559 10.954 9.316 6.771 9.319-6.771-3.559-10.954h-11.517z"/><path d="M514.485 53.302l-3.558 10.953 9.316 6.771 9.319-6.771-3.559-10.953h-11.518z"/><path d="M523.86 625.288l-3.558 10.953 9.316 6.771 9.319-6.771-3.559-10.953H523.86z"/><path d="M505.226 625.288l-3.559 10.953 9.316 6.771 9.319-6.771-3.559-10.953h-11.517z"/><path d="M499.468 607.561l-3.559 10.955 9.317 6.772 9.318-6.772-3.559-10.955h-11.517z"/><path d="M510.985 607.561l3.559-10.953-9.316-6.772-9.319 6.772 3.559 10.953h11.517z"/><path d="M541.138 607.561l3.558-10.953-9.316-6.772-9.318 6.772 3.558 10.953h11.518z"/><path d="M501.667 636.241l3.559-10.953-9.317-6.772-9.318 6.772 3.558 10.953h11.518z"/><path d="M526.06 653.967l3.558-10.955-9.316-6.771-9.319 6.771 3.559 10.955h11.518z"/><path d="M529.62 607.561l-3.558 10.955 9.316 6.772 9.318-6.772-3.558-10.955H529.62z"/><path d="M514.544 596.608l-3.559 10.953 9.317 6.772 9.318-6.772-3.558-10.953h-11.518z"/><path d="M459.999 671.692l-3.559 10.955 9.317 6.771 9.318-6.771-3.558-10.955h-11.518z"/><path d="M441.364 671.692l-3.558 10.955 9.316 6.771 9.318-6.771-3.558-10.955h-11.518z"/><path d="M435.606 653.967l-3.558 10.953 9.316 6.772 9.319-6.772-3.559-10.953h-11.518z"/><path d="M447.124 653.967l3.559-10.955-9.317-6.771-9.318 6.771 3.558 10.955h11.518z"/><path d="M477.276 653.967l3.559-10.955-9.316-6.771-9.319 6.771 3.559 10.955h11.517z"/><path d="M486.593 682.647l3.558-10.955-9.316-6.772-9.318 6.772 3.558 10.955h11.518z"/><path d="M437.806 682.647l3.558-10.955-9.316-6.772-9.319 6.772 3.559 10.955h11.518z"/><path d="M462.198 700.372l3.559-10.954-9.317-6.771-9.318 6.771 3.559 10.954h11.517z"/><path d="M465.759 653.967L462.2 664.92l9.317 6.772 9.318-6.772-3.559-10.953h-11.517z"/><path d="M450.683 643.014l-3.559 10.953 9.316 6.772 9.319-6.772-3.559-10.953h-11.517z"/><path d="M383.263 700.372l3.558-10.954-9.316-6.771-9.318 6.771 3.558 10.954h11.518z"/><path d="M413.415 700.372l3.559-10.954-9.317-6.771-9.318 6.771 3.558 10.954h11.518z"/><path d="M386.821 689.418l-3.558 10.954 9.316 6.771 9.318-6.771-3.558-10.954h-11.518z"/><path d="M304.321 700.372l3.559-10.954-9.317-6.771-9.318 6.771 3.559 10.954h11.517z"/><path d="M334.474 700.372l3.558-10.954-9.316-6.771-9.319 6.771 3.559 10.954h11.518z"/><path d="M307.88 689.418l-3.559 10.954 9.317 6.771 9.318-6.771-3.559-10.954H307.88z"/><path d="M225.385 700.372l3.558-10.954-9.316-6.771-9.318 6.771 3.558 10.954h11.518z"/><path d="M255.537 700.372l3.559-10.954-9.317-6.771-9.318 6.771 3.559 10.954h11.517z"/><path d="M228.943 689.418l-3.558 10.954 9.316 6.771 9.319-6.771-3.559-10.954h-11.518z"/><path d="M146.443 700.372l3.559-10.954-9.316-6.771-9.319 6.771 3.559 10.954h11.517z"/><path d="M176.596 700.372l3.558-10.954-9.316-6.771-9.318 6.771 3.558 10.954h11.518z"/><path d="M150.002 689.418l-3.559 10.954 9.317 6.771 9.318-6.771-3.558-10.954h-11.518z"/><path d="M95.467 671.692l-3.559 10.955 9.317 6.771 9.318-6.771-3.559-10.955H95.467z"/><path d="M76.832 671.692l-3.559 10.955 9.317 6.771 9.318-6.771-3.558-10.955H76.832z"/><path d="M71.074 653.967l-3.558 10.953 9.316 6.772 9.318-6.772-3.558-10.953H71.074z"/><path d="M82.592 653.967l3.558-10.955-9.316-6.771-9.318 6.771 3.558 10.955h11.518z"/><path d="M112.744 653.967l3.559-10.955-9.317-6.771-9.318 6.771 3.559 10.955h11.517z"/><path d="M31.604 682.647l-3.559-10.955 9.316-6.772 9.319 6.772-3.559 10.955H31.604z"/><path d="M12.969 682.647L9.41 671.692l9.317-6.772 9.318 6.772-3.559 10.955H12.969z"/><path d="M58.197 671.692l3.559 10.955-9.317 6.771-9.318-6.771 3.559-10.955h11.517z"/><path d="M33.803 653.967l3.558 10.953-9.316 6.772-9.318-6.772 3.558-10.953h11.518z"/><path d="M37.363 700.372l-3.558-10.954 9.316-6.771 9.318 6.771-3.558 10.954H37.363z"/><path d="M523.86 682.647l-3.558-10.955 9.316-6.772 9.319 6.772-3.559 10.955H523.86z"/><path d="M505.226 682.647l-3.559-10.955 9.316-6.772 9.319 6.772-3.559 10.955h-11.517z"/><path d="M499.468 700.372l-3.559-10.954 9.317-6.771 9.318 6.771-3.559 10.954h-11.517z"/><path d="M501.667 671.692l3.559 10.955-9.317 6.771-9.318-6.771 3.558-10.955h11.518z"/><path d="M526.06 653.967l3.558 10.953-9.316 6.772-9.319-6.772 3.559-10.953h11.518z"/><path d="M122.061 682.647l3.558-10.955-9.316-6.772-9.319 6.772 3.559 10.955h11.518z"/><path d="M73.273 682.647l3.559-10.955-9.316-6.772-9.319 6.772 3.559 10.955h11.517z"/><path d="M97.666 700.372l3.559-10.954-9.317-6.771-9.318 6.771 3.558 10.954h11.518z"/><path d="M101.227 653.967l-3.559 10.953 9.316 6.772 9.319-6.772-3.559-10.953h-11.517z"/><path d="M86.15 643.014l-3.558 10.953 9.316 6.772 9.319-6.772-3.559-10.953H86.15z"/><path d="M61.754 625.288l-3.559 10.953 9.317 6.771 9.318-6.771-3.559-10.953H61.754z"/><path d="M46.672 35.561l-3.559 10.953 9.317 6.771 9.318-6.771-3.559-10.953H46.672z"/><path d="M490.153 35.561l-3.558 10.953 9.316 6.771 9.318-6.771-3.558-10.953h-11.518z"/><path d="M475.069 625.29l-3.558 10.953 9.316 6.771 9.319-6.771-3.559-10.953h-11.518z"/><path d="M411.204 671.696l-3.558 10.953 9.316 6.771 9.318-6.771-3.558-10.953h-11.518z"/><path d="M125.609 671.694l-3.558 10.953 9.316 6.771 9.319-6.771-3.559-10.953h-11.518z"/><path d="M71.072 503.797l-3.558 10.953 9.316 6.772 9.318-6.772-3.558-10.953H71.072z"/><path d="M52.438 503.797l-3.559 10.953 9.316 6.772 9.319-6.772-3.559-10.953H52.438z"/><path d="M46.68 486.071l-3.559 10.955 9.317 6.771 9.318-6.771-3.559-10.955H46.68z"/><path d="M58.197 486.071l3.559-10.953-9.317-6.772-9.318 6.772 3.559 10.953h11.517z"/><path d="M88.35 486.071l3.558-10.953-9.316-6.772-9.319 6.772 3.559 10.953H88.35z"/><path d="M97.666 514.75l3.559-10.953-9.317-6.771-9.318 6.771 3.558 10.953h11.518z"/><path d="M48.879 514.75l3.559-10.953-9.317-6.771-9.318 6.771 3.558 10.953h11.518z"/><path d="M73.271 532.477l3.559-10.955-9.316-6.772-9.319 6.772 3.559 10.955h11.517z"/><path d="M76.832 486.071l-3.559 10.955 9.317 6.771 9.318-6.771-3.558-10.955H76.832z"/><path d="M61.756 475.118l-3.559 10.953 9.317 6.771 9.318-6.771-3.559-10.953H61.756z"/><path d="M46.676 428.711l-3.559 10.956 9.317 6.771 9.318-6.771-3.559-10.956H46.676z"/><path d="M28.041 428.711l-3.559 10.956 9.317 6.771 9.318-6.771-3.558-10.956H28.041z"/><path d="M22.283 410.987l-3.558 10.953 9.316 6.771 9.318-6.771-3.558-10.953H22.283z"/><path d="M33.801 410.987l3.558-10.955-9.316-6.772-9.318 6.772 3.558 10.955h11.518z"/><path d="M63.953 410.987l3.559-10.955-9.317-6.772-9.318 6.772 3.559 10.955h11.517z"/><path d="M73.27 439.667l3.558-10.956-9.316-6.771-9.319 6.771 3.559 10.956H73.27z"/><path d="M24.482 439.667l3.559-10.956-9.316-6.771-9.319 6.771 3.559 10.956h11.517z"/><path d="M48.875 457.391l3.559-10.953-9.317-6.771-9.318 6.771 3.558 10.953h11.518z"/><path d="M52.436 410.987l-3.559 10.953 9.316 6.771 9.319-6.771-3.559-10.953H52.436z"/><path d="M37.359 400.034l-3.558 10.953 9.316 6.771 9.319-6.771-3.559-10.953H37.359z"/><path d="M22.281 353.626l-3.558 10.955 9.316 6.771 9.318-6.771-3.558-10.955H22.281z"/><path d="M3.646 353.626L.088 364.581l9.316 6.771 9.319-6.771-3.559-10.955H3.646z"/><path d="M39.559 335.9l3.558-10.954-9.316-6.772-9.319 6.772 3.559 10.954h11.518z"/><path d="M48.875 364.581l3.559-10.955-9.317-6.771-9.318 6.771 3.558 10.955h11.518z"/><path d="M24.48 382.307l3.559-10.955-9.316-6.771-9.319 6.771 3.559 10.955H24.48z"/><path d="M28.041 335.9l-3.559 10.955 9.317 6.771 9.318-6.771-3.558-10.955H28.041z"/><path d="M12.965 324.947L9.406 335.9l9.317 6.772 9.318-6.772-3.559-10.953H12.965z"/><path d="M46.672 278.54l-3.559 10.954 9.317 6.772 9.318-6.772-3.559-10.954H46.672z"/><path d="M28.037 278.54l-3.558 10.954 9.316 6.772 9.318-6.772-3.558-10.954H28.037z"/><path d="M22.279 260.814l-3.558 10.955 9.316 6.771 9.318-6.771-3.558-10.955H22.279z"/><path d="M33.797 260.814l3.558-10.954-9.316-6.771-9.318 6.771 3.558 10.954h11.518z"/><path d="M63.949 260.814l3.559-10.954-9.317-6.771-9.318 6.771 3.559 10.954h11.517z"/><path d="M73.266 289.494l3.558-10.954-9.316-6.771-9.319 6.771 3.559 10.954h11.518z"/><path d="M24.479 289.494l3.558-10.954-9.316-6.771-9.319 6.771 3.559 10.954h11.518z"/><path d="M48.871 307.22l3.559-10.954-9.317-6.772-9.318 6.772 3.559 10.954h11.517z"/><path d="M52.432 260.814l-3.559 10.955 9.316 6.771 9.319-6.771-3.559-10.955H52.432z"/><path d="M37.355 249.861l-3.558 10.953 9.316 6.772 9.319-6.772-3.559-10.953H37.355z"/><path d="M71.062 203.455l-3.558 10.954 9.316 6.772 9.319-6.772-3.559-10.954H71.062z"/><path d="M52.428 203.455l-3.559 10.954 9.317 6.772 9.318-6.772-3.559-10.954H52.428z"/><path d="M46.67 185.729l-3.559 10.955 9.317 6.771 9.318-6.771-3.558-10.955H46.67z"/><path d="M58.188 185.729l3.558-10.954-9.316-6.771-9.319 6.771 3.559 10.954h11.518z"/><path d="M88.34 185.729l3.558-10.954-9.316-6.771-9.318 6.771 3.558 10.954H88.34z"/><path d="M97.656 214.409l3.559-10.954-9.317-6.771-9.318 6.771 3.559 10.954h11.517z"/><path d="M48.869 214.409l3.559-10.954-9.317-6.771-9.318 6.771 3.559 10.954h11.517z"/><path d="M73.262 232.135l3.558-10.954-9.316-6.772-9.318 6.772 3.558 10.954h11.518z"/><path d="M76.822 185.729l-3.558 10.955 9.316 6.771 9.318-6.771-3.558-10.955H76.822z"/><path d="M61.746 174.776l-3.558 10.953 9.316 6.772 9.318-6.772-3.558-10.953H61.746z"/><path d="M134.924 157.05l-3.559 10.954 9.317 6.771 9.318-6.771-3.559-10.954h-11.517z"/><path d="M116.289 157.05l-3.559 10.954 9.317 6.771 9.318-6.771-3.558-10.954h-11.518z"/><path d="M110.531 139.324l-3.558 10.954 9.316 6.772 9.318-6.772-3.558-10.954h-11.518z"/><path d="M122.049 139.324l3.558-10.954-9.316-6.771-9.318 6.771 3.558 10.954h11.518z"/><path d="M152.201 139.324l3.559-10.954-9.317-6.771-9.318 6.771 3.559 10.954h11.517z"/><path d="M161.518 168.004l3.558-10.954-9.316-6.772-9.319 6.772L150 168.004h11.518z"/><path d="M112.73 168.004l3.559-10.954-9.316-6.772-9.319 6.772 3.559 10.954h11.517z"/><path d="M137.123 185.729l3.559-10.954-9.317-6.771-9.318 6.771 3.558 10.954h11.518z"/><path d="M140.684 139.324l-3.559 10.954 9.316 6.772 9.319-6.772-3.559-10.954h-11.517z"/><path d="M125.607 128.371l-3.558 10.953 9.316 6.772 9.319-6.772-3.559-10.953h-11.518z"/><path d="M198.787 110.645l-3.558 10.954 9.316 6.771 9.318-6.771-3.558-10.954h-11.518z"/><path d="M180.152 110.645l-3.558 10.954 9.316 6.771 9.319-6.771-3.559-10.954h-11.518z"/><path d="M174.395 92.919l-3.559 10.954 9.316 6.772 9.319-6.772-3.559-10.954h-11.517z"/><path d="M185.912 92.919l3.559-10.954-9.317-6.772-9.318 6.772 3.559 10.954h11.517z"/><path d="M216.064 92.919l3.559-10.954-9.316-6.772-9.319 6.772 3.559 10.954h11.517z"/><path d="M225.381 121.599l3.558-10.954-9.316-6.772-9.318 6.772 3.558 10.954h11.518z"/><path d="M176.594 121.599l3.558-10.954-9.316-6.772-9.318 6.772 3.558 10.954h11.518z"/><path d="M200.986 139.324l3.559-10.954-9.316-6.771-9.319 6.771 3.559 10.954h11.517z"/><path d="M204.547 92.919l-3.559 10.954 9.317 6.772 9.318-6.772-3.559-10.954h-11.517z"/><path d="M189.471 81.966l-3.559 10.953 9.317 6.771 9.318-6.771-3.559-10.953h-11.517z"/><path d="M277.732 110.645l-3.556 10.954 9.311 6.771 9.319-6.771-3.559-10.954h-11.515z"/><path d="M259.104 110.645l-3.558 10.954 9.313 6.771 9.317-6.771-3.559-10.954h-11.513z"/><path d="M253.347 92.919l-3.559 10.954 9.316 6.772 9.314-6.772-3.557-10.954h-11.514z"/><path d="M264.861 92.919l3.557-10.954-9.312-6.772-9.318 6.772 3.559 10.954h11.514z"/><path d="M295.007 92.919l3.558-10.954-9.316-6.772-9.316 6.772 3.556 10.954h11.518z"/><path d="M304.323 121.599l3.559-10.954-9.317-6.772-9.318 6.772 3.559 10.954h11.517z"/><path d="M255.546 121.599l3.558-10.954-9.316-6.772-9.319 6.772 3.558 10.954h11.519z"/><path d="M279.931 139.324l3.556-10.954-9.311-6.771-9.317 6.771 3.557 10.954h11.515z"/><path d="M283.489 92.919l-3.556 10.954 9.314 6.772 9.318-6.772-3.558-10.954h-11.518z"/><path d="M268.418 81.966l-3.557 10.953 9.315 6.771 9.313-6.771-3.556-10.953h-11.515z"/><path d="M356.669 110.645l-3.559 10.954 9.317 6.771 9.318-6.771-3.558-10.954h-11.518z"/><path d="M338.034 110.645l-3.558 10.954 9.316 6.771 9.318-6.771-3.558-10.954h-11.518z"/><path d="M332.276 92.919l-3.558 10.954 9.316 6.772 9.319-6.772-3.559-10.954h-11.518z"/><path d="M343.794 92.919l3.559-10.954-9.317-6.772-9.318 6.772 3.558 10.954h11.518z"/><path d="M373.946 92.919l3.559-10.954-9.317-6.772-9.318 6.772 3.559 10.954h11.517z"/><path d="M383.263 121.599l3.558-10.954-9.316-6.772-9.318 6.772 3.558 10.954h11.518z"/><path d="M334.476 121.599l3.558-10.954-9.316-6.772-9.319 6.772 3.559 10.954h11.518z"/><path d="M358.868 139.324l3.559-10.954-9.317-6.771-9.318 6.771 3.559 10.954h11.517z"/><path d="M362.429 92.919l-3.559 10.954 9.317 6.772 9.318-6.772-3.559-10.954h-11.517z"/><path d="M347.353 81.966l-3.559 10.953 9.316 6.771 9.319-6.771-3.559-10.953h-11.517z"/><path d="M420.532 157.05l-3.558 10.954 9.316 6.771 9.318-6.771-3.558-10.954h-11.518z"/><path d="M401.897 157.05l-3.558 10.954 9.316 6.771 9.319-6.771-3.559-10.954h-11.518z"/><path d="M396.14 139.324l-3.559 10.954 9.316 6.772 9.319-6.772-3.559-10.954H396.14z"/><path d="M407.657 139.324l3.559-10.954-9.317-6.771-9.318 6.771 3.559 10.954h11.517z"/><path d="M437.81 139.324l3.558-10.954-9.316-6.771-9.319 6.771 3.559 10.954h11.518z"/><path d="M447.126 168.004l3.559-10.954-9.317-6.772-9.318 6.772 3.558 10.954h11.518z"/><path d="M398.339 168.004l3.558-10.954-9.316-6.772-9.318 6.772 3.558 10.954h11.518z"/><path d="M422.731 185.729l3.559-10.954-9.316-6.771-9.319 6.771 3.559 10.954h11.517z"/><path d="M426.292 139.324l-3.559 10.954 9.317 6.772 9.318-6.772-3.558-10.954h-11.518z"/><path d="M411.216 128.371l-3.559 10.953 9.317 6.772 9.318-6.772-3.559-10.953h-11.517z"/><path d="M484.396 203.455l-3.559 10.954 9.316 6.772 9.319-6.772-3.559-10.954h-11.517z"/><path d="M465.761 203.455l-3.559 10.954 9.317 6.772 9.318-6.772-3.559-10.954h-11.517z"/><path d="M460.003 185.729l-3.559 10.955 9.317 6.771 9.318-6.771-3.558-10.955h-11.518z"/><path d="M471.521 185.729l3.558-10.954-9.316-6.771-9.319 6.771 3.559 10.954h11.518z"/><path d="M501.673 185.729l3.558-10.954-9.316-6.771-9.318 6.771 3.558 10.954h11.518z"/><path d="M510.989 214.409l3.559-10.954-9.317-6.771-9.318 6.771 3.559 10.954h11.517z"/><path d="M462.202 214.409l3.559-10.954-9.317-6.771-9.318 6.771 3.559 10.954h11.517z"/><path d="M486.595 232.135l3.558-10.954-9.316-6.772-9.318 6.772 3.558 10.954h11.518z"/><path d="M490.155 185.729l-3.558 10.955 9.316 6.771 9.318-6.771-3.558-10.955h-11.518z"/><path d="M475.079 174.776l-3.558 10.953 9.316 6.772 9.318-6.772-3.558-10.953h-11.518z"/><path d="M508.788 278.54l-3.559 10.954 9.317 6.772 9.318-6.772-3.558-10.954h-11.518z"/><path d="M490.153 278.54l-3.558 10.954 9.316 6.772 9.318-6.772-3.558-10.954h-11.518z"/><path d="M484.396 260.814l-3.559 10.955 9.316 6.771 9.319-6.771-3.559-10.955h-11.517z"/><path d="M495.913 260.814l3.559-10.954-9.317-6.771-9.318 6.771 3.559 10.954h11.517z"/><path d="M526.065 260.814l3.559-10.954-9.316-6.771-9.319 6.771 3.559 10.954h11.517z"/><path d="M535.382 289.494l3.558-10.954-9.316-6.771-9.318 6.771 3.558 10.954h11.518z"/><path d="M486.595 289.494l3.558-10.954-9.316-6.771-9.318 6.771 3.558 10.954h11.518z"/><path d="M510.987 307.22l3.559-10.954-9.317-6.772-9.318 6.772 3.559 10.954h11.517z"/><path d="M514.548 260.814l-3.559 10.955 9.317 6.771 9.318-6.771-3.559-10.955h-11.517z"/><path d="M499.472 249.861l-3.559 10.953 9.316 6.772 9.319-6.772-3.559-10.953h-11.517z"/><path d="M533.181 353.626l-3.559 10.955 9.316 6.771 9.319-6.771-3.559-10.955h-11.517z"/><path d="M514.546 353.626l-3.559 10.955 9.317 6.771 9.318-6.771-3.559-10.955h-11.517z"/><path d="M508.788 335.9l-3.559 10.955 9.317 6.771 9.318-6.771-3.558-10.955h-11.518z"/><path d="M520.306 335.9l3.558-10.954-9.316-6.772-9.319 6.772 3.559 10.954h11.518z"/><path d="M510.987 364.581l3.559-10.955-9.317-6.771-9.318 6.771 3.559 10.955h11.517z"/><path d="M535.38 382.307l3.558-10.955-9.316-6.771-9.318 6.771 3.558 10.955h11.518z"/><path d="M523.864 324.947l-3.558 10.953 9.316 6.772 9.318-6.772-3.558-10.953h-11.518z"/><path d="M508.786 428.711l-3.558 10.956 9.316 6.771 9.318-6.771-3.558-10.956h-11.518z"/><path d="M490.151 428.711l-3.558 10.956 9.316 6.771 9.319-6.771-3.559-10.956h-11.518z"/><path d="M484.394 410.987l-3.559 10.953 9.316 6.771 9.319-6.771-3.559-10.953h-11.517z"/><path d="M495.911 410.987l3.559-10.955-9.317-6.772-9.318 6.772 3.559 10.955h11.517z"/><path d="M526.063 410.987l3.559-10.955-9.316-6.772-9.319 6.772 3.559 10.955h11.517z"/><path d="M535.38 439.667l3.558-10.956-9.316-6.771-9.318 6.771 3.558 10.956h11.518z"/><path d="M486.593 439.667l3.558-10.956-9.316-6.771-9.318 6.771 3.558 10.956h11.518z"/><path d="M510.985 457.391l3.559-10.953-9.316-6.771-9.319 6.771 3.559 10.953h11.517z"/><path d="M514.546 410.987l-3.559 10.953 9.317 6.771 9.318-6.771-3.559-10.953h-11.517z"/><path d="M499.47 400.034l-3.559 10.953 9.317 6.771 9.318-6.771-3.559-10.953H499.47z"/><path d="M484.392 503.797l-3.559 10.953 9.316 6.772 9.319-6.772-3.559-10.953h-11.517z"/><path d="M465.757 503.797l-3.559 10.953 9.317 6.772 9.318-6.772-3.559-10.953h-11.517z"/><path d="M459.999 486.071l-3.559 10.955 9.317 6.771 9.318-6.771-3.558-10.955h-11.518z"/><path d="M471.517 486.071l3.558-10.953-9.316-6.772-9.319 6.772 3.559 10.953h11.518z"/><path d="M501.669 486.071l3.559-10.953-9.317-6.772-9.318 6.772 3.558 10.953h11.518z"/><path d="M510.985 514.75l3.559-10.953-9.316-6.771-9.319 6.771 3.559 10.953h11.517z"/><path d="M462.198 514.75l3.559-10.953-9.317-6.771-9.318 6.771 3.559 10.953h11.517z"/><path d="M486.591 532.477l3.558-10.955-9.316-6.772-9.318 6.772 3.558 10.955h11.518z"/><path d="M490.151 486.071l-3.558 10.955 9.316 6.771 9.319-6.771-3.559-10.955h-11.518z"/><path d="M475.075 475.118l-3.558 10.953 9.316 6.771 9.318-6.771-3.558-10.953h-11.518z"/><path d="M420.528 550.202l-3.558 10.955 9.316 6.771 9.318-6.771-3.558-10.955h-11.518z"/><path d="M401.894 550.202l-3.559 10.955 9.316 6.771 9.319-6.771-3.559-10.955h-11.517z"/><path d="M396.136 532.477l-3.559 10.953 9.317 6.772 9.318-6.772-3.559-10.953h-11.517z"/><path d="M407.653 532.477l3.559-10.955-9.316-6.772-9.319 6.772 3.559 10.955h11.517z"/><path d="M437.806 532.477l3.558-10.955-9.316-6.772-9.319 6.772 3.559 10.955h11.518z"/><path d="M447.122 561.157l3.559-10.955-9.317-6.772-9.318 6.772 3.558 10.955h11.518z"/><path d="M398.335 561.157l3.559-10.955-9.317-6.772-9.318 6.772 3.558 10.955h11.518z"/><path d="M422.728 578.881l3.558-10.953-9.316-6.771-9.319 6.771 3.559 10.953h11.518z"/><path d="M426.288 532.477l-3.559 10.953 9.317 6.772 9.318-6.772-3.558-10.953h-11.518z"/><path d="M411.212 521.524l-3.559 10.953 9.317 6.772 9.318-6.772-3.559-10.953h-11.517z"/><path d="M356.665 596.608l-3.559 10.953 9.317 6.772 9.318-6.772-3.558-10.953h-11.518z"/><path d="M338.03 596.608l-3.558 10.953 9.316 6.772 9.318-6.772-3.558-10.953H338.03z"/><path d="M332.272 578.881l-3.558 10.955 9.316 6.772 9.319-6.772-3.559-10.955h-11.518z"/><path d="M343.79 578.881l3.559-10.953-9.317-6.771-9.318 6.771 3.558 10.953h11.518z"/><path d="M373.942 578.881l3.559-10.953-9.316-6.771-9.319 6.771 3.559 10.953h11.517z"/><path d="M383.259 607.561l3.558-10.953-9.316-6.772-9.318 6.772 3.558 10.953h11.518z"/><path d="M334.472 607.561l3.558-10.953-9.316-6.772-9.318 6.772 3.558 10.953h11.518z"/><path d="M358.864 625.288l3.559-10.955-9.317-6.772-9.318 6.772 3.559 10.955h11.517z"/><path d="M362.425 578.881l-3.559 10.955 9.317 6.772 9.318-6.772-3.559-10.955h-11.517z"/><path d="M347.349 567.928l-3.559 10.953 9.316 6.772 9.319-6.772-3.559-10.953h-11.517z"/><path d="M277.73 596.608l-3.556 10.953 9.311 6.772 9.319-6.772-3.559-10.953H277.73z"/><path d="M259.103 596.608l-3.559 10.953 9.313 6.772 9.317-6.772-3.559-10.953h-11.512z"/><path d="M253.345 578.881l-3.559 10.955 9.317 6.772 9.313-6.772-3.557-10.955h-11.514z"/><path d="M264.859 578.881l3.557-10.953-9.312-6.771-9.318 6.771 3.559 10.953h11.514z"/><path d="M295.005 578.881l3.558-10.953-9.316-6.771-9.316 6.771 3.556 10.953h11.518z"/><path d="M304.321 607.561l3.559-10.953-9.317-6.772-9.318 6.772 3.559 10.953h11.517z"/><path d="M255.544 607.561l3.559-10.953-9.317-6.772-9.319 6.772 3.558 10.953h11.519z"/><path d="M279.929 625.288l3.556-10.955-9.311-6.772-9.317 6.772 3.557 10.955h11.515z"/><path d="M283.487 578.881l-3.556 10.955 9.314 6.772 9.318-6.772-3.558-10.955h-11.518z"/><path d="M268.416 567.928l-3.557 10.953 9.315 6.772 9.313-6.772-3.556-10.953h-11.515z"/><path d="M198.799 596.608l-3.559 10.953 9.317 6.772 9.318-6.772-3.559-10.953h-11.517z"/><path d="M180.164 596.608l-3.559 10.953 9.317 6.772 9.318-6.772-3.558-10.953h-11.518z"/><path d="M174.406 578.881l-3.558 10.955 9.316 6.772 9.318-6.772-3.558-10.955h-11.518z"/><path d="M185.924 578.881l3.558-10.953-9.316-6.771-9.318 6.771 3.558 10.953h11.518z"/><path d="M216.076 578.881l3.559-10.953-9.317-6.771-9.318 6.771 3.559 10.953h11.517z"/><path d="M225.393 607.561l3.558-10.953-9.316-6.772-9.319 6.772 3.559 10.953h11.518z"/><path d="M176.605 607.561l3.559-10.953-9.316-6.772-9.319 6.772 3.559 10.953h11.517z"/><path d="M200.998 625.288l3.559-10.955-9.317-6.772-9.318 6.772 3.558 10.955h11.518z"/><path d="M204.559 578.881L201 589.836l9.316 6.772 9.319-6.772-3.559-10.955h-11.517z"/><path d="M189.482 567.928l-3.558 10.953 9.316 6.772 9.319-6.772L201 567.928h-11.518z"/><path d="M150.01 353.626l-3.559 10.955 9.317 6.771 9.318-6.771-3.559-10.955H150.01z"/><path d="M131.375 353.626l-3.559 10.955 9.317 6.771 9.318-6.771-3.558-10.955h-11.518z"/><path d="M125.617 335.9l-3.558 10.955 9.316 6.771 9.318-6.771-3.558-10.955h-11.518z"/><path d="M137.135 335.9l3.558-10.954-9.316-6.772-9.318 6.772 3.558 10.954h11.518z"/><path d="M167.287 335.9l3.559-10.954-9.317-6.772-9.318 6.772 3.559 10.954h11.517z"/><path d="M176.604 364.581l3.558-10.955-9.316-6.771-9.319 6.771 3.559 10.955h11.518z"/><path d="M127.816 364.581l3.559-10.955-9.316-6.771-9.319 6.771 3.559 10.955h11.517z"/><path d="M152.209 382.307l3.559-10.955-9.317-6.771-9.318 6.771 3.558 10.955h11.518z"/><path d="M155.77 335.9l-3.559 10.955 9.316 6.771 9.319-6.771-3.559-10.955H155.77z"/><path d="M140.693 324.947l-3.558 10.953 9.316 6.772 9.319-6.772-3.559-10.953h-11.518z"/><path d="M174.404 278.54l-3.558 10.954 9.316 6.772 9.318-6.772-3.558-10.954h-11.518z"/><path d="M155.77 278.54l-3.559 10.954 9.316 6.772 9.319-6.772-3.559-10.954H155.77z"/><path d="M150.012 260.814l-3.559 10.955 9.317 6.771 9.318-6.771-3.559-10.955h-11.517z"/><path d="M189.482 232.135l-3.558 10.954 9.316 6.771 9.319-6.771L201 232.135h-11.518z"/><path d="M347.351 232.135l-3.559 10.954 9.316 6.771 9.319-6.771-3.559-10.954h-11.517z"/><path d="M371.743 307.22l-3.558 10.954 9.316 6.772 9.318-6.772-3.558-10.954h-11.518z"/><path d="M396.136 382.307l-3.559 10.953 9.317 6.772 9.318-6.772-3.559-10.953h-11.517z"/><path d="M332.272 428.711l-3.558 10.956 9.316 6.771 9.319-6.771-3.559-10.956h-11.518z"/><path d="M268.414 475.118l-3.557 10.953 9.315 6.771 9.313-6.771-3.556-10.953h-11.515z"/><path d="M204.557 428.711l-3.559 10.956 9.316 6.771 9.319-6.771-3.559-10.956h-11.517z"/><path d="M140.691 382.307l-3.558 10.953 9.316 6.772 9.319-6.772-3.559-10.953h-11.518z"/><path d="M165.086 307.22l-3.559 10.954 9.317 6.772 9.318-6.772-3.558-10.954h-11.518z"/><path d="M161.529 260.814l3.559-10.954-9.317-6.771-9.318 6.771 3.559 10.954h11.517z"/><path d="M191.682 260.814l3.558-10.954-9.316-6.771-9.319 6.771 3.559 10.954h11.518z"/><path d="M200.998 289.494l3.559-10.954-9.317-6.771-9.318 6.771 3.558 10.954h11.518z"/><path d="M152.211 289.494l3.559-10.954-9.317-6.771-9.318 6.771 3.558 10.954h11.518z"/><path d="M176.604 307.22l3.558-10.954-9.316-6.772-9.319 6.772 3.559 10.954h11.518z"/><path d="M180.164 260.814l-3.559 10.955 9.317 6.771 9.318-6.771-3.558-10.955h-11.518z"/><path d="M165.088 249.861l-3.559 10.953 9.317 6.772 9.318-6.772-3.559-10.953h-11.517z"/></svg>