<svg baseProfile="tiny" xmlns="http://www.w3.org/2000/svg"><path d="M613.197 663.08l8.312 8.311-8.312 8.313-8.312-8.312 8.312-8.312z"/><path d="M621.563 671.394l8.312 8.312-8.312 8.312-8.312-8.312 8.312-8.312z"/><path d="M629.822 679.704l8.312 8.312-8.313 8.313-8.312-8.312 8.313-8.313z"/><path d="M638.188 688.02l8.312 8.312-8.31 8.31-8.312-8.311 8.31-8.311z"/><path d="M646.445 696.33l8.312 8.313-8.313 8.312-8.312-8.312 8.313-8.313z"/><path d="M654.815 704.646l8.311 8.312-8.312 8.312-8.312-8.312 8.313-8.312z"/><path d="M663.098 712.957l8.311 8.31-8.312 8.313-8.312-8.31 8.313-8.313z"/><path d="M671.439 721.272l8.311 8.312-8.31 8.31-8.312-8.311 8.311-8.311z"/><path d="M679.693 729.582l8.311 8.312-8.312 8.313-8.312-8.312 8.313-8.313z"/><path d="M688.065 737.897l8.312 8.312-8.313 8.313-8.312-8.312 8.313-8.313z"/><path d="M696.378 746.21l8.311 8.311-8.312 8.313-8.312-8.312 8.313-8.312z"/><path d="M704.689 754.524l8.312 8.311-8.31 8.311-8.313-8.312 8.311-8.31z"/><path d="M712.94 762.834l8.312 8.312-8.313 8.312-8.312-8.312 8.313-8.312z"/><path d="M721.315 771.149l8.312 8.312-8.313 8.312-8.311-8.312 8.312-8.312z"/><path d="M729.628 779.46l8.312 8.313-8.313 8.312-8.312-8.312 8.313-8.313z"/><path d="M737.876 787.773l8.312 8.312-8.31 8.31-8.313-8.311 8.311-8.311z"/><path d="M746.22 796.086l8.311 8.311-8.312 8.313-8.312-8.311 8.313-8.313z"/><path d="M754.566 804.4l8.312 8.312-8.313 8.313-8.312-8.312 8.313-8.313z"/><path d="M762.878 812.712l8.312 8.312-8.312 8.313-8.312-8.312 8.312-8.313z"/><path d="M771.124 821.024l8.312 8.312-8.311 8.311-8.312-8.312 8.311-8.311z"/><path d="M779.436 829.337l8.312 8.312-8.312 8.312-8.312-8.312 8.312-8.312z"/><path d="M787.816 837.651l8.312 8.312-8.313 8.313-8.312-8.312 8.313-8.313z"/><path d="M796.06 845.962l8.313 8.311-8.313 8.313-8.312-8.312 8.312-8.312z"/><path d="M804.44 854.278l8.313 8.312-8.31 8.31-8.313-8.311 8.31-8.311z"/><path d="M812.684 862.588l8.312 8.312-8.313 8.313-8.312-8.312 8.313-8.313z"/><path d="M821.067 870.903l8.312 8.312-8.312 8.313-8.312-8.312 8.312-8.313z"/><path d="M829.344 879.214l8.311 8.311-8.312 8.313-8.312-8.311 8.313-8.313z"/><path d="M837.691 887.53l8.312 8.312-8.31 8.31-8.312-8.312 8.31-8.31z"/><path d="M845.932 895.84l8.311 8.312-8.312 8.312-8.312-8.312 8.313-8.312z"/><path d="M854.318 904.155l8.312 8.312-8.313 8.312-8.312-8.312 8.313-8.312z"/><path d="M862.63 912.467l8.312 8.312-8.312 8.312-8.312-8.311 8.312-8.313z"/><path d="M870.942 920.781l8.312 8.312-8.311 8.31-8.312-8.311 8.311-8.311z"/><path d="M879.18 929.09l8.31 8.312-8.312 8.312-8.311-8.311 8.313-8.313z"/><path d="M887.53 937.405l8.312 8.312-8.313 8.313-8.312-8.313 8.313-8.312z"/><path d="M895.842 945.718l8.313 8.312-8.313 8.313-8.313-8.313 8.313-8.312z"/><path d="M904.232 954.034l8.312 8.312-8.311 8.312-8.312-8.312 8.311-8.312z"/><path d="M912.39 962.341l8.31 8.311-8.312 8.313-8.311-8.311 8.313-8.313z"/><path d="M920.858 970.659l8.312 8.312-8.313 8.313-8.312-8.312 8.313-8.313z"/><path d="M929.171 978.971l8.312 8.312-8.312 8.313-8.312-8.312 8.312-8.313z"/><path d="M937.404 987.283l8.312 8.313-8.311 8.31-8.313-8.312 8.312-8.311z"/><path d="M945.715 995.596l8.313 8.313-8.313 8.312-8.313-8.312 8.313-8.313z"/><path d="M954.11 1003.91l8.313 8.313-8.313 8.312-8.312-8.312 8.312-8.313z"/><path d="M962.34 1012.22l8.313 8.313-8.313 8.313-8.313-8.313 8.313-8.313z"/><path d="M970.735 1020.537l8.312 8.312-8.31 8.312-8.313-8.312 8.311-8.312z"/><path d="M978.882 1028.845l8.311 8.311-8.313 8.313-8.31-8.311 8.312-8.313z"/><path d="M987.278 1037.16l8.313 8.313-8.313 8.312-8.313-8.312 8.313-8.313z"/><path d="M995.59 1045.472l8.313 8.313-8.313 8.313-8.313-8.313 8.313-8.313z"/><path d="M1003.902 1053.786l8.312 8.313-8.311 8.311-8.313-8.313 8.312-8.311z"/><path d="M1012.248 1062.1l8.312 8.31-8.311 8.314-8.313-8.31 8.312-8.314z"/><path d="M1020.614 1070.414l8.312 8.311-8.312 8.313-8.312-8.312 8.312-8.312z"/><path d="M1028.927 1078.726l8.312 8.312-8.312 8.313-8.312-8.312 8.312-8.313z"/><path d="M1037.24 1087.04l8.311 8.312-8.31 8.31-8.312-8.311 8.311-8.311z"/><path d="M1045.375 1095.348l8.311 8.31-8.313 8.314-8.31-8.312 8.312-8.312z"/><path d="M1053.776 1103.663l8.313 8.313-8.313 8.312-8.313-8.312 8.313-8.313z"/><path d="M1062.089 1111.975l8.312 8.312-8.312 8.313-8.313-8.313 8.313-8.312z"/><path d="M1070.492 1120.292l8.312 8.312-8.312 8.311-8.312-8.312 8.312-8.311z"/><path d="M1078.804 1128.604l8.312 8.312-8.312 8.313-8.312-8.312 8.312-8.313z"/><path d="M1087.118 1136.917l8.312 8.312-8.313 8.312-8.312-8.312 8.313-8.312z"/><path d="M1095.43 1145.229l8.313 8.312-8.313 8.313-8.312-8.312 8.312-8.313z"/><path d="M1103.65 1153.54l8.312 8.313-8.311 8.312-8.313-8.313 8.312-8.312z"/><path d="M1111.962 1161.853l8.312 8.313-8.312 8.312-8.313-8.312 8.313-8.313z"/><path d="M1120.371 1170.168l8.312 8.312-8.313 8.313-8.312-8.312 8.313-8.313z"/><path d="M601.869 682.756l11.356-3.043-3.044 11.354-8.312-8.311z"/><path d="M601.869 682.756l3.043-11.357 8.312 8.315-11.355 3.042z"/><path d="M610.183 691.069l11.354-3.042-3.042 11.355-8.312-8.313z"/><path d="M618.495 699.382l11.354-3.043-3.042 11.354-8.312-8.311z"/><path d="M610.183 691.069l3.041-11.355 8.313 8.312-11.354 3.043z"/><path d="M618.495 699.382l3.041-11.356 8.313 8.313-11.354 3.043z"/><path d="M626.807 707.696l11.356-3.043-3.045 11.355-8.311-8.312z"/><path d="M635.118 716.008l11.357-3.043-3.045 11.354-8.312-8.311z"/><path d="M626.807 707.696l3.042-11.357 8.311 8.314-11.353 3.043z"/><path d="M635.118 716.008l3.043-11.357 8.312 8.315-11.355 3.042z"/><path d="M643.432 724.321l11.354-3.042-3.042 11.355-8.312-8.313z"/><path d="M651.744 732.634l11.354-3.043-3.042 11.354-8.312-8.311z"/><path d="M643.432 724.321l3.041-11.355 8.313 8.312-11.354 3.043z"/><path d="M651.744 732.634l3.041-11.356 8.313 8.313-11.354 3.043z"/><path d="M660.056 740.948l11.356-3.043-3.044 11.356-8.312-8.313z"/><path d="M668.368 749.261l11.356-3.044-3.044 11.355-8.312-8.311z"/><path d="M660.056 740.948l3.042-11.357 8.312 8.314-11.354 3.043z"/><path d="M668.368 749.261l3.042-11.358 8.312 8.315-11.354 3.043z"/><path d="M676.681 757.573l11.355-3.041-3.043 11.354-8.312-8.313z"/><path d="M684.993 765.886l11.354-3.043-3.042 11.354-8.312-8.311z"/><path d="M676.681 757.573l3.041-11.355 8.313 8.312-11.354 3.043z"/><path d="M684.993 765.886l3.041-11.356 8.313 8.313-11.354 3.043z"/><path d="M693.305 774.2l11.356-3.043-3.044 11.356-8.312-8.313z"/><path d="M701.617 782.513l11.356-3.044-3.044 11.355-8.312-8.311z"/><path d="M693.305 774.2l3.042-11.357 8.312 8.314-11.354 3.043z"/><path d="M701.617 782.513l3.042-11.358 8.312 8.315-11.354 3.043z"/><path d="M709.93 790.825l11.355-3.041-3.043 11.354-8.312-8.313z"/><path d="M718.242 799.138l11.355-3.042-3.043 11.353-8.312-8.311z"/><path d="M709.93 790.825l3.041-11.355 8.313 8.312-11.354 3.043z"/><path d="M718.242 799.138l3.041-11.356 8.314 8.314-11.355 3.042z"/><path d="M726.554 807.452l11.356-3.043-3.044 11.355-8.312-8.312z"/><path d="M734.866 815.764l11.356-3.043-3.044 11.354-8.312-8.311z"/><path d="M726.554 807.452l3.043-11.356 8.311 8.313-11.354 3.043z"/><path d="M734.866 815.764l3.043-11.357 8.311 8.315-11.354 3.042z"/><path d="M743.18 824.077l11.354-3.041-3.042 11.354-8.312-8.313z"/><path d="M751.492 832.39l11.354-3.042-3.042 11.353-8.312-8.311z"/><path d="M743.18 824.077l3.04-11.355 8.313 8.313-11.353 3.042z"/><path d="M751.492 832.39l3.04-11.356 8.314 8.314-11.354 3.042z"/><path d="M759.803 840.704l11.356-3.043-3.044 11.355-8.312-8.312z"/><path d="M768.115 849.016l11.356-3.043-3.044 11.354-8.312-8.311z"/><path d="M759.803 840.704l3.043-11.356 8.311 8.313-11.354 3.043z"/><path d="M768.115 849.016l3.043-11.357 8.312 8.315-11.355 3.042z"/><path d="M776.429 857.329l11.354-3.042-3.042 11.355-8.312-8.313z"/><path d="M784.741 865.642l11.354-3.043-3.042 11.354-8.312-8.311z"/><path d="M776.429 857.329l3.041-11.355 8.313 8.312-11.354 3.043z"/><path d="M784.741 865.642l3.041-11.356 8.313 8.313-11.354 3.043z"/><path d="M793.053 873.956l11.356-3.043-3.044 11.356-8.312-8.313z"/><path d="M801.365 882.269l11.356-3.044-3.045 11.354-8.311-8.31z"/><path d="M793.053 873.956l3.042-11.357 8.311 8.314-11.353 3.043z"/><path d="M801.365 882.269l3.042-11.358 8.312 8.315-11.354 3.043z"/><path d="M809.678 890.581l11.354-3.042-3.042 11.355-8.312-8.313z"/><path d="M817.99 898.894l11.354-3.043-3.042 11.354-8.312-8.311z"/><path d="M809.678 890.581l3.041-11.355 8.313 8.312-11.354 3.043z"/><path d="M817.99 898.894l3.041-11.356 8.313 8.313-11.354 3.043z"/><path d="M826.302 907.208l11.356-3.043-3.044 11.356-8.312-8.313z"/><path d="M834.614 915.521l11.356-3.044-3.044 11.355-8.312-8.311z"/><path d="M826.302 907.208l3.042-11.357 8.312 8.314-11.354 3.043z"/><path d="M834.614 915.521l3.042-11.358 8.312 8.315-11.354 3.043z"/><path d="M842.927 923.833l11.355-3.041-3.043 11.354-8.312-8.313z"/><path d="M851.239 932.146l11.354-3.043-3.042 11.354-8.312-8.311z"/><path d="M842.927 923.833l3.041-11.355 8.313 8.312-11.354 3.043z"/><path d="M851.239 932.146l3.041-11.356 8.313 8.313-11.354 3.043z"/><path d="M859.551 940.46l11.355-3.043-3.043 11.356-8.312-8.313z"/><path d="M867.863 948.773l11.356-3.045-3.044 11.355-8.312-8.31z"/><path d="M859.551 940.46l3.042-11.357 8.311 8.314-11.353 3.043z"/><path d="M867.863 948.773l3.042-11.358 8.312 8.315-11.354 3.043z"/><path d="M876.176 957.085l11.355-3.041-3.043 11.354-8.312-8.313z"/><path d="M884.488 965.398l11.355-3.043-3.043 11.353-8.312-8.31z"/><path d="M876.176 957.085l3.041-11.355 8.312 8.312-11.353 3.043z"/><path d="M884.488 965.398l3.041-11.356 8.314 8.313-11.355 3.043z"/><path d="M892.8 973.712l11.356-3.043-3.045 11.356-8.311-8.313z"/><path d="M901.111 982.025l11.357-3.045-3.044 11.355-8.313-8.31z"/><path d="M892.8 973.712l3.043-11.357 8.311 8.314-11.354 3.043z"/><path d="M901.111 982.025l3.043-11.358 8.313 8.315-11.356 3.043z"/><path d="M909.426 990.337l11.353-3.041-3.042 11.354-8.311-8.313z"/><path d="M917.737 998.65l11.355-3.043-3.043 11.355-8.312-8.312z"/><path d="M909.426 990.337l3.041-11.355 8.312 8.312-11.353 3.043z"/><path d="M917.737 998.65l3.041-11.356 8.314 8.313-11.355 3.043z"/><path d="M926.049 1006.964l11.356-3.043-3.044 11.354-8.312-8.311z"/><path d="M934.361 1015.275l11.356-3.041-3.043 11.353-8.313-8.312z"/><path d="M926.049 1006.964l3.043-11.357 8.31 8.314-11.353 3.043z"/><path d="M934.361 1015.275l3.043-11.356 8.312 8.315-11.355 3.041z"/><path d="M942.675 1023.589l11.354-3.041-3.043 11.354-8.311-8.313z"/><path d="M950.986 1031.902l11.355-3.043-3.042 11.353-8.313-8.31z"/><path d="M942.675 1023.589l3.041-11.355 8.312 8.312-11.353 3.043z"/><path d="M950.986 1031.902l3.041-11.356 8.314 8.313-11.355 3.043z"/><path d="M959.299 1040.216l11.355-3.043-3.043 11.356-8.312-8.313z"/><path d="M967.611 1048.529l11.356-3.043-3.045 11.353-8.311-8.31z"/><path d="M959.299 1040.216l3.042-11.357 8.311 8.314-11.353 3.043z"/><path d="M967.611 1048.529l3.041-11.358 8.313 8.315-11.354 3.043z"/><path d="M975.924 1056.841l11.354-3.043-3.042 11.356-8.312-8.313z"/><path d="M984.236 1065.154l11.354-3.043-3.042 11.353-8.312-8.31z"/><path d="M975.924 1056.841l3.041-11.355 8.312 8.312-11.353 3.043z"/><path d="M984.236 1065.154l3.041-11.356 8.313 8.313-11.354 3.043z"/><path d="M992.548 1073.468l11.356-3.043-3.045 11.356-8.311-8.313z"/><path d="M1000.859 1081.781l11.357-3.045-3.044 11.355-8.313-8.31z"/><path d="M992.548 1073.468l3.042-11.357 8.312 8.314-11.354 3.043z"/><path d="M1000.859 1081.781l3.043-11.358 8.313 8.315-11.356 3.043z"/><path d="M1009.174 1090.093l11.353-3.041-3.043 11.354-8.31-8.313z"/><path d="M1017.484 1098.406l11.356-3.043-3.043 11.353-8.313-8.31z"/><path d="M1009.174 1090.093l3.041-11.355 8.312 8.312-11.353 3.043z"/><path d="M1017.484 1098.406l3.042-11.356 8.314 8.313-11.356 3.043z"/><path d="M1025.797 1106.72l11.355-3.043-3.043 11.356-8.312-8.313z"/><path d="M1034.109 1115.033l11.356-3.045-3.044 11.355-8.312-8.31z"/><path d="M1025.797 1106.72l3.043-11.357 8.31 8.314-11.353 3.043z"/><path d="M1034.109 1115.033l3.042-11.358 8.312 8.315-11.354 3.043z"/><path d="M1042.422 1123.345l11.355-3.041-3.043 11.354-8.312-8.313z"/><path d="M1050.734 1131.658l11.355-3.043-3.043 11.353-8.312-8.31z"/><path d="M1042.422 1123.345l3.041-11.355 8.312 8.312-11.353 3.043z"/><path d="M1050.734 1131.658l3.041-11.356 8.314 8.313-11.355 3.043z"/><path d="M1059.046 1139.972l11.356-3.043-3.045 11.356-8.311-8.313z"/><path d="M1067.357 1148.285l11.357-3.045-3.044 11.355-8.313-8.31z"/><path d="M1059.046 1139.972l3.043-11.357 8.311 8.314-11.354 3.043z"/><path d="M1067.357 1148.285l3.043-11.358 8.313 8.315-11.356 3.043z"/><path d="M1075.672 1156.597l11.353-3.041-3.042 11.354-8.311-8.313z"/><path d="M1083.983 1164.91l11.355-3.043-3.043 11.355-8.312-8.312z"/><path d="M1075.672 1156.597l3.041-11.355 8.312 8.312-11.353 3.043z"/><path d="M1083.983 1164.91l3.041-11.356 8.314 8.313-11.355 3.043z"/><path d="M1092.295 1173.224l11.356-3.043-3.044 11.356-8.312-8.313z"/><path d="M1100.607 1181.537l11.356-3.043-3.044 11.353-8.312-8.31z"/><path d="M1092.295 1173.224l3.043-11.357 8.31 8.314-11.353 3.043z"/><path d="M1100.607 1181.537l3.043-11.358 8.312 8.315-11.355 3.043z"/><path d="M1108.92 1189.849l11.355-3.041-3.043 11.354-8.312-8.313z"/><path d="M1117.232 1198.162l11.355-3.043-3.042 11.355-8.313-8.312z"/><path d="M1108.92 1189.849l3.042-11.355 8.312 8.312-11.354 3.043z"/><path d="M1117.232 1198.162l3.041-11.356 8.314 8.313-11.355 3.043z"/><path d="M1583.758.1l8.313 8.312-601.123 601.123-8.313-8.313L1583.758.1z"/><path d="M1592.072 8.413l8.311 8.311-601.122 601.123-8.312-8.311L1592.072 8.413z"/><path d="M1600.316 16.766l8.312 8.312L1007.505 626.2l-8.312-8.312 601.123-601.122z"/><path d="M1608.764 24.997l8.312 8.312-601.122 601.122-8.312-8.312 601.122-601.122z"/><path d="M1617.076 33.31l8.312 8.311-601.123 601.124-8.312-8.312L1617.076 33.31z"/><path d="M1625.25 41.705l8.313 8.312-601.124 601.123-8.312-8.312L1625.25 41.705z"/><path d="M1633.633 49.977l8.312 8.311-601.124 601.123-8.311-8.31 601.123-601.124z"/><path d="M1641.945 58.29l8.313 8.313-601.122 601.122-8.313-8.312L1641.945 58.29z"/><path d="M1650.328 66.561l8.312 8.312-601.123 601.123-8.312-8.312 601.123-601.123z"/><path d="M1658.498 74.957l8.312 8.312-601.122 601.122-8.312-8.312 601.122-601.122z"/><path d="M1666.809 83.269l8.312 8.312-601.124 601.123-8.312-8.312 601.124-601.123z"/><path d="M1675.268 91.5l8.312 8.313-601.122 601.122-8.312-8.312L1675.268 91.5z"/><path d="M1683.506 99.854l8.313 8.312-601.124 601.124-8.312-8.313 601.123-601.123z"/><path d="M1691.819 108.168l8.311 8.31-601.122 601.123-8.311-8.311 601.122-601.122z"/><path d="M1700.131 116.48l8.312 8.311-601.124 601.123-8.311-8.31 601.123-601.124z"/><path d="M1708.443 124.793l8.313 8.313-601.123 601.122-8.312-8.312 601.122-601.123z"/><path d="M1716.833 133.064l8.311 8.312-601.123 601.123-8.312-8.312 601.124-601.123z"/><path d="M813.353 446.331l11.355-3.043-3.044 11.355-8.311-8.312z"/><path d="M821.665 454.646l11.355-3.043-3.043 11.354-8.312-8.311z"/><path d="M829.977 462.957l11.355-3.042-3.043 11.354-8.312-8.312z"/><path d="M821.665 454.646l3.042-11.356 8.312 8.313-11.354 3.043z"/><path d="M829.977 462.957l3.042-11.355 8.312 8.313-11.354 3.042z"/><path d="M838.29 471.271l11.355-3.042-3.043 11.354-8.312-8.312z"/><path d="M846.602 479.583l11.355-3.043-3.043 11.356-8.312-8.313z"/><path d="M838.29 471.271l3.041-11.356 8.313 8.314-11.354 3.042z"/><path d="M846.602 479.583l3.041-11.355 8.313 8.313-11.354 3.042z"/><path d="M854.914 487.897l11.356-3.043-3.044 11.355-8.312-8.312z"/><path d="M863.226 496.209l11.356-3.042-3.045 11.354-8.311-8.312z"/><path d="M854.914 487.897l3.042-11.356 8.312 8.313-11.354 3.043z"/><path d="M863.226 496.209l3.042-11.356 8.312 8.314-11.354 3.042z"/><path d="M871.539 504.522l11.355-3.042-3.043 11.355-8.312-8.313z"/><path d="M879.851 512.835l11.354-3.043-3.043 11.355-8.311-8.312z"/><path d="M871.539 504.522l3.041-11.355 8.313 8.313-11.354 3.042z"/><path d="M879.851 512.835l3.042-11.356 8.312 8.314-11.354 3.042z"/><path d="M888.164 521.149l11.355-3.043-3.043 11.355-8.312-8.312z"/><path d="M896.476 529.461l11.354-3.042-3.043 11.353-8.311-8.311z"/><path d="M888.164 521.149l3.041-11.356 8.312 8.313-11.353 3.043z"/><path d="M896.476 529.461l3.042-11.357 8.312 8.315-11.354 3.042z"/><path d="M904.787 537.774l11.356-3.042-3.043 11.355-8.313-8.313z"/><path d="M913.1 546.087l11.355-3.043-3.043 11.355-8.312-8.312z"/><path d="M904.787 537.774l3.043-11.355 8.312 8.313-11.355 3.042z"/><path d="M913.1 546.087l3.042-11.356 8.312 8.314-11.354 3.042z"/><path d="M921.412 554.401l11.356-3.043-3.043 11.355-8.313-8.312z"/><path d="M929.725 562.713l11.355-3.042-3.043 11.353-8.312-8.311z"/><path d="M921.412 554.401l3.042-11.356 8.312 8.313-11.354 3.043z"/><path d="M929.725 562.713l3.041-11.357 8.312 8.315-11.353 3.042z"/><path d="M938.037 571.027l11.356-3.042-3.044 11.354-8.312-8.312z"/><path d="M946.349 579.339l11.355-3.042-3.044 11.354-8.311-8.312z"/><path d="M938.037 571.027l3.041-11.356 8.313 8.313-11.354 3.043z"/><path d="M946.349 579.339l3.042-11.356 8.312 8.315-11.354 3.041z"/><path d="M954.662 587.653l11.355-3.043-3.043 11.355-8.312-8.312z"/><path d="M962.974 595.965l11.354-3.042-3.043 11.353-8.311-8.311z"/><path d="M954.662 587.653l3.041-11.355 8.313 8.312-11.354 3.043z"/><path d="M962.974 595.965l3.042-11.357 8.312 8.315-11.354 3.042z"/><path d="M971.286 604.279l11.356-3.043-3.044 11.355-8.312-8.312z"/><path d="M979.598 612.591l11.355-3.043-3.043 11.355-8.312-8.312z"/><path d="M971.286 604.279l3.042-11.356 8.312 8.313-11.354 3.043z"/><path d="M979.598 612.591l3.043-11.356 8.312 8.315-11.355 3.041z"/><path d="M987.91 620.905l11.356-3.043-3.043 11.355-8.313-8.312z"/><path d="M996.223 629.217l11.355-3.042-3.043 11.353-8.312-8.311z"/><path d="M987.91 620.905l3.043-11.355 8.312 8.312-11.355 3.043z"/><path d="M996.223 629.217l3.042-11.356 8.312 8.314-11.354 3.042z"/><path d="M1004.535 637.53l11.356-3.042-3.043 11.355-8.313-8.313z"/><path d="M1012.848 645.843l11.355-3.043-3.043 11.355-8.312-8.312z"/><path d="M1004.535 637.53l3.042-11.355 8.312 8.314-11.354 3.041z"/><path d="M1012.848 645.843l3.041-11.356 8.312 8.315-11.353 3.041z"/><path d="M1021.16 654.157l11.356-3.043-3.044 11.355-8.312-8.312z"/><path d="M1029.472 662.469l11.355-3.042-3.044 11.353-8.311-8.311z"/><path d="M1021.16 654.157l3.041-11.355 8.313 8.312-11.354 3.043z"/><path d="M1029.472 662.469l3.042-11.356 8.312 8.314-11.354 3.042z"/><path d="M1037.785 670.782l11.355-3.042-3.043 11.355-8.312-8.313z"/><path d="M1046.097 679.095l11.354-3.043-3.043 11.355-8.311-8.312z"/><path d="M1037.785 670.782l3.041-11.355 8.313 8.313-11.354 3.042z"/><path d="M1046.097 679.095l3.042-11.356 8.312 8.314-11.354 3.042z"/><path d="M1054.409 687.409l11.356-3.043-3.044 11.356-8.312-8.313z"/><path d="M1062.721 695.722l11.355-3.043-3.043 11.354-8.312-8.311z"/><path d="M1054.409 687.409l3.042-11.356 8.312 8.313-11.354 3.043z"/><path d="M1062.721 695.722l3.043-11.358 8.312 8.315-11.355 3.043z"/><path d="M1071.033 704.034l11.356-3.041-3.043 11.354-8.313-8.313z"/><path d="M1079.346 712.347l11.355-3.043-3.043 11.355-8.312-8.312z"/><path d="M1071.033 704.034l3.043-11.355 8.312 8.313-11.355 3.042z"/><path d="M1079.346 712.347l3.042-11.356 8.312 8.314-11.354 3.042z"/><path d="M1087.658 720.661l11.356-3.043-3.043 11.355-8.313-8.312z"/><path d="M1095.971 728.973l11.355-3.042-3.043 11.353-8.312-8.311z"/><path d="M1087.658 720.661l3.042-11.356 8.312 8.313-11.354 3.043z"/><path d="M1095.971 728.973l3.041-11.357 8.312 8.315-11.353 3.042z"/><path d="M1104.283 737.287l11.356-3.042-3.044 11.354-8.312-8.312z"/><path d="M1112.595 745.599l11.355-3.042-3.044 11.354-8.311-8.312z"/><path d="M1104.283 737.287l3.041-11.356 8.313 8.313-11.354 3.043z"/><path d="M1112.595 745.599l3.042-11.356 8.312 8.315-11.354 3.041z"/><path d="M601.275 1099.039l8.312 8.312L8.464 1708.474l-8.312-8.312 601.123-601.123z"/><path d="M609.575 1107.33l8.313 8.31L16.85 1716.848l-8.313-8.31 601.038-601.208z"/><path d="M617.9 1115.665l8.312 8.312L25.09 1725.1l-8.312-8.312L617.9 1115.665z"/><path d="M626.213 1123.98l8.312 8.312-601.121 601.121-8.312-8.311 601.121-601.122z"/><path d="M634.526 1132.29l8.312 8.312-601.124 601.124-8.312-8.312 601.124-601.124z"/><path d="M642.728 1140.536l8.311 8.312L49.916 1749.97l-8.31-8.31 601.122-601.124z"/><path d="M651.15 1148.917l8.312 8.312L58.34 1758.35l-8.312-8.312 601.122-601.121z"/><path d="M659.464 1157.23l8.312 8.312-601.122 601.123-8.312-8.312 601.122-601.123z"/><path d="M667.777 1165.542l8.312 8.312-601.124 601.124-8.312-8.312 601.124-601.124z"/><path d="M676.09 1173.857l8.312 8.312-601.123 601.123-8.312-8.312 601.123-601.123z"/><path d="M684.391 1182.145l8.313 8.31-601.038 601.208-8.313-8.31 601.038-601.208z"/><path d="M692.715 1190.481l8.312 8.312-601.123 601.123-8.312-8.312 601.123-601.123z"/><path d="M701.027 1198.794l8.312 8.312-601.123 601.123-8.312-8.312 601.123-601.123z"/><path d="M709.34 1207.109l8.312 8.312-601.123 601.122-8.312-8.312 601.123-601.122z"/><path d="M717.643 1215.396l8.312 8.31-601.038 601.208-8.312-8.31 601.038-601.208z"/><path d="M725.965 1223.735l8.312 8.312-601.122 601.122-8.312-8.312 601.122-601.122z"/><path d="M734.156 1231.977l8.311 8.31-601.124 601.125-8.311-8.311 601.124-601.124z"/><path d="M742.59 1240.36l8.312 8.312-601.123 601.123-8.312-8.312L742.59 1240.36z"/><path d="M750.895 1248.648l8.312 8.31-601.038 601.209-8.312-8.31 601.038-601.209z"/><path d="M759.215 1256.986l8.312 8.312-601.122 601.122-8.311-8.312 601.121-601.122z"/><path d="M767.528 1265.296l8.312 8.312-601.123 601.124-8.312-8.312 601.123-601.124z"/><path d="M775.833 1273.588l8.313 8.31-601.038 601.207-8.312-8.31 601.037-601.207z"/><path d="M784.153 1281.923l8.312 8.312-601.122 601.122-8.312-8.312 601.122-601.122z"/><path d="M813.298 446.332l8.311 8.311-151.262 151.263-8.311-8.312 151.262-151.262z"/><path d="M821.69 454.633l8.311 8.312-151.26 151.26-8.313-8.311L821.69 454.633z"/><path d="M830 462.945l8.313 8.311L687.05 622.518l-8.312-8.312L830 462.945z"/><path d="M838.26 471.267l8.312 8.312-151.261 151.262-8.312-8.312L838.26 471.267z"/><path d="M846.572 479.579l8.312 8.312-151.261 151.261-8.312-8.312 151.261-151.261z"/><path d="M854.883 487.893l8.312 8.312-151.26 151.26-8.312-8.312 151.26-151.26z"/><path d="M863.251 496.196l8.312 8.312-151.261 151.261-8.312-8.312 151.261-151.261z"/><path d="M871.508 504.518l8.312 8.312-151.262 151.262-8.312-8.311 151.262-151.263z"/><path d="M879.82 512.83l8.312 8.312L736.87 672.404l-8.312-8.312L879.82 512.83z"/><path d="M888.19 521.136l8.313 8.312-151.26 151.26-8.313-8.311 151.26-151.261z"/><path d="M896.473 529.452l8.311 8.311-151.262 151.262-8.31-8.311 151.261-151.262z"/><path d="M904.756 537.77l8.311 8.312-151.261 151.262-8.312-8.312L904.756 537.77z"/><path d="M913.067 546.082l8.312 8.312-151.261 151.261-8.312-8.312 151.261-151.261z"/><path d="M921.441 554.388l8.312 8.312-151.26 151.26-8.312-8.312 151.26-151.26z"/><path d="M929.691 562.707l8.312 8.312-151.262 151.263-8.312-8.312 151.262-151.263z"/><path d="M938.034 571.018l8.312 8.311-151.262 151.262-8.311-8.312 151.261-151.261z"/><path d="M946.315 579.334l8.312 8.312-151.262 151.26-8.312-8.311 151.262-151.261z"/><path d="M954.692 587.64l8.312 8.311-151.261 151.26-8.312-8.311 151.261-151.26z"/><path d="M962.939 595.959l8.312 8.312-151.262 151.262-8.312-8.312 151.262-151.262z"/><path d="M971.317 604.265l8.312 8.312-151.262 151.261-8.312-8.312 151.262-151.261z"/><path d="M979.563 612.585l8.312 8.312-151.262 151.261-8.312-8.312 151.262-151.261z"/><path d="M987.942 620.89l8.312 8.313-151.26 151.26-8.312-8.312 151.26-151.261z"/><path d="M996.187 629.211l8.312 8.312-151.262 151.262-8.312-8.312 151.262-151.262z"/><path d="M1004.567 637.516l8.312 8.312-151.261 151.26-8.312-8.311 151.261-151.261z"/><path d="M1012.811 645.837l8.312 8.312L869.861 805.41l-8.312-8.312 151.262-151.261z"/><path d="M1021.14 654.16l8.31 8.313L878.17 813.71l-8.31-8.312 151.28-151.238z"/><path d="M1029.54 662.45l8.312 8.311-151.26 151.262-8.313-8.312L1029.54 662.45z"/><path d="M1037.712 670.78l8.312 8.312-151.262 151.262-8.312-8.312 151.262-151.262z"/><path d="M1046.023 679.092l8.312 8.312-151.262 151.262-8.312-8.312 151.262-151.262z"/><path d="M1054.48 687.39l8.312 8.311-151.26 151.26-8.312-8.312 151.26-151.259z"/><path d="M1062.719 695.71l8.31 8.312-151.26 151.261-8.312-8.311 151.262-151.262z"/><path d="M1071.032 704.023l8.31 8.312-151.26 151.261-8.312-8.311 151.262-151.262z"/><path d="M1079.344 712.335l8.31 8.312-151.26 151.261-8.312-8.311 151.262-151.262z"/><path d="M1087.656 720.65l8.313 8.312-151.26 151.26-8.313-8.312 151.26-151.26z"/><path d="M1095.893 728.97l8.312 8.312-151.262 151.262-8.312-8.312 151.262-151.262z"/><path d="M1104.282 737.276l8.31 8.31-151.26 151.262-8.312-8.311 151.262-151.261z"/><path d="M1112.515 745.596l8.312 8.312-151.261 151.26-8.312-8.311 151.261-151.261z"/><path d="M1120.983 753.892l8.312 8.312-151.26 151.26-8.312-8.311 151.26-151.261z"/><path d="M1129.218 762.213l8.31 8.311-151.261 151.263-8.311-8.312 151.262-151.262z"/><path d="M1137.53 770.527l8.312 8.313L994.581 930.1l-8.313-8.313 151.262-151.26z"/><path d="M1145.843 778.839l8.31 8.311-151.26 151.261-8.312-8.31 151.262-151.262z"/><path d="M1154.195 787.148l8.313 8.313-151.26 151.26-8.313-8.313 151.26-151.26z"/><path d="M1162.466 795.464l8.313 8.312-151.262 151.262-8.313-8.312 151.262-151.262z"/><path d="M1170.861 803.769l8.312 8.312-151.262 151.262-8.312-8.312 151.262-151.262z"/><path d="M1179.115 812.076l8.312 8.31-151.24 151.283-8.313-8.31 151.241-151.283z"/><path d="M1187.381 820.419l8.31 8.312-151.282 151.24-8.31-8.313 151.282-151.239z"/><path d="M1195.8 828.707l8.311 8.311-151.262 151.263-8.312-8.312L1195.8 828.707z"/><path d="M1204.029 837.03l8.313 8.312-151.262 151.262-8.313-8.312 151.262-151.262z"/><path d="M1212.255 845.35l8.312 8.31-151.262 151.263-8.312-8.311 151.262-151.262z"/><path d="M1220.653 853.655l8.312 8.313-151.26 151.26-8.313-8.312 151.261-151.261z"/><path d="M1229.052 861.96l8.312 8.311-151.26 151.261-8.313-8.312 151.261-151.26z"/><path d="M1237.19 870.29l8.311 8.31-151.261 151.262-8.311-8.311L1237.19 870.29z"/><path d="M1245.678 878.584l8.312 8.312-151.26 151.26-8.313-8.311 151.261-151.261z"/><path d="M1253.902 886.907l8.313 8.313-151.26 151.26-8.313-8.312 151.26-151.261z"/><path d="M1262.214 895.22l8.313 8.312-151.262 151.261-8.313-8.313 151.262-151.26z"/><path d="M650.736 600.637l11.354-3.042-3.042 11.353-8.312-8.311z"/><path d="M659.048 608.948l11.354-3.041-3.042 11.354-8.312-8.313z"/><path d="M659.048 608.948l3.041-11.353 8.313 8.312-11.354 3.041z"/><path d="M667.36 617.264l11.356-3.043-3.044 11.354-8.312-8.311z"/><path d="M675.672 625.575l11.356-3.043-3.044 11.356-8.312-8.313z"/><path d="M667.36 617.264l3.042-11.357 8.312 8.315-11.354 3.042z"/><path d="M675.672 625.575l3.042-11.355 8.313 8.314-11.355 3.041z"/><path d="M683.985 633.889l11.355-3.042-3.043 11.353-8.312-8.311z"/><path d="M692.297 642.2l11.355-3.041-3.043 11.354-8.312-8.313z"/><path d="M683.985 633.889l3.042-11.355 8.312 8.313-11.354 3.042z"/><path d="M692.297 642.2l3.042-11.354 8.313 8.313-11.355 3.041z"/><path d="M700.609 650.516l11.356-3.044-3.044 11.355-8.312-8.311z"/><path d="M708.921 658.827l11.356-3.043-3.044 11.356-8.312-8.313z"/><path d="M700.609 650.516l3.043-11.357 8.311 8.315-11.354 3.042z"/><path d="M708.921 658.827l3.043-11.356 8.312 8.315-11.355 3.041z"/><path d="M717.235 667.142l11.354-3.043-3.042 11.354-8.312-8.311z"/><path d="M725.547 675.453l11.354-3.042-3.043 11.354-8.311-8.312z"/><path d="M717.235 667.142l3.041-11.356 8.312 8.313-11.353 3.043z"/><path d="M725.547 675.453l3.041-11.355 8.313 8.313-11.354 3.042z"/><path d="M733.858 683.768l11.356-3.044-3.044 11.355-8.312-8.311z"/><path d="M742.17 692.079l11.356-3.043-3.044 11.356-8.312-8.313z"/><path d="M733.858 683.768l3.043-11.357 8.311 8.315-11.354 3.042z"/><path d="M742.17 692.079l3.043-11.355 8.312 8.314-11.355 3.041z"/><path d="M750.484 700.394l11.354-3.043-3.042 11.354-8.312-8.311z"/><path d="M758.796 708.705l11.354-3.042-3.042 11.354-8.312-8.312z"/><path d="M750.484 700.394l3.041-11.356 8.313 8.313-11.354 3.043z"/><path d="M758.796 708.705l3.041-11.355 8.313 8.313-11.354 3.042z"/><path d="M767.107 717.02l11.357-3.043-3.045 11.354-8.312-8.311z"/><path d="M775.419 725.331l11.357-3.043-3.045 11.356-8.312-8.313z"/><path d="M767.107 717.02l3.043-11.357 8.311 8.315-11.354 3.042z"/><path d="M775.419 725.331l3.043-11.355 8.312 8.314-11.355 3.041z"/><path d="M783.733 733.646l11.354-3.043-3.042 11.354-8.312-8.311z"/><path d="M792.045 741.957l11.354-3.042-3.042 11.354-8.312-8.312z"/><path d="M783.733 733.646l3.041-11.356 8.313 8.313-11.354 3.043z"/><path d="M792.045 741.957l3.041-11.355 8.313 8.313-11.354 3.042z"/><path d="M800.357 750.272l11.356-3.043-3.044 11.355-8.312-8.312z"/><path d="M808.669 758.584l11.356-3.044-3.045 11.356-8.311-8.312z"/><path d="M800.357 750.272l3.042-11.357 8.311 8.314-11.353 3.043z"/><path d="M808.669 758.584l3.042-11.356 8.312 8.314-11.354 3.042z"/><path d="M816.982 766.897l11.354-3.043-3.042 11.355-8.312-8.312z"/><path d="M825.294 775.209l11.354-3.042-3.042 11.354-8.312-8.312z"/><path d="M816.982 766.897l3.041-11.355 8.313 8.312-11.354 3.043z"/><path d="M825.294 775.209l3.041-11.355 8.313 8.313-11.354 3.042z"/><path d="M833.606 783.523l11.356-3.043-3.044 11.355-8.312-8.312z"/><path d="M841.918 791.835l11.356-3.043-3.044 11.355-8.312-8.312z"/><path d="M833.606 783.523l3.042-11.356 8.312 8.314-11.354 3.042z"/><path d="M841.918 791.835l3.042-11.356 8.312 8.315-11.354 3.041z"/><path d="M850.232 800.149l11.354-3.042-3.043 11.353-8.311-8.311z"/><path d="M858.543 808.46l11.355-3.041-3.043 11.353-8.312-8.312z"/><path d="M850.232 800.149l3.04-11.355 8.313 8.312-11.353 3.043z"/><path d="M858.543 808.46l3.041-11.354 8.314 8.313-11.355 3.041z"/><path d="M866.855 816.775l11.356-3.043-3.043 11.355-8.313-8.312z"/><path d="M875.168 825.087l11.355-3.043-3.044 11.355-8.311-8.312z"/><path d="M866.855 816.775l3.043-11.356 8.311 8.314-11.354 3.042z"/><path d="M875.168 825.087l3.041-11.356 8.312 8.315-11.353 3.041z"/><path d="M883.48 833.401l11.356-3.043-3.043 11.355-8.313-8.312z"/><path d="M891.793 841.713l11.354-3.042-3.043 11.353-8.311-8.311z"/><path d="M883.48 833.401l3.041-11.355 8.313 8.312-11.354 3.043z"/><path d="M891.793 841.713l3.041-11.356 8.313 8.314-11.354 3.042z"/><path d="M900.104 850.027l11.357-3.044-3.045 11.356-8.312-8.312z"/><path d="M908.416 858.339l11.356-3.043-3.043 11.355-8.313-8.312z"/><path d="M900.104 850.027l3.043-11.356 8.312 8.314-11.355 3.042z"/><path d="M908.416 858.339l3.043-11.356 8.312 8.315-11.355 3.041z"/><path d="M916.73 866.653l11.354-3.043-3.042 11.355-8.312-8.312z"/><path d="M925.042 874.965l11.354-3.042-3.042 11.353-8.312-8.311z"/><path d="M916.73 866.653l3.041-11.355 8.313 8.312-11.354 3.043z"/><path d="M925.042 874.965l3.041-11.356 8.313 8.314-11.354 3.042z"/><path d="M933.354 883.28l11.356-3.044-3.044 11.355-8.312-8.311z"/><path d="M941.666 891.591l11.355-3.043-3.043 11.355-8.312-8.312z"/><path d="M933.354 883.28l3.042-11.357 8.311 8.314-11.353 3.043z"/><path d="M941.666 891.591l3.043-11.356 8.312 8.315-11.355 3.041z"/><path d="M949.979 899.905l11.355-3.043-3.043 11.355-8.312-8.312z"/><path d="M958.291 908.217l11.355-3.042-3.042 11.353-8.313-8.311z"/><path d="M949.979 899.905l3.042-11.355 8.312 8.312-11.354 3.043z"/><path d="M958.291 908.217l3.041-11.356 8.314 8.314-11.355 3.042z"/><path d="M966.604 916.532l11.355-3.044-3.044 11.356-8.311-8.312z"/><path d="M974.915 924.844l11.356-3.044-3.044 11.355-8.312-8.311z"/><path d="M966.604 916.532l3.042-11.357 8.311 8.314-11.353 3.043z"/><path d="M974.915 924.844l3.042-11.357 8.313 8.315-11.355 3.042z"/><path d="M983.229 933.157l11.354-3.042-3.043 11.354-8.311-8.312z"/><path d="M991.54 941.469l11.355-3.042-3.043 11.354-8.312-8.312z"/><path d="M983.229 933.157l3.041-11.355 8.312 8.312-11.353 3.043z"/><path d="M991.54 941.469l3.042-11.355 8.313 8.313-11.355 3.042z"/><path d="M999.852 949.785l11.356-3.045-3.044 11.355-8.312-8.31z"/><path d="M1008.164 958.095l11.356-3.043-3.043 11.356-8.313-8.313z"/><path d="M999.852 949.785l3.043-11.358 8.311 8.315-11.354 3.043z"/><path d="M1008.164 958.095l3.043-11.355 8.312 8.314-11.355 3.041z"/><path d="M1016.478 966.41l11.354-3.043-3.043 11.353-8.311-8.31z"/><path d="M1024.789 974.72l11.356-3.041-3.043 11.354-8.313-8.313z"/><path d="M1016.478 966.41l3.041-11.356 8.312 8.313-11.353 3.043z"/><path d="M1024.789 974.72l3.041-11.353 8.315 8.312-11.356 3.041z"/><path d="M1033.102 983.035l11.355-3.043-3.043 11.355-8.312-8.312z"/><path d="M1041.414 991.347l11.356-3.043-3.044 11.356-8.312-8.313z"/><path d="M1033.102 983.035l3.043-11.356 8.31 8.315-11.353 3.041z"/><path d="M1041.414 991.347l3.041-11.355 8.313 8.314-11.354 3.041z"/><path d="M1049.727 999.662l11.354-3.043-3.042 11.353-8.312-8.31z"/><path d="M1058.039 1007.972l11.354-3.041-3.041 11.354-8.313-8.313z"/><path d="M1049.727 999.662l3.041-11.356 8.312 8.313-11.353 3.043z"/><path d="M1058.039 1007.972l3.041-11.353 8.313 8.312-11.354 3.041z"/><path d="M1066.351 1016.287l11.356-3.041-3.045 11.353-8.311-8.312z"/><path d="M1074.662 1024.599l11.356-3.043-3.043 11.356-8.313-8.313z"/><path d="M1066.351 1016.287l3.042-11.356 8.312 8.315-11.354 3.041z"/><path d="M1074.662 1024.599l3.043-11.355 8.313 8.314-11.356 3.041z"/><path d="M1082.977 1032.914l11.353-3.043-3.042 11.353-8.311-8.31z"/><path d="M1091.288 1041.224l11.355-3.041-3.043 11.354-8.312-8.313z"/><path d="M1082.977 1032.914l3.041-11.356 8.312 8.313-11.353 3.043z"/><path d="M1091.288 1041.224l3.041-11.355 8.314 8.314-11.355 3.041z"/><path d="M1099.6 1049.541l11.356-3.045-3.044 11.355-8.312-8.31z"/><path d="M1107.912 1057.851l11.356-3.043-3.044 11.356-8.312-8.313z"/><path d="M1099.6 1049.541l3.043-11.358 8.31 8.315-11.353 3.043z"/><path d="M1107.912 1057.851l3.043-11.355 8.312 8.314-11.355 3.041z"/><path d="M1116.225 1066.166l11.355-3.043-3.043 11.353-8.312-8.31z"/><path d="M1124.537 1074.476l11.355-3.041-3.042 11.354-8.313-8.313z"/><path d="M1116.225 1066.166l3.042-11.356 8.312 8.313-11.354 3.043z"/><path d="M1124.537 1074.476l3.041-11.353 8.314 8.312-11.355 3.041z"/><path d="M1132.85 1082.792l11.355-3.044-3.044 11.355-8.311-8.311z"/><path d="M1141.161 1091.103l11.357-3.043-3.045 11.356-8.312-8.313z"/><path d="M1132.85 1082.792l3.042-11.357 8.311 8.315-11.353 3.042z"/><path d="M1141.161 1091.103l3.042-11.355 8.313 8.314-11.355 3.041z"/><path d="M1149.475 1099.417l11.354-3.042-3.043 11.353-8.311-8.311z"/><path d="M1157.786 1107.728l11.355-3.041-3.043 11.354-8.312-8.313z"/><path d="M1149.475 1099.417l3.041-11.355 8.312 8.313-11.353 3.042z"/><path d="M1157.786 1107.728l3.042-11.353 8.313 8.312-11.355 3.041z"/><path d="M605.92 786.765l8.311 8.312L462.97 946.34l-8.312-8.312L605.92 786.765z"/><path d="M614.275 795.08l8.312 8.31-151.24 151.284-8.313-8.31L614.275 795.08z"/><path d="M622.573 803.397l8.312 8.312-151.261 151.262-8.312-8.312 151.261-151.262z"/><path d="M630.886 811.712l8.312 8.312-151.26 151.26-8.313-8.311 151.261-151.261z"/><path d="M639.2 820.023l8.311 8.312L496.25 979.597l-8.312-8.312L639.2 820.023z"/><path d="M647.42 828.316l8.312 8.312L504.47 987.89l-8.312-8.312L647.42 828.316z"/><path d="M655.824 836.65l8.312 8.311-151.26 151.26-8.312-8.311 151.26-151.26z"/><path d="M664.152 844.958l8.312 8.31-151.24 151.283-8.312-8.31 151.24-151.283z"/><path d="M672.45 853.275l8.311 8.312L529.5 1012.848l-8.312-8.312L672.45 853.275z"/><path d="M680.778 861.584l8.313 8.31-151.24 151.283-8.313-8.31 151.24-151.283z"/><path d="M689.075 869.9l8.312 8.312-151.261 151.261-8.312-8.312L689.075 869.9z"/><path d="M697.404 878.209l8.312 8.31-151.24 151.283-8.312-8.31 151.24-151.283z"/><path d="M705.7 886.525l8.312 8.312L562.75 1046.1l-8.312-8.312L705.7 886.525z"/><path d="M714.03 894.835l8.312 8.31-151.24 151.284-8.313-8.31L714.03 894.835z"/><path d="M722.325 903.152l8.312 8.312-151.26 151.26-8.313-8.311 151.261-151.261z"/><path d="M730.536 911.446l8.311 8.311-151.26 151.26-8.312-8.31 151.261-151.261z"/><path d="M738.95 919.777l8.313 8.312L596 1079.35l-8.312-8.312L738.95 919.777z"/><path d="M747.282 928.087l8.312 8.31-151.24 151.283-8.313-8.31 151.241-151.283z"/><path d="M755.576 936.403l8.312 8.312-151.261 151.261-8.312-8.312 151.261-151.261z"/><path d="M763.889 944.718l8.312 8.312-151.261 151.26-8.312-8.311 151.261-151.261z"/><path d="M772.202 953.029l8.312 8.312-151.262 151.262-8.312-8.312 151.262-151.262z"/><path d="M780.533 961.339l8.312 8.31-151.24 151.282-8.312-8.31 151.24-151.282z"/><path d="M788.826 969.655l8.312 8.312-151.26 151.26-8.313-8.311 151.261-151.261z"/><path d="M797.139 977.97l8.312 8.311-151.26 151.261-8.313-8.312 151.261-151.26z"/><path d="M805.452 986.28l8.312 8.312-151.262 151.262-8.312-8.312L805.452 986.28z"/><path d="M813.765 994.595l8.312 8.312-151.262 151.262-8.312-8.312 151.262-151.262z"/><path d="M821.964 1002.886l8.311 8.31-151.262 151.263-8.311-8.311 151.262-151.262z"/><path d="M830.39 1011.221l8.311 8.312-151.26 151.26-8.312-8.311 151.261-151.261z"/><path d="M838.703 1019.532l8.312 8.312-151.262 151.262-8.312-8.312 151.262-151.262z"/><path d="M847.037 1027.841l8.312 8.31-151.24 151.283-8.312-8.31 151.24-151.283z"/><path d="M855.328 1036.158l8.312 8.312-151.261 151.26-8.312-8.311 151.261-151.261z"/><path d="M863.662 1044.468l8.312 8.31-151.238 151.281-8.313-8.31 151.239-151.281z"/><path d="M871.953 1052.783l8.312 8.312-151.262 151.262-8.312-8.312 151.262-151.262z"/><path d="M880.289 1061.093l8.312 8.31-151.24 151.284-8.313-8.31 151.241-151.284z"/><path d="M888.578 1069.41l8.312 8.311-151.26 151.261-8.313-8.312 151.261-151.26z"/><path d="M896.892 1077.725l8.312 8.312-151.26 151.26-8.313-8.312 151.261-151.26z"/><path d="M905.246 1086.042l8.312 8.312-151.262 151.262-8.312-8.312 151.262-151.262z"/><path d="M913.54 1094.345l8.312 8.31-151.24 151.283-8.312-8.31 151.24-151.283z"/><path d="M921.829 1102.661l8.312 8.312-151.261 151.26-8.312-8.311 151.261-151.261z"/><path d="M930.141 1110.976l8.312 8.312-151.26 151.26-8.312-8.312 151.26-151.26z"/><path d="M938.455 1119.286l8.312 8.312-151.262 151.263-8.312-8.312 151.262-151.263z"/><path d="M946.792 1127.596l8.312 8.31-151.24 151.283-8.313-8.31 151.241-151.283z"/><path d="M955.079 1135.913l8.312 8.312-151.26 151.26-8.313-8.312 151.261-151.26z"/><path d="M963.393 1144.227l8.312 8.312-151.26 151.26-8.312-8.311 151.26-151.261z"/><path d="M971.705 1152.538l8.312 8.312-151.262 151.262-8.312-8.312 151.262-151.262z"/><path d="M980.019 1160.852l8.312 8.312-151.262 151.262-8.312-8.312 151.262-151.262z"/><path d="M988.197 1169.144l8.31 8.311-151.261 151.262-8.312-8.311 151.263-151.262z"/><path d="M996.642 1177.479l8.312 8.312-151.26 151.26-8.312-8.312 151.26-151.26z"/><path d="M1004.955 1185.79l8.312 8.311-151.262 151.263-8.312-8.312 151.262-151.262z"/><path d="M1013.314 1194.111l8.312 8.312-151.261 151.262-8.312-8.312 151.261-151.262z"/><path d="M1021.561 1202.404l8.313 8.31-151.241 151.283-8.312-8.31 151.24-151.283z"/><path d="M1029.94 1210.737l8.313 8.312-151.261 151.26-8.312-8.311 151.26-151.261z"/><path d="M1038.253 1219.048l8.312 8.312-151.261 151.261-8.312-8.312 151.261-151.261z"/><path d="M1046.5 1227.343l8.313 8.31-151.241 151.283-8.313-8.31 151.241-151.283z"/><path d="M1054.783 1235.66l8.313 8.313-151.26 151.26-8.313-8.312 151.26-151.261z"/><path d="M1063.192 1243.989l8.312 8.312-151.26 151.26-8.312-8.312 151.26-151.26z"/><path d="M1071.504 1252.301l8.312 8.312-151.26 151.26-8.313-8.311 151.261-151.261z"/><path d="M1079.623 1260.586l8.312 8.311-151.262 151.262-8.311-8.311 151.261-151.262z"/><path d="M1088.13 1268.926l8.312 8.312-151.26 151.26-8.312-8.312 151.26-151.26z"/><path d="M1096.345 1277.226l8.312 8.313-151.26 151.26-8.312-8.313 151.26-151.26z"/><path d="M601.235 1099.025l11.355-3.041-3.043 11.353-8.312-8.312z"/><path d="M601.235 1099.025l3.041-11.356 8.314 8.315-11.355 3.041z"/><path d="M609.547 1107.339l11.356-3.043-3.044 11.356-8.312-8.313z"/><path d="M617.859 1115.652l11.356-3.043-3.044 11.355-8.312-8.312z"/><path d="M609.547 1107.339l3.043-11.355 8.311 8.314-11.354 3.041z"/><path d="M617.859 1115.652l3.043-11.356 8.311 8.315-11.354 3.041z"/><path d="M626.172 1123.966l11.355-3.043-3.043 11.354-8.312-8.311z"/><path d="M634.484 1132.277l11.355-3.041-3.043 11.353-8.312-8.312z"/><path d="M626.172 1123.966l3.041-11.355 8.313 8.312-11.354 3.043z"/><path d="M634.484 1132.277l3.041-11.356 8.314 8.315-11.355 3.041z"/><path d="M642.797 1140.591l11.355-3.043-3.044 11.356-8.311-8.313z"/><path d="M651.108 1148.904l11.356-3.043-3.044 11.355-8.312-8.312z"/><path d="M642.797 1140.591l3.042-11.355 8.311 8.314-11.353 3.041z"/><path d="M651.108 1148.904l3.043-11.356 8.312 8.315-11.355 3.041z"/><path d="M659.422 1157.216l11.354-3.041-3.042 11.354-8.312-8.313z"/><path d="M667.734 1165.529l11.354-3.041-3.042 11.353-8.312-8.312z"/><path d="M659.422 1157.216l3.041-11.353 8.312 8.312-11.353 3.041z"/><path d="M667.734 1165.529l3.041-11.354 8.313 8.313-11.354 3.041z"/><path d="M676.046 1173.843l11.355-3.043-3.043 11.356-8.312-8.313z"/><path d="M684.358 1182.156l11.355-3.043-3.043 11.355-8.312-8.312z"/><path d="M676.046 1173.843l3.042-11.355 8.312 8.314-11.354 3.041z"/><path d="M684.358 1182.156l3.042-11.356 8.312 8.315-11.354 3.041z"/><path d="M692.671 1190.468l11.355-3.041-3.043 11.354-8.312-8.313z"/><path d="M700.983 1198.781l11.354-3.041-3.042 11.353-8.312-8.312z"/><path d="M692.671 1190.468l3.041-11.353 8.313 8.312-11.354 3.041z"/><path d="M700.983 1198.781l3.041-11.356 8.313 8.315-11.354 3.041z"/><path d="M709.295 1207.095l11.356-3.043-3.044 11.356-8.312-8.313z"/><path d="M717.607 1215.408l11.356-3.043-3.044 11.355-8.312-8.312z"/><path d="M709.295 1207.095l3.042-11.355 8.312 8.314-11.354 3.041z"/><path d="M717.607 1215.408l3.042-11.358 8.312 8.317-11.354 3.041z"/><path d="M725.92 1223.722l11.355-3.043-3.043 11.354-8.312-8.311z"/><path d="M734.232 1232.033l11.355-3.041-3.043 11.353-8.312-8.312z"/><path d="M725.92 1223.722l3.041-11.355 8.313 8.312-11.354 3.043z"/><path d="M734.232 1232.033l3.041-11.356 8.314 8.315-11.355 3.041z"/><path d="M742.544 1240.347l11.356-3.043-3.044 11.356-8.312-8.313z"/><path d="M750.856 1248.66l11.356-3.043-3.044 11.355-8.312-8.312z"/><path d="M742.544 1240.347l3.043-11.355 8.311 8.314-11.354 3.041z"/><path d="M750.856 1248.66l3.043-11.356 8.311 8.315-11.354 3.041z"/><path d="M759.169 1256.974l11.355-3.043-3.043 11.354-8.312-8.311z"/><path d="M767.481 1265.285l11.355-3.041-3.043 11.353-8.312-8.312z"/><path d="M759.169 1256.974l3.041-11.355 8.313 8.312-11.354 3.043z"/><path d="M767.481 1265.285l3.041-11.356 8.314 8.315-11.355 3.041z"/><path d="M775.793 1273.599l11.356-3.043-3.044 11.356-8.312-8.313z"/><path d="M784.105 1281.912l11.356-3.043-3.044 11.355-8.312-8.312z"/><path d="M775.793 1273.599l3.043-11.355 8.311 8.314-11.354 3.041z"/><path d="M784.105 1281.912l3.043-11.356 8.311 8.315-11.354 3.041z"/><path d="M792.418 1290.226l3.041-11.355 8.313 8.312-11.354 3.043z"/><path d="M634.136 584.003l8.312 8.312-42.782 42.782-8.312-8.312 42.782-42.782z"/><path d="M642.424 592.315l8.311 8.311-42.782 42.783-8.312-8.312 42.783-42.782z"/><path d="M650.762 600.628l8.312 8.312-42.782 42.782-8.312-8.312 42.782-42.782z"/><path d="M659.022 608.94l8.312 8.312-42.784 42.784-8.312-8.312 42.784-42.784z"/><path d="M667.387 617.255l8.312 8.311-42.783 42.783-8.312-8.312 42.783-42.782z"/><path d="M675.699 625.566l8.312 8.312-42.782 42.783-8.312-8.312 42.782-42.783z"/><path d="M684.012 633.88l8.312 8.311-42.782 42.783-8.312-8.312 42.782-42.782z"/><path d="M692.27 642.192l8.312 8.311-42.785 42.785-8.312-8.312 42.785-42.784z"/><path d="M700.637 650.506l8.312 8.312-42.782 42.782-8.312-8.312 42.782-42.782z"/><path d="M708.95 658.818l8.311 8.312-42.782 42.782-8.312-8.312 42.783-42.782z"/><path d="M717.205 667.132l8.312 8.312-42.782 42.783-8.312-8.312 42.782-42.783z"/><path d="M725.546 675.444l8.312 8.31-42.784 42.785-8.312-8.312 42.784-42.783z"/><path d="M733.887 683.758l8.312 8.312-42.782 42.782-8.312-8.312 42.782-42.782z"/><path d="M742.2 692.07l8.312 8.311-42.783 42.783-8.312-8.312L742.2 692.07z"/><path d="M750.453 700.384l8.312 8.312-42.782 42.782-8.312-8.312 42.782-42.782z"/><path d="M758.826 708.695l8.312 8.312-42.783 42.784-8.312-8.312 42.783-42.784z"/><path d="M767.138 717.01l8.312 8.311-42.783 42.783-8.312-8.312 42.783-42.782z"/><path d="M775.45 725.321l8.312 8.312-42.782 42.782-8.312-8.312 42.782-42.782z"/><path d="M783.7 733.635l8.313 8.312-42.783 42.783-8.312-8.312 42.782-42.783z"/><path d="M792.077 741.946l8.312 8.312-42.784 42.784-8.312-8.312 42.784-42.784z"/><path d="M800.324 750.262l8.312 8.312-42.783 42.782-8.312-8.312 42.783-42.782z"/><path d="M808.734 758.574l8.312 8.312-42.783 42.782-8.312-8.312 42.783-42.782z"/><path d="M816.948 766.887l8.312 8.312-42.782 42.782-8.312-8.312 42.782-42.782z"/><path d="M825.26 775.199l8.313 8.312-42.784 42.783-8.312-8.312 42.783-42.783z"/><path d="M833.64 783.512l8.311 8.312-42.782 42.783-8.312-8.312 42.783-42.783z"/><path d="M841.952 791.824l8.312 8.312-42.783 42.782-8.312-8.312 42.783-42.782z"/><path d="M850.231 800.139l8.311 8.31-42.782 42.783-8.311-8.311 42.782-42.782z"/><path d="M858.509 808.449l8.312 8.312-42.785 42.784-8.312-8.311 42.785-42.785z"/><path d="M866.89 816.764l8.312 8.312-42.783 42.782-8.312-8.312 42.783-42.782z"/><path d="M875.204 825.075l8.312 8.312-42.784 42.783-8.312-8.312 42.784-42.783z"/><path d="M883.444 833.39l8.312 8.312-42.781 42.782-8.312-8.312 42.781-42.782z"/><path d="M891.793 841.702l8.311 8.311-42.784 42.784-8.31-8.311 42.783-42.784z"/><path d="M900.14 850.016l8.313 8.312-42.783 42.782-8.312-8.312 42.782-42.782z"/><path d="M908.49 858.327l8.311 8.312-42.782 42.783-8.312-8.312 42.783-42.783z"/><path d="M916.656 866.641l8.312 8.312-42.782 42.783-8.312-8.312 42.782-42.783z"/><path d="M925.042 874.953l8.312 8.312-42.783 42.784-8.313-8.313 42.784-42.783z"/><path d="M933.353 883.269l8.311 8.31-42.781 42.782-8.312-8.31 42.782-42.782z"/><path d="M941.666 891.578l8.313 8.313-42.783 42.783-8.313-8.312 42.783-42.784z"/><path d="M950.017 899.893l8.312 8.312-42.782 42.782-8.312-8.312 42.782-42.782z"/><path d="M958.369 908.204l8.312 8.312-42.784 42.784-8.312-8.312 42.784-42.784z"/><path d="M966.602 916.52l8.313 8.312-42.782 42.782-8.313-8.312 42.782-42.782z"/><path d="M974.994 924.831l8.311 8.312-42.782 42.783-8.312-8.312 42.783-42.783z"/><path d="M983.227 933.144l8.313 8.313-42.782 42.782-8.313-8.312 42.782-42.783z"/><path d="M991.54 941.456l8.312 8.312-42.783 42.784-8.313-8.313 42.784-42.783z"/><path d="M999.933 949.771l8.312 8.312-42.782 42.782-8.312-8.312 42.782-42.782z"/><path d="M1008.164 958.082l8.312 8.313-42.783 42.783-8.312-8.313 42.783-42.783z"/><path d="M1016.477 966.397l8.31 8.31-42.782 42.783-8.31-8.31 42.782-42.783z"/><path d="M1024.706 974.707l8.311 8.311-42.784 42.784-8.31-8.311 42.783-42.784z"/><path d="M1033.101 983.02l8.313 8.313-42.783 42.784-8.313-8.313 42.783-42.784z"/><path d="M1041.414 991.334l8.312 8.312-42.783 42.784-8.312-8.313 42.783-42.783z"/><path d="M1049.812 999.648l8.312 8.312-42.782 42.781-8.312-8.312 42.782-42.781z"/><path d="M1058.125 1007.959l8.312 8.312-42.785 42.784-8.312-8.312 42.785-42.784z"/><path d="M1066.437 1016.274l8.312 8.311-42.782 42.783-8.312-8.312 42.782-42.782z"/><path d="M1074.75 1024.585l8.311 8.312-42.782 42.782-8.312-8.312 42.783-42.782z"/><path d="M1082.975 1032.899l8.313 8.312-42.782 42.782-8.312-8.313 42.781-42.781z"/><path d="M1091.288 1041.21l8.312 8.313-42.784 42.784-8.313-8.312 42.785-42.785z"/><path d="M1099.689 1049.526l8.312 8.312-42.782 42.781-8.312-8.312 42.782-42.781z"/><path d="M1107.912 1057.837l8.312 8.312-42.783 42.784-8.312-8.313 42.783-42.783z"/><path d="M1116.315 1066.15l8.312 8.313-42.781 42.781-8.312-8.312 42.781-42.782z"/><path d="M1124.628 1074.462l8.312 8.312-42.785 42.784-8.311-8.312 42.784-42.784z"/><path d="M1132.848 1082.777l8.313 8.313-42.782 42.781-8.312-8.312 42.781-42.782z"/><path d="M1141.254 1091.088l8.312 8.312-42.783 42.783-8.312-8.312 42.783-42.783z"/><path d="M1149.474 1099.402l8.312 8.312-42.782 42.782-8.312-8.313 42.782-42.781z"/><path d="M1157.786 1107.713l8.312 8.313-42.784 42.784-8.313-8.312 42.785-42.785z"/><path d="M604.911 654.776l11.356-3.043-3.044 11.356-8.312-8.313z"/><path d="M613.223 663.089l11.356-3.044-3.044 11.355-8.312-8.311z"/><path d="M604.911 654.776l3.043-11.357 8.311 8.314-11.354 3.043z"/><path d="M613.223 663.089l3.043-11.358 8.312 8.315-11.355 3.043z"/><path d="M621.536 671.401l11.355-3.041-3.043 11.354-8.312-8.313z"/><path d="M629.848 679.714l11.355-3.043-3.043 11.354-8.312-8.311z"/><path d="M621.536 671.401l3.042-11.355 8.312 8.312-11.354 3.043z"/><path d="M629.848 679.714l3.042-11.356 8.313 8.313-11.355 3.043z"/><path d="M638.16 688.028l11.356-3.043-3.044 11.356-8.312-8.313z"/><path d="M646.472 696.341l11.356-3.044-3.044 11.355-8.312-8.311z"/><path d="M638.16 688.028l3.043-11.357 8.311 8.314-11.354 3.043z"/><path d="M646.472 696.341l3.043-11.358 8.312 8.315-11.355 3.043z"/><path d="M654.786 704.653l11.354-3.041-3.042 11.354-8.312-8.313z"/><path d="M663.098 712.966l11.354-3.042-3.043 11.353-8.311-8.311z"/><path d="M654.786 704.653l3.041-11.355 8.312 8.312-11.353 3.043z"/><path d="M663.098 712.966l3.041-11.356 8.313 8.314-11.354 3.042z"/><path d="M671.409 721.28l11.356-3.043-3.044 11.356-8.312-8.313z"/><path d="M679.721 729.593l11.356-3.044-3.044 11.355-8.312-8.311z"/><path d="M671.409 721.28l3.043-11.356 8.311 8.313-11.354 3.043z"/><path d="M679.721 729.593l3.043-11.358 8.312 8.315-11.355 3.043z"/><path d="M688.035 737.905l11.354-3.041-3.042 11.354-8.312-8.313z"/><path d="M696.347 746.218l11.354-3.042-3.042 11.354-8.312-8.312z"/><path d="M688.035 737.905l3.041-11.355 8.313 8.313-11.354 3.042z"/><path d="M696.347 746.218l3.041-11.356 8.313 8.314-11.354 3.042z"/><path d="M704.658 754.532l11.357-3.043-3.045 11.356-8.312-8.313z"/><path d="M712.97 762.845l11.356-3.044-3.044 11.355-8.312-8.311z"/><path d="M704.658 754.532l3.043-11.356 8.311 8.313-11.354 3.043z"/><path d="M712.97 762.845l3.043-11.358 8.312 8.315-11.355 3.043z"/><path d="M721.284 771.157l11.354-3.041-3.042 11.354-8.312-8.313z"/><path d="M729.596 779.47l11.354-3.042-3.042 11.354-8.312-8.312z"/><path d="M721.284 771.157l3.041-11.355 8.313 8.313-11.354 3.042z"/><path d="M729.596 779.47l3.041-11.356 8.313 8.314-11.354 3.042z"/><path d="M737.908 787.784l11.356-3.043-3.044 11.356-8.312-8.313z"/><path d="M746.22 796.097l11.356-3.043-3.044 11.353-8.312-8.31z"/><path d="M737.908 787.784l3.042-11.356 8.311 8.313-11.353 3.043z"/><path d="M746.22 796.097l3.042-11.358 8.312 8.316-11.354 3.042z"/><path d="M754.533 804.409l11.354-3.041-3.042 11.354-8.312-8.313z"/><path d="M762.845 812.722l11.354-3.042-3.042 11.353-8.312-8.311z"/><path d="M754.533 804.409l3.041-11.354 8.313 8.312-11.354 3.042z"/><path d="M762.845 812.722l3.041-11.356 8.313 8.314-11.354 3.042z"/><path d="M771.157 821.036l11.356-3.043-3.044 11.356-8.312-8.313z"/><path d="M779.469 829.349l11.356-3.043-3.044 11.354-8.312-8.311z"/><path d="M771.157 821.036l3.042-11.356 8.312 8.313-11.354 3.043z"/><path d="M779.469 829.349l3.042-11.358 8.313 8.315-11.355 3.043z"/><path d="M787.782 837.661l11.355-3.041-3.043 11.354-8.312-8.313z"/><path d="M796.094 845.974l11.355-3.042-3.043 11.353-8.312-8.311z"/><path d="M787.782 837.661l3.042-11.355 8.312 8.312-11.354 3.043z"/><path d="M796.094 845.974l3.042-11.356 8.313 8.314-11.355 3.042z"/><path d="M804.406 854.288l11.356-3.043-3.044 11.356-8.312-8.313z"/><path d="M812.718 862.601l11.356-3.044-3.044 11.355-8.312-8.311z"/><path d="M804.406 854.288l3.043-11.356 8.311 8.313-11.354 3.043z"/><path d="M812.718 862.601l3.043-11.358 8.312 8.315-11.355 3.043z"/><path d="M821.032 870.913l11.354-3.041-3.042 11.354-8.312-8.313z"/><path d="M829.344 879.226l11.354-3.042-3.043 11.353-8.311-8.311z"/><path d="M821.032 870.913l3.041-11.355 8.312 8.312-11.353 3.043z"/><path d="M829.344 879.226l3.041-11.356 8.313 8.314-11.354 3.042z"/><path d="M837.655 887.54l11.356-3.043-3.044 11.356-8.312-8.313z"/><path d="M845.967 895.853l11.356-3.044-3.044 11.355-8.312-8.311z"/><path d="M837.655 887.54l3.043-11.356 8.311 8.313-11.354 3.043z"/><path d="M845.967 895.853l3.043-11.358 8.312 8.315-11.355 3.043z"/><path d="M854.281 904.165l11.354-3.041-3.042 11.354-8.312-8.313z"/><path d="M862.593 912.478l11.354-3.042-3.043 11.354-8.311-8.312z"/><path d="M854.281 904.165l3.041-11.355 8.313 8.313-11.354 3.042z"/><path d="M862.593 912.478l3.041-11.356 8.313 8.314-11.354 3.042z"/><path d="M870.904 920.792l11.357-3.043-3.044 11.355-8.313-8.312z"/><path d="M879.217 929.104l11.355-3.042-3.044 11.354-8.311-8.312z"/><path d="M870.904 920.792l3.043-11.356 8.311 8.313-11.354 3.043z"/><path d="M879.217 929.104l3.043-11.357 8.311 8.315-11.354 3.042z"/><path d="M887.529 937.417l11.356-3.041-3.043 11.354-8.313-8.313z"/><path d="M895.842 945.73l11.354-3.042-3.042 11.354-8.312-8.312z"/><path d="M887.529 937.417l3.042-11.355 8.313 8.313-11.355 3.042z"/><path d="M895.842 945.73l3.041-11.356 8.313 8.314-11.354 3.042z"/><path d="M904.154 954.044l11.356-3.043-3.043 11.356-8.313-8.313z"/><path d="M912.467 962.357l11.355-3.043-3.045 11.353-8.31-8.31z"/><path d="M904.154 954.044l3.042-11.356 8.312 8.313-11.354 3.043z"/><path d="M912.467 962.357L915.508 951l8.312 8.314-11.353 3.043z"/><path d="M920.779 970.669l11.354-3.041-3.041 11.354-8.313-8.313z"/><path d="M929.092 978.982l11.353-3.043-3.042 11.353-8.311-8.31z"/><path d="M920.779 970.669l3.041-11.355 8.313 8.312-11.354 3.043z"/><path d="M929.092 978.982l3.041-11.356 8.312 8.313-11.353 3.043z"/><path d="M937.403 987.296l11.356-3.043-3.044 11.356-8.312-8.313z"/><path d="M945.715 995.609l11.355-3.043-3.043 11.353-8.312-8.31z"/><path d="M937.403 987.296l3.042-11.357 8.312 8.314-11.354 3.043z"/><path d="M945.715 995.609l3.043-11.358 8.311 8.315-11.354 3.043z"/><path d="M954.029 1003.921l11.354-3.041-3.043 11.354-8.311-8.313z"/><path d="M962.34 1012.234l11.355-3.041-3.043 11.351-8.312-8.31z"/><path d="M954.029 1003.921l3.04-11.355 8.313 8.312-11.353 3.043z"/><path d="M962.34 1012.234l3.041-11.356 8.314 8.315-11.355 3.041z"/><path d="M970.652 1020.548l11.356-3.043-3.043 11.356-8.313-8.313z"/><path d="M978.965 1028.861l11.355-3.043-3.044 11.353-8.311-8.31z"/><path d="M970.652 1020.548l3.043-11.355 8.311 8.312-11.354 3.043z"/><path d="M978.965 1028.861l3.041-11.358 8.312 8.315-11.353 3.043z"/><path d="M987.277 1037.173l11.356-3.041-3.043 11.354-8.313-8.313z"/><path d="M995.59 1045.486l11.354-3.043-3.042 11.355-8.312-8.312z"/><path d="M987.277 1037.173l3.041-11.355 8.313 8.312-11.354 3.043z"/><path d="M995.59 1045.486l3.041-11.356 8.313 8.313-11.354 3.043z"/><path d="M1003.901 1053.8l11.357-3.043-3.045 11.356-8.312-8.313z"/><path d="M1012.213 1062.113l11.356-3.045-3.044 11.355-8.312-8.31z"/><path d="M1003.901 1053.8l3.043-11.357 8.312 8.314-11.355 3.043z"/><path d="M1012.213 1062.113l3.043-11.358 8.312 8.315-11.355 3.043z"/><path d="M1020.527 1070.425l11.354-3.041-3.042 11.354-8.312-8.313z"/><path d="M1028.839 1078.738l11.354-3.043-3.043 11.355-8.311-8.312z"/><path d="M1020.527 1070.425l3.041-11.355 8.313 8.312-11.354 3.043z"/><path d="M1028.839 1078.738l3.041-11.356 8.313 8.313-11.354 3.043z"/><path d="M1037.15 1087.052l11.357-3.043-3.044 11.356-8.313-8.313z"/><path d="M1045.463 1095.365l11.355-3.043-3.044 11.353-8.311-8.31z"/><path d="M1037.15 1087.052l3.043-11.357 8.311 8.314-11.354 3.043z"/><path d="M1045.463 1095.365l3.043-11.358 8.311 8.315-11.354 3.043z"/><path d="M1053.775 1103.677l11.356-3.041-3.043 11.354-8.313-8.313z"/><path d="M1062.088 1111.99l11.354-3.043-3.042 11.355-8.312-8.312z"/><path d="M1053.775 1103.677l3.042-11.355 8.313 8.312-11.355 3.043z"/><path d="M1062.088 1111.99l3.041-11.356 8.313 8.313-11.354 3.043z"/><path d="M1070.4 1120.304l11.356-3.043-3.044 11.356-8.312-8.313z"/><path d="M1078.712 1128.617l11.356-3.043-3.045 11.355-8.311-8.312z"/><path d="M1070.4 1120.304l3.042-11.357 8.312 8.314-11.354 3.043z"/><path d="M1078.712 1128.617l3.042-11.358 8.312 8.315-11.354 3.043z"/><path d="M1087.025 1136.929l11.355-3.041-3.043 11.354-8.312-8.313z"/><path d="M1095.337 1145.242l11.354-3.043-3.043 11.355-8.311-8.312z"/><path d="M1087.025 1136.929l3.041-11.355 8.313 8.312-11.354 3.043z"/><path d="M1095.337 1145.242l3.042-11.356 8.312 8.313-11.354 3.043z"/><path d="M1103.649 1153.556l11.356-3.043-3.044 11.356-8.312-8.313z"/><path d="M1111.961 1161.869l11.355-3.043-3.043 11.353-8.312-8.31z"/><path d="M1103.649 1153.556l3.042-11.357 8.312 8.314-11.354 3.043z"/><path d="M1111.961 1161.869l3.043-11.358 8.311 8.315-11.354 3.043z"/><path d="M1120.275 1170.181l11.354-3.041-3.043 11.354-8.311-8.313z"/><path d="M1120.275 1170.181l3.04-11.355 8.313 8.312-11.353 3.043z"/><path d="M610.155 691.06l8.312 8.311-42.783 42.783-8.312-8.312 42.783-42.782z"/><path d="M618.521 699.376l8.312 8.312-42.782 42.783-8.312-8.312 42.782-42.783z"/><path d="M626.752 707.682l8.311 8.311-42.782 42.783-8.312-8.312 42.783-42.782z"/><path d="M635.147 716.001l8.312 8.312-42.784 42.784-8.312-8.312 42.784-42.784z"/><path d="M643.403 724.311l8.312 8.312-42.783 42.783-8.312-8.312 42.783-42.783z"/><path d="M651.772 732.628l8.312 8.312-42.783 42.782-8.312-8.312 42.783-42.782z"/><path d="M660.028 740.936l8.312 8.312-42.783 42.782-8.312-8.312 42.783-42.782z"/><path d="M668.398 749.254l8.312 8.312-42.784 42.783-8.312-8.312 42.784-42.783z"/><path d="M676.65 757.563l8.312 8.312-42.782 42.782-8.312-8.312 42.782-42.782z"/><path d="M685.022 765.88l8.312 8.311-42.782 42.783-8.312-8.312 42.782-42.782z"/><path d="M693.275 774.187l8.312 8.312-42.782 42.783-8.312-8.312 42.782-42.783z"/><path d="M701.648 782.505l8.312 8.312-42.783 42.783-8.312-8.312 42.783-42.783z"/><path d="M709.899 790.814l8.312 8.312-42.782 42.783-8.312-8.312 42.782-42.783z"/><path d="M718.305 799.134l8.312 8.312-42.782 42.782-8.312-8.312 42.782-42.782z"/><path d="M726.523 807.44l8.312 8.311-42.782 42.783-8.312-8.312 42.782-42.782z"/><path d="M734.9 815.756l8.311 8.312-42.783 42.784-8.312-8.312 42.784-42.784z"/><path d="M743.147 824.066l8.312 8.312-42.783 42.782-8.312-8.312 42.783-42.782z"/><path d="M751.524 832.382l8.312 8.312-42.783 42.783-8.312-8.312 42.783-42.783z"/><path d="M759.77 840.69l8.313 8.313-42.783 42.782-8.311-8.312 42.781-42.783z"/><path d="M768.15 849.008l8.312 8.312-42.784 42.784-8.312-8.312 42.784-42.784z"/><path d="M776.394 857.317l8.312 8.312-42.782 42.783-8.312-8.312 42.782-42.783z"/><path d="M784.774 865.634l8.312 8.312-42.782 42.782-8.312-8.312 42.782-42.782z"/><path d="M793.019 873.942l8.312 8.312-42.782 42.782-8.312-8.312 42.782-42.782z"/><path d="M801.435 882.263l8.312 8.312-42.783 42.783-8.312-8.312 42.783-42.783z"/><path d="M809.642 890.57l8.312 8.311-42.783 42.782-8.312-8.311 42.783-42.782z"/><path d="M818.06 898.888l8.313 8.313-42.782 42.782-8.313-8.313 42.782-42.782z"/><path d="M826.365 907.198l8.312 8.31-42.777 42.79-8.312-8.31 42.777-42.79z"/><path d="M834.65 915.512l8.312 8.312-42.783 42.783-8.312-8.312 42.783-42.783z"/><path d="M842.963 923.825l8.312 8.312-42.782 42.782-8.312-8.312 42.782-42.782z"/><path d="M851.275 932.137l8.312 8.312-42.782 42.782-8.312-8.312 42.782-42.782z"/><path d="M859.616 940.45l8.312 8.31-42.777 42.79-8.312-8.311 42.777-42.789z"/><path d="M867.901 948.763l8.312 8.312-42.784 42.784-8.312-8.312 42.784-42.784z"/><path d="M876.242 957.077l8.312 8.31-42.776 42.788-8.313-8.31 42.777-42.788z"/><path d="M884.564 965.392l8.312 8.312-42.782 42.782-8.312-8.312 42.782-42.782z"/><path d="M892.869 973.702l8.312 8.31-42.776 42.789-8.313-8.31 42.777-42.789z"/><path d="M901.151 982.015l8.312 8.312-42.783 42.783-8.312-8.312 42.783-42.783z"/><path d="M909.503 990.332l8.312 8.312-42.781 42.781-8.312-8.312 42.781-42.781z"/><path d="M917.737 998.637l8.313 8.312-42.783 42.783-8.313-8.312 42.783-42.783z"/><path d="M926.13 1006.957l8.312 8.312-42.782 42.781-8.312-8.312 42.782-42.781z"/><path d="M934.443 1015.267l8.312 8.312-42.784 42.784-8.312-8.312 42.784-42.784z"/><path d="M942.674 1023.578l8.313 8.313-42.782 42.782-8.313-8.313 42.782-42.782z"/><path d="M951.068 1031.894l8.312 8.312-42.782 42.782-8.312-8.312 42.782-42.782z"/><path d="M959.33 1040.202l8.312 8.31-42.777 42.79-8.312-8.31 42.777-42.79z"/><path d="M967.611 1048.515l8.313 8.313-42.784 42.783-8.313-8.312 42.784-42.784z"/><path d="M976.007 1056.835l8.312 8.312-42.782 42.782-8.312-8.312 42.782-42.782z"/><path d="M984.235 1065.14l8.313 8.312-42.783 42.783-8.313-8.312 42.783-42.783z"/><path d="M992.463 1073.45l8.311 8.31-42.782 42.783-8.311-8.311 42.782-42.782z"/><path d="M1000.947 1081.772l8.312 8.312-42.783 42.783-8.312-8.312 42.783-42.783z"/><path d="M1009.205 1090.08l8.312 8.31-42.777 42.79-8.312-8.31 42.777-42.79z"/><path d="M1017.572 1098.398l8.312 8.312-42.782 42.782-8.312-8.312 42.782-42.782z"/><path d="M1025.83 1106.705l8.313 8.31-42.777 42.79-8.313-8.31 42.777-42.79z"/><path d="M1034.109 1115.018l8.313 8.313-42.784 42.783-8.313-8.312 42.784-42.784z"/><path d="M1042.332 1123.328l8.311 8.31-42.782 42.783-8.311-8.311 42.782-42.782z"/><path d="M1050.824 1131.65l8.312 8.312-42.781 42.782-8.312-8.312 42.781-42.782z"/><path d="M1058.955 1139.953l8.312 8.31-42.783 42.783-8.31-8.311 42.781-42.782z"/><path d="M1067.45 1148.275l8.312 8.312-42.783 42.783-8.312-8.312 42.783-42.783z"/><path d="M1075.705 1156.583l8.312 8.31-42.777 42.79-8.312-8.31 42.777-42.79z"/><path d="M1083.982 1164.896l8.313 8.313-42.782 42.781-8.312-8.312 42.781-42.782z"/><path d="M1092.202 1173.204l8.311 8.311-42.782 42.783-8.311-8.312 42.782-42.782z"/><path d="M1100.703 1181.527l8.312 8.312-42.783 42.783-8.312-8.312 42.783-42.783z"/><path d="M1108.92 1189.835l8.313 8.313-42.782 42.781-8.312-8.312 42.781-42.782z"/><path d="M1117.329 1198.152l8.312 8.312-42.783 42.783-8.312-8.312 42.783-42.783z"/><path d="M1125.582 1206.46l8.312 8.31-42.777 42.789-8.312-8.31 42.777-42.789z"/><path d="M1133.858 1214.772l8.312 8.313-42.783 42.783-8.313-8.312 42.784-42.784z"/><path d="M1142.266 1223.093l8.312 8.311-42.781 42.782-8.312-8.312 42.781-42.781z"/><path d="M1150.481 1231.397l8.313 8.313-42.783 42.783-8.313-8.313 42.783-42.783z"/><path d="M605.918 786.772l11.355-3.041-3.043 11.354-8.312-8.313z"/><path d="M605.918 786.772l3.041-11.355 8.314 8.314-11.355 3.041z"/><path d="M614.23 795.087l11.356-3.043-3.044 11.355-8.312-8.312z"/><path d="M622.542 803.399l11.356-3.043-3.044 11.355-8.312-8.312z"/><path d="M614.23 795.087l3.043-11.356 8.311 8.314-11.354 3.042z"/><path d="M622.542 803.399l3.043-11.356 8.311 8.314-11.354 3.042z"/><path d="M630.856 811.712l11.354-3.041-3.042 11.353-8.312-8.312z"/><path d="M639.168 820.024l11.354-3.041-3.042 11.354-8.312-8.313z"/><path d="M630.856 811.712l3.04-11.355 8.313 8.314-11.353 3.041z"/><path d="M639.168 820.024l3.04-11.355 8.314 8.314-11.354 3.041z"/><path d="M647.48 828.339l11.355-3.043-3.043 11.355-8.312-8.312z"/><path d="M655.792 836.651l11.355-3.043-3.043 11.355-8.312-8.312z"/><path d="M647.48 828.339l3.042-11.356 8.311 8.313-11.353 3.043z"/><path d="M655.792 836.651l3.042-11.356 8.312 8.314-11.354 3.042z"/><path d="M664.105 844.964l11.354-3.041-3.042 11.353-8.312-8.312z"/><path d="M672.417 853.276l11.354-3.042-3.042 11.355-8.312-8.313z"/><path d="M664.105 844.964l3.041-11.355 8.313 8.313-11.354 3.042z"/><path d="M672.417 853.276l3.041-11.355 8.313 8.313-11.354 3.042z"/><path d="M680.729 861.591l11.356-3.043-3.044 11.355-8.312-8.312z"/><path d="M689.041 869.903l11.356-3.043-3.044 11.356-8.312-8.313z"/><path d="M680.729 861.591l3.042-11.357 8.312 8.315-11.354 3.042z"/><path d="M689.041 869.903l3.042-11.357 8.313 8.315-11.355 3.042z"/><path d="M697.354 878.216l11.355-3.041-3.043 11.353-8.312-8.312z"/><path d="M705.666 886.528l11.355-3.042-3.043 11.355-8.312-8.313z"/><path d="M697.354 878.216l3.042-11.355 8.312 8.313-11.354 3.042z"/><path d="M705.666 886.528l3.042-11.355 8.313 8.313-11.355 3.042z"/><path d="M713.978 894.843l11.356-3.043-3.044 11.355-8.312-8.312z"/><path d="M722.29 903.155l11.356-3.043-3.044 11.356-8.312-8.313z"/><path d="M713.978 894.843l3.043-11.357 8.311 8.315-11.354 3.042z"/><path d="M722.29 903.155l3.043-11.357 8.312 8.315-11.355 3.042z"/><path d="M730.604 911.469l11.354-3.042-3.043 11.353-8.311-8.311z"/><path d="M738.915 919.78l11.355-3.041-3.043 11.354-8.312-8.313z"/><path d="M730.604 911.469l3.041-11.356 8.312 8.313-11.353 3.043z"/><path d="M738.915 919.78l3.042-11.355 8.313 8.314-11.355 3.041z"/><path d="M747.227 928.095l11.356-3.043-3.044 11.355-8.312-8.312z"/><path d="M755.539 936.407l11.356-3.043-3.044 11.356-8.312-8.313z"/><path d="M747.227 928.095l3.043-11.356 8.311 8.314-11.354 3.042z"/><path d="M755.539 936.407l3.043-11.356 8.312 8.314-11.355 3.042z"/><path d="M763.853 944.72l11.354-3.041-3.042 11.354-8.312-8.313z"/><path d="M772.165 953.033l11.354-3.041-3.042 11.353-8.312-8.312z"/><path d="M763.853 944.72l3.041-11.355 8.313 8.314-11.354 3.041z"/><path d="M772.165 953.033l3.041-11.356 8.313 8.315-11.354 3.041z"/><path d="M780.476 961.347l11.357-3.043-3.045 11.356-8.312-8.313z"/><path d="M788.788 969.66l11.356-3.043-3.044 11.355-8.312-8.312z"/><path d="M780.476 961.347l3.043-11.355 8.311 8.312-11.354 3.043z"/><path d="M788.788 969.66l3.043-11.358 8.312 8.315-11.355 3.043z"/><path d="M797.102 977.972l11.354-3.041-3.042 11.354-8.312-8.313z"/><path d="M805.414 986.285l11.354-3.041-3.042 11.353-8.312-8.312z"/><path d="M797.102 977.972l3.041-11.355 8.313 8.314-11.354 3.041z"/><path d="M805.414 986.285l3.041-11.356 8.313 8.315-11.354 3.041z"/><path d="M813.726 994.599l11.356-3.043-3.044 11.356-8.312-8.313z"/><path d="M822.038 1002.912l11.356-3.043-3.044 11.353-8.312-8.31z"/><path d="M813.726 994.599l3.042-11.355 8.311 8.312-11.353 3.043z"/><path d="M822.038 1002.912l3.042-11.358 8.312 8.317-11.354 3.041z"/><path d="M830.351 1011.224l11.354-3.041-3.042 11.354-8.312-8.313z"/><path d="M838.663 1019.537l11.354-3.041-3.042 11.353-8.312-8.312z"/><path d="M830.351 1011.224l3.041-11.353 8.313 8.312-11.354 3.041z"/><path d="M838.663 1019.537l3.041-11.356 8.313 8.315-11.354 3.041z"/><path d="M846.975 1027.851l11.356-3.043-3.044 11.356-8.312-8.313z"/><path d="M855.287 1036.164l11.356-3.043-3.044 11.355-8.312-8.312z"/><path d="M846.975 1027.851l3.042-11.355 8.312 8.312-11.354 3.043z"/><path d="M855.287 1036.164l3.042-11.358 8.313 8.315-11.355 3.043z"/><path d="M863.6 1044.476l11.355-3.041-3.043 11.354-8.312-8.313z"/><path d="M871.912 1052.789l11.355-3.043-3.042 11.355-8.313-8.312z"/><path d="M863.6 1044.476l3.042-11.355 8.312 8.312-11.354 3.043z"/><path d="M871.912 1052.789l3.041-11.356 8.314 8.313-11.355 3.043z"/><path d="M880.225 1061.103l11.355-3.043-3.044 11.356-8.311-8.313z"/><path d="M888.536 1069.416l11.357-3.043-3.045 11.355-8.312-8.312z"/><path d="M880.225 1061.103l3.042-11.357 8.311 8.314-11.353 3.043z"/><path d="M888.536 1069.416l3.042-11.358 8.313 8.315-11.355 3.043z"/><path d="M896.85 1077.728l11.354-3.041-3.042 11.354-8.312-8.313z"/><path d="M905.162 1086.041l11.354-3.041-3.043 11.353-8.311-8.312z"/><path d="M896.85 1077.728l3.041-11.355 8.312 8.312-11.353 3.043z"/><path d="M905.162 1086.041l3.041-11.356 8.313 8.315-11.354 3.041z"/><path d="M913.473 1094.355l11.356-3.043-3.044 11.355-8.312-8.312z"/><path d="M921.785 1102.667l11.356-3.042-3.043 11.355-8.313-8.313z"/><path d="M913.473 1094.355l3.043-11.355 8.311 8.312-11.354 3.043z"/><path d="M921.785 1102.667l3.043-11.357 8.312 8.315-11.355 3.042z"/><path d="M930.099 1110.98l11.354-3.041-3.043 11.353-8.311-8.312z"/><path d="M938.41 1119.292l11.356-3.041-3.043 11.354-8.313-8.313z"/><path d="M930.099 1110.98l3.041-11.355 8.313 8.314-11.354 3.041z"/><path d="M938.41 1119.292l3.041-11.355 8.315 8.314-11.356 3.041z"/><path d="M946.723 1127.607l11.355-3.043-3.044 11.355-8.311-8.312z"/><path d="M955.034 1135.919l11.357-3.043-3.045 11.356-8.312-8.313z"/><path d="M946.723 1127.607l3.043-11.356 8.31 8.313-11.353 3.043z"/><path d="M955.034 1135.919l3.043-11.357 8.312 8.316-11.355 3.041z"/><path d="M963.348 1144.232l11.354-3.041-3.042 11.353-8.312-8.312z"/><path d="M971.66 1152.544l11.354-3.041-3.042 11.354-8.312-8.313z"/><path d="M963.348 1144.232l3.041-11.354 8.312 8.313-11.353 3.041z"/><path d="M971.66 1152.544l3.041-11.355 8.313 8.314-11.354 3.041z"/><path d="M979.973 1160.859l11.355-3.043-3.044 11.355-8.311-8.312z"/><path d="M988.284 1169.171l11.356-3.043-3.044 11.354-8.312-8.311z"/><path d="M979.973 1160.859l3.041-11.356 8.311 8.313-11.352 3.043z"/><path d="M988.284 1169.171l3.042-11.357 8.313 8.316-11.355 3.041z"/><path d="M996.598 1177.484l11.353-3.041-3.042 11.353-8.311-8.312z"/><path d="M1004.909 1185.796l11.355-3.041-3.043 11.354-8.312-8.313z"/><path d="M996.598 1177.484l3.041-11.354 8.312 8.313-11.353 3.041z"/><path d="M1004.909 1185.796l3.041-11.355 8.314 8.314-11.355 3.041z"/><path d="M1013.221 1194.111l11.355-3.043-3.043 11.355-8.312-8.312z"/><path d="M1021.533 1202.423l11.356-3.043-3.043 11.356-8.313-8.313z"/><path d="M1013.221 1194.111l3.043-11.356 8.31 8.315-11.353 3.041z"/><path d="M1021.533 1202.423l3.042-11.357 8.312 8.316-11.354 3.041z"/><path d="M1029.846 1210.736l11.355-3.041-3.043 11.353-8.312-8.312z"/><path d="M1038.158 1219.048l11.355-3.041-3.042 11.354-8.313-8.313z"/><path d="M1029.846 1210.736l3.041-11.354 8.312 8.313-11.353 3.041z"/><path d="M1038.158 1219.048l3.041-11.355 8.314 8.314-11.355 3.041z"/><path d="M1046.471 1227.363l11.355-3.043-3.044 11.355-8.311-8.312z"/><path d="M1054.782 1235.675l11.356-3.043-3.044 11.356-8.312-8.313z"/><path d="M1046.471 1227.363l3.042-11.356 8.311 8.313-11.353 3.043z"/><path d="M1054.782 1235.675l3.042-11.357 8.313 8.314-11.355 3.043z"/><path d="M1063.096 1243.988l11.354-3.041-3.042 11.353-8.312-8.312z"/><path d="M1071.408 1252.3l11.354-3.041-3.043 11.354-8.311-8.313z"/><path d="M1063.096 1243.988l3.041-11.356 8.312 8.313-11.353 3.043z"/><path d="M1071.408 1252.3l3.041-11.355 8.313 8.314-11.354 3.041z"/><path d="M1079.719 1260.615l11.356-3.043-3.044 11.355-8.312-8.312z"/><path d="M1088.031 1268.927l11.356-3.043-3.043 11.356-8.313-8.313z"/><path d="M1079.719 1260.615l3.043-11.356 8.311 8.313-11.354 3.043z"/><path d="M1088.031 1268.927l3.043-11.357 8.312 8.314-11.355 3.043z"/><path d="M1096.345 1277.24l11.354-3.041-3.043 11.353-8.311-8.312z"/><path d="M1096.345 1277.24l3.041-11.356 8.313 8.315-11.354 3.041z"/><path d="M1104.656 1285.552l3.041-11.355 8.315 8.314-11.356 3.041z"/></svg>