<svg baseProfile="tiny" xmlns="http://www.w3.org/2000/svg"><path stroke-linejoin="round" d="M202.353 222.876l10.316 7.463"/><path stroke-linejoin="round" d="M202.353 222.876l-10.317 7.463"/><path stroke-linejoin="round" d="M202.353 222.876l-3.951-12.182"/><path stroke-linejoin="round" d="M192.036 230.339l3.951 12.185"/><path stroke-linejoin="round" d="M198.402 210.694H185.67"/><path stroke-linejoin="round" d="M198.402 210.694l3.951-12.183"/><path stroke-linejoin="round" d="M212.669 230.339h12.842"/><path stroke-linejoin="round" d="M212.669 230.339l-3.95 12.185"/><path stroke-linejoin="round" d="M185.67 210.694h12.732"/><path stroke-linejoin="round" d="M185.67 210.694l-10.427 7.463"/><path stroke-linejoin="round" d="M185.67 210.694l-3.951-12.183"/><path stroke-linejoin="round" d="M195.987 242.524h12.732"/><path stroke-linejoin="round" d="M195.987 242.524l-10.317 7.463"/><path stroke-linejoin="round" d="M195.987 242.524l-3.951-12.185"/><path stroke-linejoin="round" d="M202.353 198.511l-3.951 12.183"/><path stroke-linejoin="round" d="M202.353 198.511l-10.317-7.463"/><path stroke-linejoin="round" d="M202.353 198.511l10.316-7.463"/><path stroke-linejoin="round" d="M208.719 242.524h-12.732"/><path stroke-linejoin="round" d="M208.719 242.524l3.95-12.185"/><path stroke-linejoin="round" d="M208.719 242.524l10.317 7.463"/><path stroke-linejoin="round" d="M225.511 230.339h-12.842"/><path stroke-linejoin="round" d="M225.511 230.339l3.95-12.182"/><path stroke-linejoin="round" d="M225.511 230.339l3.95 12.185"/><path stroke-linejoin="round" d="M175.243 218.157l-10.317-7.463"/><path stroke-linejoin="round" d="M175.243 218.157l10.427-7.463"/><path stroke-linejoin="round" d="M181.719 198.511h-12.841"/><path stroke-linejoin="round" d="M181.719 198.511l10.317-7.463"/><path stroke-linejoin="round" d="M181.719 198.511l3.951 12.183"/><path stroke-linejoin="round" d="M185.67 249.987l-3.951 12.182"/><path stroke-linejoin="round" d="M185.67 249.987l-10.427-7.463"/><path stroke-linejoin="round" d="M185.67 249.987l10.317-7.463"/><path stroke-linejoin="round" d="M192.036 191.048l3.951-12.183"/><path stroke-linejoin="round" d="M192.036 191.048l10.317 7.463"/><path stroke-linejoin="round" d="M192.036 191.048l-10.317 7.463"/><path stroke-linejoin="round" d="M212.669 191.048l10.318 7.463"/><path stroke-linejoin="round" d="M212.669 191.048l-10.316 7.463"/><path stroke-linejoin="round" d="M212.669 191.048l-3.95-12.183"/><path stroke-linejoin="round" d="M219.036 249.987l-10.317-7.463"/><path stroke-linejoin="round" d="M219.036 249.987l10.425-7.463"/><path stroke-linejoin="round" d="M219.036 249.987l3.951 12.182"/><path stroke-linejoin="round" d="M229.461 242.524l10.319 7.463"/><path stroke-linejoin="round" d="M229.461 242.524l-10.425 7.463"/><path stroke-linejoin="round" d="M229.461 242.524l-3.95-12.185"/><path stroke-linejoin="round" d="M229.461 218.157l-3.95 12.182"/><path stroke-linejoin="round" d="M229.461 218.157l-10.425-7.463"/><path stroke-linejoin="round" d="M229.461 218.157l10.319-7.463"/><path stroke-linejoin="round" d="M164.926 210.694h-12.731"/><path stroke-linejoin="round" d="M164.926 210.694l3.952-12.183"/><path stroke-linejoin="round" d="M164.926 210.694l10.317 7.463"/><path stroke-linejoin="round" d="M168.878 198.511h12.841"/><path stroke-linejoin="round" d="M168.878 198.511l-3.952 12.183"/><path stroke-linejoin="round" d="M168.878 198.511l-10.317-7.463"/><path stroke-linejoin="round" d="M175.243 242.524l10.427 7.463"/><path stroke-linejoin="round" d="M175.243 242.524l-10.317 7.463"/><path stroke-linejoin="round" d="M181.719 262.169h-12.841"/><path stroke-linejoin="round" d="M181.719 262.169l3.951-12.182"/><path stroke-linejoin="round" d="M181.719 262.169l3.951 12.183"/><path stroke-linejoin="round" d="M195.987 178.865h12.732"/><path stroke-linejoin="round" d="M195.987 178.865l-3.951 12.183"/><path stroke-linejoin="round" d="M195.987 178.865l-3.951-12.182"/><path stroke-linejoin="round" d="M208.719 178.865h-12.732"/><path stroke-linejoin="round" d="M208.719 178.865l3.95-12.182"/><path stroke-linejoin="round" d="M208.719 178.865l3.95 12.183"/><path stroke-linejoin="round" d="M219.036 210.694l3.951-12.183"/><path stroke-linejoin="round" d="M219.036 210.694l10.425 7.463"/><path stroke-linejoin="round" d="M222.987 262.169h12.842"/><path stroke-linejoin="round" d="M222.987 262.169l-3.951-12.182"/><path stroke-linejoin="round" d="M222.987 198.511h12.842"/><path stroke-linejoin="round" d="M222.987 198.511l-3.951 12.183"/><path stroke-linejoin="round" d="M222.987 198.511l-10.318-7.463"/><path stroke-linejoin="round" d="M239.78 249.987h12.73"/><path stroke-linejoin="round" d="M239.78 249.987l-3.951 12.182"/><path stroke-linejoin="round" d="M239.78 249.987l-10.319-7.463"/><path stroke-linejoin="round" d="M239.78 210.694h12.73"/><path stroke-linejoin="round" d="M239.78 210.694l-10.319 7.463"/><path stroke-linejoin="round" d="M239.78 210.694l-3.951-12.183"/><path stroke-linejoin="round" d="M152.195 210.694h12.731"/><path stroke-linejoin="round" d="M152.195 210.694l-10.426 7.463"/><path stroke-linejoin="round" d="M152.195 210.694l-3.951-12.183"/><path stroke-linejoin="round" d="M158.561 191.048l10.317 7.463"/><path stroke-linejoin="round" d="M158.561 191.048l-10.317 7.463"/><path stroke-linejoin="round" d="M158.561 191.048l-3.952-12.183"/><path stroke-linejoin="round" d="M164.926 249.987h-12.731"/><path stroke-linejoin="round" d="M164.926 249.987l10.317-7.463"/><path stroke-linejoin="round" d="M164.926 249.987l3.952 12.182"/><path stroke-linejoin="round" d="M168.878 262.169h12.841"/><path stroke-linejoin="round" d="M168.878 262.169l-10.317 7.574"/><path stroke-linejoin="round" d="M168.878 262.169l-3.952-12.182"/><path stroke-linejoin="round" d="M185.67 274.352l10.317 7.464"/><path stroke-linejoin="round" d="M185.67 274.352l-10.427 7.464"/><path stroke-linejoin="round" d="M185.67 274.352l-3.951-12.183"/><path stroke-linejoin="round" d="M192.036 166.683l-10.317-7.464"/><path stroke-linejoin="round" d="M192.036 166.683l10.317-7.464"/><path stroke-linejoin="round" d="M192.036 166.683l3.951 12.182"/><path stroke-linejoin="round" d="M212.669 166.683l-3.95 12.182"/><path stroke-linejoin="round" d="M212.669 166.683l-10.316-7.464"/><path stroke-linejoin="round" d="M212.669 166.683l10.318-7.464"/><path stroke-linejoin="round" d="M235.829 262.169h-12.842"/><path stroke-linejoin="round" d="M235.829 262.169l3.951-12.182"/><path stroke-linejoin="round" d="M235.829 198.511h-12.842"/><path stroke-linejoin="round" d="M235.829 198.511l10.316-7.463"/><path stroke-linejoin="round" d="M235.829 198.511l3.951 12.183"/><path stroke-linejoin="round" d="M252.51 249.987h-12.73"/><path stroke-linejoin="round" d="M252.51 249.987l10.427-7.463"/><path stroke-linejoin="round" d="M252.51 249.987l3.951 12.182"/><path stroke-linejoin="round" d="M252.51 210.694h-12.73"/><path stroke-linejoin="round" d="M252.51 210.694l3.951-12.183"/><path stroke-linejoin="round" d="M252.51 210.694l10.427 7.463"/><path stroke-linejoin="round" d="M141.769 218.157l-3.952 12.182"/><path stroke-linejoin="round" d="M141.769 218.157l-10.317-7.463"/><path stroke-linejoin="round" d="M141.769 218.157l10.426-7.463"/><path stroke-linejoin="round" d="M148.244 198.511l10.317-7.463"/><path stroke-linejoin="round" d="M148.244 198.511l3.951 12.183"/><path stroke-linejoin="round" d="M152.195 249.987h12.731"/><path stroke-linejoin="round" d="M152.195 249.987l-3.951 12.182"/><path stroke-linejoin="round" d="M152.195 249.987l-10.426-7.463"/><path stroke-linejoin="round" d="M154.609 178.865h-12.84"/><path stroke-linejoin="round" d="M154.609 178.865l3.952-12.182"/><path stroke-linejoin="round" d="M154.609 178.865l3.952 12.183"/><path stroke-linejoin="round" d="M158.561 269.743l-3.952 12.073"/><path stroke-linejoin="round" d="M158.561 269.743l-10.317-7.574"/><path stroke-linejoin="round" d="M158.561 269.743l10.317-7.574"/><path stroke-linejoin="round" d="M175.243 281.816l10.427-7.464"/><path stroke-linejoin="round" d="M181.719 159.219h-12.841"/><path stroke-linejoin="round" d="M181.719 159.219l3.951-12.182"/><path stroke-linejoin="round" d="M181.719 159.219l10.317 7.464"/><path stroke-linejoin="round" d="M195.987 281.816h12.732"/><path stroke-linejoin="round" d="M195.987 281.816l-3.951 12.183"/><path stroke-linejoin="round" d="M195.987 281.816l-10.317-7.464"/><path stroke-linejoin="round" d="M202.353 159.219l10.316 7.464"/><path stroke-linejoin="round" d="M202.353 159.219l-10.317 7.464"/><path stroke-linejoin="round" d="M202.353 159.219l-3.951-12.182"/><path stroke-linejoin="round" d="M222.987 159.219h12.842"/><path stroke-linejoin="round" d="M222.987 159.219l-10.318 7.464"/><path stroke-linejoin="round" d="M222.987 159.219l-3.951-12.182"/><path stroke-linejoin="round" d="M246.145 191.048l10.316 7.463"/><path stroke-linejoin="round" d="M246.145 191.048l-10.316 7.463"/><path stroke-linejoin="round" d="M246.145 191.048l-3.951-12.183"/><path stroke-linejoin="round" d="M256.461 262.169h12.842"/><path stroke-linejoin="round" d="M256.461 262.169l-3.951-12.182"/><path stroke-linejoin="round" d="M256.461 198.511h12.842"/><path stroke-linejoin="round" d="M256.461 198.511l-3.951 12.183"/><path stroke-linejoin="round" d="M256.461 198.511l-10.316-7.463"/><path stroke-linejoin="round" d="M262.937 242.524l3.952-12.185"/><path stroke-linejoin="round" d="M262.937 242.524l10.317 7.463"/><path stroke-linejoin="round" d="M262.937 242.524l-10.427 7.463"/><path stroke-linejoin="round" d="M262.937 218.157l-10.427-7.463"/><path stroke-linejoin="round" d="M262.937 218.157l10.317-7.463"/><path stroke-linejoin="round" d="M262.937 218.157l3.952 12.182"/><path stroke-linejoin="round" d="M131.452 210.694l10.317 7.463"/><path stroke-linejoin="round" d="M137.817 230.339h-12.732"/><path stroke-linejoin="round" d="M137.817 230.339l3.952-12.182"/><path stroke-linejoin="round" d="M137.817 230.339l3.952 12.185"/><path stroke-linejoin="round" d="M141.769 242.524l10.426 7.463"/><path stroke-linejoin="round" d="M141.769 242.524l-10.317 7.463"/><path stroke-linejoin="round" d="M141.769 242.524l-3.952-12.185"/><path stroke-linejoin="round" d="M141.769 178.865h12.84"/><path stroke-linejoin="round" d="M141.769 178.865l-3.952-12.182"/><path stroke-linejoin="round" d="M148.244 262.169l3.951-12.182"/><path stroke-linejoin="round" d="M148.244 262.169l10.317 7.574"/><path stroke-linejoin="round" d="M154.609 281.816h-12.84"/><path stroke-linejoin="round" d="M154.609 281.816l3.952-12.073"/><path stroke-linejoin="round" d="M154.609 281.816l3.952 12.183"/><path stroke-linejoin="round" d="M158.561 166.683l-3.952 12.182"/><path stroke-linejoin="round" d="M158.561 166.683l-10.317-7.464"/><path stroke-linejoin="round" d="M158.561 166.683l10.317-7.464"/><path stroke-linejoin="round" d="M168.878 159.219h12.841"/><path stroke-linejoin="round" d="M168.878 159.219l-10.317 7.464"/><path stroke-linejoin="round" d="M168.878 159.219l-3.952-12.182"/><path stroke-linejoin="round" d="M185.67 147.037h12.732"/><path stroke-linejoin="round" d="M185.67 147.037l-3.951 12.182"/><path stroke-linejoin="round" d="M192.036 293.999l3.951-12.183"/><path stroke-linejoin="round" d="M192.036 293.999l10.317 7.572"/><path stroke-linejoin="round" d="M198.402 147.037H185.67"/><path stroke-linejoin="round" d="M198.402 147.037l3.951-12.183"/><path stroke-linejoin="round" d="M198.402 147.037l3.951 12.182"/><path stroke-linejoin="round" d="M208.719 281.816h-12.732"/><path stroke-linejoin="round" d="M208.719 281.816l3.95 12.183"/><path stroke-linejoin="round" d="M219.036 147.037l3.951 12.182"/><path stroke-linejoin="round" d="M235.829 159.219h-12.842"/><path stroke-linejoin="round" d="M235.829 159.219l3.951-12.182"/><path stroke-linejoin="round" d="M235.829 159.219l10.316 7.464"/><path stroke-linejoin="round" d="M242.194 178.865h-12.733"/><path stroke-linejoin="round" d="M242.194 178.865l3.951-12.182"/><path stroke-linejoin="round" d="M242.194 178.865l3.951 12.183"/><path stroke-linejoin="round" d="M266.889 230.339h12.732"/><path stroke-linejoin="round" d="M266.889 230.339l-3.952 12.185"/><path stroke-linejoin="round" d="M266.889 230.339l-3.952-12.182"/><path stroke-linejoin="round" d="M269.303 262.169h-12.842"/><path stroke-linejoin="round" d="M269.303 262.169l3.951-12.182"/><path stroke-linejoin="round" d="M269.303 262.169l3.951 12.183"/><path stroke-linejoin="round" d="M269.303 198.511h-12.842"/><path stroke-linejoin="round" d="M269.303 198.511l3.951 12.183"/><path stroke-linejoin="round" d="M273.254 249.987l-3.951 12.182"/><path stroke-linejoin="round" d="M273.254 249.987l-10.317-7.463"/><path stroke-linejoin="round" d="M273.254 249.987l10.317-7.463"/><path stroke-linejoin="round" d="M273.254 210.694l10.317 7.463"/><path stroke-linejoin="round" d="M273.254 210.694l-10.317 7.463"/><path stroke-linejoin="round" d="M273.254 210.694l-3.951-12.183"/><path stroke-linejoin="round" d="M125.085 230.339h12.732"/><path stroke-linejoin="round" d="M125.085 230.339l-3.95 12.185"/><path stroke-linejoin="round" d="M131.452 249.987l-3.952 12.182"/><path stroke-linejoin="round" d="M131.452 249.987l-10.317-7.463"/><path stroke-linejoin="round" d="M131.452 249.987l10.317-7.463"/><path stroke-linejoin="round" d="M137.817 166.683h-12.732"/><path stroke-linejoin="round" d="M137.817 166.683l10.427-7.464"/><path stroke-linejoin="round" d="M137.817 166.683l3.952 12.182"/><path stroke-linejoin="round" d="M141.769 281.816h12.84"/><path stroke-linejoin="round" d="M141.769 281.816l-3.952 12.183"/><path stroke-linejoin="round" d="M141.769 281.816l-10.317-7.464"/><path stroke-linejoin="round" d="M148.244 159.219l3.951-12.182"/><path stroke-linejoin="round" d="M148.244 159.219l10.317 7.464"/><path stroke-linejoin="round" d="M148.244 159.219l-10.427 7.464"/><path stroke-linejoin="round" d="M158.561 293.999l10.317 7.572"/><path stroke-linejoin="round" d="M158.561 293.999l-10.317 7.572"/><path stroke-linejoin="round" d="M158.561 293.999l-3.952-12.183"/><path stroke-linejoin="round" d="M164.926 147.037h-12.731"/><path stroke-linejoin="round" d="M164.926 147.037l3.952-12.183"/><path stroke-linejoin="round" d="M164.926 147.037l3.952 12.182"/><path stroke-linejoin="round" d="M202.353 301.571l-3.951 12.073"/><path stroke-linejoin="round" d="M202.353 301.571l-10.317-7.572"/><path stroke-linejoin="round" d="M202.353 301.571l10.316-7.572"/><path stroke-linejoin="round" d="M202.353 134.854l-3.951 12.183"/><path stroke-linejoin="round" d="M202.353 134.854l-10.317-7.463"/><path stroke-linejoin="round" d="M202.353 134.854l10.316-7.463"/><path stroke-linejoin="round" d="M212.669 293.999h12.842"/><path stroke-linejoin="round" d="M212.669 293.999l-10.316 7.572"/><path stroke-linejoin="round" d="M212.669 293.999l-3.95-12.183"/><path stroke-linejoin="round" d="M229.461 178.865h12.733"/><path stroke-linejoin="round" d="M239.78 147.037h12.73"/><path stroke-linejoin="round" d="M239.78 147.037l-3.951 12.182"/><path stroke-linejoin="round" d="M246.145 166.683l-3.951 12.182"/><path stroke-linejoin="round" d="M246.145 166.683l-10.316-7.464"/><path stroke-linejoin="round" d="M246.145 166.683l10.316-7.464"/><path stroke-linejoin="round" d="M273.254 274.352l10.317 7.464"/><path stroke-linejoin="round" d="M273.254 274.352l-10.317 7.464"/><path stroke-linejoin="round" d="M273.254 274.352l-3.951-12.183"/><path stroke-linejoin="round" d="M279.621 230.339h-12.732"/><path stroke-linejoin="round" d="M279.621 230.339l3.95-12.182"/><path stroke-linejoin="round" d="M279.621 230.339l3.95 12.185"/><path stroke-linejoin="round" d="M283.571 242.524l-10.317 7.463"/><path stroke-linejoin="round" d="M283.571 242.524l-3.95-12.185"/><path stroke-linejoin="round" d="M283.571 218.157l-3.95 12.182"/><path stroke-linejoin="round" d="M283.571 218.157l-10.317-7.463"/><path stroke-linejoin="round" d="M283.571 218.157l10.317-7.463"/><path stroke-linejoin="round" d="M121.135 242.524l3.95-12.185"/><path stroke-linejoin="round" d="M121.135 242.524l10.317 7.463"/><path stroke-linejoin="round" d="M125.085 166.683h12.732"/><path stroke-linejoin="round" d="M125.085 166.683l-3.95 12.182"/><path stroke-linejoin="round" d="M125.085 166.683l-10.316-7.464"/><path stroke-linejoin="round" d="M127.5 262.169h-12.731"/><path stroke-linejoin="round" d="M127.5 262.169l3.952-12.182"/><path stroke-linejoin="round" d="M127.5 262.169l3.952 12.183"/><path stroke-linejoin="round" d="M131.452 274.352l10.317 7.464"/><path stroke-linejoin="round" d="M131.452 274.352l-10.317 7.464"/><path stroke-linejoin="round" d="M131.452 274.352l-3.952-12.183"/><path stroke-linejoin="round" d="M137.817 293.999h-12.732"/><path stroke-linejoin="round" d="M137.817 293.999l3.952-12.183"/><path stroke-linejoin="round" d="M137.817 293.999l10.427 7.572"/><path stroke-linejoin="round" d="M148.244 301.571l-10.427-7.572"/><path stroke-linejoin="round" d="M148.244 301.571l10.317-7.572"/><path stroke-linejoin="round" d="M148.244 301.571l3.951 12.073"/><path stroke-linejoin="round" d="M152.195 147.037h12.731"/><path stroke-linejoin="round" d="M152.195 147.037l-3.951 12.182"/><path stroke-linejoin="round" d="M168.878 301.571l-3.952 12.073"/><path stroke-linejoin="round" d="M168.878 301.571l-10.317-7.572"/><path stroke-linejoin="round" d="M168.878 134.854l-3.952 12.183"/><path stroke-linejoin="round" d="M168.878 134.854l-10.317-7.463"/><path stroke-linejoin="round" d="M192.036 127.391l3.951-12.183"/><path stroke-linejoin="round" d="M192.036 127.391l10.317 7.463"/><path stroke-linejoin="round" d="M198.402 313.644H185.67"/><path stroke-linejoin="round" d="M198.402 313.644l3.951-12.073"/><path stroke-linejoin="round" d="M198.402 313.644l3.951 12.183"/><path stroke-linejoin="round" d="M212.669 127.391h12.842"/><path stroke-linejoin="round" d="M212.669 127.391l-10.316 7.463"/><path stroke-linejoin="round" d="M212.669 127.391l-3.95-12.183"/><path stroke-linejoin="round" d="M225.511 293.999h-12.842"/><path stroke-linejoin="round" d="M225.511 293.999l3.95-12.183"/><path stroke-linejoin="round" d="M225.511 293.999l10.318 7.572"/><path stroke-linejoin="round" d="M252.51 147.037h-12.73"/><path stroke-linejoin="round" d="M252.51 147.037l3.951-12.183"/><path stroke-linejoin="round" d="M252.51 147.037l3.951 12.182"/><path stroke-linejoin="round" d="M256.461 159.219l10.428 7.464"/><path stroke-linejoin="round" d="M256.461 159.219l-10.316 7.464"/><path stroke-linejoin="round" d="M256.461 159.219l-3.951-12.182"/><path stroke-linejoin="round" d="M262.937 281.816l10.317-7.464"/><path stroke-linejoin="round" d="M262.937 281.816l3.952 12.183"/><path stroke-linejoin="round" d="M283.571 281.816h12.732"/><path stroke-linejoin="round" d="M283.571 281.816l-3.95 12.183"/><path stroke-linejoin="round" d="M283.571 281.816l-10.317-7.464"/><path stroke-linejoin="round" d="M293.888 210.694h12.842"/><path stroke-linejoin="round" d="M293.888 210.694l-10.317 7.463"/><path stroke-linejoin="round" d="M293.888 210.694l-3.951-12.183"/><path stroke-linejoin="round" d="M114.769 262.169H127.5"/><path stroke-linejoin="round" d="M114.769 159.219l10.316 7.464"/><path stroke-linejoin="round" d="M114.769 159.219l-10.317 7.464"/><path stroke-linejoin="round" d="M114.769 159.219l-3.952-12.182"/><path stroke-linejoin="round" d="M121.135 281.816h-12.732"/><path stroke-linejoin="round" d="M121.135 281.816l10.317-7.464"/><path stroke-linejoin="round" d="M121.135 281.816l3.95 12.183"/><path stroke-linejoin="round" d="M121.135 178.865h-12.732"/><path stroke-linejoin="round" d="M121.135 178.865l3.95-12.182"/><path stroke-linejoin="round" d="M121.135 178.865l3.95 12.183"/><path stroke-linejoin="round" d="M125.085 293.999h12.732"/><path stroke-linejoin="round" d="M125.085 293.999l-10.316 7.572"/><path stroke-linejoin="round" d="M125.085 293.999l-3.95-12.183"/><path stroke-linejoin="round" d="M152.195 313.644h12.731"/><path stroke-linejoin="round" d="M152.195 313.644l-3.951 12.183"/><path stroke-linejoin="round" d="M152.195 313.644l-3.951-12.073"/><path stroke-linejoin="round" d="M158.561 127.391l10.317 7.463"/><path stroke-linejoin="round" d="M164.926 313.644h-12.731"/><path stroke-linejoin="round" d="M164.926 313.644l3.952-12.073"/><path stroke-linejoin="round" d="M164.926 313.644l3.952 12.183"/><path stroke-linejoin="round" d="M185.67 313.644h12.732"/><path stroke-linejoin="round" d="M195.987 115.208h12.732"/><path stroke-linejoin="round" d="M195.987 115.208l-3.951 12.183"/><path stroke-linejoin="round" d="M195.987 115.208l-10.317-7.574"/><path stroke-linejoin="round" d="M202.353 325.827l10.316 7.464"/><path stroke-linejoin="round" d="M202.353 325.827l-10.317 7.464"/><path stroke-linejoin="round" d="M202.353 325.827l-3.951-12.183"/><path stroke-linejoin="round" d="M208.719 115.208h-12.732"/><path stroke-linejoin="round" d="M208.719 115.208l10.317-7.574"/><path stroke-linejoin="round" d="M208.719 115.208l3.95 12.183"/><path stroke-linejoin="round" d="M225.511 127.391h-12.842"/><path stroke-linejoin="round" d="M225.511 127.391l3.95-12.183"/><path stroke-linejoin="round" d="M229.461 281.816l-3.95 12.183"/><path stroke-linejoin="round" d="M235.829 301.571l-10.318-7.572"/><path stroke-linejoin="round" d="M235.829 301.571l10.316-7.572"/><path stroke-linejoin="round" d="M235.829 301.571l3.951 12.073"/><path stroke-linejoin="round" d="M256.461 134.854l-3.951 12.183"/><path stroke-linejoin="round" d="M256.461 134.854l-10.316-7.463"/><path stroke-linejoin="round" d="M256.461 134.854l10.428-7.463"/><path stroke-linejoin="round" d="M266.889 293.999h12.732"/><path stroke-linejoin="round" d="M266.889 293.999l-10.428 7.572"/><path stroke-linejoin="round" d="M266.889 293.999l-3.952-12.183"/><path stroke-linejoin="round" d="M266.889 166.683h12.732"/><path stroke-linejoin="round" d="M266.889 166.683l-3.952 12.182"/><path stroke-linejoin="round" d="M266.889 166.683l-10.428-7.464"/><path stroke-linejoin="round" d="M279.621 293.999h-12.732"/><path stroke-linejoin="round" d="M279.621 293.999l3.95-12.183"/><path stroke-linejoin="round" d="M279.621 293.999l10.316 7.572"/><path stroke-linejoin="round" d="M289.937 198.511l10.317-7.463"/><path stroke-linejoin="round" d="M289.937 198.511l3.951 12.183"/><path stroke-linejoin="round" d="M296.303 281.816h-12.732"/><path stroke-linejoin="round" d="M296.303 281.816l3.951-12.073"/><path stroke-linejoin="round" d="M296.303 281.816l3.951 12.183"/><path stroke-linejoin="round" d="M306.73 210.694h-12.842"/><path stroke-linejoin="round" d="M306.73 210.694l3.95-12.183"/><path stroke-linejoin="round" d="M306.73 210.694l10.316 7.463"/><path stroke-linejoin="round" d="M104.452 166.683l-10.428-7.464"/><path stroke-linejoin="round" d="M104.452 166.683l10.317-7.464"/><path stroke-linejoin="round" d="M104.452 166.683l3.951 12.182"/><path stroke-linejoin="round" d="M108.403 281.816h12.732"/><path stroke-linejoin="round" d="M108.403 281.816l-3.951 12.183"/><path stroke-linejoin="round" d="M108.403 281.816l-10.427-7.464"/><path stroke-linejoin="round" d="M108.403 178.865h12.732"/><path stroke-linejoin="round" d="M108.403 178.865l-3.951 12.183"/><path stroke-linejoin="round" d="M108.403 178.865l-3.951-12.182"/><path stroke-linejoin="round" d="M110.817 147.037H97.976"/><path stroke-linejoin="round" d="M110.817 147.037l3.952-12.183"/><path stroke-linejoin="round" d="M110.817 147.037l3.952 12.182"/><path stroke-linejoin="round" d="M114.769 301.571l-3.952 12.073"/><path stroke-linejoin="round" d="M114.769 301.571l-10.317-7.572"/><path stroke-linejoin="round" d="M114.769 301.571l10.316-7.572"/><path stroke-linejoin="round" d="M125.085 191.048l-10.316 7.463"/><path stroke-linejoin="round" d="M125.085 191.048l-3.95-12.183"/><path stroke-linejoin="round" d="M148.244 325.827l3.951-12.183"/><path stroke-linejoin="round" d="M148.244 325.827l10.317 7.464"/><path stroke-linejoin="round" d="M148.244 325.827l-10.427 7.464"/><path stroke-linejoin="round" d="M168.878 325.827l-10.317 7.464"/><path stroke-linejoin="round" d="M168.878 325.827l-3.952-12.183"/><path stroke-linejoin="round" d="M185.67 107.634l10.317 7.574"/><path stroke-linejoin="round" d="M185.67 107.634l-10.427 7.574"/><path stroke-linejoin="round" d="M185.67 107.634l-3.951-12.072"/><path stroke-linejoin="round" d="M192.036 333.291l10.317-7.464"/><path stroke-linejoin="round" d="M192.036 333.291l3.951 12.182"/><path stroke-linejoin="round" d="M212.669 333.291h12.842"/><path stroke-linejoin="round" d="M212.669 333.291l-3.95 12.182"/><path stroke-linejoin="round" d="M212.669 333.291l-10.316-7.464"/><path stroke-linejoin="round" d="M219.036 107.634l3.951-12.072"/><path stroke-linejoin="round" d="M219.036 107.634l10.425 7.574"/><path stroke-linejoin="round" d="M219.036 107.634l-10.317 7.574"/><path stroke-linejoin="round" d="M229.461 115.208l-3.95 12.183"/><path stroke-linejoin="round" d="M229.461 115.208l-10.425-7.574"/><path stroke-linejoin="round" d="M229.461 115.208l10.319-7.574"/><path stroke-linejoin="round" d="M239.78 313.644h12.73"/><path stroke-linejoin="round" d="M239.78 313.644l-3.951 12.183"/><path stroke-linejoin="round" d="M239.78 313.644l-3.951-12.073"/><path stroke-linejoin="round" d="M246.145 293.999l10.316 7.572"/><path stroke-linejoin="round" d="M246.145 293.999l-10.316 7.572"/><path stroke-linejoin="round" d="M246.145 127.391l10.316 7.463"/><path stroke-linejoin="round" d="M256.461 301.571l-3.951 12.073"/><path stroke-linejoin="round" d="M256.461 301.571l-10.316-7.572"/><path stroke-linejoin="round" d="M256.461 301.571l10.428-7.572"/><path stroke-linejoin="round" d="M262.937 178.865l3.952-12.182"/><path stroke-linejoin="round" d="M266.889 127.391h12.732"/><path stroke-linejoin="round" d="M266.889 127.391l-10.428 7.463"/><path stroke-linejoin="round" d="M266.889 127.391l-3.952-12.183"/><path stroke-linejoin="round" d="M279.621 166.683h-12.732"/><path stroke-linejoin="round" d="M279.621 166.683l10.316-7.464"/><path stroke-linejoin="round" d="M279.621 166.683l3.95 12.182"/><path stroke-linejoin="round" d="M289.937 301.571l-10.316-7.572"/><path stroke-linejoin="round" d="M289.937 301.571l10.317-7.572"/><path stroke-linejoin="round" d="M289.937 301.571l3.951 12.073"/><path stroke-linejoin="round" d="M300.254 293.999l10.426 7.572"/><path stroke-linejoin="round" d="M300.254 293.999l-10.317 7.572"/><path stroke-linejoin="round" d="M300.254 293.999l-3.951-12.183"/><path stroke-linejoin="round" d="M300.254 269.743l-3.951 12.073"/><path stroke-linejoin="round" d="M300.254 269.743l-10.317-7.574"/><path stroke-linejoin="round" d="M300.254 269.743l10.426-7.574"/><path stroke-linejoin="round" d="M300.254 191.048l10.426 7.463"/><path stroke-linejoin="round" d="M300.254 191.048l-10.317 7.463"/><path stroke-linejoin="round" d="M300.254 191.048l-3.951-12.183"/><path stroke-linejoin="round" d="M310.68 198.511h12.732"/><path stroke-linejoin="round" d="M310.68 198.511l-3.95 12.183"/><path stroke-linejoin="round" d="M310.68 198.511l-10.426-7.463"/><path stroke-linejoin="round" d="M317.046 218.157l-3.951 12.182"/><path stroke-linejoin="round" d="M317.046 218.157l-10.316-7.463"/><path stroke-linejoin="round" d="M317.046 218.157l10.318-7.463"/><path stroke-linejoin="round" d="M94.024 159.219h-12.73"/><path stroke-linejoin="round" d="M94.024 159.219l3.952-12.182"/><path stroke-linejoin="round" d="M94.024 159.219l10.428 7.464"/><path stroke-linejoin="round" d="M97.976 274.352l10.427 7.464"/><path stroke-linejoin="round" d="M97.976 274.352l-10.317 7.464"/><path stroke-linejoin="round" d="M97.976 274.352l-3.952-12.183"/><path stroke-linejoin="round" d="M97.976 147.037h12.841"/><path stroke-linejoin="round" d="M97.976 147.037l-3.952 12.182"/><path stroke-linejoin="round" d="M104.452 293.999l3.951-12.183"/><path stroke-linejoin="round" d="M104.452 293.999l10.317 7.572"/><path stroke-linejoin="round" d="M104.452 293.999l-10.428 7.572"/><path stroke-linejoin="round" d="M104.452 191.048l3.951-12.183"/><path stroke-linejoin="round" d="M104.452 191.048l10.317 7.463"/><path stroke-linejoin="round" d="M104.452 191.048l-10.428 7.463"/><path stroke-linejoin="round" d="M110.817 313.644H97.976"/><path stroke-linejoin="round" d="M110.817 313.644l3.952-12.073"/><path stroke-linejoin="round" d="M110.817 313.644l3.952 12.183"/><path stroke-linejoin="round" d="M114.769 198.511l-3.952 12.183"/><path stroke-linejoin="round" d="M114.769 198.511l-10.317-7.463"/><path stroke-linejoin="round" d="M114.769 198.511l10.316-7.463"/><path stroke-linejoin="round" d="M114.769 134.854l-3.952 12.183"/><path stroke-linejoin="round" d="M114.769 134.854l-10.317-7.463"/><path stroke-linejoin="round" d="M114.769 134.854l10.316-7.463"/><path stroke-linejoin="round" d="M137.817 333.291h-12.732"/><path stroke-linejoin="round" d="M137.817 333.291l10.427-7.464"/><path stroke-linejoin="round" d="M137.817 333.291l3.952 12.182"/><path stroke-linejoin="round" d="M158.561 333.291l-3.952 12.182"/><path stroke-linejoin="round" d="M158.561 333.291l-10.317-7.464"/><path stroke-linejoin="round" d="M158.561 333.291l10.317-7.464"/><path stroke-linejoin="round" d="M175.243 115.208l-10.317-7.574"/><path stroke-linejoin="round" d="M175.243 115.208l10.427-7.574"/><path stroke-linejoin="round" d="M181.719 95.562h-12.841"/><path stroke-linejoin="round" d="M181.719 95.562l3.951-12.184"/><path stroke-linejoin="round" d="M181.719 95.562l3.951 12.072"/><path stroke-linejoin="round" d="M195.987 345.473h12.732"/><path stroke-linejoin="round" d="M195.987 345.473l-10.317 7.572"/><path stroke-linejoin="round" d="M195.987 345.473l-3.951-12.182"/><path stroke-linejoin="round" d="M208.719 345.473h-12.732"/><path stroke-linejoin="round" d="M208.719 345.473l3.95-12.182"/><path stroke-linejoin="round" d="M208.719 345.473l10.317 7.572"/><path stroke-linejoin="round" d="M222.987 95.562h12.842"/><path stroke-linejoin="round" d="M222.987 95.562l-3.951 12.072"/><path stroke-linejoin="round" d="M222.987 95.562l-3.951-12.184"/><path stroke-linejoin="round" d="M225.511 333.291h-12.842"/><path stroke-linejoin="round" d="M225.511 333.291l10.318-7.464"/><path stroke-linejoin="round" d="M225.511 333.291l3.95 12.182"/><path stroke-linejoin="round" d="M235.829 325.827l3.951-12.183"/><path stroke-linejoin="round" d="M235.829 325.827l10.316 7.464"/><path stroke-linejoin="round" d="M235.829 325.827l-10.318 7.464"/><path stroke-linejoin="round" d="M239.78 107.634l-10.319 7.574"/><path stroke-linejoin="round" d="M239.78 107.634l-3.951-12.072"/><path stroke-linejoin="round" d="M252.51 313.644h-12.73"/><path stroke-linejoin="round" d="M252.51 313.644l3.951-12.073"/><path stroke-linejoin="round" d="M252.51 313.644l3.951 12.183"/><path stroke-linejoin="round" d="M262.937 115.208l10.317-7.574"/><path stroke-linejoin="round" d="M262.937 115.208l3.952 12.183"/><path stroke-linejoin="round" d="M279.621 127.391h-12.732"/><path stroke-linejoin="round" d="M279.621 127.391l3.95-12.183"/><path stroke-linejoin="round" d="M279.621 127.391l10.316 7.463"/><path stroke-linejoin="round" d="M283.571 178.865h12.732"/><path stroke-linejoin="round" d="M283.571 178.865l-3.95-12.182"/><path stroke-linejoin="round" d="M289.937 262.169l10.317 7.574"/><path stroke-linejoin="round" d="M289.937 159.219l3.951-12.182"/><path stroke-linejoin="round" d="M289.937 159.219l10.317 7.464"/><path stroke-linejoin="round" d="M289.937 159.219l-10.316 7.464"/><path stroke-linejoin="round" d="M293.888 313.644h12.842"/><path stroke-linejoin="round" d="M293.888 313.644l-3.951 12.183"/><path stroke-linejoin="round" d="M293.888 313.644l-3.951-12.073"/><path stroke-linejoin="round" d="M296.303 178.865h-12.732"/><path stroke-linejoin="round" d="M296.303 178.865l3.951-12.182"/><path stroke-linejoin="round" d="M296.303 178.865l3.951 12.183"/><path stroke-linejoin="round" d="M310.68 301.571l-3.95 12.073"/><path stroke-linejoin="round" d="M310.68 301.571l-10.426-7.572"/><path stroke-linejoin="round" d="M310.68 262.169h12.732"/><path stroke-linejoin="round" d="M310.68 262.169l-10.426 7.574"/><path stroke-linejoin="round" d="M310.68 262.169l-3.95-12.182"/><path stroke-linejoin="round" d="M313.095 230.339h-12.841"/><path stroke-linejoin="round" d="M313.095 230.339l3.951-12.182"/><path stroke-linejoin="round" d="M313.095 230.339l3.951 12.185"/><path stroke-linejoin="round" d="M323.412 198.511H310.68"/><path stroke-linejoin="round" d="M323.412 198.511l10.317-7.463"/><path stroke-linejoin="round" d="M323.412 198.511l3.952 12.183"/><path stroke-linejoin="round" d="M327.364 210.694h12.841"/><path stroke-linejoin="round" d="M327.364 210.694l-10.318 7.463"/><path stroke-linejoin="round" d="M327.364 210.694l-3.952-12.183"/><path stroke-linejoin="round" d="M81.294 159.219h12.73"/><path stroke-linejoin="round" d="M81.294 159.219l-10.318 7.464"/><path stroke-linejoin="round" d="M81.294 159.219l-3.952-12.182"/><path stroke-linejoin="round" d="M87.659 281.816l10.317-7.464"/><path stroke-linejoin="round" d="M94.024 301.571h-12.73"/><path stroke-linejoin="round" d="M94.024 301.571l10.428-7.572"/><path stroke-linejoin="round" d="M94.024 301.571l3.952 12.073"/><path stroke-linejoin="round" d="M94.024 262.169h-12.73"/><path stroke-linejoin="round" d="M94.024 262.169l3.952-12.182"/><path stroke-linejoin="round" d="M94.024 262.169l3.952 12.183"/><path stroke-linejoin="round" d="M94.024 198.511h-12.73"/><path stroke-linejoin="round" d="M94.024 198.511l10.428-7.463"/><path stroke-linejoin="round" d="M94.024 198.511l3.952 12.183"/><path stroke-linejoin="round" d="M97.976 313.644h12.841"/><path stroke-linejoin="round" d="M97.976 313.644l-3.952-12.073"/><path stroke-linejoin="round" d="M104.452 127.391l10.317 7.463"/><path stroke-linejoin="round" d="M110.817 210.694H97.976"/><path stroke-linejoin="round" d="M110.817 210.694l3.952-12.183"/><path stroke-linejoin="round" d="M114.769 325.827l10.316 7.464"/><path stroke-linejoin="round" d="M114.769 325.827l-10.317 7.464"/><path stroke-linejoin="round" d="M114.769 325.827l-3.952-12.183"/><path stroke-linejoin="round" d="M125.085 333.291h12.732"/><path stroke-linejoin="round" d="M125.085 333.291l-3.95 12.182"/><path stroke-linejoin="round" d="M125.085 333.291l-10.316-7.464"/><path stroke-linejoin="round" d="M125.085 127.391h12.732"/><path stroke-linejoin="round" d="M125.085 127.391l-10.316 7.463"/><path stroke-linejoin="round" d="M125.085 127.391l-3.95-12.183"/><path stroke-linejoin="round" d="M141.769 345.473h12.84"/><path stroke-linejoin="round" d="M141.769 345.473l-10.317 7.572"/><path stroke-linejoin="round" d="M141.769 345.473l-3.952-12.182"/><path stroke-linejoin="round" d="M154.609 345.473h-12.84"/><path stroke-linejoin="round" d="M154.609 345.473l3.952-12.182"/><path stroke-linejoin="round" d="M164.926 107.634h-12.731"/><path stroke-linejoin="round" d="M164.926 107.634l3.952-12.072"/><path stroke-linejoin="round" d="M164.926 107.634l10.317 7.574"/><path stroke-linejoin="round" d="M168.878 95.562h12.841"/><path stroke-linejoin="round" d="M168.878 95.562l-3.952 12.072"/><path stroke-linejoin="round" d="M168.878 95.562l-3.952-12.184"/><path stroke-linejoin="round" d="M185.67 353.045l-3.951 12.074"/><path stroke-linejoin="round" d="M185.67 353.045l-10.427-7.572"/><path stroke-linejoin="round" d="M185.67 353.045l10.317-7.572"/><path stroke-linejoin="round" d="M185.67 83.378l-3.951 12.184"/><path stroke-linejoin="round" d="M185.67 83.378l-10.427-7.572"/><path stroke-linejoin="round" d="M185.67 83.378l10.317-7.572"/><path stroke-linejoin="round" d="M219.036 353.045l-10.317-7.572"/><path stroke-linejoin="round" d="M219.036 353.045l10.425-7.572"/><path stroke-linejoin="round" d="M219.036 353.045l3.951 12.074"/><path stroke-linejoin="round" d="M219.036 83.378l-10.317-7.572"/><path stroke-linejoin="round" d="M219.036 83.378l10.425-7.572"/><path stroke-linejoin="round" d="M219.036 83.378l3.951 12.184"/><path stroke-linejoin="round" d="M229.461 345.473l10.319 7.572"/><path stroke-linejoin="round" d="M229.461 345.473l-10.425 7.572"/><path stroke-linejoin="round" d="M229.461 345.473l-3.95-12.182"/><path stroke-linejoin="round" d="M235.829 95.562h-12.842"/><path stroke-linejoin="round" d="M235.829 95.562l3.951-12.184"/><path stroke-linejoin="round" d="M235.829 95.562l3.951 12.072"/><path stroke-linejoin="round" d="M246.145 333.291l-10.316-7.464"/><path stroke-linejoin="round" d="M246.145 333.291l10.316-7.464"/><path stroke-linejoin="round" d="M256.461 325.827l10.428 7.464"/><path stroke-linejoin="round" d="M256.461 325.827l-10.316 7.464"/><path stroke-linejoin="round" d="M256.461 325.827l-3.951-12.183"/><path stroke-linejoin="round" d="M273.254 107.634l10.317 7.574"/><path stroke-linejoin="round" d="M273.254 107.634l-10.317 7.574"/><path stroke-linejoin="round" d="M273.254 107.634l-3.951-12.072"/><path stroke-linejoin="round" d="M283.571 115.208h12.732"/><path stroke-linejoin="round" d="M283.571 115.208l-3.95 12.183"/><path stroke-linejoin="round" d="M283.571 115.208l-10.317-7.574"/><path stroke-linejoin="round" d="M289.937 325.827l3.951-12.183"/><path stroke-linejoin="round" d="M289.937 325.827l10.317 7.464"/><path stroke-linejoin="round" d="M289.937 325.827l-10.316 7.464"/><path stroke-linejoin="round" d="M289.937 134.854l-10.316-7.463"/><path stroke-linejoin="round" d="M289.937 134.854l10.317-7.463"/><path stroke-linejoin="round" d="M289.937 134.854l3.951 12.183"/><path stroke-linejoin="round" d="M293.888 147.037h12.842"/><path stroke-linejoin="round" d="M293.888 147.037l-3.951 12.182"/><path stroke-linejoin="round" d="M293.888 147.037l-3.951-12.183"/><path stroke-linejoin="round" d="M300.254 230.339h12.841"/><path stroke-linejoin="round" d="M300.254 166.683l-3.951 12.182"/><path stroke-linejoin="round" d="M300.254 166.683l-10.317-7.464"/><path stroke-linejoin="round" d="M300.254 166.683l10.426-7.464"/><path stroke-linejoin="round" d="M306.73 313.644h-12.842"/><path stroke-linejoin="round" d="M306.73 313.644l3.95-12.073"/><path stroke-linejoin="round" d="M306.73 313.644l3.95 12.183"/><path stroke-linejoin="round" d="M306.73 249.987l10.316-7.463"/><path stroke-linejoin="round" d="M306.73 249.987l3.95 12.182"/><path stroke-linejoin="round" d="M317.046 242.524l10.318 7.463"/><path stroke-linejoin="round" d="M317.046 242.524l-10.316 7.463"/><path stroke-linejoin="round" d="M317.046 242.524l-3.951-12.185"/><path stroke-linejoin="round" d="M323.412 262.169H310.68"/><path stroke-linejoin="round" d="M323.412 262.169l3.952-12.182"/><path stroke-linejoin="round" d="M323.412 262.169l3.952 12.183"/><path stroke-linejoin="round" d="M333.729 191.048l3.951-12.183"/><path stroke-linejoin="round" d="M333.729 191.048l10.427 7.463"/><path stroke-linejoin="round" d="M333.729 191.048l-10.317 7.463"/><path stroke-linejoin="round" d="M340.205 210.694h-12.841"/><path stroke-linejoin="round" d="M340.205 210.694l3.951-12.183"/><path stroke-linejoin="round" d="M70.976 166.683l-3.95 12.182"/><path stroke-linejoin="round" d="M70.976 166.683l-10.426-7.464"/><path stroke-linejoin="round" d="M70.976 166.683l10.318-7.464"/><path stroke-linejoin="round" d="M77.342 147.037l3.952 12.182"/><path stroke-linejoin="round" d="M81.294 301.571h12.73"/><path stroke-linejoin="round" d="M81.294 301.571l-3.952 12.073"/><path stroke-linejoin="round" d="M81.294 301.571l-10.318-7.572"/><path stroke-linejoin="round" d="M81.294 262.169h12.73"/><path stroke-linejoin="round" d="M81.294 262.169l-10.318 7.574"/><path stroke-linejoin="round" d="M81.294 262.169l-3.952-12.182"/><path stroke-linejoin="round" d="M81.294 198.511h12.73"/><path stroke-linejoin="round" d="M81.294 198.511l-3.952 12.183"/><path stroke-linejoin="round" d="M81.294 198.511l-10.318-7.463"/><path stroke-linejoin="round" d="M97.976 249.987l-3.952 12.182"/><path stroke-linejoin="round" d="M97.976 249.987l-10.317-7.463"/><path stroke-linejoin="round" d="M97.976 210.694h12.841"/><path stroke-linejoin="round" d="M97.976 210.694l-10.317 7.463"/><path stroke-linejoin="round" d="M97.976 210.694l-3.952-12.183"/><path stroke-linejoin="round" d="M104.452 333.291l10.317-7.464"/><path stroke-linejoin="round" d="M104.452 333.291l3.951 12.182"/><path stroke-linejoin="round" d="M121.135 345.473h-12.732"/><path stroke-linejoin="round" d="M121.135 345.473l3.95-12.182"/><path stroke-linejoin="round" d="M121.135 345.473l10.317 7.572"/><path stroke-linejoin="round" d="M121.135 115.208l10.317-7.574"/><path stroke-linejoin="round" d="M121.135 115.208l3.95 12.183"/><path stroke-linejoin="round" d="M131.452 353.045l-3.952 12.074"/><path stroke-linejoin="round" d="M131.452 353.045l-10.317-7.572"/><path stroke-linejoin="round" d="M131.452 353.045l10.317-7.572"/><path stroke-linejoin="round" d="M137.817 127.391h-12.732"/><path stroke-linejoin="round" d="M137.817 127.391l3.952-12.183"/><path stroke-linejoin="round" d="M152.195 107.634h12.731"/><path stroke-linejoin="round" d="M152.195 107.634l-10.426 7.574"/><path stroke-linejoin="round" d="M152.195 107.634l-3.951-12.072"/><path stroke-linejoin="round" d="M164.926 83.378l-10.317-7.572"/><path stroke-linejoin="round" d="M164.926 83.378l10.317-7.572"/><path stroke-linejoin="round" d="M164.926 83.378l3.952 12.184"/><path stroke-linejoin="round" d="M175.243 345.473l10.427 7.572"/><path stroke-linejoin="round" d="M175.243 75.806l10.427 7.572"/><path stroke-linejoin="round" d="M175.243 75.806l-10.317 7.572"/><path stroke-linejoin="round" d="M181.719 365.119h-12.841"/><path stroke-linejoin="round" d="M181.719 365.119l3.951-12.074"/><path stroke-linejoin="round" d="M181.719 365.119l3.951 12.182"/><path stroke-linejoin="round" d="M195.987 75.806h12.732"/><path stroke-linejoin="round" d="M195.987 75.806l-10.317 7.572"/><path stroke-linejoin="round" d="M195.987 75.806l-3.951-12.074"/><path stroke-linejoin="round" d="M208.719 75.806h-12.732"/><path stroke-linejoin="round" d="M208.719 75.806l3.95-12.074"/><path stroke-linejoin="round" d="M208.719 75.806l10.317 7.572"/><path stroke-linejoin="round" d="M222.987 365.119h12.842"/><path stroke-linejoin="round" d="M222.987 365.119l-3.951 12.182"/><path stroke-linejoin="round" d="M222.987 365.119l-3.951-12.074"/><path stroke-linejoin="round" d="M229.461 75.806l10.319 7.572"/><path stroke-linejoin="round" d="M229.461 75.806l-10.425 7.572"/><path stroke-linejoin="round" d="M229.461 75.806l-3.95-12.074"/><path stroke-linejoin="round" d="M239.78 353.045l-3.951 12.074"/><path stroke-linejoin="round" d="M239.78 353.045l-10.319-7.572"/><path stroke-linejoin="round" d="M239.78 83.378l-3.951 12.184"/><path stroke-linejoin="round" d="M239.78 83.378l-10.319-7.572"/><path stroke-linejoin="round" d="M266.889 333.291h12.732"/><path stroke-linejoin="round" d="M266.889 333.291l-3.952 12.182"/><path stroke-linejoin="round" d="M266.889 333.291l-10.428-7.464"/><path stroke-linejoin="round" d="M269.303 95.562h-12.842"/><path stroke-linejoin="round" d="M269.303 95.562l3.951-12.184"/><path stroke-linejoin="round" d="M269.303 95.562l3.951 12.072"/><path stroke-linejoin="round" d="M279.621 333.291h-12.732"/><path stroke-linejoin="round" d="M279.621 333.291l10.316-7.464"/><path stroke-linejoin="round" d="M279.621 333.291l3.95 12.182"/><path stroke-linejoin="round" d="M296.303 115.208h-12.732"/><path stroke-linejoin="round" d="M296.303 115.208l10.427-7.574"/><path stroke-linejoin="round" d="M296.303 115.208l3.951 12.183"/><path stroke-linejoin="round" d="M300.254 333.291l-3.951 12.182"/><path stroke-linejoin="round" d="M300.254 333.291l-10.317-7.464"/><path stroke-linejoin="round" d="M300.254 333.291l10.426-7.464"/><path stroke-linejoin="round" d="M300.254 127.391h12.841"/><path stroke-linejoin="round" d="M300.254 127.391l-10.317 7.463"/><path stroke-linejoin="round" d="M300.254 127.391l-3.951-12.183"/><path stroke-linejoin="round" d="M306.73 147.037h-12.842"/><path stroke-linejoin="round" d="M306.73 147.037l3.95 12.182"/><path stroke-linejoin="round" d="M310.68 325.827l-10.426 7.464"/><path stroke-linejoin="round" d="M310.68 325.827l-3.95-12.183"/><path stroke-linejoin="round" d="M310.68 159.219h12.732"/><path stroke-linejoin="round" d="M310.68 159.219l-10.426 7.464"/><path stroke-linejoin="round" d="M310.68 159.219l-3.95-12.182"/><path stroke-linejoin="round" d="M327.364 274.352l10.316 7.464"/><path stroke-linejoin="round" d="M327.364 274.352l-10.318 7.464"/><path stroke-linejoin="round" d="M327.364 274.352l-3.952-12.183"/><path stroke-linejoin="round" d="M327.364 249.987l-3.952 12.182"/><path stroke-linejoin="round" d="M327.364 249.987l-10.318-7.463"/><path stroke-linejoin="round" d="M327.364 249.987l10.316-7.463"/><path stroke-linejoin="round" d="M337.68 178.865h12.841"/><path stroke-linejoin="round" d="M337.68 178.865l-3.951 12.183"/><path stroke-linejoin="round" d="M337.68 178.865l-3.951-12.182"/><path stroke-linejoin="round" d="M344.156 198.511l-3.951 12.183"/><path stroke-linejoin="round" d="M344.156 198.511l-10.427-7.463"/><path stroke-linejoin="round" d="M344.156 198.511l10.317-7.463"/><path stroke-linejoin="round" d="M60.55 159.219l10.426 7.464"/><path stroke-linejoin="round" d="M60.55 159.219l-10.317 7.464"/><path stroke-linejoin="round" d="M67.026 178.865H54.185"/><path stroke-linejoin="round" d="M67.026 178.865l3.95-12.182"/><path stroke-linejoin="round" d="M67.026 178.865l3.95 12.183"/><path stroke-linejoin="round" d="M70.976 293.999l10.318 7.572"/><path stroke-linejoin="round" d="M70.976 293.999l-10.426 7.572"/><path stroke-linejoin="round" d="M70.976 293.999l-3.95-12.183"/><path stroke-linejoin="round" d="M70.976 269.743l-3.95 12.073"/><path stroke-linejoin="round" d="M70.976 269.743l-10.426-7.574"/><path stroke-linejoin="round" d="M70.976 269.743l10.318-7.574"/><path stroke-linejoin="round" d="M70.976 191.048l10.318 7.463"/><path stroke-linejoin="round" d="M70.976 191.048l-10.426 7.463"/><path stroke-linejoin="round" d="M70.976 191.048l-3.95-12.183"/><path stroke-linejoin="round" d="M77.342 313.644l3.952-12.073"/><path stroke-linejoin="round" d="M77.342 313.644l3.952 12.183"/><path stroke-linejoin="round" d="M77.342 249.987l-10.316-7.463"/><path stroke-linejoin="round" d="M77.342 249.987l10.317-7.463"/><path stroke-linejoin="round" d="M77.342 249.987l3.952 12.182"/><path stroke-linejoin="round" d="M77.342 210.694l3.952-12.183"/><path stroke-linejoin="round" d="M77.342 210.694l10.317 7.463"/><path stroke-linejoin="round" d="M87.659 242.524l10.317 7.463"/><path stroke-linejoin="round" d="M87.659 242.524l-10.317 7.463"/><path stroke-linejoin="round" d="M87.659 242.524l-3.951-12.185"/><path stroke-linejoin="round" d="M87.659 218.157l-3.951 12.182"/><path stroke-linejoin="round" d="M87.659 218.157l-10.317-7.463"/><path stroke-linejoin="round" d="M87.659 218.157l10.317-7.463"/><path stroke-linejoin="round" d="M108.403 345.473h12.732"/><path stroke-linejoin="round" d="M108.403 345.473l-10.427 7.572"/><path stroke-linejoin="round" d="M108.403 345.473l-3.951-12.182"/><path stroke-linejoin="round" d="M127.5 365.119h-12.731"/><path stroke-linejoin="round" d="M127.5 365.119l3.952-12.074"/><path stroke-linejoin="round" d="M127.5 365.119l3.952 12.182"/><path stroke-linejoin="round" d="M131.452 107.634l10.317 7.574"/><path stroke-linejoin="round" d="M131.452 107.634l-10.317 7.574"/><path stroke-linejoin="round" d="M131.452 107.634L127.5 95.562"/><path stroke-linejoin="round" d="M141.769 115.208l-3.952 12.183"/><path stroke-linejoin="round" d="M141.769 115.208l-10.317-7.574"/><path stroke-linejoin="round" d="M141.769 115.208l10.426-7.574"/><path stroke-linejoin="round" d="M148.244 95.562l3.951 12.072"/><path stroke-linejoin="round" d="M154.609 75.806h-12.84"/><path stroke-linejoin="round" d="M154.609 75.806l3.952-12.074"/><path stroke-linejoin="round" d="M154.609 75.806l10.317 7.572"/><path stroke-linejoin="round" d="M168.878 365.119h12.841"/><path stroke-linejoin="round" d="M168.878 365.119l-3.952 12.182"/><path stroke-linejoin="round" d="M185.67 377.301l10.317 7.574"/><path stroke-linejoin="round" d="M185.67 377.301l-10.427 7.574"/><path stroke-linejoin="round" d="M185.67 377.301l-3.951-12.182"/><path stroke-linejoin="round" d="M192.036 63.732l10.317-7.572"/><path stroke-linejoin="round" d="M192.036 63.732l3.951 12.074"/><path stroke-linejoin="round" d="M212.669 63.732h12.842"/><path stroke-linejoin="round" d="M212.669 63.732l-3.95 12.074"/><path stroke-linejoin="round" d="M212.669 63.732l-10.316-7.572"/><path stroke-linejoin="round" d="M219.036 377.301l3.951-12.182"/><path stroke-linejoin="round" d="M219.036 377.301l10.425 7.574"/><path stroke-linejoin="round" d="M219.036 377.301l-10.317 7.574"/><path stroke-linejoin="round" d="M225.511 63.732h-12.842"/><path stroke-linejoin="round" d="M225.511 63.732l3.95 12.074"/><path stroke-linejoin="round" d="M235.829 365.119h-12.842"/><path stroke-linejoin="round" d="M235.829 365.119l3.951-12.074"/><path stroke-linejoin="round" d="M235.829 365.119l3.951 12.182"/><path stroke-linejoin="round" d="M256.461 95.562h12.842"/><path stroke-linejoin="round" d="M262.937 345.473l3.952-12.182"/><path stroke-linejoin="round" d="M262.937 345.473l10.317 7.572"/><path stroke-linejoin="round" d="M273.254 83.378l-3.951 12.184"/><path stroke-linejoin="round" d="M273.254 83.378l-10.317-7.572"/><path stroke-linejoin="round" d="M273.254 83.378l10.317-7.572"/><path stroke-linejoin="round" d="M283.571 345.473h12.732"/><path stroke-linejoin="round" d="M283.571 345.473l-10.317 7.572"/><path stroke-linejoin="round" d="M283.571 345.473l-3.95-12.182"/><path stroke-linejoin="round" d="M296.303 345.473h-12.732"/><path stroke-linejoin="round" d="M296.303 345.473l3.951-12.182"/><path stroke-linejoin="round" d="M306.73 107.634l3.95-12.072"/><path stroke-linejoin="round" d="M306.73 107.634l10.316 7.574"/><path stroke-linejoin="round" d="M306.73 107.634l-10.427 7.574"/><path stroke-linejoin="round" d="M313.095 127.391h-12.841"/><path stroke-linejoin="round" d="M313.095 127.391l3.951-12.183"/><path stroke-linejoin="round" d="M317.046 281.816l10.318-7.464"/><path stroke-linejoin="round" d="M323.412 159.219H310.68"/><path stroke-linejoin="round" d="M323.412 159.219l3.952-12.182"/><path stroke-linejoin="round" d="M323.412 159.219l10.317 7.464"/><path stroke-linejoin="round" d="M333.729 166.683l-10.317-7.464"/><path stroke-linejoin="round" d="M333.729 166.683l10.427-7.464"/><path stroke-linejoin="round" d="M333.729 166.683l3.951 12.182"/><path stroke-linejoin="round" d="M337.68 281.816h12.841"/><path stroke-linejoin="round" d="M337.68 281.816l-3.951 12.183"/><path stroke-linejoin="round" d="M337.68 281.816l-10.316-7.464"/><path stroke-linejoin="round" d="M337.68 242.524h12.841"/><path stroke-linejoin="round" d="M337.68 242.524l-10.316 7.463"/><path stroke-linejoin="round" d="M337.68 242.524l-3.951-12.185"/><path stroke-linejoin="round" d="M350.521 178.865H337.68"/><path stroke-linejoin="round" d="M350.521 178.865l3.952-12.182"/><path stroke-linejoin="round" d="M350.521 178.865l3.952 12.183"/><path stroke-linejoin="round" d="M354.473 191.048l-10.317 7.463"/><path stroke-linejoin="round" d="M354.473 191.048l-3.952-12.183"/><path stroke-linejoin="round" d="M50.233 166.683l-10.316-7.464"/><path stroke-linejoin="round" d="M50.233 166.683l10.317-7.464"/><path stroke-linejoin="round" d="M50.233 166.683l3.952 12.182"/><path stroke-linejoin="round" d="M54.185 178.865h12.841"/><path stroke-linejoin="round" d="M54.185 178.865l-3.952-12.182"/><path stroke-linejoin="round" d="M60.55 301.571l-3.951 12.073"/><path stroke-linejoin="round" d="M60.55 301.571l-10.317-7.572"/><path stroke-linejoin="round" d="M60.55 301.571l10.426-7.572"/><path stroke-linejoin="round" d="M60.55 262.169l10.426 7.574"/><path stroke-linejoin="round" d="M60.55 198.511l10.426-7.463"/><path stroke-linejoin="round" d="M67.026 281.816H54.185"/><path stroke-linejoin="round" d="M67.026 281.816l3.95-12.073"/><path stroke-linejoin="round" d="M67.026 281.816l3.95 12.183"/><path stroke-linejoin="round" d="M67.026 242.524H54.185"/><path stroke-linejoin="round" d="M67.026 242.524l3.95-12.185"/><path stroke-linejoin="round" d="M67.026 242.524l10.316 7.463"/><path stroke-linejoin="round" d="M81.294 325.827l-10.318 7.464"/><path stroke-linejoin="round" d="M81.294 325.827l-3.952-12.183"/><path stroke-linejoin="round" d="M83.708 230.339H70.976"/><path stroke-linejoin="round" d="M83.708 230.339l3.951-12.182"/><path stroke-linejoin="round" d="M83.708 230.339l3.951 12.185"/><path stroke-linejoin="round" d="M97.976 353.045l-3.952 12.074"/><path stroke-linejoin="round" d="M97.976 353.045l-10.317-7.572"/><path stroke-linejoin="round" d="M97.976 353.045l10.427-7.572"/><path stroke-linejoin="round" d="M114.769 365.119H127.5"/><path stroke-linejoin="round" d="M114.769 365.119l-3.952 12.182"/><path stroke-linejoin="round" d="M127.5 95.562h-12.731"/><path stroke-linejoin="round" d="M127.5 95.562l3.952-12.184"/><path stroke-linejoin="round" d="M127.5 95.562l3.952 12.072"/><path stroke-linejoin="round" d="M131.452 377.301l10.317 7.574"/><path stroke-linejoin="round" d="M131.452 377.301l-10.317 7.574"/><path stroke-linejoin="round" d="M131.452 377.301l-3.952-12.182"/><path stroke-linejoin="round" d="M141.769 75.806h12.84"/><path stroke-linejoin="round" d="M141.769 75.806l-10.317 7.572"/><path stroke-linejoin="round" d="M141.769 75.806l-3.952-12.074"/><path stroke-linejoin="round" d="M158.561 63.732l-3.952 12.074"/><path stroke-linejoin="round" d="M158.561 63.732l10.317-7.572"/><path stroke-linejoin="round" d="M164.926 377.301h-12.731"/><path stroke-linejoin="round" d="M164.926 377.301l3.952-12.182"/><path stroke-linejoin="round" d="M164.926 377.301l10.317 7.574"/><path stroke-linejoin="round" d="M175.243 384.875l-10.317-7.574"/><path stroke-linejoin="round" d="M175.243 384.875l10.427-7.574"/><path stroke-linejoin="round" d="M195.987 384.875h12.732"/><path stroke-linejoin="round" d="M195.987 384.875l-3.951 12.073"/><path stroke-linejoin="round" d="M195.987 384.875l-10.317-7.574"/><path stroke-linejoin="round" d="M202.353 56.16l10.316 7.572"/><path stroke-linejoin="round" d="M202.353 56.16l-10.317 7.572"/><path stroke-linejoin="round" d="M202.353 56.16l-3.951-12.183"/><path stroke-linejoin="round" d="M208.719 384.875h-12.732"/><path stroke-linejoin="round" d="M208.719 384.875l10.317-7.574"/><path stroke-linejoin="round" d="M208.719 384.875l3.95 12.073"/><path stroke-linejoin="round" d="M229.461 384.875l-3.95 12.073"/><path stroke-linejoin="round" d="M229.461 384.875l-10.425-7.574"/><path stroke-linejoin="round" d="M229.461 384.875l10.319-7.574"/><path stroke-linejoin="round" d="M239.78 377.301h12.73"/><path stroke-linejoin="round" d="M239.78 377.301l-10.319 7.574"/><path stroke-linejoin="round" d="M239.78 377.301l-3.951-12.182"/><path stroke-linejoin="round" d="M262.937 75.806l3.952-12.074"/><path stroke-linejoin="round" d="M262.937 75.806l10.317 7.572"/><path stroke-linejoin="round" d="M273.254 353.045l-3.951 12.074"/><path stroke-linejoin="round" d="M273.254 353.045l-10.317-7.572"/><path stroke-linejoin="round" d="M273.254 353.045l10.317-7.572"/><path stroke-linejoin="round" d="M283.571 75.806h12.732"/><path stroke-linejoin="round" d="M283.571 75.806l-10.317 7.572"/><path stroke-linejoin="round" d="M283.571 75.806l-3.95-12.074"/><path stroke-linejoin="round" d="M310.68 95.562h12.732"/><path stroke-linejoin="round" d="M310.68 95.562l-3.95 12.072"/><path stroke-linejoin="round" d="M310.68 95.562l-3.95-12.184"/><path stroke-linejoin="round" d="M317.046 115.208l-3.951 12.183"/><path stroke-linejoin="round" d="M317.046 115.208l-10.316-7.574"/><path stroke-linejoin="round" d="M317.046 115.208l10.318-7.574"/><path stroke-linejoin="round" d="M327.364 147.037h12.841"/><path stroke-linejoin="round" d="M327.364 147.037l-3.952 12.182"/><path stroke-linejoin="round" d="M333.729 293.999l3.951-12.183"/><path stroke-linejoin="round" d="M333.729 293.999l10.427 7.572"/><path stroke-linejoin="round" d="M333.729 230.339l3.951 12.185"/><path stroke-linejoin="round" d="M344.156 159.219l10.317 7.464"/><path stroke-linejoin="round" d="M344.156 159.219l-10.427 7.464"/><path stroke-linejoin="round" d="M344.156 159.219l-3.951-12.182"/><path stroke-linejoin="round" d="M350.521 281.816H337.68"/><path stroke-linejoin="round" d="M350.521 281.816l3.952 12.183"/><path stroke-linejoin="round" d="M350.521 242.524H337.68"/><path stroke-linejoin="round" d="M350.521 242.524l3.952-12.185"/><path stroke-linejoin="round" d="M350.521 242.524l10.317 7.463"/><path stroke-linejoin="round" d="M354.473 166.683l-3.952 12.182"/><path stroke-linejoin="round" d="M354.473 166.683l-10.317-7.464"/><path stroke-linejoin="round" d="M39.917 159.219H27.074"/><path stroke-linejoin="round" d="M39.917 159.219l3.95-12.182"/><path stroke-linejoin="round" d="M39.917 159.219l10.316 7.464"/><path stroke-linejoin="round" d="M50.233 293.999H37.501"/><path stroke-linejoin="round" d="M50.233 293.999l3.952-12.183"/><path stroke-linejoin="round" d="M50.233 293.999l10.317 7.572"/><path stroke-linejoin="round" d="M54.185 281.816h12.841"/><path stroke-linejoin="round" d="M54.185 281.816l-3.952 12.183"/><path stroke-linejoin="round" d="M54.185 281.816l-10.318-7.464"/><path stroke-linejoin="round" d="M54.185 242.524h12.841"/><path stroke-linejoin="round" d="M54.185 242.524l-10.318 7.463"/><path stroke-linejoin="round" d="M54.185 242.524l-3.952-12.185"/><path stroke-linejoin="round" d="M56.599 313.644H43.867"/><path stroke-linejoin="round" d="M56.599 313.644l3.951-12.073"/><path stroke-linejoin="round" d="M56.599 313.644l3.951 12.183"/><path stroke-linejoin="round" d="M70.976 333.291l-3.95 12.182"/><path stroke-linejoin="round" d="M70.976 333.291l-10.426-7.464"/><path stroke-linejoin="round" d="M70.976 333.291l10.318-7.464"/><path stroke-linejoin="round" d="M70.976 230.339h12.732"/><path stroke-linejoin="round" d="M70.976 230.339l-3.95 12.185"/><path stroke-linejoin="round" d="M87.659 345.473l10.317 7.572"/><path stroke-linejoin="round" d="M94.024 365.119h-12.73"/><path stroke-linejoin="round" d="M94.024 365.119l3.952-12.074"/><path stroke-linejoin="round" d="M94.024 365.119l3.952 12.182"/><path stroke-linejoin="round" d="M110.817 377.301H97.976"/><path stroke-linejoin="round" d="M110.817 377.301l3.952-12.182"/><path stroke-linejoin="round" d="M110.817 377.301l10.318 7.574"/><path stroke-linejoin="round" d="M114.769 95.562H127.5"/><path stroke-linejoin="round" d="M121.135 384.875l-10.318-7.574"/><path stroke-linejoin="round" d="M121.135 384.875l10.317-7.574"/><path stroke-linejoin="round" d="M121.135 384.875l3.95 12.073"/><path stroke-linejoin="round" d="M131.452 83.378L127.5 95.562"/><path stroke-linejoin="round" d="M131.452 83.378l-10.317-7.572"/><path stroke-linejoin="round" d="M131.452 83.378l10.317-7.572"/><path stroke-linejoin="round" d="M137.817 63.732h-12.732"/><path stroke-linejoin="round" d="M137.817 63.732l3.952 12.074"/><path stroke-linejoin="round" d="M141.769 384.875l-3.952 12.073"/><path stroke-linejoin="round" d="M141.769 384.875l-10.317-7.574"/><path stroke-linejoin="round" d="M141.769 384.875l10.426-7.574"/><path stroke-linejoin="round" d="M152.195 377.301h12.731"/><path stroke-linejoin="round" d="M152.195 377.301l-10.426 7.574"/><path stroke-linejoin="round" d="M152.195 377.301l-3.951-12.182"/><path stroke-linejoin="round" d="M168.878 56.16l-10.317 7.572"/><path stroke-linejoin="round" d="M168.878 56.16l-3.952-12.183"/><path stroke-linejoin="round" d="M192.036 396.948l3.951-12.073"/><path stroke-linejoin="round" d="M198.402 43.977H185.67"/><path stroke-linejoin="round" d="M198.402 43.977l3.951-12.073"/><path stroke-linejoin="round" d="M198.402 43.977l3.951 12.183"/><path stroke-linejoin="round" d="M212.669 396.948h12.842"/><path stroke-linejoin="round" d="M212.669 396.948l-3.95-12.073"/><path stroke-linejoin="round" d="M225.511 396.948h-12.842"/><path stroke-linejoin="round" d="M225.511 396.948l3.95-12.073"/><path stroke-linejoin="round" d="M225.511 396.948l3.95 12.183"/><path stroke-linejoin="round" d="M252.51 377.301h-12.73"/><path stroke-linejoin="round" d="M252.51 377.301l3.951-12.182"/><path stroke-linejoin="round" d="M252.51 377.301l10.427 7.574"/><path stroke-linejoin="round" d="M266.889 63.732h12.732"/><path stroke-linejoin="round" d="M266.889 63.732l-3.952 12.074"/><path stroke-linejoin="round" d="M266.889 63.732l-10.428-7.572"/><path stroke-linejoin="round" d="M269.303 365.119h-12.842"/><path stroke-linejoin="round" d="M269.303 365.119l3.951-12.074"/><path stroke-linejoin="round" d="M269.303 365.119l3.951 12.182"/><path stroke-linejoin="round" d="M279.621 63.732h-12.732"/><path stroke-linejoin="round" d="M279.621 63.732l10.316-7.572"/><path stroke-linejoin="round" d="M279.621 63.732l3.95 12.074"/><path stroke-linejoin="round" d="M296.303 75.806h-12.732"/><path stroke-linejoin="round" d="M296.303 75.806l3.951-12.074"/><path stroke-linejoin="round" d="M296.303 75.806l10.427 7.572"/><path stroke-linejoin="round" d="M306.73 83.378l-10.427-7.572"/><path stroke-linejoin="round" d="M306.73 83.378l10.316-7.572"/><path stroke-linejoin="round" d="M306.73 83.378l3.95 12.184"/><path stroke-linejoin="round" d="M323.412 95.562H310.68"/><path stroke-linejoin="round" d="M323.412 95.562l3.952-12.184"/><path stroke-linejoin="round" d="M323.412 95.562l3.952 12.072"/><path stroke-linejoin="round" d="M327.364 107.634l10.316 7.574"/><path stroke-linejoin="round" d="M327.364 107.634l-10.318 7.574"/><path stroke-linejoin="round" d="M327.364 107.634l-3.952-12.072"/><path stroke-linejoin="round" d="M340.205 147.037h-12.841"/><path stroke-linejoin="round" d="M340.205 147.037l3.951-12.183"/><path stroke-linejoin="round" d="M340.205 147.037l3.951 12.182"/><path stroke-linejoin="round" d="M344.156 301.571l-3.951 12.073"/><path stroke-linejoin="round" d="M344.156 301.571l-10.427-7.572"/><path stroke-linejoin="round" d="M344.156 301.571l10.317-7.572"/><path stroke-linejoin="round" d="M354.473 293.999h12.732"/><path stroke-linejoin="round" d="M354.473 293.999l-10.317 7.572"/><path stroke-linejoin="round" d="M354.473 293.999l-3.952-12.183"/><path stroke-linejoin="round" d="M354.473 230.339h12.732"/><path stroke-linejoin="round" d="M354.473 230.339l-3.952 12.185"/><path stroke-linejoin="round" d="M360.838 249.987l-10.317-7.463"/><path stroke-linejoin="round" d="M360.838 249.987l10.317-7.463"/><path stroke-linejoin="round" d="M27.074 159.219h12.843"/><path stroke-linejoin="round" d="M27.074 159.219l-10.317 7.464"/><path stroke-linejoin="round" d="M27.074 159.219l-3.95-12.182"/><path stroke-linejoin="round" d="M37.501 293.999h12.732"/><path stroke-linejoin="round" d="M37.501 293.999l-10.427 7.572"/><path stroke-linejoin="round" d="M37.501 293.999l-3.951-12.183"/><path stroke-linejoin="round" d="M43.867 313.644h12.732"/><path stroke-linejoin="round" d="M43.867 274.352l10.318 7.464"/><path stroke-linejoin="round" d="M43.867 274.352l-10.317 7.464"/><path stroke-linejoin="round" d="M43.867 274.352l-3.95-12.183"/><path stroke-linejoin="round" d="M43.867 249.987l-3.95 12.182"/><path stroke-linejoin="round" d="M43.867 249.987l-10.317-7.463"/><path stroke-linejoin="round" d="M43.867 249.987l10.318-7.463"/><path stroke-linejoin="round" d="M43.867 147.037l-3.95 12.182"/><path stroke-linejoin="round" d="M50.233 230.339H37.501"/><path stroke-linejoin="round" d="M50.233 230.339l3.952-12.182"/><path stroke-linejoin="round" d="M50.233 230.339l3.952 12.185"/><path stroke-linejoin="round" d="M60.55 325.827l10.426 7.464"/><path stroke-linejoin="round" d="M60.55 325.827l-10.317 7.464"/><path stroke-linejoin="round" d="M60.55 325.827l-3.951-12.183"/><path stroke-linejoin="round" d="M67.026 345.473H54.185"/><path stroke-linejoin="round" d="M67.026 345.473l3.95-12.182"/><path stroke-linejoin="round" d="M81.294 365.119h12.73"/><path stroke-linejoin="round" d="M81.294 365.119l-3.952 12.182"/><path stroke-linejoin="round" d="M97.976 377.301h12.841"/><path stroke-linejoin="round" d="M97.976 377.301l-10.317 7.574"/><path stroke-linejoin="round" d="M97.976 377.301l-3.952-12.182"/><path stroke-linejoin="round" d="M121.135 75.806h-12.732"/><path stroke-linejoin="round" d="M121.135 75.806l3.95-12.074"/><path stroke-linejoin="round" d="M121.135 75.806l10.317 7.572"/><path stroke-linejoin="round" d="M125.085 396.948h12.732"/><path stroke-linejoin="round" d="M125.085 396.948l-3.95-12.073"/><path stroke-linejoin="round" d="M125.085 63.732h12.732"/><path stroke-linejoin="round" d="M125.085 63.732l-3.95 12.074"/><path stroke-linejoin="round" d="M125.085 63.732l-10.316-7.572"/><path stroke-linejoin="round" d="M137.817 396.948h-12.732"/><path stroke-linejoin="round" d="M137.817 396.948l3.952-12.073"/><path stroke-linejoin="round" d="M137.817 396.948l3.952 12.183"/><path stroke-linejoin="round" d="M148.244 365.119l3.951 12.182"/><path stroke-linejoin="round" d="M164.926 43.977h-12.731"/><path stroke-linejoin="round" d="M164.926 43.977l3.952-12.073"/><path stroke-linejoin="round" d="M164.926 43.977l3.952 12.183"/><path stroke-linejoin="round" d="M185.67 43.977h12.732"/><path stroke-linejoin="round" d="M202.353 31.904l-3.951 12.073"/><path stroke-linejoin="round" d="M202.353 31.904l-10.317-7.573"/><path stroke-linejoin="round" d="M202.353 31.904l10.316-7.573"/><path stroke-linejoin="round" d="M229.461 409.131l10.319 7.573"/><path stroke-linejoin="round" d="M229.461 409.131l-10.425 7.573"/><path stroke-linejoin="round" d="M229.461 409.131l-3.95-12.183"/><path stroke-linejoin="round" d="M256.461 365.119h12.842"/><path stroke-linejoin="round" d="M256.461 365.119l-3.951 12.182"/><path stroke-linejoin="round" d="M256.461 56.16l10.428 7.572"/><path stroke-linejoin="round" d="M256.461 56.16l-10.316 7.572"/><path stroke-linejoin="round" d="M256.461 56.16l-3.951-12.183"/><path stroke-linejoin="round" d="M262.937 384.875l-10.427-7.574"/><path stroke-linejoin="round" d="M262.937 384.875l10.317-7.574"/><path stroke-linejoin="round" d="M262.937 384.875l3.952 12.073"/><path stroke-linejoin="round" d="M273.254 377.301l10.317 7.574"/><path stroke-linejoin="round" d="M273.254 377.301l-10.317 7.574"/><path stroke-linejoin="round" d="M273.254 377.301l-3.951-12.182"/><path stroke-linejoin="round" d="M289.937 56.16l3.951-12.183"/><path stroke-linejoin="round" d="M289.937 56.16l10.317 7.572"/><path stroke-linejoin="round" d="M289.937 56.16l-10.316 7.572"/><path stroke-linejoin="round" d="M300.254 63.732l-3.951 12.074"/><path stroke-linejoin="round" d="M300.254 63.732l-10.317-7.572"/><path stroke-linejoin="round" d="M317.046 75.806l10.318 7.572"/><path stroke-linejoin="round" d="M317.046 75.806l-10.316 7.572"/><path stroke-linejoin="round" d="M327.364 83.378l-3.952 12.184"/><path stroke-linejoin="round" d="M327.364 83.378l-10.318-7.572"/><path stroke-linejoin="round" d="M327.364 83.378l10.316-7.572"/><path stroke-linejoin="round" d="M337.68 115.208h12.841"/><path stroke-linejoin="round" d="M337.68 115.208l-3.951 12.183"/><path stroke-linejoin="round" d="M337.68 115.208l-10.316-7.574"/><path stroke-linejoin="round" d="M340.205 313.644h-12.841"/><path stroke-linejoin="round" d="M340.205 313.644l3.951-12.073"/><path stroke-linejoin="round" d="M340.205 313.644l3.951 12.183"/><path stroke-linejoin="round" d="M344.156 134.854l-3.951 12.183"/><path stroke-linejoin="round" d="M344.156 134.854l-10.427-7.463"/><path stroke-linejoin="round" d="M344.156 134.854l10.317-7.463"/><path stroke-linejoin="round" d="M367.205 293.999h-12.732"/><path stroke-linejoin="round" d="M367.205 293.999l3.95-12.183"/><path stroke-linejoin="round" d="M367.205 293.999l10.425 7.572"/><path stroke-linejoin="round" d="M367.205 230.339h-12.732"/><path stroke-linejoin="round" d="M367.205 230.339l3.95-12.182"/><path stroke-linejoin="round" d="M367.205 230.339l3.95 12.185"/><path stroke-linejoin="round" d="M371.155 242.524l10.428 7.463"/><path stroke-linejoin="round" d="M371.155 242.524l-10.317 7.463"/><path stroke-linejoin="round" d="M371.155 242.524l-3.95-12.185"/><path stroke-linejoin="round" d="M16.757 166.683l-3.95 12.182"/><path stroke-linejoin="round" d="M16.757 166.683l-10.316-7.464"/><path stroke-linejoin="round" d="M16.757 166.683l10.317-7.464"/><path stroke-linejoin="round" d="M23.124 147.037H10.392"/><path stroke-linejoin="round" d="M23.124 147.037l3.95-12.183"/><path stroke-linejoin="round" d="M23.124 147.037l3.95 12.182"/><path stroke-linejoin="round" d="M27.074 301.571l-3.95 12.073"/><path stroke-linejoin="round" d="M27.074 301.571l-10.317-7.572"/><path stroke-linejoin="round" d="M27.074 301.571l10.427-7.572"/><path stroke-linejoin="round" d="M33.55 281.816l10.317-7.464"/><path stroke-linejoin="round" d="M33.55 281.816l3.951 12.183"/><path stroke-linejoin="round" d="M33.55 242.524l3.951-12.185"/><path stroke-linejoin="round" d="M33.55 242.524l10.317 7.463"/><path stroke-linejoin="round" d="M33.55 242.524l-10.426 7.463"/><path stroke-linejoin="round" d="M37.501 230.339h12.732"/><path stroke-linejoin="round" d="M37.501 230.339l-3.951 12.185"/><path stroke-linejoin="round" d="M37.501 230.339l-3.951-12.182"/><path stroke-linejoin="round" d="M39.917 262.169H27.074"/><path stroke-linejoin="round" d="M39.917 262.169l3.95-12.182"/><path stroke-linejoin="round" d="M39.917 262.169l3.95 12.183"/><path stroke-linejoin="round" d="M50.233 333.291H37.501"/><path stroke-linejoin="round" d="M50.233 333.291l10.317-7.464"/><path stroke-linejoin="round" d="M50.233 333.291l3.952 12.182"/><path stroke-linejoin="round" d="M54.185 345.473h12.841"/><path stroke-linejoin="round" d="M54.185 345.473l-10.318 7.572"/><path stroke-linejoin="round" d="M54.185 345.473l-3.952-12.182"/><path stroke-linejoin="round" d="M54.185 218.157l-3.952 12.182"/><path stroke-linejoin="round" d="M54.185 218.157l-10.318-7.463"/><path stroke-linejoin="round" d="M77.342 377.301l3.952-12.182"/><path stroke-linejoin="round" d="M77.342 377.301l10.317 7.574"/><path stroke-linejoin="round" d="M87.659 384.875l-3.951 12.073"/><path stroke-linejoin="round" d="M87.659 384.875l-10.317-7.574"/><path stroke-linejoin="round" d="M87.659 384.875l10.317-7.574"/><path stroke-linejoin="round" d="M108.403 75.806h12.732"/><path stroke-linejoin="round" d="M108.403 75.806l-10.427 7.572"/><path stroke-linejoin="round" d="M108.403 75.806l-3.951-12.074"/><path stroke-linejoin="round" d="M114.769 56.16l10.316 7.572"/><path stroke-linejoin="round" d="M114.769 56.16l-10.317 7.572"/><path stroke-linejoin="round" d="M114.769 56.16l-3.952-12.183"/><path stroke-linejoin="round" d="M141.769 409.131l10.426 7.573"/><path stroke-linejoin="round" d="M141.769 409.131l-10.317 7.573"/><path stroke-linejoin="round" d="M141.769 409.131l-3.952-12.183"/><path stroke-linejoin="round" d="M152.195 43.977h12.731"/><path stroke-linejoin="round" d="M152.195 43.977l-3.951-12.073"/><path stroke-linejoin="round" d="M168.878 31.904l-3.952 12.073"/><path stroke-linejoin="round" d="M168.878 31.904l-10.317-7.573"/><path stroke-linejoin="round" d="M192.036 24.331l3.951-12.183"/><path stroke-linejoin="round" d="M192.036 24.331l10.317 7.573"/><path stroke-linejoin="round" d="M212.669 24.331l-10.316 7.573"/><path stroke-linejoin="round" d="M212.669 24.331l-3.95-12.183"/><path stroke-linejoin="round" d="M219.036 416.704l10.425-7.573"/><path stroke-linejoin="round" d="M219.036 416.704l3.951 12.073"/><path stroke-linejoin="round" d="M239.78 416.704h12.73"/><path stroke-linejoin="round" d="M239.78 416.704l-3.951 12.073"/><path stroke-linejoin="round" d="M239.78 416.704l-10.319-7.573"/><path stroke-linejoin="round" d="M246.145 63.732l10.316-7.572"/><path stroke-linejoin="round" d="M252.51 43.977h-12.73"/><path stroke-linejoin="round" d="M252.51 43.977l3.951-12.073"/><path stroke-linejoin="round" d="M252.51 43.977l3.951 12.183"/><path stroke-linejoin="round" d="M266.889 396.948h12.732"/><path stroke-linejoin="round" d="M266.889 396.948l-3.952-12.073"/><path stroke-linejoin="round" d="M283.571 384.875l-3.95 12.073"/><path stroke-linejoin="round" d="M283.571 384.875l-10.317-7.574"/><path stroke-linejoin="round" d="M293.888 43.977h12.842"/><path stroke-linejoin="round" d="M293.888 43.977l-3.951 12.183"/><path stroke-linejoin="round" d="M293.888 43.977l-3.951-12.073"/><path stroke-linejoin="round" d="M327.364 313.644h12.841"/><path stroke-linejoin="round" d="M333.729 127.391l3.951-12.183"/><path stroke-linejoin="round" d="M333.729 127.391l10.427 7.463"/><path stroke-linejoin="round" d="M337.68 75.806h12.841"/><path stroke-linejoin="round" d="M337.68 75.806l-10.316 7.572"/><path stroke-linejoin="round" d="M337.68 75.806l-3.951-12.074"/><path stroke-linejoin="round" d="M344.156 325.827l10.317 7.464"/><path stroke-linejoin="round" d="M344.156 325.827l-10.427 7.464"/><path stroke-linejoin="round" d="M344.156 325.827l-3.951-12.183"/><path stroke-linejoin="round" d="M350.521 115.208H337.68"/><path stroke-linejoin="round" d="M350.521 115.208l10.317-7.574"/><path stroke-linejoin="round" d="M350.521 115.208l3.952 12.183"/><path stroke-linejoin="round" d="M354.473 127.391h12.732"/><path stroke-linejoin="round" d="M354.473 127.391l-10.317 7.463"/><path stroke-linejoin="round" d="M354.473 127.391l-3.952-12.183"/><path stroke-linejoin="round" d="M371.155 281.816h12.843"/><path stroke-linejoin="round" d="M371.155 281.816l-3.95 12.183"/><path stroke-linejoin="round" d="M371.155 218.157l-3.95 12.182"/><path stroke-linejoin="round" d="M371.155 218.157l-10.317-7.463"/><path stroke-linejoin="round" d="M371.155 218.157l10.428-7.463"/><path stroke-linejoin="round" d="M377.63 301.571l-10.425-7.572"/><path stroke-linejoin="round" d="M377.63 301.571l10.318-7.572"/><path stroke-linejoin="round" d="M377.63 301.571l3.953 12.073"/><path stroke-linejoin="round" d="M381.583 249.987h12.731"/><path stroke-linejoin="round" d="M381.583 249.987l-3.953 12.182"/><path stroke-linejoin="round" d="M381.583 249.987l-10.428-7.463"/><path stroke-linejoin="round" d="M6.441 159.219l3.951-12.182"/><path stroke-linejoin="round" d="M6.441 159.219l10.316 7.464"/><path stroke-linejoin="round" d="M10.392 147.037h12.732"/><path stroke-linejoin="round" d="M10.392 147.037l-3.951 12.182"/><path stroke-linejoin="round" d="M12.807 178.865H.075"/><path stroke-linejoin="round" d="M12.807 178.865l3.95-12.182"/><path stroke-linejoin="round" d="M12.807 178.865l3.95 12.183"/><path stroke-linejoin="round" d="M16.757 293.999l10.317 7.572"/><path stroke-linejoin="round" d="M16.757 293.999l-10.316 7.572"/><path stroke-linejoin="round" d="M16.757 293.999l-3.95-12.183"/><path stroke-linejoin="round" d="M23.124 313.644H10.392"/><path stroke-linejoin="round" d="M23.124 313.644l3.95-12.073"/><path stroke-linejoin="round" d="M23.124 313.644l3.95 12.183"/><path stroke-linejoin="round" d="M23.124 249.987H10.392"/><path stroke-linejoin="round" d="M23.124 249.987l10.426-7.463"/><path stroke-linejoin="round" d="M23.124 249.987l3.95 12.182"/><path stroke-linejoin="round" d="M27.074 262.169h12.843"/><path stroke-linejoin="round" d="M27.074 262.169l-3.95-12.182"/><path stroke-linejoin="round" d="M27.074 134.854l-3.95 12.183"/><path stroke-linejoin="round" d="M27.074 134.854l-10.317-7.463"/><path stroke-linejoin="round" d="M27.074 134.854l10.427-7.463"/><path stroke-linejoin="round" d="M33.55 218.157l-10.426-7.463"/><path stroke-linejoin="round" d="M33.55 218.157l10.317-7.463"/><path stroke-linejoin="round" d="M33.55 218.157l3.951 12.182"/><path stroke-linejoin="round" d="M37.501 333.291h12.732"/><path stroke-linejoin="round" d="M37.501 333.291l-3.951 12.182"/><path stroke-linejoin="round" d="M37.501 333.291l-10.427-7.464"/><path stroke-linejoin="round" d="M43.867 353.045l-3.95 12.074"/><path stroke-linejoin="round" d="M43.867 353.045l-10.317-7.572"/><path stroke-linejoin="round" d="M43.867 353.045l10.318-7.572"/><path stroke-linejoin="round" d="M43.867 210.694l10.318 7.463"/><path stroke-linejoin="round" d="M43.867 210.694l-10.317 7.463"/><path stroke-linejoin="round" d="M43.867 210.694l-3.95-12.183"/><path stroke-linejoin="round" d="M83.708 396.948H70.976"/><path stroke-linejoin="round" d="M83.708 396.948l3.951-12.073"/><path stroke-linejoin="round" d="M83.708 396.948l3.951 12.183"/><path stroke-linejoin="round" d="M97.976 83.378l-3.952 12.184"/><path stroke-linejoin="round" d="M97.976 83.378l-10.317-7.572"/><path stroke-linejoin="round" d="M97.976 83.378l10.427-7.572"/><path stroke-linejoin="round" d="M104.452 63.732l10.317-7.572"/><path stroke-linejoin="round" d="M104.452 63.732l3.951 12.074"/><path stroke-linejoin="round" d="M110.817 43.977H97.976"/><path stroke-linejoin="round" d="M110.817 43.977l3.952-12.073"/><path stroke-linejoin="round" d="M110.817 43.977l3.952 12.183"/><path stroke-linejoin="round" d="M131.452 416.704l10.317-7.573"/><path stroke-linejoin="round" d="M148.244 31.904l-10.427-7.573"/><path stroke-linejoin="round" d="M148.244 31.904l10.317-7.573"/><path stroke-linejoin="round" d="M148.244 31.904l3.951 12.073"/><path stroke-linejoin="round" d="M152.195 416.704h12.731"/><path stroke-linejoin="round" d="M152.195 416.704l-3.951 12.073"/><path stroke-linejoin="round" d="M152.195 416.704l-10.426-7.573"/><path stroke-linejoin="round" d="M158.561 24.331l10.317 7.573"/><path stroke-linejoin="round" d="M158.561 24.331l-10.317 7.573"/><path stroke-linejoin="round" d="M158.561 24.331l-3.952-12.183"/><path stroke-linejoin="round" d="M195.987 12.148h12.732"/><path stroke-linejoin="round" d="M195.987 12.148l-3.951 12.183"/><path stroke-linejoin="round" d="M208.719 12.148h-12.732"/><path stroke-linejoin="round" d="M208.719 12.148l3.95-12.073"/><path stroke-linejoin="round" d="M208.719 12.148l3.95 12.183"/><path stroke-linejoin="round" d="M222.987 428.777h12.842"/><path stroke-linejoin="round" d="M222.987 428.777l-10.318 7.573"/><path stroke-linejoin="round" d="M222.987 428.777l-3.951-12.073"/><path stroke-linejoin="round" d="M235.829 428.777h-12.842"/><path stroke-linejoin="round" d="M235.829 428.777l3.951-12.073"/><path stroke-linejoin="round" d="M235.829 428.777l10.316 7.573"/><path stroke-linejoin="round" d="M239.78 43.977h12.73"/><path stroke-linejoin="round" d="M239.78 43.977l-3.951-12.073"/><path stroke-linejoin="round" d="M252.51 416.704h-12.73"/><path stroke-linejoin="round" d="M252.51 416.704l3.951 12.073"/><path stroke-linejoin="round" d="M256.461 31.904l-3.951 12.073"/><path stroke-linejoin="round" d="M256.461 31.904l-10.316-7.573"/><path stroke-linejoin="round" d="M256.461 31.904l10.428-7.573"/><path stroke-linejoin="round" d="M279.621 396.948h-12.732"/><path stroke-linejoin="round" d="M279.621 396.948l3.95-12.073"/><path stroke-linejoin="round" d="M279.621 396.948l3.95 12.183"/><path stroke-linejoin="round" d="M289.937 31.904l-10.316-7.573"/><path stroke-linejoin="round" d="M289.937 31.904l10.317-7.573"/><path stroke-linejoin="round" d="M289.937 31.904l3.951 12.073"/><path stroke-linejoin="round" d="M306.73 43.977h-12.842"/><path stroke-linejoin="round" d="M306.73 43.977l3.95-12.073"/><path stroke-linejoin="round" d="M333.729 333.291l10.427-7.464"/><path stroke-linejoin="round" d="M333.729 333.291l3.951 12.182"/><path stroke-linejoin="round" d="M333.729 63.732l10.427-7.572"/><path stroke-linejoin="round" d="M333.729 63.732l3.951 12.074"/><path stroke-linejoin="round" d="M350.521 75.806H337.68"/><path stroke-linejoin="round" d="M350.521 75.806l3.952-12.074"/><path stroke-linejoin="round" d="M350.521 75.806l10.317 7.572"/><path stroke-linejoin="round" d="M354.473 333.291h12.732"/><path stroke-linejoin="round" d="M354.473 333.291l-3.952 12.182"/><path stroke-linejoin="round" d="M354.473 333.291l-10.317-7.464"/><path stroke-linejoin="round" d="M360.838 210.694l10.317 7.463"/><path stroke-linejoin="round" d="M360.838 107.634l10.317 7.574"/><path stroke-linejoin="round" d="M360.838 107.634l-10.317 7.574"/><path stroke-linejoin="round" d="M367.205 127.391h-12.732"/><path stroke-linejoin="round" d="M367.205 127.391l3.95-12.183"/><path stroke-linejoin="round" d="M377.63 262.169l3.953-12.182"/><path stroke-linejoin="round" d="M377.63 262.169l10.318 7.574"/><path stroke-linejoin="round" d="M381.583 313.644h12.731"/><path stroke-linejoin="round" d="M381.583 313.644l-3.953 12.183"/><path stroke-linejoin="round" d="M381.583 313.644l-3.953-12.073"/><path stroke-linejoin="round" d="M381.583 210.694h12.731"/><path stroke-linejoin="round" d="M381.583 210.694l-10.428 7.463"/><path stroke-linejoin="round" d="M381.583 210.694l-3.953-12.183"/><path stroke-linejoin="round" d="M383.998 281.816h-12.843"/><path stroke-linejoin="round" d="M383.998 281.816l3.95-12.073"/><path stroke-linejoin="round" d="M383.998 281.816l3.95 12.183"/><path stroke-linejoin="round" d="M387.948 293.999l10.317 7.572"/><path stroke-linejoin="round" d="M387.948 293.999l-10.318 7.572"/><path stroke-linejoin="round" d="M387.948 293.999l-3.95-12.183"/><path stroke-linejoin="round" d="M394.314 249.987h-12.731"/><path stroke-linejoin="round" d="M394.314 249.987l10.316-7.463"/><path stroke-linejoin="round" d="M394.314 249.987l3.951 12.182"/></svg>