<svg baseProfile="tiny" xmlns="http://www.w3.org/2000/svg"><path d="M144.075 144.075h144v144h-144v-144z"/><path d="M144.075 288.075h144v144h-144v-144z"/><path d="M288.075 288.075h144v144h-144v-144z"/><path d="M432.075 144.075h144v144h-144v-144z"/><path d="M288.075 432.075h144v144h-144v-144z"/><path d="M144.075 432.075h144v144h-144v-144z"/><path d="M288.075 144.075h144v144h-144v-144z"/><path d="M432.075 288.075h144v144h-144v-144z"/><path d="M144.075 576.075h144v144h-144v-144z"/><path d="M432.075 432.075h144v144h-144v-144z"/><path d="M432.075 576.075h144v144h-144v-144z"/><path d="M576.075 144.075h144v144h-144v-144z"/><path d="M576.075 288.075h144v144h-144v-144z"/><path d="M576.075 432.075h144v144h-144v-144z"/><path d="M576.075 576.075h144v144h-144v-144z"/><path d="M288.075 576.075h144v144h-144v-144z"/><path d="M144.075 720.075h144v144h-144v-144z"/><path d="M.075 144.075h144v144h-144v-144z"/><path d="M144.075.075h144v144h-144v-144z"/><path d="M432.075.075h144v144h-144v-144z"/><path d="M288.075.075h144v144h-144v-144z"/><path d="M576.075.075h144v144h-144v-144z"/><path d="M.075.075h144v144h-144v-144z"/><path d="M.075 288.075h144v144h-144v-144z"/><path d="M.075 432.075h144v144h-144v-144z"/><path d="M.075 576.075h144v144h-144v-144z"/><path d="M.075 720.075h144v144h-144v-144z"/><path d="M432.075 720.075h144v144h-144v-144z"/><path d="M576.075 720.075h144v144h-144v-144z"/><path d="M288.075 720.075h144v144h-144v-144z"/><path d="M285.808 144.075H427.54v141.732H285.808V144.075z"/><path d="M144.075 285.808h141.732V427.54H144.075V285.808z"/><path d="M285.808 285.808H427.54V427.54H285.808V285.808z"/><path d="M144.075 144.075h141.732v141.732H144.075V144.075z"/><path d="M285.808 427.54H427.54v141.732H285.808V427.54z"/><path d="M427.54 144.075h141.732v141.732H427.54V144.075z"/><path d="M144.075 427.54h141.732v141.732H144.075V427.54z"/><path d="M427.54 285.808h141.732V427.54H427.54V285.808z"/><path d="M427.54 569.272h141.732v141.732H427.54V569.272z"/><path d="M427.54 427.54h141.732v141.732H427.54V427.54z"/><path d="M569.272 144.075h141.732v141.732H569.272V144.075z"/><path d="M569.272 285.808h141.732V427.54H569.272V285.808z"/><path d="M569.272 569.272h141.732v141.732H569.272V569.272z"/><path d="M569.272 427.54h141.732v141.732H569.272V427.54z"/><path d="M285.808 569.272H427.54v141.732H285.808V569.272z"/><path d="M144.075 569.272h141.732v141.732H144.075V569.272z"/><path d="M427.54 711.005h141.732v141.732H427.54V711.005z"/><path d="M569.272 711.005h141.732v141.732H569.272V711.005z"/><path d="M285.808 711.005H427.54v141.732H285.808V711.005z"/><path d="M144.075 711.005h141.732v141.732H144.075V711.005z"/><path d="M2.343 285.808h141.732V427.54H2.343V285.808z"/><path d="M2.343 144.075h141.732v141.732H2.343V144.075z"/><path d="M285.808 2.343H427.54v141.732H285.808V2.343z"/><path d="M144.075 2.343h141.732v141.732H144.075V2.343z"/><path d="M427.54 2.343h141.732v141.732H427.54V2.343z"/><path d="M569.272 2.343h141.732v141.732H569.272V2.343z"/><path d="M2.343 2.343h141.732v141.732H2.343V2.343z"/><path d="M2.343 427.54h141.732v141.732H2.343V427.54z"/><path d="M2.343 569.272h141.732v141.732H2.343V569.272z"/><path d="M2.343 711.005h141.732v141.732H2.343V711.005z"/></svg>