<svg baseProfile="tiny" xmlns="http://www.w3.org/2000/svg"><path d="M368.578 496.137h14.173v14.173h-14.173v-14.173z"/><path d="M368.578 368.582h14.173v14.173h-14.173v-14.173z"/><path d="M368.578 170.155h14.173v14.173h-14.173v-14.173z"/><path d="M368.578 396.927h14.173V411.1h-14.173v-14.173z"/><path d="M368.578 354.409h14.173v14.173h-14.173v-14.173z"/><path d="M368.578 453.619h14.173v14.173h-14.173v-14.173z"/><path d="M368.578 467.792h14.173v14.173h-14.173v-14.173z"/><path d="M368.578 481.964h14.173v14.173h-14.173v-14.173z"/><path d="M368.578 411.1h14.173v14.173h-14.173V411.1z"/><path d="M368.578 425.273h14.173v14.173h-14.173v-14.173z"/><path d="M368.578 439.446h14.173v14.173h-14.173v-14.173z"/><path d="M368.578 382.754h14.173v14.173h-14.173v-14.173z"/><path d="M368.578 226.849h14.173v14.173h-14.173v-14.173z"/><path d="M368.578 212.675h14.173v14.173h-14.173v-14.173z"/><path d="M368.578 241.022h14.173v14.173h-14.173v-14.173z"/><path d="M368.578 198.502h14.173v14.173h-14.173v-14.173z"/><path d="M368.578 326.062h14.173v14.173h-14.173v-14.173z"/><path d="M368.578 184.329h14.173v14.173h-14.173v-14.173z"/><path d="M368.578 311.889h14.173v14.173h-14.173v-14.173z"/><path d="M368.578 297.715h14.173v14.173h-14.173v-14.173z"/><path d="M368.578 255.195h14.173v14.173h-14.173v-14.173z"/><path d="M368.578 269.369h14.173v14.173h-14.173v-14.173z"/><path d="M368.578 283.542h14.173v14.173h-14.173v-14.173z"/><path d="M368.578 340.235h14.173v14.173h-14.173v-14.173z"/><path d="M170.155 538.656h14.173v14.173h-14.173v-14.173z"/><path d="M184.328 538.656h14.173v14.173h-14.173v-14.173z"/><path d="M155.981 538.656h14.173v14.173h-14.173v-14.173z"/><path d="M198.501 538.656h14.173v14.173h-14.173v-14.173z"/><path d="M141.808 538.656h14.173v14.173h-14.173v-14.173z"/><path d="M212.675 538.656h14.173v14.173h-14.173v-14.173z"/><path d="M127.635 510.31h14.173v14.173h-14.173V510.31z"/><path d="M127.635 481.964h14.173v14.173h-14.173v-14.173z"/><path d="M127.635 496.137h14.173v14.173h-14.173v-14.173z"/><path d="M226.848 538.656h14.173v14.173h-14.173v-14.173z"/><path d="M127.635 524.483h14.173v14.173h-14.173v-14.173z"/><path d="M368.578 510.31h14.173v14.173h-14.173V510.31z"/><path d="M127.635 538.656h14.173v14.173h-14.173v-14.173z"/><path d="M340.232 538.656h14.173v14.173h-14.173v-14.173z"/><path d="M354.405 538.656h14.173v14.173h-14.173v-14.173z"/><path d="M368.578 524.483h14.173v14.173h-14.173v-14.173z"/><path d="M127.635 467.792h14.173v14.173h-14.173v-14.173z"/><path d="M326.06 538.656h14.173v14.173H326.06v-14.173z"/><path d="M297.714 538.656h14.173v14.173h-14.173v-14.173z"/><path d="M269.368 538.656h14.173v14.173h-14.173v-14.173z"/><path d="M255.195 538.656h14.173v14.173h-14.173v-14.173z"/><path d="M283.541 538.656h14.173v14.173h-14.173v-14.173z"/><path d="M311.887 538.656h14.173v14.173h-14.173v-14.173z"/><path d="M241.021 538.656h14.173v14.173h-14.173v-14.173z"/><path d="M368.578 538.656h14.173v14.173h-14.173v-14.173z"/><path d="M113.461 255.195h14.173v14.173h-14.173v-14.173z"/><path d="M113.461 311.889h14.173v14.173h-14.173v-14.173z"/><path d="M113.461 241.022h14.173v14.173h-14.173v-14.173z"/><path d="M113.461 283.542h14.173v14.173h-14.173v-14.173z"/><path d="M113.461 297.715h14.173v14.173h-14.173v-14.173z"/><path d="M113.461 269.369h14.173v14.173h-14.173v-14.173z"/><path d="M113.461 170.155h14.173v14.173h-14.173v-14.173z"/><path d="M113.461 184.329h14.173v14.173h-14.173v-14.173z"/><path d="M113.461 226.849h14.173v14.173h-14.173v-14.173z"/><path d="M113.461 212.675h14.173v14.173h-14.173v-14.173z"/><path d="M113.461 198.502h14.173v14.173h-14.173v-14.173z"/><path d="M113.461 155.982h14.173v14.173h-14.173v-14.173z"/><path d="M113.461 439.446h14.173v14.173h-14.173v-14.173z"/><path d="M113.461 411.1h14.173v14.173h-14.173V411.1z"/><path d="M113.461 425.273h14.173v14.173h-14.173v-14.173z"/><path d="M368.578 155.982h14.173v14.173h-14.173v-14.173z"/><path d="M113.461 467.792h14.173v14.173h-14.173v-14.173z"/><path d="M113.461 396.927h14.173V411.1h-14.173v-14.173z"/><path d="M113.461 326.062h14.173v14.173h-14.173v-14.173z"/><path d="M113.461 340.235h14.173v14.173h-14.173v-14.173z"/><path d="M113.461 481.964h14.173v14.173h-14.173v-14.173z"/><path d="M113.461 382.754h14.173v14.173h-14.173v-14.173z"/><path d="M113.461 368.582h14.173v14.173h-14.173v-14.173z"/><path d="M113.461 453.619h14.173v14.173h-14.173v-14.173z"/><path d="M311.887 113.462h14.173v14.173h-14.173v-14.173z"/><path d="M297.714 113.462h14.173v14.173h-14.173v-14.173z"/><path d="M283.541 113.462h14.173v14.173h-14.173v-14.173z"/><path d="M326.06 113.462h14.173v14.173H326.06v-14.173z"/><path d="M269.368 113.462h14.173v14.173h-14.173v-14.173z"/><path d="M340.232 113.462h14.173v14.173h-14.173v-14.173z"/><path d="M255.195 113.462h14.173v14.173h-14.173v-14.173z"/><path d="M113.461 141.809h14.173v14.173h-14.173v-14.173z"/><path d="M368.578 127.635h14.173v14.173h-14.173v-14.173z"/><path d="M368.578 113.462h14.173v14.173h-14.173v-14.173z"/><path d="M354.405 113.462h14.173v14.173h-14.173v-14.173z"/><path d="M368.578 141.809h14.173v14.173h-14.173v-14.173z"/><path d="M141.808 113.462h14.173v14.173h-14.173v-14.173z"/><path d="M155.981 113.462h14.173v14.173h-14.173v-14.173z"/><path d="M127.635 113.462h14.173v14.173h-14.173v-14.173z"/><path d="M113.461 127.635h14.173v14.173h-14.173v-14.173z"/><path d="M113.461 113.462h14.173v14.173h-14.173v-14.173z"/><path d="M198.501 113.462h14.173v14.173h-14.173v-14.173z"/><path d="M212.675 113.462h14.173v14.173h-14.173v-14.173z"/><path d="M226.848 113.462h14.173v14.173h-14.173v-14.173z"/><path d="M241.021 113.462h14.173v14.173h-14.173v-14.173z"/><path d="M170.155 113.462h14.173v14.173h-14.173v-14.173z"/><path d="M184.328 113.462h14.173v14.173h-14.173v-14.173z"/><path d="M113.461 354.409h14.173v14.173h-14.173v-14.173z"/><path d="M354.405 481.964h14.173v14.173h-14.173v-14.173z"/><path d="M354.405 439.446h14.173v14.173h-14.173v-14.173z"/><path d="M269.368 524.483h14.173v14.173h-14.173v-14.173z"/><path d="M354.405 467.792h14.173v14.173h-14.173v-14.173z"/><path d="M354.405 453.619h14.173v14.173h-14.173v-14.173z"/><path d="M354.405 524.483h14.173v14.173h-14.173v-14.173z"/><path d="M354.405 496.137h14.173v14.173h-14.173v-14.173z"/><path d="M283.541 524.483h14.173v14.173h-14.173v-14.173z"/><path d="M297.714 524.483h14.173v14.173h-14.173v-14.173z"/><path d="M311.887 524.483h14.173v14.173h-14.173v-14.173z"/><path d="M326.06 524.483h14.173v14.173H326.06v-14.173z"/><path d="M340.232 524.483h14.173v14.173h-14.173v-14.173z"/><path d="M354.405 510.31h14.173v14.173h-14.173V510.31z"/><path d="M354.405 326.062h14.173v14.173h-14.173v-14.173z"/><path d="M354.405 311.889h14.173v14.173h-14.173v-14.173z"/><path d="M354.405 297.715h14.173v14.173h-14.173v-14.173z"/><path d="M354.405 425.273h14.173v14.173h-14.173v-14.173z"/><path d="M354.405 340.235h14.173v14.173h-14.173v-14.173z"/><path d="M354.405 283.542h14.173v14.173h-14.173v-14.173z"/><path d="M354.405 411.1h14.173v14.173h-14.173V411.1z"/><path d="M354.405 396.927h14.173V411.1h-14.173v-14.173z"/><path d="M354.405 382.754h14.173v14.173h-14.173v-14.173z"/><path d="M354.405 354.409h14.173v14.173h-14.173v-14.173z"/><path d="M354.405 368.582h14.173v14.173h-14.173v-14.173z"/><path d="M226.848 524.483h14.173v14.173h-14.173v-14.173z"/><path d="M255.195 524.483h14.173v14.173h-14.173v-14.173z"/><path d="M141.808 425.273h14.173v14.173h-14.173v-14.173z"/><path d="M141.808 467.792h14.173v14.173h-14.173v-14.173z"/><path d="M141.808 396.927h14.173V411.1h-14.173v-14.173z"/><path d="M141.808 453.619h14.173v14.173h-14.173v-14.173z"/><path d="M141.808 439.446h14.173v14.173h-14.173v-14.173z"/><path d="M141.808 340.235h14.173v14.173h-14.173v-14.173z"/><path d="M141.808 326.062h14.173v14.173h-14.173v-14.173z"/><path d="M141.808 354.409h14.173v14.173h-14.173v-14.173z"/><path d="M141.808 368.582h14.173v14.173h-14.173v-14.173z"/><path d="M141.808 382.754h14.173v14.173h-14.173v-14.173z"/><path d="M141.808 411.1h14.173v14.173h-14.173V411.1z"/><path d="M198.501 524.483h14.173v14.173h-14.173v-14.173z"/><path d="M212.675 524.483h14.173v14.173h-14.173v-14.173z"/><path d="M141.808 481.964h14.173v14.173h-14.173v-14.173z"/><path d="M184.328 524.483h14.173v14.173h-14.173v-14.173z"/><path d="M354.405 269.369h14.173v14.173h-14.173v-14.173z"/><path d="M241.021 524.483h14.173v14.173h-14.173v-14.173z"/><path d="M141.808 496.137h14.173v14.173h-14.173v-14.173z"/><path d="M141.808 510.31h14.173v14.173h-14.173V510.31z"/><path d="M170.155 524.483h14.173v14.173h-14.173v-14.173z"/><path d="M155.981 524.483h14.173v14.173h-14.173v-14.173z"/><path d="M141.808 524.483h14.173v14.173h-14.173v-14.173z"/><path d="M127.635 269.369h14.173v14.173h-14.173v-14.173z"/><path d="M127.635 241.022h14.173v14.173h-14.173v-14.173z"/><path d="M127.635 198.502h14.173v14.173h-14.173v-14.173z"/><path d="M127.635 212.675h14.173v14.173h-14.173v-14.173z"/><path d="M127.635 226.849h14.173v14.173h-14.173v-14.173z"/><path d="M127.635 283.542h14.173v14.173h-14.173v-14.173z"/><path d="M127.635 255.195h14.173v14.173h-14.173v-14.173z"/><path d="M127.635 453.619h14.173v14.173h-14.173v-14.173z"/><path d="M127.635 127.635h14.173v14.173h-14.173v-14.173z"/><path d="M127.635 184.329h14.173v14.173h-14.173v-14.173z"/><path d="M127.635 141.809h14.173v14.173h-14.173v-14.173z"/><path d="M127.635 155.982h14.173v14.173h-14.173v-14.173z"/><path d="M141.808 127.635h14.173v14.173h-14.173v-14.173z"/><path d="M127.635 170.155h14.173v14.173h-14.173v-14.173z"/><path d="M127.635 396.927h14.173V411.1h-14.173v-14.173z"/><path d="M127.635 382.754h14.173v14.173h-14.173v-14.173z"/><path d="M127.635 411.1h14.173v14.173h-14.173V411.1z"/><path d="M127.635 439.446h14.173v14.173h-14.173v-14.173z"/><path d="M127.635 425.273h14.173v14.173h-14.173v-14.173z"/><path d="M127.635 326.062h14.173v14.173h-14.173v-14.173z"/><path d="M127.635 311.889h14.173v14.173h-14.173v-14.173z"/><path d="M141.808 311.889h14.173v14.173h-14.173v-14.173z"/><path d="M127.635 354.409h14.173v14.173h-14.173v-14.173z"/><path d="M127.635 340.235h14.173v14.173h-14.173v-14.173z"/><path d="M127.635 368.582h14.173v14.173h-14.173v-14.173z"/><path d="M354.405 212.675h14.173v14.173h-14.173v-14.173z"/><path d="M354.405 155.982h14.173v14.173h-14.173v-14.173z"/><path d="M354.405 170.155h14.173v14.173h-14.173v-14.173z"/><path d="M354.405 141.809h14.173v14.173h-14.173v-14.173z"/><path d="M354.405 127.635h14.173v14.173h-14.173v-14.173z"/><path d="M340.232 127.635h14.173v14.173h-14.173v-14.173z"/><path d="M354.405 255.195h14.173v14.173h-14.173v-14.173z"/><path d="M354.405 226.849h14.173v14.173h-14.173v-14.173z"/><path d="M354.405 184.329h14.173v14.173h-14.173v-14.173z"/><path d="M354.405 241.022h14.173v14.173h-14.173v-14.173z"/><path d="M326.06 127.635h14.173v14.173H326.06v-14.173z"/><path d="M354.405 198.502h14.173v14.173h-14.173v-14.173z"/><path d="M241.021 127.635h14.173v14.173h-14.173v-14.173z"/><path d="M198.501 127.635h14.173v14.173h-14.173v-14.173z"/><path d="M212.675 127.635h14.173v14.173h-14.173v-14.173z"/><path d="M311.887 127.635h14.173v14.173h-14.173v-14.173z"/><path d="M226.848 127.635h14.173v14.173h-14.173v-14.173z"/><path d="M184.328 127.635h14.173v14.173h-14.173v-14.173z"/><path d="M170.155 127.635h14.173v14.173h-14.173v-14.173z"/><path d="M297.714 127.635h14.173v14.173h-14.173v-14.173z"/><path d="M155.981 127.635h14.173v14.173h-14.173v-14.173z"/><path d="M283.541 127.635h14.173v14.173h-14.173v-14.173z"/><path d="M269.368 127.635h14.173v14.173h-14.173v-14.173z"/><path d="M255.195 127.635h14.173v14.173h-14.173v-14.173z"/><path d="M127.635 297.715h14.173v14.173h-14.173v-14.173z"/><path d="M396.924 538.656h14.173v14.173h-14.173v-14.173z"/><path d="M396.924 552.829h14.173v14.173h-14.173v-14.173z"/><path d="M396.924 567.001h14.173v14.173h-14.173v-14.173z"/><path d="M382.751 567.001h14.173v14.173h-14.173v-14.173z"/><path d="M396.924 524.483h14.173v14.173h-14.173v-14.173z"/><path d="M396.924 510.31h14.173v14.173h-14.173V510.31z"/><path d="M326.06 567.001h14.173v14.173H326.06v-14.173z"/><path d="M396.924 326.062h14.173v14.173h-14.173v-14.173z"/><path d="M396.924 496.137h14.173v14.173h-14.173v-14.173z"/><path d="M368.578 567.001h14.173v14.173h-14.173v-14.173z"/><path d="M354.405 567.001h14.173v14.173h-14.173v-14.173z"/><path d="M297.714 567.001h14.173v14.173h-14.173v-14.173z"/><path d="M340.232 567.001h14.173v14.173h-14.173v-14.173z"/><path d="M396.924 382.754h14.173v14.173h-14.173v-14.173z"/><path d="M396.924 368.582h14.173v14.173h-14.173v-14.173z"/><path d="M396.924 354.409h14.173v14.173h-14.173v-14.173z"/><path d="M396.924 340.235h14.173v14.173h-14.173v-14.173z"/><path d="M396.924 481.964h14.173v14.173h-14.173v-14.173z"/><path d="M396.924 396.927h14.173V411.1h-14.173v-14.173z"/><path d="M396.924 453.619h14.173v14.173h-14.173v-14.173z"/><path d="M396.924 467.792h14.173v14.173h-14.173v-14.173z"/><path d="M396.924 411.1h14.173v14.173h-14.173V411.1z"/><path d="M396.924 439.446h14.173v14.173h-14.173v-14.173z"/><path d="M396.924 425.273h14.173v14.173h-14.173v-14.173z"/><path d="M311.887 567.001h14.173v14.173h-14.173v-14.173z"/><path d="M99.288 538.656h14.173v14.173H99.288v-14.173z"/><path d="M99.288 524.483h14.173v14.173H99.288v-14.173z"/><path d="M99.288 552.829h14.173v14.173H99.288v-14.173z"/><path d="M99.288 567.001h14.173v14.173H99.288v-14.173z"/><path d="M99.288 510.31h14.173v14.173H99.288V510.31z"/><path d="M113.461 567.001h14.173v14.173h-14.173v-14.173z"/><path d="M99.288 496.137h14.173v14.173H99.288v-14.173z"/><path d="M99.288 453.619h14.173v14.173H99.288v-14.173z"/><path d="M99.288 439.446h14.173v14.173H99.288v-14.173z"/><path d="M99.288 481.964h14.173v14.173H99.288v-14.173z"/><path d="M99.288 467.792h14.173v14.173H99.288v-14.173z"/><path d="M198.501 567.001h14.173v14.173h-14.173v-14.173z"/><path d="M241.021 567.001h14.173v14.173h-14.173v-14.173z"/><path d="M226.848 567.001h14.173v14.173h-14.173v-14.173z"/><path d="M212.675 567.001h14.173v14.173h-14.173v-14.173z"/><path d="M269.368 567.001h14.173v14.173h-14.173v-14.173z"/><path d="M255.195 567.001h14.173v14.173h-14.173v-14.173z"/><path d="M283.541 567.001h14.173v14.173h-14.173v-14.173z"/><path d="M141.808 567.001h14.173v14.173h-14.173v-14.173z"/><path d="M155.981 567.001h14.173v14.173h-14.173v-14.173z"/><path d="M184.328 567.001h14.173v14.173h-14.173v-14.173z"/><path d="M127.635 567.001h14.173v14.173h-14.173v-14.173z"/><path d="M170.155 567.001h14.173v14.173h-14.173v-14.173z"/><path d="M141.808 85.115h14.173v14.173h-14.173V85.115z"/><path d="M155.981 85.115h14.173v14.173h-14.173V85.115z"/><path d="M170.155 85.115h14.173v14.173h-14.173V85.115z"/><path d="M184.328 85.115h14.173v14.173h-14.173V85.115z"/><path d="M127.635 85.115h14.173v14.173h-14.173V85.115z"/><path d="M198.501 85.115h14.173v14.173h-14.173V85.115z"/><path d="M99.288 425.273h14.173v14.173H99.288v-14.173z"/><path d="M269.368 85.115h14.173v14.173h-14.173V85.115z"/><path d="M212.675 85.115h14.173v14.173h-14.173V85.115z"/><path d="M113.461 85.115h14.173v14.173h-14.173V85.115z"/><path d="M255.195 85.115h14.173v14.173h-14.173V85.115z"/><path d="M241.021 85.115h14.173v14.173h-14.173V85.115z"/><path d="M226.848 85.115h14.173v14.173h-14.173V85.115z"/><path d="M85.115 141.809h14.173v14.173H85.115v-14.173z"/><path d="M85.115 170.155h14.173v14.173H85.115v-14.173z"/><path d="M85.115 184.329h14.173v14.173H85.115v-14.173z"/><path d="M85.115 155.982h14.173v14.173H85.115v-14.173z"/><path d="M85.115 198.502h14.173v14.173H85.115v-14.173z"/><path d="M85.115 212.675h14.173v14.173H85.115v-14.173z"/><path d="M85.115 127.635h14.173v14.173H85.115v-14.173z"/><path d="M85.115 99.289h14.173v14.173H85.115V99.289z"/><path d="M283.541 85.115h14.173v14.173h-14.173V85.115z"/><path d="M85.115 85.115h14.173v14.173H85.115V85.115z"/><path d="M99.288 85.115h14.173v14.173H99.288V85.115z"/><path d="M85.115 113.462h14.173v14.173H85.115v-14.173z"/><path d="M326.06 85.115h14.173v14.173H326.06V85.115z"/><path d="M396.924 226.849h14.173v14.173h-14.173v-14.173z"/><path d="M396.924 212.675h14.173v14.173h-14.173v-14.173z"/><path d="M396.924 198.502h14.173v14.173h-14.173v-14.173z"/><path d="M396.924 170.155h14.173v14.173h-14.173v-14.173z"/><path d="M396.924 184.329h14.173v14.173h-14.173v-14.173z"/><path d="M396.924 283.542h14.173v14.173h-14.173v-14.173z"/><path d="M396.924 297.715h14.173v14.173h-14.173v-14.173z"/><path d="M396.924 155.982h14.173v14.173h-14.173v-14.173z"/><path d="M396.924 241.022h14.173v14.173h-14.173v-14.173z"/><path d="M396.924 255.195h14.173v14.173h-14.173v-14.173z"/><path d="M396.924 269.369h14.173v14.173h-14.173v-14.173z"/><path d="M382.751 85.115h14.173v14.173h-14.173V85.115z"/><path d="M340.232 85.115h14.173v14.173h-14.173V85.115z"/><path d="M354.405 85.115h14.173v14.173h-14.173V85.115z"/><path d="M368.578 85.115h14.173v14.173h-14.173V85.115z"/><path d="M311.887 85.115h14.173v14.173h-14.173V85.115z"/><path d="M396.924 311.889h14.173v14.173h-14.173v-14.173z"/><path d="M396.924 113.462h14.173v14.173h-14.173v-14.173z"/><path d="M297.714 85.115h14.173v14.173h-14.173V85.115z"/><path d="M396.924 141.809h14.173v14.173h-14.173v-14.173z"/><path d="M396.924 127.635h14.173v14.173h-14.173v-14.173z"/><path d="M396.924 99.289h14.173v14.173h-14.173V99.289z"/><path d="M396.924 85.115h14.173v14.173h-14.173V85.115z"/><path d="M382.751 99.289h14.173v14.173h-14.173V99.289z"/><path d="M382.751 425.273h14.173v14.173h-14.173v-14.173z"/><path d="M382.751 411.1h14.173v14.173h-14.173V411.1z"/><path d="M382.751 439.446h14.173v14.173h-14.173v-14.173z"/><path d="M382.751 396.927h14.173V411.1h-14.173v-14.173z"/><path d="M382.751 538.656h14.173v14.173h-14.173v-14.173z"/><path d="M382.751 368.582h14.173v14.173h-14.173v-14.173z"/><path d="M382.751 382.754h14.173v14.173h-14.173v-14.173z"/><path d="M382.751 524.483h14.173v14.173h-14.173v-14.173z"/><path d="M382.751 467.792h14.173v14.173h-14.173v-14.173z"/><path d="M382.751 510.31h14.173v14.173h-14.173V510.31z"/><path d="M382.751 481.964h14.173v14.173h-14.173v-14.173z"/><path d="M382.751 496.137h14.173v14.173h-14.173v-14.173z"/><path d="M382.751 453.619h14.173v14.173h-14.173v-14.173z"/><path d="M382.751 241.022h14.173v14.173h-14.173v-14.173z"/><path d="M382.751 255.195h14.173v14.173h-14.173v-14.173z"/><path d="M382.751 226.849h14.173v14.173h-14.173v-14.173z"/><path d="M382.751 212.675h14.173v14.173h-14.173v-14.173z"/><path d="M382.751 354.409h14.173v14.173h-14.173v-14.173z"/><path d="M382.751 269.369h14.173v14.173h-14.173v-14.173z"/><path d="M382.751 340.235h14.173v14.173h-14.173v-14.173z"/><path d="M382.751 283.542h14.173v14.173h-14.173v-14.173z"/><path d="M382.751 326.062h14.173v14.173h-14.173v-14.173z"/><path d="M382.751 311.889h14.173v14.173h-14.173v-14.173z"/><path d="M382.751 297.715h14.173v14.173h-14.173v-14.173z"/><path d="M255.195 552.829h14.173v14.173h-14.173v-14.173z"/><path d="M382.751 552.829h14.173v14.173h-14.173v-14.173z"/><path d="M170.155 552.829h14.173v14.173h-14.173v-14.173z"/><path d="M155.981 552.829h14.173v14.173h-14.173v-14.173z"/><path d="M198.501 552.829h14.173v14.173h-14.173v-14.173z"/><path d="M184.328 552.829h14.173v14.173h-14.173v-14.173z"/><path d="M113.461 552.829h14.173v14.173h-14.173v-14.173z"/><path d="M113.461 510.31h14.173v14.173h-14.173V510.31z"/><path d="M113.461 524.483h14.173v14.173h-14.173v-14.173z"/><path d="M127.635 552.829h14.173v14.173h-14.173v-14.173z"/><path d="M113.461 538.656h14.173v14.173h-14.173v-14.173z"/><path d="M212.675 552.829h14.173v14.173h-14.173v-14.173z"/><path d="M141.808 552.829h14.173v14.173h-14.173v-14.173z"/><path d="M340.232 552.829h14.173v14.173h-14.173v-14.173z"/><path d="M326.06 552.829h14.173v14.173H326.06v-14.173z"/><path d="M368.578 552.829h14.173v14.173h-14.173v-14.173z"/><path d="M354.405 552.829h14.173v14.173h-14.173v-14.173z"/><path d="M311.887 552.829h14.173v14.173h-14.173v-14.173z"/><path d="M382.751 198.502h14.173v14.173h-14.173v-14.173z"/><path d="M226.848 552.829h14.173v14.173h-14.173v-14.173z"/><path d="M297.714 552.829h14.173v14.173h-14.173v-14.173z"/><path d="M241.021 552.829h14.173v14.173h-14.173v-14.173z"/><path d="M269.368 552.829h14.173v14.173h-14.173v-14.173z"/><path d="M283.541 552.829h14.173v14.173h-14.173v-14.173z"/><path d="M99.288 141.809h14.173v14.173H99.288v-14.173z"/><path d="M99.288 184.329h14.173v14.173H99.288v-14.173z"/><path d="M99.288 170.155h14.173v14.173H99.288v-14.173z"/><path d="M127.635 99.289h14.173v14.173h-14.173V99.289z"/><path d="M99.288 198.502h14.173v14.173H99.288v-14.173z"/><path d="M99.288 226.849h14.173v14.173H99.288v-14.173z"/><path d="M99.288 212.675h14.173v14.173H99.288v-14.173z"/><path d="M382.751 184.329h14.173v14.173h-14.173v-14.173z"/><path d="M99.288 99.289h14.173v14.173H99.288V99.289z"/><path d="M99.288 241.022h14.173v14.173H99.288v-14.173z"/><path d="M99.288 411.1h14.173v14.173H99.288V411.1z"/><path d="M99.288 113.462h14.173v14.173H99.288v-14.173z"/><path d="M99.288 127.635h14.173v14.173H99.288v-14.173z"/><path d="M99.288 155.982h14.173v14.173H99.288v-14.173z"/><path d="M99.288 255.195h14.173v14.173H99.288v-14.173z"/><path d="M99.288 340.235h14.173v14.173H99.288v-14.173z"/><path d="M99.288 354.409h14.173v14.173H99.288v-14.173z"/><path d="M99.288 396.927h14.173V411.1H99.288v-14.173z"/><path d="M99.288 382.754h14.173v14.173H99.288v-14.173z"/><path d="M99.288 368.582h14.173v14.173H99.288v-14.173z"/><path d="M99.288 283.542h14.173v14.173H99.288v-14.173z"/><path d="M99.288 269.369h14.173v14.173H99.288v-14.173z"/><path d="M99.288 297.715h14.173v14.173H99.288v-14.173z"/><path d="M99.288 311.889h14.173v14.173H99.288v-14.173z"/><path d="M99.288 326.062h14.173v14.173H99.288v-14.173z"/><path d="M113.461 99.289h14.173v14.173h-14.173V99.289z"/><path d="M354.405 99.289h14.173v14.173h-14.173V99.289z"/><path d="M368.578 99.289h14.173v14.173h-14.173V99.289z"/><path d="M141.808 99.289h14.173v14.173h-14.173V99.289z"/><path d="M340.232 99.289h14.173v14.173h-14.173V99.289z"/><path d="M113.461 496.137h14.173v14.173h-14.173v-14.173z"/><path d="M382.751 141.809h14.173v14.173h-14.173v-14.173z"/><path d="M382.751 155.982h14.173v14.173h-14.173v-14.173z"/><path d="M382.751 170.155h14.173v14.173h-14.173v-14.173z"/><path d="M382.751 113.462h14.173v14.173h-14.173v-14.173z"/><path d="M382.751 127.635h14.173v14.173h-14.173v-14.173z"/><path d="M311.887 99.289h14.173v14.173h-14.173V99.289z"/><path d="M326.06 99.289h14.173v14.173H326.06V99.289z"/><path d="M212.675 99.289h14.173v14.173h-14.173V99.289z"/><path d="M198.501 99.289h14.173v14.173h-14.173V99.289z"/><path d="M184.328 99.289h14.173v14.173h-14.173V99.289z"/><path d="M297.714 99.289h14.173v14.173h-14.173V99.289z"/><path d="M155.981 99.289h14.173v14.173h-14.173V99.289z"/><path d="M170.155 99.289h14.173v14.173h-14.173V99.289z"/><path d="M283.541 99.289h14.173v14.173h-14.173V99.289z"/><path d="M269.368 99.289h14.173v14.173h-14.173V99.289z"/><path d="M241.021 99.289h14.173v14.173h-14.173V99.289z"/><path d="M255.195 99.289h14.173v14.173h-14.173V99.289z"/><path d="M226.848 99.289h14.173v14.173h-14.173V99.289z"/><path d="M340.232 226.849h14.173v14.173h-14.173v-14.173z"/><path d="M198.501 368.582h14.173v14.173h-14.173v-14.173z"/><path d="M198.501 411.1h14.173v14.173h-14.173V411.1z"/><path d="M198.501 382.754h14.173v14.173h-14.173v-14.173z"/><path d="M198.501 283.542h14.173v14.173h-14.173v-14.173z"/><path d="M198.501 425.273h14.173v14.173h-14.173v-14.173z"/><path d="M198.501 439.446h14.173v14.173h-14.173v-14.173z"/><path d="M198.501 354.409h14.173v14.173h-14.173v-14.173z"/><path d="M198.501 297.715h14.173v14.173h-14.173v-14.173z"/><path d="M198.501 453.619h14.173v14.173h-14.173v-14.173z"/><path d="M198.501 311.889h14.173v14.173h-14.173v-14.173z"/><path d="M198.501 340.235h14.173v14.173h-14.173v-14.173z"/><path d="M198.501 326.062h14.173v14.173h-14.173v-14.173z"/><path d="M198.501 396.927h14.173V411.1h-14.173v-14.173z"/><path d="M297.714 453.619h14.173v14.173h-14.173v-14.173z"/><path d="M198.501 467.792h14.173v14.173h-14.173v-14.173z"/><path d="M297.714 467.792h14.173v14.173h-14.173v-14.173z"/><path d="M297.714 439.446h14.173v14.173h-14.173v-14.173z"/><path d="M297.714 425.273h14.173v14.173h-14.173v-14.173z"/><path d="M283.541 467.792h14.173v14.173h-14.173v-14.173z"/><path d="M269.368 467.792h14.173v14.173h-14.173v-14.173z"/><path d="M226.848 467.792h14.173v14.173h-14.173v-14.173z"/><path d="M212.675 467.792h14.173v14.173h-14.173v-14.173z"/><path d="M255.195 467.792h14.173v14.173h-14.173v-14.173z"/><path d="M241.021 467.792h14.173v14.173h-14.173v-14.173z"/><path d="M283.541 226.849h14.173v14.173h-14.173v-14.173z"/><path d="M283.541 269.369h14.173v14.173h-14.173v-14.173z"/><path d="M241.021 481.964h14.173v14.173h-14.173v-14.173z"/><path d="M283.541 241.022h14.173v14.173h-14.173v-14.173z"/><path d="M141.808 297.715h14.173v14.173h-14.173v-14.173z"/><path d="M283.541 283.542h14.173v14.173h-14.173v-14.173z"/><path d="M283.541 326.062h14.173v14.173h-14.173v-14.173z"/><path d="M283.541 354.409h14.173v14.173h-14.173v-14.173z"/><path d="M283.541 340.235h14.173v14.173h-14.173v-14.173z"/><path d="M283.541 212.675h14.173v14.173h-14.173v-14.173z"/><path d="M283.541 311.889h14.173v14.173h-14.173v-14.173z"/><path d="M283.541 297.715h14.173v14.173h-14.173v-14.173z"/><path d="M283.541 368.582h14.173v14.173h-14.173v-14.173z"/><path d="M198.501 226.849h14.173v14.173h-14.173v-14.173z"/><path d="M198.501 212.675h14.173v14.173h-14.173v-14.173z"/><path d="M283.541 198.502h14.173v14.173h-14.173v-14.173z"/><path d="M198.501 198.502h14.173v14.173h-14.173v-14.173z"/><path d="M198.501 255.195h14.173v14.173h-14.173v-14.173z"/><path d="M198.501 241.022h14.173v14.173h-14.173v-14.173z"/><path d="M198.501 269.369h14.173v14.173h-14.173v-14.173z"/><path d="M212.675 198.502h14.173v14.173h-14.173v-14.173z"/><path d="M269.368 198.502h14.173v14.173h-14.173v-14.173z"/><path d="M226.848 198.502h14.173v14.173h-14.173v-14.173z"/><path d="M241.021 198.502h14.173v14.173h-14.173v-14.173z"/><path d="M255.195 198.502h14.173v14.173h-14.173v-14.173z"/><path d="M184.328 311.889h14.173v14.173h-14.173v-14.173z"/><path d="M184.328 368.582h14.173v14.173h-14.173v-14.173z"/><path d="M184.328 297.715h14.173v14.173h-14.173v-14.173z"/><path d="M184.328 354.409h14.173v14.173h-14.173v-14.173z"/><path d="M184.328 340.235h14.173v14.173h-14.173v-14.173z"/><path d="M184.328 283.542h14.173v14.173h-14.173v-14.173z"/><path d="M184.328 326.062h14.173v14.173h-14.173v-14.173z"/><path d="M184.328 269.369h14.173v14.173h-14.173v-14.173z"/><path d="M184.328 226.849h14.173v14.173h-14.173v-14.173z"/><path d="M184.328 212.675h14.173v14.173h-14.173v-14.173z"/><path d="M184.328 241.022h14.173v14.173h-14.173v-14.173z"/><path d="M184.328 255.195h14.173v14.173h-14.173v-14.173z"/><path d="M297.714 396.927h14.173V411.1h-14.173v-14.173z"/><path d="M198.501 481.964h14.173v14.173h-14.173v-14.173z"/><path d="M184.328 382.754h14.173v14.173h-14.173v-14.173z"/><path d="M226.848 481.964h14.173v14.173h-14.173v-14.173z"/><path d="M212.675 481.964h14.173v14.173h-14.173v-14.173z"/><path d="M184.328 467.792h14.173v14.173h-14.173v-14.173z"/><path d="M184.328 481.964h14.173v14.173h-14.173v-14.173z"/><path d="M184.328 411.1h14.173v14.173h-14.173V411.1z"/><path d="M184.328 396.927h14.173V411.1h-14.173v-14.173z"/><path d="M184.328 453.619h14.173v14.173h-14.173v-14.173z"/><path d="M184.328 439.446h14.173v14.173h-14.173v-14.173z"/><path d="M184.328 425.273h14.173v14.173h-14.173v-14.173z"/><path d="M184.328 198.502h14.173v14.173h-14.173v-14.173z"/><path d="M297.714 283.542h14.173v14.173h-14.173v-14.173z"/><path d="M297.714 311.889h14.173v14.173h-14.173v-14.173z"/><path d="M297.714 297.715h14.173v14.173h-14.173v-14.173z"/><path d="M297.714 255.195h14.173v14.173h-14.173v-14.173z"/><path d="M297.714 269.369h14.173v14.173h-14.173v-14.173z"/><path d="M297.714 354.409h14.173v14.173h-14.173v-14.173z"/><path d="M297.714 382.754h14.173v14.173h-14.173v-14.173z"/><path d="M297.714 368.582h14.173v14.173h-14.173v-14.173z"/><path d="M297.714 326.062h14.173v14.173h-14.173v-14.173z"/><path d="M184.328 184.329h14.173v14.173h-14.173v-14.173z"/><path d="M297.714 241.022h14.173v14.173h-14.173v-14.173z"/><path d="M297.714 340.235h14.173v14.173h-14.173v-14.173z"/><path d="M241.021 184.329h14.173v14.173h-14.173v-14.173z"/><path d="M226.848 184.329h14.173v14.173h-14.173v-14.173z"/><path d="M212.675 184.329h14.173v14.173h-14.173v-14.173z"/><path d="M297.714 226.849h14.173v14.173h-14.173v-14.173z"/><path d="M198.501 184.329h14.173v14.173h-14.173v-14.173z"/><path d="M255.195 184.329h14.173v14.173h-14.173v-14.173z"/><path d="M269.368 184.329h14.173v14.173h-14.173v-14.173z"/><path d="M297.714 198.502h14.173v14.173h-14.173v-14.173z"/><path d="M297.714 212.675h14.173v14.173h-14.173v-14.173z"/><path d="M283.541 184.329h14.173v14.173h-14.173v-14.173z"/><path d="M297.714 184.329h14.173v14.173h-14.173v-14.173z"/><path d="M283.541 255.195h14.173v14.173h-14.173v-14.173z"/><path d="M255.195 226.849h14.173v14.173h-14.173v-14.173z"/><path d="M241.021 226.849h14.173v14.173h-14.173v-14.173z"/><path d="M226.848 283.542h14.173v14.173h-14.173v-14.173z"/><path d="M226.848 226.849h14.173v14.173h-14.173v-14.173z"/><path d="M226.848 255.195h14.173v14.173h-14.173v-14.173z"/><path d="M226.848 269.369h14.173v14.173h-14.173v-14.173z"/><path d="M226.848 241.022h14.173v14.173h-14.173v-14.173z"/><path d="M255.195 297.715h14.173v14.173h-14.173v-14.173z"/><path d="M255.195 241.022h14.173v14.173h-14.173v-14.173z"/><path d="M255.195 283.542h14.173v14.173h-14.173v-14.173z"/><path d="M255.195 269.369h14.173v14.173h-14.173v-14.173z"/><path d="M255.195 255.195h14.173v14.173h-14.173v-14.173z"/><path d="M226.848 396.927h14.173V411.1h-14.173v-14.173z"/><path d="M255.195 311.889h14.173v14.173h-14.173v-14.173z"/><path d="M226.848 297.715h14.173v14.173h-14.173v-14.173z"/><path d="M226.848 439.446h14.173v14.173h-14.173v-14.173z"/><path d="M226.848 425.273h14.173v14.173h-14.173v-14.173z"/><path d="M226.848 382.754h14.173v14.173h-14.173v-14.173z"/><path d="M226.848 411.1h14.173v14.173h-14.173V411.1z"/><path d="M241.021 439.446h14.173v14.173h-14.173v-14.173z"/><path d="M226.848 311.889h14.173v14.173h-14.173v-14.173z"/><path d="M226.848 340.235h14.173v14.173h-14.173v-14.173z"/><path d="M226.848 354.409h14.173v14.173h-14.173v-14.173z"/><path d="M226.848 368.582h14.173v14.173h-14.173v-14.173z"/><path d="M226.848 326.062h14.173v14.173h-14.173v-14.173z"/><path d="M241.021 326.062h14.173v14.173h-14.173v-14.173z"/><path d="M241.021 297.715h14.173v14.173h-14.173v-14.173z"/><path d="M241.021 368.582h14.173v14.173h-14.173v-14.173z"/><path d="M241.021 340.235h14.173v14.173h-14.173v-14.173z"/><path d="M241.021 354.409h14.173v14.173h-14.173v-14.173z"/><path d="M241.021 311.889h14.173v14.173h-14.173v-14.173z"/><path d="M241.021 283.542h14.173v14.173h-14.173v-14.173z"/><path d="M241.021 241.022h14.173v14.173h-14.173v-14.173z"/><path d="M481.961 14.249h14.173v14.173h-14.173V14.249z"/><path d="M241.021 255.195h14.173v14.173h-14.173v-14.173z"/><path d="M241.021 269.369h14.173v14.173h-14.173v-14.173z"/><path d="M255.195 382.754h14.173v14.173h-14.173v-14.173z"/><path d="M255.195 396.927h14.173V411.1h-14.173v-14.173z"/><path d="M255.195 368.582h14.173v14.173h-14.173v-14.173z"/><path d="M255.195 326.062h14.173v14.173h-14.173v-14.173z"/><path d="M255.195 354.409h14.173v14.173h-14.173v-14.173z"/><path d="M255.195 340.235h14.173v14.173h-14.173v-14.173z"/><path d="M241.021 425.273h14.173v14.173h-14.173v-14.173z"/><path d="M255.195 411.1h14.173v14.173h-14.173V411.1z"/><path d="M241.021 411.1h14.173v14.173h-14.173V411.1z"/><path d="M241.021 396.927h14.173V411.1h-14.173v-14.173z"/><path d="M255.195 425.273h14.173v14.173h-14.173v-14.173z"/><path d="M241.021 382.754h14.173v14.173h-14.173v-14.173z"/><path d="M212.675 269.369h14.173v14.173h-14.173v-14.173z"/><path d="M212.675 340.235h14.173v14.173h-14.173v-14.173z"/><path d="M212.675 425.273h14.173v14.173h-14.173v-14.173z"/><path d="M212.675 354.409h14.173v14.173h-14.173v-14.173z"/><path d="M212.675 368.582h14.173v14.173h-14.173v-14.173z"/><path d="M212.675 411.1h14.173v14.173h-14.173V411.1z"/><path d="M212.675 396.927h14.173V411.1h-14.173v-14.173z"/><path d="M212.675 382.754h14.173v14.173h-14.173v-14.173z"/><path d="M283.541 382.754h14.173v14.173h-14.173v-14.173z"/><path d="M212.675 283.542h14.173v14.173h-14.173v-14.173z"/><path d="M212.675 297.715h14.173v14.173h-14.173v-14.173z"/><path d="M212.675 311.889h14.173v14.173h-14.173v-14.173z"/><path d="M255.195 439.446h14.173v14.173h-14.173v-14.173z"/><path d="M212.675 439.446h14.173v14.173h-14.173v-14.173z"/><path d="M283.541 439.446h14.173v14.173h-14.173v-14.173z"/><path d="M283.541 425.273h14.173v14.173h-14.173v-14.173z"/><path d="M283.541 453.619h14.173v14.173h-14.173v-14.173z"/><path d="M283.541 411.1h14.173v14.173h-14.173V411.1z"/><path d="M212.675 255.195h14.173v14.173h-14.173v-14.173z"/><path d="M283.541 396.927h14.173V411.1h-14.173v-14.173z"/><path d="M269.368 453.619h14.173v14.173h-14.173v-14.173z"/><path d="M212.675 453.619h14.173v14.173h-14.173v-14.173z"/><path d="M226.848 453.619h14.173v14.173h-14.173v-14.173z"/><path d="M241.021 453.619h14.173v14.173h-14.173v-14.173z"/><path d="M255.195 453.619h14.173v14.173h-14.173v-14.173z"/><path d="M212.675 326.062h14.173v14.173h-14.173v-14.173z"/><path d="M269.368 354.409h14.173v14.173h-14.173v-14.173z"/><path d="M269.368 340.235h14.173v14.173h-14.173v-14.173z"/><path d="M269.368 297.715h14.173v14.173h-14.173v-14.173z"/><path d="M269.368 368.582h14.173v14.173h-14.173v-14.173z"/><path d="M269.368 326.062h14.173v14.173h-14.173v-14.173z"/><path d="M269.368 311.889h14.173v14.173h-14.173v-14.173z"/><path d="M269.368 425.273h14.173v14.173h-14.173v-14.173z"/><path d="M269.368 382.754h14.173v14.173h-14.173v-14.173z"/><path d="M269.368 439.446h14.173v14.173h-14.173v-14.173z"/><path d="M269.368 396.927h14.173V411.1h-14.173v-14.173z"/><path d="M269.368 411.1h14.173v14.173h-14.173V411.1z"/><path d="M226.848 212.675h14.173v14.173h-14.173v-14.173z"/><path d="M212.675 241.022h14.173v14.173h-14.173v-14.173z"/><path d="M241.021 212.675h14.173v14.173h-14.173v-14.173z"/><path d="M212.675 226.849h14.173v14.173h-14.173v-14.173z"/><path d="M269.368 283.542h14.173v14.173h-14.173v-14.173z"/><path d="M212.675 212.675h14.173v14.173h-14.173v-14.173z"/><path d="M255.195 212.675h14.173v14.173h-14.173v-14.173z"/><path d="M269.368 269.369h14.173v14.173h-14.173v-14.173z"/><path d="M269.368 255.195h14.173v14.173h-14.173v-14.173z"/><path d="M269.368 212.675h14.173v14.173h-14.173v-14.173z"/><path d="M269.368 241.022h14.173v14.173h-14.173v-14.173z"/><path d="M269.368 226.849h14.173v14.173h-14.173v-14.173z"/><path d="M297.714 411.1h14.173v14.173h-14.173V411.1z"/><path d="M155.981 467.792h14.173v14.173h-14.173v-14.173z"/><path d="M155.981 481.964h14.173v14.173h-14.173v-14.173z"/><path d="M155.981 510.31h14.173v14.173h-14.173V510.31z"/><path d="M155.981 496.137h14.173v14.173h-14.173v-14.173z"/><path d="M184.328 510.31h14.173v14.173h-14.173V510.31z"/><path d="M170.155 510.31h14.173v14.173h-14.173V510.31z"/><path d="M198.501 510.31h14.173v14.173h-14.173V510.31z"/><path d="M155.981 411.1h14.173v14.173h-14.173V411.1z"/><path d="M155.981 396.927h14.173V411.1h-14.173v-14.173z"/><path d="M155.981 425.273h14.173v14.173h-14.173v-14.173z"/><path d="M155.981 439.446h14.173v14.173h-14.173v-14.173z"/><path d="M155.981 453.619h14.173v14.173h-14.173v-14.173z"/><path d="M212.675 510.31h14.173v14.173h-14.173V510.31z"/><path d="M311.887 510.31h14.173v14.173h-14.173V510.31z"/><path d="M297.714 510.31h14.173v14.173h-14.173V510.31z"/><path d="M326.06 510.31h14.173v14.173H326.06V510.31z"/><path d="M340.232 496.137h14.173v14.173h-14.173v-14.173z"/><path d="M340.232 510.31h14.173v14.173h-14.173V510.31z"/><path d="M269.368 510.31h14.173v14.173h-14.173V510.31z"/><path d="M226.848 510.31h14.173v14.173h-14.173V510.31z"/><path d="M241.021 510.31h14.173v14.173h-14.173V510.31z"/><path d="M155.981 382.754h14.173v14.173h-14.173v-14.173z"/><path d="M255.195 510.31h14.173v14.173h-14.173V510.31z"/><path d="M283.541 510.31h14.173v14.173h-14.173V510.31z"/><path d="M155.981 255.195h14.173v14.173h-14.173v-14.173z"/><path d="M155.981 155.982h14.173v14.173h-14.173v-14.173z"/><path d="M170.155 155.982h14.173v14.173h-14.173v-14.173z"/><path d="M155.981 184.329h14.173v14.173h-14.173v-14.173z"/><path d="M155.981 198.502h14.173v14.173h-14.173v-14.173z"/><path d="M155.981 170.155h14.173v14.173h-14.173v-14.173z"/><path d="M184.328 155.982h14.173v14.173h-14.173v-14.173z"/><path d="M255.195 155.982h14.173v14.173h-14.173v-14.173z"/><path d="M241.021 155.982h14.173v14.173h-14.173v-14.173z"/><path d="M212.675 155.982h14.173v14.173h-14.173v-14.173z"/><path d="M198.501 155.982h14.173v14.173h-14.173v-14.173z"/><path d="M226.848 155.982h14.173v14.173h-14.173v-14.173z"/><path d="M155.981 354.409h14.173v14.173h-14.173v-14.173z"/><path d="M155.981 311.889h14.173v14.173h-14.173v-14.173z"/><path d="M155.981 212.675h14.173v14.173h-14.173v-14.173z"/><path d="M155.981 326.062h14.173v14.173h-14.173v-14.173z"/><path d="M155.981 340.235h14.173v14.173h-14.173v-14.173z"/><path d="M155.981 368.582h14.173v14.173h-14.173v-14.173z"/><path d="M155.981 297.715h14.173v14.173h-14.173v-14.173z"/><path d="M155.981 226.849h14.173v14.173h-14.173v-14.173z"/><path d="M155.981 241.022h14.173v14.173h-14.173v-14.173z"/><path d="M155.981 269.369h14.173v14.173h-14.173v-14.173z"/><path d="M155.981 283.542h14.173v14.173h-14.173v-14.173z"/><path d="M340.232 481.964h14.173v14.173h-14.173v-14.173z"/><path d="M340.232 368.582h14.173v14.173h-14.173v-14.173z"/><path d="M212.675 141.809h14.173v14.173h-14.173v-14.173z"/><path d="M255.195 481.964h14.173v14.173h-14.173v-14.173z"/><path d="M198.501 141.809h14.173v14.173h-14.173v-14.173z"/><path d="M155.981 141.809h14.173v14.173h-14.173v-14.173z"/><path d="M184.328 141.809h14.173v14.173h-14.173v-14.173z"/><path d="M170.155 141.809h14.173v14.173h-14.173v-14.173z"/><path d="M241.021 141.809h14.173v14.173h-14.173v-14.173z"/><path d="M311.887 141.809h14.173v14.173h-14.173v-14.173z"/><path d="M297.714 141.809h14.173v14.173h-14.173v-14.173z"/><path d="M283.541 141.809h14.173v14.173h-14.173v-14.173z"/><path d="M255.195 141.809h14.173v14.173h-14.173v-14.173z"/><path d="M269.368 141.809h14.173v14.173h-14.173v-14.173z"/><path d="M141.808 141.809h14.173v14.173h-14.173v-14.173z"/><path d="M141.808 241.022h14.173v14.173h-14.173v-14.173z"/><path d="M340.232 467.792h14.173v14.173h-14.173v-14.173z"/><path d="M326.06 141.809h14.173v14.173H326.06v-14.173z"/><path d="M141.808 283.542h14.173v14.173h-14.173v-14.173z"/><path d="M141.808 226.849h14.173v14.173h-14.173v-14.173z"/><path d="M141.808 269.369h14.173v14.173h-14.173v-14.173z"/><path d="M141.808 170.155h14.173v14.173h-14.173v-14.173z"/><path d="M141.808 155.982h14.173v14.173h-14.173v-14.173z"/><path d="M141.808 212.675h14.173v14.173h-14.173v-14.173z"/><path d="M141.808 184.329h14.173v14.173h-14.173v-14.173z"/><path d="M141.808 198.502h14.173v14.173h-14.173v-14.173z"/><path d="M141.808 255.195h14.173v14.173h-14.173v-14.173z"/><path d="M269.368 155.982h14.173v14.173h-14.173v-14.173z"/><path d="M340.232 354.409h14.173v14.173h-14.173v-14.173z"/><path d="M340.232 340.235h14.173v14.173h-14.173v-14.173z"/><path d="M340.232 141.809h14.173v14.173h-14.173v-14.173z"/><path d="M340.232 326.062h14.173v14.173h-14.173v-14.173z"/><path d="M340.232 382.754h14.173v14.173h-14.173v-14.173z"/><path d="M340.232 453.619h14.173v14.173h-14.173v-14.173z"/><path d="M340.232 439.446h14.173v14.173h-14.173v-14.173z"/><path d="M340.232 396.927h14.173V411.1h-14.173v-14.173z"/><path d="M340.232 411.1h14.173v14.173h-14.173V411.1z"/><path d="M340.232 425.273h14.173v14.173h-14.173v-14.173z"/><path d="M340.232 311.889h14.173v14.173h-14.173v-14.173z"/><path d="M340.232 198.502h14.173v14.173h-14.173v-14.173z"/><path d="M340.232 297.715h14.173v14.173h-14.173v-14.173z"/><path d="M340.232 170.155h14.173v14.173h-14.173v-14.173z"/><path d="M340.232 212.675h14.173v14.173h-14.173v-14.173z"/><path d="M340.232 155.982h14.173v14.173h-14.173v-14.173z"/><path d="M340.232 184.329h14.173v14.173h-14.173v-14.173z"/><path d="M340.232 269.369h14.173v14.173h-14.173v-14.173z"/><path d="M340.232 283.542h14.173v14.173h-14.173v-14.173z"/><path d="M340.232 255.195h14.173v14.173h-14.173v-14.173z"/><path d="M340.232 241.022h14.173v14.173h-14.173v-14.173z"/><path d="M85.115 226.849h14.173v14.173H85.115v-14.173z"/><path d="M226.848 141.809h14.173v14.173h-14.173v-14.173z"/><path d="M170.155 170.155h14.173v14.173h-14.173v-14.173z"/><path d="M212.675 170.155h14.173v14.173h-14.173v-14.173z"/><path d="M241.021 170.155h14.173v14.173h-14.173v-14.173z"/><path d="M184.328 170.155h14.173v14.173h-14.173v-14.173z"/><path d="M255.195 170.155h14.173v14.173h-14.173v-14.173z"/><path d="M198.501 170.155h14.173v14.173h-14.173v-14.173z"/><path d="M226.848 170.155h14.173v14.173h-14.173v-14.173z"/><path d="M311.887 170.155h14.173v14.173h-14.173v-14.173z"/><path d="M311.887 184.329h14.173v14.173h-14.173v-14.173z"/><path d="M297.714 170.155h14.173v14.173h-14.173v-14.173z"/><path d="M283.541 170.155h14.173v14.173h-14.173v-14.173z"/><path d="M269.368 170.155h14.173v14.173h-14.173v-14.173z"/><path d="M170.155 297.715h14.173v14.173h-14.173v-14.173z"/><path d="M170.155 269.369h14.173v14.173h-14.173v-14.173z"/><path d="M170.155 184.329h14.173v14.173h-14.173v-14.173z"/><path d="M311.887 198.502h14.173v14.173h-14.173v-14.173z"/><path d="M170.155 340.235h14.173v14.173h-14.173v-14.173z"/><path d="M170.155 311.889h14.173v14.173h-14.173v-14.173z"/><path d="M170.155 283.542h14.173v14.173h-14.173v-14.173z"/><path d="M170.155 255.195h14.173v14.173h-14.173v-14.173z"/><path d="M170.155 198.502h14.173v14.173h-14.173v-14.173z"/><path d="M170.155 212.675h14.173v14.173h-14.173v-14.173z"/><path d="M170.155 241.022h14.173v14.173h-14.173v-14.173z"/><path d="M170.155 226.849h14.173v14.173h-14.173v-14.173z"/><path d="M170.155 326.062h14.173v14.173h-14.173v-14.173z"/><path d="M311.887 453.619h14.173v14.173h-14.173v-14.173z"/><path d="M311.887 425.273h14.173v14.173h-14.173v-14.173z"/><path d="M311.887 439.446h14.173v14.173h-14.173v-14.173z"/><path d="M311.887 411.1h14.173v14.173h-14.173V411.1z"/><path d="M311.887 382.754h14.173v14.173h-14.173v-14.173z"/><path d="M311.887 396.927h14.173V411.1h-14.173v-14.173z"/><path d="M269.368 481.964h14.173v14.173h-14.173v-14.173z"/><path d="M283.541 481.964h14.173v14.173h-14.173v-14.173z"/><path d="M297.714 481.964h14.173v14.173h-14.173v-14.173z"/><path d="M311.887 467.792h14.173v14.173h-14.173v-14.173z"/><path d="M311.887 481.964h14.173v14.173h-14.173v-14.173z"/><path d="M311.887 226.849h14.173v14.173h-14.173v-14.173z"/><path d="M311.887 283.542h14.173v14.173h-14.173v-14.173z"/><path d="M311.887 255.195h14.173v14.173h-14.173v-14.173z"/><path d="M311.887 269.369h14.173v14.173h-14.173v-14.173z"/><path d="M311.887 212.675h14.173v14.173h-14.173v-14.173z"/><path d="M311.887 368.582h14.173v14.173h-14.173v-14.173z"/><path d="M311.887 241.022h14.173v14.173h-14.173v-14.173z"/><path d="M311.887 340.235h14.173v14.173h-14.173v-14.173z"/><path d="M311.887 354.409h14.173v14.173h-14.173v-14.173z"/><path d="M311.887 311.889h14.173v14.173h-14.173v-14.173z"/><path d="M311.887 297.715h14.173v14.173h-14.173v-14.173z"/><path d="M311.887 326.062h14.173v14.173h-14.173v-14.173z"/><path d="M226.848 496.137h14.173v14.173h-14.173v-14.173z"/><path d="M170.155 354.409h14.173v14.173h-14.173v-14.173z"/><path d="M326.06 368.582h14.173v14.173H326.06v-14.173z"/><path d="M326.06 326.062h14.173v14.173H326.06v-14.173z"/><path d="M326.06 354.409h14.173v14.173H326.06v-14.173z"/><path d="M326.06 297.715h14.173v14.173H326.06v-14.173z"/><path d="M326.06 311.889h14.173v14.173H326.06v-14.173z"/><path d="M326.06 411.1h14.173v14.173H326.06V411.1z"/><path d="M326.06 425.273h14.173v14.173H326.06v-14.173z"/><path d="M326.06 439.446h14.173v14.173H326.06v-14.173z"/><path d="M326.06 453.619h14.173v14.173H326.06v-14.173z"/><path d="M326.06 283.542h14.173v14.173H326.06v-14.173z"/><path d="M326.06 396.927h14.173V411.1H326.06v-14.173z"/><path d="M326.06 382.754h14.173v14.173H326.06v-14.173z"/><path d="M326.06 184.329h14.173v14.173H326.06v-14.173z"/><path d="M326.06 170.155h14.173v14.173H326.06v-14.173z"/><path d="M326.06 155.982h14.173v14.173H326.06v-14.173z"/><path d="M311.887 155.982h14.173v14.173h-14.173v-14.173z"/><path d="M297.714 155.982h14.173v14.173h-14.173v-14.173z"/><path d="M326.06 212.675h14.173v14.173H326.06v-14.173z"/><path d="M326.06 255.195h14.173v14.173H326.06v-14.173z"/><path d="M326.06 241.022h14.173v14.173H326.06v-14.173z"/><path d="M326.06 269.369h14.173v14.173H326.06v-14.173z"/><path d="M326.06 198.502h14.173v14.173H326.06v-14.173z"/><path d="M326.06 226.849h14.173v14.173H326.06v-14.173z"/><path d="M326.06 340.235h14.173v14.173H326.06v-14.173z"/><path d="M170.155 453.619h14.173v14.173h-14.173v-14.173z"/><path d="M170.155 467.792h14.173v14.173h-14.173v-14.173z"/><path d="M184.328 496.137h14.173v14.173h-14.173v-14.173z"/><path d="M170.155 481.964h14.173v14.173h-14.173v-14.173z"/><path d="M170.155 496.137h14.173v14.173h-14.173v-14.173z"/><path d="M170.155 439.446h14.173v14.173h-14.173v-14.173z"/><path d="M170.155 368.582h14.173v14.173h-14.173v-14.173z"/><path d="M170.155 425.273h14.173v14.173h-14.173v-14.173z"/><path d="M170.155 382.754h14.173v14.173h-14.173v-14.173z"/><path d="M170.155 411.1h14.173v14.173h-14.173V411.1z"/><path d="M170.155 396.927h14.173V411.1h-14.173v-14.173z"/><path d="M212.675 496.137h14.173v14.173h-14.173v-14.173z"/><path d="M297.714 496.137h14.173v14.173h-14.173v-14.173z"/><path d="M283.541 496.137h14.173v14.173h-14.173v-14.173z"/><path d="M311.887 496.137h14.173v14.173h-14.173v-14.173z"/><path d="M326.06 496.137h14.173v14.173H326.06v-14.173z"/><path d="M326.06 481.964h14.173v14.173H326.06v-14.173z"/><path d="M269.368 496.137h14.173v14.173h-14.173v-14.173z"/><path d="M326.06 467.792h14.173v14.173H326.06v-14.173z"/><path d="M283.541 155.982h14.173v14.173h-14.173v-14.173z"/><path d="M255.195 496.137h14.173v14.173h-14.173v-14.173z"/><path d="M241.021 496.137h14.173v14.173h-14.173v-14.173z"/><path d="M198.501 496.137h14.173v14.173h-14.173v-14.173z"/><path d="M56.768 70.942h14.173v14.173H56.768V70.942z"/><path d="M28.421 212.675h14.173v14.173H28.421v-14.173z"/><path d="M28.421 198.502h14.173v14.173H28.421v-14.173z"/><path d="M28.421 226.849h14.173v14.173H28.421v-14.173z"/><path d="M28.421 184.329h14.173v14.173H28.421v-14.173z"/><path d="M28.421 269.369h14.173v14.173H28.421v-14.173z"/><path d="M28.421 255.195h14.173v14.173H28.421v-14.173z"/><path d="M28.421 241.022h14.173v14.173H28.421v-14.173z"/><path d="M28.421 127.635h14.173v14.173H28.421v-14.173z"/><path d="M28.421 439.446h14.173v14.173H28.421v-14.173z"/><path d="M28.421 99.289h14.173v14.173H28.421V99.289z"/><path d="M28.421 141.809h14.173v14.173H28.421v-14.173z"/><path d="M28.421 170.155h14.173v14.173H28.421v-14.173z"/><path d="M28.421 155.982h14.173v14.173H28.421v-14.173z"/><path d="M28.421 368.582h14.173v14.173H28.421v-14.173z"/><path d="M28.421 396.927h14.173V411.1H28.421v-14.173z"/><path d="M467.788 581.174h14.173v14.173h-14.173v-14.173z"/><path d="M28.421 411.1h14.173v14.173H28.421V411.1z"/><path d="M28.421 425.273h14.173v14.173H28.421v-14.173z"/><path d="M28.421 340.235h14.173v14.173H28.421v-14.173z"/><path d="M28.421 297.715h14.173v14.173H28.421v-14.173z"/><path d="M28.421 354.409h14.173v14.173H28.421v-14.173z"/><path d="M28.421 311.889h14.173v14.173H28.421v-14.173z"/><path d="M28.421 283.542h14.173v14.173H28.421v-14.173z"/><path d="M28.421 326.062h14.173v14.173H28.421v-14.173z"/><path d="M28.421 113.462h14.173v14.173H28.421v-14.173z"/><path d="M28.421 85.115h14.173v14.173H28.421V85.115z"/><path d="M198.501 28.422h14.173v14.173h-14.173V28.422z"/><path d="M155.981 28.422h14.173v14.173h-14.173V28.422z"/><path d="M141.808 28.422h14.173v14.173h-14.173V28.422z"/><path d="M170.155 28.422h14.173v14.173h-14.173V28.422z"/><path d="M212.675 28.422h14.173v14.173h-14.173V28.422z"/><path d="M269.368 28.422h14.173v14.173h-14.173V28.422z"/><path d="M283.541 28.422h14.173v14.173h-14.173V28.422z"/><path d="M226.848 28.422h14.173v14.173h-14.173V28.422z"/><path d="M241.021 28.422h14.173v14.173h-14.173V28.422z"/><path d="M255.195 28.422h14.173v14.173h-14.173V28.422z"/><path d="M184.328 28.422h14.173v14.173h-14.173V28.422z"/><path d="M28.421 42.595h14.173v14.173H28.421V42.595z"/><path d="M28.421 28.422h14.173v14.173H28.421V28.422z"/><path d="M42.595 28.422h14.173v14.173H42.595V28.422z"/><path d="M28.421 56.769h14.173v14.173H28.421V56.769z"/><path d="M28.421 70.942h14.173v14.173H28.421V70.942z"/><path d="M56.768 28.422h14.173v14.173H56.768V28.422z"/><path d="M99.288 28.422h14.173v14.173H99.288V28.422z"/><path d="M113.461 28.422h14.173v14.173h-14.173V28.422z"/><path d="M70.941 28.422h14.173v14.173H70.941V28.422z"/><path d="M85.115 28.422h14.173v14.173H85.115V28.422z"/><path d="M127.635 28.422h14.173v14.173h-14.173V28.422z"/><path d="M28.421 524.483h14.173v14.173H28.421v-14.173z"/><path d="M297.714 637.866h14.173v14.173h-14.173v-14.173z"/><path d="M311.887 637.866h14.173v14.173h-14.173v-14.173z"/><path d="M269.368 637.866h14.173v14.173h-14.173v-14.173z"/><path d="M283.541 637.866h14.173v14.173h-14.173v-14.173z"/><path d="M326.06 637.866h14.173v14.173H326.06v-14.173z"/><path d="M354.405 637.866h14.173v14.173h-14.173v-14.173z"/><path d="M340.232 637.866h14.173v14.173h-14.173v-14.173z"/><path d="M198.501 637.866h14.173v14.173h-14.173v-14.173z"/><path d="M255.195 637.866h14.173v14.173h-14.173v-14.173z"/><path d="M212.675 637.866h14.173v14.173h-14.173v-14.173z"/><path d="M226.848 637.866h14.173v14.173h-14.173v-14.173z"/><path d="M241.021 637.866h14.173v14.173h-14.173v-14.173z"/><path d="M382.751 637.866h14.173v14.173h-14.173v-14.173z"/><path d="M467.788 637.866h14.173v14.173h-14.173v-14.173z"/><path d="M453.615 637.866h14.173v14.173h-14.173v-14.173z"/><path d="M467.788 623.693h14.173v14.173h-14.173v-14.173z"/><path d="M467.788 595.347h14.173v14.173h-14.173v-14.173z"/><path d="M467.788 609.52h14.173v14.173h-14.173V609.52z"/><path d="M396.924 637.866h14.173v14.173h-14.173v-14.173z"/><path d="M368.578 637.866h14.173v14.173h-14.173v-14.173z"/><path d="M184.328 637.866h14.173v14.173h-14.173v-14.173z"/><path d="M411.097 637.866h14.173v14.173h-14.173v-14.173z"/><path d="M425.27 637.866h14.173v14.173H425.27v-14.173z"/><path d="M439.442 637.866h14.173v14.173h-14.173v-14.173z"/><path d="M42.595 637.866h14.173v14.173H42.595v-14.173z"/><path d="M28.421 567.001h14.173v14.173H28.421v-14.173z"/><path d="M28.421 552.829h14.173v14.173H28.421v-14.173z"/><path d="M28.421 595.347h14.173v14.173H28.421v-14.173z"/><path d="M28.421 538.656h14.173v14.173H28.421v-14.173z"/><path d="M28.421 609.52h14.173v14.173H28.421V609.52z"/><path d="M28.421 581.174h14.173v14.173H28.421v-14.173z"/><path d="M28.421 467.792h14.173v14.173H28.421v-14.173z"/><path d="M28.421 481.964h14.173v14.173H28.421v-14.173z"/><path d="M28.421 510.31h14.173v14.173H28.421V510.31z"/><path d="M297.714 28.422h14.173v14.173h-14.173V28.422z"/><path d="M28.421 496.137h14.173v14.173H28.421v-14.173z"/><path d="M155.981 637.866h14.173v14.173h-14.173v-14.173z"/><path d="M127.635 637.866h14.173v14.173h-14.173v-14.173z"/><path d="M99.288 637.866h14.173v14.173H99.288v-14.173z"/><path d="M113.461 637.866h14.173v14.173h-14.173v-14.173z"/><path d="M170.155 637.866h14.173v14.173h-14.173v-14.173z"/><path d="M141.808 637.866h14.173v14.173h-14.173v-14.173z"/><path d="M28.421 637.866h14.173v14.173H28.421v-14.173z"/><path d="M28.421 453.619h14.173v14.173H28.421v-14.173z"/><path d="M28.421 623.693h14.173v14.173H28.421v-14.173z"/><path d="M85.115 637.866h14.173v14.173H85.115v-14.173z"/><path d="M70.941 637.866h14.173v14.173H70.941v-14.173z"/><path d="M56.768 637.866h14.173v14.173H56.768v-14.173z"/><path d="M28.421 382.754h14.173v14.173H28.421v-14.173z"/><path d="M269.368 623.693h14.173v14.173h-14.173v-14.173z"/><path d="M255.195 623.693h14.173v14.173h-14.173v-14.173z"/><path d="M155.981 623.693h14.173v14.173h-14.173v-14.173z"/><path d="M311.887 28.422h14.173v14.173h-14.173V28.422z"/><path d="M297.714 623.693h14.173v14.173h-14.173v-14.173z"/><path d="M311.887 623.693h14.173v14.173h-14.173v-14.173z"/><path d="M326.06 623.693h14.173v14.173H326.06v-14.173z"/><path d="M184.328 623.693h14.173v14.173h-14.173v-14.173z"/><path d="M170.155 623.693h14.173v14.173h-14.173v-14.173z"/><path d="M212.675 623.693h14.173v14.173h-14.173v-14.173z"/><path d="M226.848 623.693h14.173v14.173h-14.173v-14.173z"/><path d="M198.501 623.693h14.173v14.173h-14.173v-14.173z"/><path d="M283.541 623.693h14.173v14.173h-14.173v-14.173z"/><path d="M453.615 623.693h14.173v14.173h-14.173v-14.173z"/><path d="M439.442 623.693h14.173v14.173h-14.173v-14.173z"/><path d="M453.615 595.347h14.173v14.173h-14.173v-14.173z"/><path d="M453.615 609.52h14.173v14.173h-14.173V609.52z"/><path d="M425.27 623.693h14.173v14.173H425.27v-14.173z"/><path d="M354.405 623.693h14.173v14.173h-14.173v-14.173z"/><path d="M368.578 623.693h14.173v14.173h-14.173v-14.173z"/><path d="M340.232 623.693h14.173v14.173h-14.173v-14.173z"/><path d="M411.097 623.693h14.173v14.173h-14.173v-14.173z"/><path d="M382.751 623.693h14.173v14.173h-14.173v-14.173z"/><path d="M396.924 623.693h14.173v14.173h-14.173v-14.173z"/><path d="M42.595 552.829h14.173v14.173H42.595v-14.173z"/><path d="M42.595 510.31h14.173v14.173H42.595V510.31z"/><path d="M42.595 496.137h14.173v14.173H42.595v-14.173z"/><path d="M42.595 524.483h14.173v14.173H42.595v-14.173z"/><path d="M42.595 481.964h14.173v14.173H42.595v-14.173z"/><path d="M42.595 538.656h14.173v14.173H42.595v-14.173z"/><path d="M42.595 411.1h14.173v14.173H42.595V411.1z"/><path d="M453.615 581.174h14.173v14.173h-14.173v-14.173z"/><path d="M141.808 623.693h14.173v14.173h-14.173v-14.173z"/><path d="M42.595 425.273h14.173v14.173H42.595v-14.173z"/><path d="M42.595 453.619h14.173v14.173H42.595v-14.173z"/><path d="M42.595 439.446h14.173v14.173H42.595v-14.173z"/><path d="M42.595 467.792h14.173v14.173H42.595v-14.173z"/><path d="M99.288 623.693h14.173v14.173H99.288v-14.173z"/><path d="M85.115 623.693h14.173v14.173H85.115v-14.173z"/><path d="M42.595 567.001h14.173v14.173H42.595v-14.173z"/><path d="M113.461 623.693h14.173v14.173h-14.173v-14.173z"/><path d="M127.635 623.693h14.173v14.173h-14.173v-14.173z"/><path d="M70.941 623.693h14.173v14.173H70.941v-14.173z"/><path d="M42.595 581.174h14.173v14.173H42.595v-14.173z"/><path d="M42.595 595.347h14.173v14.173H42.595v-14.173z"/><path d="M56.768 623.693h14.173v14.173H56.768v-14.173z"/><path d="M42.595 623.693h14.173v14.173H42.595v-14.173z"/><path d="M42.595 609.52h14.173v14.173H42.595V609.52z"/><path d="M241.021 623.693h14.173v14.173h-14.173v-14.173z"/><path d="M453.615 113.462h14.173v14.173h-14.173v-14.173z"/><path d="M453.615 99.289h14.173v14.173h-14.173V99.289z"/><path d="M453.615 56.769h14.173v14.173h-14.173V56.769z"/><path d="M453.615 85.115h14.173v14.173h-14.173V85.115z"/><path d="M453.615 141.809h14.173v14.173h-14.173v-14.173z"/><path d="M453.615 70.942h14.173v14.173h-14.173V70.942z"/><path d="M453.615 127.635h14.173v14.173h-14.173v-14.173z"/><path d="M453.615 155.982h14.173v14.173h-14.173v-14.173z"/><path d="M85.115 241.022h14.173v14.173H85.115v-14.173z"/><path d="M453.615 198.502h14.173v14.173h-14.173v-14.173z"/><path d="M453.615 184.329h14.173v14.173h-14.173v-14.173z"/><path d="M453.615 170.155h14.173v14.173h-14.173v-14.173z"/><path d="M453.615 42.595h14.173v14.173h-14.173V42.595z"/><path d="M354.405 28.422h14.173v14.173h-14.173V28.422z"/><path d="M368.578 28.422h14.173v14.173h-14.173V28.422z"/><path d="M382.751 28.422h14.173v14.173h-14.173V28.422z"/><path d="M326.06 28.422h14.173v14.173H326.06V28.422z"/><path d="M340.232 28.422h14.173v14.173h-14.173V28.422z"/><path d="M439.442 28.422h14.173v14.173h-14.173V28.422z"/><path d="M453.615 28.422h14.173v14.173h-14.173V28.422z"/><path d="M453.615 226.849h14.173v14.173h-14.173v-14.173z"/><path d="M411.097 28.422h14.173v14.173h-14.173V28.422z"/><path d="M396.924 28.422h14.173v14.173h-14.173V28.422z"/><path d="M425.27 28.422h14.173v14.173H425.27V28.422z"/><path d="M453.615 255.195h14.173v14.173h-14.173v-14.173z"/><path d="M453.615 411.1h14.173v14.173h-14.173V411.1z"/><path d="M453.615 453.619h14.173v14.173h-14.173v-14.173z"/><path d="M453.615 439.446h14.173v14.173h-14.173v-14.173z"/><path d="M453.615 481.964h14.173v14.173h-14.173v-14.173z"/><path d="M453.615 425.273h14.173v14.173h-14.173v-14.173z"/><path d="M453.615 467.792h14.173v14.173h-14.173v-14.173z"/><path d="M453.615 552.829h14.173v14.173h-14.173v-14.173z"/><path d="M453.615 538.656h14.173v14.173h-14.173v-14.173z"/><path d="M453.615 524.483h14.173v14.173h-14.173v-14.173z"/><path d="M453.615 510.31h14.173v14.173h-14.173V510.31z"/><path d="M453.615 241.022h14.173v14.173h-14.173v-14.173z"/><path d="M453.615 496.137h14.173v14.173h-14.173v-14.173z"/><path d="M453.615 311.889h14.173v14.173h-14.173v-14.173z"/><path d="M453.615 297.715h14.173v14.173h-14.173v-14.173z"/><path d="M453.615 396.927h14.173V411.1h-14.173v-14.173z"/><path d="M453.615 269.369h14.173v14.173h-14.173v-14.173z"/><path d="M453.615 567.001h14.173v14.173h-14.173v-14.173z"/><path d="M453.615 283.542h14.173v14.173h-14.173v-14.173z"/><path d="M453.615 368.582h14.173v14.173h-14.173v-14.173z"/><path d="M453.615 382.754h14.173v14.173h-14.173v-14.173z"/><path d="M453.615 340.235h14.173v14.173h-14.173v-14.173z"/><path d="M453.615 326.062h14.173v14.173h-14.173v-14.173z"/><path d="M453.615 354.409h14.173v14.173h-14.173v-14.173z"/><path d="M382.751 14.249h14.173v14.173h-14.173V14.249z"/><path d="M212.675 652.039h14.173v14.173h-14.173v-14.173z"/><path d="M198.501 652.039h14.173v14.173h-14.173v-14.173z"/><path d="M184.328 652.039h14.173v14.173h-14.173v-14.173z"/><path d="M226.848 652.039h14.173v14.173h-14.173v-14.173z"/><path d="M255.195 652.039h14.173v14.173h-14.173v-14.173z"/><path d="M269.368 652.039h14.173v14.173h-14.173v-14.173z"/><path d="M241.021 652.039h14.173v14.173h-14.173v-14.173z"/><path d="M170.155 652.039h14.173v14.173h-14.173v-14.173z"/><path d="M127.635 652.039h14.173v14.173h-14.173v-14.173z"/><path d="M113.461 652.039h14.173v14.173h-14.173v-14.173z"/><path d="M141.808 652.039h14.173v14.173h-14.173v-14.173z"/><path d="M155.981 652.039h14.173v14.173h-14.173v-14.173z"/><path d="M396.924 652.039h14.173v14.173h-14.173v-14.173z"/><path d="M382.751 652.039h14.173v14.173h-14.173v-14.173z"/><path d="M99.288 652.039h14.173v14.173H99.288v-14.173z"/><path d="M411.097 652.039h14.173v14.173h-14.173v-14.173z"/><path d="M283.541 652.039h14.173v14.173h-14.173v-14.173z"/><path d="M368.578 652.039h14.173v14.173h-14.173v-14.173z"/><path d="M425.27 652.039h14.173v14.173H425.27v-14.173z"/><path d="M297.714 652.039h14.173v14.173h-14.173v-14.173z"/><path d="M311.887 652.039h14.173v14.173h-14.173v-14.173z"/><path d="M340.232 652.039h14.173v14.173h-14.173v-14.173z"/><path d="M326.06 652.039h14.173v14.173H326.06v-14.173z"/><path d="M439.442 652.039h14.173v14.173h-14.173v-14.173z"/><path d="M354.405 652.039h14.173v14.173h-14.173v-14.173z"/><path d="M85.115 652.039h14.173v14.173H85.115v-14.173z"/><path d="M14.248 496.137h14.173v14.173H14.248v-14.173z"/><path d="M14.248 538.656h14.173v14.173H14.248v-14.173z"/><path d="M14.248 481.964h14.173v14.173H14.248v-14.173z"/><path d="M14.248 552.829h14.173v14.173H14.248v-14.173z"/><path d="M14.248 524.483h14.173v14.173H14.248v-14.173z"/><path d="M14.248 411.1h14.173v14.173H14.248V411.1z"/><path d="M14.248 425.273h14.173v14.173H14.248v-14.173z"/><path d="M14.248 453.619h14.173v14.173H14.248v-14.173z"/><path d="M14.248 439.446h14.173v14.173H14.248v-14.173z"/><path d="M467.788 567.001h14.173v14.173h-14.173v-14.173z"/><path d="M14.248 510.31h14.173v14.173H14.248V510.31z"/><path d="M28.421 652.039h14.173v14.173H28.421v-14.173z"/><path d="M42.595 652.039h14.173v14.173H42.595v-14.173z"/><path d="M70.941 652.039h14.173v14.173H70.941v-14.173z"/><path d="M56.768 652.039h14.173v14.173H56.768v-14.173z"/><path d="M14.248 652.039h14.173v14.173H14.248v-14.173z"/><path d="M14.248 609.52h14.173v14.173H14.248V609.52z"/><path d="M14.248 581.174h14.173v14.173H14.248v-14.173z"/><path d="M14.248 595.347h14.173v14.173H14.248v-14.173z"/><path d="M14.248 623.693h14.173v14.173H14.248v-14.173z"/><path d="M14.248 567.001h14.173v14.173H14.248v-14.173z"/><path d="M14.248 637.866h14.173v14.173H14.248v-14.173z"/><path d="M481.961 212.675h14.173v14.173h-14.173v-14.173z"/><path d="M481.961 226.849h14.173v14.173h-14.173v-14.173z"/><path d="M481.961 255.195h14.173v14.173h-14.173v-14.173z"/><path d="M14.248 396.927h14.173V411.1H14.248v-14.173z"/><path d="M481.961 241.022h14.173v14.173h-14.173v-14.173z"/><path d="M481.961 184.329h14.173v14.173h-14.173v-14.173z"/><path d="M453.615 652.039h14.173v14.173h-14.173v-14.173z"/><path d="M481.961 311.889h14.173v14.173h-14.173v-14.173z"/><path d="M481.961 326.062h14.173v14.173h-14.173v-14.173z"/><path d="M481.961 170.155h14.173v14.173h-14.173v-14.173z"/><path d="M481.961 297.715h14.173v14.173h-14.173v-14.173z"/><path d="M481.961 269.369h14.173v14.173h-14.173v-14.173z"/><path d="M481.961 283.542h14.173v14.173h-14.173v-14.173z"/><path d="M481.961 99.289h14.173v14.173h-14.173V99.289z"/><path d="M481.961 70.942h14.173v14.173h-14.173V70.942z"/><path d="M481.961 42.595h14.173v14.173h-14.173V42.595z"/><path d="M481.961 56.769h14.173v14.173h-14.173V56.769z"/><path d="M481.961 28.422h14.173v14.173h-14.173V28.422z"/><path d="M481.961 113.462h14.173v14.173h-14.173v-14.173z"/><path d="M481.961 141.809h14.173v14.173h-14.173v-14.173z"/><path d="M481.961 127.635h14.173v14.173h-14.173v-14.173z"/><path d="M481.961 340.235h14.173v14.173h-14.173v-14.173z"/><path d="M481.961 155.982h14.173v14.173h-14.173v-14.173z"/><path d="M481.961 85.115h14.173v14.173h-14.173V85.115z"/><path d="M481.961 198.502h14.173v14.173h-14.173v-14.173z"/><path d="M481.961 524.483h14.173v14.173h-14.173v-14.173z"/><path d="M481.961 595.347h14.173v14.173h-14.173v-14.173z"/><path d="M481.961 567.001h14.173v14.173h-14.173v-14.173z"/><path d="M481.961 538.656h14.173v14.173h-14.173v-14.173z"/><path d="M481.961 552.829h14.173v14.173h-14.173v-14.173z"/><path d="M481.961 581.174h14.173v14.173h-14.173v-14.173z"/><path d="M481.961 652.039h14.173v14.173h-14.173v-14.173z"/><path d="M481.961 609.52h14.173v14.173h-14.173V609.52z"/><path d="M467.788 652.039h14.173v14.173h-14.173v-14.173z"/><path d="M481.961 623.693h14.173v14.173h-14.173v-14.173z"/><path d="M481.961 637.866h14.173v14.173h-14.173v-14.173z"/><path d="M481.961 453.619h14.173v14.173h-14.173v-14.173z"/><path d="M481.961 411.1h14.173v14.173h-14.173V411.1z"/><path d="M481.961 396.927h14.173V411.1h-14.173v-14.173z"/><path d="M481.961 382.754h14.173v14.173h-14.173v-14.173z"/><path d="M481.961 425.273h14.173v14.173h-14.173v-14.173z"/><path d="M481.961 368.582h14.173v14.173h-14.173v-14.173z"/><path d="M481.961 439.446h14.173v14.173h-14.173v-14.173z"/><path d="M481.961 481.964h14.173v14.173h-14.173v-14.173z"/><path d="M481.961 496.137h14.173v14.173h-14.173v-14.173z"/><path d="M481.961 467.792h14.173v14.173h-14.173v-14.173z"/><path d="M481.961 354.409h14.173v14.173h-14.173v-14.173z"/><path d="M481.961 510.31h14.173v14.173h-14.173V510.31z"/><path d="M496.134 14.249h14.173v14.173h-14.173V14.249z"/><path d="M496.134 212.675h14.173v14.173h-14.173v-14.173z"/><path d="M496.134 226.849h14.173v14.173h-14.173v-14.173z"/><path d="M496.134 255.195h14.173v14.173h-14.173v-14.173z"/><path d="M496.134 241.022h14.173v14.173h-14.173v-14.173z"/><path d="M496.134 184.329h14.173v14.173h-14.173v-14.173z"/><path d="M496.134 311.889h14.173v14.173h-14.173v-14.173z"/><path d="M496.134 326.062h14.173v14.173h-14.173v-14.173z"/><path d="M496.134 170.155h14.173v14.173h-14.173v-14.173z"/><path d="M496.134 297.715h14.173v14.173h-14.173v-14.173z"/><path d="M496.134 269.369h14.173v14.173h-14.173v-14.173z"/><path d="M496.134 283.542h14.173v14.173h-14.173v-14.173z"/><path d="M496.134 99.289h14.173v14.173h-14.173V99.289z"/><path d="M496.134 70.942h14.173v14.173h-14.173V70.942z"/><path d="M496.134 42.595h14.173v14.173h-14.173V42.595z"/><path d="M496.134 56.769h14.173v14.173h-14.173V56.769z"/><path d="M496.134 28.422h14.173v14.173h-14.173V28.422z"/><path d="M496.134 113.462h14.173v14.173h-14.173v-14.173z"/><path d="M496.134 141.809h14.173v14.173h-14.173v-14.173z"/><path d="M496.134 127.635h14.173v14.173h-14.173v-14.173z"/><path d="M496.134 340.235h14.173v14.173h-14.173v-14.173z"/><path d="M496.134 155.982h14.173v14.173h-14.173v-14.173z"/><path d="M496.134 85.115h14.173v14.173h-14.173V85.115z"/><path d="M496.134 198.502h14.173v14.173h-14.173v-14.173z"/><path d="M496.134 524.483h14.173v14.173h-14.173v-14.173z"/><path d="M496.134 595.347h14.173v14.173h-14.173v-14.173z"/><path d="M496.134 567.001h14.173v14.173h-14.173v-14.173z"/><path d="M496.134 538.656h14.173v14.173h-14.173v-14.173z"/><path d="M496.134 552.829h14.173v14.173h-14.173v-14.173z"/><path d="M496.134 581.174h14.173v14.173h-14.173v-14.173z"/><path d="M496.134 652.039h14.173v14.173h-14.173v-14.173z"/><path d="M496.134 609.52h14.173v14.173h-14.173V609.52z"/><path d="M496.134 623.693h14.173v14.173h-14.173v-14.173z"/><path d="M496.134 637.866h14.173v14.173h-14.173v-14.173z"/><path d="M496.134 453.619h14.173v14.173h-14.173v-14.173z"/><path d="M496.134 411.1h14.173v14.173h-14.173V411.1z"/><path d="M496.134 396.927h14.173V411.1h-14.173v-14.173z"/><path d="M496.134 382.754h14.173v14.173h-14.173v-14.173z"/><path d="M496.134 425.273h14.173v14.173h-14.173v-14.173z"/><path d="M496.134 368.582h14.173v14.173h-14.173v-14.173z"/><path d="M496.134 439.446h14.173v14.173h-14.173v-14.173z"/><path d="M496.134 481.964h14.173v14.173h-14.173v-14.173z"/><path d="M496.134 496.137h14.173v14.173h-14.173v-14.173z"/><path d="M496.134 467.792h14.173v14.173h-14.173v-14.173z"/><path d="M496.134 354.409h14.173v14.173h-14.173v-14.173z"/><path d="M496.134 510.31h14.173v14.173h-14.173V510.31z"/><path d="M.075 14.249h14.173v14.173H.075V14.249z"/><path d="M.075 212.675h14.173v14.173H.075v-14.173z"/><path d="M.075 226.849h14.173v14.173H.075v-14.173z"/><path d="M.075 255.195h14.173v14.173H.075v-14.173z"/><path d="M.075 241.022h14.173v14.173H.075v-14.173z"/><path d="M.075 184.329h14.173v14.173H.075v-14.173z"/><path d="M.075 311.889h14.173v14.173H.075v-14.173z"/><path d="M.075 326.062h14.173v14.173H.075v-14.173z"/><path d="M.075 170.155h14.173v14.173H.075v-14.173z"/><path d="M.075 297.715h14.173v14.173H.075v-14.173z"/><path d="M.075 269.369h14.173v14.173H.075v-14.173z"/><path d="M.075 283.542h14.173v14.173H.075v-14.173z"/><path d="M.075 99.289h14.173v14.173H.075V99.289z"/><path d="M.075 70.942h14.173v14.173H.075V70.942z"/><path d="M.075 42.595h14.173v14.173H.075V42.595z"/><path d="M.075 56.769h14.173v14.173H.075V56.769z"/><path d="M.075 28.422h14.173v14.173H.075V28.422z"/><path d="M.075 113.462h14.173v14.173H.075v-14.173z"/><path d="M.075 141.809h14.173v14.173H.075v-14.173z"/><path d="M.075 127.635h14.173v14.173H.075v-14.173z"/><path d="M.075 340.235h14.173v14.173H.075v-14.173z"/><path d="M.075 155.982h14.173v14.173H.075v-14.173z"/><path d="M.075 85.115h14.173v14.173H.075V85.115z"/><path d="M.075 198.502h14.173v14.173H.075v-14.173z"/><path d="M.075 524.483h14.173v14.173H.075v-14.173z"/><path d="M.075 595.347h14.173v14.173H.075v-14.173z"/><path d="M.075 567.001h14.173v14.173H.075v-14.173z"/><path d="M.075 538.656h14.173v14.173H.075v-14.173z"/><path d="M.075 552.829h14.173v14.173H.075v-14.173z"/><path d="M.075 581.174h14.173v14.173H.075v-14.173z"/><path d="M.075 652.039h14.173v14.173H.075v-14.173z"/><path d="M.075 609.52h14.173v14.173H.075V609.52z"/><path d="M.075 623.693h14.173v14.173H.075v-14.173z"/><path d="M.075 637.866h14.173v14.173H.075v-14.173z"/><path d="M.075 453.619h14.173v14.173H.075v-14.173z"/><path d="M.075 411.1h14.173v14.173H.075V411.1z"/><path d="M.075 396.927h14.173V411.1H.075v-14.173z"/><path d="M.075 382.754h14.173v14.173H.075v-14.173z"/><path d="M.075 425.273h14.173v14.173H.075v-14.173z"/><path d="M.075 368.582h14.173v14.173H.075v-14.173z"/><path d="M.075 439.446h14.173v14.173H.075v-14.173z"/><path d="M.075 481.964h14.173v14.173H.075v-14.173z"/><path d="M.075 496.137h14.173v14.173H.075v-14.173z"/><path d="M.075 467.792h14.173v14.173H.075v-14.173z"/><path d="M.075 354.409h14.173v14.173H.075v-14.173z"/><path d="M.075 510.31h14.173v14.173H.075V510.31z"/><path d="M14.248 467.792h14.173v14.173H14.248v-14.173z"/><path d="M467.788 99.289h14.173v14.173h-14.173V99.289z"/><path d="M467.788 113.462h14.173v14.173h-14.173v-14.173z"/><path d="M467.788 127.635h14.173v14.173h-14.173v-14.173z"/><path d="M467.788 141.809h14.173v14.173h-14.173v-14.173z"/><path d="M467.788 70.942h14.173v14.173h-14.173V70.942z"/><path d="M467.788 85.115h14.173v14.173h-14.173V85.115z"/><path d="M467.788 56.769h14.173v14.173h-14.173V56.769z"/><path d="M340.232 14.249h14.173v14.173h-14.173V14.249z"/><path d="M467.788 212.675h14.173v14.173h-14.173v-14.173z"/><path d="M467.788 155.982h14.173v14.173h-14.173v-14.173z"/><path d="M467.788 170.155h14.173v14.173h-14.173v-14.173z"/><path d="M467.788 184.329h14.173v14.173h-14.173v-14.173z"/><path d="M396.924 14.249h14.173v14.173h-14.173V14.249z"/><path d="M411.097 14.249h14.173v14.173h-14.173V14.249z"/><path d="M14.248 382.754h14.173v14.173H14.248v-14.173z"/><path d="M42.595 396.927h14.173V411.1H42.595v-14.173z"/><path d="M368.578 14.249h14.173v14.173h-14.173V14.249z"/><path d="M354.405 14.249h14.173v14.173h-14.173V14.249z"/><path d="M439.442 14.249h14.173v14.173h-14.173V14.249z"/><path d="M467.788 14.249h14.173v14.173h-14.173V14.249z"/><path d="M425.27 14.249h14.173v14.173H425.27V14.249z"/><path d="M467.788 28.422h14.173v14.173h-14.173V28.422z"/><path d="M467.788 42.595h14.173v14.173h-14.173V42.595z"/><path d="M453.615 14.249h14.173v14.173h-14.173V14.249z"/><path d="M467.788 198.502h14.173v14.173h-14.173v-14.173z"/><path d="M467.788 411.1h14.173v14.173h-14.173V411.1z"/><path d="M467.788 453.619h14.173v14.173h-14.173v-14.173z"/><path d="M467.788 481.964h14.173v14.173h-14.173v-14.173z"/><path d="M467.788 439.446h14.173v14.173h-14.173v-14.173z"/><path d="M467.788 425.273h14.173v14.173h-14.173v-14.173z"/><path d="M467.788 467.792h14.173v14.173h-14.173v-14.173z"/><path d="M467.788 538.656h14.173v14.173h-14.173v-14.173z"/><path d="M467.788 496.137h14.173v14.173h-14.173v-14.173z"/><path d="M467.788 552.829h14.173v14.173h-14.173v-14.173z"/><path d="M467.788 510.31h14.173v14.173h-14.173V510.31z"/><path d="M467.788 524.483h14.173v14.173h-14.173v-14.173z"/><path d="M467.788 269.369h14.173v14.173h-14.173v-14.173z"/><path d="M467.788 297.715h14.173v14.173h-14.173v-14.173z"/><path d="M467.788 396.927h14.173V411.1h-14.173v-14.173z"/><path d="M467.788 241.022h14.173v14.173h-14.173v-14.173z"/><path d="M467.788 255.195h14.173v14.173h-14.173v-14.173z"/><path d="M467.788 311.889h14.173v14.173h-14.173v-14.173z"/><path d="M467.788 283.542h14.173v14.173h-14.173v-14.173z"/><path d="M467.788 368.582h14.173v14.173h-14.173v-14.173z"/><path d="M467.788 326.062h14.173v14.173h-14.173v-14.173z"/><path d="M467.788 382.754h14.173v14.173h-14.173v-14.173z"/><path d="M467.788 340.235h14.173v14.173h-14.173v-14.173z"/><path d="M467.788 354.409h14.173v14.173h-14.173v-14.173z"/><path d="M467.788 226.849h14.173v14.173h-14.173v-14.173z"/><path d="M14.248 155.982h14.173v14.173H14.248v-14.173z"/><path d="M14.248 212.675h14.173v14.173H14.248v-14.173z"/><path d="M14.248 170.155h14.173v14.173H14.248v-14.173z"/><path d="M14.248 141.809h14.173v14.173H14.248v-14.173z"/><path d="M14.248 184.329h14.173v14.173H14.248v-14.173z"/><path d="M14.248 198.502h14.173v14.173H14.248v-14.173z"/><path d="M14.248 127.635h14.173v14.173H14.248v-14.173z"/><path d="M14.248 70.942h14.173v14.173H14.248V70.942z"/><path d="M14.248 42.595h14.173v14.173H14.248V42.595z"/><path d="M14.248 99.289h14.173v14.173H14.248V99.289z"/><path d="M14.248 113.462h14.173v14.173H14.248v-14.173z"/><path d="M14.248 85.115h14.173v14.173H14.248V85.115z"/><path d="M14.248 56.769h14.173v14.173H14.248V56.769z"/><path d="M14.248 311.889h14.173v14.173H14.248v-14.173z"/><path d="M14.248 326.062h14.173v14.173H14.248v-14.173z"/><path d="M326.06 14.249h14.173v14.173H326.06V14.249z"/><path d="M14.248 368.582h14.173v14.173H14.248v-14.173z"/><path d="M14.248 354.409h14.173v14.173H14.248v-14.173z"/><path d="M14.248 269.369h14.173v14.173H14.248v-14.173z"/><path d="M14.248 241.022h14.173v14.173H14.248v-14.173z"/><path d="M14.248 297.715h14.173v14.173H14.248v-14.173z"/><path d="M14.248 255.195h14.173v14.173H14.248v-14.173z"/><path d="M14.248 283.542h14.173v14.173H14.248v-14.173z"/><path d="M14.248 226.849h14.173v14.173H14.248v-14.173z"/><path d="M14.248 340.235h14.173v14.173H14.248v-14.173z"/><path d="M241.021 14.249h14.173v14.173h-14.173V14.249z"/><path d="M226.848 14.249h14.173v14.173h-14.173V14.249z"/><path d="M212.675 14.249h14.173v14.173h-14.173V14.249z"/><path d="M198.501 14.249h14.173v14.173h-14.173V14.249z"/><path d="M184.328 14.249h14.173v14.173h-14.173V14.249z"/><path d="M297.714 14.249h14.173v14.173h-14.173V14.249z"/><path d="M255.195 14.249h14.173v14.173h-14.173V14.249z"/><path d="M311.887 14.249h14.173v14.173h-14.173V14.249z"/><path d="M170.155 14.249h14.173v14.173h-14.173V14.249z"/><path d="M283.541 14.249h14.173v14.173h-14.173V14.249z"/><path d="M269.368 14.249h14.173v14.173h-14.173V14.249z"/><path d="M14.248 14.249h14.173v14.173H14.248V14.249z"/><path d="M42.595 14.249h14.173v14.173H42.595V14.249z"/><path d="M56.768 14.249h14.173v14.173H56.768V14.249z"/><path d="M70.941 14.249h14.173v14.173H70.941V14.249z"/><path d="M14.248 28.422h14.173v14.173H14.248V28.422z"/><path d="M28.421 14.249h14.173v14.173H28.421V14.249z"/><path d="M155.981 14.249h14.173v14.173h-14.173V14.249z"/><path d="M127.635 14.249h14.173v14.173h-14.173V14.249z"/><path d="M141.808 14.249h14.173v14.173h-14.173V14.249z"/><path d="M85.115 14.249h14.173v14.173H85.115V14.249z"/><path d="M99.288 14.249h14.173v14.173H99.288V14.249z"/><path d="M113.461 14.249h14.173v14.173h-14.173V14.249z"/><path d="M481.961.075h14.173v14.173h-14.173V.075z"/><path d="M382.751.075h14.173v14.173h-14.173V.075z"/><path d="M496.134.075h14.173v14.173h-14.173V.075z"/><path d="M.075.075h14.173v14.173H.075V.075z"/><path d="M340.232.075h14.173v14.173h-14.173V.075z"/><path d="M396.924.075h14.173v14.173h-14.173V.075z"/><path d="M411.097.075h14.173v14.173h-14.173V.075z"/><path d="M368.578.075h14.173v14.173h-14.173V.075z"/><path d="M354.405.075h14.173v14.173h-14.173V.075z"/><path d="M439.442.075h14.173v14.173h-14.173V.075z"/><path d="M467.788.075h14.173v14.173h-14.173V.075z"/><path d="M425.27.075h14.173v14.173H425.27V.075z"/><path d="M453.615.075h14.173v14.173h-14.173V.075z"/><path d="M326.06.075h14.173v14.173H326.06V.075z"/><path d="M241.021.075h14.173v14.173h-14.173V.075z"/><path d="M226.848.075h14.173v14.173h-14.173V.075z"/><path d="M212.675.075h14.173v14.173h-14.173V.075z"/><path d="M198.501.075h14.173v14.173h-14.173V.075z"/><path d="M184.328.075h14.173v14.173h-14.173V.075z"/><path d="M297.714.075h14.173v14.173h-14.173V.075z"/><path d="M255.195.075h14.173v14.173h-14.173V.075z"/><path d="M311.887.075h14.173v14.173h-14.173V.075z"/><path d="M170.155.075h14.173v14.173h-14.173V.075z"/><path d="M283.541.075h14.173v14.173h-14.173V.075z"/><path d="M269.368.075h14.173v14.173h-14.173V.075z"/><path d="M14.248.075h14.173v14.173H14.248V.075z"/><path d="M42.595.075h14.173v14.173H42.595V.075z"/><path d="M56.768.075h14.173v14.173H56.768V.075z"/><path d="M70.941.075h14.173v14.173H70.941V.075z"/><path d="M28.421.075h14.173v14.173H28.421V.075z"/><path d="M155.981.075h14.173v14.173h-14.173V.075z"/><path d="M127.635.075h14.173v14.173h-14.173V.075z"/><path d="M141.808.075h14.173v14.173h-14.173V.075z"/><path d="M85.115.075h14.173v14.173H85.115V.075z"/><path d="M99.288.075h14.173v14.173H99.288V.075z"/><path d="M113.461.075h14.173v14.173h-14.173V.075z"/><path d="M481.961 666.211h14.173v14.174h-14.173v-14.174z"/><path d="M382.751 666.211h14.173v14.174h-14.173v-14.174z"/><path d="M496.134 666.211h14.173v14.174h-14.173v-14.174z"/><path d="M.075 666.211h14.173v14.174H.075v-14.174z"/><path d="M340.232 666.211h14.173v14.174h-14.173v-14.174z"/><path d="M396.924 666.211h14.173v14.174h-14.173v-14.174z"/><path d="M411.097 666.211h14.173v14.174h-14.173v-14.174z"/><path d="M368.578 666.211h14.173v14.174h-14.173v-14.174z"/><path d="M354.405 666.211h14.173v14.174h-14.173v-14.174z"/><path d="M439.442 666.211h14.173v14.174h-14.173v-14.174z"/><path d="M467.788 666.211h14.173v14.174h-14.173v-14.174z"/><path d="M425.27 666.211h14.173v14.174H425.27v-14.174z"/><path d="M453.615 666.211h14.173v14.174h-14.173v-14.174z"/><path d="M326.06 666.211h14.173v14.174H326.06v-14.174z"/><path d="M241.021 666.211h14.173v14.174h-14.173v-14.174z"/><path d="M226.848 666.211h14.173v14.174h-14.173v-14.174z"/><path d="M212.675 666.211h14.173v14.174h-14.173v-14.174z"/><path d="M198.501 666.211h14.173v14.174h-14.173v-14.174z"/><path d="M184.328 666.211h14.173v14.174h-14.173v-14.174z"/><path d="M297.714 666.211h14.173v14.174h-14.173v-14.174z"/><path d="M255.195 666.211h14.173v14.174h-14.173v-14.174z"/><path d="M311.887 666.211h14.173v14.174h-14.173v-14.174z"/><path d="M170.155 666.211h14.173v14.174h-14.173v-14.174z"/><path d="M283.541 666.211h14.173v14.174h-14.173v-14.174z"/><path d="M269.368 666.211h14.173v14.174h-14.173v-14.174z"/><path d="M14.248 666.211h14.173v14.174H14.248v-14.174z"/><path d="M42.595 666.211h14.173v14.174H42.595v-14.174z"/><path d="M56.768 666.211h14.173v14.174H56.768v-14.174z"/><path d="M70.941 666.211h14.173v14.174H70.941v-14.174z"/><path d="M28.421 666.211h14.173v14.174H28.421v-14.174z"/><path d="M155.981 666.211h14.173v14.174h-14.173v-14.174z"/><path d="M127.635 666.211h14.173v14.174h-14.173v-14.174z"/><path d="M141.808 666.211h14.173v14.174h-14.173v-14.174z"/><path d="M85.115 666.211h14.173v14.174H85.115v-14.174z"/><path d="M99.288 666.211h14.173v14.174H99.288v-14.174z"/><path d="M113.461 666.211h14.173v14.174h-14.173v-14.174z"/><path d="M453.615 212.675h14.173v14.173h-14.173v-14.173z"/><path d="M70.941 411.1h14.173v14.173H70.941V411.1z"/><path d="M70.941 396.927h14.173V411.1H70.941v-14.173z"/><path d="M70.941 368.582h14.173v14.173H70.941v-14.173z"/><path d="M70.941 382.754h14.173v14.173H70.941v-14.173z"/><path d="M70.941 439.446h14.173v14.173H70.941v-14.173z"/><path d="M70.941 425.273h14.173v14.173H70.941v-14.173z"/><path d="M70.941 326.062h14.173v14.173H70.941v-14.173z"/><path d="M70.941 354.409h14.173v14.173H70.941v-14.173z"/><path d="M70.941 297.715h14.173v14.173H70.941v-14.173z"/><path d="M70.941 311.889h14.173v14.173H70.941v-14.173z"/><path d="M70.941 340.235h14.173v14.173H70.941v-14.173z"/><path d="M70.941 453.619h14.173v14.173H70.941v-14.173z"/><path d="M70.941 538.656h14.173v14.173H70.941v-14.173z"/><path d="M70.941 567.001h14.173v14.173H70.941v-14.173z"/><path d="M70.941 581.174h14.173v14.173H70.941v-14.173z"/><path d="M70.941 552.829h14.173v14.173H70.941v-14.173z"/><path d="M70.941 467.792h14.173v14.173H70.941v-14.173z"/><path d="M85.115 595.347h14.173v14.173H85.115v-14.173z"/><path d="M70.941 595.347h14.173v14.173H70.941v-14.173z"/><path d="M70.941 481.964h14.173v14.173H70.941v-14.173z"/><path d="M70.941 283.542h14.173v14.173H70.941v-14.173z"/><path d="M70.941 496.137h14.173v14.173H70.941v-14.173z"/><path d="M70.941 510.31h14.173v14.173H70.941V510.31z"/><path d="M70.941 524.483h14.173v14.173H70.941v-14.173z"/><path d="M70.941 155.982h14.173v14.173H70.941v-14.173z"/><path d="M99.288 70.942h14.173v14.173H99.288V70.942z"/><path d="M85.115 70.942h14.173v14.173H85.115V70.942z"/><path d="M70.941 85.115h14.173v14.173H70.941V85.115z"/><path d="M70.941 99.289h14.173v14.173H70.941V99.289z"/><path d="M113.461 70.942h14.173v14.173h-14.173V70.942z"/><path d="M70.941 70.942h14.173v14.173H70.941V70.942z"/><path d="M170.155 70.942h14.173v14.173h-14.173V70.942z"/><path d="M42.595 382.754h14.173v14.173H42.595v-14.173z"/><path d="M141.808 70.942h14.173v14.173h-14.173V70.942z"/><path d="M155.981 70.942h14.173v14.173h-14.173V70.942z"/><path d="M127.635 70.942h14.173v14.173h-14.173V70.942z"/><path d="M70.941 269.369h14.173v14.173H70.941v-14.173z"/><path d="M70.941 198.502h14.173v14.173H70.941v-14.173z"/><path d="M70.941 212.675h14.173v14.173H70.941v-14.173z"/><path d="M70.941 226.849h14.173v14.173H70.941v-14.173z"/><path d="M70.941 241.022h14.173v14.173H70.941v-14.173z"/><path d="M70.941 255.195h14.173v14.173H70.941v-14.173z"/><path d="M70.941 170.155h14.173v14.173H70.941v-14.173z"/><path d="M70.941 184.329h14.173v14.173H70.941v-14.173z"/><path d="M70.941 127.635h14.173v14.173H70.941v-14.173z"/><path d="M70.941 141.809h14.173v14.173H70.941v-14.173z"/><path d="M99.288 595.347h14.173v14.173H99.288v-14.173z"/><path d="M70.941 113.462h14.173v14.173H70.941v-14.173z"/><path d="M297.714 595.347h14.173v14.173h-14.173v-14.173z"/><path d="M425.27 439.446h14.173v14.173H425.27v-14.173z"/><path d="M425.27 453.619h14.173v14.173H425.27v-14.173z"/><path d="M425.27 467.792h14.173v14.173H425.27v-14.173z"/><path d="M425.27 411.1h14.173v14.173H425.27V411.1z"/><path d="M425.27 425.273h14.173v14.173H425.27v-14.173z"/><path d="M425.27 481.964h14.173v14.173H425.27v-14.173z"/><path d="M425.27 567.001h14.173v14.173H425.27v-14.173z"/><path d="M113.461 595.347h14.173v14.173h-14.173v-14.173z"/><path d="M425.27 552.829h14.173v14.173H425.27v-14.173z"/><path d="M425.27 538.656h14.173v14.173H425.27v-14.173z"/><path d="M425.27 510.31h14.173v14.173H425.27V510.31z"/><path d="M425.27 396.927h14.173V411.1H425.27v-14.173z"/><path d="M425.27 524.483h14.173v14.173H425.27v-14.173z"/><path d="M425.27 269.369h14.173v14.173H425.27v-14.173z"/><path d="M425.27 283.542h14.173v14.173H425.27v-14.173z"/><path d="M425.27 255.195h14.173v14.173H425.27v-14.173z"/><path d="M425.27 297.715h14.173v14.173H425.27v-14.173z"/><path d="M425.27 241.022h14.173v14.173H425.27v-14.173z"/><path d="M425.27 340.235h14.173v14.173H425.27v-14.173z"/><path d="M425.27 368.582h14.173v14.173H425.27v-14.173z"/><path d="M425.27 354.409h14.173v14.173H425.27v-14.173z"/><path d="M425.27 382.754h14.173v14.173H425.27v-14.173z"/><path d="M425.27 311.889h14.173v14.173H425.27v-14.173z"/><path d="M425.27 326.062h14.173v14.173H425.27v-14.173z"/><path d="M425.27 496.137h14.173v14.173H425.27v-14.173z"/><path d="M226.848 595.347h14.173v14.173h-14.173v-14.173z"/><path d="M212.675 595.347h14.173v14.173h-14.173v-14.173z"/><path d="M198.501 595.347h14.173v14.173h-14.173v-14.173z"/><path d="M241.021 595.347h14.173v14.173h-14.173v-14.173z"/><path d="M255.195 595.347h14.173v14.173h-14.173v-14.173z"/><path d="M155.981 595.347h14.173v14.173h-14.173v-14.173z"/><path d="M127.635 595.347h14.173v14.173h-14.173v-14.173z"/><path d="M425.27 581.174h14.173v14.173H425.27v-14.173z"/><path d="M184.328 595.347h14.173v14.173h-14.173v-14.173z"/><path d="M269.368 595.347h14.173v14.173h-14.173v-14.173z"/><path d="M170.155 595.347h14.173v14.173h-14.173v-14.173z"/><path d="M141.808 595.347h14.173v14.173h-14.173v-14.173z"/><path d="M283.541 595.347h14.173v14.173h-14.173v-14.173z"/><path d="M396.924 595.347h14.173v14.173h-14.173v-14.173z"/><path d="M411.097 595.347h14.173v14.173h-14.173v-14.173z"/><path d="M368.578 595.347h14.173v14.173h-14.173v-14.173z"/><path d="M425.27 595.347h14.173v14.173H425.27v-14.173z"/><path d="M382.751 595.347h14.173v14.173h-14.173v-14.173z"/><path d="M198.501 70.942h14.173v14.173h-14.173V70.942z"/><path d="M311.887 595.347h14.173v14.173h-14.173v-14.173z"/><path d="M354.405 595.347h14.173v14.173h-14.173v-14.173z"/><path d="M340.232 595.347h14.173v14.173h-14.173v-14.173z"/><path d="M326.06 595.347h14.173v14.173H326.06v-14.173z"/><path d="M340.232 70.942h14.173v14.173h-14.173V70.942z"/><path d="M198.501 581.174h14.173v14.173h-14.173v-14.173z"/><path d="M184.328 581.174h14.173v14.173h-14.173v-14.173z"/><path d="M212.675 581.174h14.173v14.173h-14.173v-14.173z"/><path d="M241.021 581.174h14.173v14.173h-14.173v-14.173z"/><path d="M226.848 581.174h14.173v14.173h-14.173v-14.173z"/><path d="M170.155 581.174h14.173v14.173h-14.173v-14.173z"/><path d="M85.115 581.174h14.173v14.173H85.115v-14.173z"/><path d="M255.195 581.174h14.173v14.173h-14.173v-14.173z"/><path d="M99.288 581.174h14.173v14.173H99.288v-14.173z"/><path d="M141.808 581.174h14.173v14.173h-14.173v-14.173z"/><path d="M155.981 581.174h14.173v14.173h-14.173v-14.173z"/><path d="M127.635 581.174h14.173v14.173h-14.173v-14.173z"/><path d="M113.461 581.174h14.173v14.173h-14.173v-14.173z"/><path d="M368.578 581.174h14.173v14.173h-14.173v-14.173z"/><path d="M382.751 581.174h14.173v14.173h-14.173v-14.173z"/><path d="M411.097 567.001h14.173v14.173h-14.173v-14.173z"/><path d="M396.924 581.174h14.173v14.173h-14.173v-14.173z"/><path d="M411.097 581.174h14.173v14.173h-14.173v-14.173z"/><path d="M311.887 581.174h14.173v14.173h-14.173v-14.173z"/><path d="M283.541 581.174h14.173v14.173h-14.173v-14.173z"/><path d="M340.232 581.174h14.173v14.173h-14.173v-14.173z"/><path d="M297.714 581.174h14.173v14.173h-14.173v-14.173z"/><path d="M326.06 581.174h14.173v14.173H326.06v-14.173z"/><path d="M269.368 581.174h14.173v14.173h-14.173v-14.173z"/><path d="M354.405 581.174h14.173v14.173h-14.173v-14.173z"/><path d="M85.115 340.235h14.173v14.173H85.115v-14.173z"/><path d="M85.115 354.409h14.173v14.173H85.115v-14.173z"/><path d="M85.115 326.062h14.173v14.173H85.115v-14.173z"/><path d="M85.115 567.001h14.173v14.173H85.115v-14.173z"/><path d="M85.115 382.754h14.173v14.173H85.115v-14.173z"/><path d="M85.115 311.889h14.173v14.173H85.115v-14.173z"/><path d="M85.115 396.927h14.173V411.1H85.115v-14.173z"/><path d="M85.115 255.195h14.173v14.173H85.115v-14.173z"/><path d="M85.115 269.369h14.173v14.173H85.115v-14.173z"/><path d="M85.115 297.715h14.173v14.173H85.115v-14.173z"/><path d="M85.115 283.542h14.173v14.173H85.115v-14.173z"/><path d="M85.115 368.582h14.173v14.173H85.115v-14.173z"/><path d="M85.115 524.483h14.173v14.173H85.115v-14.173z"/><path d="M85.115 496.137h14.173v14.173H85.115v-14.173z"/><path d="M85.115 510.31h14.173v14.173H85.115V510.31z"/><path d="M85.115 552.829h14.173v14.173H85.115v-14.173z"/><path d="M212.675 70.942h14.173v14.173h-14.173V70.942z"/><path d="M85.115 453.619h14.173v14.173H85.115v-14.173z"/><path d="M85.115 481.964h14.173v14.173H85.115v-14.173z"/><path d="M85.115 439.446h14.173v14.173H85.115v-14.173z"/><path d="M85.115 425.273h14.173v14.173H85.115v-14.173z"/><path d="M85.115 411.1h14.173v14.173H85.115V411.1z"/><path d="M85.115 467.792h14.173v14.173H85.115v-14.173z"/><path d="M85.115 538.656h14.173v14.173H85.115v-14.173z"/><path d="M411.097 99.289h14.173v14.173h-14.173V99.289z"/><path d="M411.097 113.462h14.173v14.173h-14.173v-14.173z"/><path d="M411.097 85.115h14.173v14.173h-14.173V85.115z"/><path d="M411.097 127.635h14.173v14.173h-14.173v-14.173z"/><path d="M411.097 70.942h14.173v14.173h-14.173V70.942z"/><path d="M396.924 70.942h14.173v14.173h-14.173V70.942z"/><path d="M411.097 155.982h14.173v14.173h-14.173v-14.173z"/><path d="M411.097 198.502h14.173v14.173h-14.173v-14.173z"/><path d="M411.097 141.809h14.173v14.173h-14.173v-14.173z"/><path d="M411.097 184.329h14.173v14.173h-14.173v-14.173z"/><path d="M411.097 170.155h14.173v14.173h-14.173v-14.173z"/><path d="M382.751 70.942h14.173v14.173h-14.173V70.942z"/><path d="M226.848 70.942h14.173v14.173h-14.173V70.942z"/><path d="M283.541 70.942h14.173v14.173h-14.173V70.942z"/><path d="M255.195 70.942h14.173v14.173h-14.173V70.942z"/><path d="M269.368 70.942h14.173v14.173h-14.173V70.942z"/><path d="M241.021 70.942h14.173v14.173h-14.173V70.942z"/><path d="M411.097 212.675h14.173v14.173h-14.173v-14.173z"/><path d="M311.887 70.942h14.173v14.173h-14.173V70.942z"/><path d="M297.714 70.942h14.173v14.173h-14.173V70.942z"/><path d="M425.27 226.849h14.173v14.173H425.27v-14.173z"/><path d="M354.405 70.942h14.173v14.173h-14.173V70.942z"/><path d="M326.06 70.942h14.173v14.173H326.06V70.942z"/><path d="M368.578 70.942h14.173v14.173h-14.173V70.942z"/><path d="M411.097 467.792h14.173v14.173h-14.173v-14.173z"/><path d="M411.097 439.446h14.173v14.173h-14.173v-14.173z"/><path d="M411.097 453.619h14.173v14.173h-14.173v-14.173z"/><path d="M411.097 411.1h14.173v14.173h-14.173V411.1z"/><path d="M411.097 425.273h14.173v14.173h-14.173v-14.173z"/><path d="M411.097 552.829h14.173v14.173h-14.173v-14.173z"/><path d="M411.097 510.31h14.173v14.173h-14.173V510.31z"/><path d="M411.097 524.483h14.173v14.173h-14.173v-14.173z"/><path d="M411.097 538.656h14.173v14.173h-14.173v-14.173z"/><path d="M411.097 396.927h14.173V411.1h-14.173v-14.173z"/><path d="M411.097 481.964h14.173v14.173h-14.173v-14.173z"/><path d="M411.097 496.137h14.173v14.173h-14.173v-14.173z"/><path d="M411.097 382.754h14.173v14.173h-14.173v-14.173z"/><path d="M411.097 283.542h14.173v14.173h-14.173v-14.173z"/><path d="M411.097 226.849h14.173v14.173h-14.173v-14.173z"/><path d="M411.097 241.022h14.173v14.173h-14.173v-14.173z"/><path d="M411.097 297.715h14.173v14.173h-14.173v-14.173z"/><path d="M411.097 255.195h14.173v14.173h-14.173v-14.173z"/><path d="M411.097 269.369h14.173v14.173h-14.173v-14.173z"/><path d="M411.097 354.409h14.173v14.173h-14.173v-14.173z"/><path d="M411.097 311.889h14.173v14.173h-14.173v-14.173z"/><path d="M411.097 368.582h14.173v14.173h-14.173v-14.173z"/><path d="M411.097 326.062h14.173v14.173h-14.173v-14.173z"/><path d="M411.097 340.235h14.173v14.173h-14.173v-14.173z"/><path d="M184.328 70.942h14.173v14.173h-14.173V70.942z"/><path d="M396.924 42.595h14.173v14.173h-14.173V42.595z"/><path d="M439.442 255.195h14.173v14.173h-14.173v-14.173z"/><path d="M439.442 241.022h14.173v14.173h-14.173v-14.173z"/><path d="M439.442 226.849h14.173v14.173h-14.173v-14.173z"/><path d="M439.442 198.502h14.173v14.173h-14.173v-14.173z"/><path d="M439.442 340.235h14.173v14.173h-14.173v-14.173z"/><path d="M439.442 311.889h14.173v14.173h-14.173v-14.173z"/><path d="M439.442 170.155h14.173v14.173h-14.173v-14.173z"/><path d="M439.442 326.062h14.173v14.173h-14.173v-14.173z"/><path d="M439.442 269.369h14.173v14.173h-14.173v-14.173z"/><path d="M439.442 297.715h14.173v14.173h-14.173v-14.173z"/><path d="M439.442 283.542h14.173v14.173h-14.173v-14.173z"/><path d="M439.442 184.329h14.173v14.173h-14.173v-14.173z"/><path d="M439.442 42.595h14.173v14.173h-14.173V42.595z"/><path d="M439.442 56.769h14.173v14.173h-14.173V56.769z"/><path d="M411.097 42.595h14.173v14.173h-14.173V42.595z"/><path d="M439.442 70.942h14.173v14.173h-14.173V70.942z"/><path d="M425.27 42.595h14.173v14.173H425.27V42.595z"/><path d="M439.442 85.115h14.173v14.173h-14.173V85.115z"/><path d="M368.578 609.52h14.173v14.173h-14.173V609.52z"/><path d="M439.442 141.809h14.173v14.173h-14.173v-14.173z"/><path d="M439.442 99.289h14.173v14.173h-14.173V99.289z"/><path d="M439.442 155.982h14.173v14.173h-14.173v-14.173z"/><path d="M439.442 113.462h14.173v14.173h-14.173v-14.173z"/><path d="M439.442 212.675h14.173v14.173h-14.173v-14.173z"/><path d="M439.442 581.174h14.173v14.173h-14.173v-14.173z"/><path d="M439.442 595.347h14.173v14.173h-14.173v-14.173z"/><path d="M439.442 567.001h14.173v14.173h-14.173v-14.173z"/><path d="M439.442 354.409h14.173v14.173h-14.173v-14.173z"/><path d="M439.442 538.656h14.173v14.173h-14.173v-14.173z"/><path d="M439.442 609.52h14.173v14.173h-14.173V609.52z"/><path d="M439.442 524.483h14.173v14.173h-14.173v-14.173z"/><path d="M382.751 609.52h14.173v14.173h-14.173V609.52z"/><path d="M396.924 609.52h14.173v14.173h-14.173V609.52z"/><path d="M425.27 609.52h14.173v14.173H425.27V609.52z"/><path d="M411.097 609.52h14.173v14.173h-14.173V609.52z"/><path d="M439.442 552.829h14.173v14.173h-14.173v-14.173z"/><path d="M439.442 411.1h14.173v14.173h-14.173V411.1z"/><path d="M439.442 425.273h14.173v14.173h-14.173v-14.173z"/><path d="M439.442 510.31h14.173v14.173h-14.173V510.31z"/><path d="M439.442 382.754h14.173v14.173h-14.173v-14.173z"/><path d="M439.442 368.582h14.173v14.173h-14.173v-14.173z"/><path d="M439.442 396.927h14.173V411.1h-14.173v-14.173z"/><path d="M439.442 496.137h14.173v14.173h-14.173v-14.173z"/><path d="M439.442 481.964h14.173v14.173h-14.173v-14.173z"/><path d="M439.442 439.446h14.173v14.173h-14.173v-14.173z"/><path d="M439.442 453.619h14.173v14.173h-14.173v-14.173z"/><path d="M439.442 467.792h14.173v14.173h-14.173v-14.173z"/><path d="M439.442 127.635h14.173v14.173h-14.173v-14.173z"/><path d="M42.595 212.675h14.173v14.173H42.595v-14.173z"/><path d="M42.595 141.809h14.173v14.173H42.595v-14.173z"/><path d="M42.595 170.155h14.173v14.173H42.595v-14.173z"/><path d="M42.595 127.635h14.173v14.173H42.595v-14.173z"/><path d="M42.595 184.329h14.173v14.173H42.595v-14.173z"/><path d="M42.595 198.502h14.173v14.173H42.595v-14.173z"/><path d="M42.595 42.595h14.173v14.173H42.595V42.595z"/><path d="M42.595 56.769h14.173v14.173H42.595V56.769z"/><path d="M42.595 70.942h14.173v14.173H42.595V70.942z"/><path d="M42.595 85.115h14.173v14.173H42.595V85.115z"/><path d="M42.595 99.289h14.173v14.173H42.595V99.289z"/><path d="M42.595 113.462h14.173v14.173H42.595v-14.173z"/><path d="M42.595 155.982h14.173v14.173H42.595v-14.173z"/><path d="M42.595 326.062h14.173v14.173H42.595v-14.173z"/><path d="M42.595 340.235h14.173v14.173H42.595v-14.173z"/><path d="M42.595 311.889h14.173v14.173H42.595v-14.173z"/><path d="M42.595 368.582h14.173v14.173H42.595v-14.173z"/><path d="M42.595 354.409h14.173v14.173H42.595v-14.173z"/><path d="M42.595 283.542h14.173v14.173H42.595v-14.173z"/><path d="M42.595 241.022h14.173v14.173H42.595v-14.173z"/><path d="M42.595 255.195h14.173v14.173H42.595v-14.173z"/><path d="M42.595 297.715h14.173v14.173H42.595v-14.173z"/><path d="M42.595 269.369h14.173v14.173H42.595v-14.173z"/><path d="M42.595 226.849h14.173v14.173H42.595v-14.173z"/><path d="M170.155 42.595h14.173v14.173h-14.173V42.595z"/><path d="M283.541 42.595h14.173v14.173h-14.173V42.595z"/><path d="M269.368 42.595h14.173v14.173h-14.173V42.595z"/><path d="M297.714 42.595h14.173v14.173h-14.173V42.595z"/><path d="M255.195 42.595h14.173v14.173h-14.173V42.595z"/><path d="M56.768 42.595h14.173v14.173H56.768V42.595z"/><path d="M425.27 212.675h14.173v14.173H425.27v-14.173z"/><path d="M354.405 42.595h14.173v14.173h-14.173V42.595z"/><path d="M368.578 42.595h14.173v14.173h-14.173V42.595z"/><path d="M311.887 42.595h14.173v14.173h-14.173V42.595z"/><path d="M326.06 42.595h14.173v14.173H326.06V42.595z"/><path d="M226.848 42.595h14.173v14.173h-14.173V42.595z"/><path d="M241.021 42.595h14.173v14.173h-14.173V42.595z"/><path d="M99.288 42.595h14.173v14.173H99.288V42.595z"/><path d="M113.461 42.595h14.173v14.173h-14.173V42.595z"/><path d="M212.675 42.595h14.173v14.173h-14.173V42.595z"/><path d="M70.941 42.595h14.173v14.173H70.941V42.595z"/><path d="M127.635 42.595h14.173v14.173h-14.173V42.595z"/><path d="M85.115 42.595h14.173v14.173H85.115V42.595z"/><path d="M198.501 42.595h14.173v14.173h-14.173V42.595z"/><path d="M184.328 42.595h14.173v14.173h-14.173V42.595z"/><path d="M141.808 42.595h14.173v14.173h-14.173V42.595z"/><path d="M155.981 42.595h14.173v14.173h-14.173V42.595z"/><path d="M382.751 42.595h14.173v14.173h-14.173V42.595z"/><path d="M340.232 42.595h14.173v14.173h-14.173V42.595z"/><path d="M56.768 226.849h14.173v14.173H56.768v-14.173z"/><path d="M155.981 56.769h14.173v14.173h-14.173V56.769z"/><path d="M241.021 56.769h14.173v14.173h-14.173V56.769z"/><path d="M141.808 56.769h14.173v14.173h-14.173V56.769z"/><path d="M99.288 56.769h14.173v14.173H99.288V56.769z"/><path d="M85.115 56.769h14.173v14.173H85.115V56.769z"/><path d="M70.941 56.769h14.173v14.173H70.941V56.769z"/><path d="M226.848 56.769h14.173v14.173h-14.173V56.769z"/><path d="M170.155 56.769h14.173v14.173h-14.173V56.769z"/><path d="M212.675 56.769h14.173v14.173h-14.173V56.769z"/><path d="M198.501 56.769h14.173v14.173h-14.173V56.769z"/><path d="M184.328 56.769h14.173v14.173h-14.173V56.769z"/><path d="M113.461 56.769h14.173v14.173h-14.173V56.769z"/><path d="M56.768 170.155h14.173v14.173H56.768v-14.173z"/><path d="M56.768 184.329h14.173v14.173H56.768v-14.173z"/><path d="M56.768 212.675h14.173v14.173H56.768v-14.173z"/><path d="M56.768 155.982h14.173v14.173H56.768v-14.173z"/><path d="M56.768 198.502h14.173v14.173H56.768v-14.173z"/><path d="M56.768 85.115h14.173v14.173H56.768V85.115z"/><path d="M56.768 99.289h14.173v14.173H56.768V99.289z"/><path d="M56.768 56.769h14.173v14.173H56.768V56.769z"/><path d="M56.768 141.809h14.173v14.173H56.768v-14.173z"/><path d="M56.768 127.635h14.173v14.173H56.768v-14.173z"/><path d="M56.768 113.462h14.173v14.173H56.768v-14.173z"/><path d="M127.635 56.769h14.173v14.173h-14.173V56.769z"/><path d="M425.27 99.289h14.173v14.173H425.27V99.289z"/><path d="M425.27 113.462h14.173v14.173H425.27v-14.173z"/><path d="M255.195 56.769h14.173v14.173h-14.173V56.769z"/><path d="M425.27 127.635h14.173v14.173H425.27v-14.173z"/><path d="M425.27 70.942h14.173v14.173H425.27V70.942z"/><path d="M425.27 155.982h14.173v14.173H425.27v-14.173z"/><path d="M425.27 198.502h14.173v14.173H425.27v-14.173z"/><path d="M425.27 141.809h14.173v14.173H425.27v-14.173z"/><path d="M354.405 609.52h14.173v14.173h-14.173V609.52z"/><path d="M425.27 56.769h14.173v14.173H425.27V56.769z"/><path d="M425.27 170.155h14.173v14.173H425.27v-14.173z"/><path d="M425.27 85.115h14.173v14.173H425.27V85.115z"/><path d="M297.714 56.769h14.173v14.173h-14.173V56.769z"/><path d="M311.887 56.769h14.173v14.173h-14.173V56.769z"/><path d="M269.368 56.769h14.173v14.173h-14.173V56.769z"/><path d="M283.541 56.769h14.173v14.173h-14.173V56.769z"/><path d="M326.06 56.769h14.173v14.173H326.06V56.769z"/><path d="M382.751 56.769h14.173v14.173h-14.173V56.769z"/><path d="M396.924 56.769h14.173v14.173h-14.173V56.769z"/><path d="M411.097 56.769h14.173v14.173h-14.173V56.769z"/><path d="M354.405 56.769h14.173v14.173h-14.173V56.769z"/><path d="M340.232 56.769h14.173v14.173h-14.173V56.769z"/><path d="M368.578 56.769h14.173v14.173h-14.173V56.769z"/><path d="M425.27 184.329h14.173v14.173H425.27v-14.173z"/><path d="M127.635 609.52h14.173v14.173h-14.173V609.52z"/><path d="M141.808 609.52h14.173v14.173h-14.173V609.52z"/><path d="M155.981 609.52h14.173v14.173h-14.173V609.52z"/><path d="M113.461 609.52h14.173v14.173h-14.173V609.52z"/><path d="M170.155 609.52h14.173v14.173h-14.173V609.52z"/><path d="M56.768 609.52h14.173v14.173H56.768V609.52z"/><path d="M184.328 609.52h14.173v14.173h-14.173V609.52z"/><path d="M56.768 581.174h14.173v14.173H56.768v-14.173z"/><path d="M56.768 595.347h14.173v14.173H56.768v-14.173z"/><path d="M70.941 609.52h14.173v14.173H70.941V609.52z"/><path d="M85.115 609.52h14.173v14.173H85.115V609.52z"/><path d="M99.288 609.52h14.173v14.173H99.288V609.52z"/><path d="M297.714 609.52h14.173v14.173h-14.173V609.52z"/><path d="M283.541 609.52h14.173v14.173h-14.173V609.52z"/><path d="M311.887 609.52h14.173v14.173h-14.173V609.52z"/><path d="M326.06 609.52h14.173v14.173H326.06V609.52z"/><path d="M340.232 609.52h14.173v14.173h-14.173V609.52z"/><path d="M226.848 609.52h14.173v14.173h-14.173V609.52z"/><path d="M212.675 609.52h14.173v14.173h-14.173V609.52z"/><path d="M198.501 609.52h14.173v14.173h-14.173V609.52z"/><path d="M269.368 609.52h14.173v14.173h-14.173V609.52z"/><path d="M255.195 609.52h14.173v14.173h-14.173V609.52z"/><path d="M241.021 609.52h14.173v14.173h-14.173V609.52z"/><path d="M56.768 467.792h14.173v14.173H56.768v-14.173z"/><path d="M56.768 340.235h14.173v14.173H56.768v-14.173z"/><path d="M56.768 354.409h14.173v14.173H56.768v-14.173z"/><path d="M56.768 396.927h14.173V411.1H56.768v-14.173z"/><path d="M56.768 368.582h14.173v14.173H56.768v-14.173z"/><path d="M56.768 382.754h14.173v14.173H56.768v-14.173z"/><path d="M56.768 326.062h14.173v14.173H56.768v-14.173z"/><path d="M56.768 269.369h14.173v14.173H56.768v-14.173z"/><path d="M56.768 255.195h14.173v14.173H56.768v-14.173z"/><path d="M56.768 311.889h14.173v14.173H56.768v-14.173z"/><path d="M56.768 297.715h14.173v14.173H56.768v-14.173z"/><path d="M56.768 283.542h14.173v14.173H56.768v-14.173z"/><path d="M56.768 524.483h14.173v14.173H56.768v-14.173z"/><path d="M56.768 411.1h14.173v14.173H56.768V411.1z"/><path d="M56.768 510.31h14.173v14.173H56.768V510.31z"/><path d="M56.768 496.137h14.173v14.173H56.768v-14.173z"/><path d="M56.768 538.656h14.173v14.173H56.768v-14.173z"/><path d="M56.768 552.829h14.173v14.173H56.768v-14.173z"/><path d="M56.768 567.001h14.173v14.173H56.768v-14.173z"/><path d="M56.768 425.273h14.173v14.173H56.768v-14.173z"/><path d="M56.768 439.446h14.173v14.173H56.768v-14.173z"/><path d="M56.768 241.022h14.173v14.173H56.768v-14.173z"/><path d="M56.768 481.964h14.173v14.173H56.768v-14.173z"/><path d="M56.768 453.619h14.173v14.173H56.768v-14.173z"/></svg>