<svg baseProfile="tiny" xmlns="http://www.w3.org/2000/svg"><path d="M360.075 396.075h36v36h-36v-36z"/><path d="M360.075 432.075h36v36h-36v-36z"/><path d="M360.075 360.075h36v36h-36v-36z"/><path d="M360.075 468.075h36v36h-36v-36z"/><path d="M360.075 324.075h36v36h-36v-36z"/><path d="M360.075 504.075h36v36h-36v-36z"/><path d="M360.075 216.075h36v36h-36v-36z"/><path d="M360.075 288.075h36v36h-36v-36z"/><path d="M288.075 108.075h36v36h-36v-36z"/><path d="M324.075 108.075h36v36h-36v-36z"/><path d="M360.075 108.075h36v36h-36v-36z"/><path d="M360.075 252.075h36v36h-36v-36z"/><path d="M360.075 540.075h36v36h-36v-36z"/><path d="M360.075 180.075h36v36h-36v-36z"/><path d="M360.075 144.075h36v36h-36v-36z"/><path d="M144.075 396.075h36v36h-36v-36z"/><path d="M144.075 360.075h36v36h-36v-36z"/><path d="M144.075 432.075h36v36h-36v-36z"/><path d="M144.075 468.075h36v36h-36v-36z"/><path d="M324.075 540.075h36v36h-36v-36z"/><path d="M144.075 288.075h36v36h-36v-36z"/><path d="M144.075 324.075h36v36h-36v-36z"/><path d="M144.075 252.075h36v36h-36v-36z"/><path d="M252.075 540.075h36v36h-36v-36z"/><path d="M144.075 504.075h36v36h-36v-36z"/><path d="M216.075 540.075h36v36h-36v-36z"/><path d="M288.075 540.075h36v36h-36v-36z"/><path d="M144.075 540.075h36v36h-36v-36z"/><path d="M180.075 540.075h36v36h-36v-36z"/><path d="M108.075 252.075h36v36h-36v-36z"/><path d="M180.075 576.075h36v36h-36v-36z"/><path d="M288.075 576.075h36v36h-36v-36z"/><path d="M252.075 576.075h36v36h-36v-36z"/><path d="M216.075 576.075h36v36h-36v-36z"/><path d="M396.075 432.075h36v36h-36v-36z"/><path d="M108.075 576.075h36v36h-36v-36z"/><path d="M144.075 576.075h36v36h-36v-36z"/><path d="M360.075 576.075h36v36h-36v-36z"/><path d="M396.075 504.075h36v36h-36v-36z"/><path d="M396.075 468.075h36v36h-36v-36z"/><path d="M252.075 108.075h36v36h-36v-36z"/><path d="M396.075 540.075h36v36h-36v-36z"/><path d="M108.075 504.075h36v36h-36v-36z"/><path d="M396.075 576.075h36v36h-36v-36z"/><path d="M324.075 576.075h36v36h-36v-36z"/><path d="M108.075 108.075h36v36h-36v-36z"/><path d="M108.075 468.075h36v36h-36v-36z"/><path d="M108.075 180.075h36v36h-36v-36z"/><path d="M108.075 144.075h36v36h-36v-36z"/><path d="M216.075 108.075h36v36h-36v-36z"/><path d="M180.075 108.075h36v36h-36v-36z"/><path d="M144.075 108.075h36v36h-36v-36z"/><path d="M108.075 396.075h36v36h-36v-36z"/><path d="M108.075 216.075h36v36h-36v-36z"/><path d="M108.075 432.075h36v36h-36v-36z"/><path d="M108.075 324.075h36v36h-36v-36z"/><path d="M144.075 216.075h36v36h-36v-36z"/><path d="M108.075 288.075h36v36h-36v-36z"/><path d="M108.075 540.075h36v36h-36v-36z"/><path d="M288.075 432.075h36v36h-36v-36z"/><path d="M288.075 324.075h36v36h-36v-36z"/><path d="M288.075 360.075h36v36h-36v-36z"/><path d="M288.075 396.075h36v36h-36v-36z"/><path d="M216.075 468.075h36v36h-36v-36z"/><path d="M252.075 468.075h36v36h-36v-36z"/><path d="M288.075 468.075h36v36h-36v-36z"/><path d="M288.075 252.075h36v36h-36v-36z"/><path d="M288.075 288.075h36v36h-36v-36z"/><path d="M216.075 180.075h36v36h-36v-36z"/><path d="M288.075 180.075h36v36h-36v-36z"/><path d="M252.075 180.075h36v36h-36v-36z"/><path d="M288.075 216.075h36v36h-36v-36z"/><path d="M216.075 432.075h36v36h-36v-36z"/><path d="M252.075 252.075h36v36h-36v-36z"/><path d="M252.075 324.075h36v36h-36v-36z"/><path d="M180.075 180.075h36v36h-36v-36z"/><path d="M252.075 288.075h36v36h-36v-36z"/><path d="M252.075 360.075h36v36h-36v-36z"/><path d="M216.075 396.075h36v36h-36v-36z"/><path d="M468.075 36.075h36v36h-36v-36z"/><path d="M252.075 432.075h36v36h-36v-36z"/><path d="M252.075 396.075h36v36h-36v-36z"/><path d="M216.075 288.075h36v36h-36v-36z"/><path d="M216.075 324.075h36v36h-36v-36z"/><path d="M216.075 360.075h36v36h-36v-36z"/><path d="M216.075 252.075h36v36h-36v-36z"/><path d="M252.075 216.075h36v36h-36v-36z"/><path d="M216.075 216.075h36v36h-36v-36z"/><path d="M324.075 504.075h36v36h-36v-36z"/><path d="M324.075 288.075h36v36h-36v-36z"/><path d="M324.075 252.075h36v36h-36v-36z"/><path d="M324.075 216.075h36v36h-36v-36z"/><path d="M324.075 180.075h36v36h-36v-36z"/><path d="M324.075 396.075h36v36h-36v-36z"/><path d="M180.075 216.075h36v36h-36v-36z"/><path d="M324.075 324.075h36v36h-36v-36z"/><path d="M216.075 144.075h36v36h-36v-36z"/><path d="M324.075 432.075h36v36h-36v-36z"/><path d="M324.075 144.075h36v36h-36v-36z"/><path d="M144.075 144.075h36v36h-36v-36z"/><path d="M180.075 144.075h36v36h-36v-36z"/><path d="M288.075 144.075h36v36h-36v-36z"/><path d="M252.075 144.075h36v36h-36v-36z"/><path d="M324.075 360.075h36v36h-36v-36z"/><path d="M180.075 360.075h36v36h-36v-36z"/><path d="M180.075 324.075h36v36h-36v-36z"/><path d="M180.075 396.075h36v36h-36v-36z"/><path d="M180.075 432.075h36v36h-36v-36z"/><path d="M180.075 288.075h36v36h-36v-36z"/><path d="M180.075 252.075h36v36h-36v-36z"/><path d="M180.075 468.075h36v36h-36v-36z"/><path d="M288.075 504.075h36v36h-36v-36z"/><path d="M144.075 180.075h36v36h-36v-36z"/><path d="M252.075 504.075h36v36h-36v-36z"/><path d="M216.075 504.075h36v36h-36v-36z"/><path d="M180.075 504.075h36v36h-36v-36z"/><path d="M324.075 468.075h36v36h-36v-36z"/><path d="M108.075 360.075h36v36h-36v-36z"/><path d="M36.075 360.075h36v36h-36v-36z"/><path d="M36.075 396.075h36v36h-36v-36z"/><path d="M36.075 324.075h36v36h-36v-36z"/><path d="M36.075 216.075h36v36h-36v-36z"/><path d="M36.075 432.075h36v36h-36v-36z"/><path d="M36.075 288.075h36v36h-36v-36z"/><path d="M36.075 252.075h36v36h-36v-36z"/><path d="M36.075 540.075h36v36h-36v-36z"/><path d="M36.075 612.075h36v36h-36v-36z"/><path d="M36.075 648.075h36v36h-36v-36z"/><path d="M36.075 576.075h36v36h-36v-36z"/><path d="M36.075 468.075h36v36h-36v-36z"/><path d="M36.075 180.075h36v36h-36v-36z"/><path d="M36.075 504.075h36v36h-36v-36z"/><path d="M36.075 108.075h36v36h-36v-36z"/><path d="M288.075 36.075h36v36h-36v-36z"/><path d="M36.075 144.075h36v36h-36v-36z"/><path d="M216.075 36.075h36v36h-36v-36z"/><path d="M360.075 36.075h36v36h-36v-36z"/><path d="M396.075 36.075h36v36h-36v-36z"/><path d="M324.075 36.075h36v36h-36v-36z"/><path d="M180.075 36.075h36v36h-36v-36z"/><path d="M252.075 36.075h36v36h-36v-36z"/><path d="M36.075 72.075h36v36h-36v-36z"/><path d="M36.075 36.075h36v36h-36v-36z"/><path d="M72.075 648.075h36v36h-36v-36z"/><path d="M108.075 36.075h36v36h-36v-36z"/><path d="M72.075 36.075h36v36h-36v-36z"/><path d="M144.075 36.075h36v36h-36v-36z"/><path d="M468.075 396.075h36v36h-36v-36z"/><path d="M468.075 324.075h36v36h-36v-36z"/><path d="M468.075 288.075h36v36h-36v-36z"/><path d="M468.075 360.075h36v36h-36v-36z"/><path d="M468.075 432.075h36v36h-36v-36z"/><path d="M468.075 468.075h36v36h-36v-36z"/><path d="M432.075 36.075h36v36h-36v-36z"/><path d="M468.075 252.075h36v36h-36v-36z"/><path d="M468.075 504.075h36v36h-36v-36z"/><path d="M468.075 72.075h36v36h-36v-36z"/><path d="M468.075 108.075h36v36h-36v-36z"/><path d="M468.075 144.075h36v36h-36v-36z"/><path d="M468.075 180.075h36v36h-36v-36z"/><path d="M468.075 216.075h36v36h-36v-36z"/><path d="M396.075 648.075h36v36h-36v-36z"/><path d="M216.075 648.075h36v36h-36v-36z"/><path d="M252.075 648.075h36v36h-36v-36z"/><path d="M288.075 648.075h36v36h-36v-36z"/><path d="M180.075 648.075h36v36h-36v-36z"/><path d="M324.075 648.075h36v36h-36v-36z"/><path d="M144.075 648.075h36v36h-36v-36z"/><path d="M108.075 648.075h36v36h-36v-36z"/><path d="M468.075 612.075h36v36h-36v-36z"/><path d="M468.075 648.075h36v36h-36v-36z"/><path d="M468.075 576.075h36v36h-36v-36z"/><path d="M360.075 648.075h36v36h-36v-36z"/><path d="M468.075 540.075h36v36h-36v-36z"/><path d="M504.075 36.075h36v36h-36v-36z"/><path d="M468.075.075h36v36h-36v-36z"/><path d="M288.075.075h36v36h-36v-36z"/><path d="M216.075.075h36v36h-36v-36z"/><path d="M360.075.075h36v36h-36v-36z"/><path d="M396.075.075h36v36h-36v-36z"/><path d="M324.075.075h36v36h-36v-36z"/><path d="M180.075.075h36v36h-36v-36z"/><path d="M252.075.075h36v36h-36v-36z"/><path d="M36.075.075h36v36h-36v-36z"/><path d="M.075 360.075h36v36h-36v-36z"/><path d="M.075 396.075h36v36h-36v-36z"/><path d="M.075 324.075h36v36h-36v-36z"/><path d="M.075 216.075h36v36h-36v-36z"/><path d="M.075 432.075h36v36h-36v-36z"/><path d="M.075 288.075h36v36h-36v-36z"/><path d="M.075 252.075h36v36h-36v-36z"/><path d="M.075 540.075h36v36h-36v-36z"/><path d="M.075 612.075h36v36h-36v-36z"/><path d="M.075 648.075h36v36h-36v-36z"/><path d="M.075 576.075h36v36h-36v-36z"/><path d="M.075 468.075h36v36h-36v-36z"/><path d="M.075 180.075h36v36h-36v-36z"/><path d="M.075 504.075h36v36h-36v-36z"/><path d="M.075 108.075h36v36h-36v-36z"/><path d="M.075 144.075h36v36h-36v-36z"/><path d="M.075 72.075h36v36h-36v-36z"/><path d="M.075 36.075h36v36h-36v-36z"/><path d="M.075.075h36v36h-36v-36z"/><path d="M108.075.075h36v36h-36v-36z"/><path d="M72.075.075h36v36h-36v-36z"/><path d="M144.075.075h36v36h-36v-36z"/><path d="M432.075.075h36v36h-36v-36z"/><path d="M504.075.075h36v36h-36v-36z"/><path d="M504.075 396.075h36v36h-36v-36z"/><path d="M504.075 324.075h36v36h-36v-36z"/><path d="M504.075 288.075h36v36h-36v-36z"/><path d="M504.075 360.075h36v36h-36v-36z"/><path d="M504.075 432.075h36v36h-36v-36z"/><path d="M504.075 468.075h36v36h-36v-36z"/><path d="M504.075 252.075h36v36h-36v-36z"/><path d="M504.075 504.075h36v36h-36v-36z"/><path d="M504.075 72.075h36v36h-36v-36z"/><path d="M504.075 108.075h36v36h-36v-36z"/><path d="M504.075 144.075h36v36h-36v-36z"/><path d="M504.075 180.075h36v36h-36v-36z"/><path d="M504.075 216.075h36v36h-36v-36z"/><path d="M504.075 612.075h36v36h-36v-36z"/><path d="M504.075 648.075h36v36h-36v-36z"/><path d="M504.075 576.075h36v36h-36v-36z"/><path d="M504.075 540.075h36v36h-36v-36z"/><path d="M432.075 648.075h36v36h-36v-36z"/><path d="M36.075 684.075h36v36h-36v-36z"/><path d="M72.075 684.075h36v36h-36v-36z"/><path d="M396.075 684.075h36v36h-36v-36z"/><path d="M216.075 684.075h36v36h-36v-36z"/><path d="M252.075 684.075h36v36h-36v-36z"/><path d="M288.075 684.075h36v36h-36v-36z"/><path d="M180.075 684.075h36v36h-36v-36z"/><path d="M324.075 684.075h36v36h-36v-36z"/><path d="M144.075 684.075h36v36h-36v-36z"/><path d="M108.075 684.075h36v36h-36v-36z"/><path d="M468.075 684.075h36v36h-36v-36z"/><path d="M360.075 684.075h36v36h-36v-36z"/><path d="M.075 684.075h36v36h-36v-36z"/><path d="M504.075 684.075h36v36h-36v-36z"/><path d="M432.075 684.075h36v36h-36v-36z"/><path d="M72.075 576.075h36v36h-36v-36z"/><path d="M72.075 108.075h36v36h-36v-36z"/><path d="M72.075 144.075h36v36h-36v-36z"/><path d="M72.075 180.075h36v36h-36v-36z"/><path d="M108.075 72.075h36v36h-36v-36z"/><path d="M72.075 72.075h36v36h-36v-36z"/><path d="M144.075 72.075h36v36h-36v-36z"/><path d="M72.075 216.075h36v36h-36v-36z"/><path d="M180.075 72.075h36v36h-36v-36z"/><path d="M72.075 252.075h36v36h-36v-36z"/><path d="M72.075 396.075h36v36h-36v-36z"/><path d="M72.075 468.075h36v36h-36v-36z"/><path d="M72.075 360.075h36v36h-36v-36z"/><path d="M72.075 324.075h36v36h-36v-36z"/><path d="M72.075 288.075h36v36h-36v-36z"/><path d="M72.075 432.075h36v36h-36v-36z"/><path d="M396.075 144.075h36v36h-36v-36z"/><path d="M396.075 216.075h36v36h-36v-36z"/><path d="M216.075 72.075h36v36h-36v-36z"/><path d="M396.075 252.075h36v36h-36v-36z"/><path d="M396.075 288.075h36v36h-36v-36z"/><path d="M396.075 360.075h36v36h-36v-36z"/><path d="M396.075 324.075h36v36h-36v-36z"/><path d="M396.075 180.075h36v36h-36v-36z"/><path d="M288.075 72.075h36v36h-36v-36z"/><path d="M252.075 72.075h36v36h-36v-36z"/><path d="M396.075 108.075h36v36h-36v-36z"/><path d="M324.075 72.075h36v36h-36v-36z"/><path d="M360.075 72.075h36v36h-36v-36z"/><path d="M396.075 72.075h36v36h-36v-36z"/><path d="M72.075 540.075h36v36h-36v-36z"/><path d="M432.075 432.075h36v36h-36v-36z"/><path d="M432.075 396.075h36v36h-36v-36z"/><path d="M432.075 360.075h36v36h-36v-36z"/><path d="M432.075 540.075h36v36h-36v-36z"/><path d="M432.075 324.075h36v36h-36v-36z"/><path d="M432.075 504.075h36v36h-36v-36z"/><path d="M432.075 468.075h36v36h-36v-36z"/><path d="M432.075 252.075h36v36h-36v-36z"/><path d="M432.075 180.075h36v36h-36v-36z"/><path d="M432.075 144.075h36v36h-36v-36z"/><path d="M432.075 108.075h36v36h-36v-36z"/><path d="M432.075 576.075h36v36h-36v-36z"/><path d="M432.075 216.075h36v36h-36v-36z"/><path d="M432.075 288.075h36v36h-36v-36z"/><path d="M108.075 612.075h36v36h-36v-36z"/><path d="M72.075 612.075h36v36h-36v-36z"/><path d="M432.075 612.075h36v36h-36v-36z"/><path d="M180.075 612.075h36v36h-36v-36z"/><path d="M144.075 612.075h36v36h-36v-36z"/><path d="M396.075 396.075h36v36h-36v-36z"/><path d="M432.075 72.075h36v36h-36v-36z"/><path d="M72.075 504.075h36v36h-36v-36z"/><path d="M324.075 612.075h36v36h-36v-36z"/><path d="M216.075 612.075h36v36h-36v-36z"/><path d="M396.075 612.075h36v36h-36v-36z"/><path d="M360.075 612.075h36v36h-36v-36z"/><path d="M288.075 612.075h36v36h-36v-36z"/><path d="M252.075 612.075h36v36h-36v-36z"/></svg>