<svg baseProfile="tiny" xmlns="http://www.w3.org/2000/svg"><path d="M126.075 522.075h18v18h-18v-18z"/><path d="M126.075 540.075h18v18h-18v-18z"/><path d="M126.075 468.075h18v18h-18v-18z"/><path d="M126.075 504.075h18v18h-18v-18z"/><path d="M162.075 540.075h18v18h-18v-18z"/><path d="M126.075 486.075h18v18h-18v-18z"/><path d="M306.075 540.075h18v18h-18v-18z"/><path d="M252.075 540.075h18v18h-18v-18z"/><path d="M270.075 540.075h18v18h-18v-18z"/><path d="M288.075 540.075h18v18h-18v-18z"/><path d="M198.075 540.075h18v18h-18v-18z"/><path d="M234.075 540.075h18v18h-18v-18z"/><path d="M180.075 540.075h18v18h-18v-18z"/><path d="M216.075 540.075h18v18h-18v-18z"/><path d="M144.075 540.075h18v18h-18v-18z"/><path d="M126.075 270.075h18v18h-18v-18z"/><path d="M126.075 288.075h18v18h-18v-18z"/><path d="M126.075 450.075h18v18h-18v-18z"/><path d="M126.075 216.075h18v18h-18v-18z"/><path d="M126.075 252.075h18v18h-18v-18z"/><path d="M126.075 324.075h18v18h-18v-18z"/><path d="M126.075 234.075h18v18h-18v-18z"/><path d="M126.075 306.075h18v18h-18v-18z"/><path d="M126.075 414.075h18v18h-18v-18z"/><path d="M126.075 396.075h18v18h-18v-18z"/><path d="M126.075 342.075h18v18h-18v-18z"/><path d="M126.075 432.075h18v18h-18v-18z"/><path d="M126.075 360.075h18v18h-18v-18z"/><path d="M126.075 378.075h18v18h-18v-18z"/><path d="M378.075 360.075h18v18h-18v-18z"/><path d="M378.075 324.075h18v18h-18v-18z"/><path d="M378.075 234.075h18v18h-18v-18z"/><path d="M378.075 216.075h18v18h-18v-18z"/><path d="M378.075 198.075h18v18h-18v-18z"/><path d="M378.075 306.075h18v18h-18v-18z"/><path d="M378.075 288.075h18v18h-18v-18z"/><path d="M378.075 270.075h18v18h-18v-18z"/><path d="M378.075 252.075h18v18h-18v-18z"/><path d="M378.075 108.075h18v18h-18v-18z"/><path d="M360.075 108.075h18v18h-18v-18z"/><path d="M378.075 180.075h18v18h-18v-18z"/><path d="M378.075 126.075h18v18h-18v-18z"/><path d="M378.075 162.075h18v18h-18v-18z"/><path d="M378.075 144.075h18v18h-18v-18z"/><path d="M378.075 342.075h18v18h-18v-18z"/><path d="M378.075 468.075h18v18h-18v-18z"/><path d="M378.075 486.075h18v18h-18v-18z"/><path d="M378.075 522.075h18v18h-18v-18z"/><path d="M378.075 504.075h18v18h-18v-18z"/><path d="M342.075 540.075h18v18h-18v-18z"/><path d="M360.075 540.075h18v18h-18v-18z"/><path d="M378.075 540.075h18v18h-18v-18z"/><path d="M378.075 450.075h18v18h-18v-18z"/><path d="M378.075 378.075h18v18h-18v-18z"/><path d="M126.075 198.075h18v18h-18v-18z"/><path d="M378.075 396.075h18v18h-18v-18z"/><path d="M324.075 540.075h18v18h-18v-18z"/><path d="M378.075 414.075h18v18h-18v-18z"/><path d="M378.075 432.075h18v18h-18v-18z"/><path d="M360.075 270.075h18v18h-18v-18z"/><path d="M324.075 522.075h18v18h-18v-18z"/><path d="M306.075 522.075h18v18h-18v-18z"/><path d="M342.075 522.075h18v18h-18v-18z"/><path d="M288.075 522.075h18v18h-18v-18z"/><path d="M360.075 378.075h18v18h-18v-18z"/><path d="M270.075 522.075h18v18h-18v-18z"/><path d="M360.075 522.075h18v18h-18v-18z"/><path d="M360.075 450.075h18v18h-18v-18z"/><path d="M360.075 432.075h18v18h-18v-18z"/><path d="M360.075 414.075h18v18h-18v-18z"/><path d="M360.075 396.075h18v18h-18v-18z"/><path d="M234.075 522.075h18v18h-18v-18z"/><path d="M360.075 486.075h18v18h-18v-18z"/><path d="M360.075 468.075h18v18h-18v-18z"/><path d="M360.075 504.075h18v18h-18v-18z"/><path d="M252.075 522.075h18v18h-18v-18z"/><path d="M144.075 414.075h18v18h-18v-18z"/><path d="M144.075 432.075h18v18h-18v-18z"/><path d="M216.075 522.075h18v18h-18v-18z"/><path d="M144.075 378.075h18v18h-18v-18z"/><path d="M144.075 360.075h18v18h-18v-18z"/><path d="M144.075 396.075h18v18h-18v-18z"/><path d="M144.075 468.075h18v18h-18v-18z"/><path d="M144.075 450.075h18v18h-18v-18z"/><path d="M144.075 486.075h18v18h-18v-18z"/><path d="M162.075 522.075h18v18h-18v-18z"/><path d="M198.075 522.075h18v18h-18v-18z"/><path d="M180.075 522.075h18v18h-18v-18z"/><path d="M144.075 504.075h18v18h-18v-18z"/><path d="M144.075 522.075h18v18h-18v-18z"/><path d="M360.075 324.075h18v18h-18v-18z"/><path d="M234.075 126.075h18v18h-18v-18z"/><path d="M252.075 126.075h18v18h-18v-18z"/><path d="M216.075 126.075h18v18h-18v-18z"/><path d="M360.075 360.075h18v18h-18v-18z"/><path d="M306.075 126.075h18v18h-18v-18z"/><path d="M270.075 126.075h18v18h-18v-18z"/><path d="M198.075 126.075h18v18h-18v-18z"/><path d="M126.075 126.075h18v18h-18v-18z"/><path d="M126.075 144.075h18v18h-18v-18z"/><path d="M324.075 126.075h18v18h-18v-18z"/><path d="M126.075 162.075h18v18h-18v-18z"/><path d="M162.075 126.075h18v18h-18v-18z"/><path d="M180.075 126.075h18v18h-18v-18z"/><path d="M144.075 126.075h18v18h-18v-18z"/><path d="M288.075 126.075h18v18h-18v-18z"/><path d="M342.075 126.075h18v18h-18v-18z"/><path d="M342.075 108.075h18v18h-18v-18z"/><path d="M360.075 252.075h18v18h-18v-18z"/><path d="M360.075 234.075h18v18h-18v-18z"/><path d="M360.075 342.075h18v18h-18v-18z"/><path d="M360.075 306.075h18v18h-18v-18z"/><path d="M126.075 180.075h18v18h-18v-18z"/><path d="M360.075 288.075h18v18h-18v-18z"/><path d="M360.075 162.075h18v18h-18v-18z"/><path d="M360.075 144.075h18v18h-18v-18z"/><path d="M360.075 126.075h18v18h-18v-18z"/><path d="M360.075 198.075h18v18h-18v-18z"/><path d="M360.075 180.075h18v18h-18v-18z"/><path d="M360.075 216.075h18v18h-18v-18z"/><path d="M108.075 90.075h18v18h-18v-18z"/><path d="M360.075 90.075h18v18h-18v-18z"/><path d="M342.075 90.075h18v18h-18v-18z"/><path d="M324.075 90.075h18v18h-18v-18z"/><path d="M378.075 90.075h18v18h-18v-18z"/><path d="M396.075 90.075h18v18h-18v-18z"/><path d="M396.075 126.075h18v18h-18v-18z"/><path d="M396.075 108.075h18v18h-18v-18z"/><path d="M270.075 90.075h18v18h-18v-18z"/><path d="M306.075 90.075h18v18h-18v-18z"/><path d="M216.075 90.075h18v18h-18v-18z"/><path d="M198.075 90.075h18v18h-18v-18z"/><path d="M180.075 90.075h18v18h-18v-18z"/><path d="M288.075 90.075h18v18h-18v-18z"/><path d="M396.075 144.075h18v18h-18v-18z"/><path d="M252.075 90.075h18v18h-18v-18z"/><path d="M234.075 90.075h18v18h-18v-18z"/><path d="M396.075 342.075h18v18h-18v-18z"/><path d="M396.075 324.075h18v18h-18v-18z"/><path d="M396.075 306.075h18v18h-18v-18z"/><path d="M396.075 378.075h18v18h-18v-18z"/><path d="M396.075 396.075h18v18h-18v-18z"/><path d="M396.075 360.075h18v18h-18v-18z"/><path d="M396.075 414.075h18v18h-18v-18z"/><path d="M396.075 198.075h18v18h-18v-18z"/><path d="M396.075 162.075h18v18h-18v-18z"/><path d="M396.075 216.075h18v18h-18v-18z"/><path d="M396.075 180.075h18v18h-18v-18z"/><path d="M396.075 252.075h18v18h-18v-18z"/><path d="M396.075 234.075h18v18h-18v-18z"/><path d="M396.075 270.075h18v18h-18v-18z"/><path d="M396.075 288.075h18v18h-18v-18z"/><path d="M162.075 90.075h18v18h-18v-18z"/><path d="M90.075 396.075h18v18h-18v-18z"/><path d="M90.075 414.075h18v18h-18v-18z"/><path d="M90.075 360.075h18v18h-18v-18z"/><path d="M90.075 342.075h18v18h-18v-18z"/><path d="M90.075 306.075h18v18h-18v-18z"/><path d="M90.075 324.075h18v18h-18v-18z"/><path d="M90.075 486.075h18v18h-18v-18z"/><path d="M90.075 504.075h18v18h-18v-18z"/><path d="M90.075 522.075h18v18h-18v-18z"/><path d="M90.075 288.075h18v18h-18v-18z"/><path d="M90.075 450.075h18v18h-18v-18z"/><path d="M324.075 108.075h18v18h-18v-18z"/><path d="M90.075 432.075h18v18h-18v-18z"/><path d="M90.075 378.075h18v18h-18v-18z"/><path d="M90.075 108.075h18v18h-18v-18z"/><path d="M90.075 270.075h18v18h-18v-18z"/><path d="M90.075 90.075h18v18h-18v-18z"/><path d="M90.075 144.075h18v18h-18v-18z"/><path d="M144.075 90.075h18v18h-18v-18z"/><path d="M144.075 342.075h18v18h-18v-18z"/><path d="M126.075 90.075h18v18h-18v-18z"/><path d="M90.075 126.075h18v18h-18v-18z"/><path d="M90.075 216.075h18v18h-18v-18z"/><path d="M90.075 234.075h18v18h-18v-18z"/><path d="M90.075 162.075h18v18h-18v-18z"/><path d="M90.075 252.075h18v18h-18v-18z"/><path d="M90.075 198.075h18v18h-18v-18z"/><path d="M90.075 180.075h18v18h-18v-18z"/><path d="M90.075 468.075h18v18h-18v-18z"/><path d="M108.075 234.075h18v18h-18v-18z"/><path d="M108.075 162.075h18v18h-18v-18z"/><path d="M108.075 270.075h18v18h-18v-18z"/><path d="M108.075 252.075h18v18h-18v-18z"/><path d="M108.075 180.075h18v18h-18v-18z"/><path d="M108.075 198.075h18v18h-18v-18z"/><path d="M108.075 216.075h18v18h-18v-18z"/><path d="M108.075 288.075h18v18h-18v-18z"/><path d="M108.075 396.075h18v18h-18v-18z"/><path d="M108.075 414.075h18v18h-18v-18z"/><path d="M108.075 378.075h18v18h-18v-18z"/><path d="M108.075 306.075h18v18h-18v-18z"/><path d="M108.075 324.075h18v18h-18v-18z"/><path d="M108.075 360.075h18v18h-18v-18z"/><path d="M108.075 342.075h18v18h-18v-18z"/><path d="M126.075 108.075h18v18h-18v-18z"/><path d="M234.075 108.075h18v18h-18v-18z"/><path d="M252.075 108.075h18v18h-18v-18z"/><path d="M216.075 108.075h18v18h-18v-18z"/><path d="M108.075 144.075h18v18h-18v-18z"/><path d="M306.075 108.075h18v18h-18v-18z"/><path d="M198.075 108.075h18v18h-18v-18z"/><path d="M288.075 108.075h18v18h-18v-18z"/><path d="M270.075 108.075h18v18h-18v-18z"/><path d="M108.075 432.075h18v18h-18v-18z"/><path d="M108.075 108.075h18v18h-18v-18z"/><path d="M108.075 126.075h18v18h-18v-18z"/><path d="M162.075 108.075h18v18h-18v-18z"/><path d="M180.075 108.075h18v18h-18v-18z"/><path d="M144.075 108.075h18v18h-18v-18z"/><path d="M288.075 558.075h18v18h-18v-18z"/><path d="M360.075 558.075h18v18h-18v-18z"/><path d="M270.075 558.075h18v18h-18v-18z"/><path d="M396.075 558.075h18v18h-18v-18z"/><path d="M108.075 450.075h18v18h-18v-18z"/><path d="M324.075 558.075h18v18h-18v-18z"/><path d="M396.075 432.075h18v18h-18v-18z"/><path d="M306.075 558.075h18v18h-18v-18z"/><path d="M378.075 558.075h18v18h-18v-18z"/><path d="M396.075 468.075h18v18h-18v-18z"/><path d="M396.075 486.075h18v18h-18v-18z"/><path d="M396.075 450.075h18v18h-18v-18z"/><path d="M396.075 540.075h18v18h-18v-18z"/><path d="M396.075 522.075h18v18h-18v-18z"/><path d="M396.075 504.075h18v18h-18v-18z"/><path d="M342.075 558.075h18v18h-18v-18z"/><path d="M252.075 558.075h18v18h-18v-18z"/><path d="M108.075 558.075h18v18h-18v-18z"/><path d="M108.075 522.075h18v18h-18v-18z"/><path d="M108.075 486.075h18v18h-18v-18z"/><path d="M108.075 468.075h18v18h-18v-18z"/><path d="M108.075 504.075h18v18h-18v-18z"/><path d="M126.075 558.075h18v18h-18v-18z"/><path d="M108.075 540.075h18v18h-18v-18z"/><path d="M144.075 558.075h18v18h-18v-18z"/><path d="M198.075 558.075h18v18h-18v-18z"/><path d="M234.075 558.075h18v18h-18v-18z"/><path d="M216.075 558.075h18v18h-18v-18z"/><path d="M162.075 558.075h18v18h-18v-18z"/><path d="M180.075 558.075h18v18h-18v-18z"/><path d="M252.075 234.075h18v18h-18v-18z"/><path d="M198.075 270.075h18v18h-18v-18z"/><path d="M198.075 288.075h18v18h-18v-18z"/><path d="M198.075 252.075h18v18h-18v-18z"/><path d="M198.075 234.075h18v18h-18v-18z"/><path d="M198.075 198.075h18v18h-18v-18z"/><path d="M216.075 198.075h18v18h-18v-18z"/><path d="M198.075 306.075h18v18h-18v-18z"/><path d="M198.075 216.075h18v18h-18v-18z"/><path d="M288.075 396.075h18v18h-18v-18z"/><path d="M198.075 396.075h18v18h-18v-18z"/><path d="M198.075 432.075h18v18h-18v-18z"/><path d="M198.075 324.075h18v18h-18v-18z"/><path d="M198.075 378.075h18v18h-18v-18z"/><path d="M198.075 342.075h18v18h-18v-18z"/><path d="M198.075 360.075h18v18h-18v-18z"/><path d="M288.075 306.075h18v18h-18v-18z"/><path d="M288.075 270.075h18v18h-18v-18z"/><path d="M288.075 324.075h18v18h-18v-18z"/><path d="M288.075 288.075h18v18h-18v-18z"/><path d="M198.075 450.075h18v18h-18v-18z"/><path d="M288.075 378.075h18v18h-18v-18z"/><path d="M288.075 342.075h18v18h-18v-18z"/><path d="M288.075 360.075h18v18h-18v-18z"/><path d="M288.075 198.075h18v18h-18v-18z"/><path d="M288.075 252.075h18v18h-18v-18z"/><path d="M234.075 198.075h18v18h-18v-18z"/><path d="M252.075 198.075h18v18h-18v-18z"/><path d="M270.075 198.075h18v18h-18v-18z"/><path d="M288.075 216.075h18v18h-18v-18z"/><path d="M288.075 234.075h18v18h-18v-18z"/><path d="M198.075 414.075h18v18h-18v-18z"/><path d="M306.075 234.075h18v18h-18v-18z"/><path d="M306.075 216.075h18v18h-18v-18z"/><path d="M306.075 198.075h18v18h-18v-18z"/><path d="M306.075 270.075h18v18h-18v-18z"/><path d="M306.075 288.075h18v18h-18v-18z"/><path d="M306.075 252.075h18v18h-18v-18z"/><path d="M306.075 180.075h18v18h-18v-18z"/><path d="M234.075 180.075h18v18h-18v-18z"/><path d="M288.075 180.075h18v18h-18v-18z"/><path d="M306.075 306.075h18v18h-18v-18z"/><path d="M198.075 180.075h18v18h-18v-18z"/><path d="M216.075 180.075h18v18h-18v-18z"/><path d="M252.075 180.075h18v18h-18v-18z"/><path d="M270.075 180.075h18v18h-18v-18z"/><path d="M198.075 468.075h18v18h-18v-18z"/><path d="M288.075 468.075h18v18h-18v-18z"/><path d="M306.075 468.075h18v18h-18v-18z"/><path d="M270.075 468.075h18v18h-18v-18z"/><path d="M216.075 468.075h18v18h-18v-18z"/><path d="M306.075 450.075h18v18h-18v-18z"/><path d="M252.075 468.075h18v18h-18v-18z"/><path d="M234.075 468.075h18v18h-18v-18z"/><path d="M306.075 342.075h18v18h-18v-18z"/><path d="M306.075 360.075h18v18h-18v-18z"/><path d="M306.075 378.075h18v18h-18v-18z"/><path d="M306.075 324.075h18v18h-18v-18z"/><path d="M306.075 432.075h18v18h-18v-18z"/><path d="M306.075 414.075h18v18h-18v-18z"/><path d="M306.075 396.075h18v18h-18v-18z"/><path d="M270.075 378.075h18v18h-18v-18z"/><path d="M234.075 360.075h18v18h-18v-18z"/><path d="M234.075 342.075h18v18h-18v-18z"/><path d="M234.075 378.075h18v18h-18v-18z"/><path d="M234.075 396.075h18v18h-18v-18z"/><path d="M234.075 270.075h18v18h-18v-18z"/><path d="M234.075 324.075h18v18h-18v-18z"/><path d="M234.075 306.075h18v18h-18v-18z"/><path d="M234.075 288.075h18v18h-18v-18z"/><path d="M234.075 414.075h18v18h-18v-18z"/><path d="M180.075 180.075h18v18h-18v-18z"/><path d="M270.075 414.075h18v18h-18v-18z"/><path d="M270.075 396.075h18v18h-18v-18z"/><path d="M234.075 432.075h18v18h-18v-18z"/><path d="M252.075 432.075h18v18h-18v-18z"/><path d="M270.075 432.075h18v18h-18v-18z"/><path d="M252.075 342.075h18v18h-18v-18z"/><path d="M288.075 414.075h18v18h-18v-18z"/><path d="M252.075 378.075h18v18h-18v-18z"/><path d="M270.075 360.075h18v18h-18v-18z"/><path d="M252.075 324.075h18v18h-18v-18z"/><path d="M486.075 18.075h18v18h-18v-18z"/><path d="M252.075 396.075h18v18h-18v-18z"/><path d="M252.075 414.075h18v18h-18v-18z"/><path d="M252.075 288.075h18v18h-18v-18z"/><path d="M90.075 540.075h18v18h-18v-18z"/><path d="M252.075 252.075h18v18h-18v-18z"/><path d="M234.075 234.075h18v18h-18v-18z"/><path d="M252.075 270.075h18v18h-18v-18z"/><path d="M234.075 252.075h18v18h-18v-18z"/><path d="M252.075 306.075h18v18h-18v-18z"/><path d="M252.075 360.075h18v18h-18v-18z"/><path d="M216.075 378.075h18v18h-18v-18z"/><path d="M216.075 432.075h18v18h-18v-18z"/><path d="M216.075 414.075h18v18h-18v-18z"/><path d="M216.075 396.075h18v18h-18v-18z"/><path d="M216.075 324.075h18v18h-18v-18z"/><path d="M216.075 360.075h18v18h-18v-18z"/><path d="M216.075 342.075h18v18h-18v-18z"/><path d="M234.075 450.075h18v18h-18v-18z"/><path d="M270.075 450.075h18v18h-18v-18z"/><path d="M216.075 450.075h18v18h-18v-18z"/><path d="M288.075 432.075h18v18h-18v-18z"/><path d="M288.075 450.075h18v18h-18v-18z"/><path d="M216.075 306.075h18v18h-18v-18z"/><path d="M252.075 450.075h18v18h-18v-18z"/><path d="M144.075 324.075h18v18h-18v-18z"/><path d="M270.075 270.075h18v18h-18v-18z"/><path d="M270.075 252.075h18v18h-18v-18z"/><path d="M270.075 234.075h18v18h-18v-18z"/><path d="M216.075 288.075h18v18h-18v-18z"/><path d="M270.075 288.075h18v18h-18v-18z"/><path d="M270.075 324.075h18v18h-18v-18z"/><path d="M270.075 216.075h18v18h-18v-18z"/><path d="M270.075 342.075h18v18h-18v-18z"/><path d="M216.075 234.075h18v18h-18v-18z"/><path d="M252.075 216.075h18v18h-18v-18z"/><path d="M216.075 270.075h18v18h-18v-18z"/><path d="M216.075 252.075h18v18h-18v-18z"/><path d="M216.075 216.075h18v18h-18v-18z"/><path d="M234.075 216.075h18v18h-18v-18z"/><path d="M270.075 306.075h18v18h-18v-18z"/><path d="M342.075 504.075h18v18h-18v-18z"/><path d="M342.075 486.075h18v18h-18v-18z"/><path d="M342.075 468.075h18v18h-18v-18z"/><path d="M342.075 450.075h18v18h-18v-18z"/><path d="M288.075 504.075h18v18h-18v-18z"/><path d="M306.075 504.075h18v18h-18v-18z"/><path d="M324.075 504.075h18v18h-18v-18z"/><path d="M342.075 396.075h18v18h-18v-18z"/><path d="M342.075 342.075h18v18h-18v-18z"/><path d="M342.075 360.075h18v18h-18v-18z"/><path d="M342.075 324.075h18v18h-18v-18z"/><path d="M270.075 504.075h18v18h-18v-18z"/><path d="M342.075 378.075h18v18h-18v-18z"/><path d="M342.075 414.075h18v18h-18v-18z"/><path d="M342.075 432.075h18v18h-18v-18z"/><path d="M162.075 468.075h18v18h-18v-18z"/><path d="M162.075 414.075h18v18h-18v-18z"/><path d="M162.075 432.075h18v18h-18v-18z"/><path d="M162.075 450.075h18v18h-18v-18z"/><path d="M162.075 378.075h18v18h-18v-18z"/><path d="M162.075 360.075h18v18h-18v-18z"/><path d="M252.075 504.075h18v18h-18v-18z"/><path d="M162.075 396.075h18v18h-18v-18z"/><path d="M342.075 306.075h18v18h-18v-18z"/><path d="M162.075 486.075h18v18h-18v-18z"/><path d="M198.075 504.075h18v18h-18v-18z"/><path d="M234.075 504.075h18v18h-18v-18z"/><path d="M216.075 504.075h18v18h-18v-18z"/><path d="M180.075 504.075h18v18h-18v-18z"/><path d="M162.075 504.075h18v18h-18v-18z"/><path d="M342.075 288.075h18v18h-18v-18z"/><path d="M144.075 144.075h18v18h-18v-18z"/><path d="M144.075 162.075h18v18h-18v-18z"/><path d="M144.075 180.075h18v18h-18v-18z"/><path d="M180.075 144.075h18v18h-18v-18z"/><path d="M198.075 144.075h18v18h-18v-18z"/><path d="M144.075 198.075h18v18h-18v-18z"/><path d="M162.075 144.075h18v18h-18v-18z"/><path d="M144.075 270.075h18v18h-18v-18z"/><path d="M144.075 288.075h18v18h-18v-18z"/><path d="M216.075 144.075h18v18h-18v-18z"/><path d="M144.075 306.075h18v18h-18v-18z"/><path d="M144.075 252.075h18v18h-18v-18z"/><path d="M144.075 216.075h18v18h-18v-18z"/><path d="M144.075 234.075h18v18h-18v-18z"/><path d="M252.075 144.075h18v18h-18v-18z"/><path d="M342.075 162.075h18v18h-18v-18z"/><path d="M342.075 216.075h18v18h-18v-18z"/><path d="M342.075 180.075h18v18h-18v-18z"/><path d="M342.075 198.075h18v18h-18v-18z"/><path d="M342.075 270.075h18v18h-18v-18z"/><path d="M342.075 252.075h18v18h-18v-18z"/><path d="M342.075 234.075h18v18h-18v-18z"/><path d="M342.075 144.075h18v18h-18v-18z"/><path d="M270.075 144.075h18v18h-18v-18z"/><path d="M288.075 144.075h18v18h-18v-18z"/><path d="M234.075 144.075h18v18h-18v-18z"/><path d="M162.075 342.075h18v18h-18v-18z"/><path d="M306.075 144.075h18v18h-18v-18z"/><path d="M324.075 144.075h18v18h-18v-18z"/><path d="M324.075 324.075h18v18h-18v-18z"/><path d="M234.075 486.075h18v18h-18v-18z"/><path d="M252.075 486.075h18v18h-18v-18z"/><path d="M270.075 486.075h18v18h-18v-18z"/><path d="M180.075 486.075h18v18h-18v-18z"/><path d="M288.075 486.075h18v18h-18v-18z"/><path d="M216.075 486.075h18v18h-18v-18z"/><path d="M198.075 486.075h18v18h-18v-18z"/><path d="M324.075 486.075h18v18h-18v-18z"/><path d="M324.075 414.075h18v18h-18v-18z"/><path d="M324.075 432.075h18v18h-18v-18z"/><path d="M324.075 396.075h18v18h-18v-18z"/><path d="M324.075 468.075h18v18h-18v-18z"/><path d="M162.075 324.075h18v18h-18v-18z"/><path d="M306.075 486.075h18v18h-18v-18z"/><path d="M324.075 450.075h18v18h-18v-18z"/><path d="M180.075 360.075h18v18h-18v-18z"/><path d="M180.075 288.075h18v18h-18v-18z"/><path d="M180.075 270.075h18v18h-18v-18z"/><path d="M180.075 306.075h18v18h-18v-18z"/><path d="M180.075 324.075h18v18h-18v-18z"/><path d="M180.075 252.075h18v18h-18v-18z"/><path d="M180.075 216.075h18v18h-18v-18z"/><path d="M180.075 450.075h18v18h-18v-18z"/><path d="M180.075 234.075h18v18h-18v-18z"/><path d="M180.075 414.075h18v18h-18v-18z"/><path d="M180.075 432.075h18v18h-18v-18z"/><path d="M180.075 396.075h18v18h-18v-18z"/><path d="M180.075 342.075h18v18h-18v-18z"/><path d="M180.075 378.075h18v18h-18v-18z"/><path d="M324.075 378.075h18v18h-18v-18z"/><path d="M180.075 468.075h18v18h-18v-18z"/><path d="M162.075 162.075h18v18h-18v-18z"/><path d="M252.075 162.075h18v18h-18v-18z"/><path d="M162.075 198.075h18v18h-18v-18z"/><path d="M180.075 162.075h18v18h-18v-18z"/><path d="M198.075 162.075h18v18h-18v-18z"/><path d="M234.075 162.075h18v18h-18v-18z"/><path d="M216.075 162.075h18v18h-18v-18z"/><path d="M162.075 180.075h18v18h-18v-18z"/><path d="M162.075 216.075h18v18h-18v-18z"/><path d="M162.075 288.075h18v18h-18v-18z"/><path d="M162.075 306.075h18v18h-18v-18z"/><path d="M162.075 270.075h18v18h-18v-18z"/><path d="M162.075 252.075h18v18h-18v-18z"/><path d="M162.075 234.075h18v18h-18v-18z"/><path d="M270.075 162.075h18v18h-18v-18z"/><path d="M324.075 270.075h18v18h-18v-18z"/><path d="M324.075 288.075h18v18h-18v-18z"/><path d="M324.075 252.075h18v18h-18v-18z"/><path d="M180.075 198.075h18v18h-18v-18z"/><path d="M324.075 342.075h18v18h-18v-18z"/><path d="M324.075 360.075h18v18h-18v-18z"/><path d="M324.075 234.075h18v18h-18v-18z"/><path d="M324.075 306.075h18v18h-18v-18z"/><path d="M306.075 162.075h18v18h-18v-18z"/><path d="M288.075 162.075h18v18h-18v-18z"/><path d="M324.075 162.075h18v18h-18v-18z"/><path d="M324.075 216.075h18v18h-18v-18z"/><path d="M324.075 180.075h18v18h-18v-18z"/><path d="M324.075 198.075h18v18h-18v-18z"/><path d="M432.075 162.075h18v18h-18v-18z"/><path d="M360.075 630.075h18v18h-18v-18z"/><path d="M378.075 630.075h18v18h-18v-18z"/><path d="M342.075 630.075h18v18h-18v-18z"/><path d="M324.075 630.075h18v18h-18v-18z"/><path d="M396.075 630.075h18v18h-18v-18z"/><path d="M288.075 630.075h18v18h-18v-18z"/><path d="M306.075 630.075h18v18h-18v-18z"/><path d="M270.075 630.075h18v18h-18v-18z"/><path d="M468.075 612.075h18v18h-18v-18z"/><path d="M468.075 594.075h18v18h-18v-18z"/><path d="M468.075 576.075h18v18h-18v-18z"/><path d="M450.075 630.075h18v18h-18v-18z"/><path d="M468.075 558.075h18v18h-18v-18z"/><path d="M414.075 630.075h18v18h-18v-18z"/><path d="M468.075 630.075h18v18h-18v-18z"/><path d="M432.075 630.075h18v18h-18v-18z"/><path d="M126.075 630.075h18v18h-18v-18z"/><path d="M90.075 630.075h18v18h-18v-18z"/><path d="M108.075 630.075h18v18h-18v-18z"/><path d="M72.075 630.075h18v18h-18v-18z"/><path d="M54.075 630.075h18v18h-18v-18z"/><path d="M36.075 612.075h18v18h-18v-18z"/><path d="M252.075 630.075h18v18h-18v-18z"/><path d="M36.075 630.075h18v18h-18v-18z"/><path d="M216.075 630.075h18v18h-18v-18z"/><path d="M234.075 630.075h18v18h-18v-18z"/><path d="M198.075 630.075h18v18h-18v-18z"/><path d="M144.075 630.075h18v18h-18v-18z"/><path d="M180.075 630.075h18v18h-18v-18z"/><path d="M162.075 630.075h18v18h-18v-18z"/><path d="M468.075 180.075h18v18h-18v-18z"/><path d="M36.075 594.075h18v18h-18v-18z"/><path d="M468.075 162.075h18v18h-18v-18z"/><path d="M468.075 198.075h18v18h-18v-18z"/><path d="M468.075 216.075h18v18h-18v-18z"/><path d="M468.075 252.075h18v18h-18v-18z"/><path d="M468.075 144.075h18v18h-18v-18z"/><path d="M468.075 234.075h18v18h-18v-18z"/><path d="M468.075 90.075h18v18h-18v-18z"/><path d="M468.075 72.075h18v18h-18v-18z"/><path d="M468.075 54.075h18v18h-18v-18z"/><path d="M468.075 36.075h18v18h-18v-18z"/><path d="M468.075 270.075h18v18h-18v-18z"/><path d="M468.075 108.075h18v18h-18v-18z"/><path d="M468.075 126.075h18v18h-18v-18z"/><path d="M468.075 486.075h18v18h-18v-18z"/><path d="M468.075 450.075h18v18h-18v-18z"/><path d="M468.075 414.075h18v18h-18v-18z"/><path d="M468.075 432.075h18v18h-18v-18z"/><path d="M468.075 468.075h18v18h-18v-18z"/><path d="M468.075 522.075h18v18h-18v-18z"/><path d="M468.075 540.075h18v18h-18v-18z"/><path d="M468.075 504.075h18v18h-18v-18z"/><path d="M468.075 360.075h18v18h-18v-18z"/><path d="M468.075 396.075h18v18h-18v-18z"/><path d="M468.075 342.075h18v18h-18v-18z"/><path d="M468.075 306.075h18v18h-18v-18z"/><path d="M468.075 324.075h18v18h-18v-18z"/><path d="M468.075 288.075h18v18h-18v-18z"/><path d="M468.075 378.075h18v18h-18v-18z"/><path d="M36.075 36.075h18v18h-18v-18z"/><path d="M216.075 36.075h18v18h-18v-18z"/><path d="M180.075 36.075h18v18h-18v-18z"/><path d="M306.075 36.075h18v18h-18v-18z"/><path d="M234.075 36.075h18v18h-18v-18z"/><path d="M288.075 36.075h18v18h-18v-18z"/><path d="M270.075 36.075h18v18h-18v-18z"/><path d="M468.075 18.075h18v18h-18v-18z"/><path d="M198.075 36.075h18v18h-18v-18z"/><path d="M72.075 36.075h18v18h-18v-18z"/><path d="M90.075 36.075h18v18h-18v-18z"/><path d="M54.075 36.075h18v18h-18v-18z"/><path d="M162.075 36.075h18v18h-18v-18z"/><path d="M108.075 36.075h18v18h-18v-18z"/><path d="M144.075 36.075h18v18h-18v-18z"/><path d="M126.075 36.075h18v18h-18v-18z"/><path d="M252.075 36.075h18v18h-18v-18z"/><path d="M324.075 36.075h18v18h-18v-18z"/><path d="M450.075 72.075h18v18h-18v-18z"/><path d="M450.075 54.075h18v18h-18v-18z"/><path d="M450.075 36.075h18v18h-18v-18z"/><path d="M450.075 144.075h18v18h-18v-18z"/><path d="M450.075 126.075h18v18h-18v-18z"/><path d="M450.075 108.075h18v18h-18v-18z"/><path d="M450.075 90.075h18v18h-18v-18z"/><path d="M432.075 36.075h18v18h-18v-18z"/><path d="M342.075 36.075h18v18h-18v-18z"/><path d="M378.075 36.075h18v18h-18v-18z"/><path d="M360.075 36.075h18v18h-18v-18z"/><path d="M396.075 36.075h18v18h-18v-18z"/><path d="M414.075 36.075h18v18h-18v-18z"/><path d="M36.075 504.075h18v18h-18v-18z"/><path d="M36.075 414.075h18v18h-18v-18z"/><path d="M36.075 432.075h18v18h-18v-18z"/><path d="M36.075 396.075h18v18h-18v-18z"/><path d="M36.075 450.075h18v18h-18v-18z"/><path d="M36.075 342.075h18v18h-18v-18z"/><path d="M36.075 378.075h18v18h-18v-18z"/><path d="M36.075 360.075h18v18h-18v-18z"/><path d="M36.075 324.075h18v18h-18v-18z"/><path d="M36.075 522.075h18v18h-18v-18z"/><path d="M36.075 540.075h18v18h-18v-18z"/><path d="M36.075 558.075h18v18h-18v-18z"/><path d="M36.075 468.075h18v18h-18v-18z"/><path d="M36.075 576.075h18v18h-18v-18z"/><path d="M36.075 486.075h18v18h-18v-18z"/><path d="M36.075 252.075h18v18h-18v-18z"/><path d="M36.075 126.075h18v18h-18v-18z"/><path d="M36.075 306.075h18v18h-18v-18z"/><path d="M36.075 162.075h18v18h-18v-18z"/><path d="M36.075 108.075h18v18h-18v-18z"/><path d="M36.075 180.075h18v18h-18v-18z"/><path d="M36.075 72.075h18v18h-18v-18z"/><path d="M36.075 90.075h18v18h-18v-18z"/><path d="M36.075 144.075h18v18h-18v-18z"/><path d="M36.075 198.075h18v18h-18v-18z"/><path d="M36.075 270.075h18v18h-18v-18z"/><path d="M36.075 288.075h18v18h-18v-18z"/><path d="M36.075 54.075h18v18h-18v-18z"/><path d="M36.075 216.075h18v18h-18v-18z"/><path d="M36.075 234.075h18v18h-18v-18z"/><path d="M108.075 18.075h18v18h-18v-18z"/><path d="M396.075 648.075h18v18h-18v-18z"/><path d="M414.075 648.075h18v18h-18v-18z"/><path d="M432.075 648.075h18v18h-18v-18z"/><path d="M450.075 648.075h18v18h-18v-18z"/><path d="M342.075 648.075h18v18h-18v-18z"/><path d="M360.075 648.075h18v18h-18v-18z"/><path d="M324.075 648.075h18v18h-18v-18z"/><path d="M378.075 648.075h18v18h-18v-18z"/><path d="M486.075 576.075h18v18h-18v-18z"/><path d="M486.075 594.075h18v18h-18v-18z"/><path d="M486.075 558.075h18v18h-18v-18z"/><path d="M486.075 540.075h18v18h-18v-18z"/><path d="M486.075 648.075h18v18h-18v-18z"/><path d="M486.075 612.075h18v18h-18v-18z"/><path d="M468.075 648.075h18v18h-18v-18z"/><path d="M486.075 630.075h18v18h-18v-18z"/><path d="M144.075 648.075h18v18h-18v-18z"/><path d="M162.075 648.075h18v18h-18v-18z"/><path d="M180.075 648.075h18v18h-18v-18z"/><path d="M126.075 648.075h18v18h-18v-18z"/><path d="M72.075 648.075h18v18h-18v-18z"/><path d="M108.075 648.075h18v18h-18v-18z"/><path d="M90.075 648.075h18v18h-18v-18z"/><path d="M216.075 648.075h18v18h-18v-18z"/><path d="M270.075 648.075h18v18h-18v-18z"/><path d="M288.075 648.075h18v18h-18v-18z"/><path d="M252.075 648.075h18v18h-18v-18z"/><path d="M234.075 648.075h18v18h-18v-18z"/><path d="M306.075 648.075h18v18h-18v-18z"/><path d="M198.075 648.075h18v18h-18v-18z"/><path d="M486.075 270.075h18v18h-18v-18z"/><path d="M486.075 162.075h18v18h-18v-18z"/><path d="M486.075 126.075h18v18h-18v-18z"/><path d="M486.075 180.075h18v18h-18v-18z"/><path d="M486.075 144.075h18v18h-18v-18z"/><path d="M486.075 234.075h18v18h-18v-18z"/><path d="M486.075 198.075h18v18h-18v-18z"/><path d="M486.075 216.075h18v18h-18v-18z"/><path d="M486.075 54.075h18v18h-18v-18z"/><path d="M486.075 36.075h18v18h-18v-18z"/><path d="M486.075 252.075h18v18h-18v-18z"/><path d="M486.075 90.075h18v18h-18v-18z"/><path d="M486.075 72.075h18v18h-18v-18z"/><path d="M486.075 108.075h18v18h-18v-18z"/><path d="M450.075 18.075h18v18h-18v-18z"/><path d="M486.075 450.075h18v18h-18v-18z"/><path d="M486.075 432.075h18v18h-18v-18z"/><path d="M486.075 396.075h18v18h-18v-18z"/><path d="M486.075 414.075h18v18h-18v-18z"/><path d="M486.075 504.075h18v18h-18v-18z"/><path d="M486.075 486.075h18v18h-18v-18z"/><path d="M486.075 468.075h18v18h-18v-18z"/><path d="M486.075 522.075h18v18h-18v-18z"/><path d="M486.075 306.075h18v18h-18v-18z"/><path d="M486.075 378.075h18v18h-18v-18z"/><path d="M54.075 648.075h18v18h-18v-18z"/><path d="M486.075 288.075h18v18h-18v-18z"/><path d="M486.075 342.075h18v18h-18v-18z"/><path d="M486.075 360.075h18v18h-18v-18z"/><path d="M486.075 324.075h18v18h-18v-18z"/><path d="M90.075 18.075h18v18h-18v-18z"/><path d="M450.075 162.075h18v18h-18v-18z"/><path d="M18.075 126.075h18v18h-18v-18z"/><path d="M162.075 18.075h18v18h-18v-18z"/><path d="M126.075 18.075h18v18h-18v-18z"/><path d="M180.075 18.075h18v18h-18v-18z"/><path d="M144.075 18.075h18v18h-18v-18z"/><path d="M54.075 18.075h18v18h-18v-18z"/><path d="M18.075 90.075h18v18h-18v-18z"/><path d="M18.075 72.075h18v18h-18v-18z"/><path d="M36.075 18.075h18v18h-18v-18z"/><path d="M18.075 108.075h18v18h-18v-18z"/><path d="M18.075 54.075h18v18h-18v-18z"/><path d="M18.075 18.075h18v18h-18v-18z"/><path d="M18.075 36.075h18v18h-18v-18z"/><path d="M72.075 18.075h18v18h-18v-18z"/><path d="M378.075 18.075h18v18h-18v-18z"/><path d="M360.075 18.075h18v18h-18v-18z"/><path d="M342.075 18.075h18v18h-18v-18z"/><path d="M90.075 558.075h18v18h-18v-18z"/><path d="M432.075 18.075h18v18h-18v-18z"/><path d="M198.075 18.075h18v18h-18v-18z"/><path d="M324.075 18.075h18v18h-18v-18z"/><path d="M414.075 18.075h18v18h-18v-18z"/><path d="M234.075 18.075h18v18h-18v-18z"/><path d="M252.075 18.075h18v18h-18v-18z"/><path d="M306.075 18.075h18v18h-18v-18z"/><path d="M216.075 18.075h18v18h-18v-18z"/><path d="M288.075 18.075h18v18h-18v-18z"/><path d="M270.075 18.075h18v18h-18v-18z"/><path d="M18.075 144.075h18v18h-18v-18z"/><path d="M18.075 504.075h18v18h-18v-18z"/><path d="M36.075 648.075h18v18h-18v-18z"/><path d="M18.075 522.075h18v18h-18v-18z"/><path d="M18.075 468.075h18v18h-18v-18z"/><path d="M18.075 432.075h18v18h-18v-18z"/><path d="M18.075 450.075h18v18h-18v-18z"/><path d="M18.075 414.075h18v18h-18v-18z"/><path d="M18.075 540.075h18v18h-18v-18z"/><path d="M18.075 630.075h18v18h-18v-18z"/><path d="M18.075 648.075h18v18h-18v-18z"/><path d="M18.075 612.075h18v18h-18v-18z"/><path d="M18.075 558.075h18v18h-18v-18z"/><path d="M18.075 576.075h18v18h-18v-18z"/><path d="M18.075 594.075h18v18h-18v-18z"/><path d="M18.075 486.075h18v18h-18v-18z"/><path d="M18.075 216.075h18v18h-18v-18z"/><path d="M18.075 234.075h18v18h-18v-18z"/><path d="M18.075 252.075h18v18h-18v-18z"/><path d="M18.075 162.075h18v18h-18v-18z"/><path d="M18.075 270.075h18v18h-18v-18z"/><path d="M18.075 180.075h18v18h-18v-18z"/><path d="M18.075 198.075h18v18h-18v-18z"/><path d="M18.075 360.075h18v18h-18v-18z"/><path d="M18.075 342.075h18v18h-18v-18z"/><path d="M18.075 288.075h18v18h-18v-18z"/><path d="M18.075 378.075h18v18h-18v-18z"/><path d="M18.075 396.075h18v18h-18v-18z"/><path d="M18.075 324.075h18v18h-18v-18z"/><path d="M18.075 306.075h18v18h-18v-18z"/><path d="M396.075 18.075h18v18h-18v-18z"/><path d="M486.075.075h18v18h-18v-18z"/><path d="M504.075 18.075h18v18h-18v-18z"/><path d="M504.075 576.075h18v18h-18v-18z"/><path d="M504.075 594.075h18v18h-18v-18z"/><path d="M504.075 558.075h18v18h-18v-18z"/><path d="M504.075 540.075h18v18h-18v-18z"/><path d="M504.075 648.075h18v18h-18v-18z"/><path d="M396.075 666.075h18v18h-18v-18z"/><path d="M414.075 666.075h18v18h-18v-18z"/><path d="M432.075 666.075h18v18h-18v-18z"/><path d="M450.075 666.075h18v18h-18v-18z"/><path d="M342.075 666.075h18v18h-18v-18z"/><path d="M360.075 666.075h18v18h-18v-18z"/><path d="M324.075 666.075h18v18h-18v-18z"/><path d="M378.075 666.075h18v18h-18v-18z"/><path d="M486.075 666.075h18v18h-18v-18z"/><path d="M468.075 666.075h18v18h-18v-18z"/><path d="M144.075 666.075h18v18h-18v-18z"/><path d="M162.075 666.075h18v18h-18v-18z"/><path d="M180.075 666.075h18v18h-18v-18z"/><path d="M126.075 666.075h18v18h-18v-18z"/><path d="M72.075 666.075h18v18h-18v-18z"/><path d="M108.075 666.075h18v18h-18v-18z"/><path d="M90.075 666.075h18v18h-18v-18z"/><path d="M216.075 666.075h18v18h-18v-18z"/><path d="M270.075 666.075h18v18h-18v-18z"/><path d="M288.075 666.075h18v18h-18v-18z"/><path d="M252.075 666.075h18v18h-18v-18z"/><path d="M234.075 666.075h18v18h-18v-18z"/><path d="M306.075 666.075h18v18h-18v-18z"/><path d="M198.075 666.075h18v18h-18v-18z"/><path d="M54.075 666.075h18v18h-18v-18z"/><path d="M36.075 666.075h18v18h-18v-18z"/><path d="M18.075 666.075h18v18h-18v-18z"/><path d="M504.075 666.075h18v18h-18v-18z"/><path d="M504.075 612.075h18v18h-18v-18z"/><path d="M504.075 630.075h18v18h-18v-18z"/><path d="M504.075 270.075h18v18h-18v-18z"/><path d="M504.075 162.075h18v18h-18v-18z"/><path d="M504.075 126.075h18v18h-18v-18z"/><path d="M504.075 180.075h18v18h-18v-18z"/><path d="M504.075 144.075h18v18h-18v-18z"/><path d="M504.075 234.075h18v18h-18v-18z"/><path d="M504.075 198.075h18v18h-18v-18z"/><path d="M504.075 216.075h18v18h-18v-18z"/><path d="M504.075 54.075h18v18h-18v-18z"/><path d="M504.075 36.075h18v18h-18v-18z"/><path d="M504.075 252.075h18v18h-18v-18z"/><path d="M504.075 90.075h18v18h-18v-18z"/><path d="M504.075 72.075h18v18h-18v-18z"/><path d="M504.075 108.075h18v18h-18v-18z"/><path d="M504.075 450.075h18v18h-18v-18z"/><path d="M504.075 432.075h18v18h-18v-18z"/><path d="M504.075 396.075h18v18h-18v-18z"/><path d="M504.075 414.075h18v18h-18v-18z"/><path d="M504.075 504.075h18v18h-18v-18z"/><path d="M504.075 486.075h18v18h-18v-18z"/><path d="M504.075 468.075h18v18h-18v-18z"/><path d="M504.075 522.075h18v18h-18v-18z"/><path d="M504.075 306.075h18v18h-18v-18z"/><path d="M504.075 378.075h18v18h-18v-18z"/><path d="M504.075 288.075h18v18h-18v-18z"/><path d="M504.075 342.075h18v18h-18v-18z"/><path d="M504.075 360.075h18v18h-18v-18z"/><path d="M504.075 324.075h18v18h-18v-18z"/><path d="M504.075.075h18v18h-18v-18z"/><path d="M468.075.075h18v18h-18v-18z"/><path d="M108.075.075h18v18h-18v-18z"/><path d="M450.075.075h18v18h-18v-18z"/><path d="M90.075.075h18v18h-18v-18z"/><path d="M162.075.075h18v18h-18v-18z"/><path d="M126.075.075h18v18h-18v-18z"/><path d="M180.075.075h18v18h-18v-18z"/><path d="M144.075.075h18v18h-18v-18z"/><path d="M54.075.075h18v18h-18v-18z"/><path d="M36.075.075h18v18h-18v-18z"/><path d="M18.075.075h18v18h-18v-18z"/><path d="M.075 126.075h18v18h-18v-18z"/><path d="M.075 90.075h18v18h-18v-18z"/><path d="M.075 72.075h18v18h-18v-18z"/><path d="M.075 108.075h18v18h-18v-18z"/><path d="M.075 54.075h18v18h-18v-18z"/><path d="M.075 18.075h18v18h-18v-18z"/><path d="M.075 36.075h18v18h-18v-18z"/><path d="M.075 144.075h18v18h-18v-18z"/><path d="M.075 504.075h18v18h-18v-18z"/><path d="M.075 522.075h18v18h-18v-18z"/><path d="M.075 468.075h18v18h-18v-18z"/><path d="M.075 432.075h18v18h-18v-18z"/><path d="M.075 450.075h18v18h-18v-18z"/><path d="M.075 414.075h18v18h-18v-18z"/><path d="M.075 540.075h18v18h-18v-18z"/><path d="M.075 630.075h18v18h-18v-18z"/><path d="M.075 648.075h18v18h-18v-18z"/><path d="M.075 612.075h18v18h-18v-18z"/><path d="M.075 558.075h18v18h-18v-18z"/><path d="M.075 576.075h18v18h-18v-18z"/><path d="M.075 594.075h18v18h-18v-18z"/><path d="M.075 486.075h18v18h-18v-18z"/><path d="M.075 216.075h18v18h-18v-18z"/><path d="M.075 234.075h18v18h-18v-18z"/><path d="M.075 252.075h18v18h-18v-18z"/><path d="M.075 162.075h18v18h-18v-18z"/><path d="M.075 270.075h18v18h-18v-18z"/><path d="M.075 180.075h18v18h-18v-18z"/><path d="M.075 198.075h18v18h-18v-18z"/><path d="M.075 360.075h18v18h-18v-18z"/><path d="M.075 342.075h18v18h-18v-18z"/><path d="M.075 288.075h18v18h-18v-18z"/><path d="M.075 378.075h18v18h-18v-18z"/><path d="M.075 396.075h18v18h-18v-18z"/><path d="M.075 324.075h18v18h-18v-18z"/><path d="M.075 306.075h18v18h-18v-18z"/><path d="M.075 666.075h18v18h-18v-18z"/><path d="M.075.075h18v18h-18v-18z"/><path d="M72.075.075h18v18h-18v-18z"/><path d="M378.075.075h18v18h-18v-18z"/><path d="M360.075.075h18v18h-18v-18z"/><path d="M342.075.075h18v18h-18v-18z"/><path d="M432.075.075h18v18h-18v-18z"/><path d="M198.075.075h18v18h-18v-18z"/><path d="M324.075.075h18v18h-18v-18z"/><path d="M414.075.075h18v18h-18v-18z"/><path d="M234.075.075h18v18h-18v-18z"/><path d="M252.075.075h18v18h-18v-18z"/><path d="M306.075.075h18v18h-18v-18z"/><path d="M216.075.075h18v18h-18v-18z"/><path d="M288.075.075h18v18h-18v-18z"/><path d="M270.075.075h18v18h-18v-18z"/><path d="M396.075.075h18v18h-18v-18z"/><path d="M72.075 342.075h18v18h-18v-18z"/><path d="M72.075 522.075h18v18h-18v-18z"/><path d="M72.075 252.075h18v18h-18v-18z"/><path d="M72.075 288.075h18v18h-18v-18z"/><path d="M72.075 270.075h18v18h-18v-18z"/><path d="M72.075 306.075h18v18h-18v-18z"/><path d="M72.075 378.075h18v18h-18v-18z"/><path d="M72.075 360.075h18v18h-18v-18z"/><path d="M72.075 468.075h18v18h-18v-18z"/><path d="M72.075 486.075h18v18h-18v-18z"/><path d="M72.075 504.075h18v18h-18v-18z"/><path d="M72.075 396.075h18v18h-18v-18z"/><path d="M72.075 414.075h18v18h-18v-18z"/><path d="M72.075 432.075h18v18h-18v-18z"/><path d="M72.075 450.075h18v18h-18v-18z"/><path d="M72.075 324.075h18v18h-18v-18z"/><path d="M162.075 72.075h18v18h-18v-18z"/><path d="M72.075 108.075h18v18h-18v-18z"/><path d="M72.075 90.075h18v18h-18v-18z"/><path d="M72.075 72.075h18v18h-18v-18z"/><path d="M144.075 72.075h18v18h-18v-18z"/><path d="M126.075 72.075h18v18h-18v-18z"/><path d="M108.075 72.075h18v18h-18v-18z"/><path d="M72.075 126.075h18v18h-18v-18z"/><path d="M72.075 234.075h18v18h-18v-18z"/><path d="M72.075 180.075h18v18h-18v-18z"/><path d="M72.075 216.075h18v18h-18v-18z"/><path d="M72.075 198.075h18v18h-18v-18z"/><path d="M72.075 162.075h18v18h-18v-18z"/><path d="M432.075 486.075h18v18h-18v-18z"/><path d="M90.075 72.075h18v18h-18v-18z"/><path d="M414.075 594.075h18v18h-18v-18z"/><path d="M396.075 594.075h18v18h-18v-18z"/><path d="M360.075 594.075h18v18h-18v-18z"/><path d="M288.075 594.075h18v18h-18v-18z"/><path d="M306.075 594.075h18v18h-18v-18z"/><path d="M324.075 594.075h18v18h-18v-18z"/><path d="M342.075 594.075h18v18h-18v-18z"/><path d="M378.075 594.075h18v18h-18v-18z"/><path d="M72.075 540.075h18v18h-18v-18z"/><path d="M432.075 594.075h18v18h-18v-18z"/><path d="M432.075 504.075h18v18h-18v-18z"/><path d="M432.075 540.075h18v18h-18v-18z"/><path d="M432.075 558.075h18v18h-18v-18z"/><path d="M432.075 576.075h18v18h-18v-18z"/><path d="M432.075 522.075h18v18h-18v-18z"/><path d="M108.075 594.075h18v18h-18v-18z"/><path d="M126.075 594.075h18v18h-18v-18z"/><path d="M90.075 594.075h18v18h-18v-18z"/><path d="M72.075 576.075h18v18h-18v-18z"/><path d="M72.075 558.075h18v18h-18v-18z"/><path d="M72.075 594.075h18v18h-18v-18z"/><path d="M144.075 594.075h18v18h-18v-18z"/><path d="M180.075 594.075h18v18h-18v-18z"/><path d="M234.075 594.075h18v18h-18v-18z"/><path d="M216.075 594.075h18v18h-18v-18z"/><path d="M252.075 594.075h18v18h-18v-18z"/><path d="M270.075 594.075h18v18h-18v-18z"/><path d="M162.075 594.075h18v18h-18v-18z"/><path d="M198.075 594.075h18v18h-18v-18z"/><path d="M72.075 144.075h18v18h-18v-18z"/><path d="M414.075 522.075h18v18h-18v-18z"/><path d="M414.075 378.075h18v18h-18v-18z"/><path d="M414.075 540.075h18v18h-18v-18z"/><path d="M414.075 558.075h18v18h-18v-18z"/><path d="M360.075 576.075h18v18h-18v-18z"/><path d="M378.075 576.075h18v18h-18v-18z"/><path d="M396.075 576.075h18v18h-18v-18z"/><path d="M414.075 396.075h18v18h-18v-18z"/><path d="M414.075 414.075h18v18h-18v-18z"/><path d="M414.075 432.075h18v18h-18v-18z"/><path d="M342.075 576.075h18v18h-18v-18z"/><path d="M414.075 504.075h18v18h-18v-18z"/><path d="M414.075 486.075h18v18h-18v-18z"/><path d="M414.075 468.075h18v18h-18v-18z"/><path d="M414.075 450.075h18v18h-18v-18z"/><path d="M414.075 576.075h18v18h-18v-18z"/><path d="M144.075 576.075h18v18h-18v-18z"/><path d="M162.075 576.075h18v18h-18v-18z"/><path d="M180.075 576.075h18v18h-18v-18z"/><path d="M90.075 576.075h18v18h-18v-18z"/><path d="M126.075 576.075h18v18h-18v-18z"/><path d="M198.075 576.075h18v18h-18v-18z"/><path d="M108.075 576.075h18v18h-18v-18z"/><path d="M216.075 576.075h18v18h-18v-18z"/><path d="M288.075 576.075h18v18h-18v-18z"/><path d="M270.075 576.075h18v18h-18v-18z"/><path d="M306.075 576.075h18v18h-18v-18z"/><path d="M234.075 576.075h18v18h-18v-18z"/><path d="M324.075 576.075h18v18h-18v-18z"/><path d="M252.075 576.075h18v18h-18v-18z"/><path d="M216.075 72.075h18v18h-18v-18z"/><path d="M306.075 72.075h18v18h-18v-18z"/><path d="M324.075 72.075h18v18h-18v-18z"/><path d="M360.075 72.075h18v18h-18v-18z"/><path d="M342.075 72.075h18v18h-18v-18z"/><path d="M378.075 72.075h18v18h-18v-18z"/><path d="M414.075 360.075h18v18h-18v-18z"/><path d="M396.075 72.075h18v18h-18v-18z"/><path d="M198.075 72.075h18v18h-18v-18z"/><path d="M180.075 72.075h18v18h-18v-18z"/><path d="M288.075 72.075h18v18h-18v-18z"/><path d="M234.075 72.075h18v18h-18v-18z"/><path d="M414.075 90.075h18v18h-18v-18z"/><path d="M252.075 72.075h18v18h-18v-18z"/><path d="M270.075 72.075h18v18h-18v-18z"/><path d="M414.075 72.075h18v18h-18v-18z"/><path d="M414.075 288.075h18v18h-18v-18z"/><path d="M414.075 270.075h18v18h-18v-18z"/><path d="M450.075 180.075h18v18h-18v-18z"/><path d="M414.075 234.075h18v18h-18v-18z"/><path d="M414.075 108.075h18v18h-18v-18z"/><path d="M414.075 342.075h18v18h-18v-18z"/><path d="M414.075 324.075h18v18h-18v-18z"/><path d="M414.075 306.075h18v18h-18v-18z"/><path d="M414.075 162.075h18v18h-18v-18z"/><path d="M414.075 144.075h18v18h-18v-18z"/><path d="M414.075 126.075h18v18h-18v-18z"/><path d="M414.075 180.075h18v18h-18v-18z"/><path d="M414.075 216.075h18v18h-18v-18z"/><path d="M414.075 198.075h18v18h-18v-18z"/><path d="M414.075 252.075h18v18h-18v-18z"/><path d="M162.075 612.075h18v18h-18v-18z"/><path d="M180.075 612.075h18v18h-18v-18z"/><path d="M144.075 612.075h18v18h-18v-18z"/><path d="M198.075 612.075h18v18h-18v-18z"/><path d="M72.075 612.075h18v18h-18v-18z"/><path d="M108.075 612.075h18v18h-18v-18z"/><path d="M342.075 612.075h18v18h-18v-18z"/><path d="M90.075 612.075h18v18h-18v-18z"/><path d="M306.075 612.075h18v18h-18v-18z"/><path d="M324.075 612.075h18v18h-18v-18z"/><path d="M288.075 612.075h18v18h-18v-18z"/><path d="M216.075 612.075h18v18h-18v-18z"/><path d="M234.075 612.075h18v18h-18v-18z"/><path d="M252.075 612.075h18v18h-18v-18z"/><path d="M270.075 612.075h18v18h-18v-18z"/><path d="M126.075 612.075h18v18h-18v-18z"/><path d="M54.075 450.075h18v18h-18v-18z"/><path d="M54.075 486.075h18v18h-18v-18z"/><path d="M54.075 468.075h18v18h-18v-18z"/><path d="M54.075 432.075h18v18h-18v-18z"/><path d="M54.075 612.075h18v18h-18v-18z"/><path d="M54.075 396.075h18v18h-18v-18z"/><path d="M54.075 414.075h18v18h-18v-18z"/><path d="M432.075 468.075h18v18h-18v-18z"/><path d="M54.075 576.075h18v18h-18v-18z"/><path d="M54.075 504.075h18v18h-18v-18z"/><path d="M54.075 558.075h18v18h-18v-18z"/><path d="M54.075 594.075h18v18h-18v-18z"/><path d="M54.075 540.075h18v18h-18v-18z"/><path d="M54.075 522.075h18v18h-18v-18z"/><path d="M378.075 612.075h18v18h-18v-18z"/><path d="M450.075 360.075h18v18h-18v-18z"/><path d="M450.075 306.075h18v18h-18v-18z"/><path d="M450.075 432.075h18v18h-18v-18z"/><path d="M360.075 612.075h18v18h-18v-18z"/><path d="M450.075 414.075h18v18h-18v-18z"/><path d="M450.075 396.075h18v18h-18v-18z"/><path d="M450.075 378.075h18v18h-18v-18z"/><path d="M450.075 324.075h18v18h-18v-18z"/><path d="M450.075 216.075h18v18h-18v-18z"/><path d="M450.075 198.075h18v18h-18v-18z"/><path d="M450.075 234.075h18v18h-18v-18z"/><path d="M450.075 252.075h18v18h-18v-18z"/><path d="M450.075 270.075h18v18h-18v-18z"/><path d="M450.075 288.075h18v18h-18v-18z"/><path d="M450.075 342.075h18v18h-18v-18z"/><path d="M450.075 612.075h18v18h-18v-18z"/><path d="M432.075 612.075h18v18h-18v-18z"/><path d="M450.075 594.075h18v18h-18v-18z"/><path d="M414.075 612.075h18v18h-18v-18z"/><path d="M54.075 360.075h18v18h-18v-18z"/><path d="M396.075 612.075h18v18h-18v-18z"/><path d="M450.075 576.075h18v18h-18v-18z"/><path d="M450.075 558.075h18v18h-18v-18z"/><path d="M450.075 486.075h18v18h-18v-18z"/><path d="M450.075 468.075h18v18h-18v-18z"/><path d="M450.075 450.075h18v18h-18v-18z"/><path d="M450.075 504.075h18v18h-18v-18z"/><path d="M450.075 540.075h18v18h-18v-18z"/><path d="M450.075 522.075h18v18h-18v-18z"/><path d="M54.075 378.075h18v18h-18v-18z"/><path d="M432.075 90.075h18v18h-18v-18z"/><path d="M432.075 198.075h18v18h-18v-18z"/><path d="M432.075 72.075h18v18h-18v-18z"/><path d="M432.075 180.075h18v18h-18v-18z"/><path d="M432.075 54.075h18v18h-18v-18z"/><path d="M432.075 126.075h18v18h-18v-18z"/><path d="M432.075 144.075h18v18h-18v-18z"/><path d="M432.075 108.075h18v18h-18v-18z"/><path d="M360.075 54.075h18v18h-18v-18z"/><path d="M342.075 54.075h18v18h-18v-18z"/><path d="M414.075 54.075h18v18h-18v-18z"/><path d="M324.075 54.075h18v18h-18v-18z"/><path d="M54.075 342.075h18v18h-18v-18z"/><path d="M396.075 54.075h18v18h-18v-18z"/><path d="M432.075 450.075h18v18h-18v-18z"/><path d="M432.075 396.075h18v18h-18v-18z"/><path d="M432.075 378.075h18v18h-18v-18z"/><path d="M432.075 360.075h18v18h-18v-18z"/><path d="M432.075 342.075h18v18h-18v-18z"/><path d="M306.075 54.075h18v18h-18v-18z"/><path d="M432.075 432.075h18v18h-18v-18z"/><path d="M432.075 414.075h18v18h-18v-18z"/><path d="M432.075 234.075h18v18h-18v-18z"/><path d="M432.075 324.075h18v18h-18v-18z"/><path d="M432.075 252.075h18v18h-18v-18z"/><path d="M432.075 216.075h18v18h-18v-18z"/><path d="M432.075 270.075h18v18h-18v-18z"/><path d="M432.075 306.075h18v18h-18v-18z"/><path d="M432.075 288.075h18v18h-18v-18z"/><path d="M378.075 54.075h18v18h-18v-18z"/><path d="M54.075 162.075h18v18h-18v-18z"/><path d="M54.075 180.075h18v18h-18v-18z"/><path d="M54.075 198.075h18v18h-18v-18z"/><path d="M54.075 126.075h18v18h-18v-18z"/><path d="M54.075 144.075h18v18h-18v-18z"/><path d="M54.075 90.075h18v18h-18v-18z"/><path d="M54.075 216.075h18v18h-18v-18z"/><path d="M54.075 108.075h18v18h-18v-18z"/><path d="M54.075 306.075h18v18h-18v-18z"/><path d="M54.075 288.075h18v18h-18v-18z"/><path d="M54.075 324.075h18v18h-18v-18z"/><path d="M54.075 252.075h18v18h-18v-18z"/><path d="M288.075 54.075h18v18h-18v-18z"/><path d="M54.075 234.075h18v18h-18v-18z"/><path d="M54.075 270.075h18v18h-18v-18z"/><path d="M198.075 54.075h18v18h-18v-18z"/><path d="M180.075 54.075h18v18h-18v-18z"/><path d="M216.075 54.075h18v18h-18v-18z"/><path d="M234.075 54.075h18v18h-18v-18z"/><path d="M270.075 54.075h18v18h-18v-18z"/><path d="M252.075 54.075h18v18h-18v-18z"/><path d="M162.075 54.075h18v18h-18v-18z"/><path d="M108.075 54.075h18v18h-18v-18z"/><path d="M90.075 54.075h18v18h-18v-18z"/><path d="M72.075 54.075h18v18h-18v-18z"/><path d="M54.075 54.075h18v18h-18v-18z"/><path d="M126.075 54.075h18v18h-18v-18z"/><path d="M144.075 54.075h18v18h-18v-18z"/><path d="M54.075 72.075h18v18h-18v-18z"/></svg>