<svg baseProfile="tiny" xmlns="http://www.w3.org/2000/svg"><path d="M96.915 528.543h8.324v11.2h-8.324v-11.2z"/><path d="M221.325 87.687h8.324v29.515h-8.324V87.687z"/><path d="M236.844 87.687h6.416v29.515h-6.416V87.687z"/><path d="M211.441 87.687h9.884v29.515h-9.884V87.687z"/><path d="M199.392 87.687h12.05v29.515h-12.05V87.687z"/><path d="M308.369 87.687h15.519v29.515h-15.519V87.687z"/><path d="M243.26 87.687h5.722v29.515h-5.722V87.687z"/><path d="M323.888 87.687h12.05v29.515h-12.05V87.687z"/><path d="M248.981 87.687h37.453v29.515h-37.453V87.687z"/><path d="M112.434 204.813h6.417v13.3h-6.417v-13.3z"/><path d="M112.434 167.599h6.417v7.699h-6.417v-7.699z"/><path d="M112.434 117.202h6.417v50.397h-6.417v-50.397z"/><path d="M112.434 175.298h6.417v8.633h-6.417v-8.633z"/><path d="M112.434 183.932h6.417v9.682h-6.417v-9.682z"/><path d="M112.434 193.613h6.417v11.2h-6.417v-11.2z"/><path d="M118.85 87.687h5.635v29.515h-5.635V87.687z"/><path d="M161.938 87.687h21.935v29.515h-21.935V87.687z"/><path d="M112.434 87.687h6.417v29.515h-6.417V87.687z"/><path d="M124.485 87.687h37.454v29.515h-37.454V87.687z"/><path d="M183.873 87.687h15.519v29.515h-15.519V87.687z"/><path d="M286.435 87.687h21.935v29.515h-21.935V87.687z"/><path d="M410.931 234.328h21.935v20.882h-21.935v-20.882z"/><path d="M410.931 218.113h21.935v16.214h-21.935v-16.214z"/><path d="M410.931 204.813h21.935v13.3h-21.935v-13.3z"/><path d="M410.931 193.613h21.935v11.2h-21.935v-11.2z"/><path d="M335.938 87.687h9.884v29.515h-9.884V87.687z"/><path d="M410.931 255.209h21.935v29.515h-21.935v-29.515z"/><path d="M410.931 335.122h21.935v7.699h-21.935v-7.699z"/><path d="M410.931 183.932h21.935v9.682h-21.935v-9.682z"/><path d="M410.931 284.725h21.935v50.397h-21.935v-50.397z"/><path d="M410.931 342.821h21.935v8.634h-21.935v-8.634z"/><path d="M354.146 87.687h7.194v29.515h-7.194V87.687z"/><path d="M367.756 87.687h5.722v29.515h-5.722V87.687z"/><path d="M361.34 87.687h6.416v29.515h-6.416V87.687z"/><path d="M345.821 87.687h8.324v29.515h-8.324V87.687z"/><path d="M410.931 167.599h21.935v7.699h-21.935v-7.699z"/><path d="M410.931 117.202h21.935v50.397h-21.935v-50.397z"/><path d="M410.931 175.298h21.935v8.633h-21.935v-8.633z"/><path d="M410.931 87.687h21.935v29.515h-21.935V87.687z"/><path d="M373.478 87.687h37.453v29.515h-37.453V87.687z"/><path d="M112.434 385.636h6.417v16.215h-6.417v-16.215z"/><path d="M248.981 510.228h37.453v8.634h-37.453v-8.634z"/><path d="M308.369 510.228h15.519v8.634h-15.519v-8.634z"/><path d="M286.435 510.228h21.935v8.634h-21.935v-8.634z"/><path d="M323.888 510.228h12.05v8.634h-12.05v-8.634z"/><path d="M211.441 510.228h9.883v8.634h-9.883v-8.634z"/><path d="M335.938 510.228h9.884v8.634h-9.884v-8.634z"/><path d="M221.325 510.228h8.324v8.634h-8.324v-8.634z"/><path d="M236.843 510.228h6.417v8.634h-6.417v-8.634z"/><path d="M243.26 510.228h5.722v8.634h-5.722v-8.634z"/><path d="M229.649 510.228h7.194v8.634h-7.194v-8.634z"/><path d="M410.931 502.646h21.935v7.582h-21.935v-7.582z"/><path d="M410.931 510.228h21.935v8.634h-21.935v-8.634z"/><path d="M410.931 452.248h21.935v50.397h-21.935v-50.397z"/><path d="M432.865 452.248h15.519v50.397h-15.519v-50.397z"/><path d="M373.478 510.228h37.453v8.634h-37.453v-8.634z"/><path d="M354.146 510.228h7.194v8.634h-7.194v-8.634z"/><path d="M361.34 510.228h6.416v8.634h-6.416v-8.634z"/><path d="M367.756 510.228h5.722v8.634h-5.722v-8.634z"/><path d="M345.821 510.228h8.324v8.634h-8.324v-8.634z"/><path d="M112.434 510.228h6.417v8.634h-6.417v-8.634z"/><path d="M112.434 351.455h6.417v9.681h-6.417v-9.681z"/><path d="M199.392 510.228h12.05v8.634h-12.05v-8.634z"/><path d="M112.434 342.821h6.417v8.634h-6.417v-8.634z"/><path d="M112.434 372.337h6.417v13.299h-6.417v-13.299z"/><path d="M112.434 284.725h6.417v50.397h-6.417v-50.397z"/><path d="M112.434 234.328h6.417v20.882h-6.417v-20.882z"/><path d="M112.434 255.209h6.417v29.515h-6.417v-29.515z"/><path d="M112.434 335.122h6.417v7.699h-6.417v-7.699z"/><path d="M410.931 351.455h21.935v9.681h-21.935v-9.681z"/><path d="M112.434 361.136h6.417v11.201h-6.417v-11.201z"/><path d="M118.85 510.228h5.635v8.634h-5.635v-8.634z"/><path d="M124.485 510.228h37.453v8.634h-37.453v-8.634z"/><path d="M161.938 510.228h21.935v8.634h-21.935v-8.634z"/><path d="M183.873 510.228h15.519v8.634h-15.519v-8.634z"/><path d="M112.434 218.113h6.417v16.214h-6.417v-16.214z"/><path d="M112.434 452.248h6.417v50.397h-6.417v-50.397z"/><path d="M112.434 422.732h6.417v29.516h-6.417v-29.516z"/><path d="M112.434 401.851h6.417v20.882h-6.417v-20.882z"/><path d="M112.434 502.646h6.417v7.582h-6.417v-7.582z"/><path d="M118.85 175.298h5.635v8.633h-5.635v-8.633z"/><path d="M248.981 117.202h37.453v50.397h-37.453v-50.397z"/><path d="M236.844 117.202h6.416v50.397h-6.416v-50.397z"/><path d="M243.26 117.202h5.722v50.397h-5.722v-50.397z"/><path d="M229.649 117.202h7.195v50.397h-7.195v-50.397z"/><path d="M221.325 117.202h8.324v50.397h-8.324v-50.397z"/><path d="M335.938 117.202h9.884v50.397h-9.884v-50.397z"/><path d="M345.821 117.202h8.324v50.397h-8.324v-50.397z"/><path d="M323.888 117.202h12.05v50.397h-12.05v-50.397z"/><path d="M211.441 117.202h9.884v50.397h-9.884v-50.397z"/><path d="M308.369 117.202h15.519v50.397h-15.519v-50.397z"/><path d="M286.435 117.202h21.935v50.397h-21.935v-50.397z"/><path d="M118.85 183.932h5.635v9.682h-5.635v-9.682z"/><path d="M432.865 422.732h15.519v29.516h-15.519v-29.516z"/><path d="M118.85 193.613h5.635v11.2h-5.635v-11.2z"/><path d="M118.85 167.599h5.635v7.699h-5.635v-7.699z"/><path d="M118.85 117.202h5.635v50.397h-5.635v-50.397z"/><path d="M199.392 117.202h12.05v50.397h-12.05v-50.397z"/><path d="M161.938 117.202h21.935v50.397h-21.935v-50.397z"/><path d="M183.873 117.202h15.519v50.397h-15.519v-50.397z"/><path d="M124.485 117.202h37.454v50.397h-37.454v-50.397z"/><path d="M367.756 117.202h5.722v50.397h-5.722v-50.397z"/><path d="M373.478 335.122h37.453v7.699h-37.453v-7.699z"/><path d="M354.146 117.202h7.194v50.397h-7.194v-50.397z"/><path d="M373.478 342.821h37.453v8.634h-37.453v-8.634z"/><path d="M373.478 255.209h37.453v29.515h-37.453v-29.515z"/><path d="M373.478 234.328h37.453v20.882h-37.453v-20.882z"/><path d="M373.478 372.337h37.453v13.299h-37.453v-13.299z"/><path d="M373.478 351.455h37.453v9.681h-37.453v-9.681z"/><path d="M373.478 385.636h37.453v16.215h-37.453v-16.215z"/><path d="M373.478 361.136h37.453v11.201h-37.453v-11.201z"/><path d="M373.478 284.725h37.453v50.397h-37.453v-50.397z"/><path d="M373.478 167.599h37.453v7.699h-37.453v-7.699z"/><path d="M373.478 117.202h37.453v50.397h-37.453v-50.397z"/><path d="M118.85 204.813h5.635v13.3h-5.635v-13.3z"/><path d="M361.34 117.202h6.416v50.397h-6.416v-50.397z"/><path d="M373.478 175.298h37.453v8.633h-37.453v-8.633z"/><path d="M373.478 193.613h37.453v11.2h-37.453v-11.2z"/><path d="M373.478 204.813h37.453v13.3h-37.453v-13.3z"/><path d="M373.478 183.932h37.453v9.682h-37.453v-9.682z"/><path d="M373.478 218.113h37.453v16.214h-37.453v-16.214z"/><path d="M373.478 422.732h37.453v29.516h-37.453v-29.516z"/><path d="M308.369 502.646h15.519v7.582h-15.519v-7.582z"/><path d="M323.888 502.646h12.05v7.582h-12.05v-7.582z"/><path d="M335.938 502.646h9.884v7.582h-9.884v-7.582z"/><path d="M345.821 502.646h8.324v7.582h-8.324v-7.582z"/><path d="M248.981 502.646h37.453v7.582h-37.453v-7.582z"/><path d="M243.26 502.646h5.722v7.582h-5.722v-7.582z"/><path d="M286.435 502.646h21.935v7.582h-21.935v-7.582z"/><path d="M236.843 502.646h6.417v7.582h-6.417v-7.582z"/><path d="M354.146 502.646h7.194v7.582h-7.194v-7.582z"/><path d="M361.34 502.646h6.416v7.582h-6.416v-7.582z"/><path d="M410.931 385.636h21.935v16.215h-21.935v-16.215z"/><path d="M229.649 502.646h7.194v7.582h-7.194v-7.582z"/><path d="M410.931 372.337h21.935v13.299h-21.935v-13.299z"/><path d="M410.931 422.732h21.935v29.516h-21.935v-29.516z"/><path d="M410.931 401.851h21.935v20.882h-21.935v-20.882z"/><path d="M373.478 502.646h37.453v7.582h-37.453v-7.582z"/><path d="M367.756 502.646h5.722v7.582h-5.722v-7.582z"/><path d="M410.931 361.136h21.935v11.201h-21.935v-11.201z"/><path d="M373.478 452.248h37.453v50.397h-37.453v-50.397z"/><path d="M118.85 452.248h5.635v50.397h-5.635v-50.397z"/><path d="M118.85 351.455h5.635v9.681h-5.635v-9.681z"/><path d="M118.85 361.136h5.635v11.201h-5.635v-11.201z"/><path d="M118.85 342.821h5.635v8.634h-5.635v-8.634z"/><path d="M118.85 372.337h5.635v13.299h-5.635v-13.299z"/><path d="M118.85 255.209h5.635v29.515h-5.635v-29.515z"/><path d="M118.85 234.328h5.635v20.882h-5.635v-20.882z"/><path d="M118.85 385.636h5.635v16.215h-5.635v-16.215z"/><path d="M118.85 284.725h5.635v50.397h-5.635v-50.397z"/><path d="M118.85 335.122h5.635v7.699h-5.635v-7.699z"/><path d="M118.85 502.646h5.635v7.582h-5.635v-7.582z"/><path d="M161.938 502.646h21.935v7.582h-21.935v-7.582z"/><path d="M183.873 502.646h15.519v7.582h-15.519v-7.582z"/><path d="M199.392 502.646h12.05v7.582h-12.05v-7.582z"/><path d="M211.441 502.646h9.883v7.582h-9.883v-7.582z"/><path d="M118.85 422.732h5.635v29.516h-5.635v-29.516z"/><path d="M118.85 401.851h5.635v20.882h-5.635v-20.882z"/><path d="M118.85 218.113h5.635v16.214h-5.635v-16.214z"/><path d="M221.325 502.646h8.324v7.582h-8.324v-7.582z"/><path d="M124.485 502.646h37.453v7.582h-37.453v-7.582z"/><path d="M105.239 204.813h7.194v13.3h-7.194v-13.3z"/><path d="M448.384 167.599h12.052v7.699h-12.052v-7.699z"/><path d="M448.384 175.298h12.052v8.633h-12.052v-8.633z"/><path d="M448.384 117.202h12.052v50.397h-12.052v-50.397z"/><path d="M448.384 87.687h12.052v29.515h-12.052V87.687z"/><path d="M448.384 66.804h12.052v20.882h-12.052V66.804z"/><path d="M448.384 183.932h12.052v9.682h-12.052v-9.682z"/><path d="M448.384 234.328h12.052v20.882h-12.052v-20.882z"/><path d="M448.384 218.113h12.052v16.214h-12.052v-16.214z"/><path d="M448.384 193.613h12.052v11.2h-12.052v-11.2z"/><path d="M448.384 204.813h12.052v13.3h-12.052v-13.3z"/><path d="M367.756 50.589h5.722v16.215h-5.722V50.589z"/><path d="M361.34 50.589h6.416v16.215h-6.416V50.589z"/><path d="M354.146 50.589h7.194v16.215h-7.194V50.589z"/><path d="M345.821 50.589h8.324v16.215h-8.324V50.589z"/><path d="M335.938 50.589h9.884v16.215h-9.884V50.589z"/><path d="M448.384 255.209h12.052v29.515h-12.052v-29.515z"/><path d="M410.931 50.589h21.935v16.215h-21.935V50.589z"/><path d="M448.384 50.589h12.052v16.215h-12.052V50.589z"/><path d="M432.865 50.589h15.519v16.215h-15.519V50.589z"/><path d="M373.478 50.589h37.453v16.215h-37.453V50.589z"/><path d="M448.384 372.337h12.052v13.299h-12.052v-13.299z"/><path d="M410.931 518.861h21.935v9.682h-21.935v-9.682z"/><path d="M432.865 518.861h15.519v9.682h-15.519v-9.682z"/><path d="M432.865 510.228h15.519v8.634h-15.519v-8.634z"/><path d="M432.865 502.646h15.519v7.582h-15.519v-7.582z"/><path d="M354.146 518.861h7.194v9.682h-7.194v-9.682z"/><path d="M448.384 284.725h12.052v50.397h-12.052v-50.397z"/><path d="M373.478 518.861h37.453v9.682h-37.453v-9.682z"/><path d="M361.34 518.861h6.416v9.682h-6.416v-9.682z"/><path d="M367.756 518.861h5.722v9.682h-5.722v-9.682z"/><path d="M448.384 502.646h12.052v7.582h-12.052v-7.582z"/><path d="M448.384 452.248h12.052v50.397h-12.052v-50.397z"/><path d="M448.384 342.821h12.052v8.634h-12.052v-8.634z"/><path d="M448.384 335.122h12.052v7.699h-12.052v-7.699z"/><path d="M448.384 361.136h12.052v11.201h-12.052v-11.201z"/><path d="M448.384 351.455h12.052v9.681h-12.052v-9.681z"/><path d="M448.384 401.851h12.052v20.882h-12.052v-20.882z"/><path d="M448.384 422.732h12.052v29.516h-12.052v-29.516z"/><path d="M323.888 50.589h12.05v16.215h-12.05V50.589z"/><path d="M448.384 385.636h12.052v16.215h-12.052v-16.215z"/><path d="M96.915 342.821h8.324v8.634h-8.324v-8.634z"/><path d="M96.915 284.725h8.324v50.397h-8.324v-50.397z"/><path d="M96.915 255.209h8.324v29.515h-8.324v-29.515z"/><path d="M96.915 351.455h8.324v9.681h-8.324v-9.681z"/><path d="M345.821 518.861h8.324v9.682h-8.324v-9.682z"/><path d="M96.915 234.328h8.324v20.882h-8.324v-20.882z"/><path d="M96.915 335.122h8.324v7.699h-8.324v-7.699z"/><path d="M96.915 218.113h8.324v16.214h-8.324v-16.214z"/><path d="M96.915 193.613h8.324v11.2h-8.324v-11.2z"/><path d="M96.915 175.298h8.324v8.633h-8.324v-8.633z"/><path d="M96.915 204.813h8.324v13.3h-8.324v-13.3z"/><path d="M96.915 183.932h8.324v9.682h-8.324v-9.682z"/><path d="M96.915 502.646h8.324v7.582h-8.324v-7.582z"/><path d="M96.915 510.228h8.324v8.634h-8.324v-8.634z"/><path d="M96.915 452.248h8.324v50.397h-8.324v-50.397z"/><path d="M96.915 518.861h8.324v9.682h-8.324v-9.682z"/><path d="M96.915 401.851h8.324v20.882h-8.324v-20.882z"/><path d="M96.915 385.636h8.324v16.215h-8.324v-16.215z"/><path d="M96.915 372.337h8.324v13.299h-8.324v-13.299z"/><path d="M96.915 361.136h8.324v11.201h-8.324v-11.201z"/><path d="M96.915 422.732h8.324v29.516h-8.324v-29.516z"/><path d="M96.915 87.687h8.324v29.515h-8.324V87.687z"/><path d="M229.649 50.589h7.195v16.215h-7.195V50.589z"/><path d="M183.873 50.589h15.519v16.215h-15.519V50.589z"/><path d="M221.325 50.589h8.324v16.215h-8.324V50.589z"/><path d="M96.915 167.599h8.324v7.699h-8.324v-7.699z"/><path d="M211.441 50.589h9.884v16.215h-9.884V50.589z"/><path d="M236.844 50.589h6.416v16.215h-6.416V50.589z"/><path d="M248.981 50.589h37.453v16.215h-37.453V50.589z"/><path d="M286.435 50.589h21.935v16.215h-21.935V50.589z"/><path d="M243.26 50.589h5.722v16.215h-5.722V50.589z"/><path d="M199.392 50.589h12.05v16.215h-12.05V50.589z"/><path d="M308.369 50.589h15.519v16.215h-15.519V50.589z"/><path d="M96.915 66.804h8.324v20.882h-8.324V66.804z"/><path d="M96.915 50.589h8.324v16.215h-8.324V50.589z"/><path d="M96.915 117.202h8.324v50.397h-8.324v-50.397z"/><path d="M105.239 50.589h7.194v16.215h-7.194V50.589z"/><path d="M124.485 50.589h37.454v16.215h-37.454V50.589z"/><path d="M161.938 50.589h21.935v16.215h-21.935V50.589z"/><path d="M118.85 50.589h5.635v16.215h-5.635V50.589z"/><path d="M112.434 50.589h6.417v16.215h-6.417V50.589z"/><path d="M248.981 518.861h37.453v9.682h-37.453v-9.682z"/><path d="M243.26 66.804h5.722v20.882h-5.722V66.804z"/><path d="M323.888 66.804h12.05v20.882h-12.05V66.804z"/><path d="M308.369 66.804h15.519v20.882h-15.519V66.804z"/><path d="M248.981 66.804h37.453v20.882h-37.453V66.804z"/><path d="M286.435 66.804h21.935v20.882h-21.935V66.804z"/><path d="M335.938 66.804h9.884v20.882h-9.884V66.804z"/><path d="M361.34 66.804h6.416v20.882h-6.416V66.804z"/><path d="M335.938 518.861h9.884v9.682h-9.884v-9.682z"/><path d="M367.756 66.804h5.722v20.882h-5.722V66.804z"/><path d="M354.146 66.804h7.194v20.882h-7.194V66.804z"/><path d="M221.325 66.804h8.324v20.882h-8.324V66.804z"/><path d="M183.873 66.804h15.519v20.882h-15.519V66.804z"/><path d="M161.938 66.804h21.935v20.882h-21.935V66.804z"/><path d="M236.844 66.804h6.416v20.882h-6.416V66.804z"/><path d="M118.85 66.804h5.635v20.882h-5.635V66.804z"/><path d="M124.485 66.804h37.454v20.882h-37.454V66.804z"/><path d="M229.649 66.804h7.195v20.882h-7.195V66.804z"/><path d="M373.478 66.804h37.453v20.882h-37.453V66.804z"/><path d="M199.392 66.804h12.05v20.882h-12.05V66.804z"/><path d="M211.441 66.804h9.884v20.882h-9.884V66.804z"/><path d="M432.865 218.113h15.519v16.214h-15.519v-16.214z"/><path d="M432.865 335.122h15.519v7.699h-15.519v-7.699z"/><path d="M432.865 234.328h15.519v20.882h-15.519v-20.882z"/><path d="M432.865 342.821h15.519v8.634h-15.519v-8.634z"/><path d="M432.865 255.209h15.519v29.515h-15.519v-29.515z"/><path d="M432.865 284.725h15.519v50.397h-15.519v-50.397z"/><path d="M432.865 372.337h15.519v13.299h-15.519v-13.299z"/><path d="M432.865 385.636h15.519v16.215h-15.519v-16.215z"/><path d="M432.865 351.455h15.519v9.681h-15.519v-9.681z"/><path d="M432.865 361.136h15.519v11.201h-15.519v-11.201z"/><path d="M432.865 204.813h15.519v13.3h-15.519v-13.3z"/><path d="M432.865 87.687h15.519v29.515h-15.519V87.687z"/><path d="M432.865 167.599h15.519v7.699h-15.519v-7.699z"/><path d="M432.865 117.202h15.519v50.397h-15.519v-50.397z"/><path d="M432.865 66.804h15.519v20.882h-15.519V66.804z"/><path d="M410.931 66.804h21.935v20.882h-21.935V66.804z"/><path d="M432.865 175.298h15.519v8.633h-15.519v-8.633z"/><path d="M432.865 193.613h15.519v11.2h-15.519v-11.2z"/><path d="M112.434 66.804h6.417v20.882h-6.417V66.804z"/><path d="M432.865 183.932h15.519v9.682h-15.519v-9.682z"/><path d="M345.821 66.804h8.324v20.882h-8.324V66.804z"/><path d="M161.938 518.861h21.935v9.682h-21.935v-9.682z"/><path d="M124.485 518.861h37.453v9.682h-37.453v-9.682z"/><path d="M183.873 518.861h15.519v9.682h-15.519v-9.682z"/><path d="M199.392 518.861h12.05v9.682h-12.05v-9.682z"/><path d="M118.85 518.861h5.635v9.682h-5.635v-9.682z"/><path d="M105.239 502.646h7.194v7.582h-7.194v-7.582z"/><path d="M112.434 518.861h6.417v9.682h-6.417v-9.682z"/><path d="M105.239 510.228h7.194v8.634h-7.194v-8.634z"/><path d="M105.239 452.248h7.194v50.397h-7.194v-50.397z"/><path d="M105.239 518.861h7.194v9.682h-7.194v-9.682z"/><path d="M432.865 401.851h15.519v20.882h-15.519v-20.882z"/><path d="M211.441 518.861h9.883v9.682h-9.883v-9.682z"/><path d="M308.369 518.861h15.519v9.682h-15.519v-9.682z"/><path d="M323.888 518.861h12.05v9.682h-12.05v-9.682z"/><path d="M105.239 66.804h7.194v20.882h-7.194V66.804z"/><path d="M221.325 518.861h8.324v9.682h-8.324v-9.682z"/><path d="M243.26 518.861h5.722v9.682h-5.722v-9.682z"/><path d="M229.649 518.861h7.194v9.682h-7.194v-9.682z"/><path d="M236.843 518.861h6.417v9.682h-6.417v-9.682z"/><path d="M286.435 518.861h21.935v9.682h-21.935v-9.682z"/><path d="M105.239 193.613h7.194v11.2h-7.194v-11.2z"/><path d="M373.478 401.851h37.453v20.882h-37.453v-20.882z"/><path d="M105.239 218.113h7.194v16.214h-7.194v-16.214z"/><path d="M105.239 234.328h7.194v20.882h-7.194v-20.882z"/><path d="M105.239 183.932h7.194v9.682h-7.194v-9.682z"/><path d="M105.239 87.687h7.194v29.515h-7.194V87.687z"/><path d="M105.239 117.202h7.194v50.397h-7.194v-50.397z"/><path d="M105.239 167.599h7.194v7.699h-7.194v-7.699z"/><path d="M105.239 175.298h7.194v8.633h-7.194v-8.633z"/><path d="M105.239 361.136h7.194v11.201h-7.194v-11.201z"/><path d="M105.239 372.337h7.194v13.299h-7.194v-13.299z"/><path d="M105.239 385.636h7.194v16.215h-7.194v-16.215z"/><path d="M105.239 401.851h7.194v20.882h-7.194v-20.882z"/><path d="M105.239 422.732h7.194v29.516h-7.194v-29.516z"/><path d="M105.239 284.725h7.194v50.397h-7.194v-50.397z"/><path d="M105.239 351.455h7.194v9.681h-7.194v-9.681z"/><path d="M105.239 335.122h7.194v7.699h-7.194v-7.699z"/><path d="M105.239 255.209h7.194v29.515h-7.194v-29.515z"/><path d="M105.239 342.821h7.194v8.634h-7.194v-8.634z"/><path d="M229.649 87.687h7.195v29.515h-7.195V87.687z"/><path d="M345.821 204.813h8.324v13.3h-8.324v-13.3z"/><path d="M345.821 234.328h8.324v20.882h-8.324v-20.882z"/><path d="M345.821 218.113h8.324v16.214h-8.324v-16.214z"/><path d="M323.888 193.613h12.05v11.2h-12.05v-11.2z"/><path d="M335.938 193.613h9.884v11.2h-9.884v-11.2z"/><path d="M345.821 193.613h8.324v11.2h-8.324v-11.2z"/><path d="M345.821 342.821h8.324v8.634h-8.324v-8.634z"/><path d="M345.821 335.122h8.324v7.699h-8.324v-7.699z"/><path d="M345.821 284.725h8.324v50.397h-8.324v-50.397z"/><path d="M345.821 255.209h8.324v29.515h-8.324v-29.515z"/><path d="M229.649 193.613h7.195v11.2h-7.195v-11.2z"/><path d="M221.325 193.613h8.324v11.2h-8.324v-11.2z"/><path d="M308.369 193.613h15.519v11.2h-15.519v-11.2z"/><path d="M211.441 193.613h9.884v11.2h-9.884v-11.2z"/><path d="M199.392 193.613h12.05v11.2h-12.05v-11.2z"/><path d="M345.821 351.455h8.324v9.681h-8.324v-9.681z"/><path d="M248.981 193.613h37.453v11.2h-37.453v-11.2z"/><path d="M236.844 193.613h6.416v11.2h-6.416v-11.2z"/><path d="M286.435 193.613h21.935v11.2h-21.935v-11.2z"/><path d="M243.26 193.613h5.722v11.2h-5.722v-11.2z"/><path d="M243.26 372.337h5.722v13.299h-5.722v-13.299z"/><path d="M221.325 372.337h8.324v13.299h-8.324v-13.299z"/><path d="M211.441 361.136h9.884v11.201h-9.884v-11.201z"/><path d="M211.441 342.821h9.884v8.634h-9.884v-8.634z"/><path d="M211.441 372.337h9.883v13.299h-9.883v-13.299z"/><path d="M211.441 351.455h9.884v9.681h-9.884v-9.681z"/><path d="M211.441 335.122h9.884v7.699h-9.884v-7.699z"/><path d="M211.441 234.328h9.884v20.882h-9.884v-20.882z"/><path d="M211.441 255.209h9.884v29.515h-9.884v-29.515z"/><path d="M211.441 284.725h9.884v50.397h-9.884v-50.397z"/><path d="M229.649 372.337h7.194v13.299h-7.194v-13.299z"/><path d="M335.938 351.455h9.884v9.681h-9.884v-9.681z"/><path d="M335.938 372.337h9.884v13.299h-9.884v-13.299z"/><path d="M323.888 372.337h12.05v13.299h-12.05v-13.299z"/><path d="M335.938 361.136h9.884v11.201h-9.884v-11.201z"/><path d="M308.369 372.337h15.519v13.299h-15.519v-13.299z"/><path d="M199.392 204.813h12.05v13.3h-12.05v-13.3z"/><path d="M286.435 372.337h21.935v13.299h-21.935v-13.299z"/><path d="M236.844 372.337h6.417v13.299h-6.417v-13.299z"/><path d="M248.981 372.337h37.453v13.299h-37.453v-13.299z"/><path d="M354.146 204.813h7.194v13.3h-7.194v-13.3z"/><path d="M354.146 234.328h7.194v20.882h-7.194v-20.882z"/><path d="M354.146 342.821h7.194v8.634h-7.194v-8.634z"/><path d="M354.146 284.725h7.194v50.397h-7.194v-50.397z"/><path d="M354.146 255.209h7.194v29.515h-7.194v-29.515z"/><path d="M354.146 335.122h7.194v7.699h-7.194v-7.699z"/><path d="M354.146 351.455h7.194v9.681h-7.194v-9.681z"/><path d="M345.821 361.136h8.324v11.201h-8.324v-11.201z"/><path d="M345.821 372.337h8.324v13.299h-8.324v-13.299z"/><path d="M354.146 361.136h7.194v11.201h-7.194v-11.201z"/><path d="M345.821 385.636h8.324v16.215h-8.324v-16.215z"/><path d="M199.392 218.113h12.05v16.214h-12.05v-16.214z"/><path d="M308.369 183.932h15.519v9.682h-15.519v-9.682z"/><path d="M335.938 183.932h9.884v9.682h-9.884v-9.682z"/><path d="M286.435 183.932h21.935v9.682h-21.935v-9.682z"/><path d="M354.146 193.613h7.194v11.2h-7.194v-11.2z"/><path d="M211.441 218.113h9.884v16.214h-9.884v-16.214z"/><path d="M354.146 218.113h7.194v16.214h-7.194v-16.214z"/><path d="M354.146 183.932h7.194v9.682h-7.194v-9.682z"/><path d="M345.821 183.932h8.324v9.682h-8.324v-9.682z"/><path d="M323.888 183.932h12.05v9.682h-12.05v-9.682z"/><path d="M199.392 351.455h12.05v9.681h-12.05v-9.681z"/><path d="M199.392 361.136h12.05v11.201h-12.05v-11.201z"/><path d="M199.392 385.636h12.05v16.215h-12.05v-16.215z"/><path d="M199.392 342.821h12.05v8.634h-12.05v-8.634z"/><path d="M199.392 372.337h12.05v13.299h-12.05v-13.299z"/><path d="M199.392 234.328h12.05v20.882h-12.05v-20.882z"/><path d="M199.392 255.209h12.05v29.515h-12.05v-29.515z"/><path d="M199.392 284.725h12.05v50.397h-12.05v-50.397z"/><path d="M199.392 335.122h12.05v7.699h-12.05v-7.699z"/><path d="M335.938 385.636h9.884v16.215h-9.884v-16.215z"/><path d="M308.369 385.636h15.519v16.215h-15.519v-16.215z"/><path d="M248.981 385.636h37.453v16.215h-37.453v-16.215z"/><path d="M286.435 385.636h21.935v16.215h-21.935v-16.215z"/><path d="M323.888 385.636h12.05v16.215h-12.05v-16.215z"/><path d="M221.325 385.636h8.324v16.215h-8.324v-16.215z"/><path d="M229.649 385.636h7.194v16.215h-7.194v-16.215z"/><path d="M243.26 385.636h5.722v16.215h-5.722v-16.215z"/><path d="M211.441 385.636h9.883v16.215h-9.883v-16.215z"/><path d="M236.843 385.636h6.417v16.215h-6.417v-16.215z"/><path d="M236.844 335.122h6.416v7.699h-6.416v-7.699z"/><path d="M229.649 335.122h7.195v7.699h-7.195v-7.699z"/><path d="M229.649 255.209h7.195v29.515h-7.195v-29.515z"/><path d="M236.844 351.455h6.416v9.681h-6.416v-9.681z"/><path d="M229.649 342.821h7.195v8.634h-7.195v-8.634z"/><path d="M229.649 351.455h7.195v9.681h-7.195v-9.681z"/><path d="M229.649 284.725h7.195v50.397h-7.195v-50.397z"/><path d="M243.26 234.328h5.722v20.882h-5.722v-20.882z"/><path d="M229.649 234.328h7.195v20.882h-7.195v-20.882z"/><path d="M248.981 234.328h37.453v20.882h-37.453v-20.882z"/><path d="M236.844 234.328h6.416v20.882h-6.416v-20.882z"/><path d="M286.435 234.328h21.935v20.882h-21.935v-20.882z"/><path d="M323.888 335.122h12.05v7.699h-12.05v-7.699z"/><path d="M308.369 335.122h15.519v7.699h-15.519v-7.699z"/><path d="M323.888 284.725h12.05v50.397h-12.05v-50.397z"/><path d="M323.888 255.209h12.05v29.515h-12.05v-29.515z"/><path d="M248.981 351.455h37.453v9.681h-37.453v-9.681z"/><path d="M243.26 351.455h5.722v9.681h-5.722v-9.681z"/><path d="M286.435 351.455h21.935v9.681h-21.935v-9.681z"/><path d="M308.369 342.821h15.519v8.634h-15.519v-8.634z"/><path d="M308.369 351.455h15.519v9.681h-15.519v-9.681z"/><path d="M248.981 335.122h37.453v7.699h-37.453v-7.699z"/><path d="M248.981 255.209h37.453v29.515h-37.453v-29.515z"/><path d="M308.369 234.328h15.519v20.882h-15.519v-20.882z"/><path d="M236.844 255.209h6.416v29.515h-6.416v-29.515z"/><path d="M248.981 284.725h37.453v50.397h-37.453v-50.397z"/><path d="M243.26 335.122h5.722v7.699h-5.722v-7.699z"/><path d="M323.888 234.328h12.05v20.882h-12.05v-20.882z"/><path d="M243.26 284.725h5.722v50.397h-5.722v-50.397z"/><path d="M286.435 255.209h21.935v29.515h-21.935v-29.515z"/><path d="M236.844 284.725h6.416v50.397h-6.416v-50.397z"/><path d="M243.26 255.209h5.722v29.515h-5.722v-29.515z"/><path d="M308.369 284.725h15.519v50.397h-15.519v-50.397z"/><path d="M286.435 335.122h21.935v7.699h-21.935v-7.699z"/><path d="M286.435 284.725h21.935v50.397h-21.935v-50.397z"/><path d="M308.369 255.209h15.519v29.515h-15.519v-29.515z"/><path d="M248.981 342.821h37.453v8.634h-37.453v-8.634z"/><path d="M243.26 342.821h5.722v8.634h-5.722v-8.634z"/><path d="M286.435 342.821h21.935v8.634h-21.935v-8.634z"/><path d="M236.844 342.821h6.416v8.634h-6.416v-8.634z"/><path d="M248.981 183.932h37.453v9.682h-37.453v-9.682z"/><path d="M221.325 335.122h8.324v7.699h-8.324v-7.699z"/><path d="M335.938 255.209h9.884v29.515h-9.884v-29.515z"/><path d="M335.938 284.725h9.884v50.397h-9.884v-50.397z"/><path d="M335.938 234.328h9.884v20.882h-9.884v-20.882z"/><path d="M335.938 335.122h9.884v7.699h-9.884v-7.699z"/><path d="M335.938 342.821h9.884v8.634h-9.884v-8.634z"/><path d="M323.888 351.455h12.05v9.681h-12.05v-9.681z"/><path d="M335.938 218.113h9.884v16.214h-9.884v-16.214z"/><path d="M323.888 361.136h12.05v11.201h-12.05v-11.201z"/><path d="M323.888 342.821h12.05v8.634h-12.05v-8.634z"/><path d="M243.26 204.813h5.722v13.3h-5.722v-13.3z"/><path d="M236.844 204.813h6.416v13.3h-6.416v-13.3z"/><path d="M335.938 204.813h9.884v13.3h-9.884v-13.3z"/><path d="M229.649 204.813h7.195v13.3h-7.195v-13.3z"/><path d="M221.325 204.813h8.324v13.3h-8.324v-13.3z"/><path d="M308.369 361.136h15.519v11.201h-15.519v-11.201z"/><path d="M323.888 218.113h12.05v16.214h-12.05v-16.214z"/><path d="M323.888 204.813h12.05v13.3h-12.05v-13.3z"/><path d="M308.369 204.813h15.519v13.3h-15.519v-13.3z"/><path d="M286.435 204.813h21.935v13.3h-21.935v-13.3z"/><path d="M248.981 204.813h37.453v13.3h-37.453v-13.3z"/><path d="M221.325 218.113h8.324v16.214h-8.324v-16.214z"/><path d="M229.649 218.113h7.195v16.214h-7.195v-16.214z"/><path d="M221.325 234.328h8.324v20.882h-8.324v-20.882z"/><path d="M236.844 218.113h6.416v16.214h-6.416v-16.214z"/><path d="M286.435 218.113h21.935v16.214h-21.935v-16.214z"/><path d="M221.325 255.209h8.324v29.515h-8.324v-29.515z"/><path d="M308.369 218.113h15.519v16.214h-15.519v-16.214z"/><path d="M243.26 218.113h5.722v16.214h-5.722v-16.214z"/><path d="M248.981 218.113h37.453v16.214h-37.453v-16.214z"/><path d="M221.325 342.821h8.324v8.634h-8.324v-8.634z"/><path d="M243.26 361.136h5.722v11.201h-5.722v-11.201z"/><path d="M229.649 361.136h7.195v11.201h-7.195v-11.201z"/><path d="M236.844 361.136h6.416v11.201h-6.416v-11.201z"/><path d="M221.325 284.725h8.324v50.397h-8.324v-50.397z"/><path d="M248.981 361.136h37.453v11.201h-37.453v-11.201z"/><path d="M286.435 361.136h21.935v11.201h-21.935v-11.201z"/><path d="M211.441 204.813h9.884v13.3h-9.884v-13.3z"/><path d="M221.325 351.455h8.324v9.681h-8.324v-9.681z"/><path d="M221.325 361.136h8.324v11.201h-8.324v-11.201z"/><path d="M199.392 401.851h12.05v20.882h-12.05v-20.882z"/><path d="M367.756 183.932h5.722v9.682h-5.722v-9.682z"/><path d="M243.26 183.932h5.722v9.682h-5.722v-9.682z"/><path d="M367.756 193.613h5.722v11.2h-5.722v-11.2z"/><path d="M361.34 167.599h6.416v7.699h-6.416v-7.699z"/><path d="M367.756 167.599h5.722v7.699h-5.722v-7.699z"/><path d="M367.756 284.725h5.722v50.397h-5.722v-50.397z"/><path d="M367.756 234.328h5.722v20.882h-5.722v-20.882z"/><path d="M367.756 255.209h5.722v29.515h-5.722v-29.515z"/><path d="M367.756 204.813h5.722v13.3h-5.722v-13.3z"/><path d="M367.756 218.113h5.722v16.214h-5.722v-16.214z"/><path d="M367.756 175.298h5.722v8.633h-5.722v-8.633z"/><path d="M236.844 167.599h6.416v7.699h-6.416v-7.699z"/><path d="M248.981 167.599h37.453v7.699h-37.453v-7.699z"/><path d="M243.26 167.599h5.722v7.699h-5.722v-7.699z"/><path d="M229.649 167.599h7.195v7.699h-7.195v-7.699z"/><path d="M335.938 167.599h9.884v7.699h-9.884v-7.699z"/><path d="M323.888 167.599h12.05v7.699h-12.05v-7.699z"/><path d="M286.435 167.599h21.935v7.699h-21.935v-7.699z"/><path d="M345.821 167.599h8.324v7.699h-8.324v-7.699z"/><path d="M308.369 167.599h15.519v7.699h-15.519v-7.699z"/><path d="M345.821 422.732h8.324v29.516h-8.324v-29.516z"/><path d="M221.325 167.599h8.324v7.699h-8.324v-7.699z"/><path d="M308.369 422.732h15.519v29.516h-15.519v-29.516z"/><path d="M286.435 422.732h21.935v29.516h-21.935v-29.516z"/><path d="M335.938 422.732h9.884v29.516h-9.884v-29.516z"/><path d="M323.888 422.732h12.05v29.516h-12.05v-29.516z"/><path d="M236.843 422.732h6.417v29.516h-6.417v-29.516z"/><path d="M229.649 422.732h7.194v29.516h-7.194v-29.516z"/><path d="M248.981 422.732h37.453v29.516h-37.453v-29.516z"/><path d="M243.26 422.732h5.722v29.516h-5.722v-29.516z"/><path d="M367.756 342.821h5.722v8.634h-5.722v-8.634z"/><path d="M367.756 361.136h5.722v11.201h-5.722v-11.201z"/><path d="M367.756 351.455h5.722v9.681h-5.722v-9.681z"/><path d="M367.756 335.122h5.722v7.699h-5.722v-7.699z"/><path d="M367.756 372.337h5.722v13.299h-5.722v-13.299z"/><path d="M361.34 401.851h6.416v20.882h-6.416v-20.882z"/><path d="M367.756 385.636h5.722v16.215h-5.722v-16.215z"/><path d="M361.34 422.732h6.416v29.516h-6.416v-29.516z"/><path d="M354.146 422.732h7.194v29.516h-7.194v-29.516z"/><path d="M361.34 385.636h6.416v16.215h-6.416v-16.215z"/><path d="M236.843 452.248h6.417v50.397h-6.417v-50.397z"/><path d="M243.26 452.248h5.722v50.397h-5.722v-50.397z"/><path d="M211.441 452.248h9.883v50.397h-9.883v-50.397z"/><path d="M229.649 452.248h7.194v50.397h-7.194v-50.397z"/><path d="M221.325 422.732h8.324v29.516h-8.324v-29.516z"/><path d="M221.325 452.248h8.324v50.397h-8.324v-50.397z"/><path d="M124.485 452.248h37.453v50.397h-37.453v-50.397z"/><path d="M161.938 452.248h21.935v50.397h-21.935v-50.397z"/><path d="M199.392 452.248h12.05v50.397h-12.05v-50.397z"/><path d="M183.873 452.248h15.519v50.397h-15.519v-50.397z"/><path d="M367.756 452.248h5.722v50.397h-5.722v-50.397z"/><path d="M354.146 452.248h7.194v50.397h-7.194v-50.397z"/><path d="M124.485 422.732h37.453v29.516h-37.453v-29.516z"/><path d="M361.34 452.248h6.416v50.397h-6.416v-50.397z"/><path d="M367.756 422.732h5.722v29.516h-5.722v-29.516z"/><path d="M323.888 452.248h12.05v50.397h-12.05v-50.397z"/><path d="M345.821 452.248h8.324v50.397h-8.324v-50.397z"/><path d="M308.369 452.248h15.519v50.397h-15.519v-50.397z"/><path d="M286.435 452.248h21.935v50.397h-21.935v-50.397z"/><path d="M335.938 452.248h9.884v50.397h-9.884v-50.397z"/><path d="M124.485 351.455h37.454v9.681h-37.454v-9.681z"/><path d="M124.485 183.932h37.454v9.682h-37.454v-9.682z"/><path d="M124.485 175.298h37.454v8.633h-37.454v-8.633z"/><path d="M124.485 193.613h37.454v11.2h-37.454v-11.2z"/><path d="M124.485 204.813h37.454v13.3h-37.454v-13.3z"/><path d="M183.873 167.599h15.519v7.699h-15.519v-7.699z"/><path d="M124.485 167.599h37.454v7.699h-37.454v-7.699z"/><path d="M124.485 401.851h37.453v20.882h-37.453v-20.882z"/><path d="M199.392 167.599h12.05v7.699h-12.05v-7.699z"/><path d="M161.938 167.599h21.935v7.699h-21.935v-7.699z"/><path d="M124.485 218.113h37.454v16.214h-37.454v-16.214z"/><path d="M211.441 167.599h9.884v7.699h-9.884v-7.699z"/><path d="M124.485 372.337h37.454v13.299h-37.454v-13.299z"/><path d="M124.485 234.328h37.454v20.882h-37.454v-20.882z"/><path d="M124.485 385.636h37.453v16.215h-37.453v-16.215z"/><path d="M124.485 361.136h37.454v11.201h-37.454v-11.201z"/><path d="M124.485 255.209h37.454v29.515h-37.454v-29.515z"/><path d="M124.485 342.821h37.454v8.634h-37.454v-8.634z"/><path d="M124.485 284.725h37.454v50.397h-37.454v-50.397z"/><path d="M124.485 335.122h37.454v7.699h-37.454v-7.699z"/><path d="M354.146 167.599h7.194v7.699h-7.194v-7.699z"/><path d="M248.981 401.851h37.453v20.882h-37.453v-20.882z"/><path d="M286.435 401.851h21.935v20.882h-21.935v-20.882z"/><path d="M243.26 401.851h5.722v20.882h-5.722v-20.882z"/><path d="M367.756 401.851h5.722v20.882h-5.722v-20.882z"/><path d="M361.34 284.725h6.416v50.397h-6.416v-50.397z"/><path d="M308.369 401.851h15.519v20.882h-15.519v-20.882z"/><path d="M211.441 401.851h9.883v20.882h-9.883v-20.882z"/><path d="M221.325 401.851h8.324v20.882h-8.324v-20.882z"/><path d="M236.843 401.851h6.417v20.882h-6.417v-20.882z"/><path d="M229.649 401.851h7.194v20.882h-7.194v-20.882z"/><path d="M323.888 401.851h12.05v20.882h-12.05v-20.882z"/><path d="M211.441 422.732h9.883v29.516h-9.883v-29.516z"/><path d="M361.34 361.136h6.416v11.201h-6.416v-11.201z"/><path d="M361.34 351.455h6.416v9.681h-6.416v-9.681z"/><path d="M361.34 335.122h6.416v7.699h-6.416v-7.699z"/><path d="M361.34 372.337h6.416v13.299h-6.416v-13.299z"/><path d="M354.146 385.636h7.194v16.215h-7.194v-16.215z"/><path d="M354.146 401.851h7.194v20.882h-7.194v-20.882z"/><path d="M345.821 401.851h8.324v20.882h-8.324v-20.882z"/><path d="M354.146 372.337h7.194v13.299h-7.194v-13.299z"/><path d="M335.938 401.851h9.884v20.882h-9.884v-20.882z"/><path d="M183.873 183.932h15.519v9.682h-15.519v-9.682z"/><path d="M183.873 193.613h15.519v11.2h-15.519v-11.2z"/><path d="M183.873 218.113h15.519v16.214h-15.519v-16.214z"/><path d="M199.392 183.932h12.05v9.682h-12.05v-9.682z"/><path d="M183.873 204.813h15.519v13.3h-15.519v-13.3z"/><path d="M229.649 183.932h7.195v9.682h-7.195v-9.682z"/><path d="M211.441 183.932h9.884v9.682h-9.884v-9.682z"/><path d="M183.873 401.851h15.519v20.882h-15.519v-20.882z"/><path d="M221.325 183.932h8.324v9.682h-8.324v-9.682z"/><path d="M236.844 183.932h6.416v9.682h-6.416v-9.682z"/><path d="M183.873 361.136h15.519v11.201h-15.519v-11.201z"/><path d="M183.873 351.455h15.519v9.681h-15.519v-9.681z"/><path d="M183.873 372.337h15.519v13.299h-15.519v-13.299z"/><path d="M183.873 385.636h15.519v16.215h-15.519v-16.215z"/><path d="M183.873 342.821h15.519v8.634h-15.519v-8.634z"/><path d="M183.873 234.328h15.519v20.882h-15.519v-20.882z"/><path d="M183.873 284.725h15.519v50.397h-15.519v-50.397z"/><path d="M183.873 255.209h15.519v29.515h-15.519v-29.515z"/><path d="M183.873 335.122h15.519v7.699h-15.519v-7.699z"/><path d="M361.34 342.821h6.416v8.634h-6.416v-8.634z"/><path d="M161.938 218.113h21.935v16.214h-21.935v-16.214z"/><path d="M161.938 255.209h21.935v29.515h-21.935v-29.515z"/><path d="M161.938 234.328h21.935v20.882h-21.935v-20.882z"/><path d="M161.938 284.725h21.935v50.397h-21.935v-50.397z"/><path d="M161.938 193.613h21.935v11.2h-21.935v-11.2z"/><path d="M161.938 183.932h21.935v9.682h-21.935v-9.682z"/><path d="M161.938 175.298h21.935v8.633h-21.935v-8.633z"/><path d="M161.938 204.813h21.935v13.3h-21.935v-13.3z"/><path d="M161.938 335.122h21.935v7.699h-21.935v-7.699z"/><path d="M183.873 422.732h15.519v29.516h-15.519v-29.516z"/><path d="M183.873 175.298h15.519v8.633h-15.519v-8.633z"/><path d="M161.938 401.851h21.935v20.882h-21.935v-20.882z"/><path d="M161.938 422.732h21.935v29.516h-21.935v-29.516z"/><path d="M199.392 422.732h12.05v29.516h-12.05v-29.516z"/><path d="M161.938 342.821h21.935v8.634h-21.935v-8.634z"/><path d="M161.938 351.455h21.935v9.681h-21.935v-9.681z"/><path d="M161.938 385.636h21.935v16.215h-21.935v-16.215z"/><path d="M161.938 361.136h21.935v11.201h-21.935v-11.201z"/><path d="M161.938 372.337h21.935v13.299h-21.935v-13.299z"/><path d="M361.34 218.113h6.416v16.214h-6.416v-16.214z"/><path d="M361.34 175.298h6.416v8.633h-6.416v-8.633z"/><path d="M361.34 183.932h6.416v9.682h-6.416v-9.682z"/><path d="M335.938 175.298h9.884v8.633h-9.884v-8.633z"/><path d="M345.821 175.298h8.324v8.633h-8.324v-8.633z"/><path d="M354.146 175.298h7.194v8.633h-7.194v-8.633z"/><path d="M361.34 255.209h6.416v29.515h-6.416v-29.515z"/><path d="M199.392 175.298h12.05v8.633h-12.05v-8.633z"/><path d="M361.34 193.613h6.416v11.2h-6.416v-11.2z"/><path d="M361.34 204.813h6.416v13.3h-6.416v-13.3z"/><path d="M361.34 234.328h6.416v20.882h-6.416v-20.882z"/><path d="M323.888 175.298h12.05v8.633h-12.05v-8.633z"/><path d="M229.649 175.298h7.195v8.633h-7.195v-8.633z"/><path d="M221.325 175.298h8.324v8.633h-8.324v-8.633z"/><path d="M211.441 175.298h9.884v8.633h-9.884v-8.633z"/><path d="M236.844 175.298h6.416v8.633h-6.416v-8.633z"/><path d="M243.26 175.298h5.722v8.633h-5.722v-8.633z"/><path d="M286.435 175.298h21.935v8.633h-21.935v-8.633z"/><path d="M308.369 175.298h15.519v8.633h-15.519v-8.633z"/><path d="M248.981 175.298h37.453v8.633h-37.453v-8.633z"/><path d="M248.981 452.248h37.453v50.397h-37.453v-50.397z"/><path d="M118.85 7.775h5.635v8.632h-5.635V7.775z"/><path d="M124.485 7.775h37.454v8.632h-37.454V7.775z"/><path d="M112.434 7.775h6.417v8.632h-6.417V7.775z"/><path d="M87.032 7.775h9.883v8.632h-9.883V7.775z"/><path d="M96.915 7.775h8.324v8.632h-8.324V7.775z"/><path d="M105.239 7.775h7.194v8.632h-7.194V7.775z"/><path d="M161.938 7.775h21.935v8.632h-21.935V7.775z"/><path d="M199.392 7.775h12.05v8.632h-12.05V7.775z"/><path d="M211.441 7.775h9.884v8.632h-9.884V7.775z"/><path d="M183.873 7.775h15.519v8.632h-15.519V7.775z"/><path d="M37.528 66.804h21.935v20.882H37.528V66.804z"/><path d="M37.528 50.589h21.935v16.215H37.528V50.589z"/><path d="M37.528 37.29h21.935v13.299H37.528V37.29z"/><path d="M221.325 7.775h8.324v8.632h-8.324V7.775z"/><path d="M37.528 87.687h21.935v29.515H37.528V87.687z"/><path d="M37.528 26.091h21.935V37.29H37.528V26.091z"/><path d="M37.528 7.775h21.935v8.632H37.528V7.775z"/><path d="M59.463 7.775h15.519v8.632H59.463V7.775z"/><path d="M37.528 16.408h21.935v9.683H37.528v-9.683z"/><path d="M74.982 7.775h12.05v8.632h-12.05V7.775z"/><path d="M460.436 7.775h9.884v8.632h-9.884V7.775z"/><path d="M485.838 7.775h6.414v8.632h-6.414V7.775z"/><path d="M361.34 7.775h6.416v8.632h-6.416V7.775z"/><path d="M373.478 7.775h37.453v8.632h-37.453V7.775z"/><path d="M367.756 7.775h5.722v8.632h-5.722V7.775z"/><path d="M410.931 7.775h21.935v8.632h-21.935V7.775z"/><path d="M470.319 7.775h8.321v8.632h-8.321V7.775z"/><path d="M478.641 7.775h7.197v8.632h-7.197V7.775z"/><path d="M448.384 7.775h12.052v8.632h-12.052V7.775z"/><path d="M229.649 7.775h7.195v8.632h-7.195V7.775z"/><path d="M37.528 117.202h21.935v50.397H37.528v-50.397z"/><path d="M354.146 7.775h7.194v8.632h-7.194V7.775z"/><path d="M243.26 7.775h5.722v8.632h-5.722V7.775z"/><path d="M286.435 7.775h21.935v8.632h-21.935V7.775z"/><path d="M236.844 7.775h6.416v8.632h-6.416V7.775z"/><path d="M248.981 7.775h37.453v8.632h-37.453V7.775z"/><path d="M335.938 7.775h9.884v8.632h-9.884V7.775z"/><path d="M308.369 7.775h15.519v8.632h-15.519V7.775z"/><path d="M345.821 7.775h8.324v8.632h-8.324V7.775z"/><path d="M323.888 7.775h12.05v8.632h-12.05V7.775z"/><path d="M432.865 7.775h15.519v8.632h-15.519V7.775z"/><path d="M59.463 590.139h15.519v29.516H59.463v-29.516z"/><path d="M37.528 590.139h21.935v29.516H37.528v-29.516z"/><path d="M105.239 590.139h7.194v29.516h-7.194v-29.516z"/><path d="M96.915 590.139h8.324v29.516h-8.324v-29.516z"/><path d="M87.032 590.139h9.883v29.516h-9.883v-29.516z"/><path d="M74.982 590.139h12.05v29.516h-12.05v-29.516z"/><path d="M37.528 569.257h21.935v20.882H37.528v-20.882z"/><path d="M37.528 539.743h21.935v13.3H37.528v-13.3z"/><path d="M37.528 528.543h21.935v11.2H37.528v-11.2z"/><path d="M37.528 553.043h21.935v16.214H37.528v-16.214z"/><path d="M37.528 518.861h21.935v9.682H37.528v-9.682z"/><path d="M211.441 590.139h9.883v29.516h-9.883v-29.516z"/><path d="M221.325 590.139h8.324v29.516h-8.324v-29.516z"/><path d="M199.392 590.139h12.05v29.516h-12.05v-29.516z"/><path d="M229.649 590.139h7.194v29.516h-7.194v-29.516z"/><path d="M124.485 590.139h37.453v29.516h-37.453v-29.516z"/><path d="M118.85 590.139h5.635v29.516h-5.635v-29.516z"/><path d="M183.873 590.139h15.519v29.516h-15.519v-29.516z"/><path d="M112.434 590.139h6.417v29.516h-6.417v-29.516z"/><path d="M161.938 590.139h21.935v29.516h-21.935v-29.516z"/><path d="M37.528 351.455h21.935v9.681H37.528v-9.681z"/><path d="M37.528 234.328h21.935v20.882H37.528v-20.882z"/><path d="M37.528 335.122h21.935v7.699H37.528v-7.699z"/><path d="M37.528 284.725h21.935v50.397H37.528v-50.397z"/><path d="M37.528 218.113h21.935v16.214H37.528v-16.214z"/><path d="M37.528 255.209h21.935v29.515H37.528v-29.515z"/><path d="M37.528 204.813h21.935v13.3H37.528v-13.3z"/><path d="M37.528 183.932h21.935v9.682H37.528v-9.682z"/><path d="M37.528 175.298h21.935v8.633H37.528v-8.633z"/><path d="M37.528 193.613h21.935v11.2H37.528v-11.2z"/><path d="M37.528 361.136h21.935v11.201H37.528v-11.201z"/><path d="M37.528 401.851h21.935v20.882H37.528v-20.882z"/><path d="M37.528 452.248h21.935v50.397H37.528v-50.397z"/><path d="M37.528 342.821h21.935v8.634H37.528v-8.634z"/><path d="M37.528 502.646h21.935v7.582H37.528v-7.582z"/><path d="M37.528 422.732h21.935v29.516H37.528v-29.516z"/><path d="M37.528 167.599h21.935v7.699H37.528v-7.699z"/><path d="M37.528 510.228h21.935v8.634H37.528v-8.634z"/><path d="M37.528 372.337h21.935v13.299H37.528v-13.299z"/><path d="M37.528 385.636h21.935v16.215H37.528v-16.215z"/><path d="M485.838 361.136h6.414v11.201h-6.414v-11.201z"/><path d="M199.392 569.257h12.05v20.882h-12.05v-20.882z"/><path d="M183.873 569.257h15.519v20.882h-15.519v-20.882z"/><path d="M211.441 569.257h9.883v20.882h-9.883v-20.882z"/><path d="M161.938 569.257h21.935v20.882h-21.935v-20.882z"/><path d="M229.649 569.257h7.194v20.882h-7.194v-20.882z"/><path d="M221.325 569.257h8.324v20.882h-8.324v-20.882z"/><path d="M105.239 569.257h7.194v20.882h-7.194v-20.882z"/><path d="M485.838 16.408h6.414v9.683h-6.414v-9.683z"/><path d="M124.485 569.257h37.453v20.882h-37.453v-20.882z"/><path d="M118.85 569.257h5.635v20.882h-5.635v-20.882z"/><path d="M286.435 569.257h21.935v20.882h-21.935v-20.882z"/><path d="M335.938 569.257h9.884v20.882h-9.884v-20.882z"/><path d="M323.888 569.257h12.05v20.882h-12.05v-20.882z"/><path d="M345.821 569.257h8.324v20.882h-8.324v-20.882z"/><path d="M354.146 569.257h7.194v20.882h-7.194v-20.882z"/><path d="M96.915 569.257h8.324v20.882h-8.324v-20.882z"/><path d="M248.981 569.257h37.453v20.882h-37.453v-20.882z"/><path d="M243.26 569.257h5.722v20.882h-5.722v-20.882z"/><path d="M308.369 569.257h15.519v20.882h-15.519v-20.882z"/><path d="M236.843 569.257h6.417v20.882h-6.417v-20.882z"/><path d="M59.463 372.337h15.519v13.299H59.463v-13.299z"/><path d="M59.463 361.136h15.519v11.201H59.463v-11.201z"/><path d="M361.34 569.257h6.416v20.882h-6.416v-20.882z"/><path d="M59.463 385.636h15.519v16.215H59.463v-16.215z"/><path d="M59.463 401.851h15.519v20.882H59.463v-20.882z"/><path d="M59.463 342.821h15.519v8.634H59.463v-8.634z"/><path d="M59.463 284.725h15.519v50.397H59.463v-50.397z"/><path d="M59.463 335.122h15.519v7.699H59.463v-7.699z"/><path d="M59.463 422.732h15.519v29.516H59.463v-29.516z"/><path d="M59.463 351.455h15.519v9.681H59.463v-9.681z"/><path d="M59.463 502.646h15.519v7.582H59.463v-7.582z"/><path d="M59.463 569.257h15.519v20.882H59.463v-20.882z"/><path d="M59.463 553.043h15.519v16.214H59.463v-16.214z"/><path d="M59.463 539.743h15.519v13.3H59.463v-13.3z"/><path d="M74.982 569.257h12.05v20.882h-12.05v-20.882z"/><path d="M59.463 528.543h15.519v11.2H59.463v-11.2z"/><path d="M59.463 452.248h15.519v50.397H59.463v-50.397z"/><path d="M59.463 510.228h15.519v8.634H59.463v-8.634z"/><path d="M87.032 569.257h9.883v20.882h-9.883v-20.882z"/><path d="M59.463 518.861h15.519v9.682H59.463v-9.682z"/><path d="M112.434 569.257h6.417v20.882h-6.417v-20.882z"/><path d="M485.838 234.328h6.414v20.882h-6.414v-20.882z"/><path d="M485.838 218.113h6.414v16.214h-6.414v-16.214z"/><path d="M485.838 204.813h6.414v13.3h-6.414v-13.3z"/><path d="M485.838 255.209h6.414v29.515h-6.414v-29.515z"/><path d="M485.838 335.122h6.414v7.699h-6.414v-7.699z"/><path d="M485.838 284.725h6.414v50.397h-6.414v-50.397z"/><path d="M485.838 342.821h6.414v8.634h-6.414v-8.634z"/><path d="M485.838 351.455h6.414v9.681h-6.414v-9.681z"/><path d="M485.838 193.613h6.414v11.2h-6.414v-11.2z"/><path d="M485.838 175.298h6.414v8.633h-6.414v-8.633z"/><path d="M485.838 66.804h6.414v20.882h-6.414V66.804z"/><path d="M485.838 37.29h6.414v13.299h-6.414V37.29z"/><path d="M367.756 569.257h5.722v20.882h-5.722v-20.882z"/><path d="M485.838 26.091h6.414V37.29h-6.414V26.091z"/><path d="M485.838 167.599h6.414v7.699h-6.414v-7.699z"/><path d="M236.843 590.139h6.417v29.516h-6.417v-29.516z"/><path d="M485.838 183.932h6.414v9.682h-6.414v-9.682z"/><path d="M485.838 117.202h6.414v50.397h-6.414v-50.397z"/><path d="M485.838 87.687h6.414v29.515h-6.414V87.687z"/><path d="M485.838 50.589h6.414v16.215h-6.414V50.589z"/><path d="M478.641 569.257h7.197v20.882h-7.197v-20.882z"/><path d="M470.319 569.257h8.321v20.882h-8.321v-20.882z"/><path d="M478.641 553.043h7.197v16.214h-7.197v-16.214z"/><path d="M478.641 539.743h7.197v13.3h-7.197v-13.3z"/><path d="M460.436 569.257h9.884v20.882h-9.884v-20.882z"/><path d="M410.931 569.257h21.935v20.882h-21.935v-20.882z"/><path d="M485.838 372.337h6.414v13.299h-6.414v-13.299z"/><path d="M448.384 569.257h12.052v20.882h-12.052v-20.882z"/><path d="M432.865 569.257h15.519v20.882h-15.519v-20.882z"/><path d="M373.478 569.257h37.453v20.882h-37.453v-20.882z"/><path d="M485.838 401.851h6.414v20.882h-6.414v-20.882z"/><path d="M485.838 422.732h6.414v29.516h-6.414v-29.516z"/><path d="M485.838 452.248h6.414v50.397h-6.414v-50.397z"/><path d="M485.838 385.636h6.414v16.215h-6.414v-16.215z"/><path d="M485.838 518.861h6.414v9.682h-6.414v-9.682z"/><path d="M485.838 539.743h6.414v13.3h-6.414v-13.3z"/><path d="M485.838 528.543h6.414v11.2h-6.414v-11.2z"/><path d="M485.838 510.228h6.414v8.634h-6.414v-8.634z"/><path d="M485.838 502.646h6.414v7.582h-6.414v-7.582z"/><path d="M211.441.075h9.884v7.7h-9.884v-7.7z"/><path d="M.075 361.136h37.453v11.201H.075v-11.201z"/><path d="M105.239.075h7.194v7.7h-7.194v-7.7z"/><path d="M.075 342.821h37.453v8.634H.075v-8.634z"/><path d="M.075 385.636h37.453v16.215H.075v-16.215z"/><path d="M.075 372.337h37.453v13.299H.075v-13.299z"/><path d="M.075 335.122h37.453v7.699H.075v-7.699z"/><path d="M.075 401.851h37.453v20.882H.075v-20.882z"/><path d="M.075 255.209h37.453v29.515H.075v-29.515z"/><path d="M.075 234.328h37.453v20.882H.075v-20.882z"/><path d="M.075 284.725h37.453v50.397H.075v-50.397z"/><path d="M.075 510.228h37.453v8.634H.075v-8.634z"/><path d="M.075 553.043h37.453v16.214H.075v-16.214z"/><path d="M.075 539.743h37.453v13.3H.075v-13.3z"/><path d="M.075 528.543h37.453v11.2H.075v-11.2z"/><path d="M.075 569.257h37.453v20.882H.075v-20.882z"/><path d="M.075 422.732h37.453v29.516H.075v-29.516z"/><path d="M.075 502.646h37.453v7.582H.075v-7.582z"/><path d="M.075 452.248h37.453v50.397H.075v-50.397z"/><path d="M.075 518.861h37.453v9.682H.075v-9.682z"/><path d="M.075 218.113h37.453v16.214H.075v-16.214z"/><path d="M.075 167.599h37.453v7.699H.075v-7.699z"/><path d="M37.528.075h21.935v7.7H37.528v-7.7z"/><path d="M.075.075h37.453v7.7H.075v-7.7z"/><path d="M.075 7.775h37.453v8.632H.075V7.775z"/><path d="M.075 16.408h37.453v9.683H.075v-9.683z"/><path d="M87.032.075h9.883v7.7h-9.883v-7.7z"/><path d="M96.915.075h8.324v7.7h-8.324v-7.7z"/><path d="M59.463.075h15.519v7.7H59.463v-7.7z"/><path d="M.075 26.091h37.453V37.29H.075V26.091z"/><path d="M74.982.075h12.05v7.7h-12.05v-7.7z"/><path d="M.075 66.804h37.453v20.882H.075V66.804z"/><path d="M.075 37.29h37.453v13.299H.075V37.29z"/><path d="M.075 175.298h37.453v8.633H.075v-8.633z"/><path d="M.075 183.932h37.453v9.682H.075v-9.682z"/><path d="M.075 193.613h37.453v11.2H.075v-11.2z"/><path d="M.075 590.139h37.453v29.516H.075v-29.516z"/><path d="M.075 204.813h37.453v13.3H.075v-13.3z"/><path d="M.075 117.202h37.453v50.397H.075v-50.397z"/><path d="M.075 50.589h37.453v16.215H.075V50.589z"/><path d="M243.26 590.139h5.722v29.516h-5.722v-29.516z"/><path d="M.075 351.455h37.453v9.681H.075v-9.681z"/><path d="M361.34 619.654h6.416v50.397h-6.416v-50.397z"/><path d="M432.865 619.654h15.519v50.397h-15.519v-50.397z"/><path d="M367.756 619.654h5.722v50.397h-5.722v-50.397z"/><path d="M410.931 619.654h21.935v50.397h-21.935v-50.397z"/><path d="M373.478 619.654h37.453v50.397h-37.453v-50.397z"/><path d="M335.938 619.654h9.884v50.397h-9.884v-50.397z"/><path d="M323.888 619.654h12.05v50.397h-12.05v-50.397z"/><path d="M354.146 619.654h7.194v50.397h-7.194v-50.397z"/><path d="M345.821 619.654h8.324v50.397h-8.324v-50.397z"/><path d="M492.252 569.257h5.722v20.882h-5.722v-20.882z"/><path d="M.075 619.654h37.453v50.397H.075v-50.397z"/><path d="M308.369 619.654h15.519v50.397h-15.519v-50.397z"/><path d="M448.384 619.654h12.052v50.397h-12.052v-50.397z"/><path d="M492.252 619.654h5.722v50.397h-5.722v-50.397z"/><path d="M460.436 619.654h9.884v50.397h-9.884v-50.397z"/><path d="M470.319 619.654h8.321v50.397h-8.321v-50.397z"/><path d="M485.838 619.654h6.414v50.397h-6.414v-50.397z"/><path d="M478.641 619.654h7.197v50.397h-7.197v-50.397z"/><path d="M492.252 590.139h5.722v29.516h-5.722v-29.516z"/><path d="M105.239 619.654h7.194v50.397h-7.194v-50.397z"/><path d="M96.915 619.654h8.324v50.397h-8.324v-50.397z"/><path d="M286.435 619.654h21.935v50.397h-21.935v-50.397z"/><path d="M118.85 619.654h5.635v50.397h-5.635v-50.397z"/><path d="M124.485 619.654h37.453v50.397h-37.453v-50.397z"/><path d="M59.463 619.654h15.519v50.397H59.463v-50.397z"/><path d="M37.528 619.654h21.935v50.397H37.528v-50.397z"/><path d="M74.982 619.654h12.05v50.397h-12.05v-50.397z"/><path d="M87.032 619.654h9.883v50.397h-9.883v-50.397z"/><path d="M112.434 619.654h6.417v50.397h-6.417v-50.397z"/><path d="M236.843 619.654h6.417v50.397h-6.417v-50.397z"/><path d="M161.938 619.654h21.935v50.397h-21.935v-50.397z"/><path d="M243.26 619.654h5.722v50.397h-5.722v-50.397z"/><path d="M248.981 619.654h37.453v50.397h-37.453v-50.397z"/><path d="M229.649 619.654h7.194v50.397h-7.194v-50.397z"/><path d="M199.392 619.654h12.05v50.397h-12.05v-50.397z"/><path d="M183.873 619.654h15.519v50.397h-15.519v-50.397z"/><path d="M221.325 619.654h8.324v50.397h-8.324v-50.397z"/><path d="M211.441 619.654h9.883v50.397h-9.883v-50.397z"/><path d="M.075 87.687h37.453v29.515H.075V87.687z"/><path d="M492.252 422.732h5.722v29.516h-5.722v-29.516z"/><path d="M492.252 452.248h5.722v50.397h-5.722v-50.397z"/><path d="M492.252 401.851h5.722v20.882h-5.722v-20.882z"/><path d="M492.252 502.646h5.722v7.582h-5.722v-7.582z"/><path d="M492.252 385.636h5.722v16.215h-5.722v-16.215z"/><path d="M492.252 510.228h5.722v8.634h-5.722v-8.634z"/><path d="M492.252 528.543h5.722v11.2h-5.722v-11.2z"/><path d="M492.252 539.743h5.722v13.3h-5.722v-13.3z"/><path d="M492.252 518.861h5.722v9.682h-5.722v-9.682z"/><path d="M492.252 372.337h5.722v13.299h-5.722v-13.299z"/><path d="M492.252 335.122h5.722v7.699h-5.722v-7.699z"/><path d="M492.252 255.209h5.722v29.515h-5.722v-29.515z"/><path d="M492.252 218.113h5.722v16.214h-5.722v-16.214z"/><path d="M492.252 234.328h5.722v20.882h-5.722v-20.882z"/><path d="M492.252 204.813h5.722v13.3h-5.722v-13.3z"/><path d="M492.252 284.725h5.722v50.397h-5.722v-50.397z"/><path d="M492.252 342.821h5.722v8.634h-5.722v-8.634z"/><path d="M492.252 193.613h5.722v11.2h-5.722v-11.2z"/><path d="M492.252 361.136h5.722v11.201h-5.722v-11.201z"/><path d="M492.252 553.043h5.722v16.214h-5.722v-16.214z"/><path d="M492.252 351.455h5.722v9.681h-5.722v-9.681z"/><path d="M345.821 590.139h8.324v29.516h-8.324v-29.516z"/><path d="M354.146 590.139h7.194v29.516h-7.194v-29.516z"/><path d="M335.938 590.139h9.884v29.516h-9.884v-29.516z"/><path d="M361.34 590.139h6.416v29.516h-6.416v-29.516z"/><path d="M485.838 553.043h6.414v16.214h-6.414v-16.214z"/><path d="M248.981 590.139h37.453v29.516h-37.453v-29.516z"/><path d="M367.756 590.139h5.722v29.516h-5.722v-29.516z"/><path d="M308.369 590.139h15.519v29.516h-15.519v-29.516z"/><path d="M323.888 590.139h12.05v29.516h-12.05v-29.516z"/><path d="M286.435 590.139h21.935v29.516h-21.935v-29.516z"/><path d="M373.478 590.139h37.453v29.516h-37.453v-29.516z"/><path d="M470.319 590.139h8.321v29.516h-8.321v-29.516z"/><path d="M485.838 590.139h6.414v29.516h-6.414v-29.516z"/><path d="M485.838 569.257h6.414v20.882h-6.414v-20.882z"/><path d="M478.641 590.139h7.197v29.516h-7.197v-29.516z"/><path d="M410.931 590.139h21.935v29.516h-21.935v-29.516z"/><path d="M460.436 590.139h9.884v29.516h-9.884v-29.516z"/><path d="M432.865 590.139h15.519v29.516h-15.519v-29.516z"/><path d="M448.384 590.139h12.052v29.516h-12.052v-29.516z"/><path d="M308.369.075h15.519v7.7h-15.519v-7.7z"/><path d="M323.888.075h12.05v7.7h-12.05v-7.7z"/><path d="M112.434.075h6.417v7.7h-6.417v-7.7z"/><path d="M286.435.075h21.935v7.7h-21.935v-7.7z"/><path d="M248.981.075h37.453v7.7h-37.453v-7.7z"/><path d="M354.146.075h7.194v7.7h-7.194v-7.7z"/><path d="M335.938.075h9.884v7.7h-9.884v-7.7z"/><path d="M243.26.075h5.722v7.7h-5.722v-7.7z"/><path d="M361.34.075h6.416v7.7h-6.416v-7.7z"/><path d="M345.821.075h8.324v7.7h-8.324v-7.7z"/><path d="M118.85.075h5.635v7.7h-5.635v-7.7z"/><path d="M161.938.075h21.935v7.7h-21.935v-7.7z"/><path d="M236.844.075h6.416v7.7h-6.416v-7.7z"/><path d="M367.756.075h5.722v7.7h-5.722v-7.7z"/><path d="M183.873.075h15.519v7.7h-15.519v-7.7z"/><path d="M124.485.075h37.454v7.7h-37.454v-7.7z"/><path d="M221.325.075h8.324v7.7h-8.324v-7.7z"/><path d="M492.252 183.932h5.722v9.682h-5.722v-9.682z"/><path d="M229.649.075h7.195v7.7h-7.195v-7.7z"/><path d="M59.463 255.209h15.519v29.515H59.463v-29.515z"/><path d="M199.392.075h12.05v7.7h-12.05v-7.7z"/><path d="M492.252 50.589h5.722v16.215h-5.722V50.589z"/><path d="M373.478.075h37.453v7.7h-37.453v-7.7z"/><path d="M492.252 66.804h5.722v20.882h-5.722V66.804z"/><path d="M492.252 16.408h5.722v9.683h-5.722v-9.683z"/><path d="M492.252 26.091h5.722V37.29h-5.722V26.091z"/><path d="M492.252 167.599h5.722v7.699h-5.722v-7.699z"/><path d="M492.252 87.687h5.722v29.515h-5.722V87.687z"/><path d="M492.252 175.298h5.722v8.633h-5.722v-8.633z"/><path d="M492.252 117.202h5.722v50.397h-5.722v-50.397z"/><path d="M492.252 37.29h5.722v13.299h-5.722V37.29z"/><path d="M492.252 7.775h5.722v8.632h-5.722V7.775z"/><path d="M460.436.075h9.884v7.7h-9.884v-7.7z"/><path d="M432.865.075h15.519v7.7h-15.519v-7.7z"/><path d="M410.931.075h21.935v7.7h-21.935v-7.7z"/><path d="M448.384.075h12.052v7.7h-12.052v-7.7z"/><path d="M470.319.075h8.321v7.7h-8.321v-7.7z"/><path d="M485.838.075h6.414v7.7h-6.414v-7.7z"/><path d="M492.252.075h5.722v7.7h-5.722v-7.7z"/><path d="M478.641.075h7.197v7.7h-7.197v-7.7z"/><path d="M460.436 26.091h9.884V37.29h-9.884V26.091z"/><path d="M96.915 539.743h8.324v13.3h-8.324v-13.3z"/><path d="M112.434 539.743h6.417v13.3h-6.417v-13.3z"/><path d="M105.239 539.743h7.194v13.3h-7.194v-13.3z"/><path d="M124.485 539.743h37.453v13.3h-37.453v-13.3z"/><path d="M161.938 539.743h21.935v13.3h-21.935v-13.3z"/><path d="M118.85 539.743h5.635v13.3h-5.635v-13.3z"/><path d="M87.032 502.646h9.883v7.582h-9.883v-7.582z"/><path d="M87.032 518.861h9.883v9.682h-9.883v-9.682z"/><path d="M87.032 528.543h9.883v11.2h-9.883v-11.2z"/><path d="M87.032 539.743h9.883v13.3h-9.883v-13.3z"/><path d="M87.032 87.687h9.883v29.515h-9.883V87.687z"/><path d="M248.981 539.743h37.453v13.3h-37.453v-13.3z"/><path d="M183.873 539.743h15.519v13.3h-15.519v-13.3z"/><path d="M286.435 539.743h21.935v13.3h-21.935v-13.3z"/><path d="M236.843 539.743h6.417v13.3h-6.417v-13.3z"/><path d="M243.26 539.743h5.722v13.3h-5.722v-13.3z"/><path d="M229.649 539.743h7.194v13.3h-7.194v-13.3z"/><path d="M211.441 539.743h9.883v13.3h-9.883v-13.3z"/><path d="M199.392 539.743h12.05v13.3h-12.05v-13.3z"/><path d="M221.325 539.743h8.324v13.3h-8.324v-13.3z"/><path d="M87.032 452.248h9.883v50.397h-9.883v-50.397z"/><path d="M87.032 204.813h9.883v13.3h-9.883v-13.3z"/><path d="M87.032 193.613h9.883v11.2h-9.883v-11.2z"/><path d="M87.032 218.113h9.883v16.214h-9.883v-16.214z"/><path d="M87.032 234.328h9.883v20.882h-9.883v-20.882z"/><path d="M87.032 117.202h9.883v50.397h-9.883v-50.397z"/><path d="M87.032 167.599h9.883v7.699h-9.883v-7.699z"/><path d="M87.032 183.932h9.883v9.682h-9.883v-9.682z"/><path d="M87.032 255.209h9.883v29.515h-9.883v-29.515z"/><path d="M87.032 175.298h9.883v8.633h-9.883v-8.633z"/><path d="M87.032 361.136h9.883v11.201h-9.883v-11.201z"/><path d="M87.032 401.851h9.883v20.882h-9.883v-20.882z"/><path d="M87.032 372.337h9.883v13.299h-9.883v-13.299z"/><path d="M87.032 385.636h9.883v16.215h-9.883v-16.215z"/><path d="M87.032 422.732h9.883v29.516h-9.883v-29.516z"/><path d="M87.032 335.122h9.883v7.699h-9.883v-7.699z"/><path d="M87.032 342.821h9.883v8.634h-9.883v-8.634z"/><path d="M87.032 284.725h9.883v50.397h-9.883v-50.397z"/><path d="M87.032 351.455h9.883v9.681h-9.883v-9.681z"/><path d="M308.369 539.743h15.519v13.3h-15.519v-13.3z"/><path d="M87.032 510.228h9.883v8.634h-9.883v-8.634z"/><path d="M470.319 284.725h8.321v50.397h-8.321v-50.397z"/><path d="M470.319 204.813h8.321v13.3h-8.321v-13.3z"/><path d="M470.319 255.209h8.321v29.515h-8.321v-29.515z"/><path d="M470.319 218.113h8.321v16.214h-8.321v-16.214z"/><path d="M470.319 234.328h8.321v20.882h-8.321v-20.882z"/><path d="M59.463 234.328h15.519v20.882H59.463v-20.882z"/><path d="M470.319 361.136h8.321v11.201h-8.321v-11.201z"/><path d="M470.319 335.122h8.321v7.699h-8.321v-7.699z"/><path d="M470.319 342.821h8.321v8.634h-8.321v-8.634z"/><path d="M470.319 183.932h8.321v9.682h-8.321v-9.682z"/><path d="M470.319 50.589h8.321v16.215h-8.321V50.589z"/><path d="M470.319 193.613h8.321v11.2h-8.321v-11.2z"/><path d="M470.319 66.804h8.321v20.882h-8.321V66.804z"/><path d="M470.319 37.29h8.321v13.299h-8.321V37.29z"/><path d="M470.319 87.687h8.321v29.515h-8.321V87.687z"/><path d="M323.888 539.743h12.05v13.3h-12.05v-13.3z"/><path d="M470.319 175.298h8.321v8.633h-8.321v-8.633z"/><path d="M470.319 167.599h8.321v7.699h-8.321v-7.699z"/><path d="M470.319 117.202h8.321v50.397h-8.321v-50.397z"/><path d="M470.319 372.337h8.321v13.299h-8.321v-13.299z"/><path d="M367.756 539.743h5.722v13.3h-5.722v-13.3z"/><path d="M410.931 539.743h21.935v13.3h-21.935v-13.3z"/><path d="M373.478 539.743h37.453v13.3h-37.453v-13.3z"/><path d="M432.865 539.743h15.519v13.3h-15.519v-13.3z"/><path d="M345.821 539.743h8.324v13.3h-8.324v-13.3z"/><path d="M470.319 385.636h8.321v16.215h-8.321v-16.215z"/><path d="M448.384 539.743h12.052v13.3h-12.052v-13.3z"/><path d="M361.34 539.743h6.416v13.3h-6.416v-13.3z"/><path d="M354.146 539.743h7.194v13.3h-7.194v-13.3z"/><path d="M335.938 539.743h9.884v13.3h-9.884v-13.3z"/><path d="M470.319 502.646h8.321v7.582h-8.321v-7.582z"/><path d="M470.319 452.248h8.321v50.397h-8.321v-50.397z"/><path d="M470.319 422.732h8.321v29.516h-8.321v-29.516z"/><path d="M470.319 401.851h8.321v20.882h-8.321v-20.882z"/><path d="M470.319 518.861h8.321v9.682h-8.321v-9.682z"/><path d="M460.436 518.861h9.884v9.682h-9.884v-9.682z"/><path d="M460.436 528.543h9.884v11.2h-9.884v-11.2z"/><path d="M460.436 539.743h9.884v13.3h-9.884v-13.3z"/><path d="M470.319 510.228h8.321v8.634h-8.321v-8.634z"/><path d="M211.441 37.29h9.884v13.299h-9.884V37.29z"/><path d="M448.384 518.861h12.052v9.682h-12.052v-9.682z"/><path d="M448.384 510.228h12.052v8.634h-12.052v-8.634z"/><path d="M460.436 510.228h9.884v8.634h-9.884v-8.634z"/><path d="M460.436 452.248h9.884v50.397h-9.884v-50.397z"/><path d="M460.436 502.646h9.884v7.582h-9.884v-7.582z"/><path d="M432.865 528.543h15.519v11.2h-15.519v-11.2z"/><path d="M410.931 528.543h21.935v11.2h-21.935v-11.2z"/><path d="M373.478 528.543h37.453v11.2h-37.453v-11.2z"/><path d="M448.384 528.543h12.052v11.2h-12.052v-11.2z"/><path d="M460.436 422.732h9.884v29.516h-9.884v-29.516z"/><path d="M460.436 284.725h9.884v50.397h-9.884v-50.397z"/><path d="M367.756 528.543h5.722v11.2h-5.722v-11.2z"/><path d="M460.436 342.821h9.884v8.634h-9.884v-8.634z"/><path d="M460.436 335.122h9.884v7.699h-9.884v-7.699z"/><path d="M460.436 255.209h9.884v29.515h-9.884v-29.515z"/><path d="M460.436 385.636h9.884v16.215h-9.884v-16.215z"/><path d="M460.436 351.455h9.884v9.681h-9.884v-9.681z"/><path d="M460.436 372.337h9.884v13.299h-9.884v-13.299z"/><path d="M460.436 401.851h9.884v20.882h-9.884v-20.882z"/><path d="M460.436 361.136h9.884v11.201h-9.884v-11.201z"/><path d="M161.938 528.543h21.935v11.2h-21.935v-11.2z"/><path d="M199.392 528.543h12.05v11.2h-12.05v-11.2z"/><path d="M211.441 528.543h9.883v11.2h-9.883v-11.2z"/><path d="M183.873 528.543h15.519v11.2h-15.519v-11.2z"/><path d="M361.34 528.543h6.416v11.2h-6.416v-11.2z"/><path d="M124.485 528.543h37.453v11.2h-37.453v-11.2z"/><path d="M87.032 66.804h9.883v20.882h-9.883V66.804z"/><path d="M118.85 528.543h5.635v11.2h-5.635v-11.2z"/><path d="M460.436 234.328h9.884v20.882h-9.884v-20.882z"/><path d="M229.649 528.543h7.194v11.2h-7.194v-11.2z"/><path d="M221.325 528.543h8.324v11.2h-8.324v-11.2z"/><path d="M323.888 528.543h12.05v11.2h-12.05v-11.2z"/><path d="M345.821 528.543h8.324v11.2h-8.324v-11.2z"/><path d="M236.843 528.543h6.417v11.2h-6.417v-11.2z"/><path d="M354.146 528.543h7.194v11.2h-7.194v-11.2z"/><path d="M335.938 528.543h9.884v11.2h-9.884v-11.2z"/><path d="M243.26 528.543h5.722v11.2h-5.722v-11.2z"/><path d="M248.981 528.543h37.453v11.2h-37.453v-11.2z"/><path d="M286.435 528.543h21.935v11.2h-21.935v-11.2z"/><path d="M308.369 528.543h15.519v11.2h-15.519v-11.2z"/><path d="M112.434 528.543h6.417v11.2h-6.417v-11.2z"/><path d="M221.325 37.29h8.324v13.299h-8.324V37.29z"/><path d="M229.649 37.29h7.195v13.299h-7.195V37.29z"/><path d="M199.392 37.29h12.05v13.299h-12.05V37.29z"/><path d="M470.319 26.091h8.321V37.29h-8.321V26.091z"/><path d="M236.844 37.29h6.416v13.299h-6.416V37.29z"/><path d="M286.435 37.29h21.935v13.299h-21.935V37.29z"/><path d="M308.369 37.29h15.519v13.299h-15.519V37.29z"/><path d="M248.981 37.29h37.453v13.299h-37.453V37.29z"/><path d="M243.26 37.29h5.722v13.299h-5.722V37.29z"/><path d="M96.915 37.29h8.324v13.299h-8.324V37.29z"/><path d="M87.032 37.29h9.883v13.299h-9.883V37.29z"/><path d="M323.888 37.29h12.05v13.299h-12.05V37.29z"/><path d="M87.032 50.589h9.883v16.215h-9.883V50.589z"/><path d="M105.239 37.29h7.194v13.299h-7.194V37.29z"/><path d="M124.485 37.29h37.454v13.299h-37.454V37.29z"/><path d="M183.873 37.29h15.519v13.299h-15.519V37.29z"/><path d="M112.434 37.29h6.417v13.299h-6.417V37.29z"/><path d="M161.938 37.29h21.935v13.299h-21.935V37.29z"/><path d="M118.85 37.29h5.635v13.299h-5.635V37.29z"/><path d="M335.938 37.29h9.884v13.299h-9.884V37.29z"/><path d="M460.436 50.589h9.884v16.215h-9.884V50.589z"/><path d="M460.436 167.599h9.884v7.699h-9.884v-7.699z"/><path d="M460.436 87.687h9.884v29.515h-9.884V87.687z"/><path d="M460.436 66.804h9.884v20.882h-9.884V66.804z"/><path d="M460.436 117.202h9.884v50.397h-9.884v-50.397z"/><path d="M460.436 193.613h9.884v11.2h-9.884v-11.2z"/><path d="M460.436 204.813h9.884v13.3h-9.884v-13.3z"/><path d="M460.436 183.932h9.884v9.682h-9.884v-9.682z"/><path d="M460.436 175.298h9.884v8.633h-9.884v-8.633z"/><path d="M367.756 37.29h5.722v13.299h-5.722V37.29z"/><path d="M460.436 37.29h9.884v13.299h-9.884V37.29z"/><path d="M361.34 37.29h6.416v13.299h-6.416V37.29z"/><path d="M345.821 37.29h8.324v13.299h-8.324V37.29z"/><path d="M460.436 218.113h9.884v16.214h-9.884v-16.214z"/><path d="M354.146 37.29h7.194v13.299h-7.194V37.29z"/><path d="M432.865 37.29h15.519v13.299h-15.519V37.29z"/><path d="M448.384 37.29h12.052v13.299h-12.052V37.29z"/><path d="M410.931 37.29h21.935v13.299h-21.935V37.29z"/><path d="M373.478 37.29h37.453v13.299h-37.453V37.29z"/><path d="M470.319 351.455h8.321v9.681h-8.321v-9.681z"/><path d="M478.641 183.932h7.197v9.682h-7.197v-9.682z"/><path d="M478.641 193.613h7.197v11.2h-7.197v-11.2z"/><path d="M478.641 117.202h7.197v50.397h-7.197v-50.397z"/><path d="M478.641 335.122h7.197v7.699h-7.197v-7.699z"/><path d="M478.641 204.813h7.197v13.3h-7.197v-13.3z"/><path d="M478.641 175.298h7.197v8.633h-7.197v-8.633z"/><path d="M478.641 218.113h7.197v16.214h-7.197v-16.214z"/><path d="M478.641 255.209h7.197v29.515h-7.197v-29.515z"/><path d="M478.641 284.725h7.197v50.397h-7.197v-50.397z"/><path d="M478.641 234.328h7.197v20.882h-7.197v-20.882z"/><path d="M478.641 167.599h7.197v7.699h-7.197v-7.699z"/><path d="M470.319 16.408h8.321v9.683h-8.321v-9.683z"/><path d="M478.641 16.408h7.197v9.683h-7.197v-9.683z"/><path d="M460.436 16.408h9.884v9.683h-9.884v-9.683z"/><path d="M448.384 16.408h12.052v9.683h-12.052v-9.683z"/><path d="M478.641 66.804h7.197v20.882h-7.197V66.804z"/><path d="M478.641 87.687h7.197v29.515h-7.197V87.687z"/><path d="M478.641 26.091h7.197V37.29h-7.197V26.091z"/><path d="M478.641 50.589h7.197v16.215h-7.197V50.589z"/><path d="M432.865 16.408h15.519v9.683h-15.519v-9.683z"/><path d="M478.641 37.29h7.197v13.299h-7.197V37.29z"/><path d="M373.478 553.043h37.453v16.214h-37.453v-16.214z"/><path d="M470.319 553.043h8.321v16.214h-8.321v-16.214z"/><path d="M470.319 528.543h8.321v11.2h-8.321v-11.2z"/><path d="M478.641 528.543h7.197v11.2h-7.197v-11.2z"/><path d="M478.641 518.861h7.197v9.682h-7.197v-9.682z"/><path d="M432.865 553.043h15.519v16.214h-15.519v-16.214z"/><path d="M410.931 553.043h21.935v16.214h-21.935v-16.214z"/><path d="M448.384 553.043h12.052v16.214h-12.052v-16.214z"/><path d="M460.436 553.043h9.884v16.214h-9.884v-16.214z"/><path d="M478.641 372.337h7.197v13.299h-7.197v-13.299z"/><path d="M478.641 385.636h7.197v16.215h-7.197v-16.215z"/><path d="M478.641 342.821h7.197v8.634h-7.197v-8.634z"/><path d="M478.641 361.136h7.197v11.201h-7.197v-11.201z"/><path d="M478.641 351.455h7.197v9.681h-7.197v-9.681z"/><path d="M478.641 510.228h7.197v8.634h-7.197v-8.634z"/><path d="M478.641 502.646h7.197v7.582h-7.197v-7.582z"/><path d="M478.641 452.248h7.197v50.397h-7.197v-50.397z"/><path d="M478.641 401.851h7.197v20.882h-7.197v-20.882z"/><path d="M478.641 422.732h7.197v29.516h-7.197v-29.516z"/><path d="M470.319 539.743h8.321v13.3h-8.321v-13.3z"/><path d="M74.982 16.408h12.05v9.683h-12.05v-9.683z"/><path d="M59.463 16.408h15.519v9.683H59.463v-9.683z"/><path d="M59.463 26.091h15.519V37.29H59.463V26.091z"/><path d="M59.463 37.29h15.519v13.299H59.463V37.29z"/><path d="M112.434 16.408h6.417v9.683h-6.417v-9.683z"/><path d="M105.239 16.408h7.194v9.683h-7.194v-9.683z"/><path d="M87.032 16.408h9.883v9.683h-9.883v-9.683z"/><path d="M59.463 50.589h15.519v16.215H59.463V50.589z"/><path d="M96.915 16.408h8.324v9.683h-8.324v-9.683z"/><path d="M59.463 87.687h15.519v29.515H59.463V87.687z"/><path d="M59.463 183.932h15.519v9.682H59.463v-9.682z"/><path d="M59.463 66.804h15.519v20.882H59.463V66.804z"/><path d="M59.463 193.613h15.519v11.2H59.463v-11.2z"/><path d="M59.463 218.113h15.519v16.214H59.463v-16.214z"/><path d="M59.463 204.813h15.519v13.3H59.463v-13.3z"/><path d="M59.463 117.202h15.519v50.397H59.463v-50.397z"/><path d="M118.85 16.408h5.635v9.683h-5.635v-9.683z"/><path d="M59.463 175.298h15.519v8.633H59.463v-8.633z"/><path d="M59.463 167.599h15.519v7.699H59.463v-7.699z"/><path d="M243.26 16.408h5.722v9.683h-5.722v-9.683z"/><path d="M323.888 16.408h12.05v9.683h-12.05v-9.683z"/><path d="M345.821 16.408h8.324v9.683h-8.324v-9.683z"/><path d="M335.938 16.408h9.884v9.683h-9.884v-9.683z"/><path d="M286.435 16.408h21.935v9.683h-21.935v-9.683z"/><path d="M308.369 16.408h15.519v9.683h-15.519v-9.683z"/><path d="M105.239 528.543h7.194v11.2h-7.194v-11.2z"/><path d="M373.478 16.408h37.453v9.683h-37.453v-9.683z"/><path d="M361.34 16.408h6.416v9.683h-6.416v-9.683z"/><path d="M354.146 16.408h7.194v9.683h-7.194v-9.683z"/><path d="M161.938 16.408h21.935v9.683h-21.935v-9.683z"/><path d="M199.392 16.408h12.05v9.683h-12.05v-9.683z"/><path d="M211.441 16.408h9.884v9.683h-9.884v-9.683z"/><path d="M183.873 16.408h15.519v9.683h-15.519v-9.683z"/><path d="M124.485 16.408h37.454v9.683h-37.454v-9.683z"/><path d="M236.844 16.408h6.416v9.683h-6.416v-9.683z"/><path d="M248.981 16.408h37.453v9.683h-37.453v-9.683z"/><path d="M410.931 16.408h21.935v9.683h-21.935v-9.683z"/><path d="M229.649 16.408h7.195v9.683h-7.195v-9.683z"/><path d="M221.325 16.408h8.324v9.683h-8.324v-9.683z"/><path d="M367.756 16.408h5.722v9.683h-5.722v-9.683z"/><path d="M96.915 26.091h8.324V37.29h-8.324V26.091z"/><path d="M183.873 26.091h15.519V37.29h-15.519V26.091z"/><path d="M87.032 26.091h9.883V37.29h-9.883V26.091z"/><path d="M74.982 26.091h12.05V37.29h-12.05V26.091z"/><path d="M74.982 50.589h12.05v16.215h-12.05V50.589z"/><path d="M74.982 37.29h12.05v13.299h-12.05V37.29z"/><path d="M161.938 26.091h21.935V37.29h-21.935V26.091z"/><path d="M112.434 26.091h6.417V37.29h-6.417V26.091z"/><path d="M124.485 26.091h37.454V37.29h-37.454V26.091z"/><path d="M118.85 26.091h5.635V37.29h-5.635V26.091z"/><path d="M105.239 26.091h7.194V37.29h-7.194V26.091z"/><path d="M74.982 183.932h12.05v9.682h-12.05v-9.682z"/><path d="M74.982 193.613h12.05v11.2h-12.05v-11.2z"/><path d="M74.982 204.813h12.05v13.3h-12.05v-13.3z"/><path d="M74.982 218.113h12.05v16.214h-12.05v-16.214z"/><path d="M74.982 66.804h12.05v20.882h-12.05V66.804z"/><path d="M367.756 553.043h5.722v16.214h-5.722v-16.214z"/><path d="M74.982 87.687h12.05v29.515h-12.05V87.687z"/><path d="M74.982 167.599h12.05v7.699h-12.05v-7.699z"/><path d="M74.982 175.298h12.05v8.633h-12.05v-8.633z"/><path d="M432.865 26.091h15.519V37.29h-15.519V26.091z"/><path d="M361.34 26.091h6.416V37.29h-6.416V26.091z"/><path d="M367.756 26.091h5.722V37.29h-5.722V26.091z"/><path d="M199.392 26.091h12.05V37.29h-12.05V26.091z"/><path d="M345.821 26.091h8.324V37.29h-8.324V26.091z"/><path d="M335.938 26.091h9.884V37.29h-9.884V26.091z"/><path d="M448.384 26.091h12.052V37.29h-12.052V26.091z"/><path d="M373.478 26.091h37.453V37.29h-37.453V26.091z"/><path d="M74.982 234.328h12.05v20.882h-12.05v-20.882z"/><path d="M410.931 26.091h21.935V37.29h-21.935V26.091z"/><path d="M354.146 26.091h7.194V37.29h-7.194V26.091z"/><path d="M229.649 26.091h7.195V37.29h-7.195V26.091z"/><path d="M221.325 26.091h8.324V37.29h-8.324V26.091z"/><path d="M236.844 26.091h6.416V37.29h-6.416V26.091z"/><path d="M323.888 26.091h12.05V37.29h-12.05V26.091z"/><path d="M211.441 26.091h9.884V37.29h-9.884V26.091z"/><path d="M286.435 26.091h21.935V37.29h-21.935V26.091z"/><path d="M243.26 26.091h5.722V37.29h-5.722V26.091z"/><path d="M308.369 26.091h15.519V37.29h-15.519V26.091z"/><path d="M248.981 26.091h37.453V37.29h-37.453V26.091z"/><path d="M74.982 117.202h12.05v50.397h-12.05v-50.397z"/><path d="M112.434 553.043h6.417v16.214h-6.417v-16.214z"/><path d="M221.325 553.043h8.324v16.214h-8.324v-16.214z"/><path d="M229.649 553.043h7.194v16.214h-7.194v-16.214z"/><path d="M199.392 553.043h12.05v16.214h-12.05v-16.214z"/><path d="M183.873 553.043h15.519v16.214h-15.519v-16.214z"/><path d="M236.843 553.043h6.417v16.214h-6.417v-16.214z"/><path d="M124.485 553.043h37.453v16.214h-37.453v-16.214z"/><path d="M118.85 553.043h5.635v16.214h-5.635v-16.214z"/><path d="M161.938 553.043h21.935v16.214h-21.935v-16.214z"/><path d="M211.441 553.043h9.883v16.214h-9.883v-16.214z"/><path d="M354.146 553.043h7.194v16.214h-7.194v-16.214z"/><path d="M345.821 553.043h8.324v16.214h-8.324v-16.214z"/><path d="M361.34 553.043h6.416v16.214h-6.416v-16.214z"/><path d="M335.938 553.043h9.884v16.214h-9.884v-16.214z"/><path d="M243.26 553.043h5.722v16.214h-5.722v-16.214z"/><path d="M286.435 553.043h21.935v16.214h-21.935v-16.214z"/><path d="M74.982 255.209h12.05v29.515h-12.05v-29.515z"/><path d="M248.981 553.043h37.453v16.214h-37.453v-16.214z"/><path d="M308.369 553.043h15.519v16.214h-15.519v-16.214z"/><path d="M323.888 553.043h12.05v16.214h-12.05v-16.214z"/><path d="M74.982 372.337h12.05v13.299h-12.05v-13.299z"/><path d="M74.982 361.136h12.05v11.201h-12.05v-11.201z"/><path d="M74.982 385.636h12.05v16.215h-12.05v-16.215z"/><path d="M74.982 401.851h12.05v20.882h-12.05v-20.882z"/><path d="M74.982 342.821h12.05v8.634h-12.05v-8.634z"/><path d="M105.239 553.043h7.194v16.214h-7.194v-16.214z"/><path d="M74.982 335.122h12.05v7.699h-12.05v-7.699z"/><path d="M74.982 422.732h12.05v29.516h-12.05v-29.516z"/><path d="M74.982 351.455h12.05v9.681h-12.05v-9.681z"/><path d="M74.982 284.725h12.05v50.397h-12.05v-50.397z"/><path d="M74.982 539.743h12.05v13.3h-12.05v-13.3z"/><path d="M87.032 553.043h9.883v16.214h-9.883v-16.214z"/><path d="M74.982 553.043h12.05v16.214h-12.05v-16.214z"/><path d="M96.915 553.043h8.324v16.214h-8.324v-16.214z"/><path d="M74.982 502.646h12.05v7.582h-12.05v-7.582z"/><path d="M74.982 510.228h12.05v8.634h-12.05v-8.634z"/><path d="M74.982 528.543h12.05v11.2h-12.05v-11.2z"/><path d="M74.982 452.248h12.05v50.397h-12.05v-50.397z"/><path d="M74.982 518.861h12.05v9.682h-12.05v-9.682z"/></svg>