<svg baseProfile="tiny" xmlns="http://www.w3.org/2000/svg"><path d="M144.075 504.075h72v72h-72v-72z"/><path d="M144.075 432.075h72v72h-72v-72z"/><path d="M216.075 576.075h72v72h-72v-72z"/><path d="M144.075 216.075h72v72h-72v-72z"/><path d="M144.075 360.075h72v72h-72v-72z"/><path d="M144.075 288.075h72v72h-72v-72z"/><path d="M360.075 576.075h72v72h-72v-72z"/><path d="M360.075 360.075h72v72h-72v-72z"/><path d="M360.075 432.075h72v72h-72v-72z"/><path d="M360.075 288.075h72v72h-72v-72z"/><path d="M144.075 144.075h72v72h-72v-72z"/><path d="M288.075 576.075h72v72h-72v-72z"/><path d="M360.075 504.075h72v72h-72v-72z"/><path d="M288.075 504.075h72v72h-72v-72z"/><path d="M216.075 504.075h72v72h-72v-72z"/><path d="M216.075 360.075h72v72h-72v-72z"/><path d="M216.075 432.075h72v72h-72v-72z"/><path d="M216.075 288.075h72v72h-72v-72z"/><path d="M216.075 216.075h72v72h-72v-72z"/><path d="M432.075 72.075h72v72h-72v-72z"/><path d="M360.075 216.075h72v72h-72v-72z"/><path d="M288.075 288.075h72v72h-72v-72z"/><path d="M288.075 216.075h72v72h-72v-72z"/><path d="M216.075 144.075h72v72h-72v-72z"/><path d="M288.075 144.075h72v72h-72v-72z"/><path d="M288.075 360.075h72v72h-72v-72z"/><path d="M288.075 432.075h72v72h-72v-72z"/><path d="M144.075 576.075h72v72h-72v-72z"/><path d="M144.075 648.075h72v72h-72v-72z"/><path d="M432.075 576.075h72v72h-72v-72z"/><path d="M360.075 648.075h72v72h-72v-72z"/><path d="M216.075 648.075h72v72h-72v-72z"/><path d="M288.075 648.075h72v72h-72v-72z"/><path d="M432.075 504.075h72v72h-72v-72z"/><path d="M432.075 648.075h72v72h-72v-72z"/><path d="M432.075 144.075h72v72h-72v-72z"/><path d="M432.075 216.075h72v72h-72v-72z"/><path d="M432.075 432.075h72v72h-72v-72z"/><path d="M432.075 288.075h72v72h-72v-72z"/><path d="M432.075 360.075h72v72h-72v-72z"/><path d="M504.075 72.075h72v72h-72v-72z"/><path d="M504.075 576.075h72v72h-72v-72z"/><path d="M504.075 504.075h72v72h-72v-72z"/><path d="M504.075 648.075h72v72h-72v-72z"/><path d="M504.075 144.075h72v72h-72v-72z"/><path d="M504.075 216.075h72v72h-72v-72z"/><path d="M504.075 432.075h72v72h-72v-72z"/><path d="M504.075 288.075h72v72h-72v-72z"/><path d="M504.075 360.075h72v72h-72v-72z"/><path d="M.075 72.075h72v72h-72v-72z"/><path d="M.075 576.075h72v72h-72v-72z"/><path d="M.075 504.075h72v72h-72v-72z"/><path d="M.075 648.075h72v72h-72v-72z"/><path d="M.075 144.075h72v72h-72v-72z"/><path d="M.075 216.075h72v72h-72v-72z"/><path d="M.075 432.075h72v72h-72v-72z"/><path d="M.075 288.075h72v72h-72v-72z"/><path d="M.075 360.075h72v72h-72v-72z"/><path d="M216.075 72.075h72v72h-72v-72z"/><path d="M144.075 72.075h72v72h-72v-72z"/><path d="M360.075 144.075h72v72h-72v-72z"/><path d="M72.075 72.075h72v72h-72v-72z"/><path d="M288.075 72.075h72v72h-72v-72z"/><path d="M72.075 144.075h72v72h-72v-72z"/><path d="M360.075 72.075h72v72h-72v-72z"/><path d="M72.075 576.075h72v72h-72v-72z"/><path d="M72.075 504.075h72v72h-72v-72z"/><path d="M72.075 648.075h72v72h-72v-72z"/><path d="M144.075 720.075h72v72h-72v-72z"/><path d="M360.075 720.075h72v72h-72v-72z"/><path d="M216.075 720.075h72v72h-72v-72z"/><path d="M288.075 720.075h72v72h-72v-72z"/><path d="M432.075 720.075h72v72h-72v-72z"/><path d="M504.075 720.075h72v72h-72v-72z"/><path d="M.075 720.075h72v72h-72v-72z"/><path d="M72.075 720.075h72v72h-72v-72z"/><path d="M144.075.075h72v72h-72v-72z"/><path d="M360.075.075h72v72h-72v-72z"/><path d="M216.075.075h72v72h-72v-72z"/><path d="M288.075.075h72v72h-72v-72z"/><path d="M432.075.075h72v72h-72v-72z"/><path d="M504.075.075h72v72h-72v-72z"/><path d="M.075.075h72v72h-72v-72z"/><path d="M72.075.075h72v72h-72v-72z"/><path d="M72.075 432.075h72v72h-72v-72z"/><path d="M72.075 216.075h72v72h-72v-72z"/><path d="M72.075 360.075h72v72h-72v-72z"/><path d="M72.075 288.075h72v72h-72v-72z"/><path d="M142.941 497.272h70.866v70.866h-70.866v-70.866z"/><path d="M142.941 426.406h70.866v70.866h-70.866v-70.866z"/><path d="M142.941 568.139h70.866v70.866h-70.866v-70.866z"/><path d="M142.941 355.54h70.866v70.866h-70.866V355.54z"/><path d="M142.941 284.674h70.866v70.866h-70.866v-70.866z"/><path d="M213.808 568.139h70.866v70.866h-70.866v-70.866z"/><path d="M142.941 213.808h70.866v70.866h-70.866v-70.866z"/><path d="M355.54 355.54h70.866v70.866H355.54V355.54z"/><path d="M355.54 426.406h70.866v70.866H355.54v-70.866z"/><path d="M355.54 284.674h70.866v70.866H355.54v-70.866z"/><path d="M284.674 568.139h70.866v70.866h-70.866v-70.866z"/><path d="M355.54 497.272h70.866v70.866H355.54v-70.866z"/><path d="M355.54 568.139h70.866v70.866H355.54v-70.866z"/><path d="M284.674 355.54h70.866v70.866h-70.866V355.54z"/><path d="M284.674 497.272h70.866v70.866h-70.866v-70.866z"/><path d="M213.808 426.406h70.866v70.866h-70.866v-70.866z"/><path d="M213.808 497.272h70.866v70.866h-70.866v-70.866z"/><path d="M213.808 355.54h70.866v70.866h-70.866V355.54z"/><path d="M213.808 213.808h70.866v70.866h-70.866v-70.866z"/><path d="M213.808 284.674h70.866v70.866h-70.866v-70.866z"/><path d="M426.406 72.075h70.866v70.866h-70.866V72.075z"/><path d="M284.674 213.808h70.866v70.866h-70.866v-70.866z"/><path d="M284.674 426.406h70.866v70.866h-70.866v-70.866z"/><path d="M213.808 142.941h70.866v70.866h-70.866v-70.866z"/><path d="M284.674 142.941h70.866v70.866h-70.866v-70.866z"/><path d="M284.674 284.674h70.866v70.866h-70.866v-70.866z"/><path d="M142.941 142.941h70.866v70.866h-70.866v-70.866z"/><path d="M355.54 213.808h70.866v70.866H355.54v-70.866z"/><path d="M426.406 639.005h70.866v70.866h-70.866v-70.866z"/><path d="M426.406 568.139h70.866v70.866h-70.866v-70.866z"/><path d="M426.406 497.272h70.866v70.866h-70.866v-70.866z"/><path d="M355.54 639.005h70.866v70.866H355.54v-70.866z"/><path d="M213.808 639.005h70.866v70.866h-70.866v-70.866z"/><path d="M142.941 639.005h70.866v70.866h-70.866v-70.866z"/><path d="M284.674 639.005h70.866v70.866h-70.866v-70.866z"/><path d="M426.406 142.941h70.866v70.866h-70.866v-70.866z"/><path d="M426.406 426.406h70.866v70.866h-70.866v-70.866z"/><path d="M426.406 213.808h70.866v70.866h-70.866v-70.866z"/><path d="M426.406 355.54h70.866v70.866h-70.866V355.54z"/><path d="M426.406 284.674h70.866v70.866h-70.866v-70.866z"/><path d="M497.272 72.075h70.866v70.866h-70.866V72.075z"/><path d="M497.272 639.005h70.866v70.866h-70.866v-70.866z"/><path d="M497.272 568.139h70.866v70.866h-70.866v-70.866z"/><path d="M497.272 497.272h70.866v70.866h-70.866v-70.866z"/><path d="M497.272 142.941h70.866v70.866h-70.866v-70.866z"/><path d="M497.272 426.406h70.866v70.866h-70.866v-70.866z"/><path d="M497.272 213.808h70.866v70.866h-70.866v-70.866z"/><path d="M497.272 355.54h70.866v70.866h-70.866V355.54z"/><path d="M497.272 284.674h70.866v70.866h-70.866v-70.866z"/><path d="M72.075 639.005h70.866v70.866H72.075v-70.866z"/><path d="M426.406 709.871h70.866v70.866h-70.866v-70.866z"/><path d="M355.54 709.871h70.866v70.866H355.54v-70.866z"/><path d="M213.808 709.871h70.866v70.866h-70.866v-70.866z"/><path d="M142.941 709.871h70.866v70.866h-70.866v-70.866z"/><path d="M284.674 709.871h70.866v70.866h-70.866v-70.866z"/><path d="M497.272 709.871h70.866v70.866h-70.866v-70.866z"/><path d="M72.075 709.871h70.866v70.866H72.075v-70.866z"/><path d="M142.941 72.075h70.866v70.866h-70.866V72.075z"/><path d="M72.075 72.075h70.866v70.866H72.075V72.075z"/><path d="M213.808 72.075h70.866v70.866h-70.866V72.075z"/><path d="M284.674 72.075h70.866v70.866h-70.866V72.075z"/><path d="M72.075 142.941h70.866v70.866H72.075v-70.866z"/><path d="M355.54 72.075h70.866v70.866H355.54V72.075z"/><path d="M72.075 426.406h70.866v70.866H72.075v-70.866z"/><path d="M72.075 213.808h70.866v70.866H72.075v-70.866z"/><path d="M72.075 497.272h70.866v70.866H72.075v-70.866z"/><path d="M72.075 568.139h70.866v70.866H72.075v-70.866z"/><path d="M355.54 142.941h70.866v70.866H355.54v-70.866z"/><path d="M72.075 355.54h70.866v70.866H72.075V355.54z"/><path d="M72.075 284.674h70.866v70.866H72.075v-70.866z"/><path d="M1.209 639.005h70.866v70.866H1.209v-70.866z"/><path d="M1.209 709.871h70.866v70.866H1.209v-70.866z"/><path d="M1.209 72.075h70.866v70.866H1.209V72.075z"/><path d="M426.406 1.209h70.866v70.866h-70.866V1.209z"/><path d="M497.272 1.209h70.866v70.866h-70.866V1.209z"/><path d="M142.941 1.209h70.866v70.866h-70.866V1.209z"/><path d="M72.075 1.209h70.866v70.866H72.075V1.209z"/><path d="M213.808 1.209h70.866v70.866h-70.866V1.209z"/><path d="M284.674 1.209h70.866v70.866h-70.866V1.209z"/><path d="M355.54 1.209h70.866v70.866H355.54V1.209z"/><path d="M1.209 1.209h70.866v70.866H1.209V1.209z"/><path d="M1.209 142.941h70.866v70.866H1.209v-70.866z"/><path d="M1.209 426.406h70.866v70.866H1.209v-70.866z"/><path d="M1.209 213.808h70.866v70.866H1.209v-70.866z"/><path d="M1.209 497.272h70.866v70.866H1.209v-70.866z"/><path d="M1.209 568.139h70.866v70.866H1.209v-70.866z"/><path d="M1.209 355.54h70.866v70.866H1.209V355.54z"/><path d="M1.209 284.674h70.866v70.866H1.209v-70.866z"/></svg>