<svg baseProfile="tiny" xmlns="http://www.w3.org/2000/svg"><path d="M8.504 8.504h283.465v283.464H8.504V8.504z"/><path d="M8.504 291.968h283.465v283.464H8.504V291.968z"/><path d="M291.969 8.504h283.465v283.464H291.969V8.504z"/><path d="M291.969 291.968h283.465v283.464H291.969V291.968z"/><path d="M8.504 575.433h283.465v283.464H8.504V575.433z"/><path d="M-274.961 8.504H8.504v283.464h-283.465V8.504z"/><path d="M8.504-274.96h283.465V8.504H8.504V-274.96z"/><path d="M291.969-274.96h283.465V8.504H291.969V-274.96z"/><path d="M-274.961-274.96H8.504V8.504h-283.465V-274.96z"/><path d="M-274.961 291.968H8.504v283.464h-283.465V291.968z"/><path d="M-274.961 575.433H8.504v283.464h-283.465V575.433z"/><path d="M291.969 575.433h283.465v283.464H291.969V575.433z"/></svg>