<svg baseProfile="tiny" xmlns="http://www.w3.org/2000/svg"><path d="M140.583 535.263h9.613v16.725h-9.613v-16.725z"/><path d="M140.583 551.987h9.613v16.725h-9.613v-16.725z"/><path d="M158.769 551.987h7.529v16.725h-7.529v-16.725z"/><path d="M150.196 551.987h8.573v16.725h-8.573v-16.725z"/><path d="M140.583 485.089h9.613v16.725h-9.613v-16.725z"/><path d="M140.583 501.813h9.613v16.725h-9.613v-16.725z"/><path d="M140.583 518.538h9.613v16.725h-9.613v-16.725z"/><path d="M245.646 551.987h20.734v16.725h-20.734v-16.725z"/><path d="M166.298 551.987h50.041v16.725h-50.041v-16.725z"/><path d="M295.685 551.987h11.121v16.725h-11.121v-16.725z"/><path d="M306.806 551.987h9.613v16.725h-9.613v-16.725z"/><path d="M282.479 551.987h13.205v16.725h-13.205v-16.725z"/><path d="M316.419 551.987h8.572v16.725h-8.572v-16.725z"/><path d="M140.583 468.364h9.613v16.725h-9.613v-16.725z"/><path d="M266.38 551.987h16.1v16.725h-16.1v-16.725z"/><path d="M216.339 551.987h29.307v16.725h-29.307v-16.725z"/><path d="M140.583 284.394h9.613v16.725h-9.613v-16.725z"/><path d="M140.583 267.669h9.613v16.725h-9.613v-16.725z"/><path d="M140.583 317.843h9.613v16.725h-9.613v-16.725z"/><path d="M140.583 301.118h9.613v16.725h-9.613v-16.725z"/><path d="M140.583 217.495h9.613v16.725h-9.613v-16.725z"/><path d="M140.583 250.944h9.613v16.725h-9.613v-16.725z"/><path d="M140.583 234.22h9.613v16.725h-9.613V234.22z"/><path d="M140.583 384.741h9.613v16.725h-9.613v-16.725z"/><path d="M140.583 418.19h9.613v16.725h-9.613V418.19z"/><path d="M140.583 434.915h9.613v16.725h-9.613v-16.725z"/><path d="M140.583 401.466h9.613v16.725h-9.613v-16.725z"/><path d="M140.583 368.017h9.613v16.725h-9.613v-16.725z"/><path d="M140.583 351.292h9.613v16.725h-9.613v-16.725z"/><path d="M140.583 334.567h9.613v16.725h-9.613v-16.725z"/><path d="M140.583 451.64h9.613v16.725h-9.613V451.64z"/><path d="M382.677 384.741h29.307v16.725h-29.307v-16.725z"/><path d="M382.677 267.669h29.307v16.725h-29.307v-16.725z"/><path d="M382.677 250.944h29.307v16.725h-29.307v-16.725z"/><path d="M382.677 334.567h29.307v16.725h-29.307v-16.725z"/><path d="M382.677 301.118h29.307v16.725h-29.307v-16.725z"/><path d="M332.636 100.423h50.041v16.725h-50.041v-16.725z"/><path d="M382.677 284.394h29.307v16.725h-29.307v-16.725z"/><path d="M382.677 217.495h29.307v16.725h-29.307v-16.725z"/><path d="M382.677 234.22h29.307v16.725h-29.307V234.22z"/><path d="M382.677 200.771h29.307v16.725h-29.307v-16.725z"/><path d="M382.677 100.423h29.307v16.725h-29.307v-16.725z"/><path d="M382.677 133.872h29.307v16.725h-29.307v-16.725z"/><path d="M382.677 117.147h29.307v16.725h-29.307v-16.725z"/><path d="M382.677 150.597h29.307v16.725h-29.307v-16.725z"/><path d="M382.677 184.046h29.307v16.725h-29.307v-16.725z"/><path d="M382.677 167.321h29.307v16.725h-29.307v-16.725z"/><path d="M382.677 518.538h29.307v16.725h-29.307v-16.725z"/><path d="M324.991 551.987h7.645v16.725h-7.645v-16.725z"/><path d="M382.677 501.813h29.307v16.725h-29.307v-16.725z"/><path d="M382.677 485.089h29.307v16.725h-29.307v-16.725z"/><path d="M332.636 551.987h50.041v16.725h-50.041v-16.725z"/><path d="M382.677 351.292h29.307v16.725h-29.307v-16.725z"/><path d="M382.677 551.987h29.307v16.725h-29.307v-16.725z"/><path d="M382.677 535.263h29.307v16.725h-29.307v-16.725z"/><path d="M382.677 468.364h29.307v16.725h-29.307v-16.725z"/><path d="M382.677 401.466h29.307v16.725h-29.307v-16.725z"/><path d="M382.677 451.64h29.307v16.725h-29.307V451.64z"/><path d="M382.677 368.017h29.307v16.725h-29.307v-16.725z"/><path d="M140.583 200.771h9.613v16.725h-9.613v-16.725z"/><path d="M382.677 418.19h29.307v16.725h-29.307V418.19z"/><path d="M382.677 434.915h29.307v16.725h-29.307v-16.725z"/><path d="M382.677 317.843h29.307v16.725h-29.307v-16.725z"/><path d="M324.991 535.263h7.645v16.725h-7.645v-16.725z"/><path d="M332.636 535.263h50.041v16.725h-50.041v-16.725z"/><path d="M316.419 535.263h8.572v16.725h-8.572v-16.725z"/><path d="M266.38 535.263h16.1v16.725h-16.1v-16.725z"/><path d="M282.479 535.263h13.205v16.725h-13.205v-16.725z"/><path d="M306.806 535.263h9.613v16.725h-9.613v-16.725z"/><path d="M295.685 535.263h11.121v16.725h-11.121v-16.725z"/><path d="M332.636 518.538h50.041v16.725h-50.041v-16.725z"/><path d="M332.636 501.813h50.041v16.725h-50.041v-16.725z"/><path d="M332.636 418.19h50.041v16.725h-50.041V418.19z"/><path d="M140.583 184.046h9.613v16.725h-9.613v-16.725z"/><path d="M332.636 434.915h50.041v16.725h-50.041v-16.725z"/><path d="M332.636 485.089h50.041v16.725h-50.041v-16.725z"/><path d="M332.636 451.64h50.041v16.725h-50.041V451.64z"/><path d="M332.636 468.364h50.041v16.725h-50.041v-16.725z"/><path d="M150.196 518.538h8.573v16.725h-8.573v-16.725z"/><path d="M150.196 468.364h8.573v16.725h-8.573v-16.725z"/><path d="M150.196 418.19h8.573v16.725h-8.573V418.19z"/><path d="M150.196 451.64h8.573v16.725h-8.573V451.64z"/><path d="M150.196 434.915h8.573v16.725h-8.573v-16.725z"/><path d="M245.646 535.263h20.734v16.725h-20.734v-16.725z"/><path d="M150.196 368.017h8.573v16.725h-8.573v-16.725z"/><path d="M150.196 384.741h8.573v16.725h-8.573v-16.725z"/><path d="M150.196 401.466h8.573v16.725h-8.573v-16.725z"/><path d="M150.196 485.089h8.573v16.725h-8.573v-16.725z"/><path d="M166.298 535.263h50.041v16.725h-50.041v-16.725z"/><path d="M216.339 535.263h29.307v16.725h-29.307v-16.725z"/><path d="M158.769 535.263h7.529v16.725h-7.529v-16.725z"/><path d="M150.196 535.263h8.573v16.725h-8.573v-16.725z"/><path d="M150.196 501.813h8.573v16.725h-8.573v-16.725z"/><path d="M332.636 384.741h50.041v16.725h-50.041v-16.725z"/><path d="M332.636 401.466h50.041v16.725h-50.041v-16.725z"/><path d="M216.339 117.147h29.307v16.725h-29.307v-16.725z"/><path d="M282.479 117.147h13.205v16.725h-13.205v-16.725z"/><path d="M245.646 117.147h20.734v16.725h-20.734v-16.725z"/><path d="M266.38 117.147h16.1v16.725h-16.1v-16.725z"/><path d="M316.419 117.147h8.572v16.725h-8.572v-16.725z"/><path d="M295.685 117.147h11.121v16.725h-11.121v-16.725z"/><path d="M324.991 117.147h7.645v16.725h-7.645v-16.725z"/><path d="M306.806 117.147h9.613v16.725h-9.613v-16.725z"/><path d="M140.583 150.597h9.613v16.725h-9.613v-16.725z"/><path d="M166.298 117.147h50.041v16.725h-50.041v-16.725z"/><path d="M140.583 167.321h9.613v16.725h-9.613v-16.725z"/><path d="M140.583 133.872h9.613v16.725h-9.613v-16.725z"/><path d="M158.769 117.147h7.529v16.725h-7.529v-16.725z"/><path d="M150.196 117.147h8.573v16.725h-8.573v-16.725z"/><path d="M140.583 117.147h9.613v16.725h-9.613v-16.725z"/><path d="M332.636 200.771h50.041v16.725h-50.041v-16.725z"/><path d="M332.636 284.394h50.041v16.725h-50.041v-16.725z"/><path d="M332.636 267.669h50.041v16.725h-50.041v-16.725z"/><path d="M332.636 301.118h50.041v16.725h-50.041v-16.725z"/><path d="M332.636 317.843h50.041v16.725h-50.041v-16.725z"/><path d="M332.636 250.944h50.041v16.725h-50.041v-16.725z"/><path d="M332.636 351.292h50.041v16.725h-50.041v-16.725z"/><path d="M332.636 334.567h50.041v16.725h-50.041v-16.725z"/><path d="M332.636 368.017h50.041v16.725h-50.041v-16.725z"/><path d="M332.636 150.597h50.041v16.725h-50.041v-16.725z"/><path d="M332.636 167.321h50.041v16.725h-50.041v-16.725z"/><path d="M332.636 234.22h50.041v16.725h-50.041V234.22z"/><path d="M332.636 133.872h50.041v16.725h-50.041v-16.725z"/><path d="M332.636 184.046h50.041v16.725h-50.041v-16.725z"/><path d="M332.636 217.495h50.041v16.725h-50.041v-16.725z"/><path d="M332.636 117.147h50.041v16.725h-50.041v-16.725z"/><path d="M116.257 501.813h13.205v16.725h-13.205v-16.725z"/><path d="M411.983 100.423h20.734v16.725h-20.734v-16.725z"/><path d="M411.983 83.698h20.734v16.725h-20.734V83.698z"/><path d="M382.677 83.698h29.307v16.725h-29.307V83.698z"/><path d="M411.983 150.597h20.734v16.725h-20.734v-16.725z"/><path d="M332.636 83.698h50.041v16.725h-50.041V83.698z"/><path d="M411.983 117.147h20.734v16.725h-20.734v-16.725z"/><path d="M411.983 133.872h20.734v16.725h-20.734v-16.725z"/><path d="M245.646 83.698h20.734v16.725h-20.734V83.698z"/><path d="M266.38 83.698h16.1v16.725h-16.1V83.698z"/><path d="M282.479 83.698h13.205v16.725h-13.205V83.698z"/><path d="M411.983 167.321h20.734v16.725h-20.734v-16.725z"/><path d="M324.991 83.698h7.645v16.725h-7.645V83.698z"/><path d="M295.685 83.698h11.121v16.725h-11.121V83.698z"/><path d="M316.419 83.698h8.572v16.725h-8.572V83.698z"/><path d="M306.806 83.698h9.613v16.725h-9.613V83.698z"/><path d="M411.983 250.944h20.734v16.725h-20.734v-16.725z"/><path d="M411.983 351.292h20.734v16.725h-20.734v-16.725z"/><path d="M411.983 368.017h20.734v16.725h-20.734v-16.725z"/><path d="M411.983 184.046h20.734v16.725h-20.734v-16.725z"/><path d="M411.983 418.19h20.734v16.725h-20.734V418.19z"/><path d="M411.983 317.843h20.734v16.725h-20.734v-16.725z"/><path d="M411.983 384.741h20.734v16.725h-20.734v-16.725z"/><path d="M411.983 401.466h20.734v16.725h-20.734v-16.725z"/><path d="M411.983 334.567h20.734v16.725h-20.734v-16.725z"/><path d="M411.983 217.495h20.734v16.725h-20.734v-16.725z"/><path d="M411.983 301.118h20.734v16.725h-20.734v-16.725z"/><path d="M411.983 200.771h20.734v16.725h-20.734v-16.725z"/><path d="M411.983 234.22h20.734v16.725h-20.734V234.22z"/><path d="M411.983 284.394h20.734v16.725h-20.734v-16.725z"/><path d="M411.983 434.915h20.734v16.725h-20.734v-16.725z"/><path d="M216.339 83.698h29.307v16.725h-29.307V83.698z"/><path d="M411.983 267.669h20.734v16.725h-20.734v-16.725z"/><path d="M116.257 351.292h13.205v16.725h-13.205v-16.725z"/><path d="M116.257 368.017h13.205v16.725h-13.205v-16.725z"/><path d="M116.257 334.567h13.205v16.725h-13.205v-16.725z"/><path d="M116.257 301.118h13.205v16.725h-13.205v-16.725z"/><path d="M116.257 284.394h13.206v16.725h-13.206v-16.725z"/><path d="M116.257 384.741h13.205v16.725h-13.205v-16.725z"/><path d="M116.257 317.843h13.205v16.725h-13.205v-16.725z"/><path d="M116.257 418.19h13.205v16.725h-13.205V418.19z"/><path d="M116.257 401.466h13.205v16.725h-13.205v-16.725z"/><path d="M116.257 485.089h13.205v16.725h-13.205v-16.725z"/><path d="M150.196 351.292h8.573v16.725h-8.573v-16.725z"/><path d="M116.257 468.364h13.205v16.725h-13.205v-16.725z"/><path d="M116.257 451.64h13.205v16.725h-13.205V451.64z"/><path d="M116.257 267.669h13.206v16.725h-13.206v-16.725z"/><path d="M116.257 434.915h13.205v16.725h-13.205v-16.725z"/><path d="M116.257 167.321h13.206v16.725h-13.206v-16.725z"/><path d="M116.257 83.698h13.206v16.725h-13.206V83.698z"/><path d="M129.462 83.698h11.121v16.725h-11.121V83.698z"/><path d="M116.257 100.423h13.206v16.725h-13.206v-16.725z"/><path d="M116.257 117.147h13.206v16.725h-13.206v-16.725z"/><path d="M140.583 83.698h9.613v16.725h-9.613V83.698z"/><path d="M158.769 83.698h7.529v16.725h-7.529V83.698z"/><path d="M150.196 83.698h8.573v16.725h-8.573V83.698z"/><path d="M116.257 518.538h13.205v16.725h-13.205v-16.725z"/><path d="M116.257 250.944h13.206v16.725h-13.206v-16.725z"/><path d="M116.257 217.495h13.206v16.725h-13.206v-16.725z"/><path d="M116.257 133.872h13.206v16.725h-13.206v-16.725z"/><path d="M116.257 234.22h13.206v16.725h-13.206V234.22z"/><path d="M116.257 184.046h13.206v16.725h-13.206v-16.725z"/><path d="M116.257 150.597h13.206v16.725h-13.206v-16.725z"/><path d="M166.298 83.698h50.041v16.725h-50.041V83.698z"/><path d="M306.806 568.712h9.613v16.725h-9.613v-16.725z"/><path d="M129.462 250.944h11.121v16.725h-11.121v-16.725z"/><path d="M129.462 267.669h11.121v16.725h-11.121v-16.725z"/><path d="M129.462 284.394h11.121v16.725h-11.121v-16.725z"/><path d="M129.462 234.22h11.121v16.725h-11.121V234.22z"/><path d="M129.462 418.19h11.122v16.725h-11.122V418.19z"/><path d="M129.462 184.046h11.121v16.725h-11.121v-16.725z"/><path d="M129.462 200.771h11.121v16.725h-11.121v-16.725z"/><path d="M129.462 167.321h11.121v16.725h-11.121v-16.725z"/><path d="M129.462 384.741h11.122v16.725h-11.122v-16.725z"/><path d="M129.462 368.017h11.122v16.725h-11.122v-16.725z"/><path d="M129.462 401.466h11.122v16.725h-11.122v-16.725z"/><path d="M411.983 451.64h20.734v16.725h-20.734V451.64z"/><path d="M129.462 301.118h11.122v16.725h-11.122v-16.725z"/><path d="M129.462 334.567h11.122v16.725h-11.122v-16.725z"/><path d="M129.462 351.292h11.122v16.725h-11.122v-16.725z"/><path d="M129.462 217.495h11.121v16.725h-11.121v-16.725z"/><path d="M266.38 100.423h16.1v16.725h-16.1v-16.725z"/><path d="M282.479 100.423h13.205v16.725h-13.205v-16.725z"/><path d="M245.646 100.423h20.734v16.725h-20.734v-16.725z"/><path d="M306.806 100.423h9.613v16.725h-9.613v-16.725z"/><path d="M316.419 100.423h8.572v16.725h-8.572v-16.725z"/><path d="M295.685 100.423h11.121v16.725h-11.121v-16.725z"/><path d="M216.339 100.423h29.307v16.725h-29.307v-16.725z"/><path d="M129.462 117.147h11.121v16.725h-11.121v-16.725z"/><path d="M129.462 150.597h11.121v16.725h-11.121v-16.725z"/><path d="M166.298 100.423h50.041v16.725h-50.041v-16.725z"/><path d="M129.462 100.423h11.121v16.725h-11.121v-16.725z"/><path d="M129.462 133.872h11.121v16.725h-11.121v-16.725z"/><path d="M140.583 100.423h9.613v16.725h-9.613v-16.725z"/><path d="M158.769 100.423h7.529v16.725h-7.529v-16.725z"/><path d="M150.196 100.423h8.573v16.725h-8.573v-16.725z"/><path d="M129.462 317.843h11.122v16.725h-11.122v-16.725z"/><path d="M316.419 568.712h8.572v16.725h-8.572v-16.725z"/><path d="M324.991 568.712h7.645v16.725h-7.645v-16.725z"/><path d="M332.636 568.712h50.041v16.725h-50.041v-16.725z"/><path d="M295.685 568.712h11.121v16.725h-11.121v-16.725z"/><path d="M282.479 568.712h13.205v16.725h-13.205v-16.725z"/><path d="M382.677 568.712h29.307v16.725h-29.307v-16.725z"/><path d="M324.991 100.423h7.645v16.725h-7.645v-16.725z"/><path d="M411.983 568.712h20.734v16.725h-20.734v-16.725z"/><path d="M411.983 485.089h20.734v16.725h-20.734v-16.725z"/><path d="M411.983 501.813h20.734v16.725h-20.734v-16.725z"/><path d="M411.983 468.364h20.734v16.725h-20.734v-16.725z"/><path d="M411.983 518.538h20.734v16.725h-20.734v-16.725z"/><path d="M411.983 551.987h20.734v16.725h-20.734v-16.725z"/><path d="M411.983 535.263h20.734v16.725h-20.734v-16.725z"/><path d="M266.38 568.712h16.1v16.725h-16.1v-16.725z"/><path d="M129.462 518.538h11.122v16.725h-11.122v-16.725z"/><path d="M129.462 501.813h11.122v16.725h-11.122v-16.725z"/><path d="M129.462 434.915h11.122v16.725h-11.122v-16.725z"/><path d="M129.462 535.263h11.122v16.725h-11.122v-16.725z"/><path d="M129.462 551.987h11.122v16.725h-11.122v-16.725z"/><path d="M129.462 451.64h11.122v16.725h-11.122V451.64z"/><path d="M129.462 485.089h11.122v16.725h-11.122v-16.725z"/><path d="M129.462 468.364h11.122v16.725h-11.122v-16.725z"/><path d="M245.646 568.712h20.734v16.725h-20.734v-16.725z"/><path d="M166.298 568.712h50.041v16.725h-50.041v-16.725z"/><path d="M158.769 568.712h7.529v16.725h-7.529v-16.725z"/><path d="M216.339 568.712h29.307v16.725h-29.307v-16.725z"/><path d="M129.462 568.712h11.122v16.725h-11.122v-16.725z"/><path d="M150.196 568.712h8.573v16.725h-8.573v-16.725z"/><path d="M140.583 568.712h9.613v16.725h-9.613v-16.725z"/><path d="M116.257 200.771h13.206v16.725h-13.206v-16.725z"/><path d="M216.339 401.466h29.307v16.725h-29.307v-16.725z"/><path d="M216.339 368.017h29.307v16.725h-29.307v-16.725z"/><path d="M216.339 384.741h29.307v16.725h-29.307v-16.725z"/><path d="M216.339 351.292h29.307v16.725h-29.307v-16.725z"/><path d="M216.339 301.118h29.307v16.725h-29.307v-16.725z"/><path d="M216.339 334.567h29.307v16.725h-29.307v-16.725z"/><path d="M216.339 317.843h29.307v16.725h-29.307v-16.725z"/><path d="M216.339 434.915h29.307v16.725h-29.307v-16.725z"/><path d="M245.646 485.089h20.734v16.725h-20.734v-16.725z"/><path d="M266.38 485.089h16.1v16.725h-16.1v-16.725z"/><path d="M216.339 485.089h29.307v16.725h-29.307v-16.725z"/><path d="M282.479 485.089h13.205v16.725h-13.205v-16.725z"/><path d="M216.339 418.19h29.307v16.725h-29.307V418.19z"/><path d="M216.339 284.394h29.307v16.725h-29.307v-16.725z"/><path d="M216.339 451.64h29.307v16.725h-29.307V451.64z"/><path d="M216.339 468.364h29.307v16.725h-29.307v-16.725z"/><path d="M295.685 200.771h11.121v16.725h-11.121v-16.725z"/><path d="M295.685 184.046h11.121v16.725h-11.121v-16.725z"/><path d="M295.685 217.495h11.121v16.725h-11.121v-16.725z"/><path d="M295.685 250.944h11.121v16.725h-11.121v-16.725z"/><path d="M295.685 267.669h11.121v16.725h-11.121v-16.725z"/><path d="M295.685 234.22h11.121v16.725h-11.121V234.22z"/><path d="M166.298 250.944h50.041v16.725h-50.041v-16.725z"/><path d="M282.479 184.046h13.205v16.725h-13.205v-16.725z"/><path d="M216.339 217.495h29.307v16.725h-29.307v-16.725z"/><path d="M216.339 234.22h29.307v16.725h-29.307V234.22z"/><path d="M216.339 250.944h29.307v16.725h-29.307v-16.725z"/><path d="M266.38 184.046h16.1v16.725h-16.1v-16.725z"/><path d="M245.646 184.046h20.734v16.725h-20.734v-16.725z"/><path d="M216.339 200.771h29.307v16.725h-29.307v-16.725z"/><path d="M216.339 184.046h29.307v16.725h-29.307v-16.725z"/><path d="M306.806 301.118h9.613v16.725h-9.613v-16.725z"/><path d="M295.685 167.321h11.121v16.725h-11.121v-16.725z"/><path d="M282.479 167.321h13.205v16.725h-13.205v-16.725z"/><path d="M266.38 167.321h16.1v16.725h-16.1v-16.725z"/><path d="M306.806 167.321h9.613v16.725h-9.613v-16.725z"/><path d="M306.806 217.495h9.613v16.725h-9.613v-16.725z"/><path d="M306.806 200.771h9.613v16.725h-9.613v-16.725z"/><path d="M306.806 184.046h9.613v16.725h-9.613v-16.725z"/><path d="M306.806 234.22h9.613v16.725h-9.613V234.22z"/><path d="M166.298 217.495h50.041v16.725h-50.041v-16.725z"/><path d="M295.685 485.089h11.121v16.725h-11.121v-16.725z"/><path d="M166.298 234.22h50.041v16.725h-50.041V234.22z"/><path d="M166.298 184.046h50.041v16.725h-50.041v-16.725z"/><path d="M245.646 167.321h20.734v16.725h-20.734v-16.725z"/><path d="M216.339 167.321h29.307v16.725h-29.307v-16.725z"/><path d="M166.298 167.321h50.041v16.725h-50.041v-16.725z"/><path d="M166.298 200.771h50.041v16.725h-50.041v-16.725z"/><path d="M306.806 250.944h9.613v16.725h-9.613v-16.725z"/><path d="M306.806 418.19h9.613v16.725h-9.613V418.19z"/><path d="M306.806 401.466h9.613v16.725h-9.613v-16.725z"/><path d="M306.806 468.364h9.613v16.725h-9.613v-16.725z"/><path d="M306.806 451.64h9.613v16.725h-9.613V451.64z"/><path d="M306.806 485.089h9.613v16.725h-9.613v-16.725z"/><path d="M306.806 384.741h9.613v16.725h-9.613v-16.725z"/><path d="M306.806 434.915h9.613v16.725h-9.613v-16.725z"/><path d="M295.685 284.394h11.121v16.725h-11.121v-16.725z"/><path d="M306.806 284.394h9.613v16.725h-9.613v-16.725z"/><path d="M306.806 368.017h9.613v16.725h-9.613v-16.725z"/><path d="M306.806 267.669h9.613v16.725h-9.613v-16.725z"/><path d="M306.806 317.843h9.613v16.725h-9.613v-16.725z"/><path d="M306.806 351.292h9.613v16.725h-9.613v-16.725z"/><path d="M306.806 334.567h9.613v16.725h-9.613v-16.725z"/><path d="M216.339 267.669h29.307v16.725h-29.307v-16.725z"/><path d="M282.479 384.741h13.205v16.725h-13.205v-16.725z"/><path d="M282.479 334.567h13.205v16.725h-13.205v-16.725z"/><path d="M282.479 351.292h13.205v16.725h-13.205v-16.725z"/><path d="M282.479 368.017h13.205v16.725h-13.205v-16.725z"/><path d="M282.479 434.915h13.205v16.725h-13.205v-16.725z"/><path d="M282.479 401.466h13.205v16.725h-13.205v-16.725z"/><path d="M282.479 418.19h13.205v16.725h-13.205V418.19z"/><path d="M282.479 451.64h13.205v16.725h-13.205V451.64z"/><path d="M282.479 234.22h13.205v16.725h-13.205V234.22z"/><path d="M282.479 250.944h13.205v16.725h-13.205v-16.725z"/><path d="M295.685 301.118h11.121v16.725h-11.121v-16.725z"/><path d="M282.479 284.394h13.205v16.725h-13.205v-16.725z"/><path d="M282.479 301.118h13.205v16.725h-13.205v-16.725z"/><path d="M282.479 267.669h13.205v16.725h-13.205v-16.725z"/><path d="M282.479 317.843h13.205v16.725h-13.205v-16.725z"/><path d="M266.38 434.915h16.1v16.725h-16.1v-16.725z"/><path d="M266.38 267.669h16.1v16.725h-16.1v-16.725z"/><path d="M266.38 284.394h16.1v16.725h-16.1v-16.725z"/><path d="M266.38 301.118h16.1v16.725h-16.1v-16.725z"/><path d="M266.38 217.495h16.1v16.725h-16.1v-16.725z"/><path d="M266.38 317.843h16.1v16.725h-16.1v-16.725z"/><path d="M266.38 250.944h16.1v16.725h-16.1v-16.725z"/><path d="M266.38 234.22h16.1v16.725h-16.1V234.22z"/><path d="M266.38 451.64h16.1v16.725h-16.1V451.64z"/><path d="M266.38 418.19h16.1v16.725h-16.1V418.19z"/><path d="M266.38 401.466h16.1v16.725h-16.1v-16.725z"/><path d="M282.479 200.771h13.205v16.725h-13.205v-16.725z"/><path d="M266.38 384.741h16.1v16.725h-16.1v-16.725z"/><path d="M266.38 351.292h16.1v16.725h-16.1v-16.725z"/><path d="M266.38 368.017h16.1v16.725h-16.1v-16.725z"/><path d="M266.38 334.567h16.1v16.725h-16.1v-16.725z"/><path d="M282.479 217.495h13.205v16.725h-13.205v-16.725z"/><path d="M295.685 468.364h11.121v16.725h-11.121v-16.725z"/><path d="M282.479 468.364h13.205v16.725h-13.205v-16.725z"/><path d="M295.685 451.64h11.121v16.725h-11.121V451.64z"/><path d="M245.646 468.364h20.734v16.725h-20.734v-16.725z"/><path d="M245.646 451.64h20.734v16.725h-20.734V451.64z"/><path d="M295.685 434.915h11.121v16.725h-11.121v-16.725z"/><path d="M266.38 468.364h16.1v16.725h-16.1v-16.725z"/><path d="M295.685 418.19h11.121v16.725h-11.121V418.19z"/><path d="M245.646 434.915h20.734v16.725h-20.734v-16.725z"/><path d="M295.685 351.292h11.121v16.725h-11.121v-16.725z"/><path d="M295.685 317.843h11.121v16.725h-11.121v-16.725z"/><path d="M295.685 334.567h11.121v16.725h-11.121v-16.725z"/><path d="M295.685 401.466h11.121v16.725h-11.121v-16.725z"/><path d="M295.685 384.741h11.121v16.725h-11.121v-16.725z"/><path d="M295.685 368.017h11.121v16.725h-11.121v-16.725z"/><path d="M245.646 418.19h20.734v16.725h-20.734V418.19z"/><path d="M245.646 250.944h20.734v16.725h-20.734v-16.725z"/><path d="M245.646 267.669h20.734v16.725h-20.734v-16.725z"/><path d="M245.646 284.394h20.734v16.725h-20.734v-16.725z"/><path d="M266.38 200.771h16.1v16.725h-16.1v-16.725z"/><path d="M245.646 200.771h20.734v16.725h-20.734v-16.725z"/><path d="M245.646 301.118h20.734v16.725h-20.734v-16.725z"/><path d="M245.646 217.495h20.734v16.725h-20.734v-16.725z"/><path d="M245.646 234.22h20.734v16.725h-20.734V234.22z"/><path d="M245.646 384.741h20.734v16.725h-20.734v-16.725z"/><path d="M245.646 401.466h20.734v16.725h-20.734v-16.725z"/><path d="M245.646 317.843h20.734v16.725h-20.734v-16.725z"/><path d="M245.646 368.017h20.734v16.725h-20.734v-16.725z"/><path d="M245.646 334.567h20.734v16.725h-20.734v-16.725z"/><path d="M245.646 351.292h20.734v16.725h-20.734v-16.725z"/><path d="M150.196 301.118h8.573v16.725h-8.573v-16.725z"/><path d="M324.991 468.364h7.645v16.725h-7.645v-16.725z"/><path d="M324.991 434.915h7.645v16.725h-7.645v-16.725z"/><path d="M324.991 451.64h7.645v16.725h-7.645V451.64z"/><path d="M324.991 485.089h7.645v16.725h-7.645v-16.725z"/><path d="M324.991 501.813h7.645v16.725h-7.645v-16.725z"/><path d="M316.419 518.538h8.572v16.725h-8.572v-16.725z"/><path d="M306.806 518.538h9.613v16.725h-9.613v-16.725z"/><path d="M324.991 518.538h7.645v16.725h-7.645v-16.725z"/><path d="M324.991 351.292h7.645v16.725h-7.645v-16.725z"/><path d="M324.991 418.19h7.645v16.725h-7.645V418.19z"/><path d="M324.991 317.843h7.645v16.725h-7.645v-16.725z"/><path d="M324.991 301.118h7.645v16.725h-7.645v-16.725z"/><path d="M324.991 368.017h7.645v16.725h-7.645v-16.725z"/><path d="M324.991 401.466h7.645v16.725h-7.645v-16.725z"/><path d="M324.991 384.741h7.645v16.725h-7.645v-16.725z"/><path d="M324.991 334.567h7.645v16.725h-7.645v-16.725z"/><path d="M158.769 451.64h7.529v16.725h-7.529V451.64z"/><path d="M158.769 434.915h7.529v16.725h-7.529v-16.725z"/><path d="M158.769 468.364h7.529v16.725h-7.529v-16.725z"/><path d="M158.769 384.741h7.529v16.725h-7.529v-16.725z"/><path d="M158.769 418.19h7.529v16.725h-7.529V418.19z"/><path d="M158.769 485.089h7.529v16.725h-7.529v-16.725z"/><path d="M158.769 401.466h7.529v16.725h-7.529v-16.725z"/><path d="M216.339 518.538h29.307v16.725h-29.307v-16.725z"/><path d="M245.646 518.538h20.734v16.725h-20.734v-16.725z"/><path d="M158.769 368.017h7.529v16.725h-7.529v-16.725z"/><path d="M282.479 518.538h13.205v16.725h-13.205v-16.725z"/><path d="M158.769 501.813h7.529v16.725h-7.529v-16.725z"/><path d="M158.769 518.538h7.529v16.725h-7.529v-16.725z"/><path d="M166.298 518.538h50.041v16.725h-50.041v-16.725z"/><path d="M295.685 518.538h11.121v16.725h-11.121v-16.725z"/><path d="M266.38 518.538h16.1v16.725h-16.1v-16.725z"/><path d="M150.196 167.321h8.573v16.725h-8.573v-16.725z"/><path d="M150.196 150.597h8.573v16.725h-8.573v-16.725z"/><path d="M150.196 200.771h8.573v16.725h-8.573v-16.725z"/><path d="M150.196 184.046h8.573v16.725h-8.573v-16.725z"/><path d="M166.298 133.872h50.041v16.725h-50.041v-16.725z"/><path d="M150.196 133.872h8.573v16.725h-8.573v-16.725z"/><path d="M158.769 133.872h7.529v16.725h-7.529v-16.725z"/><path d="M150.196 284.394h8.573v16.725h-8.573v-16.725z"/><path d="M150.196 334.567h8.573v16.725h-8.573v-16.725z"/><path d="M216.339 133.872h29.307v16.725h-29.307v-16.725z"/><path d="M150.196 217.495h8.573v16.725h-8.573v-16.725z"/><path d="M150.196 317.843h8.573v16.725h-8.573v-16.725z"/><path d="M150.196 234.22h8.573v16.725h-8.573V234.22z"/><path d="M150.196 250.944h8.573v16.725h-8.573v-16.725z"/><path d="M150.196 267.669h8.573v16.725h-8.573v-16.725z"/><path d="M324.991 184.046h7.645v16.725h-7.645v-16.725z"/><path d="M324.991 200.771h7.645v16.725h-7.645v-16.725z"/><path d="M324.991 167.321h7.645v16.725h-7.645v-16.725z"/><path d="M245.646 133.872h20.734v16.725h-20.734v-16.725z"/><path d="M324.991 217.495h7.645v16.725h-7.645v-16.725z"/><path d="M324.991 267.669h7.645v16.725h-7.645v-16.725z"/><path d="M324.991 234.22h7.645v16.725h-7.645V234.22z"/><path d="M324.991 250.944h7.645v16.725h-7.645v-16.725z"/><path d="M324.991 284.394h7.645v16.725h-7.645v-16.725z"/><path d="M295.685 133.872h11.121v16.725h-11.121v-16.725z"/><path d="M282.479 133.872h13.205v16.725h-13.205v-16.725z"/><path d="M266.38 133.872h16.1v16.725h-16.1v-16.725z"/><path d="M316.419 133.872h8.572v16.725h-8.572v-16.725z"/><path d="M324.991 133.872h7.645v16.725h-7.645v-16.725z"/><path d="M324.991 150.597h7.645v16.725h-7.645v-16.725z"/><path d="M306.806 133.872h9.613v16.725h-9.613v-16.725z"/><path d="M295.685 501.813h11.121v16.725h-11.121v-16.725z"/><path d="M245.646 501.813h20.734v16.725h-20.734v-16.725z"/><path d="M306.806 501.813h9.613v16.725h-9.613v-16.725z"/><path d="M316.419 485.089h8.572v16.725h-8.572v-16.725z"/><path d="M266.38 501.813h16.1v16.725h-16.1v-16.725z"/><path d="M316.419 468.364h8.572v16.725h-8.572v-16.725z"/><path d="M282.479 501.813h13.205v16.725h-13.205v-16.725z"/><path d="M166.298 267.669h50.041v16.725h-50.041v-16.725z"/><path d="M316.419 501.813h8.572v16.725h-8.572v-16.725z"/><path d="M316.419 451.64h8.572v16.725h-8.572V451.64z"/><path d="M316.419 384.741h8.572v16.725h-8.572v-16.725z"/><path d="M316.419 351.292h8.572v16.725h-8.572v-16.725z"/><path d="M316.419 368.017h8.572v16.725h-8.572v-16.725z"/><path d="M316.419 434.915h8.572v16.725h-8.572v-16.725z"/><path d="M316.419 401.466h8.572v16.725h-8.572v-16.725z"/><path d="M316.419 418.19h8.572v16.725h-8.572V418.19z"/><path d="M166.298 434.915h50.041v16.725h-50.041v-16.725z"/><path d="M166.298 351.292h50.041v16.725h-50.041v-16.725z"/><path d="M216.339 501.813h29.307v16.725h-29.307v-16.725z"/><path d="M166.298 368.017h50.041v16.725h-50.041v-16.725z"/><path d="M166.298 334.567h50.041v16.725h-50.041v-16.725z"/><path d="M166.298 284.394h50.041v16.725h-50.041v-16.725z"/><path d="M166.298 317.843h50.041v16.725h-50.041v-16.725z"/><path d="M166.298 301.118h50.041v16.725h-50.041v-16.725z"/><path d="M166.298 384.741h50.041v16.725h-50.041v-16.725z"/><path d="M166.298 485.089h50.041v16.725h-50.041v-16.725z"/><path d="M166.298 501.813h50.041v16.725h-50.041v-16.725z"/><path d="M166.298 468.364h50.041v16.725h-50.041v-16.725z"/><path d="M166.298 401.466h50.041v16.725h-50.041v-16.725z"/><path d="M166.298 418.19h50.041v16.725h-50.041V418.19z"/><path d="M316.419 334.567h8.572v16.725h-8.572v-16.725z"/><path d="M166.298 451.64h50.041v16.725h-50.041V451.64z"/><path d="M295.685 150.597h11.121v16.725h-11.121v-16.725z"/><path d="M158.769 167.321h7.529v16.725h-7.529v-16.725z"/><path d="M158.769 184.046h7.529v16.725h-7.529v-16.725z"/><path d="M158.769 217.495h7.529v16.725h-7.529v-16.725z"/><path d="M158.769 200.771h7.529v16.725h-7.529v-16.725z"/><path d="M216.339 150.597h29.307v16.725h-29.307v-16.725z"/><path d="M245.646 150.597h20.734v16.725h-20.734v-16.725z"/><path d="M158.769 150.597h7.529v16.725h-7.529v-16.725z"/><path d="M166.298 150.597h50.041v16.725h-50.041v-16.725z"/><path d="M158.769 317.843h7.529v16.725h-7.529v-16.725z"/><path d="M158.769 301.118h7.529v16.725h-7.529v-16.725z"/><path d="M158.769 334.567h7.529v16.725h-7.529v-16.725z"/><path d="M158.769 250.944h7.529v16.725h-7.529v-16.725z"/><path d="M316.419 317.843h8.572v16.725h-8.572v-16.725z"/><path d="M158.769 284.394h7.529v16.725h-7.529v-16.725z"/><path d="M158.769 267.669h7.529v16.725h-7.529v-16.725z"/><path d="M158.769 234.22h7.529v16.725h-7.529V234.22z"/><path d="M316.419 234.22h8.572v16.725h-8.572V234.22z"/><path d="M316.419 200.771h8.572v16.725h-8.572v-16.725z"/><path d="M316.419 250.944h8.572v16.725h-8.572v-16.725z"/><path d="M316.419 217.495h8.572v16.725h-8.572v-16.725z"/><path d="M316.419 267.669h8.572v16.725h-8.572v-16.725z"/><path d="M266.38 150.597h16.1v16.725h-16.1v-16.725z"/><path d="M316.419 284.394h8.572v16.725h-8.572v-16.725z"/><path d="M316.419 301.118h8.572v16.725h-8.572v-16.725z"/><path d="M158.769 351.292h7.529v16.725h-7.529v-16.725z"/><path d="M282.479 150.597h13.205v16.725h-13.205v-16.725z"/><path d="M306.806 150.597h9.613v16.725h-9.613v-16.725z"/><path d="M316.419 184.046h8.572v16.725h-8.572v-16.725z"/><path d="M316.419 167.321h8.572v16.725h-8.572v-16.725z"/><path d="M316.419 150.597h8.572v16.725h-8.572v-16.725z"/><path d="M448.817 16.8h13.206v16.725h-13.206V16.8z"/><path d="M332.636 635.61h50.041v16.725h-50.041V635.61z"/><path d="M411.983 635.61h20.734v16.725h-20.734V635.61z"/><path d="M382.677 635.61h29.307v16.725h-29.307V635.61z"/><path d="M324.991 635.61h7.645v16.725h-7.645V635.61z"/><path d="M473.145 568.712h9.612v16.725h-9.612v-16.725z"/><path d="M295.685 635.61h11.121v16.725h-11.121V635.61z"/><path d="M306.806 635.61h9.613v16.725h-9.613V635.61z"/><path d="M316.419 635.61h8.572v16.725h-8.572V635.61z"/><path d="M473.145 618.886h9.612v16.725h-9.612v-16.725z"/><path d="M473.145 602.161h9.612v16.725h-9.612v-16.725z"/><path d="M432.718 635.61h16.1v16.725h-16.1V635.61z"/><path d="M473.145 585.437h9.612v16.725h-9.612v-16.725z"/><path d="M448.817 635.61h13.206v16.725h-13.206V635.61z"/><path d="M473.145 635.61h9.612v16.725h-9.612V635.61z"/><path d="M462.023 635.61h11.121v16.725h-11.121V635.61z"/><path d="M282.479 635.61h13.205v16.725h-13.205V635.61z"/><path d="M116.257 635.61h13.205v16.725h-13.205V635.61z"/><path d="M79.423 635.61h20.734v16.725H79.423V635.61z"/><path d="M100.157 635.61h16.1v16.725h-16.1V635.61z"/><path d="M50.116 635.61h29.307v16.725H50.116V635.61z"/><path d="M50.116 585.437h29.307v16.725H50.116v-16.725z"/><path d="M266.38 635.61h16.1v16.725h-16.1V635.61z"/><path d="M50.116 618.886h29.307v16.725H50.116v-16.725z"/><path d="M50.116 602.161h29.307v16.725H50.116v-16.725z"/><path d="M216.339 635.61h29.307v16.725h-29.307V635.61z"/><path d="M129.462 635.61h11.122v16.725h-11.122V635.61z"/><path d="M166.298 635.61h50.041v16.725h-50.041V635.61z"/><path d="M245.646 635.61h20.734v16.725h-20.734V635.61z"/><path d="M140.583 635.61h9.613v16.725h-9.613V635.61z"/><path d="M150.196 635.61h8.573v16.725h-8.573V635.61z"/><path d="M158.769 635.61h7.529v16.725h-7.529V635.61z"/><path d="M473.145 401.466h9.612v16.725h-9.612v-16.725z"/><path d="M473.145 200.771h9.612v16.725h-9.612v-16.725z"/><path d="M473.145 184.046h9.612v16.725h-9.612v-16.725z"/><path d="M473.145 217.495h9.612v16.725h-9.612v-16.725z"/><path d="M473.145 167.321h9.612v16.725h-9.612v-16.725z"/><path d="M473.145 267.669h9.612v16.725h-9.612v-16.725z"/><path d="M473.145 234.22h9.612v16.725h-9.612V234.22z"/><path d="M473.145 284.394h9.612v16.725h-9.612v-16.725z"/><path d="M473.145 250.944h9.612v16.725h-9.612v-16.725z"/><path d="M473.145 150.597h9.612v16.725h-9.612v-16.725z"/><path d="M473.145 66.974h9.612v16.725h-9.612V66.974z"/><path d="M473.145 50.249h9.612v16.725h-9.612V50.249z"/><path d="M473.145 83.698h9.612v16.725h-9.612V83.698z"/><path d="M473.145 133.872h9.612v16.725h-9.612v-16.725z"/><path d="M473.145 100.423h9.612v16.725h-9.612v-16.725z"/><path d="M473.145 117.147h9.612v16.725h-9.612v-16.725z"/><path d="M473.145 535.263h9.612v16.725h-9.612v-16.725z"/><path d="M473.145 485.089h9.612v16.725h-9.612v-16.725z"/><path d="M473.145 468.364h9.612v16.725h-9.612v-16.725z"/><path d="M473.145 451.64h9.612v16.725h-9.612V451.64z"/><path d="M473.145 434.915h9.612v16.725h-9.612v-16.725z"/><path d="M473.145 301.118h9.612v16.725h-9.612v-16.725z"/><path d="M473.145 518.538h9.612v16.725h-9.612v-16.725z"/><path d="M473.145 501.813h9.612v16.725h-9.612v-16.725z"/><path d="M473.145 551.987h9.612v16.725h-9.612v-16.725z"/><path d="M473.145 334.567h9.612v16.725h-9.612v-16.725z"/><path d="M473.145 351.292h9.612v16.725h-9.612v-16.725z"/><path d="M473.145 317.843h9.612v16.725h-9.612v-16.725z"/><path d="M473.145 418.19h9.612v16.725h-9.612V418.19z"/><path d="M473.145 33.524h9.612v16.725h-9.612V33.524z"/><path d="M473.145 368.017h9.612v16.725h-9.612v-16.725z"/><path d="M473.145 384.741h9.612v16.725h-9.612v-16.725z"/><path d="M50.116 568.712h29.307v16.725H50.116v-16.725z"/><path d="M50.116 33.524h29.307v16.725H50.116V33.524z"/><path d="M245.646 33.524h20.734v16.725h-20.734V33.524z"/><path d="M216.339 33.524h29.307v16.725h-29.307V33.524z"/><path d="M266.38 33.524h16.1v16.725h-16.1V33.524z"/><path d="M282.479 33.524h13.205v16.725h-13.205V33.524z"/><path d="M306.806 33.524h9.613v16.725h-9.613V33.524z"/><path d="M316.419 33.524h8.572v16.725h-8.572V33.524z"/><path d="M295.685 33.524h11.121v16.725h-11.121V33.524z"/><path d="M116.257 33.524h13.206v16.725h-13.206V33.524z"/><path d="M100.157 33.524h16.1v16.725h-16.1V33.524z"/><path d="M158.769 33.524h7.529v16.725h-7.529V33.524z"/><path d="M79.423 33.524h20.734v16.725H79.423V33.524z"/><path d="M150.196 33.524h8.573v16.725h-8.573V33.524z"/><path d="M129.462 33.524h11.121v16.725h-11.121V33.524z"/><path d="M140.583 33.524h9.613v16.725h-9.613V33.524z"/><path d="M166.298 33.524h50.041v16.725h-50.041V33.524z"/><path d="M462.023 100.423h11.121v16.725h-11.121v-16.725z"/><path d="M462.023 66.974h11.121v16.725h-11.121V66.974z"/><path d="M462.023 83.698h11.121v16.725h-11.121V83.698z"/><path d="M462.023 117.147h11.121v16.725h-11.121v-16.725z"/><path d="M462.023 167.321h11.121v16.725h-11.121v-16.725z"/><path d="M462.023 150.597h11.121v16.725h-11.121v-16.725z"/><path d="M462.023 133.872h11.121v16.725h-11.121v-16.725z"/><path d="M432.718 33.524h16.1v16.725h-16.1V33.524z"/><path d="M382.677 33.524h29.307v16.725h-29.307V33.524z"/><path d="M411.983 33.524h20.734v16.725h-20.734V33.524z"/><path d="M332.636 33.524h50.041v16.725h-50.041V33.524z"/><path d="M462.023 50.249h11.121v16.725h-11.121V50.249z"/><path d="M462.023 33.524h11.121v16.725h-11.121V33.524z"/><path d="M448.817 33.524h13.206v16.725h-13.206V33.524z"/><path d="M324.991 33.524h7.645v16.725h-7.645V33.524z"/><path d="M50.116 100.423h29.307v16.725H50.116v-16.725z"/><path d="M50.116 368.017h29.307v16.725H50.116v-16.725z"/><path d="M50.116 384.741h29.307v16.725H50.116v-16.725z"/><path d="M50.116 301.118h29.307v16.725H50.116v-16.725z"/><path d="M50.116 334.567h29.307v16.725H50.116v-16.725z"/><path d="M50.116 351.292h29.307v16.725H50.116v-16.725z"/><path d="M50.116 317.843h29.307v16.725H50.116v-16.725z"/><path d="M50.116 418.19h29.307v16.725H50.116V418.19z"/><path d="M50.116 401.466h29.307v16.725H50.116v-16.725z"/><path d="M50.116 518.538h29.307v16.725H50.116v-16.725z"/><path d="M50.116 501.813h29.307v16.725H50.116v-16.725z"/><path d="M50.116 535.263h29.307v16.725H50.116v-16.725z"/><path d="M50.116 451.64h29.307v16.725H50.116V451.64z"/><path d="M50.116 434.915h29.307v16.725H50.116v-16.725z"/><path d="M50.116 485.089h29.307v16.725H50.116v-16.725z"/><path d="M50.116 468.364h29.307v16.725H50.116v-16.725z"/><path d="M50.116 234.22h29.307v16.725H50.116V234.22z"/><path d="M50.116 117.147h29.307v16.725H50.116v-16.725z"/><path d="M50.116 133.872h29.307v16.725H50.116v-16.725z"/><path d="M50.116 150.597h29.307v16.725H50.116v-16.725z"/><path d="M50.116 83.698h29.307v16.725H50.116V83.698z"/><path d="M50.116 284.394h29.307v16.725H50.116v-16.725z"/><path d="M462.023 184.046h11.121v16.725h-11.121v-16.725z"/><path d="M50.116 551.987h29.307v16.725H50.116v-16.725z"/><path d="M50.116 66.974h29.307v16.725H50.116V66.974z"/><path d="M50.116 50.249h29.307v16.725H50.116V50.249z"/><path d="M50.116 250.944h29.307v16.725H50.116v-16.725z"/><path d="M50.116 267.669h29.307v16.725H50.116v-16.725z"/><path d="M50.116 217.495h29.307v16.725H50.116v-16.725z"/><path d="M50.116 184.046h29.307v16.725H50.116v-16.725z"/><path d="M50.116 200.771h29.307v16.725H50.116v-16.725z"/><path d="M50.116 167.321h29.307v16.725H50.116v-16.725z"/><path d="M448.817 652.335h13.206v16.725h-13.206v-16.725z"/><path d="M462.023 652.335h11.121v16.725h-11.121v-16.725z"/><path d="M473.145 652.335h9.612v16.725h-9.612v-16.725z"/><path d="M473.145 16.8h9.612v16.725h-9.612V16.8z"/><path d="M432.718 652.335h16.1v16.725h-16.1v-16.725z"/><path d="M482.757 652.335h8.573v16.725h-8.573v-16.725z"/><path d="M411.983 652.335h20.734v16.725h-20.734v-16.725z"/><path d="M482.757 551.987h8.573v16.725h-8.573v-16.725z"/><path d="M332.636 652.335h50.041v16.725h-50.041v-16.725z"/><path d="M482.757 635.61h8.573v16.725h-8.573V635.61z"/><path d="M482.757 518.538h8.573v16.725h-8.573v-16.725z"/><path d="M482.757 568.712h8.573v16.725h-8.573v-16.725z"/><path d="M482.757 585.437h8.573v16.725h-8.573v-16.725z"/><path d="M482.757 618.886h8.573v16.725h-8.573v-16.725z"/><path d="M482.757 602.161h8.573v16.725h-8.573v-16.725z"/><path d="M482.757 535.263h8.573v16.725h-8.573v-16.725z"/><path d="M150.196 652.335h8.573v16.725h-8.573v-16.725z"/><path d="M140.583 652.335h9.613v16.725h-9.613v-16.725z"/><path d="M158.769 652.335h7.529v16.725h-7.529v-16.725z"/><path d="M166.298 652.335h50.041v16.725h-50.041v-16.725z"/><path d="M100.157 652.335h16.1v16.725h-16.1v-16.725z"/><path d="M116.257 652.335h13.205v16.725h-13.205v-16.725z"/><path d="M129.462 652.335h11.122v16.725h-11.122v-16.725z"/><path d="M324.991 652.335h7.645v16.725h-7.645v-16.725z"/><path d="M306.806 652.335h9.613v16.725h-9.613v-16.725z"/><path d="M316.419 652.335h8.572v16.725h-8.572v-16.725z"/><path d="M216.339 652.335h29.307v16.725h-29.307v-16.725z"/><path d="M295.685 652.335h11.121v16.725h-11.121v-16.725z"/><path d="M282.479 652.335h13.205v16.725h-13.205v-16.725z"/><path d="M245.646 652.335h20.734v16.725h-20.734v-16.725z"/><path d="M266.38 652.335h16.1v16.725h-16.1v-16.725z"/><path d="M482.757 334.567h8.573v16.725h-8.573v-16.725z"/><path d="M482.757 117.147h8.573v16.725h-8.573v-16.725z"/><path d="M482.757 167.321h8.573v16.725h-8.573v-16.725z"/><path d="M482.757 133.872h8.573v16.725h-8.573v-16.725z"/><path d="M482.757 150.597h8.573v16.725h-8.573v-16.725z"/><path d="M482.757 234.22h8.573v16.725h-8.573V234.22z"/><path d="M482.757 184.046h8.573v16.725h-8.573v-16.725z"/><path d="M482.757 200.771h8.573v16.725h-8.573v-16.725z"/><path d="M482.757 217.495h8.573v16.725h-8.573v-16.725z"/><path d="M482.757 16.8h8.573v16.725h-8.573V16.8z"/><path d="M482.757 33.524h8.573v16.725h-8.573V33.524z"/><path d="M482.757 100.423h8.573v16.725h-8.573v-16.725z"/><path d="M482.757 50.249h8.573v16.725h-8.573V50.249z"/><path d="M482.757 83.698h8.573v16.725h-8.573V83.698z"/><path d="M482.757 66.974h8.573v16.725h-8.573V66.974z"/><path d="M482.757 485.089h8.573v16.725h-8.573v-16.725z"/><path d="M482.757 434.915h8.573v16.725h-8.573v-16.725z"/><path d="M482.757 418.19h8.573v16.725h-8.573V418.19z"/><path d="M482.757 401.466h8.573v16.725h-8.573v-16.725z"/><path d="M116.257 535.263h13.205v16.725h-13.205v-16.725z"/><path d="M482.757 384.741h8.573v16.725h-8.573v-16.725z"/><path d="M482.757 451.64h8.573v16.725h-8.573V451.64z"/><path d="M482.757 468.364h8.573v16.725h-8.573v-16.725z"/><path d="M482.757 250.944h8.573v16.725h-8.573v-16.725z"/><path d="M482.757 284.394h8.573v16.725h-8.573v-16.725z"/><path d="M482.757 301.118h8.573v16.725h-8.573v-16.725z"/><path d="M482.757 267.669h8.573v16.725h-8.573v-16.725z"/><path d="M482.757 351.292h8.573v16.725h-8.573v-16.725z"/><path d="M482.757 368.017h8.573v16.725h-8.573v-16.725z"/><path d="M79.423 652.335h20.734v16.725H79.423v-16.725z"/><path d="M482.757 317.843h8.573v16.725h-8.573v-16.725z"/><path d="M382.677 652.335h29.307v16.725h-29.307v-16.725z"/><path d="M.075 150.597h50.041v16.725H.075v-16.725z"/><path d="M79.423 16.8h20.734v16.725H79.423V16.8z"/><path d="M50.116 16.8h29.307v16.725H50.116V16.8z"/><path d="M129.462 16.8h11.121v16.725h-11.121V16.8z"/><path d="M140.583 16.8h9.613v16.725h-9.613V16.8z"/><path d="M.075 16.8h50.041v16.725H.075V16.8z"/><path d="M116.257 16.8h13.206v16.725h-13.206V16.8z"/><path d="M150.196 16.8h8.573v16.725h-8.573V16.8z"/><path d="M50.116 652.335h29.307v16.725H50.116v-16.725z"/><path d="M.075 100.423h50.041v16.725H.075v-16.725z"/><path d="M.075 33.524h50.041v16.725H.075V33.524z"/><path d="M.075 133.872h50.041v16.725H.075v-16.725z"/><path d="M.075 83.698h50.041v16.725H.075V83.698z"/><path d="M.075 50.249h50.041v16.725H.075V50.249z"/><path d="M.075 66.974h50.041v16.725H.075V66.974z"/><path d="M100.157 16.8h16.1v16.725h-16.1V16.8z"/><path d="M332.636 16.8h50.041v16.725h-50.041V16.8z"/><path d="M324.991 16.8h7.645v16.725h-7.645V16.8z"/><path d="M382.677 16.8h29.307v16.725h-29.307V16.8z"/><path d="M432.718 16.8h16.1v16.725h-16.1V16.8z"/><path d="M462.023 16.8h11.121v16.725h-11.121V16.8z"/><path d="M411.983 16.8h20.734v16.725h-20.734V16.8z"/><path d="M316.419 16.8h8.572v16.725h-8.572V16.8z"/><path d="M245.646 16.8h20.734v16.725h-20.734V16.8z"/><path d="M158.769 16.8h7.529v16.725h-7.529V16.8z"/><path d="M216.339 16.8h29.307v16.725h-29.307V16.8z"/><path d="M166.298 16.8h50.041v16.725h-50.041V16.8z"/><path d="M306.806 16.8h9.613v16.725h-9.613V16.8z"/><path d="M295.685 16.8h11.121v16.725h-11.121V16.8z"/><path d="M282.479 16.8h13.205v16.725h-13.205V16.8z"/><path d="M266.38 16.8h16.1v16.725h-16.1V16.8z"/><path d="M448.817.075h13.206V16.8h-13.206V.075z"/><path d="M473.145.075h9.612V16.8h-9.612V.075z"/><path d="M482.757.075h8.573V16.8h-8.573V.075z"/><path d="M79.423.075h20.734V16.8H79.423V.075z"/><path d="M50.116.075h29.307V16.8H50.116V.075z"/><path d="M129.462.075h11.121V16.8h-11.121V.075z"/><path d="M140.583.075h9.613V16.8h-9.613V.075z"/><path d="M.075.075h50.041V16.8H.075V.075z"/><path d="M116.257.075h13.206V16.8h-13.206V.075z"/><path d="M150.196.075h8.573V16.8h-8.573V.075z"/><path d="M100.157.075h16.1V16.8h-16.1V.075z"/><path d="M332.636.075h50.041V16.8h-50.041V.075z"/><path d="M324.991.075h7.645V16.8h-7.645V.075z"/><path d="M382.677.075h29.307V16.8h-29.307V.075z"/><path d="M432.718.075h16.1V16.8h-16.1V.075z"/><path d="M462.023.075h11.121V16.8h-11.121V.075z"/><path d="M411.983.075h20.734V16.8h-20.734V.075z"/><path d="M316.419.075h8.572V16.8h-8.572V.075z"/><path d="M245.646.075h20.734V16.8h-20.734V.075z"/><path d="M158.769.075h7.529V16.8h-7.529V.075z"/><path d="M216.339.075h29.307V16.8h-29.307V.075z"/><path d="M166.298.075h50.041V16.8h-50.041V.075z"/><path d="M306.806.075h9.613V16.8h-9.613V.075z"/><path d="M295.685.075h11.121V16.8h-11.121V.075z"/><path d="M282.479.075h13.205V16.8h-13.205V.075z"/><path d="M266.38.075h16.1V16.8h-16.1V.075z"/><path d="M.075 117.147h50.041v16.725H.075v-16.725z"/><path d="M.075 501.813h50.041v16.725H.075v-16.725z"/><path d="M.075 418.19h50.041v16.725H.075V418.19z"/><path d="M.075 518.538h50.041v16.725H.075v-16.725z"/><path d="M.075 434.915h50.041v16.725H.075v-16.725z"/><path d="M.075 167.321h50.041v16.725H.075v-16.725z"/><path d="M.075 451.64h50.041v16.725H.075V451.64z"/><path d="M.075 468.364h50.041v16.725H.075v-16.725z"/><path d="M.075 485.089h50.041v16.725H.075v-16.725z"/><path d="M.075 635.61h50.041v16.725H.075V635.61z"/><path d="M.075 618.886h50.041v16.725H.075v-16.725z"/><path d="M.075 551.987h50.041v16.725H.075v-16.725z"/><path d="M.075 652.335h50.041v16.725H.075v-16.725z"/><path d="M.075 602.161h50.041v16.725H.075v-16.725z"/><path d="M.075 568.712h50.041v16.725H.075v-16.725z"/><path d="M.075 585.437h50.041v16.725H.075v-16.725z"/><path d="M.075 535.263h50.041v16.725H.075v-16.725z"/><path d="M.075 284.394h50.041v16.725H.075v-16.725z"/><path d="M.075 250.944h50.041v16.725H.075v-16.725z"/><path d="M.075 267.669h50.041v16.725H.075v-16.725z"/><path d="M.075 234.22h50.041v16.725H.075V234.22z"/><path d="M.075 184.046h50.041v16.725H.075v-16.725z"/><path d="M.075 200.771h50.041v16.725H.075v-16.725z"/><path d="M.075 217.495h50.041v16.725H.075v-16.725z"/><path d="M.075 368.017h50.041v16.725H.075v-16.725z"/><path d="M.075 351.292h50.041v16.725H.075v-16.725z"/><path d="M.075 401.466h50.041v16.725H.075v-16.725z"/><path d="M.075 384.741h50.041v16.725H.075v-16.725z"/><path d="M.075 317.843h50.041v16.725H.075v-16.725z"/><path d="M.075 301.118h50.041v16.725H.075v-16.725z"/><path d="M.075 334.567h50.041v16.725H.075v-16.725z"/><path d="M491.33 150.597h50.041v16.725H491.33v-16.725z"/><path d="M491.33 16.8h50.041v16.725H491.33V16.8z"/><path d="M491.33 100.423h50.041v16.725H491.33v-16.725z"/><path d="M491.33 33.524h50.041v16.725H491.33V33.524z"/><path d="M491.33 133.872h50.041v16.725H491.33v-16.725z"/><path d="M491.33 83.698h50.041v16.725H491.33V83.698z"/><path d="M491.33 50.249h50.041v16.725H491.33V50.249z"/><path d="M491.33 66.974h50.041v16.725H491.33V66.974z"/><path d="M491.33.075h50.041V16.8H491.33V.075z"/><path d="M491.33 117.147h50.041v16.725H491.33v-16.725z"/><path d="M491.33 501.813h50.041v16.725H491.33v-16.725z"/><path d="M491.33 418.19h50.041v16.725H491.33V418.19z"/><path d="M491.33 518.538h50.041v16.725H491.33v-16.725z"/><path d="M491.33 434.915h50.041v16.725H491.33v-16.725z"/><path d="M491.33 167.321h50.041v16.725H491.33v-16.725z"/><path d="M491.33 451.64h50.041v16.725H491.33V451.64z"/><path d="M491.33 468.364h50.041v16.725H491.33v-16.725z"/><path d="M491.33 485.089h50.041v16.725H491.33v-16.725z"/><path d="M491.33 635.61h50.041v16.725H491.33V635.61z"/><path d="M491.33 618.886h50.041v16.725H491.33v-16.725z"/><path d="M491.33 551.987h50.041v16.725H491.33v-16.725z"/><path d="M491.33 652.335h50.041v16.725H491.33v-16.725z"/><path d="M491.33 602.161h50.041v16.725H491.33v-16.725z"/><path d="M491.33 568.712h50.041v16.725H491.33v-16.725z"/><path d="M491.33 585.437h50.041v16.725H491.33v-16.725z"/><path d="M491.33 535.263h50.041v16.725H491.33v-16.725z"/><path d="M491.33 284.394h50.041v16.725H491.33v-16.725z"/><path d="M491.33 250.944h50.041v16.725H491.33v-16.725z"/><path d="M491.33 267.669h50.041v16.725H491.33v-16.725z"/><path d="M491.33 234.22h50.041v16.725H491.33V234.22z"/><path d="M491.33 184.046h50.041v16.725H491.33v-16.725z"/><path d="M491.33 200.771h50.041v16.725H491.33v-16.725z"/><path d="M491.33 217.495h50.041v16.725H491.33v-16.725z"/><path d="M491.33 368.017h50.041v16.725H491.33v-16.725z"/><path d="M491.33 351.292h50.041v16.725H491.33v-16.725z"/><path d="M491.33 401.466h50.041v16.725H491.33v-16.725z"/><path d="M491.33 384.741h50.041v16.725H491.33v-16.725z"/><path d="M491.33 317.843h50.041v16.725H491.33v-16.725z"/><path d="M491.33 301.118h50.041v16.725H491.33v-16.725z"/><path d="M491.33 334.567h50.041v16.725H491.33v-16.725z"/><path d="M482.757 501.813h8.573v16.725h-8.573v-16.725z"/><path d="M100.157 351.292h16.1v16.725h-16.1v-16.725z"/><path d="M100.157 317.843h16.1v16.725h-16.1v-16.725z"/><path d="M100.157 334.567h16.1v16.725h-16.1v-16.725z"/><path d="M100.157 301.118h16.1v16.725h-16.1v-16.725z"/><path d="M100.157 250.944h16.1v16.725h-16.1v-16.725z"/><path d="M100.157 267.669h16.1v16.725h-16.1v-16.725z"/><path d="M100.157 284.394h16.1v16.725h-16.1v-16.725z"/><path d="M100.157 384.741h16.1v16.725h-16.1v-16.725z"/><path d="M100.157 451.64h16.1v16.725h-16.1V451.64z"/><path d="M100.157 468.364h16.1v16.725h-16.1v-16.725z"/><path d="M100.157 434.915h16.1v16.725h-16.1v-16.725z"/><path d="M100.157 401.466h16.1v16.725h-16.1v-16.725z"/><path d="M100.157 234.22h16.1v16.725h-16.1V234.22z"/><path d="M100.157 368.017h16.1v16.725h-16.1v-16.725z"/><path d="M100.157 418.19h16.1v16.725h-16.1V418.19z"/><path d="M100.157 100.423h16.1v16.725h-16.1v-16.725z"/><path d="M116.257 66.974h13.206v16.725h-13.206V66.974z"/><path d="M129.462 66.974h11.121v16.725h-11.121V66.974z"/><path d="M100.157 217.495h16.1v16.725h-16.1v-16.725z"/><path d="M100.157 83.698h16.1v16.725h-16.1V83.698z"/><path d="M140.583 66.974h9.613v16.725h-9.613V66.974z"/><path d="M158.769 66.974h7.529v16.725h-7.529V66.974z"/><path d="M150.196 66.974h8.573v16.725h-8.573V66.974z"/><path d="M100.157 66.974h16.1v16.725h-16.1V66.974z"/><path d="M100.157 184.046h16.1v16.725h-16.1v-16.725z"/><path d="M100.157 167.321h16.1v16.725h-16.1v-16.725z"/><path d="M100.157 200.771h16.1v16.725h-16.1v-16.725z"/><path d="M100.157 117.147h16.1v16.725h-16.1v-16.725z"/><path d="M166.298 66.974h50.041v16.725h-50.041V66.974z"/><path d="M100.157 133.872h16.1v16.725h-16.1v-16.725z"/><path d="M100.157 150.597h16.1v16.725h-16.1v-16.725z"/><path d="M100.157 485.089h16.1v16.725h-16.1v-16.725z"/><path d="M324.991 602.161h7.645v16.725h-7.645v-16.725z"/><path d="M332.636 602.161h50.041v16.725h-50.041v-16.725z"/><path d="M382.677 602.161h29.307v16.725h-29.307v-16.725z"/><path d="M295.685 602.161h11.121v16.725h-11.121v-16.725z"/><path d="M411.983 602.161h20.734v16.725h-20.734v-16.725z"/><path d="M306.806 602.161h9.613v16.725h-9.613v-16.725z"/><path d="M316.419 602.161h8.572v16.725h-8.572v-16.725z"/><path d="M448.817 551.987h13.206v16.725h-13.206v-16.725z"/><path d="M448.817 535.263h13.206v16.725h-13.206v-16.725z"/><path d="M282.479 602.161h13.205v16.725h-13.205v-16.725z"/><path d="M448.817 518.538h13.206v16.725h-13.206v-16.725z"/><path d="M448.817 585.437h13.206v16.725h-13.206v-16.725z"/><path d="M448.817 602.161h13.206v16.725h-13.206v-16.725z"/><path d="M448.817 568.712h13.206v16.725h-13.206v-16.725z"/><path d="M432.718 602.161h16.1v16.725h-16.1v-16.725z"/><path d="M129.462 602.161h11.122v16.725h-11.122v-16.725z"/><path d="M100.157 585.437h16.1v16.725h-16.1v-16.725z"/><path d="M266.38 602.161h16.1v16.725h-16.1v-16.725z"/><path d="M100.157 568.712h16.1v16.725h-16.1v-16.725z"/><path d="M100.157 518.538h16.1v16.725h-16.1v-16.725z"/><path d="M116.257 602.161h13.205v16.725h-13.205v-16.725z"/><path d="M100.157 535.263h16.1v16.725h-16.1v-16.725z"/><path d="M100.157 551.987h16.1v16.725h-16.1v-16.725z"/><path d="M100.157 602.161h16.1v16.725h-16.1v-16.725z"/><path d="M216.339 602.161h29.307v16.725h-29.307v-16.725z"/><path d="M100.157 501.813h16.1v16.725h-16.1v-16.725z"/><path d="M166.298 602.161h50.041v16.725h-50.041v-16.725z"/><path d="M245.646 602.161h20.734v16.725h-20.734v-16.725z"/><path d="M140.583 602.161h9.613v16.725h-9.613v-16.725z"/><path d="M150.196 602.161h8.573v16.725h-8.573v-16.725z"/><path d="M158.769 602.161h7.529v16.725h-7.529v-16.725z"/><path d="M432.718 351.292h16.1v16.725h-16.1v-16.725z"/><path d="M432.718 568.712h16.1v16.725h-16.1v-16.725z"/><path d="M432.718 535.263h16.1v16.725h-16.1v-16.725z"/><path d="M432.718 551.987h16.1v16.725h-16.1v-16.725z"/><path d="M432.718 585.437h16.1v16.725h-16.1v-16.725z"/><path d="M411.983 585.437h20.734v16.725h-20.734v-16.725z"/><path d="M332.636 585.437h50.041v16.725h-50.041v-16.725z"/><path d="M382.677 585.437h29.307v16.725h-29.307v-16.725z"/><path d="M432.718 485.089h16.1v16.725h-16.1v-16.725z"/><path d="M432.718 434.915h16.1v16.725h-16.1v-16.725z"/><path d="M432.718 518.538h16.1v16.725h-16.1v-16.725z"/><path d="M432.718 418.19h16.1v16.725h-16.1V418.19z"/><path d="M432.718 451.64h16.1v16.725h-16.1V451.64z"/><path d="M432.718 401.466h16.1v16.725h-16.1v-16.725z"/><path d="M324.991 585.437h7.645v16.725h-7.645v-16.725z"/><path d="M432.718 468.364h16.1v16.725h-16.1v-16.725z"/><path d="M432.718 501.813h16.1v16.725h-16.1v-16.725z"/><path d="M316.419 585.437h8.572v16.725h-8.572v-16.725z"/><path d="M129.462 585.437h11.122v16.725h-11.122v-16.725z"/><path d="M150.196 585.437h8.573v16.725h-8.573v-16.725z"/><path d="M140.583 585.437h9.613v16.725h-9.613v-16.725z"/><path d="M116.257 585.437h13.205v16.725h-13.205v-16.725z"/><path d="M116.257 551.987h13.205v16.725h-13.205v-16.725z"/><path d="M116.257 568.712h13.205v16.725h-13.205v-16.725z"/><path d="M158.769 585.437h7.529v16.725h-7.529v-16.725z"/><path d="M295.685 585.437h11.121v16.725h-11.121v-16.725z"/><path d="M306.806 585.437h9.613v16.725h-9.613v-16.725z"/><path d="M282.479 585.437h13.205v16.725h-13.205v-16.725z"/><path d="M245.646 585.437h20.734v16.725h-20.734v-16.725z"/><path d="M216.339 585.437h29.307v16.725h-29.307v-16.725z"/><path d="M266.38 585.437h16.1v16.725h-16.1v-16.725z"/><path d="M166.298 585.437h50.041v16.725h-50.041v-16.725z"/><path d="M432.718 334.567h16.1v16.725h-16.1v-16.725z"/><path d="M432.718 66.974h16.1v16.725h-16.1V66.974z"/><path d="M411.983 66.974h20.734v16.725h-20.734V66.974z"/><path d="M382.677 66.974h29.307v16.725h-29.307V66.974z"/><path d="M432.718 117.147h16.1v16.725h-16.1v-16.725z"/><path d="M332.636 66.974h50.041v16.725h-50.041V66.974z"/><path d="M432.718 100.423h16.1v16.725h-16.1v-16.725z"/><path d="M432.718 83.698h16.1v16.725h-16.1V83.698z"/><path d="M324.991 66.974h7.645v16.725h-7.645V66.974z"/><path d="M432.718 133.872h16.1v16.725h-16.1v-16.725z"/><path d="M266.38 66.974h16.1v16.725h-16.1V66.974z"/><path d="M245.646 66.974h20.734v16.725h-20.734V66.974z"/><path d="M282.479 66.974h13.205v16.725h-13.205V66.974z"/><path d="M316.419 66.974h8.572v16.725h-8.572V66.974z"/><path d="M295.685 66.974h11.121v16.725h-11.121V66.974z"/><path d="M306.806 66.974h9.613v16.725h-9.613V66.974z"/><path d="M432.718 384.741h16.1v16.725h-16.1v-16.725z"/><path d="M432.718 267.669h16.1v16.725h-16.1v-16.725z"/><path d="M432.718 301.118h16.1v16.725h-16.1v-16.725z"/><path d="M432.718 284.394h16.1v16.725h-16.1v-16.725z"/><path d="M432.718 317.843h16.1v16.725h-16.1v-16.725z"/><path d="M216.339 66.974h29.307v16.725h-29.307V66.974z"/><path d="M432.718 368.017h16.1v16.725h-16.1v-16.725z"/><path d="M448.817 501.813h13.206v16.725h-13.206v-16.725z"/><path d="M432.718 184.046h16.1v16.725h-16.1v-16.725z"/><path d="M432.718 200.771h16.1v16.725h-16.1v-16.725z"/><path d="M432.718 150.597h16.1v16.725h-16.1v-16.725z"/><path d="M432.718 167.321h16.1v16.725h-16.1v-16.725z"/><path d="M432.718 250.944h16.1v16.725h-16.1v-16.725z"/><path d="M432.718 234.22h16.1v16.725h-16.1V234.22z"/><path d="M432.718 217.495h16.1v16.725h-16.1v-16.725z"/><path d="M448.817 485.089h13.206v16.725h-13.206v-16.725z"/><path d="M129.462 618.886h11.122v16.725h-11.122v-16.725z"/><path d="M140.583 618.886h9.613v16.725h-9.613v-16.725z"/><path d="M158.769 618.886h7.529v16.725h-7.529v-16.725z"/><path d="M150.196 618.886h8.573v16.725h-8.573v-16.725z"/><path d="M79.423 618.886h20.734v16.725H79.423v-16.725z"/><path d="M116.257 618.886h13.205v16.725h-13.205v-16.725z"/><path d="M100.157 618.886h16.1v16.725h-16.1v-16.725z"/><path d="M282.479 618.886h13.205v16.725h-13.205v-16.725z"/><path d="M295.685 618.886h11.121v16.725h-11.121v-16.725z"/><path d="M166.298 618.886h50.041v16.725h-50.041v-16.725z"/><path d="M316.419 618.886h8.572v16.725h-8.572v-16.725z"/><path d="M79.423 602.161h20.734v16.725H79.423v-16.725z"/><path d="M216.339 618.886h29.307v16.725h-29.307v-16.725z"/><path d="M266.38 618.886h16.1v16.725h-16.1v-16.725z"/><path d="M245.646 618.886h20.734v16.725h-20.734v-16.725z"/><path d="M306.806 618.886h9.613v16.725h-9.613v-16.725z"/><path d="M79.423 451.64h20.734v16.725H79.423V451.64z"/><path d="M79.423 418.19h20.734v16.725H79.423V418.19z"/><path d="M79.423 434.915h20.734v16.725H79.423v-16.725z"/><path d="M79.423 401.466h20.734v16.725H79.423v-16.725z"/><path d="M79.423 351.292h20.734v16.725H79.423v-16.725z"/><path d="M79.423 368.017h20.734v16.725H79.423v-16.725z"/><path d="M79.423 585.437h20.734v16.725H79.423v-16.725z"/><path d="M79.423 384.741h20.734v16.725H79.423v-16.725z"/><path d="M79.423 551.987h20.734v16.725H79.423v-16.725z"/><path d="M79.423 568.712h20.734v16.725H79.423v-16.725z"/><path d="M79.423 535.263h20.734v16.725H79.423v-16.725z"/><path d="M79.423 518.538h20.734v16.725H79.423v-16.725z"/><path d="M79.423 485.089h20.734v16.725H79.423v-16.725z"/><path d="M79.423 501.813h20.734v16.725H79.423v-16.725z"/><path d="M79.423 468.364h20.734v16.725H79.423v-16.725z"/><path d="M324.991 618.886h7.645v16.725h-7.645v-16.725z"/><path d="M462.023 368.017h11.121v16.725h-11.121v-16.725z"/><path d="M462.023 451.64h11.121v16.725h-11.121V451.64z"/><path d="M462.023 351.292h11.121v16.725h-11.121v-16.725z"/><path d="M462.023 434.915h11.121v16.725h-11.121v-16.725z"/><path d="M462.023 334.567h11.121v16.725h-11.121v-16.725z"/><path d="M462.023 418.19h11.121v16.725h-11.121V418.19z"/><path d="M462.023 401.466h11.121v16.725h-11.121v-16.725z"/><path d="M462.023 384.741h11.121v16.725h-11.121v-16.725z"/><path d="M462.023 250.944h11.121v16.725h-11.121v-16.725z"/><path d="M462.023 234.22h11.121v16.725h-11.121V234.22z"/><path d="M462.023 317.843h11.121v16.725h-11.121v-16.725z"/><path d="M462.023 217.495h11.121v16.725h-11.121v-16.725z"/><path d="M462.023 267.669h11.121v16.725h-11.121v-16.725z"/><path d="M462.023 301.118h11.121v16.725h-11.121v-16.725z"/><path d="M462.023 284.394h11.121v16.725h-11.121v-16.725z"/><path d="M462.023 485.089h11.121v16.725h-11.121v-16.725z"/><path d="M448.817 618.886h13.206v16.725h-13.206v-16.725z"/><path d="M462.023 468.364h11.121v16.725h-11.121v-16.725z"/><path d="M462.023 618.886h11.121v16.725h-11.121v-16.725z"/><path d="M432.718 618.886h16.1v16.725h-16.1v-16.725z"/><path d="M332.636 618.886h50.041v16.725h-50.041v-16.725z"/><path d="M382.677 618.886h29.307v16.725h-29.307v-16.725z"/><path d="M411.983 618.886h20.734v16.725h-20.734v-16.725z"/><path d="M462.023 602.161h11.121v16.725h-11.121v-16.725z"/><path d="M462.023 518.538h11.121v16.725h-11.121v-16.725z"/><path d="M462.023 585.437h11.121v16.725h-11.121v-16.725z"/><path d="M79.423 334.567h20.734v16.725H79.423v-16.725z"/><path d="M462.023 501.813h11.121v16.725h-11.121v-16.725z"/><path d="M462.023 568.712h11.121v16.725h-11.121v-16.725z"/><path d="M462.023 551.987h11.121v16.725h-11.121v-16.725z"/><path d="M462.023 535.263h11.121v16.725h-11.121v-16.725z"/><path d="M448.817 267.669h13.206v16.725h-13.206v-16.725z"/><path d="M448.817 133.872h13.206v16.725h-13.206v-16.725z"/><path d="M448.817 150.597h13.206v16.725h-13.206v-16.725z"/><path d="M448.817 117.147h13.206v16.725h-13.206v-16.725z"/><path d="M448.817 167.321h13.206v16.725h-13.206v-16.725z"/><path d="M448.817 200.771h13.206v16.725h-13.206v-16.725z"/><path d="M448.817 184.046h13.206v16.725h-13.206v-16.725z"/><path d="M448.817 100.423h13.206v16.725h-13.206v-16.725z"/><path d="M324.991 50.249h7.645v16.725h-7.645V50.249z"/><path d="M382.677 50.249h29.307v16.725h-29.307V50.249z"/><path d="M448.817 83.698h13.206v16.725h-13.206V83.698z"/><path d="M332.636 50.249h50.041v16.725h-50.041V50.249z"/><path d="M448.817 217.495h13.206v16.725h-13.206v-16.725z"/><path d="M432.718 50.249h16.1v16.725h-16.1V50.249z"/><path d="M448.817 66.974h13.206v16.725h-13.206V66.974z"/><path d="M448.817 50.249h13.206v16.725h-13.206V50.249z"/><path d="M411.983 50.249h20.734v16.725h-20.734V50.249z"/><path d="M448.817 401.466h13.206v16.725h-13.206v-16.725z"/><path d="M448.817 234.22h13.206v16.725h-13.206V234.22z"/><path d="M448.817 418.19h13.206v16.725h-13.206V418.19z"/><path d="M448.817 368.017h13.206v16.725h-13.206v-16.725z"/><path d="M448.817 468.364h13.206v16.725h-13.206v-16.725z"/><path d="M448.817 451.64h13.206v16.725h-13.206V451.64z"/><path d="M79.423 317.843h20.734v16.725H79.423v-16.725z"/><path d="M448.817 384.741h13.206v16.725h-13.206v-16.725z"/><path d="M448.817 351.292h13.206v16.725h-13.206v-16.725z"/><path d="M448.817 284.394h13.206v16.725h-13.206v-16.725z"/><path d="M448.817 250.944h13.206v16.725h-13.206v-16.725z"/><path d="M462.023 200.771h11.121v16.725h-11.121v-16.725z"/><path d="M448.817 301.118h13.206v16.725h-13.206v-16.725z"/><path d="M448.817 334.567h13.206v16.725h-13.206v-16.725z"/><path d="M448.817 317.843h13.206v16.725h-13.206v-16.725z"/><path d="M448.817 434.915h13.206v16.725h-13.206v-16.725z"/><path d="M79.423 133.872h20.734v16.725H79.423v-16.725z"/><path d="M79.423 150.597h20.734v16.725H79.423v-16.725z"/><path d="M79.423 184.046h20.734v16.725H79.423v-16.725z"/><path d="M79.423 167.321h20.734v16.725H79.423v-16.725z"/><path d="M79.423 83.698h20.734v16.725H79.423V83.698z"/><path d="M79.423 117.147h20.734v16.725H79.423v-16.725z"/><path d="M79.423 100.423h20.734v16.725H79.423v-16.725z"/><path d="M79.423 66.974h20.734v16.725H79.423V66.974z"/><path d="M79.423 284.394h20.734v16.725H79.423v-16.725z"/><path d="M79.423 267.669h20.734v16.725H79.423v-16.725z"/><path d="M79.423 200.771h20.734v16.725H79.423v-16.725z"/><path d="M79.423 301.118h20.734v16.725H79.423v-16.725z"/><path d="M316.419 50.249h8.572v16.725h-8.572V50.249z"/><path d="M79.423 250.944h20.734v16.725H79.423v-16.725z"/><path d="M79.423 234.22h20.734v16.725H79.423V234.22z"/><path d="M79.423 217.495h20.734v16.725H79.423v-16.725z"/><path d="M245.646 50.249h20.734v16.725h-20.734V50.249z"/><path d="M266.38 50.249h16.1v16.725h-16.1V50.249z"/><path d="M216.339 50.249h29.307v16.725h-29.307V50.249z"/><path d="M282.479 50.249h13.205v16.725h-13.205V50.249z"/><path d="M166.298 50.249h50.041v16.725h-50.041V50.249z"/><path d="M306.806 50.249h9.613v16.725h-9.613V50.249z"/><path d="M295.685 50.249h11.121v16.725h-11.121V50.249z"/><path d="M100.157 50.249h16.1v16.725h-16.1V50.249z"/><path d="M129.462 50.249h11.121v16.725h-11.121V50.249z"/><path d="M158.769 50.249h7.529v16.725h-7.529V50.249z"/><path d="M79.423 50.249h20.734v16.725H79.423V50.249z"/><path d="M116.257 50.249h13.206v16.725h-13.206V50.249z"/><path d="M150.196 50.249h8.573v16.725h-8.573V50.249z"/><path d="M140.583 50.249h9.613v16.725h-9.613V50.249z"/></svg>