<svg baseProfile="tiny" xmlns="http://www.w3.org/2000/svg"><path d="M29.597 51.185H9.933m19.664 0l-9.83 17.027m9.83-17.027L.103 68.212m0 0h19.664m-19.664 0l9.83-17.027m19.664 0V85.24m-9.83-17.029l9.83 17.028M9.933 51.185L.103 34.157m29.494 17.028L.103 34.157m58.986 0L29.597 51.185m0 0H49.26m-.001 0l9.83-17.027M39.427 68.212l-9.83-17.028m9.83 17.028l-9.83 17.027m9.83-17.027H59.09m-.001 0l-9.83-17.028m-19.662.001L59.09 68.213m-.001-.001V34.157"/><path d="M29.597 85.239H9.933m19.664 0l-9.83 17.027m9.83-17.027L.103 102.267m0 0h19.664m-19.664 0l9.83-17.027m19.664-.001v34.055m-9.83-17.028l9.83 17.028M9.933 85.24L.103 68.212m29.494 17.027L.103 68.212m58.986 0L29.597 85.239m0 0H49.26m-.001 0l9.83-17.027m-19.662 34.055l-9.83-17.028m9.83 17.028l-9.83 17.027m9.83-17.027H59.09m-.001 0l-9.83-17.028m-19.662 0l29.493 17.028m-.001 0V68.212"/><path d="M29.597 119.294H9.933m19.664 0l-9.83 17.027m9.83-17.027L.103 136.321m0 0h19.664m-19.664 0l9.83-17.027m19.664 0v34.055m-9.83-17.028l9.83 17.028M9.933 119.294l-9.83-17.028m29.494 17.028L.103 102.267m58.986 0l-29.492 17.027m0 0H49.26m-.001 0l9.83-17.027m-19.662 34.055l-9.83-17.028m9.83 17.028l-9.83 17.027m9.83-17.027H59.09m-.001 0l-9.83-17.028m-19.662 0l29.493 17.028m-.001 0v-34.055"/><path d="M29.597 153.349H9.933m19.664 0l-9.83 17.027m9.83-17.027L.103 170.376m0 0h19.664m-19.664 0l9.83-17.027m19.664 0v34.055m-9.83-17.029l9.83 17.028M9.933 153.349l-9.83-17.028m29.494 17.028L.103 136.321m58.986 0l-29.492 17.027m0 .001H49.26m-.001 0l9.83-17.027m-19.662 34.054l-9.83-17.028m9.83 17.028l-9.83 17.027m9.83-17.027H59.09m-.001 0l-9.83-17.028m-19.662.001l29.493 17.028m-.001-.001v-34.055"/><path d="M29.597 187.403H9.933m19.664 0l-9.83 17.027m9.83-17.027L.103 204.431m0 0h19.664m-19.664 0l9.83-17.027m19.664-.001v34.055m-9.83-17.028l9.83 17.028M9.933 187.404l-9.83-17.028m29.494 17.027L.103 170.376m58.986 0l-29.492 17.027m0 0H49.26m-.001 0l9.83-17.027m-19.662 34.055l-9.83-17.028m9.83 17.028l-9.83 17.027m9.83-17.027H59.09m-.001 0l-9.83-17.028m-19.662 0l29.493 17.028m-.001 0v-34.055"/><path d="M29.597 221.458H9.933m19.664 0l-9.83 17.027m9.83-17.027L.103 238.485m0 0h19.664m-19.664 0l9.83-17.027m19.664 0v34.055m-9.83-17.028l9.83 17.028M9.933 221.458L.103 204.43m29.494 17.028L.103 204.431m58.986 0l-29.492 17.027m0 0H49.26m-.001 0l9.83-17.027m-19.662 34.055l-9.83-17.028m9.83 17.028l-9.83 17.027m9.83-17.027H59.09m-.001 0l-9.83-17.028m-19.662 0l29.493 17.028m-.001 0v-34.055"/><path d="M29.597 255.513H9.933m19.664 0l-9.83 17.027m9.83-17.027L.103 272.54m0 0h19.664m-19.664 0l9.83-17.027m19.664 0v34.055m-9.83-17.028l9.83 17.028M9.933 255.513l-9.83-17.028m29.494 17.028L.103 238.485m58.986 0l-29.492 17.027m0 .001H49.26m-.001 0l9.83-17.027m-19.662 34.055l-9.83-17.028m9.83 17.028l-9.83 17.027m9.83-17.027H59.09m-.001 0l-9.83-17.028m-19.662 0l29.493 17.028m-.001 0v-34.055"/><path d="M29.597 289.567H9.933m19.664 0l-9.83 17.027m9.83-17.027L.103 306.595m0 0h19.664m-19.664 0l9.83-17.027m19.664-.001v34.055m-9.83-17.028l9.83 17.028M9.933 289.568L.103 272.54m29.494 17.027L.103 272.54m58.986 0l-29.492 17.027m0 0H49.26m-.001 0l9.83-17.027m-19.662 34.055l-9.83-17.028m9.83 17.028l-9.83 17.027m9.83-17.027H59.09m-.001 0l-9.83-17.028m-19.662 0l29.493 17.028m-.001 0V272.54"/><path d="M29.597 323.622H9.933m19.664 0l-9.83 17.027m9.83-17.027L.103 340.649m0 0h19.664m-19.664 0l9.83-17.027m19.664 0v34.055m-9.83-17.028l9.83 17.028M9.933 323.623l-9.83-17.028m29.494 17.027L.103 306.595m58.986 0l-29.492 17.027m0 0H49.26m-.001 0l9.83-17.027M39.427 340.65l-9.83-17.028m9.83 17.028l-9.83 17.027m9.83-17.027H59.09m-.001 0l-9.83-17.028m-19.662 0L59.09 340.65m-.001 0v-34.055"/><path d="M29.597 357.677H9.933m19.664 0l-9.83 17.026m9.83-17.026L.103 374.704m0 0l19.664-.001m-19.664.001l9.83-17.027m19.664 0v34.055m-9.83-17.029l9.83 17.028M9.933 357.677l-9.83-17.028m29.494 17.028L.103 340.649m58.986 0l-29.492 17.027m0 .001H49.26m-.001 0l9.83-17.027m-19.662 34.055l-9.83-17.028m9.83 17.028l-9.83 17.026m9.83-17.026H59.09m-.001 0l-9.83-17.028m-19.662 0l29.493 17.028m-.001 0v-34.056"/><path d="M29.597 391.731l-19.664.001m19.664-.001l-9.83 17.026m9.83-17.026L.103 408.759m0 0l19.664-.001m-19.664.001l9.83-17.026m19.664-.002v34.055m-9.83-17.028l9.83 17.028M9.933 391.732l-9.83-17.028m29.494 17.027L.103 374.704m58.986 0l-29.492 17.027m0 0H49.26m-.001 0l9.83-17.027M39.427 408.76l-9.83-17.028m9.83 17.028l-9.83 17.026m9.83-17.026H59.09m-.001 0l-9.83-17.028m-19.662-.001l29.493 17.028m-.001.001v-34.056"/><path d="M29.597 425.786l-19.664.001m19.664-.001l-9.83 17.026m9.83-17.026L.103 442.813m0 0l19.664-.001m-19.664.001l9.83-17.026m19.664-.001v34.055m-9.83-17.029l9.83 17.028M9.933 425.787l-9.83-17.028m29.494 17.027L.103 408.759m58.986 0l-29.492 17.027m0 0H49.26m-.001 0l9.83-17.027m-19.662 34.055l-9.83-17.028m9.83 17.028l-9.83 17.026m9.83-17.026H59.09m-.001 0l-9.83-17.028m-19.662 0l29.493 17.028m-.001 0v-34.056"/><path d="M29.597 459.841l-19.664.001m19.664-.001l-9.83 17.026m9.83-17.026L.103 476.868m0 0l19.664-.001m-19.664.001l9.83-17.026m19.664-.001v34.055m-9.83-17.029l9.83 17.028M9.933 459.842l-9.83-17.028m29.494 17.027L.103 442.813m58.986 0L29.597 459.84m0 .001H49.26m-.001 0l9.83-17.027m-19.662 34.055l-9.83-17.028m9.83 17.028l-9.83 17.026m9.83-17.026H59.09m-.001 0l-9.83-17.028m-19.662 0l29.493 17.028m-.001 0v-34.056"/><path d="M29.597 493.896l-19.664.001m19.664-.001l-9.83 17.026m9.83-17.026L.103 510.923m0 0l19.664-.001m-19.664.001l9.83-17.026m19.664-.001v34.055m-9.83-17.029l9.83 17.028M9.933 493.896l-9.83-17.028m29.494 17.028L.103 476.868m58.986 0l-29.492 17.027m0 .001H49.26m-.001 0l9.83-17.027m-19.662 34.055l-9.83-17.028m9.83 17.028l-9.83 17.026m9.83-17.026H59.09m-.001 0l-9.83-17.028m-19.662 0l29.493 17.028m-.001 0v-34.056"/><path d="M29.597 527.95l-19.664.001m19.664-.001l-9.83 17.026m9.83-17.026L.103 544.978m0 0l19.664-.001m-19.664.001l9.83-17.026m19.664-.002v34.055m-9.83-17.028l9.83 17.028M9.933 527.951l-9.83-17.028m29.494 17.027L.103 510.923m58.986 0L29.597 527.95m0 0H49.26m-.001 0l9.83-17.027m-19.662 34.056l-9.83-17.028m9.83 17.028l-9.83 17.026m9.83-17.026H59.09m-.001 0l-9.83-17.028m-19.662-.001l29.493 17.028m-.001.001v-34.056"/><path d="M29.597 562.005l-19.664.001m19.664-.001l-9.83 17.026m9.83-17.026L.103 579.032m0 0l19.664-.001m-19.664.001l9.83-17.026m19.664-.001v34.055m-9.83-17.029l9.83 17.028M9.933 562.006l-9.83-17.028m29.494 17.027L.103 544.978m58.986 0l-29.492 17.027m0 0H49.26m-.001 0l9.83-17.027m-19.662 34.055l-9.83-17.028m9.83 17.028l-9.83 17.026m9.83-17.026H59.09m-.001 0l-9.83-17.028m-19.662 0l29.493 17.028m-.001 0v-34.056"/><path d="M29.597 596.06l-19.664.001m19.664-.001l-9.83 17.026m9.83-17.026L.103 613.087m0 0l19.664-.001m-19.664.001l9.83-17.026m19.664-.001v34.055m-9.83-17.029l9.83 17.028M9.933 596.061l-9.83-17.028m29.494 17.027L.103 579.032m58.986 0L29.597 596.06m0 0H49.26m-.001 0l9.83-17.027m-19.662 34.055l-9.83-17.028m9.83 17.028l-9.83 17.026m9.83-17.026H59.09m-.001 0l-9.83-17.028m-19.662 0l29.493 17.028m-.001 0v-34.056"/><path d="M29.597 630.114l-19.664.001m19.664-.001l-9.83 17.026m9.83-17.026L.103 647.142m0 0l19.664-.001m-19.664.001l9.83-17.026m19.664-.002v34.055m-9.83-17.028l9.83 17.028M9.933 630.115l-9.83-17.028m29.494 17.027L.103 613.087m58.986 0l-29.492 17.027m0 0H49.26m-.001 0l9.83-17.027m-19.662 34.056l-9.83-17.028m9.83 17.028l-9.83 17.026m9.83-17.026H59.09m-.001 0l-9.83-17.028m-19.662-.001l29.493 17.028m-.001.001v-34.056"/><path d="M29.597 664.169l-19.664.001m19.664-.001l-9.83 17.026m9.83-17.026L.103 681.196m0 0l19.664-.001m-19.664.001l9.83-17.026m19.664-.001v34.055m-9.83-17.029l9.83 17.028M9.933 664.17l-9.83-17.028m29.494 17.027L.103 647.142m58.986 0l-29.492 17.027m0 0H49.26m-.001 0l9.83-17.027m-19.662 34.055l-9.83-17.028m9.83 17.028l-9.83 17.026m9.83-17.026H59.09m-.001 0l-9.83-17.028m-19.662 0l29.493 17.028m-.001 0v-34.056"/><path d="M29.597 698.224l-19.664.001m19.664-.001l-9.83 17.026m9.83-17.026L.103 715.251m0 0l19.664-.001m-19.664.001l9.83-17.026m19.664-.001v34.055m-9.83-17.029l9.83 17.028M9.933 698.225l-9.83-17.028m29.494 17.027L.103 681.196m58.986 0l-29.492 17.027m0 .001H49.26m-.001 0l9.83-17.027m-19.662 34.055l-9.83-17.028m9.83 17.028l-9.83 17.026m9.83-17.026H59.09m-.001 0l-9.83-17.028m-19.662 0l29.493 17.028m-.001 0v-34.056"/><path d="M29.597 17.13l-19.664.001m19.664-.001l-9.83 17.026m9.83-17.026L.103 34.157m0 0l19.664-.001m-19.664.001l9.83-17.026m19.664-.001v34.055m-9.83-17.029l9.83 17.028M9.933 17.131L.103.103M29.597 17.13L.103.103m58.986 0L29.597 17.13m0 0H49.26m-.001 0L59.089.103M39.427 34.158l-9.83-17.028m9.83 17.028l-9.83 17.026m9.83-17.026H59.09m-.001 0l-9.83-17.028m-19.662 0L59.09 34.158m-.001 0V.102"/><path d="M88.583 51.185H68.919m19.664 0l-9.83 17.027m9.83-17.027L59.089 68.212m0 0h19.664m-19.664 0l9.83-17.027m19.664 0V85.24m-9.83-17.029l9.83 17.028M68.919 51.185l-9.83-17.028m29.494 17.028L59.089 34.157m58.986 0L88.583 51.185m0 0h19.663m0 0l9.83-17.027M98.413 68.212l-9.83-17.028m9.83 17.028l-9.83 17.027m9.83-17.027h19.663m0 0l-9.83-17.028m-19.663.001l29.493 17.028m0-.001V34.157"/><path d="M88.583 85.239H68.919m19.664 0l-9.83 17.027m9.83-17.027l-29.494 17.027m0 .001h19.664m-19.664 0l9.83-17.027m19.664-.001v34.055m-9.83-17.028l9.83 17.028M68.919 85.24l-9.83-17.028m29.494 17.027L59.089 68.212m58.986 0L88.583 85.239m0 0h19.663m0 0l9.83-17.027m-19.663 34.055l-9.83-17.028m9.83 17.028l-9.83 17.027m9.83-17.027h19.663m0 0l-9.83-17.028m-19.663 0l29.493 17.028m0 0V68.212"/><path d="M88.583 119.294H68.919m19.664 0l-9.83 17.027m9.83-17.027l-29.494 17.027m0 0h19.664m-19.664 0l9.83-17.027m19.664 0v34.055m-9.83-17.028l9.83 17.028m-19.664-34.055l-9.83-17.028m29.494 17.028l-29.494-17.027m58.986 0l-29.492 17.027m0 0h19.663m0 0l9.83-17.027m-19.663 34.055l-9.83-17.028m9.83 17.028l-9.83 17.027m9.83-17.027h19.663m0 0l-9.83-17.028m-19.663 0l29.493 17.028m0 0v-34.055"/><path d="M88.583 153.349H68.919m19.664 0l-9.83 17.027m9.83-17.027l-29.494 17.027m0 0h19.664m-19.664 0l9.83-17.027m19.664 0v34.055m-9.83-17.029l9.83 17.028m-19.664-34.054l-9.83-17.028m29.494 17.028l-29.494-17.027m58.986-.001l-29.492 17.027m0 .001h19.663m0 0l9.83-17.027m-19.663 34.054l-9.83-17.028m9.83 17.028l-9.83 17.027m9.83-17.027h19.663m0 0l-9.83-17.028m-19.663.001l29.493 17.028m0-.001v-34.055"/><path d="M88.583 187.403H68.919m19.664 0l-9.83 17.027m9.83-17.027L59.089 204.43m0 .001h19.664m-19.664 0l9.83-17.027m19.664-.001v34.055m-9.83-17.028l9.83 17.028m-19.664-34.054l-9.83-17.028m29.494 17.027l-29.494-17.027m58.986 0l-29.492 17.027m0 0h19.663m0 0l9.83-17.027m-19.663 34.055l-9.83-17.028m9.83 17.028l-9.83 17.027m9.83-17.027h19.663m0 0l-9.83-17.028m-19.663 0l29.493 17.028m0 0v-34.055"/><path d="M88.583 221.458H68.919m19.664 0l-9.83 17.027m9.83-17.027l-29.494 17.027m0 0h19.664m-19.664 0l9.83-17.027m19.664 0v34.055m-9.83-17.028l9.83 17.028m-19.664-34.055l-9.83-17.028m29.494 17.028l-29.494-17.027m58.986 0l-29.492 17.027m0 0h19.663m0 0l9.83-17.027m-19.663 34.055l-9.83-17.028m9.83 17.028l-9.83 17.027m9.83-17.027h19.663m0 0l-9.83-17.028m-19.663 0l29.493 17.028m0 0v-34.055"/><path d="M88.583 255.513H68.919m19.664 0l-9.83 17.027m9.83-17.027L59.089 272.54m0 0h19.664m-19.664 0l9.83-17.027m19.664 0v34.055m-9.83-17.028l9.83 17.028m-19.664-34.055l-9.83-17.028m29.494 17.028l-29.494-17.027m58.986-.001l-29.492 17.027m0 .001h19.663m0 0l9.83-17.027m-19.663 34.055l-9.83-17.028m9.83 17.028l-9.83 17.027m9.83-17.027h19.663m0 0l-9.83-17.028m-19.663 0l29.493 17.028m0 0v-34.055"/><path d="M88.583 289.567H68.919m19.664 0l-9.83 17.027m9.83-17.027l-29.494 17.027m0 .001h19.664m-19.664 0l9.83-17.027m19.664-.001v34.055m-9.83-17.028l9.83 17.028m-19.664-34.054l-9.83-17.028m29.494 17.027L59.089 272.54m58.986 0l-29.492 17.027m0 0h19.663m0 0l9.83-17.027m-19.663 34.055l-9.83-17.028m9.83 17.028l-9.83 17.027m9.83-17.027h19.663m0 0l-9.83-17.028m-19.663 0l29.493 17.028m0 0V272.54"/><path d="M88.583 323.622H68.919m19.664 0l-9.83 17.027m9.83-17.027l-29.494 17.027m0 0h19.664m-19.664 0l9.83-17.027m19.664 0v34.055m-9.83-17.028l9.83 17.028m-19.664-34.054l-9.83-17.028m29.494 17.027l-29.494-17.027m58.986 0l-29.492 17.027m0 0h19.663m0 0l9.83-17.027M98.413 340.65l-9.83-17.028m9.83 17.028l-9.83 17.027m9.83-17.027h19.663m0 0l-9.83-17.028m-19.663 0l29.493 17.028m0 0v-34.055"/><path d="M88.583 357.677H68.919m19.664 0l-9.83 17.026m9.83-17.026l-29.494 17.027m0 0l19.664-.001m-19.664.001l9.83-17.027m19.664 0v34.055m-9.83-17.029l9.83 17.028m-19.664-34.054l-9.83-17.028m29.494 17.028L59.089 340.65m58.986-.001l-29.492 17.027m0 .001h19.663m0 0l9.83-17.027m-19.663 34.055l-9.83-17.028m9.83 17.028l-9.83 17.026m9.83-17.026h19.663m0 0l-9.83-17.028m-19.663 0l29.493 17.028m0 0v-34.056"/><path d="M88.583 391.731l-19.664.001m19.664-.001l-9.83 17.026m9.83-17.026l-29.494 17.027m0 .001l19.664-.001m-19.664.001l9.83-17.026m19.664-.002v34.055m-9.83-17.028l9.83 17.028m-19.664-34.054l-9.83-17.028m29.494 17.027l-29.494-17.027m58.986 0l-29.492 17.027m0 0h19.663m0 0l9.83-17.027M98.413 408.76l-9.83-17.028m9.83 17.028l-9.83 17.026m9.83-17.026h19.663m0 0l-9.83-17.028m-19.663-.001l29.493 17.028m0 .001v-34.056"/><path d="M88.583 425.786l-19.664.001m19.664-.001l-9.83 17.026m9.83-17.026l-29.494 17.027m0 0l19.664-.001m-19.664.001l9.83-17.026m19.664-.001v34.055m-9.83-17.029l9.83 17.028m-19.664-34.053l-9.83-17.028m29.494 17.027l-29.494-17.027m58.986 0l-29.492 17.027m0 0h19.663m0 0l9.83-17.027m-19.663 34.055l-9.83-17.028m9.83 17.028l-9.83 17.026m9.83-17.026h19.663m0 0l-9.83-17.028m-19.663 0l29.493 17.028m0 0v-34.056"/><path d="M88.583 459.841l-19.664.001m19.664-.001l-9.83 17.026m9.83-17.026l-29.494 17.027m0 0l19.664-.001m-19.664.001l9.83-17.026m19.664-.001v34.055m-9.83-17.029l9.83 17.028m-19.664-34.053l-9.83-17.028m29.494 17.027l-29.494-17.027m58.986-.001L88.583 459.84m0 .001h19.663m0 0l9.83-17.027m-19.663 34.055l-9.83-17.028m9.83 17.028l-9.83 17.026m9.83-17.026h19.663m0 0l-9.83-17.028m-19.663 0l29.493 17.028m0 0v-34.056"/><path d="M88.583 493.896l-19.664.001m19.664-.001l-9.83 17.026m9.83-17.026l-29.494 17.027m0 0l19.664-.001m-19.664.001l9.83-17.026m19.664-.001v34.055m-9.83-17.029l9.83 17.028m-19.664-34.054l-9.83-17.028m29.494 17.028l-29.494-17.027m58.986-.001l-29.492 17.027m0 .001h19.663m0 0l9.83-17.027m-19.663 34.055l-9.83-17.028m9.83 17.028l-9.83 17.026m9.83-17.026h19.663m0 0l-9.83-17.028m-19.663 0l29.493 17.028m0 0v-34.056"/><path d="M88.583 527.95l-19.664.001m19.664-.001l-9.83 17.026m9.83-17.026l-29.494 17.027m0 .001l19.664-.001m-19.664.001l9.83-17.026m19.664-.002v34.055m-9.83-17.028l9.83 17.028m-19.664-34.054l-9.83-17.028m29.494 17.027l-29.494-17.027m58.986 0L88.583 527.95m0 0h19.663m0 0l9.83-17.027m-19.663 34.056l-9.83-17.028m9.83 17.028l-9.83 17.026m9.83-17.026h19.663m0 0l-9.83-17.028m-19.663-.001l29.493 17.028m0 .001v-34.056"/><path d="M88.583 562.005l-19.664.001m19.664-.001l-9.83 17.026m9.83-17.026l-29.494 17.027m0 0l19.664-.001m-19.664.001l9.83-17.026m19.664-.001v34.055m-9.83-17.029l9.83 17.028m-19.664-34.053l-9.83-17.028m29.494 17.027l-29.494-17.027m58.986 0l-29.492 17.027m0 0h19.663m0 0l9.83-17.027m-19.663 34.055l-9.83-17.028m9.83 17.028l-9.83 17.026m9.83-17.026h19.663m0 0l-9.83-17.028m-19.663 0l29.493 17.028m0 0v-34.056"/><path d="M88.583 596.06l-19.664.001m19.664-.001l-9.83 17.026m9.83-17.026l-29.494 17.027m0 0l19.664-.001m-19.664.001l9.83-17.026m19.664-.001v34.055m-9.83-17.029l9.83 17.028m-19.664-34.053l-9.83-17.028m29.494 17.027l-29.494-17.027m58.986-.001L88.583 596.06m0 0h19.663m0 0l9.83-17.027m-19.663 34.055l-9.83-17.028m9.83 17.028l-9.83 17.026m9.83-17.026h19.663m0 0l-9.83-17.028m-19.663 0l29.493 17.028m0 0v-34.056"/><path d="M88.583 630.114l-19.664.001m19.664-.001l-9.83 17.026m9.83-17.026l-29.494 17.027m0 .001l19.664-.001m-19.664.001l9.83-17.026m19.664-.002v34.055m-9.83-17.028l9.83 17.028m-19.664-34.054l-9.83-17.028m29.494 17.027l-29.494-17.027m58.986 0l-29.492 17.027m0 0h19.663m0 0l9.83-17.027m-19.663 34.056l-9.83-17.028m9.83 17.028l-9.83 17.026m9.83-17.026h19.663m0 0l-9.83-17.028m-19.663-.001l29.493 17.028m0 .001v-34.056"/><path d="M88.583 664.169l-19.664.001m19.664-.001l-9.83 17.026m9.83-17.026l-29.494 17.027m0 0l19.664-.001m-19.664.001l9.83-17.026m19.664-.001v34.055m-9.83-17.029l9.83 17.028M68.919 664.17l-9.83-17.028m29.494 17.027l-29.494-17.027m58.986 0l-29.492 17.027m0 0h19.663m0 0l9.83-17.027m-19.663 34.055l-9.83-17.028m9.83 17.028l-9.83 17.026m9.83-17.026h19.663m0 0l-9.83-17.028m-19.663 0l29.493 17.028m0 0v-34.056"/><path d="M88.583 698.224l-19.664.001m19.664-.001l-9.83 17.026m9.83-17.026l-29.494 17.027m0 0l19.664-.001m-19.664.001l9.83-17.026m19.664-.001v34.055m-9.83-17.029l9.83 17.028m-19.664-34.053l-9.83-17.028m29.494 17.027l-29.494-17.027m58.986-.001l-29.492 17.027m0 .001h19.663m0 0l9.83-17.027m-19.663 34.055l-9.83-17.028m9.83 17.028l-9.83 17.026m9.83-17.026h19.663m0 0l-9.83-17.028m-19.663 0l29.493 17.028m0 0v-34.056"/><path d="M88.583 17.13l-19.664.001m19.664-.001l-9.83 17.026m9.83-17.026L59.089 34.157m0 0l19.664-.001m-19.664.001l9.83-17.026m19.664-.001v34.055m-9.83-17.029l9.83 17.028M68.919 17.131L59.089.103M88.583 17.13L59.089.103m58.986 0L88.583 17.13m0 0h19.663m0 0l9.83-17.027M98.413 34.158l-9.83-17.028m9.83 17.028l-9.83 17.026m9.83-17.026h19.663m0 0l-9.83-17.028m-19.663 0l29.493 17.028m0 0V.102"/><path d="M147.569 51.185h-19.664m19.664 0l-9.83 17.027m9.83-17.027l-29.494 17.027m0 0h19.664m-19.664 0l9.83-17.027m19.664 0V85.24m-9.83-17.029l9.83 17.028m-19.664-34.054l-9.83-17.028m29.494 17.028l-29.494-17.027m58.987-.001L147.57 51.184m-.001.001h19.663m0 0l9.83-17.027m-19.663 34.054l-9.83-17.028m9.83 17.028l-9.83 17.027m9.83-17.027h19.663m0 0l-9.83-17.028m-19.663.001l29.493 17.028m0-.001V34.157"/><path d="M147.569 85.239h-19.664m19.664 0l-9.83 17.027m9.83-17.027l-29.494 17.027m0 .001h19.664m-19.664 0l9.83-17.027m19.664-.001v34.055m-9.83-17.028l9.83 17.028M127.905 85.24l-9.83-17.028m29.494 17.027l-29.494-17.027m58.987 0L147.57 85.239m-.001 0h19.663m0 0l9.83-17.027m-19.663 34.055l-9.83-17.028m9.83 17.028l-9.83 17.027m9.83-17.027h19.663m0 0l-9.83-17.028m-19.663 0l29.493 17.028m0 0V68.212"/><path d="M147.569 119.294h-19.664m19.664 0l-9.83 17.027m9.83-17.027l-29.494 17.027m0 0h19.664m-19.664 0l9.83-17.027m19.664 0v34.055m-9.83-17.028l9.83 17.028m-19.664-34.055l-9.83-17.028m29.494 17.028l-29.494-17.027m58.987 0l-29.492 17.027m-.001 0h19.663m0 0l9.83-17.027m-19.663 34.055l-9.83-17.028m9.83 17.028l-9.83 17.027m9.83-17.027h19.663m0 0l-9.83-17.028m-19.663 0l29.493 17.028m0 0v-34.055"/><path d="M147.569 153.349h-19.664m19.664 0l-9.83 17.027m9.83-17.027l-29.494 17.027m0 0h19.664m-19.664 0l9.83-17.027m19.664 0v34.055m-9.83-17.029l9.83 17.028m-19.664-34.054l-9.83-17.028m29.494 17.028l-29.494-17.027m58.987-.001l-29.492 17.027m-.001.001h19.663m0 0l9.83-17.027m-19.663 34.054l-9.83-17.028m9.83 17.028l-9.83 17.027m9.83-17.027h19.663m0 0l-9.83-17.028m-19.663.001l29.493 17.028m0-.001v-34.055"/><path d="M147.569 187.403h-19.664m19.664 0l-9.83 17.027m9.83-17.027l-29.494 17.027m0 .001h19.664m-19.664 0l9.83-17.027m19.664-.001v34.055m-9.83-17.028l9.83 17.028m-19.664-34.054l-9.83-17.028m29.494 17.027l-29.494-17.027m58.987 0l-29.492 17.027m-.001 0h19.663m0 0l9.83-17.027m-19.663 34.055l-9.83-17.028m9.83 17.028l-9.83 17.027m9.83-17.027h19.663m0 0l-9.83-17.028m-19.663 0l29.493 17.028m0 0v-34.055"/><path d="M147.569 221.458h-19.664m19.664 0l-9.83 17.027m9.83-17.027l-29.494 17.027m0 0h19.664m-19.664 0l9.83-17.027m19.664 0v34.055m-9.83-17.028l9.83 17.028m-19.664-34.055l-9.83-17.028m29.494 17.028l-29.494-17.027m58.987 0l-29.492 17.027m-.001 0h19.663m0 0l9.83-17.027m-19.663 34.055l-9.83-17.028m9.83 17.028l-9.83 17.027m9.83-17.027h19.663m0 0l-9.83-17.028m-19.663 0l29.493 17.028m0 0v-34.055"/><path d="M147.569 255.513h-19.664m19.664 0l-9.83 17.027m9.83-17.027l-29.494 17.027m0 0h19.664m-19.664 0l9.83-17.027m19.664 0v34.055m-9.83-17.028l9.83 17.028m-19.664-34.055l-9.83-17.028m29.494 17.028l-29.494-17.027m58.987-.001l-29.492 17.027m-.001.001h19.663m0 0l9.83-17.027m-19.663 34.055l-9.83-17.028m9.83 17.028l-9.83 17.027m9.83-17.027h19.663m0 0l-9.83-17.028m-19.663 0l29.493 17.028m0 0v-34.055"/><path d="M147.569 289.567h-19.664m19.664 0l-9.83 17.027m9.83-17.027l-29.494 17.027m0 .001h19.664m-19.664 0l9.83-17.027m19.664-.001v34.055m-9.83-17.028l9.83 17.028m-19.664-34.054l-9.83-17.028m29.494 17.027l-29.494-17.027m58.987 0l-29.492 17.027m-.001 0h19.663m0 0l9.83-17.027m-19.663 34.055l-9.83-17.028m9.83 17.028l-9.83 17.027m9.83-17.027h19.663m0 0l-9.83-17.028m-19.663 0l29.493 17.028m0 0V272.54"/><path d="M147.569 323.622h-19.664m19.664 0l-9.83 17.027m9.83-17.027l-29.494 17.027m0 0h19.664m-19.664 0l9.83-17.027m19.664 0v34.055m-9.83-17.028l9.83 17.028m-19.664-34.054l-9.83-17.028m29.494 17.027l-29.494-17.027m58.987 0l-29.492 17.027m-.001 0h19.663m0 0l9.83-17.027m-19.663 34.055l-9.83-17.028m9.83 17.028l-9.83 17.027m9.83-17.027h19.663m0 0l-9.83-17.028m-19.663 0l29.493 17.028m0 0v-34.055"/><path d="M147.569 357.677h-19.664m19.664 0l-9.83 17.026m9.83-17.026l-29.494 17.027m0 0l19.664-.001m-19.664.001l9.83-17.027m19.664 0v34.055m-9.83-17.029l9.83 17.028m-19.664-34.054l-9.83-17.028m29.494 17.028l-29.494-17.027m58.987-.001l-29.492 17.027m-.001.001h19.663m0 0l9.83-17.027m-19.663 34.055l-9.83-17.028m9.83 17.028l-9.83 17.026m9.83-17.026h19.663m0 0l-9.83-17.028m-19.663 0l29.493 17.028m0 0v-34.056"/><path d="M147.569 391.731l-19.664.001m19.664-.001l-9.83 17.026m9.83-17.026l-29.494 17.027m0 .001l19.664-.001m-19.664.001l9.83-17.026m19.664-.002v34.055m-9.83-17.028l9.83 17.028m-19.664-34.054l-9.83-17.028m29.494 17.027l-29.494-17.027m58.987 0l-29.492 17.027m-.001 0h19.663m0 0l9.83-17.027m-19.663 34.056l-9.83-17.028m9.83 17.028l-9.83 17.026m9.83-17.026h19.663m0 0l-9.83-17.028m-19.663-.001l29.493 17.028m0 .001v-34.056"/><path d="M147.569 425.786l-19.664.001m19.664-.001l-9.83 17.026m9.83-17.026l-29.494 17.027m0 0l19.664-.001m-19.664.001l9.83-17.026m19.664-.001v34.055m-9.83-17.029l9.83 17.028m-19.664-34.053l-9.83-17.028m29.494 17.027l-29.494-17.027m58.987 0l-29.492 17.027m-.001 0h19.663m0 0l9.83-17.027m-19.663 34.055l-9.83-17.028m9.83 17.028l-9.83 17.026m9.83-17.026h19.663m0 0l-9.83-17.028m-19.663 0l29.493 17.028m0 0v-34.056"/><path d="M147.569 459.841l-19.664.001m19.664-.001l-9.83 17.026m9.83-17.026l-29.494 17.027m0 0l19.664-.001m-19.664.001l9.83-17.026m19.664-.001v34.055m-9.83-17.029l9.83 17.028m-19.664-34.053l-9.83-17.028m29.494 17.027l-29.494-17.027m58.987-.001L147.57 459.84m-.001.001h19.663m0 0l9.83-17.027m-19.663 34.055l-9.83-17.028m9.83 17.028l-9.83 17.026m9.83-17.026h19.663m0 0l-9.83-17.028m-19.663 0l29.493 17.028m0 0v-34.056"/><path d="M147.569 493.896l-19.664.001m19.664-.001l-9.83 17.026m9.83-17.026l-29.494 17.027m0 0l19.664-.001m-19.664.001l9.83-17.026m19.664-.001v34.055m-9.83-17.029l9.83 17.028m-19.664-34.054l-9.83-17.028m29.494 17.028l-29.494-17.027m58.987-.001l-29.492 17.027m-.001.001h19.663m0 0l9.83-17.027m-19.663 34.055l-9.83-17.028m9.83 17.028l-9.83 17.026m9.83-17.026h19.663m0 0l-9.83-17.028m-19.663 0l29.493 17.028m0 0v-34.056"/><path d="M147.569 527.95l-19.664.001m19.664-.001l-9.83 17.026m9.83-17.026l-29.494 17.027m0 .001l19.664-.001m-19.664.001l9.83-17.026m19.664-.002v34.055m-9.83-17.028l9.83 17.028m-19.664-34.054l-9.83-17.028m29.494 17.027l-29.494-17.027m58.987 0L147.57 527.95m-.001 0h19.663m0 0l9.83-17.027m-19.663 34.056l-9.83-17.028m9.83 17.028l-9.83 17.026m9.83-17.026h19.663m0 0l-9.83-17.028m-19.663-.001l29.493 17.028m0 .001v-34.056"/><path d="M147.569 562.005l-19.664.001m19.664-.001l-9.83 17.026m9.83-17.026l-29.494 17.027m0 0l19.664-.001m-19.664.001l9.83-17.026m19.664-.001v34.055m-9.83-17.029l9.83 17.028m-19.664-34.053l-9.83-17.028m29.494 17.027l-29.494-17.027m58.987 0l-29.492 17.027m-.001 0h19.663m0 0l9.83-17.027m-19.663 34.055l-9.83-17.028m9.83 17.028l-9.83 17.026m9.83-17.026h19.663m0 0l-9.83-17.028m-19.663 0l29.493 17.028m0 0v-34.056"/><path d="M147.569 596.06l-19.664.001m19.664-.001l-9.83 17.026m9.83-17.026l-29.494 17.027m0 0l19.664-.001m-19.664.001l9.83-17.026m19.664-.001v34.055m-9.83-17.029l9.83 17.028m-19.664-34.053l-9.83-17.028m29.494 17.027l-29.494-17.027m58.987-.001l-29.492 17.027m-.001.001h19.663m0 0l9.83-17.027m-19.663 34.055l-9.83-17.028m9.83 17.028l-9.83 17.026m9.83-17.026h19.663m0 0l-9.83-17.028m-19.663 0l29.493 17.028m0 0v-34.056"/><path d="M147.569 630.114l-19.664.001m19.664-.001l-9.83 17.026m9.83-17.026l-29.494 17.027m0 .001l19.664-.001m-19.664.001l9.83-17.026m19.664-.002v34.055m-9.83-17.028l9.83 17.028m-19.664-34.054l-9.83-17.028m29.494 17.027l-29.494-17.027m58.987 0l-29.492 17.027m-.001 0h19.663m0 0l9.83-17.027m-19.663 34.056l-9.83-17.028m9.83 17.028l-9.83 17.026m9.83-17.026h19.663m0 0l-9.83-17.028m-19.663-.001l29.493 17.028m0 .001v-34.056"/><path d="M147.569 664.169l-19.664.001m19.664-.001l-9.83 17.026m9.83-17.026l-29.494 17.027m0 0l19.664-.001m-19.664.001l9.83-17.026m19.664-.001v34.055m-9.83-17.029l9.83 17.028m-19.664-34.053l-9.83-17.028m29.494 17.027l-29.494-17.027m58.987 0l-29.492 17.027m-.001 0h19.663m0 0l9.83-17.027m-19.663 34.055l-9.83-17.028m9.83 17.028l-9.83 17.026m9.83-17.026h19.663m0 0l-9.83-17.028m-19.663 0l29.493 17.028m0 0v-34.056"/><path d="M147.569 698.224l-19.664.001m19.664-.001l-9.83 17.026m9.83-17.026l-29.494 17.027m0 0l19.664-.001m-19.664.001l9.83-17.026m19.664-.001v34.055m-9.83-17.029l9.83 17.028m-19.664-34.053l-9.83-17.028m29.494 17.027l-29.494-17.027m58.987-.001l-29.492 17.027m-.001.001h19.663m0 0l9.83-17.027m-19.663 34.055l-9.83-17.028m9.83 17.028l-9.83 17.026m9.83-17.026h19.663m0 0l-9.83-17.028m-19.663 0l29.493 17.028m0 0v-34.056"/><path d="M147.569 17.13l-19.664.001m19.664-.001l-9.83 17.026m9.83-17.026l-29.494 17.027m0 0l19.664-.001m-19.664.001l9.83-17.026m19.664-.001v34.055m-9.83-17.029l9.83 17.028m-19.664-34.053L118.075.103m29.494 17.027L118.075.103m58.987 0L147.569 17.13m0 0h19.663m0 0l9.83-17.027m-19.663 34.055l-9.83-17.028m9.83 17.028l-9.83 17.026m9.83-17.026h19.663m0 0l-9.83-17.028m-19.663 0l29.493 17.028m0 0V.102"/><path d="M206.556 51.185h-19.664m19.664 0l-9.83 17.027m9.83-17.027l-29.494 17.027m0 0h19.664m-19.664 0l9.83-17.027m19.664 0V85.24m-9.83-17.029l9.83 17.028m-19.664-34.054l-9.83-17.028m29.494 17.028l-29.494-17.027m58.986-.001l-29.492 17.027m0 .001h19.663m-.001 0l9.83-17.027m-19.662 34.054l-9.83-17.028m9.83 17.028l-9.83 17.027m9.83-17.027h19.663m-.001 0l-9.83-17.028m-19.662.001l29.493 17.028m-.001-.001V34.157"/><path d="M206.556 85.239h-19.664m19.664 0l-9.83 17.027m9.83-17.027l-29.494 17.027m0 .001h19.664m-19.664 0l9.83-17.027m19.664-.001v34.055m-9.83-17.028l9.83 17.028M186.892 85.24l-9.83-17.028m29.494 17.027l-29.494-17.027m58.986 0l-29.492 17.027m0 0h19.663m-.001 0l9.83-17.027m-19.662 34.055l-9.83-17.028m9.83 17.028l-9.83 17.027m9.83-17.027h19.663m-.001 0l-9.83-17.028m-19.662 0l29.493 17.028m-.001 0V68.212"/><path d="M206.556 119.294h-19.664m19.664 0l-9.83 17.027m9.83-17.027l-29.494 17.027m0 0h19.664m-19.664 0l9.83-17.027m19.664 0v34.055m-9.83-17.028l9.83 17.028m-19.664-34.055l-9.83-17.028m29.494 17.028l-29.494-17.027m58.986 0l-29.492 17.027m0 0h19.663m-.001 0l9.83-17.027m-19.662 34.055l-9.83-17.028m9.83 17.028l-9.83 17.027m9.83-17.027h19.663m-.001 0l-9.83-17.028m-19.662 0l29.493 17.028m-.001 0v-34.055"/><path d="M206.556 153.349h-19.664m19.664 0l-9.83 17.027m9.83-17.027l-29.494 17.027m0 0h19.664m-19.664 0l9.83-17.027m19.664 0v34.055m-9.83-17.029l9.83 17.028m-19.664-34.054l-9.83-17.028m29.494 17.028l-29.494-17.027m58.986-.001l-29.492 17.027m0 .001h19.663m-.001 0l9.83-17.027m-19.662 34.054l-9.83-17.028m9.83 17.028l-9.83 17.027m9.83-17.027h19.663m-.001 0l-9.83-17.028m-19.662.001l29.493 17.028m-.001-.001v-34.055"/><path d="M206.556 187.403h-19.664m19.664 0l-9.83 17.027m9.83-17.027l-29.494 17.027m0 .001h19.664m-19.664 0l9.83-17.027m19.664-.001v34.055m-9.83-17.028l9.83 17.028m-19.664-34.054l-9.83-17.028m29.494 17.027l-29.494-17.027m58.986 0l-29.492 17.027m0 0h19.663m-.001 0l9.83-17.027m-19.662 34.055l-9.83-17.028m9.83 17.028l-9.83 17.027m9.83-17.027h19.663m-.001 0l-9.83-17.028m-19.662 0l29.493 17.028m-.001 0v-34.055"/><path d="M206.556 221.458h-19.664m19.664 0l-9.83 17.027m9.83-17.027l-29.494 17.027m0 0h19.664m-19.664 0l9.83-17.027m19.664 0v34.055m-9.83-17.028l9.83 17.028m-19.664-34.055l-9.83-17.028m29.494 17.028l-29.494-17.027m58.986 0l-29.492 17.027m0 0h19.663m-.001 0l9.83-17.027m-19.662 34.055l-9.83-17.028m9.83 17.028l-9.83 17.027m9.83-17.027h19.663m-.001 0l-9.83-17.028m-19.662 0l29.493 17.028m-.001 0v-34.055"/><path d="M206.556 255.513h-19.664m19.664 0l-9.83 17.027m9.83-17.027l-29.494 17.027m0 0h19.664m-19.664 0l9.83-17.027m19.664 0v34.055m-9.83-17.028l9.83 17.028m-19.664-34.055l-9.83-17.028m29.494 17.028l-29.494-17.027m58.986-.001l-29.492 17.027m0 .001h19.663m-.001 0l9.83-17.027m-19.662 34.055l-9.83-17.028m9.83 17.028l-9.83 17.027m9.83-17.027h19.663m-.001 0l-9.83-17.028m-19.662 0l29.493 17.028m-.001 0v-34.055"/><path d="M206.556 289.567h-19.664m19.664 0l-9.83 17.027m9.83-17.027l-29.494 17.027m0 .001h19.664m-19.664 0l9.83-17.027m19.664-.001v34.055m-9.83-17.028l9.83 17.028m-19.664-34.054l-9.83-17.028m29.494 17.027l-29.494-17.027m58.986 0l-29.492 17.027m0 0h19.663m-.001 0l9.83-17.027m-19.662 34.055l-9.83-17.028m9.83 17.028l-9.83 17.027m9.83-17.027h19.663m-.001 0l-9.83-17.028m-19.662 0l29.493 17.028m-.001 0V272.54"/><path d="M206.556 323.622h-19.664m19.664 0l-9.83 17.027m9.83-17.027l-29.494 17.027m0 0h19.664m-19.664 0l9.83-17.027m19.664 0v34.055m-9.83-17.028l9.83 17.028m-19.664-34.054l-9.83-17.028m29.494 17.027l-29.494-17.027m58.986 0l-29.492 17.027m0 0h19.663m-.001 0l9.83-17.027m-19.662 34.055l-9.83-17.028m9.83 17.028l-9.83 17.027m9.83-17.027h19.663m-.001 0l-9.83-17.028m-19.662 0l29.493 17.028m-.001 0v-34.055"/><path d="M206.556 357.677h-19.664m19.664 0l-9.83 17.026m9.83-17.026l-29.494 17.027m0 0l19.664-.001m-19.664.001l9.83-17.027m19.664 0v34.055m-9.83-17.029l9.83 17.028m-19.664-34.054l-9.83-17.028m29.494 17.028l-29.494-17.027m58.986-.001l-29.492 17.027m0 .001h19.663m-.001 0l9.83-17.027m-19.662 34.055l-9.83-17.028m9.83 17.028l-9.83 17.026m9.83-17.026h19.663m-.001 0l-9.83-17.028m-19.662 0l29.493 17.028m-.001 0v-34.056"/><path d="M206.556 391.731l-19.664.001m19.664-.001l-9.83 17.026m9.83-17.026l-29.494 17.027m0 .001l19.664-.001m-19.664.001l9.83-17.026m19.664-.002v34.055m-9.83-17.028l9.83 17.028m-19.664-34.054l-9.83-17.028m29.494 17.027l-29.494-17.027m58.986 0l-29.492 17.027m0 0h19.663m-.001 0l9.83-17.027m-19.662 34.056l-9.83-17.028m9.83 17.028l-9.83 17.026m9.83-17.026h19.663m-.001 0l-9.83-17.028m-19.662-.001l29.493 17.028m-.001.001v-34.056"/><path d="M206.556 425.786l-19.664.001m19.664-.001l-9.83 17.026m9.83-17.026l-29.494 17.027m0 0l19.664-.001m-19.664.001l9.83-17.026m19.664-.001v34.055m-9.83-17.029l9.83 17.028m-19.664-34.053l-9.83-17.028m29.494 17.027l-29.494-17.027m58.986 0l-29.492 17.027m0 0h19.663m-.001 0l9.83-17.027m-19.662 34.055l-9.83-17.028m9.83 17.028l-9.83 17.026m9.83-17.026h19.663m-.001 0l-9.83-17.028m-19.662 0l29.493 17.028m-.001 0v-34.056"/><path d="M206.556 459.841l-19.664.001m19.664-.001l-9.83 17.026m9.83-17.026l-29.494 17.027m0 0l19.664-.001m-19.664.001l9.83-17.026m19.664-.001v34.055m-9.83-17.029l9.83 17.028m-19.664-34.053l-9.83-17.028m29.494 17.027l-29.494-17.027m58.986-.001l-29.492 17.027m0 .001h19.663m-.001 0l9.83-17.027m-19.662 34.055l-9.83-17.028m9.83 17.028l-9.83 17.026m9.83-17.026h19.663m-.001 0l-9.83-17.028m-19.662 0l29.493 17.028m-.001 0v-34.056"/><path d="M206.556 493.896l-19.664.001m19.664-.001l-9.83 17.026m9.83-17.026l-29.494 17.027m0 0l19.664-.001m-19.664.001l9.83-17.026m19.664-.001v34.055m-9.83-17.029l9.83 17.028m-19.664-34.054l-9.83-17.028m29.494 17.028l-29.494-17.027m58.986-.001l-29.492 17.027m0 .001h19.663m-.001 0l9.83-17.027m-19.662 34.055l-9.83-17.028m9.83 17.028l-9.83 17.026m9.83-17.026h19.663m-.001 0l-9.83-17.028m-19.662 0l29.493 17.028m-.001 0v-34.056"/><path d="M206.556 527.95l-19.664.001m19.664-.001l-9.83 17.026m9.83-17.026l-29.494 17.027m0 .001l19.664-.001m-19.664.001l9.83-17.026m19.664-.002v34.055m-9.83-17.028l9.83 17.028m-19.664-34.054l-9.83-17.028m29.494 17.027l-29.494-17.027m58.986 0l-29.492 17.027m0 0h19.663m-.001 0l9.83-17.027m-19.662 34.056l-9.83-17.028m9.83 17.028l-9.83 17.026m9.83-17.026h19.663m-.001 0l-9.83-17.028m-19.662-.001l29.493 17.028m-.001.001v-34.056"/><path d="M206.556 562.005l-19.664.001m19.664-.001l-9.83 17.026m9.83-17.026l-29.494 17.027m0 0l19.664-.001m-19.664.001l9.83-17.026m19.664-.001v34.055m-9.83-17.029l9.83 17.028m-19.664-34.053l-9.83-17.028m29.494 17.027l-29.494-17.027m58.986 0l-29.492 17.027m0 0h19.663m-.001 0l9.83-17.027m-19.662 34.055l-9.83-17.028m9.83 17.028l-9.83 17.026m9.83-17.026h19.663m-.001 0l-9.83-17.028m-19.662 0l29.493 17.028m-.001 0v-34.056"/><path d="M206.556 596.06l-19.664.001m19.664-.001l-9.83 17.026m9.83-17.026l-29.494 17.027m0 0l19.664-.001m-19.664.001l9.83-17.026m19.664-.001v34.055m-9.83-17.029l9.83 17.028m-19.664-34.053l-9.83-17.028m29.494 17.027l-29.494-17.027m58.986-.001l-29.492 17.027m0 .001h19.663m-.001 0l9.83-17.027m-19.662 34.055l-9.83-17.028m9.83 17.028l-9.83 17.026m9.83-17.026h19.663m-.001 0l-9.83-17.028m-19.662 0l29.493 17.028m-.001 0v-34.056"/><path d="M206.556 630.114l-19.664.001m19.664-.001l-9.83 17.026m9.83-17.026l-29.494 17.027m0 .001l19.664-.001m-19.664.001l9.83-17.026m19.664-.002v34.055m-9.83-17.028l9.83 17.028m-19.664-34.054l-9.83-17.028m29.494 17.027l-29.494-17.027m58.986 0l-29.492 17.027m0 0h19.663m-.001 0l9.83-17.027m-19.662 34.056l-9.83-17.028m9.83 17.028l-9.83 17.026m9.83-17.026h19.663m-.001 0l-9.83-17.028m-19.662-.001l29.493 17.028m-.001.001v-34.056"/><path d="M206.556 664.169l-19.664.001m19.664-.001l-9.83 17.026m9.83-17.026l-29.494 17.027m0 0l19.664-.001m-19.664.001l9.83-17.026m19.664-.001v34.055m-9.83-17.029l9.83 17.028m-19.664-34.053l-9.83-17.028m29.494 17.027l-29.494-17.027m58.986 0l-29.492 17.027m0 0h19.663m-.001 0l9.83-17.027m-19.662 34.055l-9.83-17.028m9.83 17.028l-9.83 17.026m9.83-17.026h19.663m-.001 0l-9.83-17.028m-19.662 0l29.493 17.028m-.001 0v-34.056"/><path d="M206.556 698.224l-19.664.001m19.664-.001l-9.83 17.026m9.83-17.026l-29.494 17.027m0 0l19.664-.001m-19.664.001l9.83-17.026m19.664-.001v34.055m-9.83-17.029l9.83 17.028m-19.664-34.053l-9.83-17.028m29.494 17.027l-29.494-17.027m58.986-.001l-29.492 17.027m0 .001h19.663m-.001 0l9.83-17.027m-19.662 34.055l-9.83-17.028m9.83 17.028l-9.83 17.026m9.83-17.026h19.663m-.001 0l-9.83-17.028m-19.662 0l29.493 17.028m-.001 0v-34.056"/><path d="M206.556 17.13l-19.664.001m19.664-.001l-9.83 17.026m9.83-17.026l-29.494 17.027m0 0l19.664-.001m-19.664.001l9.83-17.026m19.664-.001v34.055m-9.83-17.029l9.83 17.028m-19.664-34.053L177.062.103m29.494 17.027L177.062.103m58.986 0L206.556 17.13m0 0h19.663m-.001 0l9.83-17.027m-19.662 34.055l-9.83-17.028m9.83 17.028l-9.83 17.026m9.83-17.026h19.663m-.001 0l-9.83-17.028m-19.662 0l29.493 17.028m-.001 0V.102"/><path d="M265.542 51.185h-19.664m19.664 0l-9.83 17.027m9.83-17.027l-29.494 17.027m0 0h19.664m-19.664 0l9.83-17.027m19.664 0V85.24m-9.83-17.029l9.83 17.028m-19.664-34.054l-9.83-17.028m29.494 17.028l-29.494-17.027m58.986-.001l-29.492 17.027m0 .001h19.663m0 0l9.829-17.027m-19.662 34.054l-9.83-17.028m9.83 17.028l-9.83 17.027m9.83-17.027h19.663m0 0l-9.83-17.028m-19.663.001l29.493 17.028m0-.001l-.001-34.055"/><path d="M265.542 85.239h-19.664m19.664 0l-9.83 17.027m9.83-17.027l-29.494 17.027m0 .001h19.664m-19.664 0l9.83-17.027m19.664-.001v34.055m-9.83-17.028l9.83 17.028M245.878 85.24l-9.83-17.028m29.494 17.027l-29.494-17.027m58.986 0l-29.492 17.027m0 0h19.663m0 0l9.829-17.027m-19.662 34.055l-9.83-17.028m9.83 17.028l-9.83 17.027m9.83-17.027h19.663m0 0l-9.83-17.028m-19.663 0l29.493 17.028m0 0l-.001-34.055"/><path d="M265.542 119.294h-19.664m19.664 0l-9.83 17.027m9.83-17.027l-29.494 17.027m0 0h19.664m-19.664 0l9.83-17.027m19.664 0v34.055m-9.83-17.028l9.83 17.028m-19.664-34.055l-9.83-17.028m29.494 17.028l-29.494-17.027m58.986 0l-29.492 17.027m0 0h19.663m0 0l9.829-17.027m-19.662 34.055l-9.83-17.028m9.83 17.028l-9.83 17.027m9.83-17.027h19.663m0 0l-9.83-17.028m-19.663 0l29.493 17.028m0 0l-.001-34.055"/><path d="M265.542 153.349h-19.664m19.664 0l-9.83 17.027m9.83-17.027l-29.494 17.027m0 0h19.664m-19.664 0l9.83-17.027m19.664 0v34.055m-9.83-17.029l9.83 17.028m-19.664-34.054l-9.83-17.028m29.494 17.028l-29.494-17.027m58.986-.001l-29.492 17.027m0 .001h19.663m0 0l9.829-17.027m-19.662 34.054l-9.83-17.028m9.83 17.028l-9.83 17.027m9.83-17.027h19.663m0 0l-9.83-17.028m-19.663.001l29.493 17.028m0-.001l-.001-34.055"/><path d="M265.542 187.403h-19.664m19.664 0l-9.83 17.027m9.83-17.027l-29.494 17.027m0 .001h19.664m-19.664 0l9.83-17.027m19.664-.001v34.055m-9.83-17.028l9.83 17.028m-19.664-34.054l-9.83-17.028m29.494 17.027l-29.494-17.027m58.986 0l-29.492 17.027m0 0h19.663m0 0l9.829-17.027m-19.662 34.055l-9.83-17.028m9.83 17.028l-9.83 17.027m9.83-17.027h19.663m0 0l-9.83-17.028m-19.663 0l29.493 17.028m0 0l-.001-34.055"/><path d="M265.542 221.458h-19.664m19.664 0l-9.83 17.027m9.83-17.027l-29.494 17.027m0 0h19.664m-19.664 0l9.83-17.027m19.664 0v34.055m-9.83-17.028l9.83 17.028m-19.664-34.055l-9.83-17.028m29.494 17.028l-29.494-17.027m58.986 0l-29.492 17.027m0 0h19.663m0 0l9.829-17.027m-19.662 34.055l-9.83-17.028m9.83 17.028l-9.83 17.027m9.83-17.027h19.663m0 0l-9.83-17.028m-19.663 0l29.493 17.028m0 0l-.001-34.055"/><path d="M265.542 255.513h-19.664m19.664 0l-9.83 17.027m9.83-17.027l-29.494 17.027m0 0h19.664m-19.664 0l9.83-17.027m19.664 0v34.055m-9.83-17.028l9.83 17.028m-19.664-34.055l-9.83-17.028m29.494 17.028l-29.494-17.027m58.986-.001l-29.492 17.027m0 .001h19.663m0 0l9.829-17.027m-19.662 34.055l-9.83-17.028m9.83 17.028l-9.83 17.027m9.83-17.027h19.663m0 0l-9.83-17.028m-19.663 0l29.493 17.028m0 0l-.001-34.055"/><path d="M265.542 289.567h-19.664m19.664 0l-9.83 17.027m9.83-17.027l-29.494 17.027m0 .001h19.664m-19.664 0l9.83-17.027m19.664-.001v34.055m-9.83-17.028l9.83 17.028m-19.664-34.054l-9.83-17.028m29.494 17.027l-29.494-17.027m58.986 0l-29.492 17.027m0 0h19.663m0 0l9.829-17.027m-19.662 34.055l-9.83-17.028m9.83 17.028l-9.83 17.027m9.83-17.027h19.663m0 0l-9.83-17.028m-19.663 0l29.493 17.028m0 0l-.001-34.055"/><path d="M265.542 323.622h-19.664m19.664 0l-9.83 17.027m9.83-17.027l-29.494 17.027m0 0h19.664m-19.664 0l9.83-17.027m19.664 0v34.055m-9.83-17.028l9.83 17.028m-19.664-34.054l-9.83-17.028m29.494 17.027l-29.494-17.027m58.986 0l-29.492 17.027m0 0h19.663m0 0l9.829-17.027m-19.662 34.055l-9.83-17.028m9.83 17.028l-9.83 17.027m9.83-17.027h19.663m0 0l-9.83-17.028m-19.663 0l29.493 17.028m0 0l-.001-34.055"/><path d="M265.542 357.677h-19.664m19.664 0l-9.83 17.026m9.83-17.026l-29.494 17.027m0 0l19.664-.001m-19.664.001l9.83-17.027m19.664 0v34.055m-9.83-17.029l9.83 17.028m-19.664-34.054l-9.83-17.028m29.494 17.028l-29.494-17.027m58.986-.001l-29.492 17.027m0 .001h19.663m0 0l9.829-17.027m-19.662 34.055l-9.83-17.028m9.83 17.028l-9.83 17.026m9.83-17.026h19.663m0 0l-9.83-17.028m-19.663 0l29.493 17.028m0 0l-.001-34.056"/><path d="M265.542 391.731l-19.664.001m19.664-.001l-9.83 17.026m9.83-17.026l-29.494 17.027m0 .001l19.664-.001m-19.664.001l9.83-17.026m19.664-.002v34.055m-9.83-17.028l9.83 17.028m-19.664-34.054l-9.83-17.028m29.494 17.027l-29.494-17.027m58.986 0l-29.492 17.027m0 0h19.663m0 0l9.829-17.027m-19.662 34.056l-9.83-17.028m9.83 17.028l-9.83 17.026m9.83-17.026h19.663m0 0l-9.83-17.028m-19.663-.001l29.493 17.028m0 .001l-.001-34.056"/><path d="M265.542 425.786l-19.664.001m19.664-.001l-9.83 17.026m9.83-17.026l-29.494 17.027m0 0l19.664-.001m-19.664.001l9.83-17.026m19.664-.001v34.055m-9.83-17.029l9.83 17.028m-19.664-34.053l-9.83-17.028m29.494 17.027l-29.494-17.027m58.986 0l-29.492 17.027m0 0h19.663m0 0l9.829-17.027m-19.662 34.055l-9.83-17.028m9.83 17.028l-9.83 17.026m9.83-17.026h19.663m0 0l-9.83-17.028m-19.663 0l29.493 17.028m0 0l-.001-34.056"/><path d="M265.542 459.841l-19.664.001m19.664-.001l-9.83 17.026m9.83-17.026l-29.494 17.027m0 0l19.664-.001m-19.664.001l9.83-17.026m19.664-.001v34.055m-9.83-17.029l9.83 17.028m-19.664-34.053l-9.83-17.028m29.494 17.027l-29.494-17.027m58.986-.001l-29.492 17.027m0 .001h19.663m0 0l9.829-17.027m-19.662 34.055l-9.83-17.028m9.83 17.028l-9.83 17.026m9.83-17.026h19.663m0 0l-9.83-17.028m-19.663 0l29.493 17.028m0 0l-.001-34.056"/><path d="M265.542 493.896l-19.664.001m19.664-.001l-9.83 17.026m9.83-17.026l-29.494 17.027m0 0l19.664-.001m-19.664.001l9.83-17.026m19.664-.001v34.055m-9.83-17.029l9.83 17.028m-19.664-34.054l-9.83-17.028m29.494 17.028l-29.494-17.027m58.986-.001l-29.492 17.027m0 .001h19.663m0 0l9.829-17.027m-19.662 34.055l-9.83-17.028m9.83 17.028l-9.83 17.026m9.83-17.026h19.663m0 0l-9.83-17.028m-19.663 0l29.493 17.028m0 0l-.001-34.056"/><path d="M265.542 527.95l-19.664.001m19.664-.001l-9.83 17.026m9.83-17.026l-29.494 17.027m0 .001l19.664-.001m-19.664.001l9.83-17.026m19.664-.002v34.055m-9.83-17.028l9.83 17.028m-19.664-34.054l-9.83-17.028m29.494 17.027l-29.494-17.027m58.986 0l-29.492 17.027m0 0h19.663m0 0l9.829-17.027m-19.662 34.056l-9.83-17.028m9.83 17.028l-9.83 17.026m9.83-17.026h19.663m0 0l-9.83-17.028m-19.663-.001l29.493 17.028m0 .001l-.001-34.056"/><path d="M265.542 562.005l-19.664.001m19.664-.001l-9.83 17.026m9.83-17.026l-29.494 17.027m0 0l19.664-.001m-19.664.001l9.83-17.026m19.664-.001v34.055m-9.83-17.029l9.83 17.028m-19.664-34.053l-9.83-17.028m29.494 17.027l-29.494-17.027m58.986 0l-29.492 17.027m0 0h19.663m0 0l9.829-17.027m-19.662 34.055l-9.83-17.028m9.83 17.028l-9.83 17.026m9.83-17.026h19.663m0 0l-9.83-17.028m-19.663 0l29.493 17.028m0 0l-.001-34.056"/><path d="M265.542 596.06l-19.664.001m19.664-.001l-9.83 17.026m9.83-17.026l-29.494 17.027m0 0l19.664-.001m-19.664.001l9.83-17.026m19.664-.001v34.055m-9.83-17.029l9.83 17.028m-19.664-34.053l-9.83-17.028m29.494 17.027l-29.494-17.027m58.986-.001l-29.492 17.027m0 .001h19.663m0 0l9.829-17.027m-19.662 34.055l-9.83-17.028m9.83 17.028l-9.83 17.026m9.83-17.026h19.663m0 0l-9.83-17.028m-19.663 0l29.493 17.028m0 0l-.001-34.056"/><path d="M265.542 630.114l-19.664.001m19.664-.001l-9.83 17.026m9.83-17.026l-29.494 17.027m0 .001l19.664-.001m-19.664.001l9.83-17.026m19.664-.002v34.055m-9.83-17.028l9.83 17.028m-19.664-34.054l-9.83-17.028m29.494 17.027l-29.494-17.027m58.986 0l-29.492 17.027m0 0h19.663m0 0l9.829-17.027m-19.662 34.056l-9.83-17.028m9.83 17.028l-9.83 17.026m9.83-17.026h19.663m0 0l-9.83-17.028m-19.663-.001l29.493 17.028m0 .001l-.001-34.056"/><path d="M265.542 664.169l-19.664.001m19.664-.001l-9.83 17.026m9.83-17.026l-29.494 17.027m0 0l19.664-.001m-19.664.001l9.83-17.026m19.664-.001v34.055m-9.83-17.029l9.83 17.028m-19.664-34.053l-9.83-17.028m29.494 17.027l-29.494-17.027m58.986 0l-29.492 17.027m0 0h19.663m0 0l9.829-17.027m-19.662 34.055l-9.83-17.028m9.83 17.028l-9.83 17.026m9.83-17.026h19.663m0 0l-9.83-17.028m-19.663 0l29.493 17.028m0 0l-.001-34.056"/><path d="M265.542 698.224l-19.664.001m19.664-.001l-9.83 17.026m9.83-17.026l-29.494 17.027m0 0l19.664-.001m-19.664.001l9.83-17.026m19.664-.001v34.055m-9.83-17.029l9.83 17.028m-19.664-34.053l-9.83-17.028m29.494 17.027l-29.494-17.027m58.986-.001l-29.492 17.027m0 .001h19.663m0 0l9.829-17.027m-19.662 34.055l-9.83-17.028m9.83 17.028l-9.83 17.026m9.83-17.026h19.663m0 0l-9.83-17.028m-19.663 0l29.493 17.028m0 0l-.001-34.056"/><path d="M265.542 17.13l-19.664.001m19.664-.001l-9.83 17.026m9.83-17.026l-29.494 17.027m0 0l19.664-.001m-19.664.001l9.83-17.026m19.664-.001v34.055m-9.83-17.029l9.83 17.028m-19.664-34.053L236.048.103m29.494 17.027L236.048.103m58.986 0L265.542 17.13m0 0h19.663m0 0L295.034.103m-19.662 34.055l-9.83-17.028m9.83 17.028l-9.83 17.026m9.83-17.026h19.663m0 0l-9.83-17.028m-19.663 0l29.493 17.028m0 0L295.034.102"/><path d="M324.528 51.185h-19.664m19.664 0l-9.83 17.027m9.83-17.027l-29.494 17.027m0 0h19.664m-19.664 0l9.83-17.027m19.664 0V85.24m-9.83-17.029l9.83 17.028m-19.664-34.054l-9.83-17.028m29.494 17.028l-29.494-17.027m58.986-.001l-29.492 17.027m0 .001h19.663m0 0l9.829-17.027m-19.662 34.054l-9.83-17.028m9.83 17.028l-9.83 17.027m9.83-17.027h19.663m0 0l-9.83-17.028m-19.663.001l29.493 17.028m0-.001l-.001-34.055"/><path d="M324.528 85.239h-19.664m19.664 0l-9.83 17.027m9.83-17.027l-29.494 17.027m0 .001h19.664m-19.664 0l9.83-17.027m19.664-.001v34.055m-9.83-17.028l9.83 17.028M304.864 85.24l-9.83-17.028m29.494 17.027l-29.494-17.027m58.986 0l-29.492 17.027m0 0h19.663m0 0l9.829-17.027m-19.662 34.055l-9.83-17.028m9.83 17.028l-9.83 17.027m9.83-17.027h19.663m0 0l-9.83-17.028m-19.663 0l29.493 17.028m0 0l-.001-34.055"/><path d="M324.528 119.294h-19.664m19.664 0l-9.83 17.027m9.83-17.027l-29.494 17.027m0 0h19.664m-19.664 0l9.83-17.027m19.664 0v34.055m-9.83-17.028l9.83 17.028m-19.664-34.055l-9.83-17.028m29.494 17.028l-29.494-17.027m58.986 0l-29.492 17.027m0 0h19.663m0 0l9.829-17.027m-19.662 34.055l-9.83-17.028m9.83 17.028l-9.83 17.027m9.83-17.027h19.663m0 0l-9.83-17.028m-19.663 0l29.493 17.028m0 0l-.001-34.055"/><path d="M324.528 153.349h-19.664m19.664 0l-9.83 17.027m9.83-17.027l-29.494 17.027m0 0h19.664m-19.664 0l9.83-17.027m19.664 0v34.055m-9.83-17.029l9.83 17.028m-19.664-34.054l-9.83-17.028m29.494 17.028l-29.494-17.027m58.986-.001l-29.492 17.027m0 .001h19.663m0 0l9.829-17.027m-19.662 34.054l-9.83-17.028m9.83 17.028l-9.83 17.027m9.83-17.027h19.663m0 0l-9.83-17.028m-19.663.001l29.493 17.028m0-.001l-.001-34.055"/><path d="M324.528 187.403h-19.664m19.664 0l-9.83 17.027m9.83-17.027l-29.494 17.027m0 .001h19.664m-19.664 0l9.83-17.027m19.664-.001v34.055m-9.83-17.028l9.83 17.028m-19.664-34.054l-9.83-17.028m29.494 17.027l-29.494-17.027m58.986 0l-29.492 17.027m0 0h19.663m0 0l9.829-17.027m-19.662 34.055l-9.83-17.028m9.83 17.028l-9.83 17.027m9.83-17.027h19.663m0 0l-9.83-17.028m-19.663 0l29.493 17.028m0 0l-.001-34.055"/><path d="M324.528 221.458h-19.664m19.664 0l-9.83 17.027m9.83-17.027l-29.494 17.027m0 0h19.664m-19.664 0l9.83-17.027m19.664 0v34.055m-9.83-17.028l9.83 17.028m-19.664-34.055l-9.83-17.028m29.494 17.028l-29.494-17.027m58.986 0l-29.492 17.027m0 0h19.663m0 0l9.829-17.027m-19.662 34.055l-9.83-17.028m9.83 17.028l-9.83 17.027m9.83-17.027h19.663m0 0l-9.83-17.028m-19.663 0l29.493 17.028m0 0l-.001-34.055"/><path d="M324.528 255.513h-19.664m19.664 0l-9.83 17.027m9.83-17.027l-29.494 17.027m0 0h19.664m-19.664 0l9.83-17.027m19.664 0v34.055m-9.83-17.028l9.83 17.028m-19.664-34.055l-9.83-17.028m29.494 17.028l-29.494-17.027m58.986-.001l-29.492 17.027m0 .001h19.663m0 0l9.829-17.027m-19.662 34.055l-9.83-17.028m9.83 17.028l-9.83 17.027m9.83-17.027h19.663m0 0l-9.83-17.028m-19.663 0l29.493 17.028m0 0l-.001-34.055"/><path d="M324.528 289.567h-19.664m19.664 0l-9.83 17.027m9.83-17.027l-29.494 17.027m0 .001h19.664m-19.664 0l9.83-17.027m19.664-.001v34.055m-9.83-17.028l9.83 17.028m-19.664-34.054l-9.83-17.028m29.494 17.027l-29.494-17.027m58.986 0l-29.492 17.027m0 0h19.663m0 0l9.829-17.027m-19.662 34.055l-9.83-17.028m9.83 17.028l-9.83 17.027m9.83-17.027h19.663m0 0l-9.83-17.028m-19.663 0l29.493 17.028m0 0l-.001-34.055"/><path d="M324.528 323.622h-19.664m19.664 0l-9.83 17.027m9.83-17.027l-29.494 17.027m0 0h19.664m-19.664 0l9.83-17.027m19.664 0v34.055m-9.83-17.028l9.83 17.028m-19.664-34.054l-9.83-17.028m29.494 17.027l-29.494-17.027m58.986 0l-29.492 17.027m0 0h19.663m0 0l9.829-17.027m-19.662 34.055l-9.83-17.028m9.83 17.028l-9.83 17.027m9.83-17.027h19.663m0 0l-9.83-17.028m-19.663 0l29.493 17.028m0 0l-.001-34.055"/><path d="M324.528 357.677h-19.664m19.664 0l-9.83 17.026m9.83-17.026l-29.494 17.027m0 0l19.664-.001m-19.664.001l9.83-17.027m19.664 0v34.055m-9.83-17.029l9.83 17.028m-19.664-34.054l-9.83-17.028m29.494 17.028l-29.494-17.027m58.986-.001l-29.492 17.027m0 .001h19.663m0 0l9.829-17.027m-19.662 34.055l-9.83-17.028m9.83 17.028l-9.83 17.026m9.83-17.026h19.663m0 0l-9.83-17.028m-19.663 0l29.493 17.028m0 0l-.001-34.056"/><path d="M324.528 391.731l-19.664.001m19.664-.001l-9.83 17.026m9.83-17.026l-29.494 17.027m0 .001l19.664-.001m-19.664.001l9.83-17.026m19.664-.002v34.055m-9.83-17.028l9.83 17.028m-19.664-34.054l-9.83-17.028m29.494 17.027l-29.494-17.027m58.986 0l-29.492 17.027m0 0h19.663m0 0l9.829-17.027m-19.662 34.056l-9.83-17.028m9.83 17.028l-9.83 17.026m9.83-17.026h19.663m0 0l-9.83-17.028m-19.663-.001l29.493 17.028m0 .001l-.001-34.056"/><path d="M324.528 425.786l-19.664.001m19.664-.001l-9.83 17.026m9.83-17.026l-29.494 17.027m0 0l19.664-.001m-19.664.001l9.83-17.026m19.664-.001v34.055m-9.83-17.029l9.83 17.028m-19.664-34.053l-9.83-17.028m29.494 17.027l-29.494-17.027m58.986 0l-29.492 17.027m0 0h19.663m0 0l9.829-17.027m-19.662 34.055l-9.83-17.028m9.83 17.028l-9.83 17.026m9.83-17.026h19.663m0 0l-9.83-17.028m-19.663 0l29.493 17.028m0 0l-.001-34.056"/><path d="M324.528 459.841l-19.664.001m19.664-.001l-9.83 17.026m9.83-17.026l-29.494 17.027m0 0l19.664-.001m-19.664.001l9.83-17.026m19.664-.001v34.055m-9.83-17.029l9.83 17.028m-19.664-34.053l-9.83-17.028m29.494 17.027l-29.494-17.027m58.986-.001l-29.492 17.027m0 .001h19.663m0 0l9.829-17.027m-19.662 34.055l-9.83-17.028m9.83 17.028l-9.83 17.026m9.83-17.026h19.663m0 0l-9.83-17.028m-19.663 0l29.493 17.028m0 0l-.001-34.056"/><path d="M324.528 493.896l-19.664.001m19.664-.001l-9.83 17.026m9.83-17.026l-29.494 17.027m0 0l19.664-.001m-19.664.001l9.83-17.026m19.664-.001v34.055m-9.83-17.029l9.83 17.028m-19.664-34.054l-9.83-17.028m29.494 17.028l-29.494-17.027m58.986-.001l-29.492 17.027m0 .001h19.663m0 0l9.829-17.027m-19.662 34.055l-9.83-17.028m9.83 17.028l-9.83 17.026m9.83-17.026h19.663m0 0l-9.83-17.028m-19.663 0l29.493 17.028m0 0l-.001-34.056"/><path d="M324.528 527.95l-19.664.001m19.664-.001l-9.83 17.026m9.83-17.026l-29.494 17.027m0 .001l19.664-.001m-19.664.001l9.83-17.026m19.664-.002v34.055m-9.83-17.028l9.83 17.028m-19.664-34.054l-9.83-17.028m29.494 17.027l-29.494-17.027m58.986 0l-29.492 17.027m0 0h19.663m0 0l9.829-17.027m-19.662 34.056l-9.83-17.028m9.83 17.028l-9.83 17.026m9.83-17.026h19.663m0 0l-9.83-17.028m-19.663-.001l29.493 17.028m0 .001l-.001-34.056"/><path d="M324.528 562.005l-19.664.001m19.664-.001l-9.83 17.026m9.83-17.026l-29.494 17.027m0 0l19.664-.001m-19.664.001l9.83-17.026m19.664-.001v34.055m-9.83-17.029l9.83 17.028m-19.664-34.053l-9.83-17.028m29.494 17.027l-29.494-17.027m58.986 0l-29.492 17.027m0 0h19.663m0 0l9.829-17.027m-19.662 34.055l-9.83-17.028m9.83 17.028l-9.83 17.026m9.83-17.026h19.663m0 0l-9.83-17.028m-19.663 0l29.493 17.028m0 0l-.001-34.056"/><path d="M324.528 596.06l-19.664.001m19.664-.001l-9.83 17.026m9.83-17.026l-29.494 17.027m0 0l19.664-.001m-19.664.001l9.83-17.026m19.664-.001v34.055m-9.83-17.029l9.83 17.028m-19.664-34.053l-9.83-17.028m29.494 17.027l-29.494-17.027m58.986-.001l-29.492 17.027m0 .001h19.663m0 0l9.829-17.027m-19.662 34.055l-9.83-17.028m9.83 17.028l-9.83 17.026m9.83-17.026h19.663m0 0l-9.83-17.028m-19.663 0l29.493 17.028m0 0l-.001-34.056"/><path d="M324.528 630.114l-19.664.001m19.664-.001l-9.83 17.026m9.83-17.026l-29.494 17.027m0 .001l19.664-.001m-19.664.001l9.83-17.026m19.664-.002v34.055m-9.83-17.028l9.83 17.028m-19.664-34.054l-9.83-17.028m29.494 17.027l-29.494-17.027m58.986 0l-29.492 17.027m0 0h19.663m0 0l9.829-17.027m-19.662 34.056l-9.83-17.028m9.83 17.028l-9.83 17.026m9.83-17.026h19.663m0 0l-9.83-17.028m-19.663-.001l29.493 17.028m0 .001l-.001-34.056"/><path d="M324.528 664.169l-19.664.001m19.664-.001l-9.83 17.026m9.83-17.026l-29.494 17.027m0 0l19.664-.001m-19.664.001l9.83-17.026m19.664-.001v34.055m-9.83-17.029l9.83 17.028m-19.664-34.053l-9.83-17.028m29.494 17.027l-29.494-17.027m58.986 0l-29.492 17.027m0 0h19.663m0 0l9.829-17.027m-19.662 34.055l-9.83-17.028m9.83 17.028l-9.83 17.026m9.83-17.026h19.663m0 0l-9.83-17.028m-19.663 0l29.493 17.028m0 0l-.001-34.056"/><path d="M324.528 698.224l-19.664.001m19.664-.001l-9.83 17.026m9.83-17.026l-29.494 17.027m0 0l19.664-.001m-19.664.001l9.83-17.026m19.664-.001v34.055m-9.83-17.029l9.83 17.028m-19.664-34.053l-9.83-17.028m29.494 17.027l-29.494-17.027m58.986-.001l-29.492 17.027m0 .001h19.663m0 0l9.829-17.027m-19.662 34.055l-9.83-17.028m9.83 17.028l-9.83 17.026m9.83-17.026h19.663m0 0l-9.83-17.028m-19.663 0l29.493 17.028m0 0l-.001-34.056"/><path d="M324.528 17.13l-19.664.001m19.664-.001l-9.83 17.026m9.83-17.026l-29.494 17.027m0 0l19.664-.001m-19.664.001l9.83-17.026m19.664-.001v34.055m-9.83-17.029l9.83 17.028m-19.664-34.053L295.034.103m29.494 17.027L295.034.103m58.986 0L324.528 17.13m0 0h19.663m0 0L354.02.103m-19.662 34.055l-9.83-17.028m9.83 17.028l-9.83 17.026m9.83-17.026h19.663m0 0l-9.83-17.028m-19.663 0l29.493 17.028m0 0L354.02.103"/><path d="M383.514 51.185H363.85m19.664 0l-9.83 17.027m9.83-17.027L354.02 68.212m0 0h19.664m-19.664 0l9.83-17.027m19.664 0V85.24m-9.83-17.029l9.83 17.028M363.85 51.185l-9.83-17.028m29.494 17.028L354.02 34.157m58.986 0l-29.492 17.027m0 .001h19.663m0 0l9.829-17.027m-19.662 34.054l-9.83-17.028m9.83 17.028l-9.83 17.027m9.83-17.027h19.663m0 0l-9.83-17.028m-19.663.001l29.493 17.028m0-.001l-.001-34.055"/><path d="M383.514 85.239H363.85m19.664 0l-9.83 17.027m9.83-17.027l-29.494 17.027m0 .001h19.664m-19.664 0l9.83-17.027m19.664-.001v34.055m-9.83-17.028l9.83 17.028M363.85 85.24l-9.83-17.028m29.494 17.027L354.02 68.212m58.986 0l-29.492 17.027m0 0h19.663m0 0l9.829-17.027m-19.662 34.055l-9.83-17.028m9.83 17.028l-9.83 17.027m9.83-17.027h19.663m0 0l-9.83-17.028m-19.663 0l29.493 17.028m0 0l-.001-34.055"/><path d="M383.514 119.294H363.85m19.664 0l-9.83 17.027m9.83-17.027l-29.494 17.027m0 0h19.664m-19.664 0l9.83-17.027m19.664 0v34.055m-9.83-17.028l9.83 17.028m-19.664-34.055l-9.83-17.028m29.494 17.028l-29.494-17.027m58.986 0l-29.492 17.027m0 0h19.663m0 0l9.829-17.027m-19.662 34.055l-9.83-17.028m9.83 17.028l-9.83 17.027m9.83-17.027h19.663m0 0l-9.83-17.028m-19.663 0l29.493 17.028m0 0l-.001-34.055"/><path d="M383.514 153.349H363.85m19.664 0l-9.83 17.027m9.83-17.027l-29.494 17.027m0 0h19.664m-19.664 0l9.83-17.027m19.664 0v34.055m-9.83-17.029l9.83 17.028m-19.664-34.054l-9.83-17.028m29.494 17.028l-29.494-17.027m58.986-.001l-29.492 17.027m0 .001h19.663m0 0l9.829-17.027m-19.662 34.054l-9.83-17.028m9.83 17.028l-9.83 17.027m9.83-17.027h19.663m0 0l-9.83-17.028m-19.663.001l29.493 17.028m0-.001l-.001-34.055"/><path d="M383.514 187.403H363.85m19.664 0l-9.83 17.027m9.83-17.027L354.02 204.43m0 .001h19.664m-19.664 0l9.83-17.027m19.664-.001v34.055m-9.83-17.028l9.83 17.028m-19.664-34.054l-9.83-17.028m29.494 17.027l-29.494-17.027m58.986 0l-29.492 17.027m0 0h19.663m0 0l9.829-17.027m-19.662 34.055l-9.83-17.028m9.83 17.028l-9.83 17.027m9.83-17.027h19.663m0 0l-9.83-17.028m-19.663 0l29.493 17.028m0 0l-.001-34.055"/><path d="M383.514 221.458H363.85m19.664 0l-9.83 17.027m9.83-17.027l-29.494 17.027m0 0h19.664m-19.664 0l9.83-17.027m19.664 0v34.055m-9.83-17.028l9.83 17.028m-19.664-34.055l-9.83-17.028m29.494 17.028l-29.494-17.027m58.986 0l-29.492 17.027m0 0h19.663m0 0l9.829-17.027m-19.662 34.055l-9.83-17.028m9.83 17.028l-9.83 17.027m9.83-17.027h19.663m0 0l-9.83-17.028m-19.663 0l29.493 17.028m0 0l-.001-34.055"/><path d="M383.514 255.513H363.85m19.664 0l-9.83 17.027m9.83-17.027L354.02 272.54m0 0h19.664m-19.664 0l9.83-17.027m19.664 0v34.055m-9.83-17.028l9.83 17.028m-19.664-34.055l-9.83-17.028m29.494 17.028l-29.494-17.027m58.986-.001l-29.492 17.027m0 .001h19.663m0 0l9.829-17.027m-19.662 34.055l-9.83-17.028m9.83 17.028l-9.83 17.027m9.83-17.027h19.663m0 0l-9.83-17.028m-19.663 0l29.493 17.028m0 0l-.001-34.055"/><path d="M383.514 289.567H363.85m19.664 0l-9.83 17.027m9.83-17.027l-29.494 17.027m0 .001h19.664m-19.664 0l9.83-17.027m19.664-.001v34.055m-9.83-17.028l9.83 17.028m-19.664-34.054l-9.83-17.028m29.494 17.027L354.02 272.54m58.986 0l-29.492 17.027m0 0h19.663m0 0l9.829-17.027m-19.662 34.055l-9.83-17.028m9.83 17.028l-9.83 17.027m9.83-17.027h19.663m0 0l-9.83-17.028m-19.663 0l29.493 17.028m0 0l-.001-34.055"/><path d="M383.514 323.622H363.85m19.664 0l-9.83 17.027m9.83-17.027l-29.494 17.027m0 0h19.664m-19.664 0l9.83-17.027m19.664 0v34.055m-9.83-17.028l9.83 17.028m-19.664-34.054l-9.83-17.028m29.494 17.027l-29.494-17.027m58.986 0l-29.492 17.027m0 0h19.663m0 0l9.829-17.027m-19.662 34.055l-9.83-17.028m9.83 17.028l-9.83 17.027m9.83-17.027h19.663m0 0l-9.83-17.028m-19.663 0l29.493 17.028m0 0l-.001-34.055"/><path d="M383.514 357.677H363.85m19.664 0l-9.83 17.026m9.83-17.026l-29.494 17.027m0 0l19.664-.001m-19.664.001l9.83-17.027m19.664 0v34.055m-9.83-17.029l9.83 17.028m-19.664-34.054l-9.83-17.028m29.494 17.028L354.02 340.65m58.986-.001l-29.492 17.027m0 .001h19.663m0 0l9.829-17.027m-19.662 34.055l-9.83-17.028m9.83 17.028l-9.83 17.026m9.83-17.026h19.663m0 0l-9.83-17.028m-19.663 0l29.493 17.028m0 0l-.001-34.056"/><path d="M383.514 391.731l-19.664.001m19.664-.001l-9.83 17.026m9.83-17.026l-29.494 17.027m0 .001l19.664-.001m-19.664.001l9.83-17.026m19.664-.002v34.055m-9.83-17.028l9.83 17.028m-19.664-34.054l-9.83-17.028m29.494 17.027l-29.494-17.027m58.986 0l-29.492 17.027m0 0h19.663m0 0l9.829-17.027m-19.662 34.056l-9.83-17.028m9.83 17.028l-9.83 17.026m9.83-17.026h19.663m0 0l-9.83-17.028m-19.663-.001l29.493 17.028m0 .001l-.001-34.056"/><path d="M383.514 425.786l-19.664.001m19.664-.001l-9.83 17.026m9.83-17.026l-29.494 17.027m0 0l19.664-.001m-19.664.001l9.83-17.026m19.664-.001v34.055m-9.83-17.029l9.83 17.028m-19.664-34.053l-9.83-17.028m29.494 17.027l-29.494-17.027m58.986 0l-29.492 17.027m0 0h19.663m0 0l9.829-17.027m-19.662 34.055l-9.83-17.028m9.83 17.028l-9.83 17.026m9.83-17.026h19.663m0 0l-9.83-17.028m-19.663 0l29.493 17.028m0 0l-.001-34.056"/><path d="M383.514 459.841l-19.664.001m19.664-.001l-9.83 17.026m9.83-17.026l-29.494 17.027m0 0l19.664-.001m-19.664.001l9.83-17.026m19.664-.001v34.055m-9.83-17.029l9.83 17.028m-19.664-34.053l-9.83-17.028m29.494 17.027l-29.494-17.027m58.986-.001l-29.492 17.027m0 .001h19.663m0 0l9.829-17.027m-19.662 34.055l-9.83-17.028m9.83 17.028l-9.83 17.026m9.83-17.026h19.663m0 0l-9.83-17.028m-19.663 0l29.493 17.028m0 0l-.001-34.056"/><path d="M383.514 493.896l-19.664.001m19.664-.001l-9.83 17.026m9.83-17.026l-29.494 17.027m0 0l19.664-.001m-19.664.001l9.83-17.026m19.664-.001v34.055m-9.83-17.029l9.83 17.028m-19.664-34.054l-9.83-17.028m29.494 17.028l-29.494-17.027m58.986-.001l-29.492 17.027m0 .001h19.663m0 0l9.829-17.027m-19.662 34.055l-9.83-17.028m9.83 17.028l-9.83 17.026m9.83-17.026h19.663m0 0l-9.83-17.028m-19.663 0l29.493 17.028m0 0l-.001-34.056"/><path d="M383.514 527.95l-19.664.001m19.664-.001l-9.83 17.026m9.83-17.026l-29.494 17.027m0 .001l19.664-.001m-19.664.001l9.83-17.026m19.664-.002v34.055m-9.83-17.028l9.83 17.028m-19.664-34.054l-9.83-17.028m29.494 17.027l-29.494-17.027m58.986 0l-29.492 17.027m0 0h19.663m0 0l9.829-17.027m-19.662 34.056l-9.83-17.028m9.83 17.028l-9.83 17.026m9.83-17.026h19.663m0 0l-9.83-17.028m-19.663-.001l29.493 17.028m0 .001l-.001-34.056"/><path d="M383.514 562.005l-19.664.001m19.664-.001l-9.83 17.026m9.83-17.026l-29.494 17.027m0 0l19.664-.001m-19.664.001l9.83-17.026m19.664-.001v34.055m-9.83-17.029l9.83 17.028m-19.664-34.053l-9.83-17.028m29.494 17.027l-29.494-17.027m58.986 0l-29.492 17.027m0 0h19.663m0 0l9.829-17.027m-19.662 34.055l-9.83-17.028m9.83 17.028l-9.83 17.026m9.83-17.026h19.663m0 0l-9.83-17.028m-19.663 0l29.493 17.028m0 0l-.001-34.056"/><path d="M383.514 596.06l-19.664.001m19.664-.001l-9.83 17.026m9.83-17.026l-29.494 17.027m0 0l19.664-.001m-19.664.001l9.83-17.026m19.664-.001v34.055m-9.83-17.029l9.83 17.028m-19.664-34.053l-9.83-17.028m29.494 17.027l-29.494-17.027m58.986-.001l-29.492 17.027m0 .001h19.663m0 0l9.829-17.027m-19.662 34.055l-9.83-17.028m9.83 17.028l-9.83 17.026m9.83-17.026h19.663m0 0l-9.83-17.028m-19.663 0l29.493 17.028m0 0l-.001-34.056"/><path d="M383.514 630.114l-19.664.001m19.664-.001l-9.83 17.026m9.83-17.026l-29.494 17.027m0 .001l19.664-.001m-19.664.001l9.83-17.026m19.664-.002v34.055m-9.83-17.028l9.83 17.028m-19.664-34.054l-9.83-17.028m29.494 17.027l-29.494-17.027m58.986 0l-29.492 17.027m0 0h19.663m0 0l9.829-17.027m-19.662 34.056l-9.83-17.028m9.83 17.028l-9.83 17.026m9.83-17.026h19.663m0 0l-9.83-17.028m-19.663-.001l29.493 17.028m0 .001l-.001-34.056"/><path d="M383.514 664.169l-19.664.001m19.664-.001l-9.83 17.026m9.83-17.026l-29.494 17.027m0 0l19.664-.001m-19.664.001l9.83-17.026m19.664-.001v34.055m-9.83-17.029l9.83 17.028M363.85 664.17l-9.83-17.028m29.494 17.027l-29.494-17.027m58.986 0l-29.492 17.027m0 0h19.663m0 0l9.829-17.027m-19.662 34.055l-9.83-17.028m9.83 17.028l-9.83 17.026m9.83-17.026h19.663m0 0l-9.83-17.028m-19.663 0l29.493 17.028m0 0l-.001-34.056"/><path d="M383.514 698.224l-19.664.001m19.664-.001l-9.83 17.026m9.83-17.026l-29.494 17.027m0 0l19.664-.001m-19.664.001l9.83-17.026m19.664-.001v34.055m-9.83-17.029l9.83 17.028m-19.664-34.053l-9.83-17.028m29.494 17.027l-29.494-17.027m58.986-.001l-29.492 17.027m0 .001h19.663m0 0l9.829-17.027m-19.662 34.055l-9.83-17.028m9.83 17.028l-9.83 17.026m9.83-17.026h19.663m0 0l-9.83-17.028m-19.663 0l29.493 17.028m0 0l-.001-34.056"/><path d="M383.514 17.13l-19.664.001m19.664-.001l-9.83 17.026m9.83-17.026L354.02 34.157m0 0l19.664-.001m-19.664.001l9.83-17.026m19.664-.001v34.055m-9.83-17.029l9.83 17.028M363.85 17.131L354.02.103m29.494 17.027L354.02.103m58.986 0L383.514 17.13m0 0h19.663m0 0L413.006.103m-19.662 34.055l-9.83-17.028m9.83 17.028l-9.83 17.026m9.83-17.026h19.663m0 0l-9.83-17.028m-19.663 0l29.493 17.028m0 0L413.006.102"/><path d="M442.5 51.185h-19.664m19.664 0l-9.83 17.027m9.83-17.027l-29.494 17.027m0 0h19.664m-19.664 0l9.83-17.027m19.664 0V85.24m-9.83-17.029l9.83 17.028m-19.664-34.054l-9.83-17.028M442.5 51.185l-29.494-17.027m58.987-.001L442.5 51.185m0 0h19.663m.001 0l9.829-17.027m-19.662 34.054l-9.83-17.028m9.83 17.028l-9.83 17.027m9.83-17.027h19.663m0 0l-9.83-17.028m-19.664.001l29.493 17.028m.001-.001l-.001-34.055"/><path d="M442.5 85.239h-19.664m19.664 0l-9.83 17.027m9.83-17.027l-29.494 17.027m0 .001h19.664m-19.664 0l9.83-17.027m19.664-.001v34.055m-9.83-17.028l9.83 17.028M422.836 85.24l-9.83-17.028M442.5 85.239l-29.494-17.027m58.987 0L442.5 85.239m0 0h19.663m.001 0l9.829-17.027m-19.662 34.055l-9.83-17.028m9.83 17.028l-9.83 17.027m9.83-17.027h19.663m0 0l-9.83-17.028m-19.664 0l29.493 17.028m.001 0l-.001-34.055"/><path d="M442.5 119.294h-19.664m19.664 0l-9.83 17.027m9.83-17.027l-29.494 17.027m0 0h19.664m-19.664 0l9.83-17.027m19.664 0v34.055m-9.83-17.028l9.83 17.028m-19.664-34.055l-9.83-17.028m29.494 17.028l-29.494-17.027m58.987 0L442.5 119.294m0 0h19.663m.001 0l9.829-17.027m-19.662 34.055l-9.83-17.028m9.83 17.028l-9.83 17.027m9.83-17.027h19.663m0 0l-9.83-17.028m-19.664 0l29.493 17.028m.001 0l-.001-34.055"/><path d="M442.5 153.349h-19.664m19.664 0l-9.83 17.027m9.83-17.027l-29.494 17.027m0 0h19.664m-19.664 0l9.83-17.027m19.664 0v34.055m-9.83-17.029l9.83 17.028m-19.664-34.054l-9.83-17.028m29.494 17.028l-29.494-17.027m58.987-.001L442.5 153.349m0 0h19.663m.001 0l9.829-17.027m-19.662 34.054l-9.83-17.028m9.83 17.028l-9.83 17.027m9.83-17.027h19.663m0 0l-9.83-17.028m-19.664.001l29.493 17.028m.001-.001l-.001-34.055"/><path d="M442.5 187.403h-19.664m19.664 0l-9.83 17.027m9.83-17.027l-29.494 17.027m0 .001h19.664m-19.664 0l9.83-17.027m19.664-.001v34.055m-9.83-17.028l9.83 17.028m-19.664-34.054l-9.83-17.028m29.494 17.027l-29.494-17.027m58.987 0L442.5 187.403m0 0h19.663m.001 0l9.829-17.027m-19.662 34.055l-9.83-17.028m9.83 17.028l-9.83 17.027m9.83-17.027h19.663m0 0l-9.83-17.028m-19.664 0l29.493 17.028m.001 0l-.001-34.055"/><path d="M442.5 221.458h-19.664m19.664 0l-9.83 17.027m9.83-17.027l-29.494 17.027m0 0h19.664m-19.664 0l9.83-17.027m19.664 0v34.055m-9.83-17.028l9.83 17.028m-19.664-34.055l-9.83-17.028m29.494 17.028l-29.494-17.027m58.987 0L442.5 221.458m0 0h19.663m.001 0l9.829-17.027m-19.662 34.055l-9.83-17.028m9.83 17.028l-9.83 17.027m9.83-17.027h19.663m0 0l-9.83-17.028m-19.664 0l29.493 17.028m.001 0l-.001-34.055"/><path d="M442.5 255.513h-19.664m19.664 0l-9.83 17.027m9.83-17.027l-29.494 17.027m0 0h19.664m-19.664 0l9.83-17.027m19.664 0v34.055m-9.83-17.028l9.83 17.028m-19.664-34.055l-9.83-17.028m29.494 17.028l-29.494-17.027m58.987-.001L442.5 255.513m0 0h19.663m.001 0l9.829-17.027m-19.662 34.055l-9.83-17.028m9.83 17.028l-9.83 17.027m9.83-17.027h19.663m0 0l-9.83-17.028m-19.664 0l29.493 17.028m.001 0l-.001-34.055"/><path d="M442.5 289.567h-19.664m19.664 0l-9.83 17.027m9.83-17.027l-29.494 17.027m0 .001h19.664m-19.664 0l9.83-17.027m19.664-.001v34.055m-9.83-17.028l9.83 17.028m-19.664-34.054l-9.83-17.028m29.494 17.027l-29.494-17.027m58.987 0L442.5 289.567m0 0h19.663m.001 0l9.829-17.027m-19.662 34.055l-9.83-17.028m9.83 17.028l-9.83 17.027m9.83-17.027h19.663m0 0l-9.83-17.028m-19.664 0l29.493 17.028m.001 0l-.001-34.055"/><path d="M442.5 323.622h-19.664m19.664 0l-9.83 17.027m9.83-17.027l-29.494 17.027m0 0h19.664m-19.664 0l9.83-17.027m19.664 0v34.055m-9.83-17.028l9.83 17.028m-19.664-34.054l-9.83-17.028m29.494 17.027l-29.494-17.027m58.987 0L442.5 323.622m0 0h19.663m.001 0l9.829-17.027m-19.662 34.055l-9.83-17.028m9.83 17.028l-9.83 17.027m9.83-17.027h19.663m0 0l-9.83-17.028m-19.664 0l29.493 17.028m.001 0l-.001-34.055"/><path d="M442.5 357.677h-19.664m19.664 0l-9.83 17.026m9.83-17.026l-29.494 17.027m0 0l19.664-.001m-19.664.001l9.83-17.027m19.664 0v34.055m-9.83-17.029l9.83 17.028m-19.664-34.054l-9.83-17.028m29.494 17.028l-29.494-17.027m58.987-.001L442.5 357.677m0 0h19.663m.001 0l9.829-17.027m-19.662 34.055l-9.83-17.028m9.83 17.028l-9.83 17.026m9.83-17.026h19.663m0 0l-9.83-17.028m-19.664 0l29.493 17.028m.001 0l-.001-34.056"/><path d="M442.5 391.731l-19.664.001m19.664-.001l-9.83 17.026m9.83-17.026l-29.494 17.027m0 .001l19.664-.001m-19.664.001l9.83-17.026m19.664-.002v34.055m-9.83-17.028l9.83 17.028m-19.664-34.054l-9.83-17.028m29.494 17.027l-29.494-17.027m58.987 0L442.5 391.731m0 0h19.663m.001 0l9.829-17.027m-19.662 34.056l-9.83-17.028m9.83 17.028l-9.83 17.026m9.83-17.026h19.663m0 0l-9.83-17.028m-19.664-.001l29.493 17.028m.001.001l-.001-34.056"/><path d="M442.5 425.786l-19.664.001m19.664-.001l-9.83 17.026m9.83-17.026l-29.494 17.027m0 0l19.664-.001m-19.664.001l9.83-17.026m19.664-.001v34.055m-9.83-17.029l9.83 17.028m-19.664-34.053l-9.83-17.028m29.494 17.027l-29.494-17.027m58.987 0L442.5 425.786m0 0h19.663m.001 0l9.829-17.027m-19.662 34.055l-9.83-17.028m9.83 17.028l-9.83 17.026m9.83-17.026h19.663m0 0l-9.83-17.028m-19.664 0l29.493 17.028m.001 0l-.001-34.056"/><path d="M442.5 459.841l-19.664.001m19.664-.001l-9.83 17.026m9.83-17.026l-29.494 17.027m0 0l19.664-.001m-19.664.001l9.83-17.026m19.664-.001v34.055m-9.83-17.029l9.83 17.028m-19.664-34.053l-9.83-17.028m29.494 17.027l-29.494-17.027m58.987-.001L442.5 459.841m0 0h19.663m.001 0l9.829-17.027m-19.662 34.055l-9.83-17.028m9.83 17.028l-9.83 17.026m9.83-17.026h19.663m0 0l-9.83-17.028m-19.664 0l29.493 17.028m.001 0l-.001-34.056"/><path d="M442.5 493.896l-19.664.001m19.664-.001l-9.83 17.026m9.83-17.026l-29.494 17.027m0 0l19.664-.001m-19.664.001l9.83-17.026m19.664-.001v34.055m-9.83-17.029l9.83 17.028m-19.664-34.054l-9.83-17.028m29.494 17.028l-29.494-17.027m58.987-.001L442.5 493.896m0 0h19.663m.001 0l9.829-17.027m-19.662 34.055l-9.83-17.028m9.83 17.028l-9.83 17.026m9.83-17.026h19.663m0 0l-9.83-17.028m-19.664 0l29.493 17.028m.001 0l-.001-34.056"/><path d="M442.5 527.95l-19.664.001m19.664-.001l-9.83 17.026m9.83-17.026l-29.494 17.027m0 .001l19.664-.001m-19.664.001l9.83-17.026m19.664-.002v34.055m-9.83-17.028l9.83 17.028m-19.664-34.054l-9.83-17.028M442.5 527.95l-29.494-17.027m58.987 0L442.5 527.95m0 0h19.663m.001 0l9.829-17.027m-19.662 34.056l-9.83-17.028m9.83 17.028l-9.83 17.026m9.83-17.026h19.663m0 0l-9.83-17.028m-19.664-.001l29.493 17.028m.001.001l-.001-34.056"/><path d="M442.5 562.005l-19.664.001m19.664-.001l-9.83 17.026m9.83-17.026l-29.494 17.027m0 0l19.664-.001m-19.664.001l9.83-17.026m19.664-.001v34.055m-9.83-17.029l9.83 17.028m-19.664-34.053l-9.83-17.028m29.494 17.027l-29.494-17.027m58.987 0L442.5 562.005m0 0h19.663m.001 0l9.829-17.027m-19.662 34.055l-9.83-17.028m9.83 17.028l-9.83 17.026m9.83-17.026h19.663m0 0l-9.83-17.028m-19.664 0l29.493 17.028m.001 0l-.001-34.056"/><path d="M442.5 596.06l-19.664.001m19.664-.001l-9.83 17.026m9.83-17.026l-29.494 17.027m0 0l19.664-.001m-19.664.001l9.83-17.026m19.664-.001v34.055m-9.83-17.029l9.83 17.028m-19.664-34.053l-9.83-17.028M442.5 596.06l-29.494-17.027m58.987-.001L442.5 596.06m0 0h19.663m.001 0l9.829-17.027m-19.662 34.055l-9.83-17.028m9.83 17.028l-9.83 17.026m9.83-17.026h19.663m0 0l-9.83-17.028m-19.664 0l29.493 17.028m.001 0l-.001-34.056"/><path d="M442.5 630.114l-19.664.001m19.664-.001l-9.83 17.026m9.83-17.026l-29.494 17.027m0 .001l19.664-.001m-19.664.001l9.83-17.026m19.664-.002v34.055m-9.83-17.028l9.83 17.028m-19.664-34.054l-9.83-17.028m29.494 17.027l-29.494-17.027m58.987 0L442.5 630.114m0 0h19.663m.001 0l9.829-17.027m-19.662 34.056l-9.83-17.028m9.83 17.028l-9.83 17.026m9.83-17.026h19.663m0 0l-9.83-17.028m-19.664-.001l29.493 17.028m.001.001l-.001-34.056"/><path d="M442.5 664.169l-19.664.001m19.664-.001l-9.83 17.026m9.83-17.026l-29.494 17.027m0 0l19.664-.001m-19.664.001l9.83-17.026m19.664-.001v34.055m-9.83-17.029l9.83 17.028m-19.664-34.053l-9.83-17.028m29.494 17.027l-29.494-17.027m58.987 0L442.5 664.169m0 0h19.663m.001 0l9.829-17.027m-19.662 34.055l-9.83-17.028m9.83 17.028l-9.83 17.026m9.83-17.026h19.663m0 0l-9.83-17.028m-19.664 0l29.493 17.028m.001 0l-.001-34.056"/><path d="M442.5 698.224l-19.664.001m19.664-.001l-9.83 17.026m9.83-17.026l-29.494 17.027m0 0l19.664-.001m-19.664.001l9.83-17.026m19.664-.001v34.055m-9.83-17.029l9.83 17.028m-19.664-34.053l-9.83-17.028m29.494 17.027l-29.494-17.027m58.987-.001L442.5 698.224m0 0h19.663m.001 0l9.829-17.027m-19.662 34.055l-9.83-17.028m9.83 17.028l-9.83 17.026m9.83-17.026h19.663m0 0l-9.83-17.028m-19.664 0l29.493 17.028m.001 0l-.001-34.056"/><path d="M442.5 17.13l-19.664.001m19.664-.001l-9.83 17.026m9.83-17.026l-29.494 17.027m0 0l19.664-.001m-19.664.001l9.83-17.026m19.664-.001v34.055m-9.83-17.029l9.83 17.028m-19.664-34.053L413.006.103M442.5 17.13L413.006.103m58.987 0L442.5 17.13m0 0h19.663m.001 0L471.993.103m-19.662 34.055L442.5 17.13m9.831 17.028l-9.83 17.026m9.83-17.026h19.663m0 0l-9.83-17.028m-19.664 0l29.493 17.028m.001 0L471.993.102"/><path d="M501.487 51.185h-19.664m19.664 0l-9.83 17.027m9.83-17.027l-29.494 17.027m0 0h19.664m-19.664 0l9.83-17.027m19.664 0V85.24m-9.83-17.029l9.83 17.028m-19.664-34.054l-9.83-17.028m29.494 17.028l-29.494-17.027m58.986-.001l-29.492 17.027m0 .001h19.663m0 0l9.829-17.027m-19.662 34.054l-9.83-17.028m9.83 17.028l-9.83 17.027m9.83-17.027h19.663m0 0l-9.83-17.028m-19.663.001l29.493 17.028m0-.001l-.001-34.055"/><path d="M501.487 85.239h-19.664m19.664 0l-9.83 17.027m9.83-17.027l-29.494 17.027m0 .001h19.664m-19.664 0l9.83-17.027m19.664-.001v34.055m-9.83-17.028l9.83 17.028M481.823 85.24l-9.83-17.028m29.494 17.027l-29.494-17.027m58.986 0l-29.492 17.027m0 0h19.663m0 0l9.829-17.027m-19.662 34.055l-9.83-17.028m9.83 17.028l-9.83 17.027m9.83-17.027h19.663m0 0l-9.83-17.028m-19.663 0l29.493 17.028m0 0l-.001-34.055"/><path d="M501.487 119.294h-19.664m19.664 0l-9.83 17.027m9.83-17.027l-29.494 17.027m0 0h19.664m-19.664 0l9.83-17.027m19.664 0v34.055m-9.83-17.028l9.83 17.028m-19.664-34.055l-9.83-17.028m29.494 17.028l-29.494-17.027m58.986 0l-29.492 17.027m0 0h19.663m0 0l9.829-17.027m-19.662 34.055l-9.83-17.028m9.83 17.028l-9.83 17.027m9.83-17.027h19.663m0 0l-9.83-17.028m-19.663 0l29.493 17.028m0 0l-.001-34.055"/><path d="M501.487 153.349h-19.664m19.664 0l-9.83 17.027m9.83-17.027l-29.494 17.027m0 0h19.664m-19.664 0l9.83-17.027m19.664 0v34.055m-9.83-17.029l9.83 17.028m-19.664-34.054l-9.83-17.028m29.494 17.028l-29.494-17.027m58.986-.001l-29.492 17.027m0 .001h19.663m0 0l9.829-17.027m-19.662 34.054l-9.83-17.028m9.83 17.028l-9.83 17.027m9.83-17.027h19.663m0 0l-9.83-17.028m-19.663.001l29.493 17.028m0-.001l-.001-34.055"/><path d="M501.487 187.403h-19.664m19.664 0l-9.83 17.027m9.83-17.027l-29.494 17.027m0 .001h19.664m-19.664 0l9.83-17.027m19.664-.001v34.055m-9.83-17.028l9.83 17.028m-19.664-34.054l-9.83-17.028m29.494 17.027l-29.494-17.027m58.986 0l-29.492 17.027m0 0h19.663m0 0l9.829-17.027m-19.662 34.055l-9.83-17.028m9.83 17.028l-9.83 17.027m9.83-17.027h19.663m0 0l-9.83-17.028m-19.663 0l29.493 17.028m0 0l-.001-34.055"/><path d="M501.487 221.458h-19.664m19.664 0l-9.83 17.027m9.83-17.027l-29.494 17.027m0 0h19.664m-19.664 0l9.83-17.027m19.664 0v34.055m-9.83-17.028l9.83 17.028m-19.664-34.055l-9.83-17.028m29.494 17.028l-29.494-17.027m58.986 0l-29.492 17.027m0 0h19.663m0 0l9.829-17.027m-19.662 34.055l-9.83-17.028m9.83 17.028l-9.83 17.027m9.83-17.027h19.663m0 0l-9.83-17.028m-19.663 0l29.493 17.028m0 0l-.001-34.055"/><path d="M501.487 255.513h-19.664m19.664 0l-9.83 17.027m9.83-17.027l-29.494 17.027m0 0h19.664m-19.664 0l9.83-17.027m19.664 0v34.055m-9.83-17.028l9.83 17.028m-19.664-34.055l-9.83-17.028m29.494 17.028l-29.494-17.027m58.986-.001l-29.492 17.027m0 .001h19.663m0 0l9.829-17.027m-19.662 34.055l-9.83-17.028m9.83 17.028l-9.83 17.027m9.83-17.027h19.663m0 0l-9.83-17.028m-19.663 0l29.493 17.028m0 0l-.001-34.055"/><path d="M501.487 289.567h-19.664m19.664 0l-9.83 17.027m9.83-17.027l-29.494 17.027m0 .001h19.664m-19.664 0l9.83-17.027m19.664-.001v34.055m-9.83-17.028l9.83 17.028m-19.664-34.054l-9.83-17.028m29.494 17.027l-29.494-17.027m58.986 0l-29.492 17.027m0 0h19.663m0 0l9.829-17.027m-19.662 34.055l-9.83-17.028m9.83 17.028l-9.83 17.027m9.83-17.027h19.663m0 0l-9.83-17.028m-19.663 0l29.493 17.028m0 0l-.001-34.055"/><path d="M501.487 323.622h-19.664m19.664 0l-9.83 17.027m9.83-17.027l-29.494 17.027m0 0h19.664m-19.664 0l9.83-17.027m19.664 0v34.055m-9.83-17.028l9.83 17.028m-19.664-34.054l-9.83-17.028m29.494 17.027l-29.494-17.027m58.986 0l-29.492 17.027m0 0h19.663m0 0l9.829-17.027m-19.662 34.055l-9.83-17.028m9.83 17.028l-9.83 17.027m9.83-17.027h19.663m0 0l-9.83-17.028m-19.663 0l29.493 17.028m0 0l-.001-34.055"/><path d="M501.487 357.677h-19.664m19.664 0l-9.83 17.026m9.83-17.026l-29.494 17.027m0 0l19.664-.001m-19.664.001l9.83-17.027m19.664 0v34.055m-9.83-17.029l9.83 17.028m-19.664-34.054l-9.83-17.028m29.494 17.028l-29.494-17.027m58.986-.001l-29.492 17.027m0 .001h19.663m0 0l9.829-17.027m-19.662 34.055l-9.83-17.028m9.83 17.028l-9.83 17.026m9.83-17.026h19.663m0 0l-9.83-17.028m-19.663 0l29.493 17.028m0 0l-.001-34.056"/><path d="M501.487 391.731l-19.664.001m19.664-.001l-9.83 17.026m9.83-17.026l-29.494 17.027m0 .001l19.664-.001m-19.664.001l9.83-17.026m19.664-.002v34.055m-9.83-17.028l9.83 17.028m-19.664-34.054l-9.83-17.028m29.494 17.027l-29.494-17.027m58.986 0l-29.492 17.027m0 0h19.663m0 0l9.829-17.027m-19.662 34.056l-9.83-17.028m9.83 17.028l-9.83 17.026m9.83-17.026h19.663m0 0l-9.83-17.028m-19.663-.001l29.493 17.028m0 .001l-.001-34.056"/><path d="M501.487 425.786l-19.664.001m19.664-.001l-9.83 17.026m9.83-17.026l-29.494 17.027m0 0l19.664-.001m-19.664.001l9.83-17.026m19.664-.001v34.055m-9.83-17.029l9.83 17.028m-19.664-34.053l-9.83-17.028m29.494 17.027l-29.494-17.027m58.986 0l-29.492 17.027m0 0h19.663m0 0l9.829-17.027m-19.662 34.055l-9.83-17.028m9.83 17.028l-9.83 17.026m9.83-17.026h19.663m0 0l-9.83-17.028m-19.663 0l29.493 17.028m0 0l-.001-34.056"/><path d="M501.487 459.841l-19.664.001m19.664-.001l-9.83 17.026m9.83-17.026l-29.494 17.027m0 0l19.664-.001m-19.664.001l9.83-17.026m19.664-.001v34.055m-9.83-17.029l9.83 17.028m-19.664-34.053l-9.83-17.028m29.494 17.027l-29.494-17.027m58.986-.001l-29.492 17.027m0 .001h19.663m0 0l9.829-17.027m-19.662 34.055l-9.83-17.028m9.83 17.028l-9.83 17.026m9.83-17.026h19.663m0 0l-9.83-17.028m-19.663 0l29.493 17.028m0 0l-.001-34.056"/><path d="M501.487 493.896l-19.664.001m19.664-.001l-9.83 17.026m9.83-17.026l-29.494 17.027m0 0l19.664-.001m-19.664.001l9.83-17.026m19.664-.001v34.055m-9.83-17.029l9.83 17.028m-19.664-34.054l-9.83-17.028m29.494 17.028l-29.494-17.027m58.986-.001l-29.492 17.027m0 .001h19.663m0 0l9.829-17.027m-19.662 34.055l-9.83-17.028m9.83 17.028l-9.83 17.026m9.83-17.026h19.663m0 0l-9.83-17.028m-19.663 0l29.493 17.028m0 0l-.001-34.056"/><path d="M501.487 527.95l-19.664.001m19.664-.001l-9.83 17.026m9.83-17.026l-29.494 17.027m0 .001l19.664-.001m-19.664.001l9.83-17.026m19.664-.002v34.055m-9.83-17.028l9.83 17.028m-19.664-34.054l-9.83-17.028m29.494 17.027l-29.494-17.027m58.986 0l-29.492 17.027m0 0h19.663m0 0l9.829-17.027m-19.662 34.056l-9.83-17.028m9.83 17.028l-9.83 17.026m9.83-17.026h19.663m0 0l-9.83-17.028m-19.663-.001l29.493 17.028m0 .001l-.001-34.056"/><path d="M501.487 562.005l-19.664.001m19.664-.001l-9.83 17.026m9.83-17.026l-29.494 17.027m0 0l19.664-.001m-19.664.001l9.83-17.026m19.664-.001v34.055m-9.83-17.029l9.83 17.028m-19.664-34.053l-9.83-17.028m29.494 17.027l-29.494-17.027m58.986 0l-29.492 17.027m0 0h19.663m0 0l9.829-17.027m-19.662 34.055l-9.83-17.028m9.83 17.028l-9.83 17.026m9.83-17.026h19.663m0 0l-9.83-17.028m-19.663 0l29.493 17.028m0 0l-.001-34.056"/><path d="M501.487 596.06l-19.664.001m19.664-.001l-9.83 17.026m9.83-17.026l-29.494 17.027m0 0l19.664-.001m-19.664.001l9.83-17.026m19.664-.001v34.055m-9.83-17.029l9.83 17.028m-19.664-34.053l-9.83-17.028m29.494 17.027l-29.494-17.027m58.986-.001l-29.492 17.027m0 .001h19.663m0 0l9.829-17.027m-19.662 34.055l-9.83-17.028m9.83 17.028l-9.83 17.026m9.83-17.026h19.663m0 0l-9.83-17.028m-19.663 0l29.493 17.028m0 0l-.001-34.056"/><path d="M501.487 630.114l-19.664.001m19.664-.001l-9.83 17.026m9.83-17.026l-29.494 17.027m0 .001l19.664-.001m-19.664.001l9.83-17.026m19.664-.002v34.055m-9.83-17.028l9.83 17.028m-19.664-34.054l-9.83-17.028m29.494 17.027l-29.494-17.027m58.986 0l-29.492 17.027m0 0h19.663m0 0l9.829-17.027m-19.662 34.056l-9.83-17.028m9.83 17.028l-9.83 17.026m9.83-17.026h19.663m0 0l-9.83-17.028m-19.663-.001l29.493 17.028m0 .001l-.001-34.056"/><path d="M501.487 664.169l-19.664.001m19.664-.001l-9.83 17.026m9.83-17.026l-29.494 17.027m0 0l19.664-.001m-19.664.001l9.83-17.026m19.664-.001v34.055m-9.83-17.029l9.83 17.028m-19.664-34.053l-9.83-17.028m29.494 17.027l-29.494-17.027m58.986 0l-29.492 17.027m0 0h19.663m0 0l9.829-17.027m-19.662 34.055l-9.83-17.028m9.83 17.028l-9.83 17.026m9.83-17.026h19.663m0 0l-9.83-17.028m-19.663 0l29.493 17.028m0 0l-.001-34.056"/><path d="M501.487 698.224l-19.664.001m19.664-.001l-9.83 17.026m9.83-17.026l-29.494 17.027m0 0l19.664-.001m-19.664.001l9.83-17.026m19.664-.001v34.055m-9.83-17.029l9.83 17.028m-19.664-34.053l-9.83-17.028m29.494 17.027l-29.494-17.027m58.986-.001l-29.492 17.027m0 .001h19.663m0 0l9.829-17.027m-19.662 34.055l-9.83-17.028m9.83 17.028l-9.83 17.026m9.83-17.026h19.663m0 0l-9.83-17.028m-19.663 0l29.493 17.028m0 0l-.001-34.056"/><path d="M501.487 17.13l-19.664.001m19.664-.001l-9.83 17.026m9.83-17.026l-29.494 17.027m0 0l19.664-.001m-19.664.001l9.83-17.026m19.664-.001v34.055m-9.83-17.029l9.83 17.028m-19.664-34.053L471.993.103m29.494 17.027L471.993.103m58.986 0L501.487 17.13m0 0h19.663m0 0L530.979.103m-19.662 34.055l-9.83-17.028m9.83 17.028l-9.83 17.026m9.83-17.026h19.663m0 0l-9.83-17.028m-19.663 0l29.493 17.028m0 0L530.979.102"/></svg>