<svg baseProfile="tiny" xmlns="http://www.w3.org/2000/svg"><path d="M12.162 727.068l-7.663-4.424-4.424-7.663v-8.847l4.424-7.663 7.663-4.424h8.848l7.663 4.424 4.424 7.663v8.847l-4.424 7.663-7.663 4.424h-8.848z"/><path d="M28.674 663.07l-7.664 4.425v26.552l7.664 4.426 22.995-13.277v-8.851L28.674 663.07z"/><path d="M56.092 692.854L33.097 706.13v8.851l22.995 13.275 7.664-4.425v-26.552l-7.663-4.424-.001-.001z"/><path d="M12.162 667.495h8.847v26.552h-8.847v-26.552z"/><path d="M51.664 685.226l4.424 7.661-22.993 13.278-4.425-7.661 22.994-13.278z"/><path d="M56.104 668.69l-4.423 7.661-22.993-13.275 4.423-7.662 22.993 13.276z"/><path d="M12.162 667.495l-7.663-4.425-4.424-7.662v-8.847l4.424-7.664 7.663-4.423h8.848l7.663 4.423 4.424 7.664v8.847l-4.424 7.662-7.663 4.425h-8.848z"/><path d="M28.674 603.497l-7.664 4.425v26.552l7.664 4.425 22.995-13.276v-8.852l-22.995-13.274z"/><path d="M56.092 633.28l-22.995 13.277v8.851l22.995 13.275 7.664-4.425v-26.552l-7.663-4.424-.001-.002z"/><path d="M12.162 607.922h8.847v26.552h-8.847v-26.552z"/><path d="M51.664 625.65l4.424 7.662-22.993 13.278-4.424-7.662 22.993-13.278z"/><path d="M56.103 609.116l-4.424 7.661-22.993-13.275 4.424-7.662 22.993 13.276z"/><path d="M12.162 607.922l-7.663-4.425-4.424-7.662v-8.848l4.424-7.663 7.663-4.424h8.848l7.663 4.424 4.424 7.663v8.848l-4.424 7.662-7.663 4.425h-8.848z"/><path d="M28.674 543.924l-7.664 4.425V574.9l7.664 4.426 22.995-13.276v-8.852l-22.995-13.274z"/><path d="M56.092 573.707l-22.995 13.276v8.852l22.995 13.274 7.664-4.424v-26.552l-7.663-4.424-.001-.002z"/><path d="M12.162 548.349h8.847v26.552h-8.847v-26.552z"/><path d="M51.665 566.074l4.424 7.661-22.993 13.279-4.424-7.662 22.993-13.278z"/><path d="M56.101 549.542l-4.423 7.661-22.993-13.275 4.423-7.662 22.993 13.276z"/><path d="M12.162 548.349l-7.663-4.425-4.424-7.662v-8.848l4.424-7.663 7.663-4.424h8.848l7.663 4.424 4.424 7.663v8.848l-4.424 7.662-7.663 4.425h-8.848z"/><path d="M28.674 484.351l-7.664 4.424v26.552l7.664 4.426 22.995-13.276v-8.852l-22.995-13.274z"/><path d="M56.092 514.134L33.097 527.41v8.852l22.995 13.274 7.664-4.425V518.56l-7.663-4.424-.001-.002z"/><path d="M12.162 488.775h8.847v26.552h-8.847v-26.552z"/><path d="M51.665 506.498l4.425 7.662-22.994 13.278-4.424-7.662 22.993-13.278z"/><path d="M56.1 489.968l-4.423 7.662-22.993-13.276 4.424-7.661L56.1 489.968z"/><path d="M12.162 488.775l-7.663-4.424-4.424-7.663v-8.847l4.424-7.663 7.663-4.424h8.848l7.663 4.424 4.424 7.663v8.847l-4.424 7.663-7.663 4.424h-8.848z"/><path d="M28.674 424.777l-7.664 4.425v26.552l7.664 4.426 22.995-13.277v-8.851l-22.995-13.275z"/><path d="M56.092 454.561l-22.995 13.276v8.851l22.995 13.275 7.664-4.425v-26.552l-7.663-4.424-.001-.001z"/><path d="M12.162 429.202h8.847v26.552h-8.847v-26.552z"/><path d="M51.665 446.923l4.425 7.661-22.993 13.278-4.425-7.661 22.993-13.278z"/><path d="M56.1 430.395l-4.424 7.661-22.993-13.275 4.423-7.662L56.1 430.395z"/><path d="M12.162 429.202l-7.663-4.425-4.424-7.662v-8.847l4.424-7.664 7.663-4.423h8.848l7.663 4.423 4.424 7.664v8.847l-4.424 7.662-7.663 4.425h-8.848z"/><path d="M28.674 365.204l-7.664 4.425v26.552l7.664 4.425 22.995-13.276v-8.851l-22.995-13.275z"/><path d="M56.092 394.987l-22.995 13.277v8.851l22.995 13.275 7.664-4.425v-26.552l-7.663-4.424-.001-.002z"/><path d="M12.162 369.629h8.847v26.552h-8.847v-26.552z"/><path d="M51.666 387.347l4.424 7.661-22.993 13.278-4.424-7.661 22.993-13.278z"/><path d="M56.098 370.82l-4.423 7.662-22.994-13.275 4.424-7.662 22.993 13.275z"/><path d="M12.162 369.629l-7.663-4.425-4.424-7.662v-8.848l4.424-7.663 7.663-4.424h8.848l7.663 4.424 4.424 7.663v8.848l-4.424 7.662-7.663 4.425h-8.848z"/><path d="M28.674 305.631l-7.664 4.425v26.551l7.664 4.426 22.995-13.276v-8.852l-22.995-13.274z"/><path d="M56.092 335.414L33.097 348.69v8.852l22.995 13.274 7.664-4.424V339.84l-7.663-4.424-.001-.002z"/><path d="M12.162 310.056h8.847v26.552h-8.847v-26.552z"/><path d="M51.667 327.77l4.424 7.662-22.993 13.278-4.424-7.661 22.993-13.279z"/><path d="M56.097 311.247l-4.424 7.661-22.993-13.275 4.424-7.662 22.993 13.276z"/><path d="M12.162 310.056l-7.663-4.425-4.424-7.662v-8.848l4.424-7.663 7.663-4.424h8.848l7.663 4.424 4.424 7.663v8.848l-4.424 7.662-7.663 4.425h-8.848z"/><path d="M28.674 246.058l-7.664 4.424v26.552l7.664 4.426 22.995-13.276v-8.852l-22.995-13.274z"/><path d="M56.092 275.841l-22.995 13.276v8.852l22.995 13.274 7.664-4.425v-26.551l-7.663-4.424-.001-.002z"/><path d="M12.162 250.482h8.847v26.552h-8.847v-26.552z"/><path d="M51.667 268.195l4.424 7.661-22.993 13.279-4.424-7.662 22.993-13.278z"/><path d="M56.096 251.673l-4.423 7.662-22.994-13.276 4.424-7.661 22.993 13.275z"/><path d="M12.162 250.482l-7.663-4.424-4.424-7.662v-8.848l4.424-7.663 7.663-4.424h8.848l7.663 4.424 4.424 7.663v8.848l-4.424 7.662-7.663 4.424h-8.848z"/><path d="M28.674 186.484l-7.664 4.425v26.552l7.664 4.426 22.995-13.277v-8.851l-22.995-13.275z"/><path d="M56.092 216.268l-22.995 13.276v8.852l22.995 13.274 7.664-4.425v-26.552l-7.663-4.423-.001-.002z"/><path d="M12.162 190.909h8.847v26.552h-8.847v-26.552z"/><path d="M51.667 208.62l4.425 7.66-22.993 13.279-4.425-7.662 22.993-13.277z"/><path d="M56.095 192.1l-4.424 7.661-22.993-13.276 4.424-7.661L56.095 192.1z"/><path d="M12.162 190.909l-7.663-4.425-4.424-7.662v-8.847l4.424-7.663 7.663-4.424h8.848l7.663 4.424 4.424 7.663v8.847l-4.424 7.662-7.663 4.425h-8.848z"/><path d="M28.674 126.911l-7.664 4.425v26.552l7.664 4.425 22.995-13.276v-8.851l-22.995-13.275z"/><path d="M56.092 156.694l-22.995 13.277v8.851l22.995 13.275 7.664-4.425V161.12l-7.663-4.424-.001-.002z"/><path d="M12.162 131.336h8.847v26.552h-8.847v-26.552z"/><path d="M51.668 149.044l4.424 7.661-22.993 13.278-4.425-7.661 22.994-13.278z"/><path d="M56.093 132.526l-4.423 7.661-22.993-13.275 4.423-7.662 22.993 13.276z"/><path d="M12.162 131.336l-7.663-4.425-4.424-7.662v-8.848l4.424-7.663 7.663-4.424h8.848l7.663 4.424 4.424 7.663v8.848l-4.424 7.662-7.663 4.425h-8.848z"/><path d="M28.674 67.338l-7.664 4.425v26.551l7.664 4.426 22.995-13.276v-8.852L28.674 67.338z"/><path d="M56.092 97.121l-22.995 13.276v8.852l22.995 13.274 7.664-4.424v-26.552l-7.663-4.424-.001-.002z"/><path d="M12.162 71.763h8.847v26.552h-8.847V71.763z"/><path d="M51.668 89.468l4.424 7.661L33.1 110.408l-4.424-7.662 22.992-13.278z"/><path d="M56.092 72.952l-4.424 7.661-22.993-13.275 4.424-7.662 22.993 13.276z"/><path d="M12.162 71.763l-7.663-4.425-4.424-7.662v-8.848l4.424-7.663 7.663-4.424h8.848l7.663 4.424 4.424 7.663v8.848l-4.424 7.662-7.663 4.425h-8.848z"/><path d="M28.674 7.765l-7.664 4.424v26.552l7.664 4.426 22.995-13.276v-8.852L28.674 7.765z"/><path d="M56.092 37.548L33.097 50.824v8.852L56.092 72.95l7.664-4.425V41.974l-7.663-4.424-.001-.002z"/><path d="M12.162 12.189h8.847v26.552h-8.847V12.189z"/><path d="M51.669 29.892l4.424 7.661L33.1 50.831l-4.424-7.661 22.993-13.278z"/><path d="M56.091 13.378l-4.423 7.662L28.675 7.764 33.098.103l22.993 13.275z"/><path d="M80.267 692.859l-7.664 4.425v26.552l7.664 4.426 22.995-13.277v-8.851l-22.995-13.275z"/><path d="M63.755 697.284h8.847v26.552h-8.847v-26.552z"/><path d="M107.699 698.477l-4.424 7.662-22.993-13.276 4.423-7.661 22.994 13.275z"/><path d="M63.755 697.284l-7.663-4.425-4.424-7.662v-8.847l4.424-7.663 7.663-4.424h8.848l7.663 4.424 4.423 7.663v8.847l-4.423 7.662-7.663 4.425h-8.848z"/><path d="M80.267 633.286l-7.664 4.425v26.552l7.664 4.425 22.995-13.276v-8.851l-22.995-13.275z"/><path d="M107.685 663.069l-22.996 13.277v8.851l22.996 13.275 7.664-4.425v-26.552l-7.663-4.424-.001-.002z"/><path d="M63.755 637.711h8.847v26.552h-8.847v-26.552z"/><path d="M103.259 655.44l4.424 7.662-22.993 13.279-4.424-7.662 22.993-13.279z"/><path d="M107.697 638.904l-4.423 7.661L80.28 633.29l4.423-7.662 22.994 13.276z"/><path d="M63.755 637.711l-7.663-4.425-4.424-7.662v-8.848l4.424-7.663 7.663-4.424h8.848l7.663 4.424 4.423 7.663v8.848l-4.423 7.662-7.663 4.425h-8.848z"/><path d="M80.267 573.713l-7.664 4.425v26.551l7.664 4.426 22.995-13.276v-8.852l-22.995-13.274z"/><path d="M107.685 603.496l-22.996 13.276v8.852l22.996 13.274 7.664-4.424v-26.552l-7.663-4.424-.001-.002z"/><path d="M63.755 578.138h8.847v26.552h-8.847v-26.552z"/><path d="M103.26 595.865l4.424 7.662-22.994 13.278-4.424-7.662 22.994-13.278z"/><path d="M107.696 579.33l-4.424 7.661-22.993-13.275 4.424-7.662 22.993 13.276z"/><path d="M63.755 578.138l-7.663-4.425-4.424-7.662v-8.848l4.424-7.663 7.663-4.424h8.848l7.663 4.424 4.423 7.663v8.848l-4.423 7.662-7.663 4.425h-8.848z"/><path d="M80.267 514.14l-7.664 4.424v26.552l7.664 4.426 22.995-13.276v-8.852L80.267 514.14z"/><path d="M107.685 543.923l-22.996 13.276v8.852l22.996 13.274 7.664-4.425v-26.551l-7.663-4.424-.001-.002z"/><path d="M63.755 518.564h8.847v26.552h-8.847v-26.552z"/><path d="M103.26 536.29l4.425 7.66-22.995 13.28-4.424-7.662 22.994-13.278z"/><path d="M107.695 519.756l-4.423 7.662-22.993-13.276 4.423-7.661 22.993 13.275z"/><path d="M63.755 518.564l-7.663-4.424-4.424-7.662v-8.848l4.424-7.663 7.663-4.424h8.848l7.663 4.424 4.423 7.663v8.848l-4.423 7.662-7.663 4.424h-8.848z"/><path d="M80.267 454.566l-7.664 4.425v26.552l7.664 4.426 22.995-13.277v-8.851l-22.995-13.275z"/><path d="M107.685 484.35l-22.996 13.276v8.852l22.996 13.274 7.664-4.425v-26.552l-7.663-4.423-.001-.002z"/><path d="M63.755 458.991h8.847v26.552h-8.847v-26.552z"/><path d="M103.26 476.713l4.425 7.662-22.993 13.278-4.425-7.661 22.993-13.279z"/><path d="M107.694 460.182l-4.424 7.662-22.993-13.276 4.424-7.661 22.993 13.275z"/><path d="M63.755 458.991l-7.663-4.425-4.424-7.662v-8.847l4.424-7.663 7.663-4.424h8.848l7.663 4.424 4.423 7.663v8.847l-4.423 7.662-7.663 4.425h-8.848z"/><path d="M80.267 394.993l-7.664 4.425v26.552l7.664 4.426 22.995-13.277v-8.851l-22.995-13.275z"/><path d="M107.685 424.776l-22.996 13.277v8.851l22.996 13.275 7.664-4.425v-26.552l-7.663-4.424-.001-.002z"/><path d="M63.755 399.418h8.847v26.552h-8.847v-26.552z"/><path d="M103.26 417.138l4.425 7.661-22.993 13.278-4.424-7.661 22.992-13.278z"/><path d="M107.692 400.608l-4.423 7.662-22.993-13.276 4.423-7.661 22.993 13.275z"/><path d="M63.755 399.418l-7.663-4.425-4.424-7.662v-8.848l4.424-7.663 7.663-4.424h8.848l7.663 4.424 4.423 7.663v8.848l-4.423 7.662-7.663 4.425h-8.848z"/><path d="M80.267 335.42l-7.664 4.425v26.551l7.664 4.426 22.995-13.276v-8.852L80.267 335.42z"/><path d="M107.685 365.203l-22.996 13.276v8.852l22.996 13.274 7.664-4.424v-26.552l-7.663-4.424-.001-.002z"/><path d="M63.755 339.845h8.847v26.552h-8.847v-26.552z"/><path d="M103.26 357.562l4.425 7.662-22.993 13.278-4.424-7.662 22.992-13.278z"/><path d="M107.691 341.035l-4.424 7.661-22.993-13.275 4.424-7.662 22.993 13.276z"/><path d="M63.755 339.845l-7.663-4.425-4.424-7.662v-8.848l4.424-7.663 7.663-4.424h8.848l7.663 4.424 4.423 7.663v8.848l-4.423 7.662-7.663 4.425h-8.848z"/><path d="M80.267 275.847l-7.664 4.424v26.552l7.664 4.426 22.995-13.276v-8.852l-22.995-13.274z"/><path d="M107.685 305.63l-22.996 13.276v8.852l22.996 13.274 7.664-4.425v-26.551l-7.663-4.424-.001-.002z"/><path d="M63.755 280.271h8.847v26.552h-8.847v-26.552z"/><path d="M103.262 297.986l4.424 7.661-22.993 13.279-4.424-7.662 22.993-13.278z"/><path d="M107.69 281.461l-4.423 7.662-22.993-13.276 4.423-7.661 22.993 13.275z"/><path d="M63.755 280.271l-7.663-4.424-4.424-7.662v-8.848l4.424-7.663 7.663-4.424h8.848l7.663 4.424 4.423 7.663v8.848l-4.423 7.662-7.663 4.424h-8.848z"/><path d="M80.267 216.273l-7.664 4.425v26.552l7.664 4.426 22.995-13.277v-8.851l-22.995-13.275z"/><path d="M107.685 246.057l-22.996 13.276v8.852l22.996 13.274 7.664-4.425v-26.552l-7.663-4.423-.001-.002z"/><path d="M63.755 220.698h8.847v26.552h-8.847v-26.552z"/><path d="M103.262 238.41l4.425 7.662-22.993 13.278-4.425-7.662 22.993-13.278z"/><path d="M107.69 221.887l-4.424 7.662-22.994-13.276 4.424-7.661 22.994 13.275z"/><path d="M63.755 220.698l-7.663-4.425-4.424-7.662v-8.847l4.424-7.663 7.663-4.424h8.848l7.663 4.424 4.423 7.663v8.847l-4.423 7.662-7.663 4.425h-8.848z"/><path d="M80.267 156.7l-7.664 4.425v26.552l7.664 4.426 22.995-13.277v-8.851L80.267 156.7z"/><path d="M107.685 186.483L84.689 199.76v8.851l22.996 13.275 7.664-4.425v-26.552l-7.663-4.424-.001-.002z"/><path d="M63.755 161.125h8.847v26.552h-8.847v-26.552z"/><path d="M103.263 178.834l4.424 7.662-22.993 13.278-4.425-7.661 22.994-13.279z"/><path d="M107.688 162.313l-4.424 7.662-22.993-13.276 4.423-7.661 22.994 13.275z"/><path d="M63.755 161.125l-7.663-4.425-4.424-7.662v-8.848l4.424-7.663 7.663-4.423h8.848l7.663 4.423 4.423 7.663v8.848l-4.423 7.662-7.663 4.425h-8.848z"/><path d="M80.267 97.127l-7.664 4.425v26.552l7.664 4.425 22.995-13.276v-8.852L80.267 97.127z"/><path d="M107.685 126.91l-22.996 13.277v8.851l22.996 13.274 7.664-4.424v-26.552l-7.663-4.424-.001-.002z"/><path d="M63.755 101.552h8.847v26.552h-8.847v-26.552z"/><path d="M103.263 119.259l4.424 7.661-22.993 13.278-4.424-7.661 22.993-13.278z"/><path d="M107.686 102.74l-4.423 7.66L80.27 97.126l4.423-7.661 22.993 13.275z"/><path d="M63.755 101.552l-7.663-4.425-4.424-7.662v-8.848l4.424-7.663 7.663-4.424h8.848l7.663 4.424 4.423 7.663v8.848l-4.423 7.662-7.663 4.425h-8.848z"/><path d="M80.267 37.554l-7.664 4.425V68.53l7.664 4.426 22.995-13.276v-8.852L80.267 37.554z"/><path d="M107.685 67.337L84.689 80.613v8.852l22.996 13.274 7.664-4.425V71.763l-7.663-4.424-.001-.002z"/><path d="M63.755 41.979h8.847v26.552h-8.847V41.979z"/><path d="M103.264 59.683l4.424 7.661-22.993 13.278-4.424-7.661 22.993-13.278z"/><path d="M107.686 43.166l-4.424 7.661L80.27 37.552l4.424-7.662 22.992 13.276z"/><path d="M63.755 41.979l-7.663-4.425-4.424-7.662v-8.848l4.424-7.663 7.663-4.424h8.848l7.663 4.424 4.423 7.663v8.848l-4.423 7.662-7.663 4.425h-8.848z"/><path d="M107.685 7.764L84.689 21.04v8.852l22.996 13.274 7.664-4.425V12.189l-7.663-4.423-.001-.002z"/><path d="M103.264.107l4.424 7.661-22.993 13.279-4.424-7.662L103.264.107z"/><path d="M115.348 727.073l-7.663-4.425-4.424-7.662v-8.847l4.424-7.663 7.663-4.424h8.847l7.663 4.424 4.424 7.663v8.847l-4.424 7.662-7.663 4.425h-8.847z"/><path d="M131.859 663.075l-7.664 4.425v26.552l7.664 4.426 22.995-13.277v-8.851l-22.995-13.275z"/><path d="M159.277 692.858l-22.995 13.277v8.851l22.995 13.275 7.664-4.425v-26.552l-7.663-4.424-.001-.002z"/><path d="M115.348 667.5h8.847v26.552h-8.847V667.5z"/><path d="M154.854 685.232l4.424 7.661-22.993 13.279-4.424-7.662 22.993-13.278z"/><path d="M159.29 668.692l-4.423 7.662-22.993-13.276 4.424-7.661 22.992 13.275z"/><path d="M115.348 667.5l-7.663-4.425-4.424-7.662v-8.848l4.424-7.663 7.663-4.423h8.847l7.663 4.423 4.424 7.663v8.848l-4.424 7.662-7.663 4.425h-8.847z"/><path d="M131.859 603.502l-7.664 4.425v26.552l7.664 4.425 22.995-13.276v-8.852l-22.995-13.274z"/><path d="M159.277 633.285l-22.995 13.277v8.851l22.995 13.275 7.664-4.425v-26.552l-7.663-4.424-.001-.002z"/><path d="M115.348 607.927h8.847v26.552h-8.847v-26.552z"/><path d="M154.854 625.656l4.424 7.662-22.993 13.278-4.424-7.662 22.993-13.278z"/><path d="M159.29 609.118l-4.424 7.662-22.993-13.276 4.423-7.661 22.994 13.275z"/><path d="M115.348 607.927l-7.663-4.425-4.424-7.662v-8.848l4.424-7.663 7.663-4.424h8.847l7.663 4.424 4.424 7.663v8.848l-4.424 7.662-7.663 4.425h-8.847z"/><path d="M131.859 543.929l-7.664 4.425v26.551l7.664 4.426 22.995-13.276v-8.852l-22.995-13.274z"/><path d="M159.277 573.712l-22.995 13.276v8.852l22.995 13.274 7.664-4.425v-26.551l-7.663-4.424-.001-.002z"/><path d="M115.348 548.354h8.847v26.552h-8.847v-26.552z"/><path d="M154.855 566.08l4.425 7.661-22.994 13.279-4.424-7.662 22.993-13.278z"/><path d="M159.289 549.545l-4.424 7.661-22.993-13.275 4.424-7.662 22.993 13.276z"/><path d="M115.348 548.354l-7.663-4.425-4.424-7.662v-8.848l4.424-7.663 7.663-4.424h8.847l7.663 4.424 4.424 7.663v8.848l-4.424 7.662-7.663 4.425h-8.847z"/><path d="M131.859 484.355l-7.664 4.425v26.552l7.664 4.426 22.995-13.277v-8.851l-22.995-13.275z"/><path d="M159.277 514.139l-22.995 13.276v8.852l22.995 13.274 7.664-4.425v-26.552l-7.663-4.423-.001-.002z"/><path d="M115.348 488.78h8.847v26.552h-8.847V488.78z"/><path d="M154.855 506.504l4.425 7.662-22.993 13.278-4.425-7.662 22.993-13.278z"/><path d="M159.288 489.97l-4.424 7.662-22.993-13.275 4.423-7.662 22.994 13.275z"/><path d="M115.348 488.78l-7.663-4.425-4.424-7.662v-8.847l4.424-7.663 7.663-4.424h8.847l7.663 4.424 4.424 7.663v8.847l-4.424 7.662-7.663 4.425h-8.847z"/><path d="M131.859 424.782l-7.664 4.425v26.552l7.664 4.426 22.995-13.277v-8.851l-22.995-13.275z"/><path d="M159.277 454.565l-22.995 13.277v8.851l22.995 13.275 7.664-4.425v-26.552l-7.663-4.424-.001-.002z"/><path d="M115.348 429.207h8.847v26.552h-8.847v-26.552z"/><path d="M154.856 446.929l4.424 7.661-22.993 13.278-4.424-7.661 22.993-13.278z"/><path d="M159.286 430.397l-4.423 7.661-22.993-13.275 4.423-7.662 22.993 13.276z"/><path d="M115.348 429.207l-7.663-4.425-4.424-7.662v-8.848l4.424-7.663 7.663-4.423h8.847l7.663 4.423 4.424 7.663v8.848l-4.424 7.662-7.663 4.425h-8.847z"/><path d="M131.859 365.209l-7.664 4.425v26.552l7.664 4.425 22.995-13.276v-8.852l-22.995-13.274z"/><path d="M159.277 394.992l-22.995 13.277v8.851l22.995 13.275 7.664-4.425v-26.552l-7.663-4.424-.001-.002z"/><path d="M115.348 369.634h8.847v26.552h-8.847v-26.552z"/><path d="M154.856 387.353l4.424 7.661-22.993 13.279-4.424-7.662 22.993-13.278z"/><path d="M159.285 370.823l-4.424 7.662-22.993-13.276 4.424-7.661 22.993 13.275z"/><path d="M115.348 369.634l-7.663-4.425-4.424-7.662v-8.848l4.424-7.663 7.663-4.424h8.847l7.663 4.424 4.424 7.663v8.848l-4.424 7.662-7.663 4.425h-8.847z"/><path d="M131.859 305.636l-7.664 4.425v26.551l7.664 4.426 22.995-13.276v-8.852l-22.995-13.274z"/><path d="M159.277 335.419l-22.995 13.276v8.852l22.995 13.274 7.664-4.425v-26.551l-7.663-4.424-.001-.002z"/><path d="M115.348 310.061h8.847v26.552h-8.847v-26.552z"/><path d="M154.857 327.777l4.424 7.661-22.993 13.278-4.424-7.661 22.993-13.278z"/><path d="M159.284 311.25l-4.423 7.661-22.993-13.275 4.423-7.662 22.993 13.276z"/><path d="M115.348 310.061l-7.663-4.425-4.424-7.662v-8.848l4.424-7.663 7.663-4.424h8.847l7.663 4.424 4.424 7.663v8.848l-4.424 7.662-7.663 4.425h-8.847z"/><path d="M131.859 246.062l-7.664 4.425v26.552l7.664 4.426 22.995-13.277v-8.851l-22.995-13.275z"/><path d="M159.277 275.846l-22.995 13.276v8.852l22.995 13.274 7.664-4.425v-26.552l-7.663-4.423-.001-.002z"/><path d="M115.348 250.487h8.847v26.552h-8.847v-26.552z"/><path d="M154.857 268.201l4.425 7.662-22.994 13.278-4.424-7.662 22.993-13.278z"/><path d="M159.283 251.676l-4.424 7.661-22.993-13.275 4.424-7.662 22.993 13.276z"/><path d="M115.348 250.487l-7.663-4.425-4.424-7.662v-8.847l4.424-7.663 7.663-4.424h8.847l7.663 4.424 4.424 7.663v8.847l-4.424 7.662-7.663 4.425h-8.847z"/><path d="M131.859 186.489l-7.664 4.425v26.552l7.664 4.426 22.995-13.277v-8.851l-22.995-13.275z"/><path d="M159.277 216.272l-22.995 13.277v8.851l22.995 13.275 7.664-4.425v-26.552l-7.663-4.424-.001-.002z"/><path d="M115.348 190.914h8.847v26.552h-8.847v-26.552z"/><path d="M154.857 208.625l4.425 7.662-22.993 13.278-4.425-7.661 22.993-13.279z"/><path d="M159.281 192.102l-4.423 7.661-22.993-13.275 4.423-7.662 22.993 13.276z"/><path d="M115.348 190.914l-7.663-4.425-4.424-7.662v-8.848l4.424-7.663 7.663-4.423h8.847l7.663 4.423 4.424 7.663v8.848l-4.424 7.662-7.663 4.425h-8.847z"/><path d="M131.859 126.916l-7.664 4.425v26.552l7.664 4.425 22.995-13.276v-8.852l-22.995-13.274z"/><path d="M159.277 156.699l-22.995 13.277v8.851l22.995 13.275 7.664-4.425v-26.552l-7.663-4.424-.001-.002z"/><path d="M115.348 131.341h8.847v26.552h-8.847v-26.552z"/><path d="M154.858 149.05l4.424 7.661-22.993 13.278-4.425-7.661 22.994-13.278z"/><path d="M159.28 132.528l-4.423 7.661-22.994-13.275 4.424-7.662 22.993 13.276z"/><path d="M115.348 131.341l-7.663-4.425-4.424-7.662v-8.848l4.424-7.663 7.663-4.424h8.847l7.663 4.424 4.424 7.663v8.848l-4.424 7.662-7.663 4.425h-8.847z"/><path d="M131.859 67.343l-7.664 4.425v26.551l7.664 4.426 22.995-13.276v-8.852l-22.995-13.274z"/><path d="M159.277 97.126l-22.995 13.276v8.852l22.995 13.274 7.664-4.424v-26.552l-7.663-4.424-.001-.002z"/><path d="M115.348 71.768h8.847V98.32h-8.847V71.768z"/><path d="M154.859 89.473l4.424 7.662-22.993 13.278-4.424-7.661 22.993-13.279z"/><path d="M159.28 72.955l-4.424 7.661-22.993-13.275 4.423-7.662 22.994 13.276z"/><path d="M115.348 71.768l-7.663-4.425-4.424-7.662v-8.848l4.424-7.663 7.663-4.424h8.847l7.663 4.424 4.424 7.663v8.848l-4.424 7.662-7.663 4.425h-8.847z"/><path d="M131.859 7.77l-7.664 4.424v26.552l7.664 4.426 22.995-13.276v-8.852L131.859 7.77z"/><path d="M159.277 37.553l-22.995 13.276v8.852l22.995 13.274 7.664-4.425V41.979l-7.663-4.424-.001-.002z"/><path d="M115.348 12.194h8.847v26.552h-8.847V12.194z"/><path d="M154.859 29.898l4.424 7.661-22.993 13.278-4.424-7.661 22.993-13.278z"/><path d="M159.278 13.38l-4.423 7.662L131.86 7.767l4.424-7.662 22.994 13.275z"/><path d="M183.452 692.864l-7.664 4.425v26.552l7.664 4.426 22.995-13.277v-8.851l-22.995-13.275z"/><path d="M166.94 697.289h8.847v26.552h-8.847v-26.552z"/><path d="M210.885 698.48l-4.424 7.662-22.993-13.275 4.423-7.662 22.994 13.275z"/><path d="M166.94 697.289l-7.663-4.425-4.423-7.662v-8.848l4.423-7.663 7.663-4.423h8.848l7.663 4.423 4.424 7.663v8.848l-4.424 7.662-7.663 4.425h-8.848z"/><path d="M183.452 633.291l-7.664 4.425v26.552l7.664 4.425 22.995-13.276v-8.852l-22.995-13.274z"/><path d="M210.87 663.074l-22.995 13.277v8.851l22.995 13.275 7.664-4.425V667.5l-7.663-4.424-.001-.002z"/><path d="M166.94 637.716h8.847v26.552h-8.847v-26.552z"/><path d="M206.449 655.447l4.424 7.662-22.993 13.278-4.424-7.662 22.993-13.278z"/><path d="M210.883 638.907l-4.423 7.661-22.993-13.275 4.423-7.662 22.993 13.276z"/><path d="M166.94 637.716l-7.663-4.425-4.423-7.662v-8.848l4.423-7.663 7.663-4.424h8.848l7.663 4.424 4.424 7.663v8.848l-4.424 7.662-7.663 4.425h-8.848z"/><path d="M183.452 573.718l-7.664 4.425v26.551l7.664 4.426 22.995-13.276v-8.852l-22.995-13.274z"/><path d="M210.87 603.501l-22.995 13.276v8.852l22.995 13.274 7.664-4.424v-26.552l-7.663-4.424-.001-.002z"/><path d="M166.94 578.143h8.847v26.552h-8.847v-26.552z"/><path d="M206.45 595.87l4.424 7.662-22.993 13.279-4.424-7.662 22.993-13.279z"/><path d="M210.883 579.333l-4.424 7.662-22.993-13.276 4.424-7.661 22.993 13.275z"/><path d="M166.94 578.143l-7.663-4.425-4.423-7.662v-8.848l4.423-7.663 7.663-4.424h8.848l7.663 4.424 4.424 7.663v8.848l-4.424 7.662-7.663 4.425h-8.848z"/><path d="M183.452 514.145l-7.664 4.424v26.552l7.664 4.426 22.995-13.276v-8.852l-22.995-13.274z"/><path d="M210.87 543.928l-22.995 13.276v8.852l22.995 13.274 7.664-4.425v-26.551l-7.663-4.424-.001-.002z"/><path d="M166.94 518.569h8.847v26.552h-8.847v-26.552z"/><path d="M206.45 536.295l4.425 7.662-22.993 13.278-4.425-7.662 22.993-13.278z"/><path d="M210.881 519.76l-4.423 7.66-22.993-13.275 4.423-7.661 22.993 13.276z"/><path d="M166.94 518.569l-7.663-4.424-4.423-7.663v-8.847l4.423-7.663 7.663-4.424h8.848l7.663 4.424 4.424 7.663v8.847l-4.424 7.663-7.663 4.424h-8.848z"/><path d="M183.452 454.571l-7.664 4.425v26.552l7.664 4.426 22.995-13.277v-8.851l-22.995-13.275z"/><path d="M210.87 484.354l-22.995 13.277v8.851l22.995 13.275 7.664-4.425V488.78l-7.663-4.424-.001-.002z"/><path d="M166.94 458.996h8.847v26.552h-8.847v-26.552z"/><path d="M206.45 476.72l4.425 7.661-22.993 13.278-4.425-7.661 22.993-13.278z"/><path d="M210.88 460.185l-4.423 7.662-22.994-13.276 4.424-7.661 22.993 13.275z"/><path d="M166.94 458.996l-7.663-4.425-4.423-7.662v-8.847l4.423-7.664 7.663-4.423h8.848l7.663 4.423 4.424 7.664v8.847l-4.424 7.662-7.663 4.425h-8.848z"/><path d="M183.452 394.998l-7.664 4.425v26.552l7.664 4.425 22.995-13.276v-8.852l-22.995-13.274z"/><path d="M210.87 424.781l-22.995 13.277v8.851l22.995 13.275 7.664-4.425v-26.552l-7.663-4.424-.001-.002z"/><path d="M166.94 399.423h8.847v26.552h-8.847v-26.552z"/><path d="M206.45 417.144l4.425 7.661-22.993 13.278-4.424-7.661 22.992-13.278z"/><path d="M210.879 400.612l-4.424 7.661-22.993-13.275 4.423-7.662 22.994 13.276z"/><path d="M166.94 399.423l-7.663-4.425-4.423-7.662v-8.848l4.423-7.663 7.663-4.424h8.848l7.663 4.424 4.424 7.663v8.848l-4.424 7.662-7.663 4.425h-8.848z"/><path d="M183.452 335.425l-7.664 4.425v26.551l7.664 4.426 22.995-13.276v-8.852l-22.995-13.274z"/><path d="M210.87 365.208l-22.995 13.276v8.852l22.995 13.274 7.664-4.424v-26.552l-7.663-4.424-.001-.002z"/><path d="M166.94 339.85h8.847v26.552h-8.847V339.85z"/><path d="M206.452 357.568l4.424 7.661-22.993 13.278-4.424-7.661 22.993-13.278z"/><path d="M210.877 341.038l-4.423 7.661-22.994-13.275 4.424-7.662 22.993 13.276z"/><path d="M166.94 339.85l-7.663-4.425-4.423-7.662v-8.848l4.423-7.663 7.663-4.424h8.848l7.663 4.424 4.424 7.663v8.848l-4.424 7.662-7.663 4.425h-8.848z"/><path d="M183.452 275.852l-7.664 4.424v26.552l7.664 4.426 22.995-13.276v-8.852l-22.995-13.274z"/><path d="M210.87 305.635l-22.995 13.276v8.852l22.995 13.274 7.664-4.425v-26.551l-7.663-4.424-.001-.002z"/><path d="M166.94 280.276h8.847v26.552h-8.847v-26.552z"/><path d="M206.452 297.992l4.425 7.661-22.994 13.279-4.424-7.662 22.993-13.278z"/><path d="M210.877 281.464l-4.424 7.662-22.993-13.276 4.423-7.661 22.994 13.275z"/><path d="M166.94 280.276l-7.663-4.424-4.423-7.663v-8.847l4.423-7.663 7.663-4.424h8.848l7.663 4.424 4.424 7.663v8.847l-4.424 7.663-7.663 4.424h-8.848z"/><path d="M183.452 216.278l-7.664 4.425v26.552l7.664 4.426 22.995-13.277v-8.851l-22.995-13.275z"/><path d="M210.87 246.062l-22.995 13.276v8.851l22.995 13.275 7.664-4.425v-26.552l-7.663-4.424-.001-.001z"/><path d="M166.94 220.703h8.847v26.552h-8.847v-26.552z"/><path d="M206.452 238.416l4.425 7.662-22.993 13.278-4.425-7.662 22.993-13.278z"/><path d="M210.875 221.89l-4.423 7.662-22.993-13.276 4.423-7.661 22.993 13.275z"/><path d="M166.94 220.703l-7.663-4.425-4.423-7.662v-8.847l4.423-7.664 7.663-4.423h8.848l7.663 4.423 4.424 7.664v8.847l-4.424 7.662-7.663 4.425h-8.848z"/><path d="M183.452 156.705l-7.664 4.425v26.552l7.664 4.425 22.995-13.276v-8.852l-22.995-13.274z"/><path d="M210.87 186.488l-22.995 13.277v8.851l22.995 13.275 7.664-4.425v-26.552l-7.663-4.424-.001-.002z"/><path d="M166.94 161.13h8.847v26.552h-8.847V161.13z"/><path d="M206.453 178.84l4.424 7.662-22.993 13.278-4.425-7.661 22.994-13.279z"/><path d="M210.874 162.316l-4.424 7.662-22.993-13.276 4.424-7.661 22.993 13.275z"/><path d="M166.94 161.13l-7.663-4.425-4.423-7.662v-8.848l4.423-7.663 7.663-4.424h8.848l7.663 4.424 4.424 7.663v8.848l-4.424 7.662-7.663 4.425h-8.848z"/><path d="M183.452 97.132l-7.664 4.425v26.551l7.664 4.426 22.995-13.276v-8.852l-22.995-13.274z"/><path d="M210.87 126.915l-22.995 13.276v8.852l22.995 13.274 7.664-4.424v-26.552l-7.663-4.424-.001-.002z"/><path d="M166.94 101.557h8.847v26.552h-8.847v-26.552z"/><path d="M206.454 119.264l4.424 7.662-22.993 13.278-4.424-7.661 22.993-13.279z"/><path d="M210.872 102.743l-4.423 7.661-22.993-13.275 4.423-7.662 22.993 13.276z"/><path d="M166.94 101.557l-7.663-4.425-4.423-7.662v-8.848l4.423-7.663 7.663-4.424h8.848l7.663 4.424 4.424 7.663v8.848l-4.424 7.662-7.663 4.425h-8.848z"/><path d="M183.452 37.559l-7.664 4.424v26.552l7.664 4.426 22.995-13.276v-8.852l-22.995-13.274z"/><path d="M210.87 67.342l-22.995 13.276v8.852l22.995 13.274 7.664-4.425V71.768l-7.663-4.424-.001-.002z"/><path d="M166.94 41.983h8.847v26.552h-8.847V41.983z"/><path d="M206.454 59.689l4.424 7.661-22.993 13.278-4.424-7.661 22.993-13.278z"/><path d="M210.872 43.17l-4.424 7.66-22.993-13.275 4.424-7.661 22.993 13.276z"/><path d="M166.94 41.983l-7.663-4.424-4.423-7.663v-8.847l4.423-7.663 7.663-4.424h8.848l7.663 4.424 4.424 7.663v8.847l-4.424 7.663-7.663 4.424h-8.848z"/><path d="M210.87 7.769l-22.995 13.276v8.851l22.995 13.275 7.664-4.425V12.194l-7.663-4.423-.001-.002z"/><path d="M206.454.113l4.425 7.661-22.994 13.279-4.424-7.662L206.454.113z"/><path d="M218.533 727.078l-7.663-4.425-4.424-7.662v-8.847l4.424-7.664 7.663-4.423h8.848l7.663 4.423 4.424 7.664v8.847l-4.424 7.662-7.663 4.425h-8.848z"/><path d="M235.045 663.08l-7.664 4.425v26.552l7.664 4.425 22.995-13.276v-8.852l-22.995-13.274z"/><path d="M262.463 692.863l-22.995 13.277v8.851l22.995 13.275 7.664-4.425v-26.552l-7.663-4.424-.001-.002z"/><path d="M218.533 667.505h8.847v26.552h-8.847v-26.552z"/><path d="M258.044 685.238l4.424 7.661-22.993 13.279-4.424-7.662 22.993-13.278z"/><path d="M262.477 668.695l-4.423 7.662-22.994-13.276 4.424-7.661 22.993 13.275z"/><path d="M218.533 667.505l-7.663-4.425-4.424-7.662v-8.848l4.424-7.663 7.663-4.424h8.848l7.663 4.424 4.424 7.663v8.848l-4.424 7.662-7.663 4.425h-8.848z"/><path d="M235.045 603.507l-7.664 4.425v26.551l7.664 4.426 22.995-13.276v-8.852l-22.995-13.274z"/><path d="M262.463 633.29l-22.995 13.276v8.852l22.995 13.274 7.664-4.424v-26.552l-7.663-4.424-.001-.002z"/><path d="M218.533 607.932h8.847v26.552h-8.847v-26.552z"/><path d="M258.045 625.662l4.424 7.661-22.993 13.278-4.424-7.661 22.993-13.278z"/><path d="M262.476 609.121l-4.424 7.662-22.993-13.276 4.424-7.661 22.993 13.275z"/><path d="M218.533 607.932l-7.663-4.425-4.424-7.662v-8.848l4.424-7.663 7.663-4.424h8.848l7.663 4.424 4.424 7.663v8.848l-4.424 7.662-7.663 4.425h-8.848z"/><path d="M235.045 543.934l-7.664 4.424v26.552l7.664 4.426 22.995-13.276v-8.852l-22.995-13.274z"/><path d="M262.463 573.717l-22.995 13.276v8.852l22.995 13.274 7.664-4.425v-26.551l-7.663-4.424-.001-.002z"/><path d="M218.533 548.358h8.847v26.552h-8.847v-26.552z"/><path d="M258.045 566.086l4.425 7.662-22.994 13.278-4.424-7.662 22.993-13.278z"/><path d="M262.475 549.548l-4.423 7.661-22.994-13.275 4.424-7.662 22.993 13.276z"/><path d="M218.533 548.358l-7.663-4.424-4.424-7.663v-8.847l4.424-7.663 7.663-4.424h8.848l7.663 4.424 4.424 7.663v8.847l-4.424 7.663-7.663 4.424h-8.848z"/><path d="M235.045 484.36l-7.664 4.425v26.552l7.664 4.426 22.995-13.277v-8.851l-22.995-13.275z"/><path d="M262.463 514.144l-22.995 13.276v8.851l22.995 13.275 7.664-4.425v-26.552l-7.663-4.423-.001-.002z"/><path d="M218.533 488.785h8.847v26.552h-8.847v-26.552z"/><path d="M258.046 506.51l4.424 7.662-22.993 13.278-4.425-7.661 22.994-13.279z"/><path d="M262.474 489.974l-4.424 7.661-22.993-13.275 4.424-7.662 22.993 13.276z"/><path d="M218.533 488.785l-7.663-4.425-4.424-7.662v-8.847l4.424-7.663 7.663-4.424h8.848l7.663 4.424 4.424 7.663v8.847l-4.424 7.662-7.663 4.425h-8.848z"/><path d="M235.045 424.787l-7.664 4.425v26.552l7.664 4.425 22.995-13.276v-8.851l-22.995-13.275z"/><path d="M262.463 454.57l-22.995 13.277v8.851l22.995 13.275 7.664-4.425v-26.552l-7.663-4.424-.001-.002z"/><path d="M218.533 429.212h8.847v26.552h-8.847v-26.552z"/><path d="M258.046 446.935l4.424 7.661-22.993 13.278-4.424-7.661 22.993-13.278z"/><path d="M262.472 430.4l-4.423 7.662-22.993-13.276 4.423-7.661 22.993 13.275z"/><path d="M218.533 429.212l-7.663-4.425-4.424-7.662v-8.848l4.424-7.663 7.663-4.424h8.848l7.663 4.424 4.424 7.663v8.848l-4.424 7.662-7.663 4.425h-8.848z"/><path d="M235.045 365.214l-7.664 4.425v26.551l7.664 4.426 22.995-13.276v-8.852l-22.995-13.274z"/><path d="M262.463 394.997l-22.995 13.276v8.852l22.995 13.274 7.664-4.424v-26.552l-7.663-4.424-.001-.002z"/><path d="M218.533 369.639h8.847v26.552h-8.847v-26.552z"/><path d="M258.047 387.358l4.424 7.662-22.993 13.278-4.424-7.661 22.993-13.279z"/><path d="M262.47 370.826l-4.423 7.662-22.993-13.276 4.424-7.661 22.992 13.275z"/><path d="M218.533 369.639l-7.663-4.425-4.424-7.662v-8.848l4.424-7.663 7.663-4.424h8.848l7.663 4.424 4.424 7.663v8.848l-4.424 7.662-7.663 4.425h-8.848z"/><path d="M235.045 305.641l-7.664 4.424v26.552l7.664 4.426 22.995-13.276v-8.852l-22.995-13.274z"/><path d="M262.463 335.424L239.468 348.7v8.852l22.995 13.274 7.664-4.425V339.85l-7.663-4.424-.001-.002z"/><path d="M218.533 310.065h8.847v26.552h-8.847v-26.552z"/><path d="M258.047 327.783l4.424 7.661-22.993 13.278-4.424-7.661 22.993-13.278z"/><path d="M262.47 311.253l-4.423 7.661-22.993-13.275 4.423-7.662 22.993 13.276z"/><path d="M218.533 310.065l-7.663-4.424-4.424-7.662v-8.848l4.424-7.663 7.663-4.424h8.848l7.663 4.424 4.424 7.663v8.848l-4.424 7.662-7.663 4.424h-8.848z"/><path d="M235.045 246.067l-7.664 4.425v26.552l7.664 4.426 22.995-13.277v-8.851l-22.995-13.275z"/><path d="M262.463 275.851l-22.995 13.276v8.852l22.995 13.274 7.664-4.425v-26.552l-7.663-4.423-.001-.002z"/><path d="M218.533 250.492h8.847v26.552h-8.847v-26.552z"/><path d="M258.047 268.207l4.425 7.662-22.993 13.278-4.425-7.662 22.993-13.278z"/><path d="M262.469 251.679l-4.424 7.661-22.993-13.275 4.424-7.662 22.993 13.276z"/><path d="M218.533 250.492l-7.663-4.425-4.424-7.662v-8.847l4.424-7.663 7.663-4.424h8.848l7.663 4.424 4.424 7.663v8.847l-4.424 7.662-7.663 4.425h-8.848z"/><path d="M235.045 186.494l-7.664 4.425v26.552l7.664 4.425 22.995-13.276v-8.851l-22.995-13.275z"/><path d="M262.463 216.277l-22.995 13.277v8.851l22.995 13.275 7.664-4.425v-26.552l-7.663-4.424-.001-.002z"/><path d="M218.533 190.919h8.847v26.552h-8.847v-26.552z"/><path d="M258.048 208.631l4.424 7.662-22.993 13.278-4.425-7.661 22.994-13.279z"/><path d="M262.468 192.105l-4.424 7.661-22.993-13.275 4.423-7.662 22.994 13.276z"/><path d="M218.533 190.919l-7.663-4.425-4.424-7.662v-8.848l4.424-7.663 7.663-4.424h8.848l7.663 4.424 4.424 7.663v8.848l-4.424 7.662-7.663 4.425h-8.848z"/><path d="M235.045 126.921l-7.664 4.425v26.551l7.664 4.426 22.995-13.276v-8.852l-22.995-13.274z"/><path d="M262.463 156.704l-22.995 13.276v8.852l22.995 13.274 7.664-4.424V161.13l-7.663-4.424-.001-.002z"/><path d="M218.533 131.346h8.847v26.552h-8.847v-26.552z"/><path d="M258.048 149.056l4.424 7.661-22.993 13.278-4.424-7.661 22.993-13.278z"/><path d="M262.466 132.531l-4.423 7.662-22.993-13.276 4.423-7.661 22.993 13.275z"/><path d="M218.533 131.346l-7.663-4.425-4.424-7.662v-8.848l4.424-7.663 7.663-4.424h8.848l7.663 4.424 4.424 7.663v8.848l-4.424 7.662-7.663 4.425h-8.848z"/><path d="M235.045 67.348l-7.664 4.424v26.552l7.664 4.426 22.995-13.276v-8.852l-22.995-13.274z"/><path d="M262.463 97.131l-22.995 13.276v8.852l22.995 13.274 7.664-4.425v-26.551l-7.663-4.424-.001-.002z"/><path d="M218.533 71.772h8.847v26.552h-8.847V71.772z"/><path d="M258.049 89.48l4.424 7.661-22.993 13.278-4.424-7.661 22.993-13.278z"/><path d="M262.466 72.958l-4.424 7.661-22.993-13.275 4.423-7.662 22.994 13.276z"/><path d="M218.533 71.772l-7.663-4.424-4.424-7.662v-8.848l4.424-7.663 7.663-4.424h8.848l7.663 4.424 4.424 7.663v8.848l-4.424 7.662-7.663 4.424h-8.848z"/><path d="M235.045 7.774l-7.664 4.425v26.552l7.664 4.426L258.04 29.9v-8.851L235.045 7.774z"/><path d="M262.463 37.558l-22.995 13.276v8.852l22.995 13.274 7.664-4.425V41.983l-7.663-4.423-.001-.002z"/><path d="M218.533 12.199h8.847v26.552h-8.847V12.199z"/><path d="M258.05 29.904l4.424 7.661-22.994 13.279-4.424-7.662 22.994-13.278z"/><path d="M262.464 13.384l-4.423 7.661L235.048 7.77 239.47.108l22.994 13.276z"/><path d="M286.638 692.869l-7.664 4.425v26.552l7.664 4.425 22.995-13.276v-8.851l-22.995-13.275z"/><path d="M270.126 697.294h8.847v26.552h-8.847v-26.552z"/><path d="M314.071 698.483l-4.423 7.661-22.993-13.275 4.423-7.662 22.993 13.276z"/><path d="M270.126 697.294l-7.663-4.425-4.424-7.662v-8.848l4.424-7.663 7.663-4.424h8.848l7.663 4.424 4.424 7.663v8.848l-4.424 7.662-7.663 4.425h-8.848z"/><path d="M286.638 633.296l-7.664 4.425v26.551l7.664 4.426 22.995-13.276v-8.852l-22.995-13.274z"/><path d="M314.056 663.079l-22.995 13.276v8.852l22.995 13.274 7.664-4.424v-26.552l-7.663-4.424-.001-.002z"/><path d="M270.126 637.721h8.847v26.552h-8.847v-26.552z"/><path d="M309.639 655.452l4.424 7.662-22.993 13.278-4.425-7.662 22.994-13.278z"/><path d="M314.07 638.909l-4.424 7.661-22.993-13.275 4.424-7.662 22.993 13.276z"/><path d="M270.126 637.721l-7.663-4.425-4.424-7.662v-8.848l4.424-7.663 7.663-4.424h8.848l7.663 4.424 4.424 7.663v8.848l-4.424 7.662-7.663 4.425h-8.848z"/><path d="M286.638 573.723l-7.664 4.424v26.552l7.664 4.426 22.995-13.276v-8.852l-22.995-13.274z"/><path d="M314.056 603.506l-22.995 13.276v8.852l22.995 13.274 7.664-4.425v-26.551l-7.663-4.424-.001-.002z"/><path d="M270.126 578.147h8.847v26.552h-8.847v-26.552z"/><path d="M309.64 595.876l4.424 7.662-22.993 13.278-4.424-7.662 22.993-13.278z"/><path d="M314.07 579.336l-4.424 7.661-22.993-13.275 4.423-7.662 22.994 13.276z"/><path d="M270.126 578.147l-7.663-4.424-4.424-7.662v-8.848l4.424-7.663 7.663-4.424h8.848l7.663 4.424 4.424 7.663v8.848l-4.424 7.662-7.663 4.424h-8.848z"/><path d="M286.638 514.149l-7.664 4.425v26.552l7.664 4.426 22.995-13.277v-8.851l-22.995-13.275z"/><path d="M314.056 543.933l-22.995 13.276v8.852l22.995 13.274 7.664-4.425v-26.552l-7.663-4.423-.001-.002z"/><path d="M270.126 518.574h8.847v26.552h-8.847v-26.552z"/><path d="M309.64 536.3l4.424 7.662-22.993 13.278-4.424-7.661L309.64 536.3z"/><path d="M314.068 519.762l-4.423 7.661-22.994-13.275 4.424-7.662 22.993 13.276z"/><path d="M270.126 518.574l-7.663-4.425-4.424-7.662v-8.847l4.424-7.663 7.663-4.424h8.848l7.663 4.424 4.424 7.663v8.847l-4.424 7.662-7.663 4.425h-8.848z"/><path d="M286.638 454.576l-7.664 4.425v26.552l7.664 4.426 22.995-13.277v-8.851l-22.995-13.275z"/><path d="M314.056 484.359l-22.995 13.277v8.851l22.995 13.275 7.664-4.425v-26.552l-7.663-4.424-.001-.002z"/><path d="M270.126 459.001h8.847v26.552h-8.847v-26.552z"/><path d="M309.64 476.725l4.425 7.661-22.994 13.278-4.424-7.661 22.993-13.278z"/><path d="M314.067 460.188l-4.424 7.661-22.993-13.275 4.423-7.662 22.994 13.276z"/><path d="M270.126 459.001l-7.663-4.425-4.424-7.662v-8.848l4.424-7.663 7.663-4.424h8.848l7.663 4.424 4.424 7.663v8.848l-4.424 7.662-7.663 4.425h-8.848z"/><path d="M286.638 395.003l-7.664 4.425v26.551l7.664 4.426 22.995-13.276v-8.852l-22.995-13.274z"/><path d="M314.056 424.786l-22.995 13.276v8.852l22.995 13.274 7.664-4.424v-26.552l-7.663-4.424-.001-.002z"/><path d="M270.126 399.428h8.847v26.552h-8.847v-26.552z"/><path d="M309.64 417.15l4.425 7.66-22.993 13.279-4.425-7.662 22.993-13.277z"/><path d="M314.065 400.614l-4.423 7.661L286.649 395l4.423-7.662 22.993 13.276z"/><path d="M270.126 399.428l-7.663-4.425-4.424-7.662v-8.848l4.424-7.663 7.663-4.424h8.848l7.663 4.424 4.424 7.663v8.848l-4.424 7.662-7.663 4.425h-8.848z"/><path d="M286.638 335.43l-7.664 4.424v26.552l7.664 4.426 22.995-13.276v-8.852l-22.995-13.274z"/><path d="M314.056 365.213l-22.995 13.276v8.852l22.995 13.274 7.664-4.425v-26.551l-7.663-4.424-.001-.002z"/><path d="M270.126 339.854h8.847v26.552h-8.847v-26.552z"/><path d="M309.642 357.573l4.424 7.661-22.993 13.279-4.425-7.662 22.994-13.278z"/><path d="M314.065 341.04l-4.424 7.662-22.993-13.276 4.424-7.661 22.993 13.275z"/><path d="M270.126 339.854l-7.663-4.424-4.424-7.662v-8.848l4.424-7.663 7.663-4.424h8.848l7.663 4.424 4.424 7.663v8.848l-4.424 7.662-7.663 4.424h-8.848z"/><path d="M286.638 275.856l-7.664 4.425v26.552l7.664 4.426 22.995-13.277v-8.851l-22.995-13.275z"/><path d="M314.056 305.64l-22.995 13.276v8.852l22.995 13.274 7.664-4.425v-26.552l-7.663-4.423-.001-.002z"/><path d="M270.126 280.281h8.847v26.552h-8.847v-26.552z"/><path d="M309.642 297.997l4.424 7.662-22.993 13.278-4.424-7.662 22.993-13.278z"/><path d="M314.063 281.467l-4.423 7.661-22.993-13.275 4.423-7.662 22.993 13.276z"/><path d="M270.126 280.281l-7.663-4.425-4.424-7.662v-8.847l4.424-7.663 7.663-4.424h8.848l7.663 4.424 4.424 7.663v8.847l-4.424 7.662-7.663 4.425h-8.848z"/><path d="M286.638 216.283l-7.664 4.425v26.552l7.664 4.426 22.995-13.277v-8.851l-22.995-13.275z"/><path d="M314.056 246.066l-22.995 13.277v8.851l22.995 13.275 7.664-4.425v-26.552l-7.663-4.424-.001-.002z"/><path d="M270.126 220.708h8.847v26.552h-8.847v-26.552z"/><path d="M309.642 238.421l4.424 7.662-22.993 13.278-4.424-7.661 22.993-13.279z"/><path d="M314.062 221.893l-4.424 7.661-22.993-13.275 4.424-7.662 22.993 13.276z"/><path d="M270.126 220.708l-7.663-4.425-4.424-7.662v-8.848l4.424-7.663 7.663-4.423h8.848l7.663 4.423 4.424 7.663v8.848l-4.424 7.662-7.663 4.425h-8.848z"/><path d="M286.638 156.71l-7.664 4.425v26.552l7.664 4.425 22.995-13.276v-8.852l-22.995-13.274z"/><path d="M314.056 186.493l-22.995 13.277v8.851l22.995 13.275 7.664-4.425v-26.552l-7.663-4.424-.001-.002z"/><path d="M270.126 161.135h8.847v26.552h-8.847v-26.552z"/><path d="M309.642 178.846l4.425 7.661-22.994 13.278-4.424-7.661 22.993-13.278z"/><path d="M314.06 162.319l-4.423 7.661-22.993-13.275 4.423-7.662 22.993 13.276z"/><path d="M270.126 161.135l-7.663-4.425-4.424-7.662V140.2l4.424-7.663 7.663-4.424h8.848l7.663 4.424 4.424 7.663v8.848l-4.424 7.662-7.663 4.425h-8.848z"/><path d="M286.638 97.137l-7.664 4.425v26.551l7.664 4.426 22.995-13.276v-8.852l-22.995-13.274z"/><path d="M314.056 126.92l-22.995 13.276v8.852l22.995 13.274 7.664-4.425v-26.551l-7.663-4.424-.001-.002z"/><path d="M270.126 101.562h8.847v26.552h-8.847v-26.552z"/><path d="M309.643 119.27l4.425 7.661-22.993 13.278-4.425-7.661 22.993-13.278z"/><path d="M314.06 102.745l-4.424 7.662-22.993-13.276 4.424-7.661 22.993 13.275z"/><path d="M270.126 101.562l-7.663-4.425-4.424-7.662v-8.848l4.424-7.663 7.663-4.424h8.848l7.663 4.424 4.424 7.663v8.848l-4.424 7.662-7.663 4.425h-8.848z"/><path d="M286.638 37.563l-7.664 4.425V68.54l7.664 4.426 22.995-13.277v-8.851l-22.995-13.275z"/><path d="M314.056 67.347l-22.995 13.276v8.852l22.995 13.274 7.664-4.425V71.772l-7.663-4.423-.001-.002z"/><path d="M270.126 41.988h8.847V68.54h-8.847V41.988z"/><path d="M309.644 59.694l4.424 7.661-22.993 13.279-4.425-7.662 22.994-13.278z"/><path d="M314.059 43.171l-4.424 7.662-22.993-13.276 4.423-7.661 22.994 13.275z"/><path d="M270.126 41.988l-7.663-4.425-4.424-7.662v-8.847l4.424-7.663 7.663-4.424h8.848l7.663 4.424 4.424 7.663v8.847l-4.424 7.662-7.663 4.425h-8.848z"/><path d="M314.056 7.773L291.061 21.05v8.851l22.995 13.275 7.664-4.425V12.199l-7.663-4.424-.001-.002z"/><path d="M309.644.118l4.424 7.662-22.993 13.278-4.424-7.662L309.644.118z"/><path d="M321.719 727.083l-7.663-4.425-4.424-7.662v-8.848l4.424-7.663 7.663-4.423h8.847l7.663 4.423 4.424 7.663v8.848l-4.424 7.662-7.663 4.425h-8.847z"/><path d="M338.23 663.085l-7.664 4.425v26.552l7.664 4.425 22.996-13.276v-8.852l-22.996-13.274z"/><path d="M365.648 692.868l-22.995 13.277v8.851l22.995 13.275 7.664-4.425v-26.552l-7.663-4.424-.001-.002z"/><path d="M321.719 667.51h8.847v26.552h-8.847V667.51z"/><path d="M361.234 685.243l4.424 7.662-22.993 13.278-4.425-7.662 22.994-13.278z"/><path d="M365.664 668.697l-4.424 7.662-22.993-13.276 4.424-7.661 22.993 13.275z"/><path d="M321.719 667.51l-7.663-4.425-4.424-7.662v-8.848l4.424-7.663 7.663-4.424h8.847l7.663 4.424 4.424 7.663v8.848l-4.424 7.662-7.663 4.425h-8.847z"/><path d="M338.23 603.512l-7.664 4.425v26.551l7.664 4.426 22.996-13.276v-8.852l-22.996-13.274z"/><path d="M365.648 633.295l-22.995 13.276v8.852l22.995 13.274 7.664-4.425v-26.551l-7.663-4.424-.001-.002z"/><path d="M321.719 607.937h8.847v26.552h-8.847v-26.552z"/><path d="M361.235 625.667l4.424 7.662-22.993 13.278-4.424-7.662 22.993-13.278z"/><path d="M365.663 609.124l-4.423 7.662-22.993-13.276 4.423-7.661 22.993 13.275z"/><path d="M321.719 607.937l-7.663-4.425-4.424-7.662v-8.848l4.424-7.663 7.663-4.424h8.847l7.663 4.424 4.424 7.663v8.848l-4.424 7.662-7.663 4.425h-8.847z"/><path d="M338.23 543.938l-7.664 4.425v26.552l7.664 4.426 22.996-13.277v-8.851l-22.996-13.275z"/><path d="M365.648 573.722l-22.995 13.276v8.852l22.995 13.274 7.664-4.425v-26.552l-7.663-4.423-.001-.002z"/><path d="M321.719 548.363h8.847v26.552h-8.847v-26.552z"/><path d="M361.235 566.091l4.424 7.662-22.993 13.278-4.424-7.661 22.993-13.279z"/><path d="M365.662 549.55l-4.424 7.662-22.993-13.276 4.424-7.661 22.993 13.275z"/><path d="M321.719 548.363l-7.663-4.425-4.424-7.662v-8.847l4.424-7.663 7.663-4.424h8.847l7.663 4.424 4.424 7.663v8.847l-4.424 7.662-7.663 4.425h-8.847z"/><path d="M338.23 484.365l-7.664 4.425v26.552l7.664 4.426 22.996-13.277v-8.851l-22.996-13.275z"/><path d="M365.648 514.148l-22.995 13.277v8.851l22.995 13.275 7.664-4.425v-26.552l-7.663-4.424-.001-.002z"/><path d="M321.719 488.79h8.847v26.552h-8.847V488.79z"/><path d="M361.235 506.516l4.425 7.661-22.994 13.278-4.424-7.661 22.993-13.278z"/><path d="M365.66 489.976l-4.423 7.662-22.993-13.276 4.423-7.661 22.993 13.275z"/><path d="M321.719 488.79l-7.663-4.425-4.424-7.662v-8.848l4.424-7.663 7.663-4.423h8.847l7.663 4.423 4.424 7.663v8.848l-4.424 7.662-7.663 4.425h-8.847z"/><path d="M338.23 424.792l-7.664 4.425v26.552l7.664 4.425 22.996-13.276v-8.852l-22.996-13.274z"/><path d="M365.648 454.575l-22.995 13.277v8.851l22.995 13.275 7.664-4.425v-26.552l-7.663-4.424-.001-.002z"/><path d="M321.719 429.217h8.847v26.552h-8.847v-26.552z"/><path d="M361.235 446.94l4.425 7.661-22.993 13.279-4.425-7.662 22.993-13.278z"/><path d="M365.659 430.402l-4.423 7.662-22.994-13.276 4.424-7.661 22.993 13.275z"/><path d="M321.719 429.217l-7.663-4.425-4.424-7.662v-8.848l4.424-7.663 7.663-4.424h8.847l7.663 4.424 4.424 7.663v8.848l-4.424 7.662-7.663 4.425h-8.847z"/><path d="M338.23 365.219l-7.664 4.425v26.551l7.664 4.426 22.996-13.276v-8.852l-22.996-13.274z"/><path d="M365.648 395.002l-22.995 13.276v8.852l22.995 13.274 7.664-4.425v-26.551l-7.663-4.424-.001-.002z"/><path d="M321.719 369.644h8.847v26.552h-8.847v-26.552z"/><path d="M361.236 387.364l4.425 7.661-22.993 13.278-4.425-7.661 22.993-13.278z"/><path d="M365.659 370.829l-4.424 7.661-22.993-13.275 4.423-7.662 22.994 13.276z"/><path d="M321.719 369.644l-7.663-4.425-4.424-7.662v-8.848l4.424-7.663 7.663-4.424h8.847l7.663 4.424 4.424 7.663v8.848l-4.424 7.662-7.663 4.425h-8.847z"/><path d="M338.23 305.646l-7.664 4.424v26.552l7.664 4.426 22.996-13.277v-8.851l-22.996-13.274z"/><path d="M365.648 335.429l-22.995 13.276v8.852l22.995 13.274 7.664-4.425v-26.552l-7.663-4.423-.001-.002z"/><path d="M321.719 310.07h8.847v26.552h-8.847V310.07z"/><path d="M361.237 327.788l4.424 7.662-22.993 13.278-4.425-7.662 22.994-13.278z"/><path d="M365.657 311.255l-4.423 7.661-22.994-13.275 4.424-7.662 22.993 13.276z"/><path d="M321.719 310.07l-7.663-4.424-4.424-7.663v-8.847l4.424-7.663 7.663-4.424h8.847l7.663 4.424 4.424 7.663v8.847l-4.424 7.663-7.663 4.424h-8.847z"/><path d="M338.23 246.072l-7.664 4.425v26.552l7.664 4.426 22.996-13.277v-8.851l-22.996-13.275z"/><path d="M365.648 275.855l-22.995 13.277v8.851l22.995 13.275 7.664-4.425v-26.552l-7.663-4.424-.001-.002z"/><path d="M321.719 250.497h8.847v26.552h-8.847v-26.552z"/><path d="M361.237 268.212l4.424 7.662-22.993 13.278-4.424-7.661 22.993-13.279z"/><path d="M365.656 251.681l-4.424 7.662-22.993-13.276 4.423-7.661 22.994 13.275z"/><path d="M321.719 250.497l-7.663-4.425-4.424-7.662v-8.848l4.424-7.663 7.663-4.423h8.847l7.663 4.423 4.424 7.663v8.848l-4.424 7.662-7.663 4.425h-8.847z"/><path d="M338.23 186.499l-7.664 4.425v26.552l7.664 4.425 22.996-13.276v-8.852l-22.996-13.274z"/><path d="M365.648 216.282l-22.995 13.277v8.851l22.995 13.275 7.664-4.425v-26.552l-7.663-4.424-.001-.002z"/><path d="M321.719 190.924h8.847v26.552h-8.847v-26.552z"/><path d="M361.237 208.637l4.425 7.661-22.994 13.278-4.424-7.661 22.993-13.278z"/><path d="M365.654 192.107l-4.423 7.662-22.993-13.276 4.423-7.661 22.993 13.275z"/><path d="M321.719 190.924l-7.663-4.425-4.424-7.662v-8.848l4.424-7.663 7.663-4.424h8.847l7.663 4.424 4.424 7.663v8.848l-4.424 7.662-7.663 4.425h-8.847z"/><path d="M338.23 126.926l-7.664 4.425v26.551l7.664 4.426 22.996-13.276V140.2l-22.996-13.274z"/><path d="M365.648 156.709l-22.995 13.276v8.852l22.995 13.274 7.664-4.424v-26.552l-7.663-4.424-.001-.002z"/><path d="M321.719 131.351h8.847v26.552h-8.847v-26.552z"/><path d="M361.238 149.06l4.425 7.662L342.67 170l-4.425-7.661 22.993-13.279z"/><path d="M365.654 132.534l-4.424 7.661-22.993-13.275 4.423-7.662 22.994 13.276z"/><path d="M321.719 131.351l-7.663-4.425-4.424-7.662v-8.848l4.424-7.663 7.663-4.424h8.847l7.663 4.424 4.424 7.663v8.848l-4.424 7.662-7.663 4.425h-8.847z"/><path d="M338.23 67.353l-7.664 4.424v26.552l7.664 4.426 22.996-13.276v-8.852L338.23 67.353z"/><path d="M365.648 97.136l-22.995 13.276v8.852l22.995 13.274 7.664-4.425v-26.551l-7.663-4.424-.001-.002z"/><path d="M321.719 71.777h8.847v26.552h-8.847V71.777z"/><path d="M361.238 89.485l4.425 7.661-22.993 13.278-4.425-7.661 22.993-13.278z"/><path d="M365.652 72.96l-4.423 7.661-22.993-13.275 4.423-7.662 22.993 13.276z"/><path d="M321.719 71.777l-7.663-4.424-4.424-7.663v-8.847l4.424-7.663 7.663-4.424h8.847l7.663 4.424 4.424 7.663v8.847l-4.424 7.663-7.663 4.424h-8.847z"/><path d="M338.23 7.779l-7.664 4.425v26.552l7.664 4.426 22.996-13.277v-8.851L338.23 7.779z"/><path d="M365.648 37.562l-22.995 13.277v8.851l22.995 13.275 7.664-4.425V41.988l-7.663-4.424-.001-.002z"/><path d="M321.719 12.204h8.847v26.552h-8.847V12.204z"/><path d="M361.239 29.91l4.424 7.66-22.993 13.28-4.424-7.662 22.993-13.278z"/><path d="M365.65 13.386l-4.423 7.661-22.993-13.275L342.658.11l22.992 13.276z"/><path d="M389.823 692.874l-7.664 4.425v26.552l7.664 4.425L412.818 715v-8.852l-22.995-13.274z"/><path d="M373.312 697.299h8.847v26.552h-8.847v-26.552z"/><path d="M417.258 698.486l-4.424 7.662-22.993-13.276 4.423-7.661 22.994 13.275z"/><path d="M373.312 697.299l-7.664-4.425-4.423-7.662v-8.848l4.423-7.663 7.664-4.424h8.847l7.663 4.424 4.424 7.663v8.848l-4.424 7.662-7.663 4.425h-8.847z"/><path d="M389.823 633.301l-7.664 4.425v26.551l7.664 4.426 22.995-13.276v-8.852l-22.995-13.274z"/><path d="M417.241 663.084l-22.995 13.276v8.852l22.995 13.274 7.664-4.424V667.51l-7.663-4.424-.001-.002z"/><path d="M373.312 637.726h8.847v26.552h-8.847v-26.552z"/><path d="M412.83 655.458l4.424 7.661-22.993 13.279-4.425-7.662 22.994-13.278z"/><path d="M417.257 638.913l-4.424 7.661-22.993-13.275 4.424-7.662 22.993 13.276z"/><path d="M373.312 637.726l-7.664-4.425-4.423-7.662v-8.848l4.423-7.663 7.664-4.424h8.847l7.663 4.424 4.424 7.663v8.848l-4.424 7.662-7.663 4.425h-8.847z"/><path d="M389.823 573.728l-7.664 4.424v26.552l7.664 4.426 22.995-13.276v-8.852l-22.995-13.274z"/><path d="M417.241 603.511l-22.995 13.276v8.852l22.995 13.274 7.664-4.425v-26.551l-7.663-4.424-.001-.002z"/><path d="M373.312 578.152h8.847v26.552h-8.847v-26.552z"/><path d="M412.83 595.882l4.424 7.662-22.993 13.278-4.424-7.662 22.993-13.278z"/><path d="M417.256 579.339L412.832 587l-22.993-13.275 4.423-7.662 22.994 13.276z"/><path d="M373.312 578.152l-7.664-4.424-4.423-7.663v-8.847l4.423-7.663 7.664-4.424h8.847l7.663 4.424 4.424 7.663v8.847l-4.424 7.663-7.663 4.424h-8.847z"/><path d="M389.823 514.154l-7.664 4.425v26.552l7.664 4.426 22.995-13.277v-8.851l-22.995-13.275z"/><path d="M417.241 543.938l-22.995 13.276v8.851l22.995 13.275 7.664-4.425v-26.552l-7.663-4.424-.001-.001z"/><path d="M373.312 518.579h8.847v26.552h-8.847v-26.552z"/><path d="M412.83 536.307l4.424 7.661-22.993 13.278-4.424-7.661 22.993-13.278z"/><path d="M417.254 519.765l-4.423 7.661-22.994-13.275 4.424-7.662 22.993 13.276z"/><path d="M373.312 518.579l-7.664-4.425-4.423-7.662v-8.847l4.423-7.664 7.664-4.423h8.847l7.663 4.423 4.424 7.664v8.847l-4.424 7.662-7.663 4.425h-8.847z"/><path d="M389.823 454.581l-7.664 4.425v26.552l7.664 4.425 22.995-13.276v-8.852l-22.995-13.274z"/><path d="M417.241 484.364l-22.995 13.277v8.851l22.995 13.275 7.664-4.425V488.79l-7.663-4.424-.001-.002z"/><path d="M373.312 459.006h8.847v26.552h-8.847v-26.552z"/><path d="M412.83 476.73l4.425 7.662-22.993 13.279-4.425-7.662 22.993-13.279z"/><path d="M417.253 460.19l-4.424 7.662-22.993-13.275 4.424-7.662 22.993 13.275z"/><path d="M373.312 459.006l-7.664-4.425-4.423-7.662v-8.848l4.423-7.663 7.664-4.424h8.847l7.663 4.424 4.424 7.663v8.848l-4.424 7.662-7.663 4.425h-8.847z"/><path d="M389.823 395.008l-7.664 4.425v26.551l7.664 4.426 22.995-13.276v-8.852l-22.995-13.274z"/><path d="M417.241 424.791l-22.995 13.276v8.852l22.995 13.274 7.664-4.424v-26.552l-7.663-4.424-.001-.002z"/><path d="M373.312 399.433h8.847v26.552h-8.847v-26.552z"/><path d="M412.831 417.155l4.425 7.661-22.993 13.278-4.425-7.661 22.993-13.278z"/><path d="M417.251 400.617l-4.423 7.662-22.993-13.276 4.423-7.661 22.993 13.275z"/><path d="M373.312 399.433l-7.664-4.425-4.423-7.662v-8.848l4.423-7.663 7.664-4.424h8.847l7.663 4.424 4.424 7.663v8.848l-4.424 7.662-7.663 4.425h-8.847z"/><path d="M389.823 335.435l-7.664 4.424v26.552l7.664 4.426 22.995-13.276v-8.852l-22.995-13.274z"/><path d="M417.241 365.218l-22.995 13.276v8.852l22.995 13.274 7.664-4.425v-26.551l-7.663-4.424-.001-.002z"/><path d="M373.312 339.859h8.847v26.552h-8.847v-26.552z"/><path d="M412.832 357.579l4.424 7.661-22.993 13.279-4.425-7.662 22.994-13.278z"/><path d="M417.25 341.044l-4.423 7.661-22.993-13.275 4.424-7.662 22.992 13.276z"/><path d="M373.312 339.859l-7.664-4.424-4.423-7.663v-8.847l4.423-7.663 7.664-4.424h8.847l7.663 4.424 4.424 7.663v8.847l-4.424 7.663-7.663 4.424h-8.847z"/><path d="M389.823 275.861l-7.664 4.425v26.552l7.664 4.426 22.995-13.277v-8.851l-22.995-13.275z"/><path d="M417.241 305.645l-22.995 13.276v8.851l22.995 13.275 7.664-4.425V310.07l-7.663-4.424-.001-.001z"/><path d="M373.312 280.286h8.847v26.552h-8.847v-26.552z"/><path d="M412.832 298.003l4.424 7.662-22.993 13.278-4.424-7.662 22.993-13.278z"/><path d="M417.25 281.47l-4.424 7.661-22.993-13.275 4.423-7.662 22.994 13.276z"/><path d="M373.312 280.286l-7.664-4.425-4.423-7.662v-8.847l4.423-7.664 7.664-4.423h8.847l7.663 4.423 4.424 7.664v8.847l-4.424 7.662-7.663 4.425h-8.847z"/><path d="M389.823 216.288l-7.664 4.425v26.552l7.664 4.425 22.995-13.276v-8.852l-22.995-13.274z"/><path d="M417.241 246.071l-22.995 13.277v8.851l22.995 13.275 7.664-4.425v-26.552l-7.663-4.424-.001-.002z"/><path d="M373.312 220.713h8.847v26.552h-8.847v-26.552z"/><path d="M412.832 238.428l4.424 7.661-22.993 13.278-4.424-7.661 22.993-13.278z"/><path d="M417.248 221.896l-4.424 7.661-22.993-13.275 4.424-7.662 22.993 13.276z"/><path d="M373.312 220.713l-7.664-4.425-4.423-7.662v-8.848l4.423-7.663 7.664-4.424h8.847l7.663 4.424 4.424 7.663v8.848l-4.424 7.662-7.663 4.425h-8.847z"/><path d="M389.823 156.715l-7.664 4.425v26.551l7.664 4.426 22.995-13.276v-8.852l-22.995-13.274z"/><path d="M417.241 186.498l-22.995 13.276v8.852l22.995 13.274 7.664-4.424v-26.552l-7.663-4.424-.001-.002z"/><path d="M373.312 161.14h8.847v26.552h-8.847V161.14z"/><path d="M412.833 178.851l4.425 7.662-22.994 13.278-4.424-7.661 22.993-13.279z"/><path d="M417.247 162.322l-4.424 7.661-22.993-13.275 4.423-7.662 22.994 13.276z"/><path d="M373.312 161.14l-7.664-4.425-4.423-7.662v-8.848l4.423-7.663 7.664-4.424h8.847l7.663 4.424 4.424 7.663v8.848l-4.424 7.662-7.663 4.425h-8.847z"/><path d="M389.823 97.142l-7.664 4.424v26.552l7.664 4.426 22.995-13.276v-8.852l-22.995-13.274z"/><path d="M417.241 126.925l-22.995 13.276v8.852l22.995 13.274 7.664-4.425v-26.551l-7.663-4.424-.001-.002z"/><path d="M373.312 101.566h8.847v26.552h-8.847v-26.552z"/><path d="M412.833 119.276l4.425 7.661-22.993 13.278-4.425-7.661 22.993-13.278z"/><path d="M417.246 102.748l-4.423 7.662-22.994-13.276 4.424-7.661 22.993 13.275z"/><path d="M373.312 101.566l-7.664-4.424-4.423-7.663v-8.847l4.423-7.663 7.664-4.424h8.847l7.663 4.424 4.424 7.663v8.847l-4.424 7.663-7.663 4.424h-8.847z"/><path d="M389.823 37.568l-7.664 4.425v26.552l7.664 4.426 22.995-13.277v-8.851l-22.995-13.275z"/><path d="M417.241 67.352l-22.995 13.276v8.851l22.995 13.275 7.664-4.425V71.777l-7.663-4.423-.001-.002z"/><path d="M373.312 41.993h8.847v26.552h-8.847V41.993z"/><path d="M412.834 59.7l4.424 7.661-22.993 13.279-4.424-7.662L412.834 59.7z"/><path d="M417.245 43.175l-4.424 7.661-22.993-13.275 4.424-7.662 22.993 13.276z"/><path d="M373.312 41.993l-7.664-4.425-4.423-7.662v-8.847l4.423-7.663 7.664-4.424h8.847l7.663 4.424 4.424 7.663v8.847l-4.424 7.662-7.663 4.425h-8.847z"/><path d="M417.241 7.778l-22.995 13.277v8.851l22.995 13.275 7.664-4.425V12.204l-7.663-4.424-.001-.002z"/><path d="M412.834.124l4.424 7.662-22.993 13.278-4.424-7.662L412.834.124z"/><path d="M424.904 727.088l-7.663-4.425-4.424-7.662v-8.848l4.424-7.663 7.663-4.424h8.848l7.663 4.424 4.424 7.663v8.848l-4.424 7.662-7.663 4.425h-8.848z"/><path d="M441.416 663.09l-7.664 4.425v26.551l7.664 4.426 22.995-13.276v-8.852l-22.995-13.274z"/><path d="M468.834 692.873l-22.995 13.276v8.852l22.995 13.274 7.664-4.424v-26.552l-7.663-4.424-.001-.002z"/><path d="M424.904 667.515h8.847v26.552h-8.847v-26.552z"/><path d="M464.425 685.249l4.424 7.661-22.993 13.278-4.425-7.661 22.994-13.278z"/><path d="M468.85 668.7l-4.424 7.662-22.993-13.275 4.424-7.662L468.85 668.7z"/><path d="M424.904 667.515l-7.663-4.425-4.424-7.662v-8.848l4.424-7.663 7.663-4.424h8.848l7.663 4.424 4.424 7.663v8.848l-4.424 7.662-7.663 4.425h-8.848z"/><path d="M441.416 603.517l-7.664 4.424v26.552l7.664 4.426 22.995-13.276v-8.852l-22.995-13.274z"/><path d="M468.834 633.3l-22.995 13.276v8.852l22.995 13.274 7.664-4.425v-26.551l-7.663-4.424-.001-.002z"/><path d="M424.904 607.941h8.847v26.552h-8.847v-26.552z"/><path d="M464.425 625.673l4.424 7.662-22.993 13.278-4.424-7.662 22.993-13.278z"/><path d="M468.85 609.127l-4.424 7.662-22.993-13.276 4.423-7.661 22.994 13.275z"/><path d="M424.904 607.941l-7.663-4.424-4.424-7.663v-8.847l4.424-7.663 7.663-4.424h8.848l7.663 4.424 4.424 7.663v8.847l-4.424 7.663-7.663 4.424h-8.848z"/><path d="M441.416 543.943l-7.664 4.425v26.552l7.664 4.426 22.995-13.277v-8.851l-22.995-13.275z"/><path d="M468.834 573.727l-22.995 13.276v8.851l22.995 13.275 7.664-4.425v-26.552l-7.663-4.423-.001-.002z"/><path d="M424.904 548.368h8.847v26.552h-8.847v-26.552z"/><path d="M464.425 566.097l4.424 7.662-22.993 13.278-4.424-7.661 22.993-13.279z"/><path d="M468.848 549.553l-4.423 7.662-22.994-13.276 4.424-7.661 22.993 13.275z"/><path d="M424.904 548.368l-7.663-4.425-4.424-7.662v-8.847l4.424-7.663 7.663-4.424h8.848l7.663 4.424 4.424 7.663v8.847l-4.424 7.662-7.663 4.425h-8.848z"/><path d="M441.416 484.37l-7.664 4.425v26.552l7.664 4.425 22.995-13.276v-8.851l-22.995-13.275z"/><path d="M468.834 514.153l-22.995 13.277v8.851l22.995 13.275 7.664-4.425v-26.552l-7.663-4.424-.001-.002z"/><path d="M424.904 488.795h8.847v26.552h-8.847v-26.552z"/><path d="M464.425 506.522l4.425 7.661-22.994 13.278-4.424-7.661 22.993-13.278z"/><path d="M468.847 489.98l-4.424 7.661-22.993-13.276 4.423-7.661 22.994 13.276z"/><path d="M424.904 488.795l-7.663-4.425-4.424-7.662v-8.848l4.424-7.663 7.663-4.424h8.848l7.663 4.424 4.424 7.663v8.848l-4.424 7.662-7.663 4.425h-8.848z"/><path d="M441.416 424.797l-7.664 4.425v26.551l7.664 4.426 22.995-13.276v-8.852l-22.995-13.274z"/><path d="M468.834 454.58l-22.995 13.276v8.852l22.995 13.274 7.664-4.424v-26.552l-7.663-4.424-.001-.002z"/><path d="M424.904 429.222h8.847v26.552h-8.847v-26.552z"/><path d="M464.426 446.946l4.425 7.661-22.993 13.278-4.425-7.661 22.993-13.278z"/><path d="M468.845 430.405l-4.423 7.662-22.993-13.276 4.423-7.661 22.993 13.275z"/><path d="M424.904 429.222l-7.663-4.425-4.424-7.662v-8.848l4.424-7.663 7.663-4.424h8.848l7.663 4.424 4.424 7.663v8.848l-4.424 7.662-7.663 4.425h-8.848z"/><path d="M441.416 365.224l-7.664 4.424V396.2l7.664 4.426 22.995-13.276v-8.852l-22.995-13.274z"/><path d="M468.834 395.007l-22.995 13.276v8.852l22.995 13.274 7.664-4.425v-26.551l-7.663-4.424-.001-.002z"/><path d="M424.904 369.648h8.847V396.2h-8.847v-26.552z"/><path d="M464.427 387.37l4.424 7.661-22.993 13.279-4.425-7.662 22.994-13.278z"/><path d="M468.845 370.832l-4.424 7.662-22.993-13.276 4.424-7.661 22.993 13.275z"/><path d="M424.904 369.648l-7.663-4.424-4.424-7.662v-8.848l4.424-7.663 7.663-4.424h8.848l7.663 4.424 4.424 7.663v8.848l-4.424 7.662-7.663 4.424h-8.848z"/><path d="M441.416 305.65l-7.664 4.425v26.552l7.664 4.426 22.995-13.277v-8.851l-22.995-13.275z"/><path d="M468.834 335.434l-22.995 13.276v8.852l22.995 13.274 7.664-4.425v-26.552l-7.663-4.423-.001-.002z"/><path d="M424.904 310.075h8.847v26.552h-8.847v-26.552z"/><path d="M464.427 327.794l4.424 7.662-22.993 13.278-4.424-7.662 22.993-13.278z"/><path d="M468.843 311.258l-4.423 7.662-22.993-13.276 4.423-7.661 22.993 13.275z"/><path d="M424.904 310.075l-7.663-4.425-4.424-7.662v-8.847l4.424-7.663 7.663-4.424h8.848l7.663 4.424 4.424 7.663v8.847l-4.424 7.662-7.663 4.425h-8.848z"/><path d="M441.416 246.077l-7.664 4.425v26.552l7.664 4.425 22.995-13.276v-8.851l-22.995-13.275z"/><path d="M468.834 275.86l-22.995 13.277v8.851l22.995 13.275 7.664-4.425v-26.552l-7.663-4.424-.001-.002z"/><path d="M424.904 250.502h8.847v26.552h-8.847v-26.552z"/><path d="M464.427 268.218l4.424 7.662-22.993 13.278-4.424-7.661 22.993-13.279z"/><path d="M468.842 251.684l-4.424 7.662-22.993-13.276 4.424-7.661 22.993 13.275z"/><path d="M424.904 250.502l-7.663-4.425-4.424-7.662v-8.848l4.424-7.663 7.663-4.424h8.848l7.663 4.424 4.424 7.663v8.848l-4.424 7.662-7.663 4.425h-8.848z"/><path d="M441.416 186.504l-7.664 4.425v26.551l7.664 4.426 22.995-13.276v-8.852l-22.995-13.274z"/><path d="M468.834 216.287l-22.995 13.276v8.852l22.995 13.274 7.664-4.424v-26.552l-7.663-4.424-.001-.002z"/><path d="M424.904 190.929h8.847v26.552h-8.847v-26.552z"/><path d="M464.427 208.643l4.425 7.661-22.993 13.278-4.425-7.661 22.993-13.278z"/><path d="M468.84 192.11l-4.423 7.662-22.993-13.276 4.423-7.661 22.993 13.275z"/><path d="M424.904 190.929l-7.663-4.425-4.424-7.662v-8.848l4.424-7.663 7.663-4.424h8.848l7.663 4.424 4.424 7.663v8.848l-4.424 7.662-7.663 4.425h-8.848z"/><path d="M441.416 126.931l-7.664 4.424v26.552l7.664 4.426 22.995-13.276v-8.852l-22.995-13.274z"/><path d="M468.834 156.714l-22.995 13.276v8.852l22.995 13.274 7.664-4.425V161.14l-7.663-4.424-.001-.002z"/><path d="M424.904 131.355h8.847v26.552h-8.847v-26.552z"/><path d="M464.428 149.067l4.425 7.661-22.993 13.278-4.425-7.661 22.993-13.278z"/><path d="M468.84 132.537l-4.424 7.661-22.993-13.275 4.424-7.662 22.993 13.276z"/><path d="M424.904 131.355l-7.663-4.424-4.424-7.662v-8.848l4.424-7.663 7.663-4.424h8.848l7.663 4.424 4.424 7.663v8.848l-4.424 7.662-7.663 4.424h-8.848z"/><path d="M441.416 67.357l-7.664 4.425v26.552l7.664 4.426 22.995-13.277v-8.851l-22.995-13.275z"/><path d="M468.834 97.141l-22.995 13.276v8.852l22.995 13.274 7.664-4.425v-26.552l-7.663-4.423-.001-.002z"/><path d="M424.904 71.782h8.847v26.552h-8.847V71.782z"/><path d="M464.429 89.49l4.424 7.662-22.993 13.279-4.425-7.662 22.994-13.279z"/><path d="M468.838 72.963l-4.423 7.662-22.993-13.276 4.423-7.661 22.993 13.275z"/><path d="M424.904 71.782l-7.663-4.425-4.424-7.662v-8.847l4.424-7.663 7.663-4.424h8.848l7.663 4.424 4.424 7.663v8.847l-4.424 7.662-7.663 4.425h-8.848z"/><path d="M441.416 7.784l-7.664 4.425v26.552l7.664 4.426 22.995-13.277v-8.851L441.416 7.784z"/><path d="M468.834 37.567l-22.995 13.277v8.851l22.995 13.275 7.664-4.425V41.993l-7.663-4.424-.001-.002z"/><path d="M424.904 12.209h8.847v26.552h-8.847V12.209z"/><path d="M464.429 29.915l4.424 7.662-22.993 13.278-4.424-7.662 22.993-13.278z"/><path d="M468.837 13.39l-4.423 7.66L441.42 7.776l4.424-7.661 22.993 13.275z"/><path d="M493.009 692.879l-7.664 4.425v26.551l7.664 4.426 22.995-13.276v-8.852l-22.995-13.274z"/><path d="M476.497 697.304h8.847v26.552h-8.847v-26.552z"/><path d="M520.444 698.49l-4.424 7.66-22.993-13.275 4.424-7.661 22.993 13.276z"/><path d="M476.497 697.304l-7.663-4.425-4.424-7.662v-8.848l4.424-7.663 7.663-4.424h8.848l7.663 4.424 4.424 7.663v8.848l-4.424 7.662-7.663 4.425h-8.848z"/><path d="M493.009 633.306l-7.664 4.424v26.552l7.664 4.426 22.995-13.276v-8.852l-22.995-13.274z"/><path d="M520.427 663.089l-22.995 13.276v8.852l22.995 13.274 7.664-4.425v-26.551l-7.663-4.424-.001-.002z"/><path d="M476.497 637.73h8.847v26.552h-8.847V637.73z"/><path d="M516.02 655.463l4.424 7.662-22.994 13.278-4.424-7.662 22.994-13.278z"/><path d="M520.443 638.916l-4.423 7.661-22.994-13.275 4.424-7.662 22.993 13.276z"/><path d="M476.497 637.73l-7.663-4.424-4.424-7.662v-8.848l4.424-7.663 7.663-4.424h8.848l7.663 4.424 4.424 7.663v8.848l-4.424 7.662-7.663 4.424h-8.848z"/><path d="M493.009 573.732l-7.664 4.425v26.552l7.664 4.426 22.995-13.277v-8.851l-22.995-13.275z"/><path d="M520.427 603.516l-22.995 13.276v8.852l22.995 13.274 7.664-4.425v-26.552l-7.663-4.423-.001-.002z"/><path d="M476.497 578.157h8.847v26.552h-8.847v-26.552z"/><path d="M516.02 595.888l4.424 7.661-22.993 13.278-4.425-7.661 22.994-13.278z"/><path d="M520.442 579.342l-4.424 7.661-22.993-13.275 4.424-7.662 22.993 13.276z"/><path d="M476.497 578.157l-7.663-4.425-4.424-7.662v-8.847l4.424-7.663 7.663-4.424h8.848l7.663 4.424 4.424 7.663v8.847l-4.424 7.662-7.663 4.425h-8.848z"/><path d="M493.009 514.159l-7.664 4.425v26.552l7.664 4.426 22.995-13.277v-8.851l-22.995-13.275z"/><path d="M520.427 543.942l-22.995 13.277v8.851l22.995 13.275 7.664-4.425v-26.552l-7.663-4.424-.001-.002z"/><path d="M476.497 518.584h8.847v26.552h-8.847v-26.552z"/><path d="M516.02 536.312l4.424 7.661-22.993 13.278-4.424-7.661 22.993-13.278z"/><path d="M520.44 519.768l-4.423 7.661-22.993-13.275 4.423-7.662 22.993 13.276z"/><path d="M476.497 518.584l-7.663-4.425-4.424-7.662v-8.848l4.424-7.663 7.663-4.424h8.848l7.663 4.424 4.424 7.663v8.848l-4.424 7.662-7.663 4.425h-8.848z"/><path d="M493.009 454.586l-7.664 4.425v26.551l7.664 4.426 22.995-13.276v-8.852l-22.995-13.274z"/><path d="M520.427 484.369l-22.995 13.277v8.851l22.995 13.274 7.664-4.424v-26.552l-7.663-4.424-.001-.002z"/><path d="M476.497 459.011h8.847v26.552h-8.847v-26.552z"/><path d="M516.02 476.736l4.424 7.661-22.993 13.279-4.424-7.662 22.993-13.278z"/><path d="M520.439 460.194l-4.424 7.662-22.993-13.276 4.424-7.661 22.993 13.275z"/><path d="M476.497 459.011l-7.663-4.425-4.424-7.662v-8.848l4.424-7.663 7.663-4.424h8.848l7.663 4.424 4.424 7.663v8.848l-4.424 7.662-7.663 4.425h-8.848z"/><path d="M493.009 395.013l-7.664 4.425v26.551l7.664 4.426 22.995-13.276v-8.852l-22.995-13.274z"/><path d="M520.427 424.796l-22.995 13.276v8.852l22.995 13.274 7.664-4.425v-26.551l-7.663-4.424-.001-.002z"/><path d="M476.497 399.438h8.847v26.552h-8.847v-26.552z"/><path d="M516.021 417.16l4.425 7.661-22.994 13.278-4.424-7.661 22.993-13.278z"/><path d="M520.438 400.62l-4.423 7.662-22.993-13.275 4.423-7.662 22.993 13.275z"/><path d="M476.497 399.438l-7.663-4.425-4.424-7.662v-8.848l4.424-7.663 7.663-4.424h8.848l7.663 4.424 4.424 7.663v8.848l-4.424 7.662-7.663 4.425h-8.848z"/><path d="M493.009 335.439l-7.664 4.425v26.552l7.664 4.426 22.995-13.277v-8.851l-22.995-13.275z"/><path d="M520.427 365.223l-22.995 13.276v8.852l22.995 13.274 7.664-4.425v-26.552l-7.663-4.423-.001-.002z"/><path d="M476.497 339.864h8.847v26.552h-8.847v-26.552z"/><path d="M516.021 357.584l4.425 7.662-22.994 13.278-4.424-7.662 22.993-13.278z"/><path d="M520.437 341.047l-4.423 7.661-22.994-13.275 4.424-7.662 22.993 13.276z"/><path d="M476.497 339.864l-7.663-4.425-4.424-7.662v-8.847l4.424-7.663 7.663-4.424h8.848l7.663 4.424 4.424 7.663v8.847l-4.424 7.662-7.663 4.425h-8.848z"/><path d="M493.009 275.866l-7.664 4.425v26.552l7.664 4.426 22.995-13.277v-8.851l-22.995-13.275z"/><path d="M520.427 305.649l-22.995 13.277v8.851l22.995 13.275 7.664-4.425v-26.552l-7.663-4.424-.001-.002z"/><path d="M476.497 280.291h8.847v26.552h-8.847v-26.552z"/><path d="M516.022 298.009l4.424 7.661-22.993 13.278-4.425-7.661 22.994-13.278z"/><path d="M520.436 281.473l-4.424 7.661-22.993-13.275 4.423-7.662 22.994 13.276z"/><path d="M476.497 280.291l-7.663-4.425-4.424-7.662v-8.848l4.424-7.663 7.663-4.423h8.848l7.663 4.423 4.424 7.663v8.848l-4.424 7.662-7.663 4.425h-8.848z"/><path d="M493.009 216.293l-7.664 4.425v26.552l7.664 4.425 22.995-13.276v-8.852l-22.995-13.274z"/><path d="M520.427 246.076l-22.995 13.277v8.851l22.995 13.275 7.664-4.425v-26.552l-7.663-4.424-.001-.002z"/><path d="M476.497 220.718h8.847v26.552h-8.847v-26.552z"/><path d="M516.022 238.433l4.424 7.661-22.993 13.278-4.424-7.661 22.993-13.278z"/><path d="M520.434 221.899l-4.423 7.661-22.994-13.275 4.424-7.662 22.993 13.276z"/><path d="M476.497 220.718l-7.663-4.425-4.424-7.662v-8.848l4.424-7.663 7.663-4.424h8.848l7.663 4.424 4.424 7.663v8.848l-4.424 7.662-7.663 4.425h-8.848z"/><path d="M493.009 156.72l-7.664 4.425v26.551l7.664 4.426 22.995-13.276v-8.852l-22.995-13.274z"/><path d="M520.427 186.503l-22.995 13.276v8.852l22.995 13.274 7.664-4.425v-26.551l-7.663-4.424-.001-.002z"/><path d="M476.497 161.145h8.847v26.552h-8.847v-26.552z"/><path d="M516.023 178.857l4.424 7.661-22.993 13.278-4.424-7.661 22.993-13.278z"/><path d="M520.434 162.326l-4.424 7.661-22.993-13.275 4.423-7.662 22.994 13.276z"/><path d="M476.497 161.145l-7.663-4.425-4.424-7.662v-8.848l4.424-7.663 7.663-4.424h8.848l7.663 4.424 4.424 7.663v8.848l-4.424 7.662-7.663 4.425h-8.848z"/><path d="M493.009 97.146l-7.664 4.425v26.552l7.664 4.426 22.995-13.277v-8.851l-22.995-13.275z"/><path d="M520.427 126.93l-22.995 13.276v8.852l22.995 13.274 7.664-4.425v-26.552l-7.663-4.423-.001-.002z"/><path d="M476.497 101.571h8.847v26.552h-8.847v-26.552z"/><path d="M516.023 119.281l4.424 7.661-22.993 13.279-4.424-7.662 22.993-13.278z"/><path d="M520.432 102.752l-4.423 7.661-22.993-13.275 4.423-7.662 22.993 13.276z"/><path d="M476.497 101.571l-7.663-4.425-4.424-7.662v-8.847l4.424-7.663 7.663-4.424h8.848l7.663 4.424 4.424 7.663v8.847l-4.424 7.662-7.663 4.425h-8.848z"/><path d="M493.009 37.573l-7.664 4.425V68.55l7.664 4.426 22.995-13.277v-8.851l-22.995-13.275z"/><path d="M520.427 67.356l-22.995 13.277v8.851l22.995 13.275 7.664-4.425V71.782l-7.663-4.424-.001-.002z"/><path d="M476.497 41.998h8.847V68.55h-8.847V41.998z"/><path d="M516.023 59.705l4.425 7.662-22.993 13.278-4.425-7.662 22.993-13.278z"/><path d="M520.43 43.178l-4.423 7.661-22.993-13.275 4.424-7.662 22.992 13.276z"/><path d="M476.497 41.998l-7.663-4.425-4.424-7.662v-8.848l4.424-7.663 7.663-4.423h8.848l7.663 4.423 4.424 7.663v8.848l-4.424 7.662-7.663 4.425h-8.848z"/><path d="M520.427 7.783L497.432 21.06v8.851l22.995 13.275 7.664-4.425V12.209l-7.663-4.424-.001-.002z"/><path d="M516.024.13l4.424 7.661-22.993 13.278-4.425-7.661L516.024.13z"/><path d="M528.09 727.093l-7.663-4.425-4.424-7.662v-8.848l4.424-7.663 7.663-4.424h8.848l7.663 4.424 4.423 7.663v8.848l-4.423 7.662-7.663 4.425h-8.848z"/><path d="M528.09 667.52h8.847v26.552h-8.847V667.52z"/><path d="M528.09 667.52l-7.663-4.425-4.424-7.662v-8.848l4.424-7.663 7.663-4.424h8.848l7.663 4.424 4.423 7.663v8.848l-4.423 7.662-7.663 4.425h-8.848z"/><path d="M528.09 607.946h8.847v26.552h-8.847v-26.552z"/><path d="M528.09 607.946l-7.663-4.425-4.424-7.662v-8.847l4.424-7.663 7.663-4.424h8.848l7.663 4.424 4.423 7.663v8.847l-4.423 7.662-7.663 4.425h-8.848z"/><path d="M528.09 548.373h8.847v26.552h-8.847v-26.552z"/><path d="M528.09 548.373l-7.663-4.425-4.424-7.662v-8.848l4.424-7.663 7.663-4.423h8.848l7.663 4.423 4.423 7.663v8.848l-4.423 7.662-7.663 4.425h-8.848z"/><path d="M528.09 488.8h8.847v26.552h-8.847V488.8z"/><path d="M528.09 488.8l-7.663-4.425-4.424-7.662v-8.848l4.424-7.663 7.663-4.424h8.848l7.663 4.424 4.423 7.663v8.848l-4.423 7.662-7.663 4.425h-8.848z"/><path d="M528.09 429.227h8.847v26.552h-8.847v-26.552z"/><path d="M528.09 429.227l-7.663-4.425-4.424-7.662v-8.848l4.424-7.663 7.663-4.424h8.848l7.663 4.424 4.423 7.663v8.848l-4.423 7.662-7.663 4.425h-8.848z"/><path d="M528.09 369.653h8.847v26.552h-8.847v-26.552z"/><path d="M528.09 369.653l-7.663-4.424-4.424-7.663v-8.847l4.424-7.663 7.663-4.424h8.848l7.663 4.424 4.423 7.663v8.847l-4.423 7.663-7.663 4.424h-8.848z"/><path d="M528.09 310.08h8.847v26.552h-8.847V310.08z"/><path d="M528.09 310.08l-7.663-4.425-4.424-7.662v-8.847l4.424-7.664 7.663-4.423h8.848l7.663 4.423 4.423 7.664v8.847l-4.423 7.662-7.663 4.425h-8.848z"/><path d="M528.09 250.507h8.847v26.552h-8.847v-26.552z"/><path d="M528.09 250.507l-7.663-4.425-4.424-7.662v-8.848l4.424-7.663 7.663-4.424h8.848l7.663 4.424 4.423 7.663v8.848l-4.423 7.662-7.663 4.425h-8.848z"/><path d="M528.09 190.934h8.847v26.552h-8.847v-26.552z"/><path d="M528.09 190.934l-7.663-4.425-4.424-7.662v-8.848l4.424-7.663 7.663-4.424h8.848l7.663 4.424 4.423 7.663v8.848l-4.423 7.662-7.663 4.425h-8.848z"/><path d="M528.09 131.36h8.847v26.552h-8.847V131.36z"/><path d="M528.09 131.36l-7.663-4.424-4.424-7.663v-8.847l4.424-7.663 7.663-4.424h8.848l7.663 4.424 4.423 7.663v8.847l-4.423 7.663-7.663 4.424h-8.848z"/><path d="M528.09 71.787h8.847v26.552h-8.847V71.787z"/><path d="M528.09 71.787l-7.663-4.425-4.424-7.662v-8.847l4.424-7.664 7.663-4.423h8.848l7.663 4.423 4.423 7.664V59.7l-4.423 7.662-7.663 4.425h-8.848z"/><path d="M528.09 12.214h8.847v26.552h-8.847V12.214z"/></svg>